<svg width="26" height="36" viewBox="0 0 26 36" fill="none" xmlns="http://www.w3.org/2000/svg">
<path d="M13 1.00001C11.4237 0.998339 9.86244 1.29594 8.40575 1.87579C6.94906 2.45563 5.62551 3.30632 4.51086 4.37915C3.39621 5.45198 2.51236 6.72588 1.90992 8.12792C1.30748 9.52996 0.998274 11.0326 1.00001 12.5498C1.00001 21.2128 13 34 13 34C13 34 25 21.2128 25 12.5498C25.0017 11.0326 24.6925 9.52996 24.0901 8.12792C23.4876 6.72588 22.6038 5.45198 21.4891 4.37915C20.3745 3.30632 19.0509 2.45563 17.5943 1.87579C16.1376 1.29594 14.5764 0.998339 13 1.00001V1.00001ZM13 16.6753C12.1523 16.6753 11.3235 16.4333 10.6187 15.98C9.9138 15.5267 9.36442 14.8824 9.04 14.1286C8.71558 13.3747 8.6307 12.5452 8.79608 11.745C8.96147 10.9447 9.3697 10.2096 9.96915 9.63266C10.5686 9.05571 11.3323 8.66279 12.1638 8.50361C12.9952 8.34443 13.8571 8.42613 14.6403 8.73837C15.4235 9.05062 16.0929 9.57939 16.5639 10.2578C17.0349 10.9363 17.2863 11.7339 17.2863 12.5498C17.2859 13.6439 16.8342 14.693 16.0305 15.4666C15.2267 16.2402 14.1367 16.675 13 16.6753V16.6753Z" stroke="#EC5D1F" stroke-width="2"/>
</svg>
