<svg width="28" height="26" viewBox="0 0 28 26" fill="none" xmlns="http://www.w3.org/2000/svg">
<path d="M28 9.76718V22.2478C27.9971 22.751 27.8961 23.2478 27.7038 23.7056C27.5115 24.1634 27.2322 24.5719 26.8842 24.9043C26.1382 25.6201 25.1744 26.0104 24.1788 25.9998H3.82214C2.82614 26.0104 1.8619 25.6197 1.11584 24.9033C0.767706 24.5708 0.488302 24.1621 0.295988 23.7041C0.103674 23.2461 0.00280234 22.7491 0 22.2458L0 9.76617C0.0297942 9.12239 0.203773 8.49622 0.506855 7.94194C0.809936 7.38765 1.23297 6.92198 1.73929 6.5853L12.7948 0.305869C13.1692 0.104673 13.5813 0 13.9991 0C14.4168 0 14.829 0.104673 15.2034 0.305869L26.2495 6.58631C26.7512 6.92959 27.1713 7.39657 27.4754 7.94929C27.7796 8.502 27.9593 9.12485 28 9.76718V9.76718ZM2.74187 8.4613L14.0417 15.7214L25.0878 8.30276L14.2036 2.10362C14.1407 2.06371 14.0691 2.04267 13.9963 2.04267C13.9234 2.04267 13.8518 2.06371 13.7889 2.10362C11.8811 3.16052 3.82214 7.48265 2.74187 8.4613ZM25.8367 10.3373L14.0417 18.2488L2.07817 10.4979V22.2427C2.10476 22.7178 2.30172 23.1627 2.62683 23.482C2.95195 23.8013 3.37936 23.9697 3.81746 23.951H24.1779C24.621 23.9494 25.0477 23.7682 25.3742 23.4429C25.5264 23.2914 25.6468 23.1062 25.7276 22.8999C25.8083 22.6936 25.8474 22.4709 25.8423 22.2468L25.8367 10.3373Z" fill="#EC5D1F"/>
</svg>
