<svg width="60" height="60" viewBox="0 0 60 60" fill="none" xmlns="http://www.w3.org/2000/svg">
<path d="M30 5C43.775 5 55 16.225 55 30C55 43.775 43.775 55 30 55C16.225 55 5 43.775 5 30C5 16.225 16.225 5 30 5ZM23.025 31.325L31.85 40.15C32.225 40.525 32.7 40.7 33.175 40.7C33.65 40.7 34.125 40.525 34.5 40.15C35.225 39.425 35.225 38.225 34.5 37.5L27 30L34.5 22.5C35.225 21.775 35.225 20.575 34.5 19.85C33.775 19.125 32.575 19.125 31.85 19.85L23.025 28.675C22.275 29.4 22.275 30.6 23.025 31.325Z" fill="white"/>
</svg>
