<svg width="60" height="60" viewBox="0 0 60 60" fill="none" xmlns="http://www.w3.org/2000/svg">
<path d="M30 5C16.225 5 5 16.225 5 30C5 43.775 16.225 55 30 55C43.775 55 55 43.775 55 30C55 16.225 43.775 5 30 5ZM36.975 31.325L28.15 40.15C27.775 40.525 27.3 40.7 26.825 40.7C26.35 40.7 25.875 40.525 25.5 40.15C24.775 39.425 24.775 38.225 25.5 37.5L33 30L25.5 22.5C24.775 21.775 24.775 20.575 25.5 19.85C26.225 19.125 27.425 19.125 28.15 19.85L36.975 28.675C37.725 29.4 37.725 30.6 36.975 31.325Z" fill="white"/>
</svg>
