<svg width="54" height="55" viewBox="0 0 54 55" fill="none" xmlns="http://www.w3.org/2000/svg">
<circle cx="27" cy="27.9375" r="27" fill="#EC5D1F"/>
<path d="M23.5026 39.6038H30.5026C36.3359 39.6038 38.6693 37.2705 38.6693 31.4372V24.4372C38.6693 18.6038 36.3359 16.2705 30.5026 16.2705H23.5026C17.6693 16.2705 15.3359 18.6038 15.3359 24.4372V31.4372C15.3359 37.2705 17.6693 39.6038 23.5026 39.6038Z" stroke="white" stroke-width="2" stroke-linecap="round" stroke-linejoin="round"/>
<path d="M26.9974 32.0212C29.2526 32.0212 31.0807 30.193 31.0807 27.9378C31.0807 25.6827 29.2526 23.8545 26.9974 23.8545C24.7422 23.8545 22.9141 25.6827 22.9141 27.9378C22.9141 30.193 24.7422 32.0212 26.9974 32.0212Z" stroke="white" stroke-width="2" stroke-linecap="round" stroke-linejoin="round"/>
<path d="M33.5781 22.1038H33.5916" stroke="white" stroke-width="2" stroke-linecap="round" stroke-linejoin="round"/>
</svg>
