<svg width="64" height="69" viewBox="0 0 64 69" fill="none" xmlns="http://www.w3.org/2000/svg">
<path fill-rule="evenodd" clip-rule="evenodd" d="M31.1146 0.00453033C34.0765 -0.0203591 35.1716 0.0543093 35.4205 0.303204C35.5947 0.50232 35.6943 1.17434 35.5947 3.6135L33.4791 3.73795V6.97358H28.0034V3.73795H27.0078C26.3441 3.73795 25.9708 3.6135 25.8878 3.36461C25.8131 3.16549 25.7385 2.4437 25.7136 1.77168C25.6638 0.626767 25.7136 0.527209 26.4105 0.303204C26.8087 0.153867 28.9243 0.0294198 31.1146 0.00453033ZM16.2805 6.07756C16.3551 6.12734 16.604 6.52557 16.8032 6.94869C17.1516 7.67049 17.1516 7.74516 16.7036 8.04383C16.2307 8.3425 16.2307 8.36739 16.7036 9.13897C16.9525 9.58698 17.1267 9.98521 17.0521 10.035C16.9774 10.0848 16.38 10.4332 15.6831 10.8314C15.0111 11.2297 14.4138 11.4288 14.3889 11.3043C14.364 11.1799 14.1151 10.8066 13.8662 10.4581C13.4431 9.93543 13.3186 9.88565 12.9702 10.1594C12.6217 10.4083 12.4973 10.3337 12.0244 9.68653C11.5515 9.0643 11.5017 8.86518 11.7755 8.64118C11.9497 8.46695 13.02 7.81982 14.1151 7.1727C15.2102 6.52557 16.2058 6.05267 16.2805 6.07756ZM45.5007 6.2269C45.6749 6.25179 46.7203 6.77447 47.8403 7.42159C48.9852 8.06872 49.9062 8.69095 49.9062 8.84029C49.9062 8.98963 49.707 9.36297 49.483 9.68653C49.1595 10.1097 48.8857 10.2092 48.4626 10.1097C48.0892 10.0101 47.8403 10.0848 47.6661 10.4083C47.5417 10.6323 47.3425 10.9808 47.243 11.155C47.0936 11.4039 46.7452 11.3043 45.7994 10.8066C45.1025 10.4332 44.53 10.0848 44.4803 10.035C44.4554 9.98521 44.6047 9.58698 44.8287 9.16386C45.202 8.41717 45.2021 8.31761 44.8536 8.09361C44.6296 7.94427 44.4305 7.72027 44.4056 7.59582C44.4056 7.44648 44.5549 7.07314 44.8038 6.77447C45.0278 6.47579 45.3265 6.2269 45.5007 6.2269ZM31.6124 8.3425C33.8276 8.41717 35.8685 8.61629 37.2125 8.93985C38.3823 9.18874 40.2739 9.7612 41.4437 10.1843C42.6135 10.6323 44.2811 11.379 45.1772 11.8519C46.0732 12.3497 47.5168 13.2706 48.4128 13.8929C49.3088 14.5151 50.9764 16.0085 52.1462 17.1783C53.316 18.3481 54.8841 20.1899 55.6307 21.285C56.3774 22.3802 57.4477 24.3215 58.045 25.5909C58.6424 26.8354 59.0904 27.9305 59.0406 28.0052C59.0157 28.0799 57.597 28.503 52.7684 29.8221L52.0467 28.4034C51.6733 27.6318 50.8768 26.2878 50.2795 25.3918C49.707 24.4958 48.6866 23.1766 48.0146 22.4299C47.3425 21.6833 45.9487 20.4637 44.9283 19.6921C43.9078 18.9205 42.2153 17.8752 41.1948 17.3774C40.1744 16.8796 38.3077 16.1578 37.0881 15.7845C35.0471 15.1622 34.4996 15.0875 30.7413 15.0875C26.983 15.0875 26.4354 15.1622 24.4442 15.7596C23.2495 16.1329 21.4575 16.8298 20.4619 17.3276C19.4912 17.8254 17.9979 18.6965 17.1765 19.2441C16.3551 19.8165 14.9613 21.0112 14.0653 21.9073C13.1693 22.8033 11.9248 24.3215 11.2777 25.2922C10.6555 26.238 9.78433 27.7314 9.3861 28.6274C8.96297 29.5234 8.39052 31.1413 8.09184 32.2364C7.74339 33.5555 7.4945 35.2729 7.41983 37.3387C7.34516 39.2801 7.39494 41.1468 7.59405 42.3166C7.76828 43.3371 8.16651 44.9051 8.46518 45.8012C8.76386 46.6972 9.41099 48.1905 9.88389 49.1612C10.3817 50.1319 11.2777 51.5755 11.8999 52.3969C12.5222 53.2182 13.7418 54.5622 14.6129 55.4085C15.4591 56.2547 17.0769 57.4992 18.1721 58.221C19.2672 58.9179 20.9099 59.789 23.4735 60.8593L23.0006 61.9793C22.7269 62.6015 22.3037 64.0202 22.0797 65.1652C21.7064 67.007 21.6068 67.2061 21.1588 67.0568C20.885 66.9821 19.7152 66.4843 18.5454 65.9865C17.3756 65.4887 15.4591 64.4434 14.2395 63.6469C13.0448 62.8753 11.1532 61.3571 10.0581 60.3117C8.93808 59.2415 7.39494 57.5241 6.62336 56.5036C5.85179 55.4832 4.63221 53.5169 3.9353 52.148C3.2384 50.779 2.36726 48.7381 2.01881 47.6181C1.67036 46.4732 1.19746 44.5816 0.998342 43.3869C0.799226 42.1673 0.625 39.977 0.625 38.4588C0.625 36.9405 0.799226 34.7005 0.998342 33.4809C1.22235 32.2613 1.5708 30.6186 1.79481 29.8719C1.99392 29.1252 2.59127 27.5572 3.08906 26.3874C3.58685 25.2176 4.78154 23.102 5.72734 21.6584C6.69803 20.2148 8.36563 18.1738 9.48565 17.0538C10.5808 15.9587 12.3728 14.4404 13.468 13.6937C14.5382 12.9471 16.38 11.8768 17.5498 11.3043C18.7196 10.7319 20.5615 9.98521 21.6566 9.63676C22.7517 9.31319 24.494 8.89007 25.5145 8.71584C26.5349 8.56651 27.5554 8.39228 27.7545 8.3425C27.9536 8.29272 29.6959 8.29272 31.6124 8.3425ZM29.7208 16.1827H31.6871L31.6622 17.452C31.6124 18.373 31.4879 18.821 31.1644 19.0201C30.8657 19.2192 30.6168 19.2192 30.2933 19.0201C29.9946 18.821 29.8452 18.3481 29.7955 17.452L29.7208 16.1827ZM20.5366 18.6716C20.6112 18.6716 20.9099 19.1694 21.2335 19.7917C21.5322 20.4139 21.7313 21.0859 21.6566 21.285C21.5819 21.509 21.2833 21.733 20.9846 21.8326C20.661 21.9073 20.2628 21.9073 20.1135 21.8326C19.9392 21.733 19.5659 21.2104 18.7943 19.6672L19.6157 19.1943C20.0388 18.9205 20.4619 18.6716 20.5366 18.6716ZM41.7175 19.0699C42.1158 19.269 42.4891 19.5428 42.5638 19.6672C42.6384 19.8165 42.4144 20.3641 42.066 20.9117C41.7175 21.4593 41.2695 21.9073 41.0704 21.9073C40.8713 21.9073 40.5228 21.8575 40.3237 21.7828C40.1246 21.733 39.9255 21.3846 39.9006 21.0112C39.8757 20.6628 40.1246 19.9908 40.4233 19.5179C40.9708 18.6965 40.9957 18.6965 41.7175 19.0699ZM12.099 26.3874L12.8457 26.8105C13.2689 27.0594 13.7666 27.4327 13.9658 27.6318C14.1898 27.8558 14.2893 28.2541 14.2147 28.5776C14.14 28.8763 13.8413 29.1999 13.5675 29.2497C13.2937 29.3243 12.6217 29.1501 12.0742 28.8763C11.5266 28.6025 11.0786 28.3039 11.0786 28.2043C11.0786 28.1047 11.3026 27.6567 11.6013 27.1838L12.099 26.3874ZM49.3835 26.4371C49.4581 26.4371 49.707 26.7607 49.9559 27.1589C50.2048 27.5821 50.3791 28.0301 50.3791 28.1545C50.3791 28.3039 49.931 28.6274 49.3835 28.9012C48.8359 29.175 48.1639 29.3492 47.8901 29.2745C47.6163 29.2248 47.3425 29.0008 47.2679 28.7768C47.2181 28.5776 47.243 28.2292 47.3425 28.0052C47.4421 27.7563 47.915 27.3332 48.3879 27.0096C48.8857 26.7109 49.3337 26.4371 49.3835 26.4371ZM19.7152 27.1838C19.8148 27.1838 22.0797 28.9759 24.7429 31.1661C29.4221 34.9742 29.6461 35.1236 30.7164 35.1236C31.3635 35.1236 32.1849 35.3227 32.5831 35.5965C33.0062 35.8454 33.5289 36.4427 33.7778 36.9654C34.0267 37.4632 34.2009 38.0854 34.2009 38.3592C34.2009 38.633 34.0516 39.2303 33.8773 39.6783C33.6782 40.1264 33.2302 40.7735 32.8569 41.097C32.384 41.5451 31.8364 41.7442 31.015 41.8188C30.1688 41.8686 29.6212 41.7442 29.0488 41.3708C28.6008 41.097 28.0532 40.5495 27.8043 40.1761C27.5554 39.8028 27.3563 39.0063 27.3563 38.3841C27.3314 37.3138 27.1572 37.0152 24.1207 33.2569C22.3784 31.0666 20.6112 28.9261 20.2379 28.4781C19.8397 28.0301 19.5161 27.5572 19.5161 27.4078C19.5161 27.2834 19.6157 27.1838 19.7152 27.1838ZM8.56474 37.3636H9.80922C10.9044 37.3636 11.1035 37.4632 11.3773 37.9859C11.651 38.5334 11.6261 38.6828 11.1781 39.1308C10.8297 39.4792 10.3817 39.6286 8.56474 39.6037V37.3636ZM13.1693 47.5683C13.4431 47.5683 13.8164 47.7176 13.9906 47.8919C14.1649 48.0661 14.3142 48.3897 14.3142 48.6386C14.3142 48.8874 13.8911 49.3603 13.3684 49.6839C12.8457 50.0324 12.2982 50.331 12.1239 50.3061C11.9497 50.3061 11.651 49.9826 11.427 49.5595C11.2279 49.1612 11.0537 48.7879 11.0288 48.7132C11.0039 48.6634 11.3773 48.3897 11.8253 48.1159C12.2982 47.8172 12.8955 47.5932 13.1693 47.5683ZM20.661 55.0351C21.0095 55.0351 21.3579 55.2343 21.5073 55.5329C21.7064 55.9312 21.6317 56.3045 21.1339 57.1508C20.6361 58.0717 20.437 58.2459 20.0886 58.0468C19.8397 57.9223 19.4414 57.6734 19.1925 57.4992C18.7445 57.1756 18.7445 57.1259 19.3668 56.1054C19.8646 55.3089 20.1881 55.0351 20.661 55.0351Z" fill="#EEF2FF"/>
<path d="M50.9858 35.6436C49.8493 35.9898 49.268 37.27 49.7644 38.3542C49.9212 38.7004 50.4633 39.2621 54.9832 43.782C58.5756 47.3679 60.1105 48.8636 60.3195 48.9681C60.718 49.1641 61.4299 49.2098 61.8741 49.0661C62.3117 48.9159 62.7558 48.5175 62.9779 48.0668C63.1216 47.7598 63.1543 47.603 63.1543 47.2307C63.1543 46.4535 63.0628 46.3228 61.345 44.605L59.8362 43.0831L60.9858 41.927C62.6775 40.2223 62.6971 40.4182 60.5547 38.2628C58.3666 36.0616 58.5495 36.0877 56.8382 37.7794L55.6821 38.9355L54.1602 37.4202C52.5012 35.7612 52.3313 35.6371 51.6063 35.5979C51.3843 35.5848 51.1099 35.6044 50.9858 35.6436Z" fill="#FF483D"/>
<path d="M45.6771 38.3868C45.05 38.4783 44.5406 38.8506 44.2532 39.4384C44.0833 39.7716 44.0507 39.9152 44.0507 40.3006C44.0507 41.202 43.6588 40.7578 50.8305 47.9296C55.3112 52.4037 57.3687 54.4155 57.5712 54.52C57.8128 54.6506 57.9631 54.6768 58.4529 54.6768C59.1257 54.6768 59.387 54.5723 59.8115 54.1412C60.1904 53.7689 60.3341 53.4488 60.3667 52.8806C60.4255 51.9269 60.9023 52.4756 53.6653 45.2255C49.1258 40.6794 47.1336 38.733 46.9115 38.6089C46.5392 38.4064 46.0951 38.3281 45.6771 38.3868Z" fill="#FF483D"/>
<path d="M44.3781 50.2354L41.4062 53.2073L43.4833 55.2778L45.5538 57.3549L48.5388 54.3699L51.5303 51.3784L49.4728 49.3209C48.3429 48.191 47.4023 47.2635 47.3827 47.2635C47.3631 47.2635 46.0111 48.6025 44.3781 50.2354Z" fill="#FF483D"/>
<path d="M33.9288 49.9347C33.6218 50.0327 33.3736 50.1894 33.1254 50.4442C32.7465 50.8165 32.6028 51.1365 32.5702 51.7048C32.5114 52.6584 32.0346 52.1098 39.2782 59.3664C46.4564 66.5577 46.0711 66.2116 46.9528 66.2116C47.7236 66.2116 48.3441 65.8327 48.6837 65.1469C48.8536 64.8138 48.8862 64.6701 48.8862 64.2847C48.8862 63.3834 49.2781 63.8275 42.1064 56.6558C37.482 52.0379 35.5747 50.1764 35.3657 50.0653C35.0457 49.9086 34.2357 49.8302 33.9288 49.9347Z" fill="#FF483D"/>
<path d="M31.0066 55.5323C30.6147 55.676 30.1705 56.094 29.9615 56.5186C29.8178 56.8256 29.7852 56.9823 29.7852 57.3546C29.7852 58.1319 29.8766 58.2625 31.5944 59.9804L33.1032 61.5022L31.9537 62.6583C30.2685 64.3631 30.2424 64.1671 32.3848 66.3226C34.5663 68.5237 34.39 68.4976 36.1013 66.8059L37.2574 65.6564L38.8119 67.1978C40.5493 68.9287 40.6342 68.981 41.4703 68.981C41.823 68.981 41.9993 68.9418 42.241 68.8177C43.2207 68.3213 43.6192 67.2109 43.175 66.2311C43.0183 65.885 42.4761 65.3232 37.9562 60.8033C34.3834 57.2371 32.8289 55.7217 32.6199 55.6172C32.2411 55.4278 31.4115 55.3821 31.0066 55.5323Z" fill="#FF483D"/>
</svg>
