<svg width="25" height="25" viewBox="0 0 25 25" fill="none" xmlns="http://www.w3.org/2000/svg">
<g clip-path="url(#clip0_207_2377)">
<path d="M4.8125 10.2461C4.8125 10.7765 5.02321 11.2852 5.39829 11.6603C5.77336 12.0354 6.28207 12.2461 6.8125 12.2461C7.34293 12.2461 7.85164 12.0354 8.22671 11.6603C8.60179 11.2852 8.8125 10.7765 8.8125 10.2461C8.8125 9.71566 8.60179 9.20695 8.22671 8.83188C7.85164 8.45681 7.34293 8.24609 6.8125 8.24609C6.28207 8.24609 5.77336 8.45681 5.39829 8.83188C5.02321 9.20695 4.8125 9.71566 4.8125 10.2461Z" stroke="black" stroke-width="1.4" stroke-linecap="round" stroke-linejoin="round"/>
<path d="M6.8125 4.24609V8.24609" stroke="black" stroke-width="1.4" stroke-linecap="round" stroke-linejoin="round"/>
<path d="M6.8125 12.2461V20.2461" stroke="black" stroke-width="1.4" stroke-linecap="round" stroke-linejoin="round"/>
<path d="M13.884 14.5561C13.6219 14.3902 13.3249 14.2876 13.0163 14.2563C12.7077 14.225 12.3961 14.2659 12.1061 14.3757C11.816 14.4856 11.5555 14.6614 11.3451 14.8892C11.1347 15.1171 10.9802 15.3908 10.8937 15.6886C10.8073 15.9865 10.7913 16.3003 10.847 16.6054C10.9027 16.9105 11.0286 17.1985 11.2148 17.4466C11.401 17.6946 11.6423 17.896 11.9196 18.0347C12.197 18.1735 12.5028 18.2459 12.813 18.2461" stroke="black" stroke-width="1.4" stroke-linecap="round" stroke-linejoin="round"/>
<path d="M12.8125 4.24609V14.2461" stroke="black" stroke-width="1.4" stroke-linecap="round" stroke-linejoin="round"/>
<path d="M12.8125 18.2461V20.2461" stroke="black" stroke-width="1.4" stroke-linecap="round" stroke-linejoin="round"/>
<path d="M16.8125 7.24609C16.8125 7.77653 17.0232 8.28523 17.3983 8.66031C17.7734 9.03538 18.2821 9.24609 18.8125 9.24609C19.3429 9.24609 19.8516 9.03538 20.2267 8.66031C20.6018 8.28523 20.8125 7.77653 20.8125 7.24609C20.8125 6.71566 20.6018 6.20695 20.2267 5.83188C19.8516 5.45681 19.3429 5.24609 18.8125 5.24609C18.2821 5.24609 17.7734 5.45681 17.3983 5.83188C17.0232 6.20695 16.8125 6.71566 16.8125 7.24609Z" stroke="black" stroke-width="1.4" stroke-linecap="round" stroke-linejoin="round"/>
<path d="M18.8125 4.24609V5.24609" stroke="black" stroke-width="1.4" stroke-linecap="round" stroke-linejoin="round"/>
<path d="M18.8125 9.24609V11.7461" stroke="black" stroke-width="1.4" stroke-linecap="round" stroke-linejoin="round"/>
<path d="M21.9335 20.3677C22.3531 19.9482 22.639 19.4137 22.7548 18.8317C22.8706 18.2497 22.8113 17.6465 22.5842 17.0983C22.3572 16.55 21.9727 16.0814 21.4793 15.7517C20.9859 15.4221 20.4059 15.2461 19.8125 15.2461C19.2191 15.2461 18.6391 15.4221 18.1457 15.7517C17.6523 16.0814 17.2678 16.55 17.0408 17.0983C16.8137 17.6465 16.7544 18.2497 16.8702 18.8317C16.986 19.4137 17.2719 19.9482 17.6915 20.3677C18.1095 20.7867 18.8165 21.4127 19.8125 22.2467C20.8635 21.3567 21.5715 20.7307 21.9335 20.3677Z" stroke="black" stroke-width="1.4" stroke-linecap="round" stroke-linejoin="round"/>
<path d="M19.8125 18.2461V18.2561" stroke="black" stroke-width="1.4" stroke-linecap="round" stroke-linejoin="round"/>
</g>
<defs>
<clipPath id="clip0_207_2377">
<rect width="24" height="24" fill="white" transform="translate(0.8125 0.246094)"/>
</clipPath>
</defs>
</svg>
