<svg width="8" height="9" viewBox="0 0 8 9" fill="none" xmlns="http://www.w3.org/2000/svg">
<path d="M2.13199 8.44C2.13199 8.35 2.12199 8.31 2.08199 8.31L1.85199 8.42C1.85199 8.37 1.82199 8.34 1.77199 8.32L1.69199 8.31C1.62199 8.31 1.59199 8.32 1.49199 8.38C1.46199 8.32 1.42199 8.25 1.39199 8.19C1.13199 7.69 0.861992 6.94 0.741992 6.61C0.681992 6.44 0.621992 6.09 0.551992 5.56C0.631992 5.61 0.691992 5.63 0.721992 5.63C0.761992 5.63 0.811992 5.56 0.851992 5.42C0.871992 5.45 0.911992 5.46 0.961992 5.46C0.991992 5.46 1.03199 5.45 1.05199 5.42L1.21199 5.18L1.39199 5.24H1.40199C1.42199 5.24 1.45199 5.21 1.50199 5.18C1.55199 5.15 1.59199 5.13 1.62199 5.13L1.65199 5.14C1.81199 5.22 1.92199 5.36 1.97199 5.58C2.09199 6.09 2.20199 6.34 2.33199 6.34C2.44199 6.34 2.59199 6.21 2.75199 5.96C2.91199 5.71 3.07199 5.37 3.25199 4.96C3.26199 5.04 3.27199 5.08 3.29199 5.08C3.35199 5.08 3.50199 4.73 3.87199 4.14C4.42199 3.25 5.78199 1.54 6.13199 1.3C6.39199 1.12 6.59199 0.95 6.73199 0.8C6.71199 0.9 6.69199 0.97 6.69199 1C6.69199 1.03 6.71199 1.04 6.73199 1.04L7.01199 0.9V0.94C7.01199 0.99 7.02199 1.02 7.05199 1.02C7.09199 1.02 7.25199 0.86 7.27199 0.8L7.25199 0.94L7.59199 0.74L7.51199 0.92C7.61199 0.85 7.69199 0.81 7.74199 0.81C7.79199 0.81 7.82199 0.89 7.82199 0.94C7.82199 1.02 7.75199 1.13 7.64199 1.27C7.52199 1.43 7.22199 1.74 6.32199 2.77C5.93199 3.21 4.20199 5.56 3.87199 6.12L3.25199 7.17C2.98199 7.62 2.81199 7.91 2.72199 8.02C2.63199 8.13 2.52199 8.24 2.39199 8.34L2.30199 8.29L2.22199 8.34L2.13199 8.44Z" fill="white"/>
</svg>
