<svg width="28" height="28" viewBox="0 0 28 28" fill="none" xmlns="http://www.w3.org/2000/svg">
<g clip-path="url(#clip0_51_1924)">
<g clip-path="url(#clip1_51_1924)">
<path d="M14.2836 23.995C14.0545 24.224 13.6473 24.2622 13.3801 23.995C13.132 23.7449 13.132 23.3415 13.3801 23.0915L17.6939 18.7777L15.8997 16.9835L11.5859 21.2973C11.3441 21.5518 10.9369 21.5391 10.6824 21.2973C10.4343 21.0472 10.4343 20.6438 10.6824 20.3938L14.9962 16.08L13.202 14.2857L8.88815 18.5996C8.6591 18.8287 8.25189 18.8668 7.98467 18.5996C7.74259 18.3471 7.74259 17.9486 7.98467 17.6961L12.2985 13.3823L10.4915 11.5881L6.1777 15.9019C5.94865 16.1309 5.54144 16.1691 5.27422 15.9019C5.03214 15.6493 5.03214 15.2509 5.27422 14.9985L10.8478 9.4247L13.2274 11.7916C14.4363 13.0005 16.5232 12.9877 17.7321 11.7916C18.9792 10.5445 18.9792 8.53394 17.7321 7.28688L15.3652 4.92001L15.7215 4.5637C16.7141 3.57115 18.3302 3.57115 19.3227 4.5637L24.7182 9.95916C25.7108 10.9517 25.7108 12.5678 24.7182 13.5604L14.2836 23.995ZM26.5124 15.3673C28.4959 13.3762 28.4959 10.1561 26.5124 8.16491L21.117 2.76946C19.1259 0.785992 15.9057 0.785992 13.9146 2.76946L13.5583 3.12577L13.202 2.76946C11.2108 0.785992 7.9907 0.785992 5.99955 2.76946L1.49486 7.27416C-0.285164 9.04659 -0.501541 11.8543 0.98585 13.8785L2.83099 12.0333C2.32628 11.0478 2.51661 9.84907 3.30182 9.0684L7.80651 4.5637C8.79907 3.57115 10.4152 3.57115 11.4077 4.5637L15.9379 9.09385C16.1669 9.3229 16.2051 9.7301 15.9379 9.99733C15.6707 10.2646 15.2634 10.2264 15.0344 9.99733L10.8478 5.82349L3.46725 13.1913C2.22019 14.4257 2.22019 16.449 3.46725 17.696C3.96353 18.1923 4.59978 18.4977 5.27422 18.5868C5.45831 19.9934 6.56534 21.1004 7.97194 21.2846C8.15603 22.6912 9.26307 23.7982 10.6697 23.9823C10.7587 24.6695 11.0641 25.293 11.5604 25.7893C12.1585 26.3873 12.9602 26.7182 13.8128 26.7182C14.6654 26.7182 15.467 26.3873 16.0651 25.7893L26.5124 15.3673Z" fill="#F30051"/>
</g>
</g>
<defs>
<clipPath id="clip0_51_1924">
<rect width="28" height="28" fill="white"/>
</clipPath>
<clipPath id="clip1_51_1924">
<rect width="28" height="25.4363" fill="white" transform="translate(0 1.28188)"/>
</clipPath>
</defs>
</svg>
