<svg width="425" height="78" viewBox="0 0 425 78" fill="none" xmlns="http://www.w3.org/2000/svg">
<g clip-path="url(#clip0_1160_3109)">
<path d="M142.615 27.2288H140.464V38.1241H142.615C144.35 38.1241 145.683 37.634 146.614 36.6538C147.569 35.6484 148.047 34.3164 148.047 32.6576C148.047 30.9736 147.569 29.6541 146.614 28.6991C145.683 27.7189 144.35 27.2288 142.615 27.2288ZM136.692 23.7227H143.746C143.822 23.7227 143.897 23.7227 143.973 23.7227C148.123 23.7227 151.204 25.0045 153.216 27.5681C154.322 28.9755 154.876 30.672 154.876 32.6576C154.876 34.6431 154.322 36.327 153.216 37.7094C151.178 40.2981 148.022 41.5925 143.746 41.5925H140.426V47.5868C140.426 48.944 140.841 49.8362 141.671 50.2635C140.716 51.3442 139.559 51.8846 138.201 51.8846C135.736 51.8846 134.503 50.3891 134.503 47.3983V27.9828C134.503 26.701 134.076 25.8339 133.221 25.3815C134.151 24.2756 135.308 23.7227 136.692 23.7227Z" fill="white"/>
<path d="M166.344 34.205C164.181 34.205 163.099 36.09 163.099 39.86C163.099 40.413 163.125 40.991 163.175 41.5942C163.477 46.5455 164.86 49.0211 167.325 49.0211C169.488 49.0211 170.569 47.1236 170.569 43.3284C170.569 42.8006 170.544 42.2226 170.494 41.5942C170.142 36.6681 168.758 34.205 166.344 34.205ZM159.817 34.0165C161.603 32.2321 163.942 31.3398 166.834 31.3398C169.727 31.3398 172.066 32.2321 173.851 34.0165C175.637 35.7759 176.53 38.3018 176.53 41.5942C176.53 44.8867 175.625 47.4252 173.814 49.2096C172.028 50.9941 169.689 51.8863 166.797 51.8863C163.929 51.8863 161.603 50.9941 159.817 49.2096C158.032 47.4252 157.139 44.8867 157.139 41.5942C157.139 38.3018 158.032 35.7759 159.817 34.0165Z" fill="white"/>
<path d="M196.714 35.8261C196.714 36.7561 196.425 37.4849 195.847 38.0127C195.268 38.5154 194.501 38.7667 193.545 38.7667C192.589 38.7667 191.734 38.4777 190.98 37.8996C191.055 37.598 191.093 37.1959 191.093 36.6932C191.093 36.1906 190.942 35.7382 190.64 35.336C190.364 34.9339 189.974 34.7328 189.471 34.7328C188.49 34.7328 187.635 35.3989 186.905 36.7309C186.201 38.063 185.849 39.7218 185.849 41.7073C185.849 43.6677 186.277 45.1757 187.132 46.2313C188.012 47.2618 189.156 47.777 190.565 47.777C192.652 47.777 194.4 46.9853 195.809 45.4019C196.387 45.6281 196.676 46.1559 196.676 46.9853C196.676 48.2671 195.96 49.4107 194.526 50.416C193.118 51.3962 191.433 51.8863 189.471 51.8863C186.528 51.8863 184.239 51.0444 182.605 49.3604C180.97 47.6765 180.152 45.3517 180.152 42.3859C180.152 39.4202 181.108 36.844 183.02 34.6574C184.931 32.4457 187.383 31.3398 190.376 31.3398C192.061 31.3398 193.533 31.7545 194.79 32.5839C196.073 33.3882 196.714 34.4689 196.714 35.8261Z" fill="white"/>
<path d="M206.938 26.4004V39.1053C211.616 36.9187 213.955 34.3299 213.955 31.3391C215.64 31.3391 216.999 31.6784 218.03 32.357C219.061 33.0356 219.576 33.9906 219.576 35.2222C219.576 36.4286 218.885 37.4967 217.502 38.4267C216.143 39.3566 213.993 40.2614 211.05 41.1411C213.49 43.6041 215.301 45.175 216.483 45.8536C217.665 46.5322 218.985 46.8715 220.444 46.8715C220.444 48.4549 220.067 49.6864 219.312 50.5661C218.558 51.4457 217.514 51.8856 216.181 51.8856C214.848 51.8856 213.477 51.2195 212.069 49.8875C210.686 48.5303 208.975 46.2054 206.938 42.913V47.5878C206.938 48.945 207.353 49.8372 208.183 50.2645C207.227 51.3452 206.07 51.8856 204.712 51.8856C202.248 51.8856 201.015 50.3901 201.015 47.3993V26.1742C201.015 24.9175 200.588 24.0253 199.732 23.4975C200.688 22.4419 201.845 21.9141 203.203 21.9141C205.693 21.9141 206.938 23.4095 206.938 26.4004Z" fill="white"/>
<path d="M233.874 38.9929C234.327 38.9427 234.666 38.8044 234.892 38.5782C235.119 38.3269 235.232 37.8619 235.232 37.1833C235.232 36.5047 235.031 35.889 234.628 35.336C234.251 34.758 233.723 34.4689 233.044 34.4689C232.365 34.4689 231.723 34.8962 231.12 35.7507C230.516 36.6053 230.114 37.8494 229.913 39.483L233.874 38.9929ZM234.515 47.777C236.603 47.777 238.351 46.9853 239.759 45.4019C240.338 45.6533 240.627 46.1811 240.627 46.9853C240.627 48.1917 239.91 49.3102 238.476 50.3406C237.043 51.3711 235.358 51.8863 233.421 51.8863C230.428 51.8863 228.089 51.0695 226.404 49.4358C224.744 47.8022 223.914 45.4648 223.914 42.4236C223.914 39.3574 224.832 36.7435 226.668 34.582C228.504 32.4206 230.831 31.3398 233.647 31.3398C235.81 31.3398 237.596 32.0436 239.005 33.451C240.413 34.8334 241.117 36.4168 241.117 38.2012C241.117 39.5836 240.79 40.5763 240.136 41.1795C239.482 41.7827 238.363 42.1095 236.779 42.1597L229.799 42.3482C229.975 45.9674 231.547 47.777 234.515 47.777Z" fill="white"/>
<path d="M251.303 35.3736V45.5526C251.303 47.136 251.92 47.9277 253.152 47.9277C254.51 47.9277 255.768 47.3119 256.925 46.0804C257.277 46.0804 257.566 46.2312 257.792 46.5328C258.044 46.8092 258.17 47.1862 258.17 47.6638C258.17 48.6942 257.541 49.6619 256.283 50.5667C255.026 51.4463 253.466 51.8862 251.605 51.8862C249.769 51.8862 248.273 51.4212 247.116 50.4913C245.959 49.5613 245.38 48.1413 245.38 46.2312V35.3736C244.475 35.3484 243.796 35.1348 243.343 34.7327C242.89 34.3054 242.664 33.7776 242.664 33.1493C242.664 32.5209 242.928 32.0183 243.456 31.6413C244.06 31.7167 244.701 31.7544 245.38 31.7544V30.6234C245.38 29.3164 244.953 28.4368 244.098 27.9844C245.053 26.9036 246.185 26.3633 247.493 26.3633C248.826 26.3633 249.794 26.7277 250.398 27.4566C251.002 28.1854 251.303 29.3164 251.303 30.8496V31.7544H257C257.176 31.9554 257.264 32.2068 257.264 32.5084C257.264 33.2875 256.837 33.9661 255.981 34.5442C255.151 35.0971 253.693 35.3736 251.605 35.3736H251.303Z" fill="white"/>
<path d="M269.677 27.2288H267.527V38.1241H269.677C271.412 38.1241 272.745 37.634 273.676 36.6538C274.632 35.6484 275.11 34.3164 275.11 32.6576C275.11 30.9736 274.632 29.6541 273.676 28.6991C272.745 27.7189 271.412 27.2288 269.677 27.2288ZM263.754 23.7227H270.809C270.884 23.7227 270.96 23.7227 271.035 23.7227C275.185 23.7227 278.266 25.0045 280.278 27.5681C281.385 28.9755 281.938 30.672 281.938 32.6576C281.938 34.6431 281.385 36.327 280.278 37.7094C278.241 40.2981 275.085 41.5925 270.809 41.5925H267.489V47.5868C267.489 48.944 267.904 49.8362 268.734 50.2635C267.778 51.3442 266.621 51.8846 265.263 51.8846C262.798 51.8846 261.566 50.3891 261.566 47.3983V27.9828C261.566 26.701 261.138 25.8339 260.283 25.3815C261.214 24.2756 262.371 23.7227 263.754 23.7227Z" fill="white"/>
<path d="M285.333 47.4V35.5999C285.333 34.293 284.906 33.4133 284.051 32.9609C285.007 31.8802 286.163 31.3398 287.522 31.3398C289.76 31.3398 290.992 32.5462 291.219 34.959C292.225 32.5462 293.897 31.3398 296.236 31.3398C297.418 31.3398 298.387 31.6917 299.141 32.3954C299.921 33.0992 300.311 34.0417 300.311 35.2229C300.311 36.4042 300.009 37.3467 299.405 38.0504C298.827 38.729 297.934 39.0683 296.727 39.0683C296.576 39.0683 296.249 39.0432 295.746 38.9929C295.847 38.5405 295.897 38.2515 295.897 38.1258C295.897 37.4975 295.708 37.0074 295.331 36.6555C294.979 36.2785 294.539 36.09 294.011 36.09C292.652 36.09 291.734 37.1205 291.257 39.1814V47.5885C291.257 48.9457 291.672 49.838 292.501 50.2652C291.546 51.346 290.389 51.8863 289.031 51.8863C286.566 51.8863 285.333 50.3909 285.333 47.4Z" fill="white"/>
<path d="M312.006 34.205C309.843 34.205 308.762 36.09 308.762 39.86C308.762 40.413 308.787 40.991 308.837 41.5942C309.139 46.5455 310.522 49.0211 312.987 49.0211C315.15 49.0211 316.231 47.1236 316.231 43.3284C316.231 42.8006 316.206 42.2226 316.156 41.5942C315.804 36.6681 314.42 34.205 312.006 34.205ZM305.479 34.0165C307.265 32.2321 309.604 31.3398 312.496 31.3398C315.389 31.3398 317.728 32.2321 319.514 34.0165C321.299 35.7759 322.192 38.3018 322.192 41.5942C322.192 44.8867 321.287 47.4252 319.476 49.2096C317.69 50.9941 315.351 51.8863 312.459 51.8863C309.592 51.8863 307.265 50.9941 305.479 49.2096C303.694 47.4252 302.801 44.8867 302.801 41.5942C302.801 38.3018 303.694 35.7759 305.479 34.0165Z" fill="white"/>
<path d="M336.301 48.4556C337.307 48.4556 338.2 47.8147 338.98 46.5329C339.759 45.2511 340.149 43.6175 340.149 41.6319C340.149 39.6464 339.772 38.1133 339.017 37.0325C338.263 35.9267 337.357 35.3737 336.301 35.3737C335.622 35.3737 334.968 35.5999 334.339 36.0523C333.736 36.4796 333.245 37.0702 332.868 37.8242V46.7214C333.798 47.8776 334.943 48.4556 336.301 48.4556ZM326.945 57.0889V35.5999C326.945 34.293 326.517 33.4008 325.662 32.9232C326.618 31.8676 327.775 31.3398 329.133 31.3398C331.12 31.3398 332.302 32.2446 332.679 34.0542C334.037 32.2446 335.861 31.3398 338.15 31.3398C340.438 31.3398 342.337 32.2446 343.846 34.0542C345.355 35.8387 346.11 38.3395 346.11 41.5565C346.11 44.7736 345.204 47.2995 343.393 49.1342C341.583 50.969 339.495 51.8863 337.131 51.8863C335.572 51.8863 334.151 51.4465 332.868 50.5668V57.2774C332.868 58.6095 333.283 59.4892 334.113 59.9164C333.182 61.0223 332.025 61.5752 330.642 61.5752C328.177 61.5752 326.945 60.0798 326.945 57.0889Z" fill="white"/>
<path d="M358.899 38.9929C359.352 38.9427 359.691 38.8044 359.918 38.5782C360.144 38.3269 360.257 37.8619 360.257 37.1833C360.257 36.5047 360.056 35.889 359.654 35.336C359.276 34.758 358.748 34.4689 358.069 34.4689C357.39 34.4689 356.749 34.8962 356.145 35.7507C355.542 36.6053 355.139 37.8494 354.938 39.483L358.899 38.9929ZM359.541 47.777C361.628 47.777 363.376 46.9853 364.785 45.4019C365.363 45.6533 365.652 46.1811 365.652 46.9853C365.652 48.1917 364.935 49.3102 363.502 50.3406C362.068 51.3711 360.383 51.8863 358.446 51.8863C355.454 51.8863 353.115 51.0695 351.429 49.4358C349.769 47.8022 348.939 45.4648 348.939 42.4236C348.939 39.3574 349.857 36.7435 351.693 34.582C353.529 32.4206 355.856 31.3398 358.673 31.3398C360.836 31.3398 362.622 32.0436 364.03 33.451C365.438 34.8334 366.143 36.4168 366.143 38.2012C366.143 39.5836 365.816 40.5763 365.162 41.1795C364.508 41.7827 363.389 42.1095 361.804 42.1597L354.825 42.3482C355.001 45.9674 356.573 47.777 359.541 47.777Z" fill="white"/>
<path d="M370.216 47.4V35.5999C370.216 34.293 369.789 33.4133 368.934 32.9609C369.889 31.8802 371.046 31.3398 372.404 31.3398C374.643 31.3398 375.875 32.5462 376.102 34.959C377.108 32.5462 378.78 31.3398 381.119 31.3398C382.301 31.3398 383.27 31.6917 384.024 32.3954C384.804 33.0992 385.194 34.0417 385.194 35.2229C385.194 36.4042 384.892 37.3467 384.288 38.0504C383.71 38.729 382.817 39.0683 381.61 39.0683C381.459 39.0683 381.132 39.0432 380.629 38.9929C380.729 38.5405 380.78 38.2515 380.78 38.1258C380.78 37.4975 380.591 37.0074 380.214 36.6555C379.862 36.2785 379.422 36.09 378.893 36.09C377.535 36.09 376.617 37.1205 376.139 39.1814V47.5885C376.139 48.9457 376.554 49.838 377.384 50.2652C376.429 51.346 375.272 51.8863 373.913 51.8863C371.449 51.8863 370.216 50.3909 370.216 47.4Z" fill="white"/>
<path d="M394.928 35.3736V45.5526C394.928 47.136 395.545 47.9277 396.777 47.9277C398.135 47.9277 399.393 47.3119 400.55 46.0804C400.902 46.0804 401.191 46.2312 401.417 46.5328C401.669 46.8092 401.795 47.1862 401.795 47.6638C401.795 48.6942 401.166 49.6619 399.908 50.5667C398.651 51.4463 397.091 51.8862 395.23 51.8862C393.394 51.8862 391.898 51.4212 390.741 50.4913C389.584 49.5613 389.005 48.1413 389.005 46.2312V35.3736C388.1 35.3484 387.421 35.1348 386.968 34.7327C386.515 34.3054 386.289 33.7776 386.289 33.1493C386.289 32.5209 386.553 32.0183 387.081 31.6413C387.685 31.7167 388.326 31.7544 389.005 31.7544V30.6234C389.005 29.3164 388.578 28.4368 387.723 27.9844C388.678 26.9036 389.81 26.3633 391.118 26.3633C392.451 26.3633 393.419 26.7277 394.023 27.4566C394.627 28.1854 394.928 29.3164 394.928 30.8496V31.7544H400.625C400.801 31.9554 400.889 32.2068 400.889 32.5084C400.889 33.2875 400.462 33.9661 399.606 34.5442C398.776 35.0971 397.318 35.3736 395.23 35.3736H394.928Z" fill="white"/>
<path d="M418.733 35.5622C419.01 34.8082 419.148 34.1296 419.148 33.5264C419.148 32.9232 419.01 32.4206 418.733 32.0184C419.438 31.566 420.255 31.3398 421.186 31.3398C422.519 31.3398 423.512 31.8425 424.166 32.8478C424.493 33.3505 424.656 33.9411 424.656 34.6197C424.656 35.2983 424.493 36.0775 424.166 36.9571L416.96 56.448C415.703 59.8662 413.716 61.5752 410.999 61.5752C409.792 61.5752 408.799 61.2611 408.019 60.6327C407.239 60.0044 406.85 59.2504 406.85 58.3707C406.85 57.5162 407.076 56.7245 407.529 55.9956C408.208 56.5486 408.862 56.825 409.49 56.825C410.119 56.825 410.672 56.6365 411.15 56.2595C411.653 55.9077 412.018 55.3924 412.244 54.7138L413.225 51.8486C413.15 51.8486 413.087 51.8486 413.037 51.8486C412.081 51.8486 411.175 51.4842 410.32 50.7553C409.465 50.0013 408.824 48.9332 408.396 47.5508L404.812 36.09C404.536 35.1852 404.284 34.5192 404.058 34.0919C403.857 33.6395 403.555 33.2625 403.152 32.9609C404.284 31.8802 405.441 31.3398 406.623 31.3398C407.805 31.3398 408.723 31.6791 409.377 32.3577C410.031 33.0363 410.547 34.1171 410.924 35.5999L414.395 48.3425L418.733 35.5622Z" fill="white"/>
<path d="M112.834 18.3281H114.406V60.9291H112.834V18.3281Z" fill="white"/>
<path d="M82.6398 78.4214H54.2539V72.8508H76.7061C76.7061 72.111 76.7061 71.6046 76.7061 71.0982C76.7348 61.7084 76.7512 52.3185 76.8085 42.9287C76.814 41.9513 76.5681 41.3767 75.6748 40.8006C66.389 34.8138 57.1415 28.7668 47.9131 22.6898C47.1837 22.2094 46.696 22.1452 45.9776 22.6079C36.6467 28.6235 27.2954 34.6063 17.9823 40.6478C17.5206 40.9481 17.0958 41.707 17.0931 42.2557C17.0398 52.3731 17.0548 62.4905 17.0548 72.7594H42.4069V58.5757H50.8035V78.3709H11.0706C11.0706 77.6597 11.0706 77.0455 11.0706 76.4312C11.0446 63.9115 11.005 51.3917 11.0378 38.8719C11.0392 38.3204 11.5842 37.5765 12.0896 37.2503C21.7114 31.0163 31.3755 24.8452 41.0055 18.6249C42.7102 17.5233 44.3125 16.2634 45.9502 15.0608C46.6414 14.5531 47.2042 14.437 48.0265 14.9926C59.3885 22.6625 70.7833 30.2861 82.1562 37.9396C82.4376 38.1293 82.7422 38.5443 82.7436 38.8555C82.7764 51.9486 82.7764 65.0417 82.775 78.1348C82.775 78.2276 82.6917 78.319 82.6425 78.4228L82.6398 78.4214Z" fill="white"/>
<path d="M23.3399 7.59105C26.86 7.59105 30.2681 7.60607 33.6761 7.57194C34.0886 7.56785 34.5449 7.36719 34.9041 7.13651C38.5457 4.80645 42.1819 2.46684 45.7935 0.090377C46.5475 -0.406483 47.1089 -0.652183 48.0104 -0.059773C63.0277 9.81873 78.0724 19.6536 93.1102 29.5007C93.453 29.7259 93.7836 29.9716 94.1701 30.2419C93.2194 31.9536 92.2974 33.6161 91.2866 35.437C88.8429 33.825 86.4675 32.2566 84.0894 30.6923C72.5976 23.1316 61.0649 15.6323 49.651 7.95414C47.6184 6.58778 46.3809 6.45264 44.2322 7.89681C30.7844 16.9386 17.1877 25.7578 3.63877 34.6494C3.33826 34.846 3.02819 35.0289 2.57196 35.3115C1.58848 33.5452 0.63504 31.8321 -0.359375 30.0467C4.31219 27.0164 8.8936 24.042 13.4777 21.0732C16.2329 19.2891 18.9743 17.4846 21.7609 15.7497C22.9356 15.018 23.5107 14.1635 23.3768 12.6975C23.2225 10.9981 23.3413 9.27273 23.3413 7.59105H23.3399Z" fill="white"/>
<path d="M51.0848 52.0122H42.5448C42.4915 51.2233 42.4 50.4698 42.3973 49.7149C42.3754 43.1042 42.3467 36.4935 42.3973 29.8828C42.4014 29.2822 42.9491 28.683 43.2578 28.0906C43.3002 28.0087 43.4231 27.9677 43.5078 27.9077C46.9309 25.478 46.9432 25.4616 50.3267 28.0251C50.7037 28.3104 51.0492 28.9178 51.052 29.3778C51.097 36.8703 51.0834 44.3628 51.0834 52.0122H51.0848Z" fill="white"/>
<path d="M67.8306 56.7599H59.3535V33.8047C60.7604 34.711 62.0062 35.7416 63.4268 36.3845C66.8471 37.9324 68.2951 40.2584 67.9194 44.1705C67.5247 48.2846 67.8306 52.467 67.8306 56.7599Z" fill="white"/>
<path d="M34.2661 56.7235H25.8368C25.8368 50.9837 25.83 45.3148 25.8546 39.646C25.8559 39.3307 26.0321 38.8829 26.2753 38.7232C28.8747 37.0183 31.5042 35.3585 34.2647 33.5977V56.7248L34.2661 56.7235Z" fill="white"/>
<path d="M59.3477 58.5781H67.6718V67.3701H59.3477V58.5781Z" fill="white"/>
<path d="M26.0293 67.3757V58.6602H34.0597V67.3757H26.0293Z" fill="white"/>
</g>
<defs>
<clipPath id="clip0_1160_3109">
<rect width="425" height="78" fill="white"/>
</clipPath>
</defs>
</svg>
