<svg width="24" height="27" viewBox="0 0 24 27" fill="none" xmlns="http://www.w3.org/2000/svg">
<path d="M3.69335 21.1533L3.73162 21.2457L3.69335 21.1533C3.62609 21.1812 3.56498 21.222 3.51351 21.2735C3.46203 21.325 3.4212 21.3861 3.39335 21.4534C3.36549 21.5206 3.35116 21.5927 3.35117 21.6655V22.324C3.35117 23.3995 4.22597 24.2743 5.30152 24.2743H19.0555C20.1311 24.2743 21.0059 23.3995 21.0059 22.3239V4.80348C21.0059 3.72799 20.1311 2.85312 19.0556 2.85312L18.0002 2.85313C18.0001 2.85313 18.0001 2.85312 18.0001 2.85312C17.9273 2.85312 17.8553 2.86745 17.788 2.8953C17.7207 2.92315 17.6596 2.96398 17.6081 3.01546C17.5567 3.06694 17.5158 3.12805 17.488 3.19531C17.4601 3.26256 17.4458 3.33465 17.4458 3.40744C17.4457 3.48025 17.4601 3.55234 17.4879 3.61961C17.5158 3.68688 17.5566 3.748 17.6081 3.79948C17.6596 3.85096 17.7207 3.8918 17.788 3.91965C17.8553 3.94751 17.9273 3.96185 18.0001 3.96184H19.0556C19.5196 3.96184 19.8973 4.33947 19.8973 4.80353V22.324C19.8973 22.7881 19.5196 23.1657 19.0556 23.1657H5.30158C4.83747 23.1657 4.45988 22.788 4.45988 22.324V21.6655C4.45989 21.5927 4.44556 21.5206 4.4177 21.4534C4.38984 21.3861 4.34901 21.325 4.29752 21.2735C4.24604 21.222 4.18492 21.1812 4.11766 21.1533C4.05039 21.1255 3.9783 21.1111 3.9055 21.1111C3.8327 21.1111 3.76061 21.1255 3.69335 21.1533Z" fill="#F30051" stroke="#F30051" stroke-width="0.2"/>
<path d="M6.26805 23.3527L6.22979 23.4451L6.26805 23.3527C6.20078 23.3249 6.12869 23.3105 6.05589 23.3105C5.98309 23.3105 5.911 23.3249 5.84374 23.3527L5.88193 23.4449L5.84374 23.3527C5.77648 23.3806 5.71537 23.4214 5.6639 23.4729C5.61242 23.5244 5.57159 23.5855 5.54374 23.6528C5.51588 23.72 5.50155 23.7921 5.50156 23.8649V24.2497C5.50156 25.3252 6.37635 26.2002 7.45192 26.2002H21.2059C22.2815 26.2002 23.1563 25.3252 23.1563 24.2497V6.72926C23.1563 5.65377 22.2815 4.77891 21.206 4.77891H20.4526C20.1464 4.77891 19.8983 5.02707 19.8983 5.33323C19.8983 5.63939 20.1464 5.88756 20.4526 5.88756H21.206C21.67 5.88756 22.0477 6.2652 22.0477 6.72926V24.2497C22.0477 24.7138 21.67 25.0916 21.206 25.0916H7.45197C6.98788 25.0916 6.61027 24.7138 6.61027 24.2497V23.8649C6.61028 23.7921 6.59595 23.72 6.56809 23.6528C6.54023 23.5855 6.4994 23.5244 6.44792 23.4729C6.39643 23.4214 6.33532 23.3806 6.26805 23.3527Z" fill="#F30051" stroke="#F30051" stroke-width="0.2"/>
<path d="M11.5319 22.2196L11.533 22.2196C11.6789 22.218 11.8184 22.1588 11.921 22.0551C12.0236 21.9513 12.0812 21.8112 12.0812 21.6652C12.0812 21.5193 12.0236 21.3792 11.921 21.2754C11.8184 21.1716 11.6789 21.1125 11.533 21.1109H11.5319H2.85041C2.38635 21.1109 2.00871 20.7332 2.00871 20.2692V2.74879C2.00871 2.28468 2.38634 1.90709 2.85041 1.90709H16.6043C17.0684 1.90709 17.4462 2.28475 17.4462 2.74879V14.6334C17.4462 14.7062 17.4605 14.7783 17.4884 14.8455C17.5163 14.9128 17.5571 14.9739 17.6086 15.0254C17.6601 15.0769 17.7212 15.1177 17.7885 15.1455C17.8557 15.1734 17.9278 15.1877 18.0006 15.1877C18.1476 15.1877 18.2886 15.1293 18.3926 15.0254C18.4965 14.9214 18.5549 14.7804 18.5549 14.6334V2.74879C18.5549 1.67328 17.6799 0.798437 16.6043 0.798437H2.85041C1.7748 0.798437 0.9 1.6733 0.9 2.74879V20.2692C0.9 21.3447 1.77486 22.2196 2.85041 22.2196L11.5319 22.2196Z" fill="#F30051" stroke="#F30051" stroke-width="0.2"/>
<mask id="path-4-outside-1_207_2805" maskUnits="userSpaceOnUse" x="2.74609" y="2.65234" width="16" height="20" fill="black">
<rect fill="white" x="2.74609" y="2.65234" width="16" height="20"/>
<path d="M15.2555 4.56108H4.20048C4.07998 4.56108 3.96442 4.51322 3.87922 4.42801C3.79402 4.34281 3.74615 4.22725 3.74615 4.10676C3.74614 4.04709 3.75789 3.988 3.78072 3.93287C3.80355 3.87775 3.83701 3.82765 3.8792 3.78546C3.92139 3.74327 3.97148 3.7098 4.0266 3.68696C4.08173 3.66412 4.14081 3.65237 4.20048 3.65237H15.2556C15.3156 3.65171 15.3753 3.66297 15.431 3.68551C15.4867 3.70805 15.5374 3.74141 15.5801 3.78367C15.6228 3.82593 15.6567 3.87625 15.6799 3.9317C15.703 3.98716 15.715 4.04666 15.7149 4.10676C15.7149 4.16685 15.703 4.22635 15.6799 4.2818C15.6567 4.33726 15.6228 4.38757 15.5801 4.42982C15.5373 4.47208 15.4866 4.50544 15.4309 4.52797C15.3752 4.5505 15.3156 4.56175 15.2555 4.56108ZM15.2555 6.55435H4.20048C4.14081 6.55435 4.08173 6.54261 4.02661 6.51978C3.97148 6.49695 3.92139 6.46348 3.8792 6.42129C3.83701 6.3791 3.80355 6.32902 3.78072 6.27389C3.75789 6.21877 3.74614 6.15968 3.74615 6.10002C3.74615 5.97952 3.79402 5.86396 3.87922 5.77876C3.96442 5.69356 4.07998 5.64569 4.20048 5.64569H15.2556C15.3152 5.6457 15.3743 5.65745 15.4294 5.68029C15.4845 5.70312 15.5346 5.73659 15.5768 5.77878C15.619 5.82097 15.6524 5.87106 15.6753 5.92618C15.6981 5.9813 15.7099 6.04038 15.7099 6.10005C15.7098 6.15971 15.6981 6.21879 15.6753 6.27391C15.6524 6.32903 15.619 6.37911 15.5768 6.4213C15.5346 6.46348 15.4845 6.49695 15.4294 6.51977C15.3742 6.5426 15.3152 6.55435 15.2555 6.55435ZM15.2555 8.54761H4.20048C4.07998 8.54761 3.96442 8.49974 3.87922 8.41454C3.79402 8.32934 3.74615 8.21378 3.74615 8.09328C3.74614 8.03362 3.75789 7.97453 3.78072 7.9194C3.80355 7.86427 3.83701 7.81418 3.8792 7.77199C3.92139 7.72979 3.97148 7.69632 4.0266 7.67349C4.08173 7.65065 4.14081 7.6389 4.20048 7.6389H15.2556C15.3156 7.63824 15.3753 7.6495 15.431 7.67204C15.4867 7.69457 15.5374 7.72794 15.5801 7.7702C15.6228 7.81246 15.6567 7.86277 15.6799 7.91823C15.703 7.97369 15.715 8.03319 15.7149 8.09328C15.7149 8.15338 15.703 8.21288 15.6799 8.26833C15.6567 8.32379 15.6228 8.3741 15.5801 8.41635C15.5373 8.45861 15.4866 8.49196 15.4309 8.5145C15.3752 8.53703 15.3156 8.54828 15.2555 8.54761ZM15.2555 10.541H4.20048C4.07998 10.541 3.96442 10.4932 3.87922 10.408C3.79402 10.3228 3.74615 10.2072 3.74615 10.0867C3.74614 10.027 3.75789 9.96796 3.78072 9.91283C3.80355 9.85771 3.83701 9.80761 3.8792 9.76542C3.92139 9.72323 3.97148 9.68976 4.0266 9.66692C4.08173 9.64409 4.14081 9.63233 4.20048 9.63233H15.2556C15.3156 9.63167 15.3753 9.64293 15.431 9.66547C15.4867 9.68801 15.5374 9.72137 15.5801 9.76363C15.6228 9.80589 15.6567 9.85621 15.6799 9.91166C15.703 9.96712 15.715 10.0266 15.7149 10.0867C15.7149 10.1468 15.703 10.2063 15.6799 10.2618C15.6567 10.3172 15.6228 10.3675 15.5801 10.4098C15.5373 10.452 15.4866 10.4854 15.4309 10.5079C15.3752 10.5305 15.3156 10.5417 15.2555 10.541ZM15.2555 12.5343H4.20048C3.94954 12.5343 3.74615 12.3309 3.74615 12.0799C3.74615 11.829 3.94954 11.6256 4.20048 11.6256H15.2556C15.376 11.6256 15.4916 11.6735 15.5768 11.7587C15.662 11.8439 15.7099 11.9595 15.7099 12.08C15.7098 12.2004 15.662 12.316 15.5768 12.4012C15.4916 12.4864 15.376 12.5343 15.2555 12.5343ZM12.4026 14.5275H4.20048C4.14081 14.5275 4.08173 14.5158 4.0266 14.4929C3.97148 14.4701 3.92139 14.4366 3.8792 14.3944C3.83701 14.3522 3.80355 14.3021 3.78072 14.247C3.75789 14.1919 3.74614 14.1328 3.74615 14.0731C3.74615 13.9526 3.79402 13.8371 3.87922 13.7519C3.96442 13.6667 4.07998 13.6188 4.20048 13.6188H12.4026C12.4622 13.6188 12.5213 13.6305 12.5764 13.6534C12.6316 13.6762 12.6817 13.7097 12.7238 13.7519C12.766 13.794 12.7995 13.8441 12.8223 13.8993C12.8452 13.9544 12.8569 14.0135 12.8569 14.0731C12.8569 14.1328 12.8452 14.1919 12.8223 14.247C12.7995 14.3021 12.766 14.3522 12.7239 14.3944C12.6817 14.4366 12.6316 14.4701 12.5765 14.4929C12.5213 14.5158 12.4622 14.5275 12.4026 14.5275ZM10.1944 16.5209H4.20048C4.14081 16.5209 4.08173 16.5092 4.0266 16.4864C3.97148 16.4635 3.92139 16.4301 3.8792 16.3879C3.83701 16.3457 3.80355 16.2956 3.78072 16.2404C3.75789 16.1853 3.74614 16.1262 3.74615 16.0666C3.74615 15.9461 3.79402 15.8305 3.87922 15.7453C3.96442 15.6601 4.07998 15.6122 4.20048 15.6122H10.1944C10.3141 15.6136 10.4283 15.662 10.5125 15.7471C10.5966 15.8322 10.6438 15.947 10.6437 16.0666C10.6437 16.1863 10.5966 16.3011 10.5124 16.3861C10.4283 16.4712 10.314 16.5196 10.1944 16.5209ZM9.57301 18.5142H4.20042C4.07993 18.5142 3.96437 18.4663 3.87916 18.3811C3.79396 18.2959 3.74609 18.1803 3.74609 18.0598C3.74609 18.0002 3.75783 17.9411 3.78066 17.8859C3.80349 17.8308 3.83695 17.7807 3.87914 17.7385C3.92133 17.6963 3.97142 17.6629 4.02654 17.64C4.08167 17.6172 4.14075 17.6054 4.20042 17.6054H9.57301C9.824 17.6054 10.0274 17.8088 10.0274 18.0598C10.0274 18.3108 9.824 18.5142 9.57301 18.5142ZM14.776 21.6628C12.7893 21.6628 11.173 20.0465 11.173 18.0598C11.173 16.0732 12.7893 14.4568 14.776 14.4568C16.7627 14.4568 18.379 16.0732 18.379 18.0598C18.3789 20.0465 16.7626 21.6628 14.776 21.6628ZM14.776 15.3656C13.2903 15.3656 12.0817 16.5742 12.0817 18.0598C12.0817 19.5455 13.2903 20.7541 14.776 20.7541C16.2616 20.7541 17.4702 19.5455 17.4702 18.0598C17.4702 16.5742 16.2616 15.3656 14.776 15.3656Z"/>
</mask>
<path d="M15.2555 4.56108H4.20048C4.07998 4.56108 3.96442 4.51322 3.87922 4.42801C3.79402 4.34281 3.74615 4.22725 3.74615 4.10676C3.74614 4.04709 3.75789 3.988 3.78072 3.93287C3.80355 3.87775 3.83701 3.82765 3.8792 3.78546C3.92139 3.74327 3.97148 3.7098 4.0266 3.68696C4.08173 3.66412 4.14081 3.65237 4.20048 3.65237H15.2556C15.3156 3.65171 15.3753 3.66297 15.431 3.68551C15.4867 3.70805 15.5374 3.74141 15.5801 3.78367C15.6228 3.82593 15.6567 3.87625 15.6799 3.9317C15.703 3.98716 15.715 4.04666 15.7149 4.10676C15.7149 4.16685 15.703 4.22635 15.6799 4.2818C15.6567 4.33726 15.6228 4.38757 15.5801 4.42982C15.5373 4.47208 15.4866 4.50544 15.4309 4.52797C15.3752 4.5505 15.3156 4.56175 15.2555 4.56108ZM15.2555 6.55435H4.20048C4.14081 6.55435 4.08173 6.54261 4.02661 6.51978C3.97148 6.49695 3.92139 6.46348 3.8792 6.42129C3.83701 6.3791 3.80355 6.32902 3.78072 6.27389C3.75789 6.21877 3.74614 6.15968 3.74615 6.10002C3.74615 5.97952 3.79402 5.86396 3.87922 5.77876C3.96442 5.69356 4.07998 5.64569 4.20048 5.64569H15.2556C15.3152 5.6457 15.3743 5.65745 15.4294 5.68029C15.4845 5.70312 15.5346 5.73659 15.5768 5.77878C15.619 5.82097 15.6524 5.87106 15.6753 5.92618C15.6981 5.9813 15.7099 6.04038 15.7099 6.10005C15.7098 6.15971 15.6981 6.21879 15.6753 6.27391C15.6524 6.32903 15.619 6.37911 15.5768 6.4213C15.5346 6.46348 15.4845 6.49695 15.4294 6.51977C15.3742 6.5426 15.3152 6.55435 15.2555 6.55435ZM15.2555 8.54761H4.20048C4.07998 8.54761 3.96442 8.49974 3.87922 8.41454C3.79402 8.32934 3.74615 8.21378 3.74615 8.09328C3.74614 8.03362 3.75789 7.97453 3.78072 7.9194C3.80355 7.86427 3.83701 7.81418 3.8792 7.77199C3.92139 7.72979 3.97148 7.69632 4.0266 7.67349C4.08173 7.65065 4.14081 7.6389 4.20048 7.6389H15.2556C15.3156 7.63824 15.3753 7.6495 15.431 7.67204C15.4867 7.69457 15.5374 7.72794 15.5801 7.7702C15.6228 7.81246 15.6567 7.86277 15.6799 7.91823C15.703 7.97369 15.715 8.03319 15.7149 8.09328C15.7149 8.15338 15.703 8.21288 15.6799 8.26833C15.6567 8.32379 15.6228 8.3741 15.5801 8.41635C15.5373 8.45861 15.4866 8.49196 15.4309 8.5145C15.3752 8.53703 15.3156 8.54828 15.2555 8.54761ZM15.2555 10.541H4.20048C4.07998 10.541 3.96442 10.4932 3.87922 10.408C3.79402 10.3228 3.74615 10.2072 3.74615 10.0867C3.74614 10.027 3.75789 9.96796 3.78072 9.91283C3.80355 9.85771 3.83701 9.80761 3.8792 9.76542C3.92139 9.72323 3.97148 9.68976 4.0266 9.66692C4.08173 9.64409 4.14081 9.63233 4.20048 9.63233H15.2556C15.3156 9.63167 15.3753 9.64293 15.431 9.66547C15.4867 9.68801 15.5374 9.72137 15.5801 9.76363C15.6228 9.80589 15.6567 9.85621 15.6799 9.91166C15.703 9.96712 15.715 10.0266 15.7149 10.0867C15.7149 10.1468 15.703 10.2063 15.6799 10.2618C15.6567 10.3172 15.6228 10.3675 15.5801 10.4098C15.5373 10.452 15.4866 10.4854 15.4309 10.5079C15.3752 10.5305 15.3156 10.5417 15.2555 10.541ZM15.2555 12.5343H4.20048C3.94954 12.5343 3.74615 12.3309 3.74615 12.0799C3.74615 11.829 3.94954 11.6256 4.20048 11.6256H15.2556C15.376 11.6256 15.4916 11.6735 15.5768 11.7587C15.662 11.8439 15.7099 11.9595 15.7099 12.08C15.7098 12.2004 15.662 12.316 15.5768 12.4012C15.4916 12.4864 15.376 12.5343 15.2555 12.5343ZM12.4026 14.5275H4.20048C4.14081 14.5275 4.08173 14.5158 4.0266 14.4929C3.97148 14.4701 3.92139 14.4366 3.8792 14.3944C3.83701 14.3522 3.80355 14.3021 3.78072 14.247C3.75789 14.1919 3.74614 14.1328 3.74615 14.0731C3.74615 13.9526 3.79402 13.8371 3.87922 13.7519C3.96442 13.6667 4.07998 13.6188 4.20048 13.6188H12.4026C12.4622 13.6188 12.5213 13.6305 12.5764 13.6534C12.6316 13.6762 12.6817 13.7097 12.7238 13.7519C12.766 13.794 12.7995 13.8441 12.8223 13.8993C12.8452 13.9544 12.8569 14.0135 12.8569 14.0731C12.8569 14.1328 12.8452 14.1919 12.8223 14.247C12.7995 14.3021 12.766 14.3522 12.7239 14.3944C12.6817 14.4366 12.6316 14.4701 12.5765 14.4929C12.5213 14.5158 12.4622 14.5275 12.4026 14.5275ZM10.1944 16.5209H4.20048C4.14081 16.5209 4.08173 16.5092 4.0266 16.4864C3.97148 16.4635 3.92139 16.4301 3.8792 16.3879C3.83701 16.3457 3.80355 16.2956 3.78072 16.2404C3.75789 16.1853 3.74614 16.1262 3.74615 16.0666C3.74615 15.9461 3.79402 15.8305 3.87922 15.7453C3.96442 15.6601 4.07998 15.6122 4.20048 15.6122H10.1944C10.3141 15.6136 10.4283 15.662 10.5125 15.7471C10.5966 15.8322 10.6438 15.947 10.6437 16.0666C10.6437 16.1863 10.5966 16.3011 10.5124 16.3861C10.4283 16.4712 10.314 16.5196 10.1944 16.5209ZM9.57301 18.5142H4.20042C4.07993 18.5142 3.96437 18.4663 3.87916 18.3811C3.79396 18.2959 3.74609 18.1803 3.74609 18.0598C3.74609 18.0002 3.75783 17.9411 3.78066 17.8859C3.80349 17.8308 3.83695 17.7807 3.87914 17.7385C3.92133 17.6963 3.97142 17.6629 4.02654 17.64C4.08167 17.6172 4.14075 17.6054 4.20042 17.6054H9.57301C9.824 17.6054 10.0274 17.8088 10.0274 18.0598C10.0274 18.3108 9.824 18.5142 9.57301 18.5142ZM14.776 21.6628C12.7893 21.6628 11.173 20.0465 11.173 18.0598C11.173 16.0732 12.7893 14.4568 14.776 14.4568C16.7627 14.4568 18.379 16.0732 18.379 18.0598C18.3789 20.0465 16.7626 21.6628 14.776 21.6628ZM14.776 15.3656C13.2903 15.3656 12.0817 16.5742 12.0817 18.0598C12.0817 19.5455 13.2903 20.7541 14.776 20.7541C16.2616 20.7541 17.4702 19.5455 17.4702 18.0598C17.4702 16.5742 16.2616 15.3656 14.776 15.3656Z" fill="#F30051"/>
<path d="M15.2555 4.56108H4.20048C4.07998 4.56108 3.96442 4.51322 3.87922 4.42801C3.79402 4.34281 3.74615 4.22725 3.74615 4.10676C3.74614 4.04709 3.75789 3.988 3.78072 3.93287C3.80355 3.87775 3.83701 3.82765 3.8792 3.78546C3.92139 3.74327 3.97148 3.7098 4.0266 3.68696C4.08173 3.66412 4.14081 3.65237 4.20048 3.65237H15.2556C15.3156 3.65171 15.3753 3.66297 15.431 3.68551C15.4867 3.70805 15.5374 3.74141 15.5801 3.78367C15.6228 3.82593 15.6567 3.87625 15.6799 3.9317C15.703 3.98716 15.715 4.04666 15.7149 4.10676C15.7149 4.16685 15.703 4.22635 15.6799 4.2818C15.6567 4.33726 15.6228 4.38757 15.5801 4.42982C15.5373 4.47208 15.4866 4.50544 15.4309 4.52797C15.3752 4.5505 15.3156 4.56175 15.2555 4.56108ZM15.2555 6.55435H4.20048C4.14081 6.55435 4.08173 6.54261 4.02661 6.51978C3.97148 6.49695 3.92139 6.46348 3.8792 6.42129C3.83701 6.3791 3.80355 6.32902 3.78072 6.27389C3.75789 6.21877 3.74614 6.15968 3.74615 6.10002C3.74615 5.97952 3.79402 5.86396 3.87922 5.77876C3.96442 5.69356 4.07998 5.64569 4.20048 5.64569H15.2556C15.3152 5.6457 15.3743 5.65745 15.4294 5.68029C15.4845 5.70312 15.5346 5.73659 15.5768 5.77878C15.619 5.82097 15.6524 5.87106 15.6753 5.92618C15.6981 5.9813 15.7099 6.04038 15.7099 6.10005C15.7098 6.15971 15.6981 6.21879 15.6753 6.27391C15.6524 6.32903 15.619 6.37911 15.5768 6.4213C15.5346 6.46348 15.4845 6.49695 15.4294 6.51977C15.3742 6.5426 15.3152 6.55435 15.2555 6.55435ZM15.2555 8.54761H4.20048C4.07998 8.54761 3.96442 8.49974 3.87922 8.41454C3.79402 8.32934 3.74615 8.21378 3.74615 8.09328C3.74614 8.03362 3.75789 7.97453 3.78072 7.9194C3.80355 7.86427 3.83701 7.81418 3.8792 7.77199C3.92139 7.72979 3.97148 7.69632 4.0266 7.67349C4.08173 7.65065 4.14081 7.6389 4.20048 7.6389H15.2556C15.3156 7.63824 15.3753 7.6495 15.431 7.67204C15.4867 7.69457 15.5374 7.72794 15.5801 7.7702C15.6228 7.81246 15.6567 7.86277 15.6799 7.91823C15.703 7.97369 15.715 8.03319 15.7149 8.09328C15.7149 8.15338 15.703 8.21288 15.6799 8.26833C15.6567 8.32379 15.6228 8.3741 15.5801 8.41635C15.5373 8.45861 15.4866 8.49196 15.4309 8.5145C15.3752 8.53703 15.3156 8.54828 15.2555 8.54761ZM15.2555 10.541H4.20048C4.07998 10.541 3.96442 10.4932 3.87922 10.408C3.79402 10.3228 3.74615 10.2072 3.74615 10.0867C3.74614 10.027 3.75789 9.96796 3.78072 9.91283C3.80355 9.85771 3.83701 9.80761 3.8792 9.76542C3.92139 9.72323 3.97148 9.68976 4.0266 9.66692C4.08173 9.64409 4.14081 9.63233 4.20048 9.63233H15.2556C15.3156 9.63167 15.3753 9.64293 15.431 9.66547C15.4867 9.68801 15.5374 9.72137 15.5801 9.76363C15.6228 9.80589 15.6567 9.85621 15.6799 9.91166C15.703 9.96712 15.715 10.0266 15.7149 10.0867C15.7149 10.1468 15.703 10.2063 15.6799 10.2618C15.6567 10.3172 15.6228 10.3675 15.5801 10.4098C15.5373 10.452 15.4866 10.4854 15.4309 10.5079C15.3752 10.5305 15.3156 10.5417 15.2555 10.541ZM15.2555 12.5343H4.20048C3.94954 12.5343 3.74615 12.3309 3.74615 12.0799C3.74615 11.829 3.94954 11.6256 4.20048 11.6256H15.2556C15.376 11.6256 15.4916 11.6735 15.5768 11.7587C15.662 11.8439 15.7099 11.9595 15.7099 12.08C15.7098 12.2004 15.662 12.316 15.5768 12.4012C15.4916 12.4864 15.376 12.5343 15.2555 12.5343ZM12.4026 14.5275H4.20048C4.14081 14.5275 4.08173 14.5158 4.0266 14.4929C3.97148 14.4701 3.92139 14.4366 3.8792 14.3944C3.83701 14.3522 3.80355 14.3021 3.78072 14.247C3.75789 14.1919 3.74614 14.1328 3.74615 14.0731C3.74615 13.9526 3.79402 13.8371 3.87922 13.7519C3.96442 13.6667 4.07998 13.6188 4.20048 13.6188H12.4026C12.4622 13.6188 12.5213 13.6305 12.5764 13.6534C12.6316 13.6762 12.6817 13.7097 12.7238 13.7519C12.766 13.794 12.7995 13.8441 12.8223 13.8993C12.8452 13.9544 12.8569 14.0135 12.8569 14.0731C12.8569 14.1328 12.8452 14.1919 12.8223 14.247C12.7995 14.3021 12.766 14.3522 12.7239 14.3944C12.6817 14.4366 12.6316 14.4701 12.5765 14.4929C12.5213 14.5158 12.4622 14.5275 12.4026 14.5275ZM10.1944 16.5209H4.20048C4.14081 16.5209 4.08173 16.5092 4.0266 16.4864C3.97148 16.4635 3.92139 16.4301 3.8792 16.3879C3.83701 16.3457 3.80355 16.2956 3.78072 16.2404C3.75789 16.1853 3.74614 16.1262 3.74615 16.0666C3.74615 15.9461 3.79402 15.8305 3.87922 15.7453C3.96442 15.6601 4.07998 15.6122 4.20048 15.6122H10.1944C10.3141 15.6136 10.4283 15.662 10.5125 15.7471C10.5966 15.8322 10.6438 15.947 10.6437 16.0666C10.6437 16.1863 10.5966 16.3011 10.5124 16.3861C10.4283 16.4712 10.314 16.5196 10.1944 16.5209ZM9.57301 18.5142H4.20042C4.07993 18.5142 3.96437 18.4663 3.87916 18.3811C3.79396 18.2959 3.74609 18.1803 3.74609 18.0598C3.74609 18.0002 3.75783 17.9411 3.78066 17.8859C3.80349 17.8308 3.83695 17.7807 3.87914 17.7385C3.92133 17.6963 3.97142 17.6629 4.02654 17.64C4.08167 17.6172 4.14075 17.6054 4.20042 17.6054H9.57301C9.824 17.6054 10.0274 17.8088 10.0274 18.0598C10.0274 18.3108 9.824 18.5142 9.57301 18.5142ZM14.776 21.6628C12.7893 21.6628 11.173 20.0465 11.173 18.0598C11.173 16.0732 12.7893 14.4568 14.776 14.4568C16.7627 14.4568 18.379 16.0732 18.379 18.0598C18.3789 20.0465 16.7626 21.6628 14.776 21.6628ZM14.776 15.3656C13.2903 15.3656 12.0817 16.5742 12.0817 18.0598C12.0817 19.5455 13.2903 20.7541 14.776 20.7541C16.2616 20.7541 17.4702 19.5455 17.4702 18.0598C17.4702 16.5742 16.2616 15.3656 14.776 15.3656Z" stroke="#F30051" stroke-width="0.4" mask="url(#path-4-outside-1_207_2805)"/>
<path d="M14.3995 19.7358C14.2999 19.7358 14.2031 19.703 14.1239 19.6426L13.0362 18.8125C12.9887 18.7763 12.9489 18.7311 12.9189 18.6795C12.8889 18.6279 12.8694 18.5709 12.8615 18.5118C12.8535 18.4527 12.8573 18.3926 12.8726 18.3349C12.8879 18.2772 12.9144 18.2231 12.9506 18.1757C12.9868 18.1283 13.0319 18.0884 13.0835 18.0584C13.1351 18.0285 13.1921 18.0089 13.2512 18.001C13.3104 17.9931 13.3705 17.9968 13.4282 18.0121C13.4858 18.0274 13.5399 18.0539 13.5874 18.0901L14.3008 18.6345L15.5186 16.9144C15.5883 16.8161 15.6941 16.7495 15.8128 16.7292C15.9316 16.7089 16.0535 16.7365 16.1519 16.8061C16.2006 16.8406 16.242 16.8843 16.2738 16.9348C16.3056 16.9853 16.3271 17.0415 16.3372 17.1003C16.3472 17.1591 16.3456 17.2193 16.3324 17.2775C16.3192 17.3357 16.2946 17.3907 16.2601 17.4394L14.7702 19.5439C14.7282 19.6032 14.6727 19.6515 14.6082 19.6849C14.5437 19.7183 14.4721 19.7357 14.3995 19.7358Z" fill="#F30051"/>
</svg>
