<svg width="53" height="53" viewBox="0 0 53 53" fill="none" xmlns="http://www.w3.org/2000/svg">
<path fill-rule="evenodd" clip-rule="evenodd" d="M26.502 41.9238C22.4648 41.9238 18.5312 40.2676 15.6328 37.3691C12.7344 34.4707 11.0781 30.6406 11.0781 26.5C11.0781 18.0117 18.0137 11.1797 26.502 11.1797C30.6426 11.1797 34.4727 12.7324 37.3711 15.6309C40.2695 18.5293 41.8223 22.3594 41.8223 26.5C41.8223 34.9883 34.9902 41.9238 26.502 41.9238ZM26.502 9.31641C26.1914 9.31641 25.7773 9.00586 25.7773 8.5918V0.724609C25.7773 0.310547 26.1914 0 26.502 0C26.916 0 27.3301 0.310547 27.3301 0.724609V8.5918C27.3301 9.00586 26.916 9.31641 26.502 9.31641ZM41.9258 18.3223C41.7188 18.3223 41.5117 18.2188 41.3047 18.0117C41.0977 17.5977 41.3047 17.1836 41.6152 16.9766L48.4473 13.043C48.7578 12.8359 49.2754 12.9395 49.4824 13.3535C49.5859 13.6641 49.4824 14.0781 49.1719 14.2852L42.3398 18.2188C42.2363 18.3223 42.1328 18.3223 41.9258 18.3223ZM48.7578 40.1641C48.6543 40.1641 48.5508 40.1641 48.4473 40.0605L41.6152 36.127C41.3047 35.9199 41.2012 35.5059 41.3047 35.1953C41.5117 34.7812 42.0293 34.6777 42.3398 34.8848L49.1719 38.8184C49.4824 39.0254 49.6895 39.4395 49.4824 39.8535C49.2754 40.0605 49.0684 40.1641 48.7578 40.1641ZM26.502 53C26.1914 53 25.7773 52.6895 25.7773 52.2754V44.4082C25.7773 43.9941 26.1914 43.6836 26.502 43.6836C26.916 43.6836 27.3301 43.9941 27.3301 44.4082V52.2754C27.3301 52.6895 26.916 53 26.502 53ZM4.24609 40.1641C3.93555 40.1641 3.72852 40.0605 3.52148 39.8535C3.31445 39.4395 3.52148 39.0254 3.83203 38.8184L10.6641 34.8848C10.9746 34.6777 11.4922 34.7812 11.6992 35.1953C11.8027 35.5059 11.6992 35.9199 11.3887 36.127L4.55664 40.0605C4.45312 40.1641 4.34961 40.1641 4.24609 40.1641ZM10.9746 18.3223C10.8711 18.3223 10.7676 18.3223 10.6641 18.2188L3.83203 14.2852C3.52148 14.0781 3.31445 13.6641 3.52148 13.3535C3.72852 12.9395 4.24609 12.8359 4.55664 13.043L11.3887 16.9766C11.6992 17.1836 11.8027 17.5977 11.6992 18.0117C11.4922 18.2188 11.2852 18.3223 10.9746 18.3223ZM35.4043 11.8008C35.3008 11.8008 35.1973 11.8008 35.0938 11.6973C34.7832 11.4902 34.5762 11.0762 34.7832 10.7656L37.3711 6.21094C37.5781 5.90039 38.0957 5.79688 38.4062 6.00391C38.7168 6.21094 38.9238 6.625 38.7168 7.03906L36.1289 11.4902C35.9219 11.6973 35.7148 11.8008 35.4043 11.8008ZM49.3789 27.2246H44.4102C44.0996 27.2246 43.6855 26.9141 43.6855 26.5C43.6855 26.0859 44.0996 25.7754 44.4102 25.7754H49.3789C49.793 25.7754 50.207 26.0859 50.207 26.5C50.1035 26.9141 49.793 27.2246 49.3789 27.2246ZM37.9922 47.0996C37.7852 47.0996 37.5781 46.9961 37.3711 46.7891L34.7832 42.4414C34.5762 42.0273 34.7832 41.6133 35.0938 41.4062C35.4043 41.1992 35.8184 41.3027 36.0254 41.6133L38.6133 45.9609C38.8203 46.375 38.7168 46.7891 38.4062 46.9961C38.3027 47.0996 38.1992 47.0996 37.9922 47.0996ZM15.0117 47.0996C14.9082 47.0996 14.8047 47.0996 14.7012 46.9961C14.3906 46.7891 14.1836 46.375 14.3906 45.9609L16.875 41.6133C17.082 41.3027 17.5996 41.1992 17.9102 41.4062C18.2207 41.6133 18.4277 42.0273 18.2207 42.4414L15.7363 46.7891C15.5293 46.9961 15.3223 47.0996 15.0117 47.0996ZM8.59375 27.2246H3.625C3.21094 27.2246 2.79688 26.9141 2.79688 26.5C2.79688 26.0859 3.21094 25.7754 3.625 25.7754H8.59375C9.00781 25.7754 9.31836 26.0859 9.31836 26.5C9.31836 26.9141 9.00781 27.2246 8.59375 27.2246ZM17.4961 11.8008C17.2891 11.8008 17.082 11.6973 16.875 11.3867L14.3906 6.93555C14.1836 6.625 14.3906 6.21094 14.7012 6.00391C15.0117 5.79688 15.5293 5.90039 15.7363 6.31445L18.2207 10.7656C18.3242 11.0762 18.2207 11.4902 17.9102 11.6973C17.8066 11.8008 17.7031 11.8008 17.4961 11.8008Z" fill="#FDC104"/>
<path fill-rule="evenodd" clip-rule="evenodd" d="M15.9434 27.2246C15.6328 27.2246 15.2188 26.9141 15.2188 26.5C15.2188 20.2891 20.291 15.3203 26.502 15.3203C26.916 15.3203 27.2266 15.6309 27.2266 16.0449C27.2266 16.459 26.916 16.7695 26.502 16.7695C21.1191 16.7695 16.668 21.1172 16.668 26.5C16.668 26.9141 16.3574 27.2246 15.9434 27.2246Z" fill="#FEFEFE"/>
</svg>
