<svg width="192" height="161" viewBox="0 0 192 161" fill="none" xmlns="http://www.w3.org/2000/svg">
<path d="M77.2372 74.719L119.374 61.5138L63.2949 128.926L157.844 35.3596L121.595 44.3315L158.122 0L77.2372 74.719Z" fill="#EC5D1F"/>
<path d="M56.9254 62.4262L82.6133 55.7591L46.9365 94.5477L106.487 41.2097L84.4601 45.5139L107.711 19.9941L56.9254 62.4262Z" fill="#9BDB2E"/>
<path d="M44.1861 100.577C48.6829 100.577 52.3283 95.2336 52.3283 88.6428C52.3283 82.0519 48.6829 76.709 44.1861 76.709C39.6893 76.709 36.0439 82.0519 36.0439 88.6428C36.0439 95.2336 39.6893 100.577 44.1861 100.577Z" fill="black"/>
<path d="M46.6652 100.736C50.3399 100.736 53.3187 95.7458 53.3187 89.5902C53.3187 83.4345 50.3399 78.4443 46.6652 78.4443C42.9906 78.4443 40.0117 83.4345 40.0117 89.5902C40.0117 95.7458 42.9906 100.736 46.6652 100.736Z" fill="white"/>
<path d="M54.9813 108.503C62.4646 108.503 68.531 99.6114 68.531 88.6428C68.531 77.6741 62.4646 68.7822 54.9813 68.7822C47.498 68.7822 41.4316 77.6741 41.4316 88.6428C41.4316 99.6114 47.498 108.503 54.9813 108.503Z" fill="black"/>
<path d="M71.6175 108.503C80.2045 108.503 87.1657 99.6114 87.1657 88.6428C87.1657 77.6741 80.2045 68.7822 71.6175 68.7822C63.0305 68.7822 56.0693 77.6741 56.0693 88.6428C56.0693 99.6114 63.0305 108.503 71.6175 108.503Z" fill="black"/>
<path d="M71.6175 68.7822H54.8643V108.502H71.6175V68.7822Z" fill="black"/>
<path d="M71.617 105.381C78.8548 105.381 84.7222 97.8866 84.7222 88.642C84.7222 79.3975 78.8548 71.9033 71.617 71.9033C64.3791 71.9033 58.5117 79.3975 58.5117 88.642C58.5117 97.8866 64.3791 105.381 71.617 105.381Z" fill="white"/>
<path d="M69.0723 100.737C74.4053 100.737 78.7285 94.2821 78.7285 86.32C78.7285 78.3579 74.4053 71.9033 69.0723 71.9033C63.7393 71.9033 59.416 78.3579 59.416 86.32C59.416 94.2821 63.7393 100.737 69.0723 100.737Z" fill="black"/>
<path d="M100.123 85.832H73.7734C72.753 85.832 71.9258 86.6592 71.9258 87.6797V89.1283C71.9258 90.1488 72.753 90.976 73.7734 90.976H100.123C101.143 90.976 101.971 90.1488 101.971 89.1283V87.6797C101.971 86.6592 101.143 85.832 100.123 85.832Z" fill="#A9A9A9"/>
<path d="M99.8144 84.4463H73.4648C72.4444 84.4463 71.6172 85.2735 71.6172 86.2939V87.7426C71.6172 88.763 72.4444 89.5902 73.4648 89.5902H99.8144C100.835 89.5902 101.662 88.763 101.662 87.7426V86.2939C101.662 85.2735 100.835 84.4463 99.8144 84.4463Z" fill="black"/>
<path d="M107.901 108.265C115.384 108.265 121.451 99.3732 121.451 88.4045C121.451 77.4358 115.384 68.5439 107.901 68.5439C100.418 68.5439 94.3516 77.4358 94.3516 88.4045C94.3516 99.3732 100.418 108.265 107.901 108.265Z" fill="black"/>
<path d="M124.536 108.265C133.123 108.265 140.085 99.3732 140.085 88.4045C140.085 77.4358 133.123 68.5439 124.536 68.5439C115.949 68.5439 108.988 77.4358 108.988 88.4045C108.988 99.3732 115.949 108.265 124.536 108.265Z" fill="black"/>
<path d="M124.536 68.5439H107.783V108.264H124.536V68.5439Z" fill="black"/>
<path d="M127.461 105.144C133.084 105.144 137.642 97.6497 137.642 88.4047C137.642 79.1596 133.084 71.665 127.461 71.665C121.838 71.665 117.28 79.1596 117.28 88.4047C117.28 97.6497 121.838 105.144 127.461 105.144Z" fill="white"/>
<path d="M135.081 99.7815C139.29 99.7815 142.702 94.6876 142.702 88.4039C142.702 82.1203 139.29 77.0264 135.081 77.0264C130.873 77.0264 127.461 82.1203 127.461 88.4039C127.461 94.6876 130.873 99.7815 135.081 99.7815Z" fill="black"/>
<path d="M139.994 88.3572C139.994 92.4905 138.752 95.8414 137.22 95.8414C135.688 95.8414 134.447 92.4905 134.447 88.3572C134.447 84.2239 135.689 80.873 137.22 80.873C138.751 80.873 139.994 84.2239 139.994 88.3572Z" fill="white"/>
<path d="M127.344 98.669L120.499 90.6513C120.499 90.6513 119.749 83.9531 127.145 80.9137C127.145 80.9137 123.487 88.0835 127.607 92.9093L127.344 98.669Z" fill="black"/>
<path d="M0 160.046V130.995H19.2478V136.059H6.14625V142.981H17.9703V148.045H6.14625V160.046H0Z" fill="black"/>
<path d="M23.2684 160.046V138.258H29.3153V160.046H23.2684ZM26.3061 135.449C25.4071 135.449 24.6359 135.151 23.9924 134.555C23.3583 133.95 23.0413 133.226 23.0413 132.385C23.0413 131.553 23.3583 130.839 23.9924 130.243C24.6359 129.638 25.4071 129.335 26.3061 129.335C27.2051 129.335 27.9716 129.638 28.6056 130.243C29.2491 130.839 29.5708 131.553 29.5708 132.385C29.5708 133.226 29.2491 133.95 28.6056 134.555C27.9716 135.151 27.2051 135.449 26.3061 135.449Z" fill="black"/>
<path d="M45.7562 138.258V142.797H32.6262V138.258H45.7562ZM35.6071 133.037H41.654V153.351C41.654 153.909 41.7391 154.344 41.9095 154.656C42.0798 154.958 42.3164 155.171 42.6192 155.294C42.9315 155.417 43.2911 155.479 43.698 155.479C43.9819 155.479 44.2658 155.455 44.5496 155.408C44.8335 155.351 45.0512 155.308 45.2026 155.28L46.1536 159.777C45.8508 159.871 45.425 159.98 44.8761 160.103C44.3273 160.235 43.6601 160.316 42.8747 160.344C41.4174 160.401 40.1399 160.207 39.0422 159.763C37.9539 159.318 37.107 158.628 36.5013 157.692C35.8957 156.755 35.5976 155.573 35.6071 154.145V133.037Z" fill="black"/>
<path d="M50.2771 160.046V130.995H61.7464C63.9512 130.995 65.8297 131.415 67.3816 132.257C68.9335 133.089 70.1164 134.248 70.9302 135.733C71.7535 137.208 72.1652 138.91 72.1652 140.839C72.1652 142.769 71.7488 144.471 70.916 145.946C70.0833 147.421 68.8768 148.57 67.2964 149.393C65.7256 150.216 63.8235 150.627 61.5902 150.627H54.28V145.705H60.5966C61.7795 145.705 62.7542 145.502 63.5207 145.095C64.2966 144.679 64.8739 144.107 65.2524 143.378C65.6404 142.641 65.8344 141.794 65.8344 140.839C65.8344 139.875 65.6404 139.033 65.2524 138.314C64.8739 137.586 64.2966 137.023 63.5207 136.626C62.7447 136.22 61.7606 136.016 60.5682 136.016H56.4234V160.046H50.2771Z" fill="#EC5D1F"/>
<path d="M76.0438 160.046V138.258H81.9062V142.059H82.1333C82.5308 140.707 83.1979 139.686 84.1347 138.995C85.0716 138.295 86.1504 137.945 87.3711 137.945C87.6739 137.945 88.0004 137.964 88.3505 138.002C88.7007 138.04 89.0082 138.092 89.2732 138.158V143.52C88.9893 143.435 88.5966 143.36 88.095 143.293C87.5935 143.227 87.1345 143.194 86.7181 143.194C85.8286 143.194 85.0337 143.388 84.3335 143.776C83.6427 144.154 83.0938 144.684 82.6869 145.364C82.2894 146.045 82.0907 146.83 82.0907 147.719V160.046H76.0438Z" fill="#EC5D1F"/>
<path d="M101.236 160.472C99.0307 160.472 97.1239 160.004 95.5152 159.068C93.916 158.122 92.681 156.807 91.8104 155.124C90.9398 153.431 90.5045 151.469 90.5045 149.237C90.5045 146.986 90.9398 145.019 91.8104 143.336C92.681 141.643 93.916 140.329 95.5152 139.392C97.1239 138.447 99.0307 137.974 101.236 137.974C103.441 137.974 105.343 138.447 106.942 139.392C108.551 140.329 109.79 141.643 110.661 143.336C111.531 145.019 111.967 146.986 111.967 149.237C111.967 151.469 111.531 153.431 110.661 155.124C109.79 156.807 108.551 158.122 106.942 159.068C105.343 160.004 103.441 160.472 101.236 160.472ZM101.264 155.791C102.267 155.791 103.105 155.507 103.776 154.94C104.448 154.363 104.955 153.578 105.295 152.585C105.645 151.592 105.82 150.462 105.82 149.194C105.82 147.927 105.645 146.797 105.295 145.804C104.955 144.811 104.448 144.026 103.776 143.449C103.105 142.873 102.267 142.584 101.264 142.584C100.251 142.584 99.3998 142.873 98.709 143.449C98.0277 144.026 97.5119 144.811 97.1618 145.804C96.8211 146.797 96.6508 147.927 96.6508 149.194C96.6508 150.462 96.8211 151.592 97.1618 152.585C97.5119 153.578 98.0277 154.363 98.709 154.94C99.3998 155.507 100.251 155.791 101.264 155.791Z" fill="#EC5D1F"/>
<path d="M126.587 160.444C124.467 160.444 122.58 160.079 120.923 159.351C119.277 158.614 117.976 157.602 117.02 156.316C116.074 155.02 115.586 153.526 115.558 151.833H121.747C121.785 152.542 122.016 153.166 122.442 153.705C122.878 154.235 123.455 154.646 124.174 154.94C124.893 155.233 125.702 155.379 126.601 155.379C127.538 155.379 128.366 155.214 129.085 154.883C129.805 154.552 130.368 154.093 130.775 153.507C131.181 152.921 131.385 152.244 131.385 151.478C131.385 150.703 131.167 150.017 130.732 149.421C130.306 148.816 129.691 148.343 128.887 148.003C128.092 147.662 127.145 147.492 126.048 147.492H123.337V142.981H126.048C126.975 142.981 127.794 142.821 128.503 142.499C129.223 142.177 129.781 141.733 130.178 141.166C130.576 140.589 130.775 139.917 130.775 139.151C130.775 138.423 130.599 137.785 130.249 137.236C129.909 136.678 129.426 136.243 128.801 135.931C128.186 135.619 127.467 135.463 126.644 135.463C125.811 135.463 125.049 135.614 124.359 135.917C123.668 136.21 123.114 136.631 122.698 137.179C122.281 137.728 122.059 138.371 122.031 139.109H116.14C116.168 137.435 116.646 135.96 117.574 134.683C118.501 133.406 119.75 132.408 121.321 131.69C122.901 130.962 124.685 130.597 126.672 130.597C128.678 130.597 130.434 130.962 131.938 131.69C133.443 132.418 134.612 133.401 135.445 134.64C136.287 135.87 136.703 137.25 136.694 138.782C136.703 140.409 136.197 141.766 135.175 142.854C134.162 143.941 132.842 144.632 131.215 144.925V145.152C133.353 145.426 134.981 146.168 136.097 147.379C137.224 148.58 137.782 150.083 137.772 151.89C137.782 153.545 137.304 155.015 136.339 156.301C135.383 157.588 134.063 158.599 132.379 159.337C130.694 160.075 128.764 160.444 126.587 160.444Z" fill="black"/>
<path d="M153.347 160.444C151.852 160.434 150.409 160.183 149.018 159.692C147.636 159.2 146.397 158.401 145.299 157.294C144.201 156.188 143.331 154.722 142.687 152.897C142.053 151.072 141.736 148.83 141.736 146.173C141.746 143.733 142.025 141.553 142.574 139.634C143.132 137.704 143.927 136.068 144.958 134.725C145.999 133.383 147.244 132.361 148.692 131.661C150.139 130.952 151.762 130.597 153.56 130.597C155.5 130.597 157.213 130.976 158.699 131.732C160.184 132.479 161.377 133.496 162.276 134.782C163.184 136.068 163.733 137.51 163.922 139.109H157.861C157.625 138.097 157.128 137.302 156.371 136.726C155.614 136.149 154.677 135.86 153.56 135.86C151.668 135.86 150.229 136.683 149.245 138.328C148.271 139.974 147.774 142.211 147.755 145.038H147.953C148.389 144.178 148.976 143.445 149.714 142.839C150.461 142.225 151.308 141.757 152.254 141.435C153.21 141.104 154.218 140.939 155.278 140.939C157 140.939 158.533 141.345 159.877 142.159C161.221 142.962 162.281 144.069 163.057 145.478C163.832 146.887 164.22 148.499 164.22 150.315C164.22 152.282 163.762 154.032 162.844 155.564C161.935 157.096 160.662 158.297 159.025 159.167C157.398 160.027 155.505 160.453 153.347 160.444ZM153.319 155.62C154.265 155.62 155.112 155.394 155.86 154.94C156.607 154.486 157.194 153.871 157.62 153.095C158.046 152.32 158.259 151.45 158.259 150.485C158.259 149.521 158.046 148.655 157.62 147.889C157.204 147.123 156.626 146.513 155.888 146.06C155.15 145.606 154.308 145.379 153.362 145.379C152.652 145.379 151.994 145.511 151.389 145.776C150.792 146.041 150.267 146.409 149.813 146.882C149.368 147.355 149.018 147.904 148.763 148.528C148.507 149.142 148.379 149.8 148.379 150.5C148.379 151.436 148.592 152.292 149.018 153.067C149.453 153.843 150.04 154.462 150.778 154.925C151.526 155.389 152.373 155.62 153.319 155.62Z" fill="black"/>
<path d="M179.976 160.685C177.535 160.675 175.434 160.075 173.674 158.883C171.923 157.692 170.575 155.966 169.629 153.705C168.692 151.445 168.228 148.726 168.238 145.549C168.238 142.381 168.706 139.681 169.643 137.449C170.589 135.217 171.938 133.52 173.688 132.356C175.448 131.184 177.544 130.597 179.976 130.597C182.408 130.597 184.5 131.184 186.25 132.356C188.011 133.529 189.364 135.231 190.31 137.463C191.256 139.686 191.725 142.381 191.715 145.549C191.715 148.736 191.242 151.459 190.296 153.72C189.359 155.98 188.015 157.706 186.265 158.897C184.514 160.089 182.418 160.685 179.976 160.685ZM179.976 155.592C181.642 155.592 182.971 154.755 183.965 153.081C184.959 151.407 185.451 148.897 185.441 145.549C185.441 143.345 185.214 141.511 184.76 140.045C184.315 138.579 183.681 137.477 182.858 136.74C182.044 136.002 181.084 135.633 179.976 135.633C178.32 135.633 176.996 136.461 176.002 138.116C175.008 139.771 174.507 142.248 174.497 145.549C174.497 147.781 174.72 149.644 175.164 151.138C175.619 152.623 176.257 153.739 177.081 154.486C177.904 155.223 178.869 155.592 179.976 155.592Z" fill="black"/>
</svg>
