<svg width="17" height="17" viewBox="0 0 17 17" fill="none" xmlns="http://www.w3.org/2000/svg">
<g clip-path="url(#clip0_1456_2277)">
<g clip-path="url(#clip1_1456_2277)">
<path d="M10.02 0.237691C10.0167 0.207617 10.0194 0.177171 10.0279 0.1482C10.0365 0.119228 10.0507 0.0923346 10.0697 0.069148C10.0887 0.0459615 10.1121 0.026965 10.1386 0.0133097C10.165 -0.000345607 10.1938 -0.00837534 10.2233 -0.0102929C10.2529 -0.0122105 10.2825 -0.00797604 10.3104 0.00215392C10.3382 0.0122839 10.3638 0.0280984 10.3855 0.048639C10.4073 0.0691797 10.4247 0.0940189 10.4368 0.121651C10.4488 0.149284 10.4553 0.179134 10.4557 0.209393C10.4656 0.463582 10.541 0.710587 10.6743 0.925332C10.8189 1.14082 11.0198 1.31045 11.254 1.41489C11.6834 1.56865 12.0998 1.75793 12.4991 1.98085C13.0247 2.2729 13.5354 2.59214 14.0292 2.93732C14.4765 3.05888 14.8984 3.26264 15.2744 3.53865C15.6368 3.81 15.9363 4.15977 16.1515 4.56303V4.57435C16.3033 4.89331 16.4109 5.23239 16.471 5.58176C16.5475 6.00952 16.5891 6.44302 16.5956 6.87781C16.7884 7.5922 16.9072 8.32539 16.9497 9.06524C16.996 9.85782 16.996 10.6525 16.9497 11.4451C16.9468 11.5044 16.9209 11.5601 16.8779 11.5999C16.8348 11.6397 16.778 11.6603 16.7201 11.6573C16.6621 11.6543 16.6077 11.6279 16.5687 11.5839C16.5298 11.5398 16.5096 11.4818 16.5126 11.4225C16.5589 10.6473 16.5589 9.87007 16.5126 9.09495C16.4781 8.37948 16.3686 7.66985 16.1861 6.97826C16.1795 6.95671 16.1757 6.93434 16.175 6.91176C16.1701 6.49261 16.1303 6.07465 16.056 5.66241C16.0048 5.35537 15.9117 5.05721 15.7793 4.77668C15.5944 4.43057 15.3375 4.13016 15.0267 3.89662C14.6834 3.64579 14.2972 3.46295 13.8881 3.35754C13.8646 3.35068 13.8422 3.34018 13.8217 3.32641C13.3307 2.98167 12.8228 2.6629 12.2999 2.37136C11.9191 2.15738 11.5216 1.97612 11.1115 1.82945L11.0825 1.81813C10.7702 1.68291 10.502 1.45963 10.3091 1.17435C10.1339 0.893559 10.0341 0.57048 10.02 0.237691ZM10.8348 7.26407C10.8823 7.26379 10.9287 7.27795 10.9683 7.30474C11.0079 7.33153 11.0388 7.36974 11.0571 7.41452C11.0753 7.45931 11.0802 7.50864 11.071 7.55626C11.0618 7.60387 11.039 7.64761 11.0054 7.68193C10.9719 7.71625 10.9291 7.73959 10.8825 7.74899C10.836 7.75839 10.7878 7.75342 10.744 7.73472C10.7002 7.71602 10.6628 7.68443 10.6366 7.64396C10.6104 7.60349 10.5966 7.55597 10.5969 7.50744C10.5969 7.44289 10.6219 7.38099 10.6666 7.33535C10.7112 7.28971 10.7717 7.26407 10.8348 7.26407ZM6.29152 7.26407C6.33897 7.26379 6.38544 7.27795 6.42501 7.30474C6.46458 7.33153 6.49547 7.36974 6.51376 7.41452C6.53204 7.45931 6.5369 7.50864 6.52771 7.55626C6.51852 7.60387 6.49569 7.64761 6.46214 7.68193C6.42858 7.71625 6.38581 7.73959 6.33925 7.74899C6.2927 7.75839 6.24446 7.75342 6.20067 7.73472C6.15688 7.71602 6.11952 7.68443 6.09332 7.64396C6.06713 7.60349 6.05329 7.55597 6.05356 7.50744C6.05356 7.44289 6.07863 7.38099 6.12326 7.33535C6.16788 7.28971 6.22841 7.26407 6.29152 7.26407ZM10.7546 3.31509C10.7775 3.305 10.8022 3.29981 10.8271 3.29984C10.852 3.29988 10.8767 3.30513 10.8996 3.31529C10.9225 3.32545 10.9431 3.3403 10.9601 3.35891C10.9772 3.37752 10.9903 3.39951 10.9987 3.42352C11.0072 3.44753 11.0107 3.47305 11.0091 3.4985C11.0075 3.52396 11.0008 3.54881 10.9895 3.57153C10.9782 3.59425 10.9624 3.61435 10.9432 3.6306C10.9239 3.64684 10.9017 3.65889 10.8777 3.66599C10.5661 3.77834 10.2639 3.91652 9.9743 4.07914C9.69276 4.23968 9.42805 4.42932 9.18434 4.6451C9.14763 4.67733 9.09992 4.69335 9.05167 4.68964C9.00343 4.68592 8.9586 4.66278 8.92702 4.62529C8.91124 4.60678 8.89921 4.58525 8.89164 4.56195C8.88406 4.53865 8.88109 4.51405 8.88289 4.48956C8.88469 4.46508 8.89124 4.4412 8.90213 4.41932C8.91304 4.39745 8.92808 4.378 8.94639 4.36212C9.20909 4.13156 9.49419 3.92912 9.79722 3.75796C10.104 3.58498 10.4242 3.43827 10.7546 3.31934V3.31509ZM6.24448 3.66599C6.21951 3.6601 6.19603 3.6489 6.17557 3.63311C6.15511 3.61733 6.13812 3.59732 6.12572 3.57438C6.11332 3.55145 6.10578 3.5261 6.10358 3.49998C6.10139 3.47387 6.1046 3.44757 6.11299 3.42281C6.12139 3.39805 6.13479 3.37537 6.15232 3.35625C6.16985 3.33713 6.19112 3.322 6.21474 3.31184C6.23837 3.30168 6.26382 3.29672 6.28944 3.29728C6.31506 3.29784 6.34028 3.30391 6.36346 3.31509C6.69752 3.43379 7.02143 3.5805 7.33188 3.75371C7.63459 3.92541 7.91964 4.12781 8.18272 4.35787C8.21721 4.39077 8.23793 4.43604 8.24053 4.4842C8.24312 4.53236 8.2274 4.57969 8.19664 4.61626C8.16589 4.65283 8.12249 4.67582 8.07554 4.6804C8.02859 4.68499 7.98172 4.67081 7.94476 4.64085C7.70063 4.42563 7.43598 4.23603 7.1548 4.07489C6.86481 3.91201 6.56219 3.77383 6.25002 3.66174L6.24448 3.66599ZM8.38055 5.23511C8.38055 5.18558 8.39979 5.13807 8.43404 5.10305C8.46828 5.06802 8.51473 5.04834 8.56317 5.04834C8.6116 5.04834 8.65805 5.06802 8.6923 5.10305C8.72654 5.13807 8.74578 5.18558 8.74578 5.23511V7.98709H10.9718C11.4141 7.94703 11.8465 7.82978 12.2501 7.64044C12.4398 7.55775 12.6087 7.43216 12.744 7.27311C12.8794 7.11406 12.9778 6.92569 13.0318 6.72217C13.0373 6.69848 13.0473 6.67614 13.0613 6.65642C13.0753 6.6367 13.093 6.61999 13.1133 6.60725C13.1336 6.5945 13.1561 6.58597 13.1796 6.58214C13.2031 6.57831 13.2272 6.57926 13.2503 6.58492C13.2735 6.59059 13.2954 6.60087 13.3146 6.61517C13.3339 6.62947 13.3503 6.64752 13.3627 6.66828C13.3752 6.68903 13.3835 6.7121 13.3873 6.73616C13.391 6.76021 13.3901 6.78479 13.3845 6.80848C13.2462 7.37444 12.8768 7.73948 12.4161 7.97577C11.9728 8.18237 11.4985 8.31059 11.0133 8.35496H10.9815C9.62705 8.35496 8.27126 8.35496 6.91685 8.35496C6.3012 8.35496 5.7077 8.36628 5.09482 8.1399C4.78538 8.03087 4.49968 7.86122 4.25368 7.64044C4.03481 7.4399 3.84808 7.20548 3.70029 6.94572C3.68651 6.9246 3.67709 6.90082 3.6726 6.87585C3.66811 6.85088 3.66865 6.82523 3.67418 6.80048C3.67971 6.77572 3.69011 6.75238 3.70476 6.73188C3.71941 6.71138 3.73799 6.69415 3.75938 6.68124C3.78076 6.66833 3.80449 6.66002 3.82911 6.65681C3.85374 6.6536 3.87875 6.65556 3.90262 6.66256C3.92648 6.66957 3.94869 6.68148 3.9679 6.69757C3.98711 6.71366 4.00291 6.73358 4.01434 6.75613C4.14379 6.98058 4.30617 7.18338 4.49578 7.35746C4.70547 7.54834 4.94994 7.695 5.21519 7.789C5.76857 7.99275 6.32196 7.9885 6.91131 7.98426H7.188H8.37917V5.23511H8.38055ZM8.40269 13.89C8.40269 13.8405 8.42193 13.793 8.45617 13.758C8.49042 13.723 8.53687 13.7033 8.5853 13.7033C8.63374 13.7033 8.68019 13.723 8.71443 13.758C8.74868 13.793 8.76792 13.8405 8.76792 13.89V14.9809C8.80218 14.9484 8.8471 14.9303 8.89382 14.93H9.90236C10.103 14.93 10.2455 14.93 10.3658 14.7517C10.4224 14.6589 10.4543 14.5526 10.4585 14.4433C10.4659 14.2941 10.4566 14.1446 10.4308 13.9976C10.4266 13.9505 10.4401 13.9035 10.4684 13.8661C10.4968 13.8287 10.5379 13.8038 10.5836 13.7962C10.6292 13.7887 10.676 13.7991 10.7144 13.8255C10.7528 13.8518 10.78 13.8921 10.7905 13.9381C10.8211 14.1146 10.8318 14.294 10.8224 14.473C10.8134 14.6474 10.7594 14.8163 10.666 14.9625C10.4378 15.3049 10.215 15.3035 9.90236 15.3021H8.89382C8.85642 15.3017 8.82002 15.2897 8.7894 15.2677C8.75879 15.2458 8.73538 15.2148 8.72227 15.179C8.70519 15.1994 8.68395 15.2156 8.66004 15.2266C8.63613 15.2376 8.61014 15.2431 8.58392 15.2427C8.53549 15.2427 8.48904 15.223 8.45479 15.188C8.42054 15.153 8.4013 15.1055 8.4013 15.0559V13.8858L8.40269 13.89ZM6.32749 13.9381C6.33131 13.9141 6.33972 13.891 6.35225 13.8703C6.36477 13.8496 6.38117 13.8315 6.40051 13.8173C6.41984 13.803 6.44173 13.7928 6.46493 13.7872C6.48813 13.7816 6.51217 13.7807 6.5357 13.7846C6.55923 13.7885 6.58177 13.7971 6.60205 13.8099C6.62233 13.8228 6.63994 13.8395 6.65388 13.8593C6.66781 13.8791 6.67781 13.9015 6.68329 13.9252C6.68877 13.9489 6.68962 13.9735 6.68581 13.9976C6.66006 14.1446 6.65077 14.2941 6.65814 14.4433C6.66231 14.5526 6.69426 14.6589 6.75083 14.7517C6.87119 14.9314 7.01369 14.9314 7.21291 14.93H8.22283C8.27127 14.93 8.31772 14.9497 8.35196 14.9847C8.38621 15.0197 8.40545 15.0672 8.40545 15.1168C8.40545 15.1663 8.38621 15.2138 8.35196 15.2488C8.31772 15.2838 8.27127 15.3035 8.22283 15.3035H7.21291C6.90163 15.3035 6.67751 15.3035 6.44923 14.9639C6.35583 14.8177 6.30189 14.6488 6.2929 14.4744C6.28323 14.2954 6.29437 14.1159 6.32611 13.9396L6.32749 13.9381ZM8.40269 11.5074C8.40269 11.4578 8.42193 11.4103 8.45617 11.3753C8.49042 11.3403 8.53687 11.3206 8.5853 11.3206C8.63374 11.3206 8.68019 11.3403 8.71443 11.3753C8.74868 11.4103 8.76792 11.4578 8.76792 11.5074V12.7114C8.78464 12.6872 8.80683 12.6675 8.8326 12.654C8.85838 12.6404 8.88697 12.6334 8.91595 12.6336H9.99505C10.2136 12.6336 10.3686 12.6336 10.5014 12.4369C10.5636 12.3358 10.5984 12.2196 10.6024 12.1002C10.6106 11.9392 10.6009 11.7778 10.5733 11.6191C10.5701 11.5732 10.5837 11.5278 10.6115 11.4915C10.6392 11.4553 10.6792 11.431 10.7235 11.4232C10.7679 11.4154 10.8135 11.4248 10.8514 11.4495C10.8894 11.4742 10.917 11.5125 10.9289 11.5569C10.9622 11.7435 10.9738 11.9334 10.9635 12.1228C10.9545 12.3073 10.8977 12.4861 10.7988 12.6407C10.5581 13.0015 10.3216 13.0015 9.99229 12.9987H8.91318C8.87229 12.9987 8.83255 12.9848 8.80023 12.9592C8.76791 12.9336 8.74486 12.8977 8.73472 12.8572C8.71303 12.8906 8.68139 12.916 8.64448 12.9296C8.60757 12.9432 8.56736 12.9443 8.5298 12.9327C8.49223 12.9211 8.45932 12.8975 8.43593 12.8653C8.41253 12.8331 8.39991 12.794 8.39992 12.7539V11.5031L8.40269 11.5074ZM6.17808 11.5611C6.1856 11.5125 6.21169 11.469 6.2506 11.4401C6.26987 11.4257 6.29171 11.4154 6.31488 11.4097C6.33804 11.4041 6.36207 11.4031 6.3856 11.4069C6.40912 11.4107 6.43169 11.4192 6.452 11.4319C6.47231 11.4447 6.48997 11.4614 6.50397 11.4811C6.51798 11.5008 6.52805 11.5231 6.53361 11.5468C6.53917 11.5705 6.54012 11.5951 6.53639 11.6191C6.50888 11.7778 6.49913 11.9392 6.50734 12.1002C6.51133 12.2196 6.54618 12.3358 6.60833 12.4369C6.74668 12.6364 6.89609 12.635 7.1133 12.6336H8.19378C8.24222 12.6336 8.28866 12.6533 8.32291 12.6883C8.35716 12.7233 8.3764 12.7708 8.3764 12.8204C8.3764 12.8699 8.35716 12.9174 8.32291 12.9524C8.28866 12.9875 8.24222 13.0071 8.19378 13.0071H7.11468C6.78542 13.0071 6.54884 13.0071 6.30812 12.6492C6.20931 12.4945 6.15249 12.3158 6.14349 12.1313C6.13316 11.9419 6.14477 11.752 6.17808 11.5654V11.5611ZM8.38193 8.87281C8.38193 8.82328 8.40117 8.77577 8.43542 8.74075C8.46967 8.70572 8.51612 8.68605 8.56455 8.68605C8.61298 8.68605 8.65943 8.70572 8.69368 8.74075C8.72793 8.77577 8.74717 8.82328 8.74717 8.87281V10.3896C8.74717 10.4391 8.72793 10.4866 8.69368 10.5216C8.65943 10.5567 8.61298 10.5764 8.56455 10.5764C8.51612 10.5764 8.46967 10.5567 8.43542 10.5216C8.40117 10.4866 8.38193 10.4391 8.38193 10.3896V8.86715V8.87281ZM11.0257 9.08505C11.0218 9.06088 11.0226 9.03615 11.028 9.01229C11.0335 8.98843 11.0435 8.96591 11.0575 8.94604C11.0716 8.92618 11.0893 8.90935 11.1097 8.89654C11.1302 8.88372 11.1529 8.87518 11.1765 8.8714C11.2244 8.86405 11.2731 8.87626 11.3122 8.90539C11.3513 8.93452 11.3776 8.97822 11.3854 9.02704C11.4248 9.25198 11.4383 9.48087 11.4256 9.70902C11.4157 9.92661 11.3493 10.1376 11.2333 10.3203C10.9566 10.7447 10.6716 10.7447 10.2814 10.7447H8.96714C8.91871 10.7447 8.87226 10.725 8.83801 10.69C8.80376 10.655 8.78452 10.6075 8.78452 10.558C8.78452 10.5084 8.80376 10.4609 8.83801 10.4259C8.87226 10.3909 8.91871 10.3712 8.96714 10.3712H10.2828C10.5595 10.3712 10.7587 10.3712 10.9317 10.1151C11.0103 9.98757 11.0552 9.84127 11.0617 9.69062C11.0723 9.49131 11.0603 9.29141 11.0257 9.09495V9.08505ZM5.67173 9.02138C5.67372 8.99572 5.68087 8.97075 5.69275 8.94806C5.70462 8.92536 5.72095 8.90542 5.74071 8.88948C5.76048 8.87354 5.78325 8.86196 5.8076 8.85545C5.83195 8.84894 5.85736 8.84765 5.88222 8.85166C5.90708 8.85567 5.93086 8.86489 5.95208 8.87875C5.97329 8.8926 5.99147 8.9108 6.00548 8.93218C6.01949 8.95356 6.02903 8.97768 6.03349 9.00301C6.03796 9.02834 6.03726 9.05435 6.03143 9.07939C5.99649 9.2758 5.98396 9.47569 5.99408 9.67506C6.00123 9.82559 6.046 9.97174 6.12412 10.0995C6.3012 10.3641 6.50181 10.3627 6.7785 10.3613H8.09417C8.14261 10.3613 8.18906 10.381 8.2233 10.416C8.25755 10.451 8.27679 10.4985 8.27679 10.5481C8.27679 10.5976 8.25755 10.6451 8.2233 10.6801C8.18906 10.7151 8.14261 10.7348 8.09417 10.7348H6.7785C6.38836 10.7348 6.11029 10.7348 5.82806 10.3104C5.7122 10.1275 5.64541 9.91671 5.63437 9.69911C5.62147 9.47091 5.6354 9.24194 5.67588 9.01713L5.67173 9.02138ZM13.7359 16.7283C13.7446 16.7846 13.732 16.8421 13.7006 16.8891C13.6693 16.9362 13.6215 16.9692 13.5671 16.9815C13.5128 16.9938 13.4559 16.9844 13.4081 16.9552C13.3602 16.926 13.3251 16.8793 13.3098 16.8245C13.195 16.294 13.065 15.7775 12.9432 15.2894C12.743 14.5469 12.5818 13.7941 12.4604 13.034C12.3041 11.9347 12.322 11.854 12.495 11.2244C12.5379 11.0617 12.5932 10.8565 12.6624 10.5537C12.7933 10.0232 12.9616 9.50301 13.166 8.99732C13.5024 8.18153 13.7381 7.32598 13.8674 6.45051C13.8715 6.42143 13.8813 6.39348 13.896 6.36825C13.9108 6.34302 13.9302 6.321 13.9533 6.30346C13.9763 6.28592 14.0026 6.2732 14.0304 6.26602C14.0583 6.25884 14.0873 6.25735 14.1157 6.26162C14.1441 6.26589 14.1715 6.27585 14.1961 6.29093C14.2208 6.306 14.2423 6.3259 14.2595 6.34949C14.2766 6.37307 14.2891 6.39988 14.2961 6.42838C14.3031 6.45688 14.3046 6.48651 14.3004 6.51559C14.1875 7.30858 13.9846 8.08541 13.6958 8.83037C13.7286 9.35645 13.7984 9.87943 13.9047 10.3952C13.9693 10.7381 14.0925 11.0667 14.2686 11.3659C14.2971 11.4154 14.3058 11.4742 14.2931 11.5301C14.2803 11.586 14.247 11.6348 14.2 11.6662C14.153 11.6977 14.096 11.7095 14.0408 11.6992C13.9856 11.6888 13.9363 11.6571 13.9033 11.6106C13.6985 11.2671 13.5547 10.8891 13.4786 10.4943C13.4288 10.2721 13.3859 10.0274 13.35 9.75712C13.2456 10.0509 13.1574 10.3504 13.0857 10.6542C13.0207 10.9372 12.9612 11.1621 12.9128 11.3418C12.7661 11.8908 12.7481 11.9601 12.892 12.9704C13.0108 13.7147 13.1688 14.452 13.3652 15.179C13.4814 15.6473 13.6059 16.144 13.7332 16.7354L13.7359 16.7283ZM3.70998 16.6859C3.69737 16.7418 3.66413 16.7905 3.6172 16.8219C3.57027 16.8532 3.51329 16.8649 3.45819 16.8543C3.40163 16.8411 3.35245 16.8056 3.32136 16.7555C3.29027 16.7054 3.27978 16.6448 3.29217 16.5868C3.40977 16.0619 3.52183 15.6106 3.62835 15.1818C3.82492 14.4539 3.98332 13.7156 4.10288 12.9704C4.24123 11.9601 4.22739 11.8908 4.08075 11.3418C4.03371 11.1621 3.97283 10.9372 3.90781 10.6542C3.83585 10.3521 3.74717 10.0545 3.64219 9.76278C3.60622 10.0288 3.56471 10.2707 3.51491 10.49C3.43885 10.8849 3.29506 11.2628 3.09018 11.6064C3.05718 11.6529 3.00796 11.6846 2.95273 11.6949C2.8975 11.7053 2.84049 11.6935 2.79352 11.662C2.74656 11.6305 2.71323 11.5818 2.70047 11.5258C2.6877 11.4699 2.69647 11.4111 2.72495 11.3616C2.90106 11.0625 3.02423 10.7339 3.0888 10.391C3.19437 9.87791 3.26418 9.35781 3.2977 8.83461C3.00817 8.08982 2.8048 7.31295 2.69175 6.51984C2.68757 6.49076 2.68903 6.46112 2.69605 6.43262C2.70307 6.40412 2.71551 6.37731 2.73266 6.35373C2.74981 6.33015 2.77134 6.31025 2.79601 6.29517C2.82068 6.2801 2.84801 6.27014 2.87644 6.26586C2.93386 6.25723 2.99229 6.27228 3.03886 6.30771C3.08543 6.34313 3.11633 6.39603 3.12477 6.45475C3.25427 7.33018 3.48989 8.18571 3.82619 9.00157C4.03008 9.5073 4.19791 10.0275 4.32839 10.558C4.39894 10.8622 4.45428 11.0659 4.49717 11.2286C4.66595 11.8582 4.6867 11.9361 4.53037 13.0383C4.40911 13.8012 4.24793 14.5569 4.04754 15.3021C3.93686 15.7478 3.81927 16.2175 3.71274 16.6958L3.70998 16.6859ZM6.54193 0.209393C6.54374 0.180036 6.5512 0.151332 6.56386 0.12492C6.57652 0.0985083 6.59415 0.0749061 6.61573 0.0554611C6.63731 0.036016 6.66243 0.021109 6.68965 0.011591C6.71686 0.00207295 6.74564 -0.00186957 6.77435 -1.14953e-05C6.80305 0.00184658 6.83112 0.00946884 6.85695 0.0224201C6.88277 0.0353714 6.90585 0.053398 6.92486 0.0754708C6.94387 0.0975435 6.95845 0.12323 6.96776 0.151064C6.97706 0.178898 6.98092 0.208334 6.9791 0.237691C6.9653 0.570316 6.86501 0.893159 6.68857 1.17294C6.49746 1.45907 6.22999 1.68302 5.91798 1.81813L5.88755 1.82945C5.47894 1.97657 5.08285 2.15781 4.7033 2.37136C4.18022 2.66258 3.67227 2.98136 3.18149 3.32641C3.16104 3.34018 3.13864 3.35068 3.11509 3.35754C2.70597 3.46295 2.31979 3.64579 1.9765 3.89662C1.66569 4.12955 1.40876 4.42951 1.22389 4.77527C1.09175 5.05638 0.998623 5.35497 0.9472 5.66241C0.873377 6.07469 0.834037 6.49265 0.829605 6.91176C0.828848 6.93434 0.825126 6.95671 0.818537 6.97826C0.628892 7.66819 0.511559 8.3768 0.468521 9.09212C0.422936 9.86726 0.422936 10.6445 0.468521 11.4196C0.469975 11.449 0.46576 11.4784 0.456118 11.506C0.446475 11.5337 0.431594 11.5592 0.412325 11.581C0.393055 11.6028 0.369773 11.6205 0.343809 11.6332C0.317845 11.6458 0.289707 11.653 0.261002 11.6545C0.232296 11.656 0.203586 11.6517 0.176509 11.6418C0.149433 11.632 0.124521 11.6167 0.103195 11.597C0.08187 11.5773 0.0645489 11.5535 0.052221 11.527C0.0398932 11.5004 0.0328001 11.4716 0.0313466 11.4423C-0.0156572 10.6497 -0.0156572 9.85497 0.0313466 9.06241C0.0743667 8.32251 0.193542 7.58932 0.386897 6.87498C0.393337 6.44019 0.434984 6.00669 0.511409 5.57893C0.571139 5.22963 0.678237 4.89055 0.829605 4.57152V4.5602C1.04694 4.15673 1.34882 3.8074 1.71364 3.53723C2.08959 3.26122 2.51149 3.05746 2.95876 2.9359C3.45442 2.59104 3.96697 2.27227 4.4944 1.98085C4.8936 1.75768 5.31004 1.56839 5.73952 1.41489C5.97289 1.31239 6.17365 1.14529 6.31919 0.932406C6.45271 0.717836 6.52771 0.470652 6.53639 0.216468L6.54193 0.209393Z" fill="#333333" stroke="black" stroke-width="0.4"/>
</g>
</g>
<defs>
<clipPath id="clip0_1456_2277">
<rect width="17" height="17" fill="white"/>
</clipPath>
<clipPath id="clip1_1456_2277">
<rect width="17" height="17" fill="white"/>
</clipPath>
</defs>
</svg>
