<svg width="24" height="24" viewBox="0 0 24 24" fill="none" xmlns="http://www.w3.org/2000/svg">
<circle cx="12" cy="12" r="11.5" fill="white" stroke="#FB6A57"/>
<path d="M16.8031 9.18854C15.0271 9.01254 13.2405 8.92188 11.4591 8.92188C10.4031 8.92188 9.34713 8.97521 8.29113 9.08188L7.20312 9.18854" stroke="#FB6A57" stroke-width="1.5" stroke-linecap="round" stroke-linejoin="round"/>
<path d="M10.1367 8.65041L10.2541 7.95174C10.3394 7.44507 10.4034 7.06641 11.3047 7.06641H12.7021C13.6034 7.06641 13.6727 7.46641 13.7527 7.95707L13.8701 8.65041" stroke="#FB6A57" stroke-width="1.5" stroke-linecap="round" stroke-linejoin="round"/>
<path d="M15.6543 10.875L15.3077 16.2457C15.249 17.083 15.201 17.7337 13.713 17.7337H10.289C8.80099 17.7337 8.75299 17.083 8.69432 16.2457L8.34766 10.875" stroke="#FB6A57" stroke-width="1.5" stroke-linecap="round" stroke-linejoin="round"/>
<path d="M11.1133 14.8008H12.8893" stroke="#FB6A57" stroke-width="1.5" stroke-linecap="round" stroke-linejoin="round"/>
<path d="M10.668 12.666H13.3346" stroke="#FB6A57" stroke-width="1.5" stroke-linecap="round" stroke-linejoin="round"/>
</svg>
