<svg width="41" height="41" viewBox="0 0 41 41" fill="none" xmlns="http://www.w3.org/2000/svg">
<path fill-rule="evenodd" clip-rule="evenodd" d="M29.8218 18.5223C33.5566 18.5223 36.5867 21.5525 36.5867 25.2872C36.5867 29.0219 33.5566 32.0521 29.8218 32.0521C26.0871 32.0521 23.057 29.0219 23.057 25.2872C23.057 22.8791 24.3165 20.7627 26.2136 19.5651L24.1152 16.3285H15.794L14.5344 19.1728C16.8186 20.2594 18.4008 22.5874 18.4008 25.2872C18.4008 29.0219 15.3707 32.0521 11.636 32.0521C7.90121 32.0521 4.87109 29.0219 4.87109 25.2872C4.87109 21.5525 7.90121 18.5223 11.636 18.5223C11.9508 18.5223 12.258 18.543 12.5625 18.5843L14.1937 14.8934C14.3615 14.5114 14.7358 14.2843 15.1281 14.2843H24.665C24.8508 14.2843 25.0237 14.3333 25.176 14.4211L27.2202 10.0669H23.7229C23.1576 10.0669 22.7008 9.60749 22.7008 9.04482C22.7008 8.48216 23.1576 8.01758 23.7229 8.01758H28.823V8.02274C28.9675 8.02274 29.1146 8.05371 29.254 8.11824C29.7651 8.35569 29.9844 8.96223 29.7444 9.47327L26.5362 16.3156L28.1106 18.7417C28.6578 18.5972 29.2308 18.5223 29.8218 18.5223ZM11.796 9.67201H17.1619C17.4949 9.67201 17.7994 9.80881 18.0214 10.0308C18.2434 10.2553 18.3827 10.565 18.3827 10.9057V11.4787C18.3827 11.822 18.2434 12.1317 18.0188 12.3537C17.7994 12.5731 17.4949 12.7125 17.1593 12.7125H11.796C11.463 12.7125 11.1585 12.5757 10.9365 12.3537C10.7119 12.1291 10.5726 11.8194 10.5726 11.4787V10.9083C10.5726 10.565 10.7119 10.2553 10.9365 10.0334C11.1559 9.81139 11.4604 9.67459 11.796 9.67201ZM13.7059 21.0466L12.0154 24.8665C11.7882 25.3827 11.1843 25.6176 10.6681 25.3904C10.1519 25.1633 9.91699 24.5593 10.1441 24.0431L11.6824 20.5691C11.6669 20.5691 11.6514 20.5691 11.636 20.5691C9.02912 20.5691 6.91785 22.6829 6.91785 25.2872C6.91785 27.8914 9.0317 30.0053 11.636 30.0053C14.2428 30.0053 16.3541 27.8914 16.3541 25.2872C16.3541 23.4237 15.2752 21.8131 13.7059 21.0466ZM29.3134 20.5949L30.9549 23.1217C31.2621 23.594 31.1278 24.2264 30.6555 24.5335C30.1832 24.8407 29.5508 24.7065 29.2437 24.2341L27.326 21.2815C25.9916 22.1151 25.1012 23.5966 25.1012 25.2872C25.1012 27.8914 27.215 30.0053 29.8193 30.0053C32.4261 30.0053 34.5374 27.8914 34.5374 25.2872C34.5374 22.6804 32.4235 20.5691 29.8193 20.5691C29.6515 20.5665 29.4811 20.5768 29.3134 20.5949Z" fill="#333333"/>
</svg>
