<svg width="29" height="30" viewBox="0 0 29 30" fill="none" xmlns="http://www.w3.org/2000/svg">
<path fill-rule="evenodd" clip-rule="evenodd" d="M23.2145 16.4302C25.8561 16.4302 27.9994 18.5735 27.9994 21.2151C27.9994 23.8567 25.8561 26 23.2145 26C20.5728 26 18.4296 23.8567 18.4296 21.2151C18.4296 19.5118 19.3205 18.0148 20.6623 17.1677L19.1781 14.8784H13.2924L12.4015 16.8902C14.0171 17.6588 15.1362 19.3055 15.1362 21.2151C15.1362 23.8567 12.993 26 10.3513 26C7.70966 26 5.56641 23.8567 5.56641 21.2151C5.56641 18.5735 7.70966 16.4302 10.3513 16.4302C10.574 16.4302 10.7913 16.4448 11.0067 16.474L12.1605 13.8634C12.2791 13.5932 12.5439 13.4326 12.8213 13.4326H19.5669C19.6984 13.4326 19.8207 13.4672 19.9284 13.5293L21.3743 10.4495H18.9006C18.5008 10.4495 18.1777 10.1246 18.1777 9.72659C18.1777 9.32861 18.5008 9 18.9006 9H22.508V9.00365C22.6102 9.00365 22.7143 9.02556 22.8129 9.0712C23.1743 9.23915 23.3295 9.66817 23.1597 10.0296L20.8905 14.8693L22.0041 16.5854C22.3911 16.4831 22.7964 16.4302 23.2145 16.4302ZM10.4645 10.1702H14.2599C14.4954 10.1702 14.7108 10.267 14.8678 10.424C15.0248 10.5828 15.1234 10.8019 15.1234 11.0428V11.4481C15.1234 11.6909 15.0248 11.91 14.866 12.067C14.7108 12.2222 14.4954 12.3208 14.2581 12.3208H10.4645C10.229 12.3208 10.0136 12.224 9.85657 12.067C9.69774 11.9082 9.59916 11.6891 9.59916 11.4481V11.0447C9.59916 10.8019 9.69774 10.5828 9.85657 10.4258C10.0117 10.2688 10.2272 10.172 10.4645 10.1702ZM11.8154 18.2156L10.6197 20.9175C10.459 21.2826 10.0318 21.4488 9.66671 21.2881C9.30159 21.1275 9.13546 20.7003 9.29611 20.3352L10.3842 17.8779C10.3732 17.8779 10.3623 17.8779 10.3513 17.8779C8.50745 17.8779 7.01411 19.3731 7.01411 21.2151C7.01411 23.0571 8.50928 24.5523 10.3513 24.5523C12.1952 24.5523 13.6885 23.0571 13.6885 21.2151C13.6885 19.897 12.9254 18.7578 11.8154 18.2156ZM22.8548 17.8962L24.0159 19.6834C24.2332 20.0175 24.1382 20.4648 23.8042 20.682C23.4701 20.8993 23.0228 20.8043 22.8056 20.4703L21.4491 18.3818C20.5053 18.9714 19.8755 20.0193 19.8755 21.2151C19.8755 23.0571 21.3706 24.5523 23.2127 24.5523C25.0565 24.5523 26.5499 23.0571 26.5499 21.2151C26.5499 19.3712 25.0547 17.8779 23.2127 17.8779C23.094 17.8761 22.9735 17.8834 22.8548 17.8962Z" fill="#333333"/>
</svg>
