<svg width="23" height="33" viewBox="0 0 23 33" fill="none" xmlns="http://www.w3.org/2000/svg">
<path d="M17.7986 24.2266H22.5403C22.7917 24.2266 23 24.4375 23 24.6979V32.0287C23 32.2865 22.7943 32.5 22.5403 32.5H17.7986C17.5472 32.5 17.3389 32.2891 17.3389 32.0287V24.6979C17.3389 24.4401 17.5472 24.2266 17.7986 24.2266ZM3.88582 2.67969C9.47582 -1.28385 9.89488 6.5599 15.3833 1.66406V9.65625C10.1489 14.4844 9.01866 6.68229 3.88582 10.6484V2.67969ZM2.50674 0.5C3.09596 0.5 3.57343 0.989583 3.57343 1.59375C3.57343 1.99479 3.36263 2.34635 3.05024 2.53646H3.10104V12.2266H5.20395C5.45539 12.2266 5.66365 12.4375 5.66365 12.6979V32.0313C5.66365 32.2891 5.45793 32.5026 5.20395 32.5026H0.459695C0.20826 32.5026 0 32.2917 0 32.0313V12.6979C0 12.4401 0.20572 12.2266 0.459695 12.2266H1.91497V2.53646H1.96577C1.65084 2.34635 1.44004 1.99479 1.44004 1.59375C1.44004 0.989583 1.91751 0.5 2.50674 0.5ZM9.12787 17.8724H13.8696C14.121 17.8724 14.3293 18.0833 14.3293 18.3438V32.0313C14.3293 32.2891 14.1236 32.5026 13.8696 32.5026H9.12787C8.87644 32.5026 8.66818 32.2917 8.66818 32.0313V18.3438C8.67072 18.0833 8.87644 17.8724 9.12787 17.8724Z" fill="black"/>
</svg>
