<svg width="220" height="158" viewBox="0 0 220 158" fill="none" xmlns="http://www.w3.org/2000/svg">
<path d="M90.1932 74.719L132.33 61.5138L76.251 128.926L170.8 35.3596L134.551 44.3315L171.078 0L90.1932 74.719Z" fill="#EC5D1F"/>
<path d="M69.8815 62.4262L95.5694 55.7591L59.8926 94.5477L119.443 41.2097L97.4161 45.5139L120.667 19.9941L69.8815 62.4262Z" fill="#9BDB2E"/>
<path d="M57.1422 100.577C61.6389 100.577 65.2843 95.2336 65.2843 88.6428C65.2843 82.0519 61.6389 76.709 57.1422 76.709C52.6454 76.709 49 82.0519 49 88.6428C49 95.2336 52.6454 100.577 57.1422 100.577Z" fill="black"/>
<path d="M59.6213 100.736C63.2959 100.736 66.2748 95.7458 66.2748 89.5902C66.2748 83.4345 63.2959 78.4443 59.6213 78.4443C55.9466 78.4443 52.9678 83.4345 52.9678 89.5902C52.9678 95.7458 55.9466 100.736 59.6213 100.736Z" fill="white"/>
<path d="M67.9374 108.503C75.4206 108.503 81.487 99.6114 81.487 88.6428C81.487 77.6741 75.4206 68.7822 67.9374 68.7822C60.4541 68.7822 54.3877 77.6741 54.3877 88.6428C54.3877 99.6114 60.4541 108.503 67.9374 108.503Z" fill="black"/>
<path d="M84.5736 108.503C93.1606 108.503 100.122 99.6114 100.122 88.6428C100.122 77.6741 93.1606 68.7822 84.5736 68.7822C75.9865 68.7822 69.0254 77.6741 69.0254 88.6428C69.0254 99.6114 75.9865 108.503 84.5736 108.503Z" fill="black"/>
<path d="M84.5736 68.7822H67.8203V108.502H84.5736V68.7822Z" fill="black"/>
<path d="M84.573 105.381C91.8108 105.381 97.6783 97.8866 97.6783 88.642C97.6783 79.3975 91.8108 71.9033 84.573 71.9033C77.3352 71.9033 71.4678 79.3975 71.4678 88.642C71.4678 97.8866 77.3352 105.381 84.573 105.381Z" fill="white"/>
<path d="M82.0283 100.737C87.3613 100.737 91.6846 94.2821 91.6846 86.32C91.6846 78.3579 87.3613 71.9033 82.0283 71.9033C76.6953 71.9033 72.3721 78.3579 72.3721 86.32C72.3721 94.2821 76.6953 100.737 82.0283 100.737Z" fill="black"/>
<path d="M113.079 85.832H86.7295C85.7091 85.832 84.8818 86.6592 84.8818 87.6797V89.1283C84.8818 90.1488 85.7091 90.976 86.7295 90.976H113.079C114.099 90.976 114.927 90.1488 114.927 89.1283V87.6797C114.927 86.6592 114.099 85.832 113.079 85.832Z" fill="#A9A9A9"/>
<path d="M112.77 84.4463H86.4209C85.4005 84.4463 84.5732 85.2735 84.5732 86.2939V87.7426C84.5732 88.763 85.4005 89.5902 86.4209 89.5902H112.77C113.791 89.5902 114.618 88.763 114.618 87.7426V86.2939C114.618 85.2735 113.791 84.4463 112.77 84.4463Z" fill="black"/>
<path d="M120.857 108.265C128.341 108.265 134.407 99.3732 134.407 88.4045C134.407 77.4358 128.341 68.5439 120.857 68.5439C113.374 68.5439 107.308 77.4358 107.308 88.4045C107.308 99.3732 113.374 108.265 120.857 108.265Z" fill="black"/>
<path d="M137.493 108.265C146.08 108.265 153.041 99.3732 153.041 88.4045C153.041 77.4358 146.08 68.5439 137.493 68.5439C128.905 68.5439 121.944 77.4358 121.944 88.4045C121.944 99.3732 128.905 108.265 137.493 108.265Z" fill="black"/>
<path d="M137.493 68.5439H120.739V108.264H137.493V68.5439Z" fill="black"/>
<path d="M140.417 105.144C146.04 105.144 150.598 97.6497 150.598 88.4047C150.598 79.1596 146.04 71.665 140.417 71.665C134.794 71.665 130.236 79.1596 130.236 88.4047C130.236 97.6497 134.794 105.144 140.417 105.144Z" fill="white"/>
<path d="M148.037 99.7815C152.246 99.7815 155.658 94.6876 155.658 88.4039C155.658 82.1203 152.246 77.0264 148.037 77.0264C143.829 77.0264 140.417 82.1203 140.417 88.4039C140.417 94.6876 143.829 99.7815 148.037 99.7815Z" fill="black"/>
<path d="M152.95 88.3572C152.95 92.4905 151.708 95.8414 150.176 95.8414C148.644 95.8414 147.403 92.4905 147.403 88.3572C147.403 84.2239 148.645 80.873 150.176 80.873C151.708 80.873 152.95 84.2239 152.95 88.3572Z" fill="white"/>
<path d="M140.3 98.669L133.455 90.6513C133.455 90.6513 132.705 83.9531 140.101 80.9137C140.101 80.9137 136.443 88.0835 140.563 92.9093L140.3 98.669Z" fill="black"/>
<path d="M0 157.369V128.641H19.1476V133.649H6.11425V140.494H17.8768V145.502H6.11425V157.369H0Z" fill="black"/>
<path d="M23.1473 157.369V135.823H29.1627V157.369H23.1473ZM26.1691 133.046C25.2748 133.046 24.5076 132.751 23.8675 132.162C23.2367 131.563 22.9214 130.848 22.9214 130.016C22.9214 129.193 23.2367 128.487 23.8675 127.898C24.5076 127.299 25.2748 127 26.1691 127C27.0634 127 27.826 127.299 28.4567 127.898C29.0968 128.487 29.4169 129.193 29.4169 130.016C29.4169 130.848 29.0968 131.563 28.4567 132.162C27.826 132.751 27.0634 133.046 26.1691 133.046Z" fill="black"/>
<path d="M45.518 135.823V140.312H32.4564V135.823H45.518ZM35.4217 130.661H41.4371V150.748C41.4371 151.3 41.5218 151.73 41.6913 152.038C41.8607 152.338 42.0961 152.548 42.3973 152.67C42.708 152.791 43.0657 152.852 43.4705 152.852C43.7529 152.852 44.0353 152.829 44.3177 152.782C44.6001 152.726 44.8166 152.684 44.9673 152.656L45.9134 157.102C45.6121 157.196 45.1885 157.303 44.6425 157.425C44.0965 157.556 43.4328 157.635 42.6515 157.663C41.2018 157.719 39.9309 157.528 38.8389 157.088C37.7563 156.649 36.9138 155.966 36.3113 155.04C35.7088 154.114 35.4123 152.946 35.4217 151.533V130.661Z" fill="black"/>
<path d="M50.0154 157.369V128.641H61.4249C63.6183 128.641 65.4869 129.057 67.0308 129.89C68.5747 130.713 69.7514 131.858 70.561 133.326C71.38 134.785 71.7895 136.468 71.7895 138.376C71.7895 140.284 71.3753 141.967 70.5469 143.426C69.7184 144.885 68.5182 146.021 66.9461 146.834C65.3834 147.648 63.4912 148.055 61.2696 148.055H53.9974V143.187H60.2811C61.4579 143.187 62.4275 142.986 63.19 142.584C63.9619 142.173 64.5362 141.607 64.9127 140.887C65.2987 140.157 65.4917 139.321 65.4917 138.376C65.4917 137.422 65.2987 136.59 64.9127 135.879C64.5362 135.159 63.9619 134.603 63.19 134.21C62.4181 133.808 61.439 133.607 60.2529 133.607H56.1297V157.369H50.0154Z" fill="#EC5D1F"/>
<path d="M75.6479 157.369V135.823H81.4798V139.582H81.7057C82.1011 138.245 82.7648 137.235 83.6967 136.552C84.6287 135.86 85.7019 135.514 86.9162 135.514C87.2175 135.514 87.5423 135.533 87.8906 135.571C88.2389 135.608 88.5448 135.659 88.8084 135.725V141.027C88.526 140.943 88.1353 140.868 87.6364 140.803C87.1375 140.737 86.6809 140.705 86.2667 140.705C85.3818 140.705 84.591 140.896 83.8944 141.28C83.2072 141.654 82.6612 142.177 82.2564 142.851C81.861 143.524 81.6633 144.3 81.6633 145.179V157.369H75.6479Z" fill="#EC5D1F"/>
<path d="M100.709 157.79C98.5152 157.79 96.6183 157.327 95.018 156.401C93.427 155.466 92.1985 154.166 91.3325 152.501C90.4664 150.827 90.0334 148.887 90.0334 146.68C90.0334 144.454 90.4664 142.509 91.3325 140.845C92.1985 139.171 93.427 137.871 95.018 136.945C96.6183 136.01 98.5152 135.543 100.709 135.543C102.902 135.543 104.794 136.01 106.385 136.945C107.985 137.871 109.219 139.171 110.085 140.845C110.951 142.509 111.384 144.454 111.384 146.68C111.384 148.887 110.951 150.827 110.085 152.501C109.219 154.166 107.985 155.466 106.385 156.401C104.794 157.327 102.902 157.79 100.709 157.79ZM100.737 153.161C101.735 153.161 102.568 152.88 103.236 152.319C103.905 151.749 104.408 150.972 104.747 149.99C105.095 149.009 105.27 147.891 105.27 146.638C105.27 145.385 105.095 144.267 104.747 143.286C104.408 142.304 103.905 141.527 103.236 140.957C102.568 140.387 101.735 140.101 100.737 140.101C99.7296 140.101 98.8823 140.387 98.1951 140.957C97.5173 141.527 97.0043 142.304 96.656 143.286C96.3171 144.267 96.1476 145.385 96.1476 146.638C96.1476 147.891 96.3171 149.009 96.656 149.99C97.0043 150.972 97.5173 151.749 98.1951 152.319C98.8823 152.88 99.7296 153.161 100.737 153.161Z" fill="#EC5D1F"/>
<path d="M125.928 157.762C123.819 157.762 121.941 157.402 120.294 156.681C118.656 155.952 117.362 154.951 116.411 153.68C115.469 152.398 114.985 150.921 114.956 149.247H121.113C121.151 149.948 121.381 150.566 121.805 151.099C122.238 151.622 122.812 152.029 123.528 152.319C124.243 152.609 125.048 152.754 125.942 152.754C126.874 152.754 127.698 152.59 128.413 152.263C129.129 151.936 129.689 151.482 130.094 150.902C130.499 150.322 130.701 149.654 130.701 148.896C130.701 148.13 130.484 147.452 130.051 146.862C129.628 146.264 129.016 145.796 128.216 145.46C127.425 145.123 126.484 144.955 125.392 144.955H122.694V140.494H125.392C126.314 140.494 127.128 140.335 127.834 140.017C128.55 139.699 129.105 139.26 129.501 138.699C129.896 138.128 130.094 137.464 130.094 136.707C130.094 135.987 129.92 135.356 129.571 134.813C129.232 134.261 128.752 133.831 128.131 133.523C127.519 133.214 126.804 133.06 125.985 133.06C125.156 133.06 124.398 133.209 123.711 133.509C123.024 133.798 122.473 134.215 122.059 134.757C121.645 135.299 121.424 135.935 121.395 136.665H115.535C115.564 135.01 116.039 133.551 116.961 132.288C117.884 131.026 119.127 130.039 120.689 129.329C122.261 128.608 124.036 128.248 126.013 128.248C128.009 128.248 129.755 128.608 131.252 129.329C132.748 130.049 133.911 131.021 134.739 132.246C135.577 133.462 135.991 134.827 135.982 136.342C135.991 137.951 135.488 139.292 134.471 140.368C133.464 141.443 132.151 142.126 130.531 142.416V142.64C132.659 142.911 134.278 143.646 135.389 144.843C136.509 146.03 137.065 147.517 137.055 149.303C137.065 150.94 136.589 152.394 135.629 153.666C134.678 154.937 133.365 155.938 131.689 156.667C130.014 157.397 128.093 157.762 125.928 157.762Z" fill="black"/>
<path d="M152.549 157.762C151.062 157.752 149.626 157.504 148.242 157.018C146.868 156.532 145.635 155.742 144.543 154.648C143.451 153.553 142.585 152.104 141.944 150.299C141.314 148.494 140.998 146.278 140.998 143.65C141.008 141.238 141.286 139.082 141.832 137.184C142.387 135.276 143.178 133.658 144.204 132.33C145.239 131.002 146.477 129.992 147.918 129.3C149.358 128.599 150.972 128.248 152.761 128.248C154.691 128.248 156.395 128.622 157.873 129.371C159.351 130.109 160.537 131.115 161.431 132.386C162.335 133.658 162.881 135.084 163.069 136.665H157.039C156.804 135.664 156.31 134.879 155.557 134.308C154.804 133.738 153.872 133.452 152.761 133.452C150.878 133.452 149.447 134.266 148.468 135.893C147.499 137.52 147.004 139.732 146.986 142.528H147.183C147.616 141.677 148.2 140.952 148.934 140.354C149.678 139.746 150.52 139.283 151.462 138.965C152.413 138.638 153.415 138.474 154.47 138.474C156.183 138.474 157.708 138.876 159.045 139.681C160.381 140.475 161.436 141.57 162.208 142.963C162.98 144.356 163.366 145.951 163.366 147.746C163.366 149.691 162.909 151.421 161.996 152.936C161.092 154.451 159.826 155.639 158.197 156.499C156.578 157.35 154.695 157.771 152.549 157.762ZM152.521 152.992C153.462 152.992 154.305 152.768 155.048 152.319C155.792 151.87 156.376 151.262 156.799 150.495C157.223 149.729 157.435 148.868 157.435 147.914C157.435 146.961 157.223 146.105 156.799 145.348C156.385 144.59 155.811 143.987 155.077 143.538C154.342 143.089 153.505 142.865 152.563 142.865C151.857 142.865 151.203 142.996 150.6 143.257C150.007 143.519 149.485 143.884 149.033 144.352C148.591 144.819 148.242 145.362 147.988 145.979C147.734 146.587 147.607 147.237 147.607 147.929C147.607 148.854 147.819 149.701 148.242 150.467C148.675 151.234 149.259 151.847 149.993 152.305C150.737 152.763 151.579 152.992 152.521 152.992Z" fill="black"/>
<path d="M179.039 158C176.611 157.991 174.521 157.397 172.77 156.219C171.028 155.04 169.687 153.334 168.745 151.099C167.814 148.864 167.352 146.175 167.362 143.033C167.362 139.9 167.828 137.23 168.76 135.024C169.701 132.817 171.042 131.138 172.784 129.988C174.535 128.828 176.62 128.248 179.039 128.248C181.459 128.248 183.539 128.828 185.281 129.988C187.032 131.147 188.378 132.831 189.319 135.038C190.261 137.235 190.727 139.9 190.717 143.033C190.717 146.184 190.247 148.878 189.305 151.113C188.373 153.348 187.036 155.054 185.295 156.233C183.553 157.411 181.468 158 179.039 158ZM179.039 152.964C180.696 152.964 182.019 152.137 183.007 150.481C183.996 148.826 184.485 146.343 184.476 143.033C184.476 140.854 184.25 139.04 183.798 137.59C183.356 136.141 182.725 135.052 181.906 134.322C181.096 133.593 180.141 133.228 179.039 133.228C177.392 133.228 176.074 134.046 175.086 135.683C174.097 137.319 173.598 139.769 173.589 143.033C173.589 145.24 173.81 147.082 174.253 148.56C174.704 150.028 175.34 151.131 176.159 151.87C176.978 152.6 177.938 152.964 179.039 152.964Z" fill="black"/>
<path d="M200.979 128.641L206.811 138.432H207.037L212.897 128.641H219.802L210.977 143.005L220 157.369H212.968L207.037 147.564H206.811L200.881 157.369H193.877L202.928 143.005L194.046 128.641H200.979Z" fill="#EC5D1F"/>
</svg>
