<svg width="29" height="30" viewBox="0 0 29 30" fill="none" xmlns="http://www.w3.org/2000/svg">
<path d="M12.8913 21.7841L16.017 17.9938L17.4468 19.8175L14.691 23.3221C13.6355 24.6632 11.6825 23.2499 12.8913 21.7841ZM16.5417 13.1527C16.8394 12.1815 16.7026 11.3516 15.584 10.1187L12.8507 6.83067C12.4628 6.37512 11.5487 7.04416 11.9306 7.59593L14.1166 10.2886C14.5301 10.7908 13.7618 11.4553 13.3348 10.9381L11.0736 8.15371C10.6527 7.6711 9.78216 8.30857 10.2227 8.86033C10.8601 9.6271 11.8464 10.8795 12.4839 11.6462C12.9259 12.0958 12.2538 12.7618 11.8178 12.201L9.57318 9.43466C9.24393 9.07683 8.70569 9.29934 8.56286 9.71731C8.40951 10.1638 8.78688 10.4901 9.04397 10.8208L11.5487 14.0563C12.326 14.9569 13.195 15.4906 14.2053 15.1884C14.3602 15.1418 14.5496 15.0471 14.7526 14.9223L21.4821 23.6093C21.8444 24.0768 22.5435 24.1264 22.9976 23.7491L23.1013 23.6634C23.6125 23.2379 23.6952 22.4606 23.2577 21.9585L16.1313 13.7706C16.3387 13.5391 16.4906 13.3196 16.5417 13.1527ZM18.4466 15.0471L19.5546 13.703C18.1294 10.1698 23.411 5.46102 25.9714 7.626C29.0821 10.2586 24.4589 16.6031 21.2099 15.035L19.8974 16.7024L18.4466 15.0471Z" fill="#333333"/>
</svg>
