<svg width="17" height="20" viewBox="0 0 17 20" fill="none" xmlns="http://www.w3.org/2000/svg">
<path d="M12.063 13.3933C12.1436 13.4274 12.2041 13.4893 12.2344 13.5625C12.2646 13.6358 12.2663 13.7204 12.2327 13.7985C12.1974 13.8767 12.1335 13.9352 12.0579 13.9645C11.9823 13.9938 11.8949 13.9955 11.8143 13.9629C11.3455 13.7692 10.9556 13.4697 10.628 13.0824C10.3053 12.6999 10.0466 12.2311 9.84156 11.6924C9.3593 11.4043 8.89048 11.1878 8.43511 11.043C7.97638 10.8965 7.53109 10.82 7.09924 10.8168C6.68924 10.8119 6.28932 10.8705 5.8978 10.9925C5.52308 11.1097 5.15677 11.2839 4.79886 11.515C5.00386 11.6924 5.19206 11.8893 5.36177 12.1058C5.54325 12.3369 5.70288 12.5908 5.84235 12.8675C5.88099 12.944 5.88436 13.0287 5.85747 13.1035L5.85579 13.1068C5.8289 13.18 5.77345 13.2435 5.69448 13.2809C5.6155 13.3184 5.52812 13.3216 5.45083 13.2956L5.44747 13.294C5.37185 13.2679 5.30632 13.2142 5.26767 13.1377C5.06603 12.7373 4.81398 12.3923 4.5132 12.1042C4.21242 11.8145 3.86291 11.5801 3.46635 11.3978C3.0597 11.2106 2.60265 11.0772 2.09855 10.9942C1.59277 10.9112 1.03994 10.8786 0.440054 10.8949C0.352676 10.8965 0.27202 10.864 0.211528 10.8102C0.152716 10.7565 0.114068 10.68 0.112388 10.5938C0.110707 10.5091 0.144314 10.431 0.199765 10.3724C0.255217 10.3155 0.334193 10.278 0.423251 10.2764C1.07186 10.2585 1.67342 10.2943 2.22626 10.3871C2.78077 10.4798 3.28487 10.6296 3.73856 10.8379C3.83602 10.8819 3.93012 10.9291 4.02086 10.9795C4.10488 11.0251 4.18553 11.0723 4.26451 11.1211C4.70644 10.8119 5.16181 10.5808 5.63062 10.4261C6.10784 10.2683 6.5985 10.1934 7.10428 10.1983C7.51429 10.2031 7.93269 10.2617 8.35782 10.3757C8.75606 10.4815 9.15934 10.6361 9.57102 10.8379C9.55926 10.7891 9.54582 10.7419 9.53405 10.6931C9.51557 10.6149 9.49709 10.5352 9.4786 10.4522C9.30889 9.67743 9.20639 8.80829 9.14758 7.8773C9.09044 6.96584 9.07532 5.99254 9.08372 4.9883C8.30237 5.24546 7.52941 5.501 6.74469 5.74839C6.46743 5.86884 6.21202 5.92906 5.97677 5.93069C5.73985 5.93394 5.52308 5.8786 5.32648 5.77281C5.13997 5.67352 4.97697 5.52867 4.83414 5.34638C4.69299 5.16571 4.57033 4.94761 4.46615 4.69859C4.23762 4.34214 4.00237 3.9857 3.78057 3.62763C3.60077 3.33628 3.49827 3.05796 3.47307 2.79104C3.44954 2.52248 3.50499 2.26695 3.6411 2.02444C3.76713 1.7982 3.96205 1.59149 4.22922 1.40106C4.49303 1.21389 4.82406 1.04299 5.22566 0.889995C5.97677 0.640972 6.77158 0.382183 7.52941 0.159201C7.81339 0.0599172 8.08896 0.00620628 8.35446 -0.000304135C8.62163 -0.00681455 8.87872 0.0338756 9.12573 0.125021C9.36266 0.212912 9.58782 0.344748 9.79955 0.523784C10.0079 0.701193 10.2028 0.924175 10.3843 1.19436C11.3488 1.79006 12.1823 2.52899 12.8981 3.39813C13.6139 4.2689 14.2104 5.26825 14.7011 6.38153C15.1901 7.48993 15.5749 8.71226 15.8673 10.0306C16.1596 11.3474 16.3613 12.7617 16.4856 14.2575C16.7041 14.8662 16.8654 15.4164 16.9444 15.9063C17.025 16.4011 17.0217 16.8324 16.9124 17.197C16.7948 17.5957 16.5629 17.9099 16.1966 18.1345C15.8336 18.3558 15.3379 18.4877 14.686 18.5235C13.0829 18.919 11.5706 19.2396 10.1558 19.4789C8.73925 19.7198 7.42187 19.8793 6.20866 19.9525C4.98201 20.0257 3.86291 20.0095 2.85806 19.8988C1.85322 19.7865 0.96264 19.5781 0.194724 19.2673C0.114068 19.2347 0.0535758 19.1729 0.0216493 19.0996C-0.0102771 19.0264 -0.0119575 18.9418 0.0216493 18.8636C0.0552561 18.7855 0.119109 18.7269 0.194724 18.696C0.27034 18.6651 0.357717 18.6634 0.438374 18.696C1.15756 18.9873 1.99941 19.1826 2.9572 19.2884C3.915 19.3926 4.98873 19.4073 6.16833 19.3373C7.35969 19.2656 8.6586 19.1078 10.06 18.8685C11.4597 18.6309 12.9603 18.3119 14.5532 17.918C14.5566 17.918 14.5583 17.9164 14.5616 17.9164C14.57 17.9147 14.5768 17.9131 14.5852 17.9115C15.0338 17.8464 15.3615 17.8757 15.7849 17.6429C16.0538 17.4948 16.2184 17.2881 16.2957 17.0261C16.3831 16.7331 16.3781 16.3669 16.3025 15.9339C16.2252 15.4994 16.0756 14.9981 15.874 14.4398C15.8673 14.4252 15.8622 14.4089 15.8572 14.3926C15.8538 14.3763 15.8505 14.3601 15.8488 14.3421C15.7278 12.8675 15.5312 11.4776 15.2455 10.1852C14.9599 8.89293 14.5868 7.69989 14.1113 6.62242C13.6408 5.55471 13.0695 4.59931 12.3856 3.76923C11.7017 2.94078 10.9069 2.23928 9.98607 1.67938C9.9659 1.66799 9.94574 1.65171 9.92893 1.63544C9.91213 1.61916 9.89701 1.59963 9.88356 1.5801L9.88188 1.57684C9.73401 1.34735 9.57606 1.16018 9.41307 1.01532C9.25008 0.870464 9.07868 0.766298 8.90057 0.701193C8.72749 0.637717 8.54601 0.610047 8.35277 0.616558C8.15954 0.623068 7.95621 0.663758 7.74281 0.738628C6.97994 0.984396 6.2137 1.22365 5.45083 1.46617C5.12148 1.59149 4.85263 1.72658 4.64426 1.86819C4.43758 2.00979 4.29139 2.1579 4.20402 2.31252C4.12672 2.45087 4.09815 2.60224 4.11832 2.765C4.13848 2.93101 4.20906 3.11168 4.33004 3.30536L5.02234 4.38772C5.02402 4.38934 5.0257 4.3926 5.0257 4.39423L5.03746 4.41376C5.04251 4.4219 5.04587 4.43004 5.04755 4.43655L5.04923 4.4398C5.1282 4.63349 5.21558 4.79787 5.31472 4.93134C5.41218 5.06317 5.51804 5.16246 5.63567 5.22593C5.74321 5.2829 5.86419 5.31057 6.00366 5.30406C6.14649 5.29755 6.30612 5.25686 6.4876 5.17873C6.49432 5.17548 6.50272 5.17222 6.51112 5.16897C6.51952 5.16571 6.52793 5.16246 6.53633 5.1592L6.82703 5.06806C6.90264 4.76695 6.9749 4.51955 7.03371 4.31936L7.03539 4.3161C7.08412 4.15009 7.12781 4.0329 7.15637 3.9564C7.17486 3.90595 7.19838 3.89944 7.19166 3.88967C7.18662 3.88316 7.16814 3.91571 7.10932 3.95477C7.0001 4.02964 6.81694 4.15334 6.50104 4.27704L6.35317 4.33401C6.27083 4.36656 6.18346 4.36168 6.10952 4.33075C6.03391 4.29983 5.97173 4.24123 5.93813 4.16148C5.9062 4.08173 5.90956 3.99872 5.94149 3.92548C5.97341 3.85224 6.03391 3.79201 6.11624 3.75946C6.16497 3.73993 6.21538 3.72203 6.26411 3.7025C7.12613 3.36558 7.49748 3.22235 7.72097 3.54462C7.8638 3.7497 7.78482 4.01662 7.64871 4.48375L7.64703 4.49026C7.61679 4.5928 7.58318 4.70835 7.54789 4.83531L9.30553 4.25588L9.31225 4.25425C9.32737 4.24937 9.34249 4.24612 9.35762 4.24449C9.37442 4.24123 9.39291 4.24123 9.41139 4.24123C9.49877 4.24286 9.57942 4.27704 9.63655 4.33401C9.69369 4.39097 9.72897 4.46747 9.72729 4.55373C9.71217 5.62958 9.72057 6.67287 9.77434 7.64781C9.82811 8.62112 9.93061 9.52444 10.1037 10.3203C10.27 11.0837 10.5019 11.7445 10.8229 12.2686C11.1405 12.7943 11.5471 13.1784 12.063 13.3933Z" fill="#333333" stroke="black" stroke-width="0.4"/>
</svg>
