<svg width="35" height="35" viewBox="0 0 35 35" fill="none" xmlns="http://www.w3.org/2000/svg">
<path d="M17.7318 15.8514C17.5859 15.8368 17.4109 15.8368 17.2505 15.8514C13.7797 15.7348 11.0234 12.891 11.0234 9.39102C11.0234 5.8181 13.9109 2.91602 17.4984 2.91602C21.0714 2.91602 23.9734 5.8181 23.9734 9.39102C23.9589 12.891 21.2026 15.7348 17.7318 15.8514Z" stroke="#333333" stroke-width="2" stroke-linecap="round" stroke-linejoin="round"/>
<path d="M10.4398 21.234C6.91068 23.5965 6.91068 27.4465 10.4398 29.7944C14.4503 32.4777 21.0273 32.4777 25.0378 29.7944C28.5669 27.4319 28.5669 23.5819 25.0378 21.234C21.0419 18.5652 14.4648 18.5652 10.4398 21.234Z" stroke="#333333" stroke-width="2" stroke-linecap="round" stroke-linejoin="round"/>
</svg>
