<svg width="29" height="29" viewBox="0 0 29 29" fill="none" xmlns="http://www.w3.org/2000/svg">
<path d="M17.1341 14.5596C17.0508 14.5513 16.9508 14.5513 16.8591 14.5596C14.8758 14.493 13.3008 12.868 13.3008 10.868C13.3008 8.8263 14.9508 7.16797 17.0008 7.16797C19.0424 7.16797 20.7008 8.8263 20.7008 10.868C20.6924 12.868 19.1174 14.493 17.1341 14.5596Z" stroke="#333333" stroke-width="1.5" stroke-linecap="round" stroke-linejoin="round"/>
<path d="M12.9656 17.632C10.949 18.982 10.949 21.182 12.9656 22.5237C15.2573 24.057 19.0156 24.057 21.3073 22.5237C23.324 21.1737 23.324 18.9737 21.3073 17.632C19.024 16.107 15.2656 16.107 12.9656 17.632Z" stroke="#333333" stroke-width="1.5" stroke-linecap="round" stroke-linejoin="round"/>
</svg>
