<svg width="24" height="24" viewBox="0 0 24 24" fill="none" xmlns="http://www.w3.org/2000/svg">
<circle cx="12" cy="12" r="11.5" fill="white" stroke="#0C2041"/>
<path d="M14.3866 11.9999C14.3866 13.3199 13.3199 14.3866 11.9999 14.3866C10.6799 14.3866 9.61328 13.3199 9.61328 11.9999C9.61328 10.6799 10.6799 9.61328 11.9999 9.61328C13.3199 9.61328 14.3866 10.6799 14.3866 11.9999Z" stroke="#0C2041" stroke-width="1.5" stroke-linecap="round" stroke-linejoin="round"/>
<path d="M11.9999 17.5138C14.3532 17.5138 16.5466 16.1271 18.0732 13.7271C18.6732 12.7871 18.6732 11.2071 18.0732 10.2671C16.5466 7.86713 14.3532 6.48047 11.9999 6.48047C9.64656 6.48047 7.45323 7.86713 5.92656 10.2671C5.32656 11.2071 5.32656 12.7871 5.92656 13.7271C7.45323 16.1271 9.64656 17.5138 11.9999 17.5138Z" stroke="#0C2041" stroke-width="1.5" stroke-linecap="round" stroke-linejoin="round"/>
</svg>
