<svg width="21" height="29" viewBox="0 0 21 29" fill="none" xmlns="http://www.w3.org/2000/svg">
<path d="M10.5 0.679688C4.711 0.679688 0 5.42335 0 11.2555C0 19.5424 9.513 28.0987 9.91783 28.458C10.0779 28.6013 10.285 28.6806 10.4998 28.6808C10.7145 28.681 10.9219 28.6021 11.0822 28.4592C11.487 28.0987 21 19.5424 21 11.2555C21 5.42335 16.289 0.679688 10.5 0.679688ZM10.5 17.013C7.2835 17.013 4.66667 14.3962 4.66667 11.1797C4.66667 7.96319 7.2835 5.34635 10.5 5.34635C13.7165 5.34635 16.3333 7.96319 16.3333 11.1797C16.3333 14.3962 13.7165 17.013 10.5 17.013Z" fill="#F30051"/>
</svg>
