<svg width="42" height="42" viewBox="0 0 42 42" fill="none" xmlns="http://www.w3.org/2000/svg">
<g clip-path="url(#clip0_1444_4664)">
<path d="M12.345 31.5619C22.958 31.5619 31.5605 22.958 31.5605 12.345C31.5605 7.64235 29.8661 3.34042 27.0622 0C35.7253 2.78099 41.9987 10.8954 41.9987 20.4823C41.9987 32.366 32.366 41.9987 20.4823 41.9987C10.8954 41.9987 2.78099 35.7253 0 27.0622C3.34042 29.8674 7.6437 31.5619 12.345 31.5619Z" fill="#FFD93B"/>
<path d="M33.7854 3.60059C36.6632 7.25703 38.3926 11.8602 38.3926 16.8762C38.3926 28.76 28.76 38.3926 16.8762 38.3926C11.8602 38.3926 7.25703 36.6632 3.60059 33.7854C7.53809 38.7839 13.6313 42.0047 20.4883 42.0047C32.372 42.0047 42.0047 32.372 42.0047 20.4883C42.0047 13.6313 38.7839 7.53943 33.7854 3.60059Z" fill="#F4C534"/>
<path d="M10.775 8.40143L12.9911 12.8943L17.948 13.6138L14.3615 17.1102L15.2073 22.0469L10.775 19.7164L6.34124 22.0469L7.1871 17.1102L3.60059 13.6138L8.55743 12.8943L10.775 8.40143ZM23.276 6.96387L24.4244 9.29302L26.9943 9.66552L25.1345 11.4783L25.5742 14.036L23.276 12.8284L20.9778 14.036L21.4175 11.4783L19.5577 9.66552L22.1275 9.29302L23.276 6.96387Z" fill="#FFD83B"/>
</g>
<defs>
<clipPath id="clip0_1444_4664">
<rect width="42" height="42" fill="white"/>
</clipPath>
</defs>
</svg>
