<svg width="56" height="56" viewBox="0 0 56 56" fill="none" xmlns="http://www.w3.org/2000/svg">
<path fill-rule="evenodd" clip-rule="evenodd" d="M27.985 18.3691C36.2849 18.3691 42.9774 25.0616 42.9774 33.3615C42.9774 37.7575 41.0746 41.7599 38.0236 44.4828H17.9791C14.9281 41.7599 13.0254 37.7575 13.0254 33.3615C13.0254 25.0616 19.7178 18.3691 27.985 18.3691Z" fill="#F4C534"/>
<path fill-rule="evenodd" clip-rule="evenodd" d="M27.9838 18.3691C36.2837 18.3691 42.9762 25.0616 42.9762 33.3615C42.9762 37.7575 41.0734 41.7599 38.0225 44.4828H26.3435C21.4226 42.0551 18.0107 36.9374 18.0107 31.0651C18.0107 25.9802 20.5368 21.5185 24.4079 18.7956C25.5561 18.5004 26.77 18.3691 27.9838 18.3691Z" fill="#FFD93B"/>
<path d="M27.5571 6.32647C27.5571 5.80157 27.1306 5.34229 26.5729 5.34229C26.048 5.34229 25.5888 5.80157 25.5888 6.32647V15.2825C25.5888 15.8402 26.048 16.2667 26.5729 16.2667C27.1306 16.2667 27.5571 15.8402 27.5571 15.2825V6.32647ZM30.3784 10.8209C30.3784 10.2632 29.952 9.83672 29.3943 9.83672C28.8694 9.83672 28.4101 10.2632 28.4101 10.8209V15.2825C28.4101 15.8402 28.8694 16.2667 29.3943 16.2667C29.952 16.2667 30.3784 15.8402 30.3784 15.2825V10.8209ZM41.1388 9.7383C41.4013 9.27902 41.2373 8.6557 40.778 8.39325C40.3187 8.1308 39.6954 8.29483 39.4329 8.75412L34.9713 16.4964C34.676 16.9884 34.8401 17.579 35.2994 17.8414C35.7914 18.1367 36.382 17.9726 36.6444 17.4805L41.1388 9.7383ZM41.3357 15.0201C41.5981 14.5608 41.4341 13.9703 40.9748 13.675C40.5155 13.4126 39.8922 13.5766 39.6298 14.0359L37.3989 17.907C37.1037 18.3991 37.2677 18.9896 37.7598 19.2521C38.2191 19.5473 38.8096 19.3833 39.1049 18.8912L41.3357 15.0201ZM51.1775 19.4817C51.6368 19.1865 51.8008 18.5959 51.5384 18.1367C51.2759 17.6446 50.6526 17.5133 50.1933 17.7758L42.4511 22.2374C41.959 22.5327 41.795 23.1232 42.0902 23.5825C42.3527 24.0746 42.9432 24.2058 43.4353 23.9433L51.1775 19.4817ZM48.717 24.1402C49.1763 23.8777 49.3404 23.2872 49.0451 22.7951C48.7827 22.3358 48.1921 22.1718 47.7329 22.4343L43.8289 24.6979C43.3697 24.9603 43.2056 25.5508 43.5009 26.0101C43.7633 26.5022 44.3538 26.6662 44.8131 26.371L48.717 24.1402ZM55.0158 32.9322C55.5407 32.9322 56 32.4729 56 31.948C56 31.3903 55.5407 30.9638 55.0158 30.9638H46.0598C45.502 30.9638 45.0756 31.3903 45.0756 31.948C45.0756 32.4729 45.502 32.9322 46.0598 32.9322H55.0158ZM50.5214 35.7207C51.0791 35.7207 51.5056 35.2942 51.5056 34.7365C51.5056 34.2116 51.0791 33.7524 50.5214 33.7524H46.0598C45.502 33.7524 45.0756 34.2116 45.0756 34.7365C45.0756 35.2942 45.502 35.7207 46.0598 35.7207H50.5214ZM0.984183 33.7524C0.426479 33.7524 0 34.2116 0 34.7365C0 35.2942 0.426479 35.7207 0.984183 35.7207H9.94025C10.4979 35.7207 10.9244 35.2942 10.9244 34.7365C10.9244 34.2116 10.4979 33.7524 9.94025 33.7524H0.984183ZM5.44581 30.9638C4.92091 30.9638 4.46163 31.3903 4.46163 31.948C4.46163 32.4729 4.92091 32.9322 5.44581 32.9322H9.94025C10.4979 32.9322 10.9244 32.4729 10.9244 31.948C10.9244 31.3903 10.4979 30.9638 9.94025 30.9638H5.44581ZM4.39602 20.2034C3.93673 19.941 3.31342 20.105 3.05097 20.5643C2.78852 21.0236 2.95255 21.6469 3.41183 21.9094L11.1541 26.371C11.6462 26.6662 12.2367 26.5022 12.4991 26.0101C12.7616 25.5508 12.6303 24.9603 12.1383 24.6979L4.39602 20.2034ZM9.6778 20.0066C9.21851 19.7442 8.5952 19.9082 8.33275 20.3675C8.0703 20.8268 8.23433 21.4501 8.69361 21.7125L12.5647 23.9433C13.024 24.2058 13.6473 24.0746 13.9098 23.5825C14.1722 23.1232 14.0082 22.5327 13.5489 22.2374L9.6778 20.0066ZM14.1066 10.1648C13.8442 9.7055 13.2537 9.54146 12.7944 9.80391C12.3023 10.0664 12.1383 10.6897 12.4335 11.149L16.8951 18.8912C17.1576 19.3833 17.7809 19.5473 18.2402 19.2521C18.6995 18.9896 18.8635 18.3991 18.6011 17.907L14.1066 10.1648ZM18.7979 12.6252C18.5354 12.166 17.9121 12.0019 17.4528 12.2644C16.9936 12.5596 16.8295 13.1501 17.092 13.6094L19.3228 17.4805C19.618 17.9726 20.2086 18.1367 20.6678 17.8414C21.1599 17.579 21.2912 16.9884 21.0287 16.4964L18.7979 12.6252Z" fill="#F4C534"/>
<path d="M3.77422 43.8843C3.21652 43.8843 2.79004 44.3108 2.79004 44.8685C2.79004 45.3934 3.21652 45.8526 3.77422 45.8526H52.2288C52.7537 45.8526 53.213 45.3934 53.213 44.8685C53.213 44.3108 52.7537 43.8843 52.2288 43.8843H3.77422ZM14.5018 48.6412C13.9441 48.6412 13.5176 49.1004 13.5176 49.6253C13.5176 50.183 13.9441 50.6095 14.5018 50.6095H41.5012C42.0261 50.6095 42.4854 50.183 42.4854 49.6253C42.4854 49.1004 42.0261 48.6412 41.5012 48.6412H14.5018Z" fill="#DDB128"/>
</svg>
