<svg width="35" height="35" viewBox="0 0 35 35" fill="none" xmlns="http://www.w3.org/2000/svg">
<g clip-path="url(#clip0_1444_5185)">
<path d="M6.08485 30.3062C9.09711 33.2121 13.1949 35.0001 17.7109 35.0001C21.414 35.0001 24.8356 33.7974 27.6086 31.7625L34.4349 19.1505C34.4506 18.853 34.459 18.5535 34.459 18.252C34.459 9.00225 26.9606 1.50391 17.7109 1.50391C8.46123 1.50391 0.962892 9.00225 0.962892 18.252C0.962457 19.4888 1.09859 20.7219 1.36881 21.9289L6.08485 30.3062Z" fill="#41416B"/>
<path d="M8.26556 17.3498C9.52713 17.3498 10.7482 17.7159 11.7967 18.4085L11.8322 18.432L11.8745 18.4272C12.3765 18.37 12.8838 18.3772 13.384 18.4488C13.7919 18.5073 14.187 18.278 14.3238 17.9036C14.5788 17.2072 14.9182 16.5447 15.3344 15.931C11.8438 13.8929 9.48919 10.1094 9.47258 5.81196C9.46582 4.06264 9.84138 2.40185 10.5201 0.907923C10.7749 0.347103 10.1646 -0.213922 9.62407 0.0815267C5.9436 2.09362 3.45682 6.0158 3.49756 10.5154C3.52224 13.2374 4.48481 15.7486 6.0771 17.7375C6.77829 17.4812 7.51901 17.35 8.26556 17.3498Z" fill="#FFE400"/>
<path d="M7.83093 13.9731C5.90751 9.28709 6.8672 4.14817 9.87303 0.506667C10.0268 0.320388 10.2329 0.239451 10.4348 0.242048C10.2528 0.0197435 9.92745 -0.0842995 9.62407 0.081472C5.9436 2.09356 3.45682 6.01575 3.49756 10.5154C3.52224 13.2374 4.48481 15.7485 6.0771 17.7374C6.77832 17.4811 7.51906 17.3499 8.26563 17.3497C8.87732 17.3495 9.4859 17.4367 10.0729 17.6087C9.13193 16.5275 8.37456 15.2993 7.83093 13.9731Z" fill="#FDCA00"/>
<path d="M25.4651 7.2394C25.315 7.2394 25.1711 7.17977 25.0649 7.07364C24.9588 6.9675 24.8992 6.82355 24.8992 6.67345V5.92662C24.9015 5.77805 24.9621 5.63634 25.068 5.53209C25.1739 5.42784 25.3165 5.3694 25.4651 5.3694C25.6137 5.3694 25.7563 5.42784 25.8622 5.53209C25.9681 5.63634 26.0288 5.77805 26.0311 5.92662V6.67345C26.0311 6.74777 26.0164 6.82137 25.988 6.89004C25.9596 6.95871 25.9179 7.0211 25.8653 7.07366C25.8128 7.12621 25.7504 7.1679 25.6817 7.19634C25.613 7.22477 25.5394 7.23941 25.4651 7.2394ZM25.4651 4.12146C25.315 4.12146 25.1711 4.06183 25.0649 3.9557C24.9588 3.84956 24.8992 3.70561 24.8992 3.55551V2.80868C24.9015 2.66011 24.9621 2.5184 25.068 2.41415C25.1739 2.3099 25.3165 2.25146 25.4651 2.25146C25.6137 2.25146 25.7563 2.3099 25.8622 2.41415C25.9681 2.5184 26.0288 2.66011 26.0311 2.80868V3.55551C26.0311 3.62983 26.0164 3.70343 25.988 3.7721C25.9596 3.84077 25.9179 3.90316 25.8653 3.95572C25.8128 4.00827 25.7504 4.04996 25.6817 4.0784C25.613 4.10683 25.5394 4.12147 25.4651 4.12146ZM27.3975 5.30701H26.6507C26.5021 5.30471 26.3604 5.24406 26.2561 5.13818C26.1519 5.03229 26.0935 4.88966 26.0935 4.74107C26.0935 4.59247 26.1519 4.44984 26.2561 4.34396C26.3604 4.23807 26.5021 4.17743 26.6507 4.17512H27.3975C27.5461 4.17743 27.6878 4.23807 27.792 4.34396C27.8963 4.44984 27.9547 4.59247 27.9547 4.74107C27.9547 4.88966 27.8963 5.03229 27.792 5.13818C27.6878 5.24406 27.5461 5.30471 27.3975 5.30701ZM24.2796 5.30701H23.5328C23.3842 5.30471 23.2425 5.24406 23.1383 5.13818C23.034 5.03229 22.9756 4.88966 22.9756 4.74107C22.9756 4.59247 23.034 4.44984 23.1383 4.34396C23.2425 4.23807 23.3842 4.17743 23.5328 4.17512H24.2796C24.4281 4.17743 24.5698 4.23807 24.6741 4.34396C24.7783 4.44984 24.8368 4.59247 24.8368 4.74107C24.8368 4.88966 24.7783 5.03229 24.6741 5.13818C24.5698 5.24406 24.4281 5.30471 24.2796 5.30701Z" fill="#FFE400"/>
<path d="M29.1833 10.206C28.774 10.206 28.4287 9.87356 28.4287 9.45137C28.4287 8.96801 28.8734 8.61889 29.3304 8.71111C29.5015 8.7455 29.6555 8.83799 29.7662 8.9729C29.8769 9.10781 29.9376 9.27685 29.9379 9.45137C29.9379 9.86946 29.5948 10.206 29.1833 10.206Z" fill="#9292DD"/>
<path d="M1.28046 16.3456C0.88001 16.3456 0.541016 16.0209 0.541016 15.6061C0.541016 15.1325 0.976533 14.7905 1.4247 14.8807C1.59242 14.9143 1.74334 15.0049 1.85184 15.1371C1.96035 15.2694 2.01975 15.4351 2.01997 15.6061C2.0199 16.0194 1.6807 16.3456 1.28046 16.3456Z" fill="#FFE400"/>
<path d="M19.3695 4.55814C19.2555 4.54071 19.1595 4.46511 19.1197 4.35683C18.5877 2.90754 17.1955 1.87354 15.5618 1.87354C13.9263 1.87354 12.5337 2.91014 12.0031 4.36188C11.9536 4.49737 11.8133 4.57448 11.6704 4.55397C11.5542 4.53735 11.4369 4.52901 11.3195 4.52902C10.2949 4.52902 9.41715 5.15533 9.04678 6.04578C9.00543 6.14518 8.91827 6.21825 8.81217 6.23623C8.04559 6.36632 7.46235 7.03494 7.46584 7.83939C7.4698 8.73647 8.2223 9.45131 9.11938 9.45131H18.9494C20.3074 9.45131 21.4434 8.37048 21.4555 7.01252C21.4665 5.77084 20.5578 4.73991 19.3695 4.55814Z" fill="#7070AB"/>
<path d="M12.1134 7.65524C12.2114 7.6108 12.2771 7.51797 12.2918 7.41133C12.4233 6.45594 13.1127 5.62681 14.1035 5.36595C14.2171 5.33603 14.3326 5.31426 14.4493 5.3008C14.5926 5.28426 14.7087 5.17399 14.7221 5.03037C14.8387 3.78001 15.5752 2.64989 16.6956 2.04662C16.3287 1.93168 15.9464 1.87332 15.5618 1.87354C13.9263 1.87354 12.5338 2.91014 12.0032 4.36189C11.9536 4.49737 11.8134 4.57448 11.6705 4.55398C11.5542 4.53732 11.437 4.52896 11.3195 4.52896C10.295 4.52896 9.41722 5.15526 9.04685 6.04571C9.00549 6.14511 8.91834 6.21818 8.81217 6.23616C8.04559 6.36625 7.46235 7.03487 7.46584 7.83933C7.4698 8.73641 8.2223 9.45124 9.11938 9.45124H11.1982C11.0462 8.70592 11.4346 7.96285 12.1134 7.65524ZM29.7945 29.8478C32.4896 27.04 34.2155 23.2952 34.4347 19.1506C33.7585 18.7378 33.007 18.4634 32.2238 18.3434C31.945 18.3007 31.7102 18.1159 31.613 17.8511C30.3124 14.3078 26.9087 11.7798 22.9144 11.7798C18.916 11.7798 15.5114 14.3141 14.2141 17.8635C14.093 18.1947 13.7499 18.3831 13.4008 18.3331C12.8248 18.2505 12.2398 18.2516 11.6641 18.3364C12.8489 19.0784 13.7906 20.2011 14.2902 21.568C14.3932 21.8499 14.6903 22.0226 14.9966 21.9786C15.1914 21.9507 15.3879 21.9368 15.5847 21.9367C17.2557 21.9367 18.7504 22.9342 19.3926 24.4781C19.4817 24.6923 19.6676 24.8426 19.8899 24.8804C20.5558 24.9934 21.1259 25.3436 21.522 25.8359C22.1853 25.0377 23.183 24.5479 24.2564 24.5479C25.7402 24.5479 27.0805 25.4834 27.5917 26.8758C27.6437 27.0176 27.7704 27.1202 27.9224 27.1434H27.9225C29.028 27.3125 29.8541 28.2845 29.8441 29.4045C29.8426 29.5536 29.826 29.7021 29.7945 29.8478Z" fill="#616196"/>
<path d="M18.4041 20.806C18.5839 20.7524 18.7192 20.6074 18.7697 20.4268C19.2219 18.8079 20.6078 17.5385 22.3802 17.3216C22.5834 17.2967 22.788 17.2863 22.9926 17.2905C23.2441 17.2957 23.4705 17.1327 23.5275 16.8877C23.95 15.0719 25.1291 13.5132 26.7528 12.6102C25.5833 12.0771 24.2835 11.7798 22.9144 11.7798C18.9159 11.7798 15.5113 14.3141 14.2141 17.8635C14.0929 18.1948 13.7498 18.3832 13.4007 18.3331C12.8247 18.2506 12.2398 18.2517 11.6641 18.3364C12.8489 19.0784 13.7905 20.2011 14.2902 21.568C14.3931 21.8499 14.6903 22.0226 14.9965 21.9786C15.1913 21.9508 15.3878 21.9368 15.5846 21.9368C15.9843 21.9367 16.3819 21.9945 16.765 22.1084C17.1174 21.4936 17.6964 21.0171 18.4041 20.806Z" fill="#515181"/>
<path d="M19.9099 24.7595C19.7268 24.7284 19.5764 24.6023 19.5051 24.4309C18.866 22.8946 17.3517 21.8142 15.5842 21.8142C15.3786 21.8142 15.1765 21.8289 14.9787 21.8573C14.7324 21.8926 14.4902 21.7597 14.4048 21.5259C13.4893 19.0213 11.0869 17.2329 8.26535 17.2329C5.44676 17.2329 3.04488 19.0168 2.12716 21.5172C2.05859 21.704 1.89289 21.8345 1.69608 21.8646C1.58597 21.8817 1.47658 21.9032 1.36816 21.929C2.09646 25.1798 3.76949 28.0732 6.08435 30.3064H16.5438C16.5413 30.2727 16.5383 30.239 16.5381 30.2048C16.535 29.4905 17.043 28.8855 17.7461 28.7662C17.886 28.7424 18.0027 28.6481 18.0587 28.5138C18.4117 27.665 19.2336 27.1164 20.1525 27.1164C20.2604 27.1164 20.3693 27.1242 20.4759 27.1395C20.6679 27.1672 20.8551 27.0582 20.92 26.8805C21.0732 26.4623 21.304 26.0768 21.6004 25.7443C21.1824 25.2342 20.588 24.8745 19.9099 24.7595Z" fill="#8080C1"/>
<path d="M27.939 27.0314C27.8287 27.0145 27.7358 26.9414 27.6973 26.8366C27.1828 25.4348 25.8361 24.4346 24.2559 24.4346C22.6739 24.4346 21.3269 25.4373 20.8137 26.8415C20.7658 26.9725 20.63 27.0471 20.4919 27.0273C20.3794 27.0112 20.266 27.0031 20.1524 27.0031C19.1614 27.0031 18.3123 27.6089 17.954 28.4702C17.914 28.5663 17.8297 28.637 17.7271 28.6545C16.9856 28.7803 16.4214 29.4271 16.4248 30.2052C16.4286 31.0729 17.1565 31.7644 18.0243 31.7644H27.5326C27.5578 31.7644 27.5828 31.7633 27.6079 31.7626C28.4456 31.1477 29.2247 30.4567 29.935 29.6982C29.9483 29.6012 29.9556 29.5034 29.9567 29.4055C29.9674 28.2044 29.0884 27.2072 27.939 27.0314Z" fill="#7070AB"/>
<path d="M21.2638 30.4293C21.3549 30.3789 21.4111 30.2843 21.417 30.1804C21.4704 29.2491 22.0715 28.3966 23.0069 28.0691C23.1141 28.0315 23.2238 28.0016 23.3353 27.9797C23.4722 27.9528 23.5757 27.8375 23.5775 27.698C23.5946 26.4424 24.2604 25.2599 25.3577 24.6036C25.0012 24.4914 24.6296 24.4343 24.2559 24.4346C22.6739 24.4346 21.3269 25.4373 20.8137 26.8415C20.7658 26.9726 20.63 27.0471 20.4919 27.0273C20.3794 27.0112 20.266 27.0031 20.1524 27.0031C19.1614 27.0031 18.3123 27.6089 17.954 28.4702C17.914 28.5664 17.8297 28.6371 17.7271 28.6545C16.9856 28.7803 16.4214 29.4271 16.4248 30.2052C16.4286 31.073 17.1565 31.7644 18.0243 31.7644H20.4571C20.4694 31.2157 20.7715 30.7013 21.2638 30.4293Z" fill="#616196"/>
<path d="M4.1331 27.2401C4.11539 25.2518 5.57056 23.6009 7.47341 23.3099C7.656 23.282 7.8098 23.1609 7.87352 22.9874C8.63996 20.8993 10.5218 19.3503 12.7969 19.0605C11.6222 17.9289 10.0253 17.2329 8.26528 17.2329C5.44669 17.2329 3.04481 19.0168 2.12709 21.5172C2.05853 21.704 1.89282 21.8345 1.69602 21.8646C1.58592 21.8817 1.47655 21.9032 1.36816 21.929C1.89016 24.2591 2.89771 26.4056 4.27897 28.2569C4.1852 27.926 4.13613 27.584 4.1331 27.2401Z" fill="#7070AB"/>
</g>
<defs>
<clipPath id="clip0_1444_5185">
<rect width="35" height="35" fill="white"/>
</clipPath>
</defs>
</svg>
