<svg width="61" height="44" viewBox="0 0 61 44" fill="none" xmlns="http://www.w3.org/2000/svg">
<g clip-path="url(#clip0_1444_4648)">
<path d="M44.3918 4.57099C44.6323 4.57102 44.863 4.47518 45.0331 4.30455C45.2032 4.13391 45.2988 3.90246 45.2988 3.6611C45.2988 1.70705 43.7146 0.117188 41.7675 0.117188C40.7268 0.117188 39.79 0.571535 39.1431 1.29275C38.4961 0.571655 37.5593 0.117188 36.5188 0.117188C34.5715 0.117188 32.9873 1.70705 32.9873 3.6611C32.9873 3.78062 33.0108 3.89897 33.0564 4.00938C33.1019 4.1198 33.1688 4.22012 33.253 4.30462C33.3372 4.38911 33.4372 4.45613 33.5472 4.50183C33.6573 4.54754 33.7752 4.57104 33.8943 4.57099C34.0134 4.57101 34.1313 4.54748 34.2413 4.50176C34.3513 4.45604 34.4513 4.38902 34.5355 4.30453C34.6197 4.22003 34.6864 4.11972 34.732 4.00932C34.7776 3.89892 34.801 3.78059 34.801 3.6611C34.801 2.71068 35.5716 1.93733 36.5188 1.93733C37.2139 1.93733 37.813 2.35533 38.0828 2.95315C37.6859 3.04976 37.3904 3.40798 37.3904 3.83674C37.3904 3.95626 37.4138 4.07461 37.4594 4.18503C37.505 4.29544 37.5718 4.39576 37.6561 4.48026C37.7403 4.56475 37.8403 4.63177 37.9503 4.67747C38.0604 4.72318 38.1783 4.74668 38.2974 4.74663H39.9887C40.2292 4.74667 40.4599 4.65082 40.63 4.48019C40.8001 4.30955 40.8957 4.0781 40.8957 3.83674C40.8957 3.40846 40.6003 3.05024 40.2032 2.95315C40.4731 2.35533 41.0721 1.93733 41.7675 1.93733C42.7144 1.93733 43.4847 2.71068 43.4847 3.66122C43.4847 4.16375 43.8909 4.57099 44.3918 4.57099Z" fill="#7C3C2F"/>
<path d="M8.78013 8.28125C7.73955 8.28125 6.80275 8.73572 6.15546 9.45682C5.50888 8.73584 4.57208 8.28125 3.53151 8.28125C1.58427 8.28125 5.95751e-05 9.87063 5.95751e-05 11.8248C-0.00131547 11.9452 0.021125 12.0647 0.0660811 12.1763C0.111037 12.2879 0.177616 12.3895 0.26196 12.4751C0.346304 12.5607 0.446738 12.6287 0.557444 12.6751C0.66815 12.7215 0.786928 12.7454 0.906898 12.7454C1.02687 12.7454 1.14565 12.7215 1.25635 12.6751C1.36706 12.6287 1.46749 12.5607 1.55184 12.4751C1.63618 12.3895 1.70276 12.2879 1.74772 12.1763C1.79267 12.0647 1.81511 11.9452 1.81374 11.8248C1.81374 10.8743 2.58398 10.1014 3.53103 10.1014C4.22681 10.1014 4.82573 10.5189 5.09523 11.1172C4.69825 11.2139 4.40314 11.5722 4.40314 12.0004C4.40312 12.1199 4.42656 12.2383 4.47212 12.3487C4.51768 12.4591 4.58447 12.5594 4.66866 12.6439C4.75285 12.7284 4.85281 12.7954 4.96282 12.8411C5.07283 12.8868 5.19073 12.9104 5.3098 12.9103H7.001C7.12007 12.9104 7.23798 12.8868 7.34798 12.8411C7.45799 12.7954 7.55795 12.7284 7.64214 12.6439C7.72634 12.5594 7.79312 12.4591 7.83868 12.3487C7.88424 12.2383 7.90768 12.1199 7.90766 12.0004C7.90766 11.5722 7.61255 11.2139 7.21545 11.1169C7.48495 10.519 8.08399 10.1009 8.77977 10.1009C9.72682 10.1009 10.4969 10.8744 10.4969 11.8248C10.4997 12.0644 10.5964 12.2932 10.7662 12.4616C10.936 12.63 11.1651 12.7245 11.4038 12.7245C11.6425 12.7245 11.8716 12.63 12.0414 12.4616C12.2111 12.2932 12.3079 12.0644 12.3106 11.8248C12.3111 9.87063 10.7269 8.28125 8.78013 8.28125Z" fill="#915040"/>
<path d="M38.7124 36.2423C38.7124 40.4682 35.3262 43.9015 31.1274 43.9584C32.3862 42.5834 33.1538 40.7517 33.1538 38.7391C33.1538 34.5081 29.7615 31.0738 25.5566 31.0224C23.9385 26.691 19.7756 23.6061 14.8926 23.6061C14.3159 23.6061 13.7497 23.6501 13.1953 23.7329C15.1648 22.0939 17.6933 21.1094 20.4517 21.1094C25.3341 21.1094 29.4971 24.1928 31.1153 28.5256C35.3201 28.5771 38.7124 32.0098 38.7124 36.2424V36.2423Z" fill="#F6CB43"/>
<path d="M9.08715 31.8344C9.44839 25.8505 14.3972 21.1094 20.4502 21.1094C25.3322 21.1094 29.4961 24.1934 31.1138 28.5258C35.3182 28.5767 38.7109 32.011 38.7109 36.2419C38.7109 40.5048 35.2675 43.9604 31.0198 43.9604H9.29851C5.96019 43.9604 3.25391 41.2445 3.25391 37.8949C3.25391 34.6157 5.84712 31.946 9.08715 31.8344Z" fill="#F8E98E"/>
<path d="M48.6252 26.0629C48.2156 26.0629 47.8438 25.7826 47.7442 25.3651C47.5962 24.7485 47.3958 24.1459 47.1452 23.5637C47.0978 23.4541 47.0725 23.3361 47.0705 23.2166C47.0686 23.0971 47.0902 22.9784 47.134 22.8673C47.1778 22.7561 47.243 22.6547 47.3259 22.5689C47.4088 22.4831 47.5077 22.4145 47.617 22.3671C47.7263 22.3195 47.8438 22.2941 47.9629 22.2922C48.082 22.2902 48.2003 22.3119 48.311 22.3558C48.4218 22.3998 48.5228 22.4652 48.6083 22.5484C48.6939 22.6316 48.7622 22.7309 48.8095 22.8406C49.1019 23.519 49.3355 24.2214 49.5077 24.9401C49.5396 25.074 49.541 25.2134 49.5115 25.3478C49.4821 25.4822 49.4227 25.6082 49.3377 25.7163C49.2528 25.8243 49.1445 25.9116 49.0211 25.9717C48.8977 26.0317 48.7623 26.0629 48.6252 26.0629ZM45.6164 20.5516C45.3781 20.5516 45.1403 20.4578 44.9621 20.2714C42.8426 18.0558 39.9958 16.8353 36.9461 16.8353C36.4453 16.8353 36.0391 16.428 36.0391 15.9254C36.0391 15.4227 36.4453 15.0156 36.9461 15.0156C40.4948 15.0156 43.8061 16.4346 46.2707 19.0113C46.3532 19.0975 46.4179 19.1992 46.4612 19.3105C46.5045 19.4219 46.5255 19.5407 46.5231 19.6602C46.5206 19.7797 46.4947 19.8975 46.4469 20.0069C46.399 20.1164 46.3301 20.2153 46.2442 20.298C46.0754 20.4608 45.8504 20.5517 45.6163 20.5516H45.6164Z" fill="#FAB03C"/>
<path d="M61.0007 35.4778C61.0007 40.1638 57.2147 43.9632 52.5454 43.9632H51.8906C52.5035 42.7891 52.8507 41.4514 52.8507 40.0343C52.8507 35.4479 49.2238 31.7134 44.6914 31.5564C44.1865 23.1874 37.2638 16.5547 28.7963 16.5547C27.678 16.5542 26.5627 16.6715 25.4688 16.9046C28.3654 13.8818 32.4367 12 36.9468 12C45.4137 12 52.3364 18.6313 52.8413 27.0018C57.374 27.1567 61.0007 30.8918 61.0007 35.4777V35.4778Z" fill="#FD8F3E"/>
<path d="M35.6295 12.805C41.35 18.5461 41.35 27.853 35.6295 33.5941C30.6125 38.6293 22.8604 39.2486 17.1719 35.4501C17.9839 34.908 18.7402 34.2863 19.4296 33.5941C25.1497 27.853 25.1497 18.5461 19.4296 12.8051C18.7402 12.1128 17.9839 11.4911 17.1719 10.949C22.8613 7.15137 30.6133 7.77072 35.6294 12.8051L35.6295 12.805Z" fill="#FE672D"/>
<path d="M52.842 27.0018C52.337 18.6318 45.4148 12 36.9479 12C30.1192 12 24.2952 16.3143 22.032 22.3742C16.1519 22.4452 11.4062 27.2489 11.4062 33.1669C11.4062 39.1297 16.2225 43.9636 22.1643 43.9636H52.5463C57.2162 43.9636 61.0012 40.1647 61.0012 35.4788C61.0012 30.8923 57.3744 27.1578 52.8419 27.0018H52.842Z" fill="#FAB03C"/>
<path d="M52.2641 6.1875C51.2234 6.1875 50.2866 6.64197 49.6397 7.36307C48.9927 6.64209 48.0559 6.1875 47.0153 6.1875C45.0681 6.1875 43.4844 7.77736 43.4844 9.73106C43.4843 9.85057 43.5077 9.96893 43.5533 10.0794C43.5988 10.1898 43.6656 10.2901 43.7498 10.3747C43.834 10.4592 43.934 10.5263 44.044 10.572C44.154 10.6178 44.2719 10.6413 44.391 10.6413C44.6316 10.6413 44.8623 10.5454 45.0324 10.3747C45.2025 10.204 45.2981 9.97247 45.2981 9.73106C45.2981 8.78111 46.0683 8.00764 47.0153 8.00764C47.7111 8.00764 48.31 8.42516 48.58 9.02347C48.3648 9.0763 48.1764 9.20637 48.0502 9.38913C47.9241 9.57188 47.869 9.79466 47.8954 10.0154C47.9217 10.2361 48.0277 10.4395 48.1933 10.5872C48.3589 10.7349 48.5726 10.8166 48.7941 10.8169H50.4853C50.7258 10.817 50.9565 10.7211 51.1266 10.5505C51.2967 10.3799 51.3923 10.1484 51.3923 9.90705C51.3923 9.47889 51.0969 9.1202 50.6999 9.02347C50.9697 8.42564 51.5688 8.00764 52.2641 8.00764C53.2111 8.00764 53.9819 8.78111 53.9819 9.73153C53.9818 9.85102 54.0053 9.96933 54.0508 10.0797C54.0964 10.1901 54.1632 10.2904 54.2473 10.3749C54.3315 10.4594 54.4315 10.5264 54.5415 10.5722C54.6514 10.6179 54.7693 10.6414 54.8884 10.6414C55.0075 10.6415 55.1254 10.618 55.2355 10.5723C55.3455 10.5266 55.4455 10.4595 55.5297 10.3751C55.614 10.2906 55.6808 10.1902 55.7264 10.0798C55.772 9.9694 55.7954 9.85105 55.7954 9.73153C55.7954 7.77736 54.2112 6.1875 52.2641 6.1875Z" fill="#BE7560"/>
<path d="M39.9206 23.1999C39.9206 31.3187 33.3628 37.8999 25.2727 37.8999C17.1827 37.8999 10.625 31.3187 10.625 23.1999C10.625 15.0812 17.1829 8.5 25.2729 8.5C33.3629 8.5 39.9207 15.0812 39.9207 23.1999H39.9206Z" fill="#FD8F3E"/>
</g>
<defs>
<clipPath id="clip0_1444_4648">
<rect width="61" height="44" fill="white"/>
</clipPath>
</defs>
</svg>
