<svg width="55" height="55" viewBox="0 0 55 55" fill="none" xmlns="http://www.w3.org/2000/svg">
<path d="M44.6875 27.5001C44.682 32.0568 42.8695 36.4253 39.6474 39.6474C36.4253 42.8695 32.0567 44.6821 27.5 44.6876C25.3184 44.6805 23.1575 44.2647 21.1292 43.4615C20.8526 43.3454 20.6321 43.1261 20.5145 42.8502C20.3968 42.5743 20.3913 42.2634 20.499 41.9834C20.5835 41.7482 20.6261 41.5 20.625 41.2501C20.6232 40.6428 20.3812 40.061 19.9518 39.6316C19.5224 39.2022 18.9406 38.9602 18.3333 38.9584H16.0417C15.7381 38.9575 15.4471 38.8365 15.2324 38.6218C15.0178 38.4071 14.8967 38.1162 14.8958 37.8126C14.8971 36.8657 14.6046 35.9417 14.0587 35.168C13.5129 34.3943 12.7404 33.809 11.8479 33.4928C11.6794 33.4365 11.5268 33.3404 11.4032 33.2128C11.2796 33.0852 11.1884 32.9297 11.1375 32.7594C10.7844 31.6558 10.5425 30.5196 10.4156 29.3678C10.347 28.7476 10.3126 28.124 10.3125 27.5001C10.318 22.9433 12.1305 18.5748 15.3526 15.3527C18.5747 12.1306 22.9433 10.318 27.5 10.3126C31.0286 10.3037 34.4724 11.3929 37.3542 13.4292C37.6177 13.6011 37.8698 13.7959 38.1219 13.9907C38.1511 14.0113 38.1748 14.0388 38.1906 14.0709C38.3529 14.2201 38.4676 14.4137 38.5206 14.6276C38.5736 14.8416 38.5624 15.0664 38.4885 15.274C38.4397 15.4347 38.3527 15.5811 38.235 15.7008C38.1172 15.8205 37.9723 15.91 37.8125 15.9615C37.6861 16.0166 37.5493 16.044 37.4115 16.0417H36.6667C36.0594 16.0435 35.4776 16.2856 35.0482 16.7149C34.6188 17.1443 34.3768 17.7262 34.375 18.3334C34.3752 18.634 34.4351 18.9316 34.5511 19.209C34.6672 19.4863 34.8371 19.7378 35.051 19.949C35.4295 20.3389 35.9408 20.572 36.4833 20.6021C36.5425 20.621 36.6047 20.6288 36.6667 20.6251H42.476C42.7071 20.6248 42.9327 20.6948 43.1231 20.8258C43.3134 20.9567 43.4594 21.1425 43.5417 21.3584C43.8741 22.2137 44.1347 23.0952 44.3208 23.9938C44.5641 25.1467 44.687 26.3218 44.6875 27.5001Z" fill="#FF8A00"/>
<path d="M38.1906 14.0709C38.0875 14.7011 37.95 15.3313 37.8125 15.9615C37.453 17.5311 37.0093 19.0802 36.4833 20.6021C33.4739 29.3681 27.8765 37.0151 20.4302 42.5334C20.4076 42.3472 20.4312 42.1583 20.499 41.9834C20.5835 41.7482 20.6261 41.5 20.625 41.25C20.6232 40.6428 20.3812 40.061 19.9518 39.6316C19.5224 39.2022 18.9406 38.9602 18.3333 38.9584H16.0417C15.7381 38.9575 15.4471 38.8365 15.2324 38.6218C15.0178 38.4071 14.8967 38.1162 14.8958 37.8125C14.8971 36.8657 14.6046 35.9417 14.0587 35.168C13.5129 34.3943 12.7404 33.809 11.8479 33.4928C11.6794 33.4364 11.5268 33.3404 11.4032 33.2128C11.2796 33.0852 11.1884 32.9297 11.1375 32.7594C10.7844 31.6558 10.5425 30.5196 10.4156 29.3678C10.347 28.7476 10.3126 28.124 10.3125 27.5001C10.318 22.9433 12.1305 18.5748 15.3526 15.3527C18.5747 12.1306 22.9433 10.318 27.5 10.3126C31.0286 10.3037 34.4724 11.3929 37.3542 13.4292C37.6177 13.6011 37.8698 13.7959 38.1219 13.9907C38.1511 14.0113 38.1748 14.0388 38.1906 14.0709Z" fill="#FFA53C"/>
<path d="M24.4062 44.401C23.2839 44.2037 22.1855 43.8888 21.1292 43.4615C20.852 43.346 20.631 43.1268 20.5132 42.8507C20.3955 42.5745 20.3904 42.2632 20.499 41.9833C20.5835 41.7481 20.6261 41.4999 20.625 41.25C20.6232 40.6428 20.3812 40.0609 19.9518 39.6316C19.5224 39.2022 18.9406 38.9601 18.3333 38.9583H16.0417C15.7381 38.9574 15.4471 38.8364 15.2324 38.6217C15.0178 38.407 14.8967 38.1161 14.8958 37.8125C14.8971 36.8656 14.6046 35.9417 14.0587 35.168C13.5129 34.3943 12.7404 33.809 11.8479 33.4927C11.6794 33.4364 11.5268 33.3404 11.4032 33.2127C11.2796 33.0851 11.1884 32.9296 11.1375 32.7594C10.7844 31.6557 10.5425 30.5195 10.4156 29.3677C12.2601 29.5253 13.9998 30.292 15.3607 31.5471C16.7215 32.8022 17.6262 34.4742 17.9323 36.3H19.2156C20.6516 36.275 22.0444 36.7917 23.1166 37.7472C24.1889 38.7027 24.862 40.0269 25.0021 41.4563C25.0737 42.4737 24.8678 43.4915 24.4062 44.401ZM44.3208 23.9938H35.9219C35.2016 23.9926 34.4892 23.8432 33.8292 23.5548C33.1692 23.2665 32.5756 22.8452 32.0854 22.3175C31.5952 21.7897 31.219 21.1666 30.9801 20.4871C30.7412 19.8076 30.6448 19.0861 30.6969 18.3677C30.8263 17.0206 31.4581 15.7716 32.4666 14.8693C33.4752 13.9669 34.7865 13.4773 36.1396 13.4979H37.3427C37.3427 13.475 37.3542 13.4521 37.3542 13.4292C37.6177 13.601 37.8698 13.7958 38.1219 13.9906C38.3075 14.1409 38.4423 14.3448 38.5079 14.5744C38.5735 14.804 38.5667 15.0483 38.4885 15.274C38.4131 15.4993 38.2682 15.6949 38.0747 15.8328C37.8812 15.9707 37.6491 16.0438 37.4115 16.0417H36.6667C36.0594 16.0435 35.4776 16.2855 35.0482 16.7149C34.6188 17.1443 34.3768 17.7261 34.375 18.3333C34.3795 18.9397 34.6224 19.52 35.0512 19.9488C35.48 20.3776 36.0603 20.6205 36.6667 20.625H42.476C42.7071 20.6247 42.9327 20.6947 43.1231 20.8257C43.3134 20.9567 43.4594 21.1424 43.5417 21.3583C43.8741 22.2136 44.1347 23.0952 44.3208 23.9938ZM27.5 8.02083C27.1961 8.02083 26.9047 7.90011 26.6898 7.68523C26.4749 7.47034 26.3542 7.17889 26.3542 6.875V4.58333C26.3542 4.27944 26.4749 3.98799 26.6898 3.77311C26.9047 3.55822 27.1961 3.4375 27.5 3.4375C27.8039 3.4375 28.0953 3.55822 28.3102 3.77311C28.5251 3.98799 28.6458 4.27944 28.6458 4.58333V6.875C28.6458 7.17889 28.5251 7.47034 28.3102 7.68523C28.0953 7.90011 27.8039 8.02083 27.5 8.02083ZM50.4167 28.6458H48.125C47.8211 28.6458 47.5297 28.5251 47.3148 28.3102C47.0999 28.0953 46.9792 27.8039 46.9792 27.5C46.9792 27.1961 47.0999 26.9047 47.3148 26.6898C47.5297 26.4749 47.8211 26.3542 48.125 26.3542H50.4167C50.7206 26.3542 51.012 26.4749 51.2269 26.6898C51.4418 26.9047 51.5625 27.1961 51.5625 27.5C51.5625 27.8039 51.4418 28.0953 51.2269 28.3102C51.012 28.5251 50.7206 28.6458 50.4167 28.6458ZM43.7044 44.8502C43.5539 44.8504 43.4049 44.8208 43.2658 44.7632C43.1268 44.7056 43.0005 44.621 42.8943 44.5145L41.2741 42.8943C41.1646 42.7886 41.0773 42.6621 41.0173 42.5223C40.9572 42.3825 40.9256 42.2322 40.9243 42.08C40.923 41.9279 40.952 41.777 41.0096 41.6362C41.0672 41.4954 41.1523 41.3674 41.2599 41.2599C41.3674 41.1523 41.4954 41.0672 41.6362 41.0096C41.777 40.952 41.9279 40.923 42.08 40.9243C42.2322 40.9256 42.3825 40.9572 42.5223 41.0173C42.6621 41.0773 42.7886 41.1646 42.8943 41.2741L44.5145 42.8943C44.6747 43.0545 44.7838 43.2587 44.828 43.4809C44.8722 43.7031 44.8495 43.9335 44.7628 44.1428C44.6761 44.3522 44.5292 44.5311 44.3408 44.657C44.1525 44.7829 43.931 44.8502 43.7044 44.8502ZM27.5 51.5625C27.1961 51.5625 26.9047 51.4418 26.6898 51.2269C26.4749 51.012 26.3542 50.7206 26.3542 50.4167V48.125C26.3542 47.8211 26.4749 47.5297 26.6898 47.3148C26.9047 47.0999 27.1961 46.9792 27.5 46.9792C27.8039 46.9792 28.0953 47.0999 28.3102 47.3148C28.5251 47.5297 28.6458 47.8211 28.6458 48.125V50.4167C28.6458 50.7206 28.5251 51.012 28.3102 51.2269C28.0953 51.4418 27.8039 51.5625 27.5 51.5625ZM6.875 28.6458H4.58333C4.27944 28.6458 3.98799 28.5251 3.77311 28.3102C3.55822 28.0953 3.4375 27.8039 3.4375 27.5C3.4375 27.1961 3.55822 26.9047 3.77311 26.6898C3.98799 26.4749 4.27944 26.3542 4.58333 26.3542H6.875C7.17889 26.3542 7.47034 26.4749 7.68523 26.6898C7.90011 26.9047 8.02083 27.1961 8.02083 27.5C8.02083 27.8039 7.90011 28.0953 7.68523 28.3102C7.47034 28.5251 7.17889 28.6458 6.875 28.6458ZM12.9158 14.0617C12.7653 14.0618 12.6163 14.0322 12.4773 13.9746C12.3383 13.917 12.212 13.8325 12.1057 13.7259L10.4844 12.1057C10.2757 11.8896 10.1602 11.6002 10.1628 11.2997C10.1654 10.9993 10.2859 10.7119 10.4983 10.4995C10.7108 10.287 10.9982 10.1665 11.2986 10.1639C11.599 10.1613 11.8885 10.2768 12.1046 10.4855L13.7248 12.1057C13.885 12.266 13.9941 12.4701 14.0383 12.6924C14.0825 12.9146 14.0598 13.1449 13.9731 13.3543C13.8864 13.5636 13.7395 13.7426 13.5512 13.8685C13.3628 13.9944 13.1413 14.0616 12.9147 14.0617H12.9158Z" fill="#FFC239"/>
<path d="M22.9056 40.8949C22.952 41.5233 22.8682 42.1546 22.6593 42.7491C22.4505 43.3436 22.1212 43.8887 21.6921 44.3501C21.2629 44.8115 20.7432 45.1794 20.1653 45.4307C19.5874 45.682 18.9639 45.8113 18.3338 45.8105H5.72961C5.12238 45.8087 4.54053 45.5667 4.11116 45.1373C3.68178 44.7079 3.43975 44.1261 3.43794 43.5189V38.0418C3.41858 36.3042 4.04001 34.6205 5.1835 33.3121C6.327 32.0038 7.91241 31.1625 9.6369 30.9491C10.5327 30.8574 11.4378 30.9449 12.2995 31.2065C13.1611 31.4682 13.9621 31.8987 14.6556 32.473C14.7473 32.5418 14.839 32.622 14.9306 32.7022C16.0683 33.7406 16.8298 35.1267 17.0963 36.6439H18.139C19.3223 36.6239 20.4698 37.0501 21.3531 37.8379C22.2363 38.6256 22.7906 39.717 22.9056 40.8949ZM51.5629 15.1251V20.6022C51.5611 21.2094 51.3191 21.7913 50.8897 22.2206C50.4603 22.65 49.8785 22.892 49.2713 22.8939H36.6671C36.037 22.8946 35.4134 22.7653 34.8356 22.514C34.2577 22.2627 33.7379 21.8948 33.3088 21.4334C32.8796 20.972 32.5504 20.427 32.3415 19.8324C32.1327 19.2379 32.0489 18.6067 32.0952 17.9782C32.2102 16.8003 32.7645 15.7089 33.6478 14.9212C34.5311 14.1335 35.6786 13.7072 36.8619 13.7272H37.9046C38.171 12.2101 38.9326 10.824 40.0702 9.78553C40.7816 9.14034 41.62 8.65108 42.5317 8.34916C43.4434 8.04724 44.4081 7.93935 45.364 8.03241C45.9015 8.08252 46.4297 8.20588 46.9338 8.39908C48.2998 8.91353 49.4755 9.83379 50.3031 11.0362C51.1306 12.2386 51.5703 13.6655 51.5629 15.1251Z" fill="#E6E6E6"/>
<path d="M46.9796 9.55637C46.9802 12.279 46.2515 14.952 44.8691 17.2976C43.4868 19.6431 41.5013 21.5756 39.1192 22.8939H36.6671C36.037 22.8946 35.4134 22.7653 34.8356 22.514C34.2577 22.2627 33.7379 21.8948 33.3088 21.4334C32.8796 20.972 32.5504 20.427 32.3415 19.8324C32.1327 19.2379 32.0489 18.6067 32.0952 17.9782C32.2102 16.8003 32.7645 15.7089 33.6478 14.9212C34.5311 14.1335 35.6786 13.7072 36.8619 13.7272H37.9046C38.171 12.2101 38.9326 10.824 40.0702 9.78553C40.7816 9.14034 41.62 8.65108 42.5317 8.34916C43.4434 8.04724 44.4081 7.93935 45.364 8.03241C45.9015 8.08252 46.4297 8.20588 46.9338 8.39908C46.9681 8.7772 46.9796 9.16678 46.9796 9.55637ZM14.6556 32.473C14.2313 35.1462 13.2705 37.7059 11.831 39.998C10.3916 42.2901 8.5032 44.2673 6.27961 45.8105H5.72961C5.12238 45.8087 4.54053 45.5667 4.11116 45.1373C3.68178 44.7079 3.43975 44.1261 3.43794 43.5189V38.0418C3.41858 36.3042 4.04001 34.6205 5.1835 33.3121C6.327 32.0037 7.91241 31.1625 9.6369 30.9491C10.5327 30.8574 11.4378 30.9449 12.2995 31.2065C13.1611 31.4682 13.9621 31.8987 14.6556 32.473Z" fill="#F2F2F2"/>
</svg>
