<svg width="61" height="61" viewBox="0 0 61 61" fill="none" xmlns="http://www.w3.org/2000/svg">
<path d="M30.502 45.75C38.9243 45.75 45.752 38.9223 45.752 30.5C45.752 22.0777 38.9243 15.25 30.502 15.25C22.0796 15.25 15.252 22.0777 15.252 30.5C15.252 38.9223 22.0796 45.75 30.502 45.75Z" fill="url(#paint0_linear_1444_4582)"/>
<path d="M41.0722 19.5204L15.4617 32.9976C15.3194 32.1729 15.2492 31.3373 15.252 30.5004C15.2501 27.5088 16.1286 24.5828 17.7782 22.087C19.4277 19.5913 21.7753 17.6362 24.5284 16.4655C27.2814 15.2947 30.3181 14.9601 33.26 15.5034C36.2019 16.0466 38.9188 17.4437 41.0722 19.5204Z" fill="url(#paint1_linear_1444_4582)"/>
<path d="M30.502 12.0504C30.2492 12.0504 30.0067 11.9499 29.828 11.7712C29.6492 11.5925 29.5488 11.35 29.5488 11.0972V1.90625C29.5488 1.65347 29.6492 1.41103 29.828 1.23229C30.0067 1.05354 30.2492 0.953125 30.502 0.953125C30.7547 0.953125 30.9972 1.05354 31.1759 1.23229C31.3547 1.41103 31.4551 1.65347 31.4551 1.90625V11.0972C31.4551 11.35 31.3547 11.5925 31.1759 11.7712C30.9972 11.9499 30.7547 12.0504 30.502 12.0504Z" fill="url(#paint2_linear_1444_4582)"/>
<path d="M20.8013 14.6476C20.6338 14.6477 20.4693 14.6038 20.3242 14.5201C20.1791 14.4364 20.0587 14.316 19.9749 14.171L17.3272 9.5836C17.2636 9.47516 17.2221 9.35522 17.2051 9.23068C17.188 9.10614 17.1958 8.97946 17.2279 8.85794C17.2601 8.73642 17.3159 8.62245 17.3923 8.5226C17.4686 8.42275 17.564 8.33899 17.6728 8.27614C17.7817 8.21329 17.9019 8.17259 18.0266 8.15639C18.1512 8.14019 18.2778 8.1488 18.3991 8.18173C18.5204 8.21467 18.634 8.27127 18.7334 8.34829C18.8327 8.4253 18.9159 8.5212 18.978 8.63048L21.6258 13.2179C21.7094 13.3627 21.7534 13.527 21.7535 13.6942C21.7535 13.8614 21.7095 14.0257 21.626 14.1706C21.5425 14.3154 21.4223 14.4358 21.2775 14.5195C21.1328 14.6032 20.9685 14.6474 20.8013 14.6476Z" fill="url(#paint3_linear_1444_4582)"/>
<path d="M13.6982 21.7512C13.5309 21.7513 13.3665 21.7073 13.2217 21.6235L5.26211 17.0294C5.15365 16.9668 5.05859 16.8835 4.98233 16.7842C4.90608 16.6848 4.85014 16.5715 4.81771 16.4505C4.78527 16.3296 4.77697 16.2034 4.79328 16.0793C4.8096 15.9551 4.85021 15.8354 4.91279 15.727C4.97537 15.6185 5.05871 15.5234 5.15803 15.4472C5.25735 15.3709 5.37072 15.315 5.49167 15.2825C5.61261 15.2501 5.73876 15.2418 5.86291 15.2581C5.98706 15.2744 6.10678 15.3151 6.21524 15.3776L14.1748 19.9726C14.3565 20.0776 14.4986 20.2396 14.5789 20.4336C14.6591 20.6275 14.6731 20.8425 14.6187 21.0452C14.5643 21.2479 14.4445 21.427 14.2779 21.5546C14.1112 21.6823 13.9081 21.7514 13.6982 21.7512Z" fill="url(#paint4_linear_1444_4582)"/>
<path d="M11.0992 31.4531H5.80273C5.54995 31.4531 5.30752 31.3527 5.12877 31.174C4.95003 30.9952 4.84961 30.7528 4.84961 30.5C4.84961 30.2472 4.95003 30.0048 5.12877 29.826C5.30752 29.6473 5.54995 29.5469 5.80273 29.5469H11.0992C11.352 29.5469 11.5945 29.6473 11.7732 29.826C11.952 30.0048 12.0524 30.2472 12.0524 30.5C12.0524 30.7528 11.952 30.9952 11.7732 31.174C11.5945 31.3527 11.352 31.4531 11.0992 31.4531Z" fill="url(#paint5_linear_1444_4582)"/>
<path d="M5.73919 45.7466C5.5293 45.7468 5.32522 45.6777 5.15861 45.5501C4.992 45.4224 4.87218 45.2433 4.81776 45.0406C4.76333 44.8379 4.77734 44.6229 4.85761 44.429C4.93788 44.2351 5.07991 44.073 5.26168 43.9681L13.2212 39.3731C13.3297 39.3095 13.4496 39.268 13.5741 39.251C13.6987 39.2339 13.8254 39.2417 13.9469 39.2738C14.0684 39.306 14.1824 39.3618 14.2822 39.4382C14.3821 39.5145 14.4658 39.6099 14.5287 39.7187C14.5915 39.8276 14.6322 39.9478 14.6484 40.0725C14.6646 40.1971 14.656 40.3237 14.6231 40.445C14.5902 40.5663 14.5336 40.6799 14.4565 40.7793C14.3795 40.8786 14.2836 40.9618 14.1743 41.0239L6.2148 45.6189C6.07024 45.7025 5.9062 45.7466 5.73919 45.7466Z" fill="url(#paint6_linear_1444_4582)"/>
<path d="M18.1514 52.8446C17.9841 52.8445 17.8199 52.8003 17.6751 52.7166C17.5304 52.6329 17.4102 52.5125 17.3267 52.3677C17.2431 52.2228 17.1992 52.0585 17.1992 51.8913C17.1993 51.724 17.2433 51.5598 17.3269 51.415L19.9747 46.8285C20.0373 46.7201 20.1206 46.625 20.2199 46.5487C20.3193 46.4725 20.4326 46.4165 20.5536 46.3841C20.6745 46.3517 20.8007 46.3434 20.9248 46.3597C21.049 46.376 21.1687 46.4166 21.2771 46.4792C21.3856 46.5418 21.4807 46.6251 21.5569 46.7244C21.6332 46.8238 21.6891 46.9371 21.7215 47.0581C21.754 47.179 21.7623 47.3052 21.746 47.4293C21.7297 47.5535 21.689 47.6732 21.6265 47.7816L18.9777 52.3681C18.894 52.5131 18.7735 52.6335 18.6285 52.7172C18.4834 52.8008 18.3188 52.8448 18.1514 52.8446Z" fill="url(#paint7_linear_1444_4582)"/>
<path d="M30.502 60.0504C30.2492 60.0504 30.0067 59.9499 29.828 59.7712C29.6492 59.5925 29.5488 59.35 29.5488 59.0972V49.9063C29.5488 49.6535 29.6492 49.411 29.828 49.2323C30.0067 49.0535 30.2492 48.9531 30.502 48.9531C30.7547 48.9531 30.9972 49.0535 31.1759 49.2323C31.3547 49.411 31.4551 49.6535 31.4551 49.9063V59.0972C31.4551 59.35 31.3547 59.5925 31.1759 59.7712C30.9972 59.9499 30.7547 60.0504 30.502 60.0504Z" fill="url(#paint8_linear_1444_4582)"/>
<path d="M42.8531 52.8419C42.6856 52.8421 42.521 52.7981 42.376 52.7144C42.2309 52.6308 42.1104 52.5104 42.0267 52.3653L39.3789 47.7789C39.3154 47.6705 39.2739 47.5505 39.2568 47.426C39.2398 47.3015 39.2476 47.1748 39.2797 47.0533C39.3118 46.9317 39.3677 46.8178 39.444 46.7179C39.5204 46.6181 39.6157 46.5343 39.7246 46.4714C39.8335 46.4086 39.9537 46.3679 40.0783 46.3517C40.203 46.3355 40.3296 46.3441 40.4509 46.377C40.5722 46.41 40.6858 46.4666 40.7851 46.5436C40.8845 46.6206 40.9676 46.7165 41.0297 46.8258L43.6775 51.4122C43.7611 51.557 43.8052 51.7213 43.8052 51.8885C43.8053 52.0558 43.7613 52.2201 43.6778 52.3649C43.5942 52.5098 43.474 52.6301 43.3293 52.7138C43.1845 52.7976 43.0203 52.8417 42.8531 52.8419Z" fill="url(#paint9_linear_1444_4582)"/>
<path d="M55.2637 45.7521C55.0967 45.7521 54.9326 45.708 54.7881 45.6244L46.8285 41.0294C46.6095 40.903 46.4496 40.6948 46.3841 40.4505C46.3186 40.2063 46.3528 39.946 46.4792 39.727C46.6056 39.5079 46.8138 39.3481 47.0581 39.2826C47.3023 39.217 47.5626 39.2512 47.7816 39.3776L55.7412 43.9736C55.923 44.0786 56.065 44.2406 56.1453 44.4345C56.2255 44.6284 56.2395 44.8435 56.1851 45.0462C56.1307 45.2489 56.0109 45.4279 55.8443 45.5556C55.6777 45.6833 55.4736 45.7523 55.2637 45.7521Z" fill="url(#paint10_linear_1444_4582)"/>
<path d="M55.2018 31.4531H49.9053C49.6525 31.4531 49.4101 31.3527 49.2313 31.174C49.0526 30.9952 48.9521 30.7528 48.9521 30.5C48.9521 30.2472 49.0526 30.0048 49.2313 29.826C49.4101 29.6473 49.6525 29.5469 49.9053 29.5469H55.2018C55.4546 29.5469 55.697 29.6473 55.8758 29.826C56.0545 30.0048 56.1549 30.2472 56.1549 30.5C56.1549 30.7528 56.0545 30.9952 55.8758 31.174C55.697 31.3527 55.4546 31.4531 55.2018 31.4531Z" fill="url(#paint11_linear_1444_4582)"/>
<path d="M47.3056 21.7544C47.0958 21.7544 46.8919 21.6852 46.7254 21.5575C46.559 21.4297 46.4393 21.2507 46.385 21.048C46.3307 20.8453 46.3448 20.6304 46.4251 20.4366C46.5054 20.2427 46.6474 20.0808 46.8291 19.9759L54.7886 15.3809C54.897 15.3173 55.017 15.2758 55.1415 15.2588C55.2661 15.2418 55.3927 15.2495 55.5143 15.2817C55.6358 15.3138 55.7498 15.3696 55.8496 15.446C55.9495 15.5223 56.0332 15.6177 56.0961 15.7266C56.1589 15.8354 56.1996 15.9556 56.2158 16.0803C56.232 16.2049 56.2234 16.3315 56.1905 16.4529C56.1575 16.5742 56.1009 16.6878 56.0239 16.7871C55.9469 16.8864 55.851 16.9696 55.7417 17.0317L47.7822 21.6267C47.6373 21.7105 47.473 21.7546 47.3056 21.7544Z" fill="url(#paint12_linear_1444_4582)"/>
<path d="M40.2022 14.6476C40.0349 14.6474 39.8707 14.6032 39.7259 14.5195C39.5812 14.4358 39.461 14.3154 39.3775 14.1706C39.2939 14.0257 39.25 13.8614 39.25 13.6942C39.25 13.527 39.2941 13.3627 39.3777 13.2179L42.0255 8.63048C42.0876 8.5212 42.1707 8.4253 42.2701 8.34829C42.3694 8.27127 42.483 8.21467 42.6043 8.18173C42.7256 8.1488 42.8522 8.14019 42.9769 8.15639C43.1015 8.17259 43.2218 8.21329 43.3306 8.27614C43.4395 8.33899 43.5348 8.42275 43.6112 8.5226C43.6875 8.62245 43.7434 8.73642 43.7755 8.85794C43.8076 8.97946 43.8154 9.10614 43.7984 9.23068C43.7814 9.35522 43.7399 9.47516 43.6763 9.5836L41.0285 14.171C40.9448 14.316 40.8243 14.4364 40.6792 14.5201C40.5342 14.6038 40.3696 14.6477 40.2022 14.6476Z" fill="url(#paint13_linear_1444_4582)"/>
<path d="M15.7539 34.3125C16.595 37.5847 18.5005 40.4843 21.1704 42.5547C23.8403 44.6251 27.123 45.7488 30.5016 45.7488C33.8802 45.7488 37.1629 44.6251 39.8328 42.5547C42.5027 40.4843 44.4082 37.5847 45.2493 34.3125H15.7539Z" fill="url(#paint14_linear_1444_4582)"/>
<path d="M29.5488 7.625V11.0972C29.5488 11.35 29.6492 11.5925 29.828 11.7712C30.0067 11.9499 30.2492 12.0504 30.502 12.0504C30.7547 12.0504 30.9972 11.9499 31.1759 11.7712C31.3547 11.5925 31.4551 11.35 31.4551 11.0972V7.625H29.5488Z" fill="url(#paint15_linear_1444_4582)"/>
<path d="M18.2393 11.1641L19.9749 14.1712C20.1013 14.3902 20.3095 14.5501 20.5538 14.6156C20.798 14.6811 21.0583 14.6469 21.2773 14.5205C21.4964 14.3941 21.6562 14.1859 21.7217 13.9416C21.7873 13.6974 21.7531 13.4371 21.6267 13.218L19.8901 10.2109L18.2393 11.1641Z" fill="url(#paint16_linear_1444_4582)"/>
<path d="M10.2148 19.8852L13.222 21.6218C13.4408 21.7462 13.6999 21.779 13.9428 21.713C14.1857 21.6471 14.3926 21.4878 14.5185 21.2698C14.6443 21.0518 14.6788 20.7929 14.6145 20.5496C14.5502 20.3063 14.3922 20.0983 14.1751 19.971L11.168 18.2344L10.2148 19.8852Z" fill="url(#paint17_linear_1444_4582)"/>
<path d="M7.62695 31.4531H11.0992C11.352 31.4531 11.5944 31.3527 11.7731 31.174C11.9519 30.9952 12.0523 30.7528 12.0523 30.5C12.0523 30.2472 11.9519 30.0048 11.7731 29.826C11.5944 29.6473 11.352 29.5469 11.0992 29.5469H7.62695V31.4531Z" fill="url(#paint18_linear_1444_4582)"/>
<path d="M11.168 42.765L14.1751 41.0294C14.3941 40.903 14.554 40.6948 14.6195 40.4505C14.685 40.2063 14.6508 39.946 14.5244 39.727C14.398 39.5079 14.1898 39.3481 13.9455 39.2826C13.7013 39.217 13.441 39.2512 13.222 39.3776L10.2148 41.1142L11.168 42.765Z" fill="url(#paint19_linear_1444_4582)"/>
<path d="M19.8901 50.7907L21.6267 47.7836C21.7511 47.5648 21.7839 47.3057 21.7179 47.0628C21.652 46.8199 21.4926 46.6129 21.2747 46.4871C21.0567 46.3612 20.7978 46.3267 20.5545 46.391C20.3111 46.4554 20.1031 46.6133 19.9759 46.8305L18.2393 49.8376L19.8901 50.7907Z" fill="url(#paint20_linear_1444_4582)"/>
<path d="M31.4551 53.3785V49.9062C31.4551 49.6535 31.3547 49.411 31.1759 49.2323C30.9972 49.0535 30.7547 48.9531 30.502 48.9531C30.2492 48.9531 30.0067 49.0535 29.828 49.2323C29.6492 49.411 29.5488 49.6535 29.5488 49.9062V53.3785H31.4551Z" fill="url(#paint21_linear_1444_4582)"/>
<path d="M42.765 49.8356L41.0294 46.8285C40.903 46.6095 40.6948 46.4496 40.4505 46.3841C40.2063 46.3186 39.946 46.3528 39.727 46.4792C39.5079 46.6056 39.3481 46.8138 39.2826 47.0581C39.217 47.3023 39.2512 47.5626 39.3776 47.7816L41.1142 50.7888L42.765 49.8356Z" fill="url(#paint22_linear_1444_4582)"/>
<path d="M50.7887 41.1112L47.7816 39.3746C47.5628 39.2502 47.3037 39.2174 47.0608 39.2833C46.8179 39.3492 46.611 39.5086 46.4851 39.7266C46.3593 39.9445 46.3248 40.2034 46.3891 40.4467C46.4534 40.6901 46.6114 40.8981 46.8285 41.0254L49.8356 42.762L50.7887 41.1112Z" fill="url(#paint23_linear_1444_4582)"/>
<path d="M53.3775 29.5469H49.9053C49.6525 29.5469 49.4101 29.6473 49.2313 29.826C49.0526 30.0048 48.9521 30.2472 48.9521 30.5C48.9521 30.7528 49.0526 30.9952 49.2313 31.174C49.4101 31.3527 49.6525 31.4531 49.9053 31.4531H53.3775V29.5469Z" fill="url(#paint24_linear_1444_4582)"/>
<path d="M49.8356 18.2344L46.8285 19.97C46.6095 20.0964 46.4496 20.3046 46.3841 20.5489C46.3186 20.7931 46.3528 21.0534 46.4792 21.2725C46.6056 21.4915 46.8138 21.6514 47.0581 21.7169C47.3023 21.7824 47.5626 21.7482 47.7816 21.6218L50.7888 19.8852L49.8356 18.2344Z" fill="url(#paint25_linear_1444_4582)"/>
<path d="M41.1141 10.2109L39.3775 13.218C39.2531 13.4368 39.2203 13.696 39.2862 13.9389C39.3522 14.1818 39.5115 14.3887 39.7295 14.5146C39.9475 14.6404 40.2064 14.6749 40.4497 14.6106C40.693 14.5463 40.901 14.3883 41.0283 14.1712L42.7649 11.1641L41.1141 10.2109Z" fill="url(#paint26_linear_1444_4582)"/>
<defs>
<linearGradient id="paint0_linear_1444_4582" x1="15.252" y1="30.5" x2="45.752" y2="30.5" gradientUnits="userSpaceOnUse">
<stop stop-color="#F4F42A"/>
<stop offset="1" stop-color="#FFB92B"/>
</linearGradient>
<linearGradient id="paint1_linear_1444_4582" x1="27.6894" y1="25.446" x2="22.2518" y2="17.7867" gradientUnits="userSpaceOnUse">
<stop stop-color="#FEFFC0" stop-opacity="0"/>
<stop offset="1" stop-color="#F8FF9B"/>
</linearGradient>
<linearGradient id="paint2_linear_1444_4582" x1="31.4551" y1="6.50222" x2="29.5488" y2="6.50222" gradientUnits="userSpaceOnUse">
<stop stop-color="#F4F42A"/>
<stop offset="1" stop-color="#FFB92B"/>
</linearGradient>
<linearGradient id="paint3_linear_1444_4582" x1="20.1742" y1="10.998" x2="18.9608" y2="11.6995" gradientUnits="userSpaceOnUse">
<stop stop-color="#F4F42A"/>
<stop offset="1" stop-color="#FFB92B"/>
</linearGradient>
<linearGradient id="paint4_linear_1444_4582" x1="10.1888" y1="17.6861" x2="9.21472" y2="19.3731" gradientUnits="userSpaceOnUse">
<stop stop-color="#F4F42A"/>
<stop offset="1" stop-color="#FFB92B"/>
</linearGradient>
<linearGradient id="paint5_linear_1444_4582" x1="8.45147" y1="29.5469" x2="8.45147" y2="31.2825" gradientUnits="userSpaceOnUse">
<stop stop-color="#F4F42A"/>
<stop offset="1" stop-color="#FFB92B"/>
</linearGradient>
<linearGradient id="paint6_linear_1444_4582" x1="9.31627" y1="41.8007" x2="10.1474" y2="43.2399" gradientUnits="userSpaceOnUse">
<stop stop-color="#F4F42A"/>
<stop offset="1" stop-color="#FFB92B"/>
</linearGradient>
<linearGradient id="paint7_linear_1444_4582" x1="18.7976" y1="49.2066" x2="20.2759" y2="50.0596" gradientUnits="userSpaceOnUse">
<stop stop-color="#F4F42A"/>
<stop offset="1" stop-color="#FFB92B"/>
</linearGradient>
<linearGradient id="paint8_linear_1444_4582" x1="29.5488" y1="54.5022" x2="31.4551" y2="54.5022" gradientUnits="userSpaceOnUse">
<stop stop-color="#F4F42A"/>
<stop offset="1" stop-color="#FFB92B"/>
</linearGradient>
<linearGradient id="paint9_linear_1444_4582" x1="40.7028" y1="50.0721" x2="42.3536" y2="49.119" gradientUnits="userSpaceOnUse">
<stop stop-color="#F4F42A"/>
<stop offset="1" stop-color="#FFB92B"/>
</linearGradient>
<linearGradient id="paint10_linear_1444_4582" x1="50.8078" y1="43.3274" x2="51.7619" y2="41.6756" gradientUnits="userSpaceOnUse">
<stop stop-color="#F4F42A"/>
<stop offset="1" stop-color="#FFB92B"/>
</linearGradient>
<linearGradient id="paint11_linear_1444_4582" x1="52.554" y1="31.4531" x2="52.554" y2="29.5469" gradientUnits="userSpaceOnUse">
<stop stop-color="#F4F42A"/>
<stop offset="1" stop-color="#FFB92B"/>
</linearGradient>
<linearGradient id="paint12_linear_1444_4582" x1="51.7624" y1="19.3297" x2="50.8084" y2="17.6779" gradientUnits="userSpaceOnUse">
<stop stop-color="#F4F42A"/>
<stop offset="1" stop-color="#FFB92B"/>
</linearGradient>
<linearGradient id="paint13_linear_1444_4582" x1="42.3524" y1="11.8778" x2="40.7016" y2="10.9246" gradientUnits="userSpaceOnUse">
<stop stop-color="#F4F42A"/>
<stop offset="1" stop-color="#FFB92B"/>
</linearGradient>
<linearGradient id="paint14_linear_1444_4582" x1="30.5016" y1="34.3125" x2="30.5016" y2="45.75" gradientUnits="userSpaceOnUse">
<stop stop-color="#FFB92B" stop-opacity="0"/>
<stop offset="1" stop-color="#FFB92B"/>
</linearGradient>
<linearGradient id="paint15_linear_1444_4582" x1="0.00195346" y1="7.625" x2="0.955078" y2="12.0504" gradientUnits="userSpaceOnUse">
<stop stop-color="#FFB92B" stop-opacity="0"/>
<stop offset="1" stop-color="#FFB92B"/>
</linearGradient>
<linearGradient id="paint16_linear_1444_4582" x1="-7.34984" y1="25.937" x2="-4.31173" y2="29.293" gradientUnits="userSpaceOnUse">
<stop stop-color="#FFB92B" stop-opacity="0"/>
<stop offset="1" stop-color="#FFB92B"/>
</linearGradient>
<linearGradient id="paint17_linear_1444_4582" x1="-4.55905" y1="45.474" x2="-0.25001" y2="46.8613" gradientUnits="userSpaceOnUse">
<stop stop-color="#FFB92B" stop-opacity="0"/>
<stop offset="1" stop-color="#FFB92B"/>
</linearGradient>
<linearGradient id="paint18_linear_1444_4582" x1="7.62695" y1="61" x2="12.0523" y2="60.0469" gradientUnits="userSpaceOnUse">
<stop stop-color="#FFB92B" stop-opacity="0"/>
<stop offset="1" stop-color="#FFB92B"/>
</linearGradient>
<linearGradient id="paint19_linear_1444_4582" x1="25.9418" y1="68.3534" x2="29.2977" y2="65.3153" gradientUnits="userSpaceOnUse">
<stop stop-color="#FFB92B" stop-opacity="0"/>
<stop offset="1" stop-color="#FFB92B"/>
</linearGradient>
<linearGradient id="paint20_linear_1444_4582" x1="45.4784" y1="65.5638" x2="46.8657" y2="61.2547" gradientUnits="userSpaceOnUse">
<stop stop-color="#FFB92B" stop-opacity="0"/>
<stop offset="1" stop-color="#FFB92B"/>
</linearGradient>
<linearGradient id="paint21_linear_1444_4582" x1="61.002" y1="53.3785" x2="60.0488" y2="48.9531" gradientUnits="userSpaceOnUse">
<stop stop-color="#FFB92B" stop-opacity="0"/>
<stop offset="1" stop-color="#FFB92B"/>
</linearGradient>
<linearGradient id="paint22_linear_1444_4582" x1="68.3534" y1="35.0618" x2="65.3153" y2="31.7059" gradientUnits="userSpaceOnUse">
<stop stop-color="#FFB92B" stop-opacity="0"/>
<stop offset="1" stop-color="#FFB92B"/>
</linearGradient>
<linearGradient id="paint23_linear_1444_4582" x1="65.5618" y1="15.5228" x2="61.2528" y2="14.1355" gradientUnits="userSpaceOnUse">
<stop stop-color="#FFB92B" stop-opacity="0"/>
<stop offset="1" stop-color="#FFB92B"/>
</linearGradient>
<linearGradient id="paint24_linear_1444_4582" x1="53.3775" y1="-1.43248e-06" x2="48.9521" y2="0.953124" gradientUnits="userSpaceOnUse">
<stop stop-color="#FFB92B" stop-opacity="0"/>
<stop offset="1" stop-color="#FFB92B"/>
</linearGradient>
<linearGradient id="paint25_linear_1444_4582" x1="35.0623" y1="-7.35481" x2="31.7064" y2="-4.3167" gradientUnits="userSpaceOnUse">
<stop stop-color="#FFB92B" stop-opacity="0"/>
<stop offset="1" stop-color="#FFB92B"/>
</linearGradient>
<linearGradient id="paint26_linear_1444_4582" x1="15.5249" y1="-4.56286" x2="14.1376" y2="-0.253823" gradientUnits="userSpaceOnUse">
<stop stop-color="#FFB92B" stop-opacity="0"/>
<stop offset="1" stop-color="#FFB92B"/>
</linearGradient>
</defs>
</svg>
