<svg width="24" height="25" viewBox="0 0 24 25" fill="none" xmlns="http://www.w3.org/2000/svg">
<g clip-path="url(#clip0_377_976)">
<path d="M4 3C4 2.73478 4.10536 2.48043 4.29289 2.29289C4.48043 2.10536 4.73478 2 5 2H19C19.2652 2 19.5196 2.10536 19.7071 2.29289C19.8946 2.48043 20 2.73478 20 3V5C20 5.26522 19.8946 5.51957 19.7071 5.70711C19.5196 5.89464 19.2652 6 19 6H5C4.73478 6 4.48043 5.89464 4.29289 5.70711C4.10536 5.51957 4 5.26522 4 5V3Z" stroke="#F30051" stroke-width="2" stroke-linecap="round" stroke-linejoin="round"/>
<path d="M4 11.625C4 11.194 4.10536 10.7807 4.29289 10.476C4.48043 10.1712 4.73478 10 5 10H9C9.26522 10 9.51957 10.1712 9.70711 10.476C9.89464 10.7807 10 11.194 10 11.625V21.375C10 21.806 9.89464 22.2193 9.70711 22.524C9.51957 22.8288 9.26522 23 9 23H5C4.73478 23 4.48043 22.8288 4.29289 22.524C4.10536 22.2193 4 21.806 4 21.375V11.625Z" stroke="#F30051" stroke-width="2" stroke-linecap="round" stroke-linejoin="round"/>
<path d="M14 10.625C14 10.4592 14.1054 10.3003 14.2929 10.1831C14.4804 10.0658 14.7348 10 15 10H19C19.2652 10 19.5196 10.0658 19.7071 10.1831C19.8946 10.3003 20 10.4592 20 10.625V14.375C20 14.5408 19.8946 14.6997 19.7071 14.8169C19.5196 14.9342 19.2652 15 19 15H15C14.7348 15 14.4804 14.9342 14.2929 14.8169C14.1054 14.6997 14 14.5408 14 14.375V10.625Z" stroke="#FA8CB0" stroke-width="2" stroke-linecap="round" stroke-linejoin="round"/>
<path d="M14 18.625C14 18.4592 14.1054 18.3003 14.2929 18.1831C14.4804 18.0658 14.7348 18 15 18H19C19.2652 18 19.5196 18.0658 19.7071 18.1831C19.8946 18.3003 20 18.4592 20 18.625V22.375C20 22.5408 19.8946 22.6997 19.7071 22.8169C19.5196 22.9342 19.2652 23 19 23H15C14.7348 23 14.4804 22.9342 14.2929 22.8169C14.1054 22.6997 14 22.5408 14 22.375V18.625Z" stroke="#F30051" stroke-width="2" stroke-linecap="round" stroke-linejoin="round"/>
</g>
<defs>
<clipPath id="clip0_377_976">
<rect width="24" height="25" fill="white"/>
</clipPath>
</defs>
</svg>
