<svg width="590" height="572" viewBox="0 0 590 572" fill="none" xmlns="http://www.w3.org/2000/svg">
<path opacity="0.5" d="M146.792 485.38C241.263 530.397 394.427 530.397 488.898 485.38C583.368 440.363 583.357 367.38 488.898 322.327C394.439 277.275 241.263 277.299 146.792 322.327C52.3212 367.356 52.333 440.351 146.792 485.38Z" fill="#EBEBEB"/>
<path d="M452.932 401.139C488.984 401.139 518.21 387.208 518.21 370.023C518.21 352.838 488.984 338.906 452.932 338.906C416.88 338.906 387.654 352.838 387.654 370.023C387.654 387.208 416.88 401.139 452.932 401.139Z" fill="#E0E0E0"/>
<path d="M354.212 493.889C336.772 502.208 308.499 502.208 291.059 493.889C273.618 485.57 273.618 472.106 291.059 463.787C308.499 455.468 336.772 455.527 354.212 463.787C371.653 472.047 371.7 485.582 354.212 493.889Z" fill="#E0E0E0"/>
<path d="M119.651 387.736L129.245 382.202C129.245 382.202 134.307 359.628 126.767 330.954C119.227 302.28 97.4792 280.84 86.1394 285.336C74.7996 289.831 75.0946 298.316 81.3486 306.918C86.5406 313.998 103.379 331.226 111.474 351.073C116.296 362.73 119.063 375.135 119.651 387.736Z" fill="#F30051"/>
<path opacity="0.1" d="M119.651 387.736L129.245 382.202C129.245 382.202 134.307 359.628 126.767 330.954C119.227 302.28 97.4792 280.84 86.1394 285.336C74.7996 289.831 75.0946 298.316 81.3486 306.918C86.5406 313.998 103.379 331.226 111.474 351.073C116.296 362.73 119.063 375.135 119.651 387.736Z" fill="black"/>
<path d="M124.76 385.376H124.678C124.525 385.353 124.387 385.271 124.295 385.147C124.202 385.024 124.162 384.869 124.182 384.716C130.731 337.516 101.479 299.354 88.1683 291.389C88.0912 291.356 88.022 291.307 87.9656 291.244C87.9091 291.182 87.8666 291.108 87.8408 291.028C87.8151 290.948 87.8068 290.864 87.8164 290.78C87.826 290.697 87.8533 290.616 87.8966 290.544C87.9398 290.472 87.998 290.41 88.0671 290.362C88.1363 290.315 88.2148 290.282 88.2975 290.267C88.3803 290.252 88.4652 290.255 88.5467 290.276C88.6282 290.296 88.7044 290.334 88.7701 290.386C102.281 298.458 131.982 337.126 125.35 384.881C125.325 385.019 125.253 385.145 125.145 385.235C125.037 385.326 124.901 385.376 124.76 385.376Z" fill="white"/>
<path d="M119.651 387.736L105.279 395.996C102.277 394.496 99.0254 393.56 95.6855 393.235C89.5731 392.468 85.5021 386.568 86.1039 382.167C86.5051 379.193 87.4609 375.807 87.0007 372.798C86.5995 370.107 83.9917 367.688 81.5609 366.744C79.4921 366.098 77.3322 365.791 75.1653 365.836C71.7079 365.67 68.0853 365.281 65.1707 363.476C62.2561 361.67 60.1085 358.059 61.0525 354.72C61.6873 352.992 62.7178 351.436 64.0615 350.177C65.3998 348.915 66.4851 347.409 67.2593 345.74C68.5337 342.413 66.2799 340.289 63.6013 338.743C54.1613 333.315 49.9133 329.031 53.3117 324.925C56.7101 320.819 66.0439 319.025 75.6137 324.052C85.1835 329.079 93.1249 323.686 99.4379 324.748C109.326 326.4 109.904 333.386 108.677 339.451C107.45 345.516 119.687 348.1 122.719 355.381C124.997 360.667 126.861 378.037 119.651 387.736Z" fill="#F30051"/>
<path d="M114.86 391.086C114.708 391.086 114.561 391.027 114.451 390.922C114.341 390.816 114.277 390.672 114.27 390.52C113.09 356.831 69.9143 327.449 59.7309 325.761C59.6541 325.75 59.5804 325.723 59.5139 325.683C59.4475 325.643 59.3896 325.59 59.3435 325.528C59.2975 325.465 59.2642 325.394 59.2457 325.319C59.2271 325.244 59.2236 325.165 59.2353 325.089C59.2641 324.935 59.3517 324.798 59.4794 324.708C59.6072 324.618 59.7651 324.581 59.9197 324.605C70.6459 326.375 114.259 355.533 115.45 390.472C115.454 390.55 115.442 390.627 115.415 390.7C115.388 390.773 115.347 390.84 115.295 390.897C115.242 390.954 115.179 391 115.108 391.032C115.038 391.065 114.962 391.083 114.884 391.086H114.86Z" fill="white"/>
<path d="M300.027 451.94C299.555 446.04 295 435.962 288.227 428.788C281.453 421.614 270.692 418.168 264.037 421.047C257.842 423.738 259.21 432.045 267.388 436.965C275.565 441.886 287.743 447.904 291.92 457.214L299.991 468.389L300.027 451.94Z" fill="#F30051"/>
<path opacity="0.1" d="M300.027 451.94C299.555 446.04 295 435.962 288.227 428.788C281.453 421.614 270.692 418.168 264.037 421.047C257.842 423.738 259.21 432.045 267.388 436.965C275.565 441.886 287.743 447.904 291.92 457.214L299.991 468.389L300.027 451.94Z" fill="black"/>
<path d="M300.026 462.749H300.144C300.248 462.735 300.349 462.7 300.44 462.646C300.531 462.593 300.611 462.522 300.675 462.437C300.738 462.353 300.785 462.257 300.811 462.154C300.837 462.052 300.843 461.945 300.828 461.841C297.89 439.975 275.671 424.765 266.832 423.089C266.728 423.069 266.622 423.069 266.518 423.09C266.414 423.111 266.315 423.152 266.228 423.212C266.14 423.271 266.065 423.347 266.006 423.435C265.948 423.524 265.908 423.623 265.888 423.727C265.868 423.831 265.868 423.937 265.889 424.041C265.91 424.145 265.951 424.244 266.01 424.331C266.07 424.419 266.146 424.494 266.234 424.552C266.322 424.611 266.421 424.651 266.525 424.671C274.785 426.24 296.427 441.285 299.223 462.053C299.252 462.246 299.348 462.422 299.495 462.55C299.643 462.678 299.831 462.749 300.026 462.749Z" fill="white"/>
<path d="M299.154 476.365C297.974 473.12 293.443 467.964 286.516 463.975C278.858 459.55 269.5 457.981 267.07 454.264C264.155 449.78 267.742 445.048 275.259 445.367C282.775 445.685 296.711 454.807 300.039 469.946L299.154 476.365Z" fill="#F30051"/>
<path d="M299.72 473.179H299.873C299.978 473.159 300.079 473.119 300.168 473.06C300.257 473 300.334 472.924 300.393 472.835C300.453 472.746 300.494 472.646 300.514 472.541C300.534 472.436 300.533 472.328 300.51 472.223C298.28 461.013 282.032 449.402 271.53 448.918C271.318 448.917 271.113 448.995 270.956 449.137C270.799 449.279 270.701 449.474 270.68 449.685C270.674 449.9 270.751 450.109 270.897 450.268C271.042 450.427 271.244 450.522 271.459 450.535C281.206 450.983 296.864 462.158 298.929 472.542C298.967 472.723 299.067 472.885 299.211 473.001C299.355 473.117 299.535 473.18 299.72 473.179Z" fill="white"/>
<path d="M109.338 396.479C108.657 396.022 108.127 395.373 107.816 394.615C107.505 393.856 107.427 393.022 107.592 392.219L149.435 207.03C149.938 205.239 151.075 203.692 152.633 202.675L401.612 58.9514C402.374 58.5488 403.219 58.3315 404.081 58.3172C404.942 58.3028 405.794 58.4918 406.568 58.8688C407.239 59.3282 407.759 59.9752 408.063 60.7288C408.367 61.4823 408.443 62.3089 408.279 63.105L366.425 248.294C365.92 250.088 364.779 251.636 363.215 252.648L114.294 396.372C113.535 396.779 112.69 397 111.829 397.019C110.968 397.037 110.115 396.852 109.338 396.479Z" fill="#F0F0F0"/>
<path d="M154.226 209.767L112.383 395.027C112.029 396.608 112.879 397.245 114.295 396.431L363.275 252.707C364.838 251.695 365.98 250.146 366.484 248.353L408.28 63.1048C408.634 61.5118 407.784 60.8864 406.368 61.7006L157.388 205.425C155.847 206.445 154.724 207.987 154.226 209.767Z" fill="#E6E6E6"/>
<path d="M411.312 61.6054C410.537 61.2302 409.684 61.0432 408.823 61.0596C407.961 61.076 407.116 61.2953 406.356 61.6998L157.376 205.424C156.654 205.891 156.073 206.547 155.696 207.321C155.32 208.095 155.162 208.956 155.24 209.813L188.009 439.194C188.169 440.063 188.5 440.892 188.985 441.631C189.469 442.371 190.096 443.006 190.829 443.501C191.601 443.878 192.453 444.067 193.312 444.051C194.172 444.034 195.016 443.813 195.773 443.406L444.706 299.718C445.43 299.249 446.012 298.591 446.389 297.815C446.765 297.039 446.922 296.175 446.842 295.316L414.179 65.9124C414.014 65.0389 413.676 64.2076 413.183 63.4677C412.69 62.7278 412.054 62.0945 411.312 61.6054Z" fill="#F0F0F0"/>
<path d="M160.078 212.589L192.8 441.969C192.806 442.311 192.907 442.645 193.092 442.933C193.276 443.221 193.537 443.453 193.845 443.602C194.153 443.751 194.496 443.812 194.836 443.778C195.177 443.744 195.501 443.616 195.773 443.409L444.706 299.72C445.43 299.252 446.012 298.594 446.389 297.818C446.765 297.042 446.922 296.178 446.842 295.319L414.18 65.9151C414.175 65.572 414.076 65.2369 413.892 64.9471C413.708 64.6573 413.448 64.4242 413.14 64.2737C412.831 64.1232 412.487 64.0613 412.146 64.0948C411.804 64.1284 411.479 64.2561 411.206 64.4637L162.226 208.188C161.5 208.655 160.915 209.312 160.537 210.088C160.158 210.864 159.999 211.729 160.078 212.589Z" fill="#FAFAFA"/>
<path d="M112.607 393.988L176.327 357.184L178.18 370.518L148.963 387.392C148.963 387.392 141.175 390.153 138.084 390.932C134.992 391.71 112.607 393.988 112.607 393.988Z" fill="#E0E0E0"/>
<path d="M178.215 370.531L187.773 437.555L148.998 387.405L178.215 370.531Z" fill="#E6E6E6"/>
<path d="M186.628 439.785L151.877 394.65C151.3 393.977 150.571 393.452 149.75 393.117C148.929 392.783 148.04 392.649 147.157 392.727L114.66 397.447C112.83 397.643 110.982 397.307 109.338 396.479C108.017 395.724 108.241 394.851 109.834 394.544L147.181 387.358C148.057 387.226 148.951 387.323 149.779 387.64C150.606 387.956 151.337 388.481 151.901 389.163L191.466 442.499C192.434 443.809 192.151 444.246 190.829 443.479C189.236 442.486 187.817 441.238 186.628 439.785Z" fill="#E0E0E0"/>
<path d="M408.339 62.197C408.335 61.5321 408.167 60.8785 407.85 60.294C407.533 59.7095 407.077 59.2121 406.522 58.8458C405.746 58.4742 404.893 58.2893 404.033 58.3057C403.172 58.3221 402.328 58.5394 401.566 58.9402L152.586 202.664C151.827 203.14 151.166 203.757 150.639 204.481C150.054 205.235 149.625 206.097 149.377 207.018L143.477 233.179L148.267 235.928L402.38 89.2544L408.28 63.1056C408.336 62.8061 408.36 62.5015 408.351 62.197H408.339Z" fill="#F30051"/>
<path opacity="0.2" d="M408.28 63.1048C408.634 61.5118 407.785 60.8864 406.369 61.7006L157.389 205.425C155.834 206.439 154.698 207.981 154.191 209.767L148.291 235.928L402.38 89.2536L408.28 63.1048Z" fill="black"/>
<path opacity="0.1" d="M155.477 207.242C154.891 207.989 154.465 208.848 154.226 209.767L148.326 235.928L143.535 233.166L149.435 207.006C149.684 206.085 150.113 205.222 150.698 204.469L155.477 207.242Z" fill="black"/>
<path opacity="0.4" d="M408.339 62.1853C408.221 61.3003 407.454 61.0053 406.356 61.7015L157.376 205.414C156.612 205.887 155.95 206.509 155.429 207.243L150.639 204.47C151.166 203.745 151.826 203.128 152.586 202.652L401.566 58.9285C402.327 58.5276 403.172 58.3104 404.032 58.294C404.893 58.2776 405.745 58.4625 406.522 58.8341C407.077 59.2004 407.533 59.6978 407.85 60.2823C408.167 60.8668 408.335 61.5204 408.339 62.1853Z" fill="white"/>
<path d="M414.428 68.1072L414.18 65.9124C414.162 65.805 414.138 65.6986 414.109 65.5938C414.114 65.5625 414.114 65.5306 414.109 65.4994C413.708 63.9115 412.738 62.526 411.383 61.6054C410.608 61.2302 409.755 61.0432 408.894 61.0596C408.033 61.076 407.188 61.2953 406.427 61.6998L157.447 205.424C156.694 205.891 156.097 206.573 155.736 207.383C155.368 208.136 155.22 208.979 155.311 209.813L160.031 242.676L164.822 245.449L418.817 98.7872L414.428 68.1072Z" fill="#F30051"/>
<path opacity="0.1" d="M164.775 245.438L159.985 242.665L155.265 209.802C155.173 208.968 155.321 208.125 155.689 207.371L160.492 210.132C160.115 210.883 159.963 211.728 160.055 212.563L164.775 245.438Z" fill="black"/>
<path opacity="0.4" d="M414.038 65.4994C413.971 65.2021 413.829 64.9266 413.627 64.6982C413.426 64.4698 413.169 64.2959 412.883 64.1925C412.596 64.0891 412.288 64.0595 411.987 64.1064C411.685 64.1533 411.401 64.2752 411.159 64.461L162.179 208.185C161.422 208.648 160.825 209.332 160.468 210.144L155.76 207.383C156.124 206.572 156.719 205.886 157.471 205.412L406.451 61.6998C407.211 61.2953 408.056 61.076 408.917 61.0596C409.779 61.0432 410.631 61.2302 411.407 61.6054C412.729 62.5394 413.665 63.9241 414.038 65.4994Z" fill="white"/>
<path d="M230.866 403.959L227.892 383.061C227.888 382.789 227.809 382.523 227.664 382.293C227.519 382.063 227.314 381.876 227.07 381.755C226.827 381.633 226.555 381.58 226.283 381.603C226.012 381.625 225.752 381.721 225.532 381.881L203.832 394.413C203.247 394.787 202.778 395.316 202.476 395.941C202.173 396.566 202.051 397.262 202.121 397.953L205.083 418.898C205.083 419.172 205.159 419.44 205.303 419.673C205.447 419.906 205.653 420.095 205.898 420.217C206.143 420.34 206.417 420.391 206.69 420.367C206.963 420.342 207.223 420.242 207.443 420.078L229.143 407.546C229.738 407.171 230.216 406.635 230.521 406.001C230.826 405.366 230.945 404.658 230.866 403.959Z" fill="#F30051"/>
<path d="M264.426 384.607L261.44 363.721C261.44 363.447 261.364 363.179 261.22 362.946C261.076 362.713 260.87 362.524 260.625 362.402C260.38 362.279 260.105 362.227 259.833 362.252C259.56 362.277 259.299 362.377 259.08 362.541L237.38 375.061C236.796 375.436 236.327 375.965 236.026 376.59C235.724 377.214 235.6 377.91 235.669 378.601L238.654 399.499C238.654 399.773 238.731 400.041 238.875 400.274C239.019 400.507 239.225 400.695 239.47 400.818C239.715 400.94 239.989 400.992 240.262 400.968C240.535 400.943 240.795 400.843 241.014 400.679L262.715 388.147C263.3 387.774 263.77 387.245 264.073 386.62C264.375 385.995 264.497 385.298 264.426 384.607Z" fill="#EBEBEB"/>
<path d="M297.984 365.256L294.999 344.37C294.999 344.096 294.923 343.827 294.779 343.594C294.635 343.361 294.428 343.173 294.183 343.05C293.938 342.928 293.664 342.876 293.391 342.9C293.119 342.925 292.858 343.025 292.639 343.19L270.927 355.733C270.343 356.108 269.874 356.637 269.572 357.262C269.27 357.886 269.147 358.582 269.216 359.273L272.201 380.171C272.201 380.445 272.277 380.713 272.421 380.946C272.566 381.179 272.772 381.368 273.017 381.49C273.262 381.613 273.536 381.664 273.809 381.64C274.081 381.615 274.342 381.515 274.561 381.351L296.261 368.819C296.853 368.446 297.328 367.914 297.633 367.284C297.937 366.654 298.059 365.951 297.984 365.256Z" fill="#EBEBEB"/>
<path d="M331.58 345.916L328.594 325.018C328.594 324.744 328.518 324.476 328.374 324.243C328.23 324.01 328.024 323.821 327.779 323.699C327.534 323.576 327.26 323.524 326.987 323.549C326.714 323.574 326.454 323.674 326.234 323.838L304.44 336.393C303.854 336.766 303.384 337.295 303.082 337.92C302.78 338.545 302.657 339.242 302.729 339.933L305.714 360.819C305.714 361.093 305.791 361.362 305.935 361.595C306.079 361.828 306.285 362.016 306.53 362.138C306.775 362.261 307.049 362.313 307.322 362.288C307.595 362.264 307.855 362.164 308.074 361.999L329.774 349.479C330.379 349.115 330.87 348.587 331.189 347.957C331.508 347.327 331.644 346.619 331.58 345.916Z" fill="#EBEBEB"/>
<path d="M365.103 326.565L362.117 305.62C362.117 305.346 362.041 305.077 361.897 304.844C361.753 304.611 361.547 304.423 361.302 304.3C361.057 304.178 360.783 304.126 360.51 304.15C360.237 304.175 359.976 304.275 359.757 304.44L338.057 316.971C337.471 317.344 337.001 317.873 336.699 318.498C336.397 319.123 336.275 319.82 336.346 320.511L339.331 341.397C339.331 341.671 339.408 341.94 339.552 342.173C339.696 342.406 339.902 342.594 340.147 342.716C340.392 342.839 340.666 342.891 340.939 342.866C341.212 342.842 341.472 342.741 341.691 342.577L363.439 330.081C364.01 329.702 364.467 329.174 364.76 328.554C365.053 327.935 365.172 327.247 365.103 326.565Z" fill="#EBEBEB"/>
<path d="M398.663 307.213L395.678 286.315C395.678 286.041 395.601 285.772 395.457 285.539C395.313 285.306 395.107 285.118 394.862 284.996C394.617 284.873 394.343 284.821 394.07 284.846C393.797 284.87 393.537 284.97 393.318 285.135L371.618 297.666C371.032 298.04 370.562 298.568 370.259 299.194C369.957 299.819 369.835 300.516 369.907 301.206L372.88 322.14C372.88 322.414 372.956 322.682 373.1 322.915C373.244 323.148 373.451 323.336 373.696 323.459C373.941 323.581 374.215 323.633 374.488 323.609C374.76 323.584 375.021 323.484 375.24 323.32L396.94 310.788C397.533 310.413 398.009 309.879 398.313 309.247C398.618 308.615 398.739 307.91 398.663 307.213Z" fill="#EBEBEB"/>
<path d="M432.221 287.92L429.236 267.022C429.236 266.748 429.159 266.479 429.015 266.246C428.871 266.013 428.665 265.825 428.42 265.703C428.175 265.58 427.901 265.528 427.628 265.553C427.355 265.577 427.095 265.678 426.876 265.842L405.175 278.373C404.591 278.748 404.121 279.276 403.819 279.901C403.517 280.526 403.394 281.223 403.465 281.913L406.438 302.811C406.442 303.083 406.521 303.349 406.666 303.58C406.811 303.81 407.016 303.996 407.26 304.118C407.503 304.24 407.775 304.292 408.047 304.27C408.318 304.247 408.578 304.151 408.798 303.991L430.498 291.46C431.085 291.087 431.557 290.559 431.861 289.934C432.165 289.309 432.29 288.611 432.221 287.92Z" fill="#EBEBEB"/>
<path d="M225.038 363.072L222.052 342.198C222.048 341.926 221.969 341.66 221.824 341.43C221.679 341.199 221.474 341.013 221.23 340.891C220.987 340.77 220.715 340.717 220.444 340.739C220.172 340.762 219.912 340.858 219.692 341.018L197.992 353.55C197.407 353.924 196.938 354.453 196.636 355.077C196.334 355.702 196.211 356.399 196.281 357.09L199.255 377.987C199.259 378.259 199.338 378.525 199.483 378.756C199.627 378.986 199.833 379.172 200.076 379.294C200.32 379.416 200.592 379.468 200.863 379.446C201.134 379.424 201.394 379.327 201.615 379.167L223.315 366.636C223.902 366.257 224.373 365.725 224.677 365.096C224.981 364.467 225.106 363.767 225.038 363.072Z" fill="#F30051"/>
<path d="M258.596 343.721L255.611 322.823C255.606 322.551 255.528 322.285 255.383 322.055C255.238 321.824 255.032 321.638 254.789 321.516C254.546 321.395 254.273 321.342 254.002 321.364C253.731 321.387 253.471 321.483 253.251 321.643L231.551 334.175C230.966 334.549 230.496 335.078 230.194 335.702C229.892 336.327 229.769 337.024 229.84 337.715L232.813 358.612C232.817 358.884 232.896 359.15 233.041 359.381C233.186 359.611 233.391 359.797 233.635 359.919C233.878 360.041 234.15 360.093 234.422 360.071C234.693 360.049 234.953 359.952 235.173 359.792L256.873 347.261C257.456 346.884 257.925 346.355 258.229 345.731C258.533 345.107 258.66 344.412 258.596 343.721Z" fill="#EBEBEB"/>
<path d="M292.157 324.369L289.171 303.471C289.167 303.199 289.088 302.933 288.943 302.703C288.798 302.473 288.593 302.287 288.35 302.165C288.106 302.043 287.834 301.99 287.563 302.013C287.291 302.035 287.032 302.131 286.811 302.291L265.111 314.823C264.526 315.197 264.057 315.726 263.755 316.351C263.453 316.976 263.33 317.672 263.4 318.363L266.374 339.261C266.378 339.533 266.457 339.799 266.602 340.029C266.747 340.259 266.952 340.446 267.195 340.567C267.439 340.689 267.711 340.742 267.982 340.719C268.253 340.697 268.513 340.601 268.734 340.441L290.434 327.909C291.017 327.533 291.486 327.004 291.79 326.38C292.093 325.756 292.22 325.06 292.157 324.369Z" fill="#EBEBEB"/>
<path d="M325.679 305.018L322.694 284.12C322.69 283.848 322.611 283.582 322.466 283.352C322.321 283.121 322.116 282.935 321.872 282.813C321.629 282.692 321.357 282.639 321.085 282.661C320.814 282.684 320.554 282.78 320.334 282.94L298.657 295.495C298.074 295.87 297.605 296.399 297.303 297.024C297.001 297.649 296.877 298.345 296.946 299.035L299.92 319.933C299.924 320.205 300.003 320.471 300.148 320.701C300.293 320.932 300.498 321.118 300.742 321.239C300.985 321.361 301.257 321.414 301.528 321.391C301.8 321.369 302.06 321.273 302.28 321.113L323.98 308.581C324.564 308.201 325.031 307.667 325.331 307.038C325.63 306.41 325.751 305.71 325.679 305.018Z" fill="#EBEBEB"/>
<path d="M359.273 285.666L356.288 264.78C356.288 264.506 356.212 264.237 356.068 264.004C355.924 263.771 355.718 263.583 355.473 263.46C355.228 263.338 354.953 263.286 354.68 263.311C354.408 263.335 354.147 263.435 353.928 263.6L332.216 276.119C331.632 276.495 331.163 277.024 330.861 277.648C330.56 278.273 330.436 278.969 330.505 279.659L333.478 300.557C333.483 300.829 333.562 301.095 333.706 301.326C333.851 301.556 334.057 301.742 334.3 301.864C334.544 301.986 334.816 302.038 335.087 302.016C335.358 301.994 335.618 301.897 335.838 301.737L357.539 289.182C358.121 288.81 358.591 288.286 358.896 287.666C359.202 287.046 359.332 286.354 359.273 285.666Z" fill="#EBEBEB"/>
<path d="M392.833 266.314L389.848 245.44C389.848 245.166 389.771 244.897 389.627 244.664C389.483 244.431 389.277 244.243 389.032 244.121C388.787 243.998 388.513 243.946 388.24 243.971C387.967 243.995 387.707 244.095 387.488 244.26L365.799 256.803C365.214 257.176 364.743 257.705 364.441 258.33C364.139 258.956 364.017 259.653 364.088 260.343L367.062 281.229C367.066 281.501 367.145 281.767 367.29 281.998C367.435 282.228 367.64 282.414 367.884 282.536C368.127 282.658 368.399 282.71 368.67 282.688C368.942 282.665 369.202 282.569 369.422 282.409L391.122 269.878C391.708 269.499 392.177 268.966 392.479 268.337C392.781 267.708 392.904 267.008 392.833 266.314Z" fill="#EBEBEB"/>
<path d="M426.392 246.974L423.406 226.077C423.406 225.803 423.33 225.534 423.186 225.301C423.042 225.068 422.836 224.88 422.591 224.757C422.346 224.635 422.072 224.583 421.799 224.608C421.526 224.632 421.266 224.732 421.046 224.897L399.334 237.428C398.752 237.804 398.285 238.333 397.985 238.958C397.685 239.583 397.564 240.279 397.635 240.968L400.609 261.854C400.613 262.126 400.692 262.392 400.837 262.622C400.982 262.853 401.187 263.039 401.43 263.161C401.674 263.282 401.946 263.335 402.217 263.313C402.489 263.29 402.748 263.194 402.969 263.034L424.669 250.514C425.251 250.137 425.719 249.608 426.023 248.984C426.326 248.36 426.454 247.665 426.392 246.974Z" fill="#EBEBEB"/>
<path d="M219.196 322.139L216.222 301.241C216.218 300.969 216.139 300.703 215.994 300.473C215.849 300.242 215.644 300.056 215.4 299.934C215.157 299.813 214.885 299.76 214.614 299.782C214.342 299.805 214.082 299.901 213.862 300.061L192.138 312.699C191.557 313.076 191.089 313.605 190.788 314.229C190.486 314.854 190.361 315.549 190.427 316.239L193.413 337.125C193.413 337.399 193.489 337.667 193.633 337.9C193.777 338.133 193.983 338.321 194.228 338.444C194.473 338.566 194.747 338.618 195.02 338.594C195.293 338.569 195.554 338.469 195.773 338.305L217.485 325.679C218.069 325.304 218.537 324.775 218.839 324.15C219.141 323.525 219.265 322.829 219.196 322.139Z" fill="#F30051"/>
<path d="M252.756 302.834L249.783 281.936C249.778 281.664 249.699 281.398 249.555 281.168C249.41 280.938 249.204 280.751 248.961 280.63C248.717 280.508 248.445 280.455 248.174 280.478C247.903 280.5 247.643 280.596 247.423 280.756L225.722 293.288C225.141 293.665 224.673 294.194 224.372 294.818C224.07 295.443 223.945 296.138 224.011 296.828L226.997 317.726C227.001 317.998 227.08 318.263 227.225 318.494C227.37 318.724 227.575 318.91 227.818 319.032C228.062 319.154 228.334 319.206 228.605 319.184C228.877 319.162 229.137 319.066 229.357 318.906L251.057 306.374C251.64 305.998 252.107 305.469 252.407 304.844C252.707 304.219 252.828 303.523 252.756 302.834Z" fill="#EBEBEB"/>
<path d="M286.314 283.482L283.341 262.585C283.336 262.313 283.257 262.047 283.113 261.816C282.968 261.586 282.762 261.4 282.519 261.278C282.275 261.156 282.003 261.104 281.732 261.126C281.461 261.148 281.201 261.245 280.981 261.405L259.28 273.936C258.699 274.314 258.233 274.844 257.931 275.468C257.63 276.092 257.505 276.786 257.569 277.476L260.555 298.374C260.559 298.646 260.638 298.912 260.783 299.142C260.928 299.373 261.133 299.559 261.376 299.681C261.62 299.802 261.892 299.855 262.163 299.833C262.435 299.81 262.694 299.714 262.915 299.554L284.615 287.022C285.197 286.647 285.665 286.117 285.965 285.492C286.265 284.868 286.386 284.172 286.314 283.482Z" fill="#EBEBEB"/>
<path d="M319.875 264.131L316.901 243.233C316.897 242.961 316.818 242.695 316.673 242.465C316.528 242.234 316.323 242.048 316.079 241.927C315.836 241.805 315.564 241.752 315.293 241.775C315.021 241.797 314.761 241.893 314.541 242.053L292.841 254.585C292.26 254.963 291.794 255.492 291.492 256.116C291.19 256.74 291.065 257.435 291.13 258.125L294.115 279.023C294.12 279.295 294.198 279.56 294.343 279.791C294.488 280.021 294.694 280.207 294.937 280.329C295.18 280.451 295.453 280.503 295.724 280.481C295.995 280.459 296.255 280.362 296.475 280.203L318.176 267.671C318.758 267.295 319.225 266.766 319.525 266.141C319.825 265.516 319.946 264.82 319.875 264.131Z" fill="#EBEBEB"/>
<path d="M353.433 244.779L350.46 223.882C350.455 223.609 350.377 223.344 350.232 223.113C350.087 222.883 349.881 222.697 349.638 222.575C349.395 222.453 349.122 222.401 348.851 222.423C348.58 222.445 348.32 222.542 348.1 222.702L326.399 235.233C325.819 235.611 325.352 236.141 325.051 236.765C324.749 237.389 324.624 238.083 324.689 238.773L327.674 259.671C327.678 259.943 327.757 260.209 327.902 260.439C328.047 260.67 328.252 260.856 328.496 260.978C328.739 261.099 329.011 261.152 329.282 261.129C329.554 261.107 329.814 261.011 330.034 260.851L351.734 248.319C352.317 247.944 352.784 247.414 353.084 246.789C353.384 246.164 353.505 245.469 353.433 244.779Z" fill="#EBEBEB"/>
<path d="M387.04 225.381L384.066 204.483C384.062 204.211 383.983 203.945 383.838 203.715C383.693 203.484 383.488 203.298 383.244 203.176C383.001 203.055 382.729 203.002 382.457 203.025C382.186 203.047 381.926 203.143 381.706 203.303L359.9 215.941C359.319 216.319 358.852 216.848 358.551 217.472C358.249 218.096 358.124 218.791 358.189 219.481L361.174 240.379C361.178 240.651 361.257 240.917 361.402 241.147C361.547 241.377 361.752 241.564 361.996 241.685C362.239 241.807 362.511 241.86 362.782 241.837C363.054 241.815 363.314 241.719 363.534 241.559L385.281 228.921C385.876 228.554 386.355 228.028 386.666 227.402C386.977 226.776 387.106 226.076 387.04 225.381Z" fill="#EBEBEB"/>
<path d="M420.551 206.076L417.578 185.19C417.573 184.918 417.494 184.652 417.349 184.422C417.205 184.191 416.999 184.005 416.756 183.884C416.512 183.762 416.24 183.709 415.969 183.732C415.698 183.754 415.438 183.85 415.218 184.01L393.517 196.53C392.935 196.907 392.468 197.436 392.167 198.061C391.865 198.685 391.74 199.38 391.806 200.07L394.792 220.968C394.796 221.24 394.875 221.506 395.02 221.736C395.165 221.966 395.37 222.153 395.613 222.274C395.857 222.396 396.129 222.449 396.4 222.426C396.672 222.404 396.931 222.308 397.152 222.148L418.899 209.593C419.47 209.214 419.926 208.686 420.217 208.066C420.509 207.446 420.624 206.757 420.551 206.076Z" fill="#EBEBEB"/>
<path d="M213.367 281.287L210.382 260.401C210.382 260.127 210.305 259.858 210.161 259.625C210.017 259.392 209.811 259.204 209.566 259.082C209.321 258.959 209.047 258.907 208.774 258.932C208.501 258.956 208.241 259.056 208.022 259.221L186.321 271.741C185.738 272.116 185.269 272.645 184.967 273.269C184.665 273.894 184.542 274.59 184.61 275.281L187.619 296.178C187.619 296.452 187.696 296.721 187.84 296.954C187.984 297.187 188.19 297.375 188.435 297.498C188.68 297.62 188.954 297.672 189.227 297.647C189.5 297.623 189.76 297.523 189.979 297.358L211.68 284.827C212.261 284.451 212.726 283.921 213.024 283.296C213.322 282.671 213.441 281.975 213.367 281.287Z" fill="#F30051"/>
<path d="M246.927 261.959L243.941 241.073C243.941 240.799 243.865 240.53 243.721 240.297C243.577 240.064 243.371 239.876 243.126 239.753C242.881 239.631 242.607 239.579 242.334 239.604C242.061 239.628 241.801 239.728 241.581 239.893L219.881 252.424C219.296 252.797 218.825 253.326 218.523 253.951C218.221 254.577 218.099 255.274 218.17 255.964L221.156 276.85C221.156 277.124 221.232 277.393 221.376 277.626C221.52 277.859 221.726 278.047 221.971 278.17C222.216 278.292 222.49 278.344 222.763 278.319C223.036 278.295 223.297 278.195 223.516 278.03L245.216 265.499C245.802 265.126 246.272 264.597 246.574 263.972C246.876 263.346 246.998 262.649 246.927 261.959Z" fill="#EBEBEB"/>
<path d="M280.485 242.595L277.5 221.698C277.5 221.424 277.424 221.155 277.28 220.922C277.136 220.689 276.93 220.501 276.685 220.378C276.44 220.256 276.165 220.204 275.893 220.229C275.62 220.253 275.359 220.353 275.14 220.518L253.44 233.049C252.854 233.422 252.384 233.951 252.082 234.576C251.78 235.202 251.657 235.899 251.729 236.589L254.714 257.475C254.714 257.749 254.791 258.018 254.935 258.251C255.079 258.484 255.285 258.672 255.53 258.795C255.775 258.917 256.049 258.969 256.322 258.944C256.595 258.92 256.855 258.82 257.074 258.655L278.774 246.135C279.358 245.76 279.827 245.231 280.129 244.607C280.431 243.982 280.554 243.286 280.485 242.595Z" fill="#EBEBEB"/>
<path d="M314.044 223.244L311.059 202.346C311.059 202.072 310.982 201.804 310.838 201.571C310.694 201.338 310.488 201.149 310.243 201.027C309.998 200.904 309.724 200.852 309.451 200.877C309.178 200.902 308.918 201.002 308.699 201.166L286.998 213.698C286.413 214.071 285.943 214.6 285.64 215.225C285.338 215.85 285.216 216.547 285.287 217.238L288.261 238.135C288.265 238.408 288.344 238.673 288.489 238.904C288.634 239.134 288.839 239.32 289.083 239.442C289.326 239.564 289.598 239.616 289.87 239.594C290.141 239.572 290.401 239.475 290.621 239.315L312.321 226.784C312.907 226.41 313.378 225.882 313.682 225.257C313.986 224.632 314.112 223.935 314.044 223.244Z" fill="#EBEBEB"/>
<path d="M347.605 203.892L344.619 182.995C344.619 182.721 344.543 182.452 344.399 182.219C344.255 181.986 344.049 181.798 343.804 181.675C343.559 181.553 343.285 181.501 343.012 181.525C342.739 181.55 342.478 181.65 342.259 181.815L320.559 194.346C319.973 194.719 319.503 195.248 319.201 195.873C318.899 196.498 318.777 197.195 318.848 197.886L321.822 218.784C321.826 219.056 321.905 219.322 322.05 219.552C322.195 219.783 322.4 219.969 322.643 220.091C322.887 220.212 323.159 220.265 323.43 220.242C323.701 220.22 323.961 220.124 324.182 219.964L345.882 207.432C346.469 207.06 346.941 206.531 347.245 205.906C347.549 205.281 347.674 204.584 347.605 203.892Z" fill="#EBEBEB"/>
<path d="M381.139 184.541L378.154 163.643C378.154 163.369 378.077 163.101 377.933 162.868C377.789 162.635 377.583 162.446 377.338 162.324C377.093 162.201 376.819 162.149 376.546 162.174C376.273 162.199 376.013 162.299 375.794 162.463L354.093 174.995C353.509 175.369 353.039 175.898 352.737 176.523C352.435 177.147 352.312 177.844 352.382 178.535L355.368 199.421C355.372 199.693 355.451 199.958 355.596 200.189C355.741 200.419 355.946 200.605 356.19 200.727C356.433 200.849 356.705 200.901 356.976 200.879C357.248 200.857 357.508 200.76 357.728 200.601L379.428 188.069C380.011 187.696 380.479 187.169 380.781 186.546C381.083 185.923 381.207 185.229 381.139 184.541Z" fill="#EBEBEB"/>
<path d="M414.723 165.201L411.738 144.303C411.738 144.029 411.661 143.761 411.517 143.528C411.373 143.295 411.167 143.106 410.922 142.984C410.677 142.861 410.403 142.809 410.13 142.834C409.857 142.859 409.597 142.959 409.378 143.123L387.677 155.655C387.093 156.029 386.623 156.558 386.321 157.183C386.019 157.808 385.896 158.504 385.966 159.195L388.94 180.093C388.944 180.365 389.023 180.63 389.168 180.861C389.313 181.091 389.518 181.277 389.762 181.399C390.005 181.521 390.277 181.573 390.549 181.551C390.82 181.529 391.08 181.432 391.3 181.273L413 168.741C413.587 168.368 414.059 167.84 414.363 167.215C414.667 166.59 414.792 165.893 414.723 165.201Z" fill="#EBEBEB"/>
<path d="M208.21 244.355L207.455 239.022C207.455 238.748 207.378 238.479 207.234 238.246C207.09 238.013 206.884 237.825 206.639 237.703C206.394 237.58 206.12 237.528 205.847 237.553C205.574 237.577 205.314 237.678 205.095 237.842L183.383 250.397C182.798 250.771 182.328 251.3 182.026 251.925C181.724 252.55 181.601 253.246 181.672 253.937L182.415 259.271C182.419 259.543 182.498 259.809 182.643 260.039C182.788 260.269 182.993 260.456 183.237 260.577C183.48 260.699 183.752 260.752 184.023 260.729C184.295 260.707 184.555 260.611 184.775 260.451L206.499 247.872C207.077 247.497 207.542 246.971 207.843 246.352C208.145 245.732 208.271 245.042 208.21 244.355Z" fill="#E6E6E6"/>
<path d="M241.77 225L241.015 219.666C241.015 219.392 240.939 219.124 240.795 218.891C240.651 218.658 240.445 218.47 240.2 218.347C239.955 218.225 239.68 218.173 239.408 218.197C239.135 218.222 238.874 218.322 238.655 218.486L216.943 231.042C216.358 231.416 215.889 231.945 215.587 232.57C215.285 233.195 215.162 233.891 215.232 234.582L215.975 239.915C215.98 240.187 216.059 240.453 216.204 240.683C216.348 240.914 216.554 241.1 216.797 241.222C217.041 241.344 217.313 241.396 217.584 241.374C217.855 241.351 218.115 241.255 218.335 241.095L240.047 228.564C240.635 228.186 241.107 227.654 241.411 227.025C241.715 226.396 241.84 225.695 241.77 225Z" fill="#E6E6E6"/>
<path d="M275.329 205.649L274.574 200.315C274.569 200.043 274.491 199.777 274.346 199.547C274.201 199.316 273.995 199.13 273.752 199.009C273.509 198.887 273.236 198.834 272.965 198.857C272.694 198.879 272.434 198.975 272.214 199.135L250.502 211.69C249.917 212.064 249.447 212.593 249.145 213.218C248.843 213.843 248.721 214.54 248.791 215.23L249.534 220.564C249.534 220.838 249.61 221.106 249.754 221.339C249.898 221.572 250.104 221.761 250.349 221.883C250.594 222.006 250.869 222.058 251.142 222.033C251.414 222.008 251.675 221.908 251.894 221.744L273.606 209.212C274.194 208.835 274.666 208.302 274.97 207.673C275.274 207.045 275.398 206.344 275.329 205.649Z" fill="#E6E6E6"/>
<path d="M308.887 186.309L308.132 180.964C308.128 180.691 308.049 180.426 307.904 180.195C307.759 179.965 307.554 179.779 307.311 179.657C307.067 179.535 306.795 179.483 306.524 179.505C306.252 179.527 305.993 179.624 305.772 179.784L284.06 192.339C283.476 192.713 283.006 193.242 282.704 193.867C282.402 194.492 282.279 195.188 282.349 195.879L283.093 201.212C283.093 201.486 283.169 201.755 283.313 201.988C283.457 202.221 283.663 202.409 283.908 202.532C284.153 202.654 284.427 202.706 284.7 202.681C284.973 202.657 285.234 202.557 285.453 202.392L307.165 189.873C307.751 189.493 308.221 188.96 308.525 188.332C308.829 187.704 308.954 187.004 308.887 186.309Z" fill="#E6E6E6"/>
<path d="M342.447 166.957L341.692 161.612C341.688 161.34 341.609 161.074 341.464 160.844C341.319 160.613 341.114 160.427 340.87 160.305C340.627 160.184 340.355 160.131 340.084 160.153C339.812 160.176 339.552 160.272 339.332 160.432L317.62 172.987C317.036 173.362 316.568 173.891 316.266 174.516C315.964 175.141 315.84 175.837 315.909 176.527L316.653 181.861C316.653 182.135 316.729 182.403 316.873 182.636C317.017 182.869 317.223 183.058 317.468 183.18C317.713 183.303 317.987 183.354 318.26 183.33C318.533 183.305 318.793 183.205 319.013 183.041L340.725 170.521C341.31 170.142 341.781 169.609 342.085 168.98C342.389 168.352 342.514 167.652 342.447 166.957Z" fill="#E6E6E6"/>
<path d="M376.006 147.605L375.251 142.272C375.251 141.998 375.174 141.729 375.03 141.496C374.886 141.263 374.68 141.075 374.435 140.953C374.19 140.83 373.916 140.778 373.643 140.803C373.37 140.827 373.11 140.928 372.891 141.092L351.179 153.635C350.595 154.01 350.126 154.539 349.824 155.164C349.522 155.789 349.399 156.485 349.468 157.175L350.211 162.521C350.215 162.793 350.294 163.059 350.439 163.289C350.584 163.519 350.789 163.706 351.033 163.827C351.276 163.949 351.548 164.002 351.82 163.979C352.091 163.957 352.351 163.861 352.571 163.701L374.283 151.169C374.87 150.791 375.341 150.258 375.645 149.629C375.949 149.001 376.074 148.3 376.006 147.605Z" fill="#E6E6E6"/>
<path d="M409.554 128.254L408.811 122.92C408.811 122.646 408.734 122.378 408.59 122.145C408.446 121.912 408.24 121.724 407.995 121.601C407.75 121.479 407.476 121.427 407.203 121.451C406.93 121.476 406.67 121.576 406.451 121.74L384.75 134.272C384.165 134.645 383.695 135.174 383.392 135.799C383.09 136.424 382.968 137.121 383.039 137.812L383.783 143.146C383.787 143.418 383.866 143.683 384.011 143.914C384.156 144.144 384.361 144.33 384.605 144.452C384.848 144.574 385.12 144.626 385.391 144.604C385.663 144.582 385.923 144.485 386.143 144.326L407.855 131.794C408.436 131.417 408.903 130.888 409.203 130.263C409.502 129.638 409.624 128.943 409.554 128.254Z" fill="#E6E6E6"/>
<path opacity="0.2" d="M182.899 212.85C182.792 211.29 183.114 209.732 183.829 208.342C184.545 206.953 185.627 205.786 186.958 204.967C189.601 203.445 192.068 204.495 192.481 207.327C192.59 208.888 192.268 210.449 191.55 211.839C190.832 213.229 189.746 214.395 188.41 215.21C185.778 216.732 183.312 215.682 182.899 212.85Z" fill="black"/>
<path opacity="0.2" d="M216.494 193.521C216.384 191.962 216.705 190.402 217.421 189.012C218.136 187.622 219.22 186.455 220.553 185.639C223.196 184.105 225.662 185.155 226.075 187.999C226.184 189.558 225.861 191.117 225.143 192.505C224.425 193.893 223.339 195.057 222.004 195.869C219.361 197.344 216.895 196.294 216.494 193.521Z" fill="black"/>
<path opacity="0.2" d="M250.017 174.107C249.908 172.548 250.228 170.988 250.944 169.598C251.66 168.208 252.743 167.041 254.076 166.225C256.719 164.691 259.197 165.741 259.599 168.585C259.707 170.142 259.386 171.7 258.67 173.088C257.954 174.476 256.872 175.641 255.539 176.455C252.896 177.977 250.418 176.927 250.017 174.107Z" fill="black"/>
<path opacity="0.2" d="M317.113 135.369C317.003 133.81 317.324 132.25 318.04 130.86C318.755 129.47 319.839 128.303 321.172 127.487C323.815 125.964 326.281 127.015 326.683 129.847C326.797 131.407 326.479 132.968 325.763 134.359C325.046 135.75 323.96 136.916 322.623 137.729C319.98 139.239 317.514 138.201 317.113 135.369Z" fill="black"/>
<path opacity="0.2" d="M350.696 115.994C350.584 114.434 350.903 112.873 351.619 111.483C352.335 110.093 353.42 108.926 354.755 108.111C357.398 106.577 359.864 107.628 360.277 110.471C360.387 112.032 360.065 113.593 359.347 114.983C358.629 116.374 357.542 117.54 356.206 118.354C353.563 119.864 351.097 118.814 350.696 115.994Z" fill="black"/>
<path opacity="0.2" d="M384.22 96.6305C384.111 95.071 384.431 93.5114 385.147 92.1215C385.863 90.7317 386.946 89.5648 388.279 88.7481C390.923 87.2141 393.401 88.2643 393.802 91.1081C393.91 92.6659 393.589 94.2235 392.873 95.6114C392.158 96.9992 391.075 98.1639 389.743 98.9787C387.04 100.501 384.68 99.4507 384.22 96.6305Z" fill="black"/>
<path d="M179.431 180.966C175.891 178.901 172.421 178.606 169.778 180.128C167.135 181.65 165.672 184.765 165.672 188.907C165.695 190.844 165.981 192.77 166.521 194.63L168.622 193.45C168.245 191.973 168.047 190.455 168.032 188.931C168.032 185.674 169.07 183.278 170.958 182.193C171.733 181.76 172.608 181.54 173.495 181.556C175.169 181.635 176.794 182.143 178.215 183.031C184.493 186.665 189.602 195.515 189.602 202.76C189.606 203.277 189.578 203.793 189.52 204.306C189.491 205.333 189.219 206.34 188.727 207.242C188.235 208.144 187.536 208.917 186.688 209.498C185.606 210.082 184.358 210.282 183.148 210.064C182.909 210.827 182.81 211.626 182.853 212.424C183.294 212.494 183.74 212.53 184.186 212.531C185.486 212.547 186.766 212.213 187.891 211.563C188.945 210.902 189.838 210.015 190.505 208.966C191.173 207.917 191.598 206.732 191.75 205.498C191.909 204.602 191.988 203.694 191.986 202.784C191.998 194.701 186.357 184.966 179.431 180.966Z" fill="#F5F5F5"/>
<path d="M213.013 161.587C209.473 159.522 206.004 159.227 203.36 160.749C200.717 162.271 199.254 165.386 199.254 169.528C199.277 171.465 199.563 173.391 200.104 175.251L202.204 174.071C201.827 172.594 201.629 171.076 201.614 169.552C201.614 166.295 202.652 163.899 204.54 162.814C205.315 162.381 206.19 162.161 207.077 162.177C208.751 162.257 210.376 162.764 211.797 163.652C218.075 167.286 223.184 176.136 223.184 183.381C223.188 183.898 223.16 184.414 223.102 184.927C223.073 185.955 222.801 186.961 222.309 187.863C221.817 188.765 221.118 189.538 220.27 190.119C219.188 190.703 217.94 190.903 216.73 190.685C216.491 191.448 216.392 192.248 216.435 193.045C216.876 193.116 217.322 193.151 217.768 193.152C219.068 193.168 220.348 192.834 221.473 192.184C222.527 191.523 223.42 190.636 224.087 189.587C224.755 188.538 225.18 187.353 225.332 186.119C225.491 185.223 225.57 184.315 225.568 183.405C225.58 175.357 219.939 165.587 213.013 161.587Z" fill="#F5F5F5"/>
<path d="M246.536 142.223C242.996 140.158 239.527 139.863 236.884 141.386C234.241 142.908 232.777 146.023 232.777 150.165C232.8 152.102 233.086 154.027 233.627 155.888L235.727 154.708C235.35 153.23 235.152 151.713 235.137 150.188C235.137 146.932 236.176 144.536 238.064 143.451C238.838 143.018 239.714 142.798 240.601 142.813C242.274 142.893 243.899 143.401 245.321 144.288C251.598 147.923 256.708 156.773 256.708 164.018C256.711 164.534 256.684 165.051 256.625 165.564C256.596 166.591 256.325 167.597 255.832 168.5C255.34 169.402 254.641 170.175 253.793 170.756C252.711 171.34 251.463 171.54 250.253 171.322C250.015 172.085 249.915 172.884 249.958 173.682C250.399 173.752 250.845 173.788 251.292 173.788C252.591 173.805 253.871 173.47 254.997 172.821C256.05 172.16 256.943 171.273 257.611 170.224C258.278 169.175 258.703 167.99 258.855 166.756C259.014 165.86 259.093 164.951 259.091 164.042C259.103 155.994 253.463 146.224 246.536 142.223Z" fill="#F5F5F5"/>
<path d="M313.644 103.544C310.104 101.479 306.634 101.184 303.991 102.706C301.348 104.228 299.885 107.343 299.885 111.485C299.908 113.422 300.194 115.348 300.734 117.208L302.835 116.028C302.458 114.551 302.26 113.033 302.245 111.509C302.245 108.252 303.283 105.857 305.171 104.771C305.946 104.338 306.821 104.118 307.708 104.134C309.382 104.214 311.007 104.721 312.428 105.609C318.706 109.243 323.815 118.093 323.815 125.338C323.819 125.855 323.791 126.371 323.733 126.884C323.704 127.912 323.432 128.918 322.94 129.82C322.448 130.722 321.749 131.496 320.901 132.076C319.819 132.66 318.571 132.86 317.361 132.643C317.122 133.405 317.022 134.205 317.066 135.003C317.507 135.073 317.952 135.108 318.399 135.109C319.699 135.125 320.978 134.791 322.104 134.141C323.158 133.48 324.051 132.593 324.718 131.544C325.386 130.495 325.811 129.31 325.963 128.076C326.122 127.18 326.201 126.272 326.199 125.362C326.211 117.314 320.57 107.544 313.644 103.544Z" fill="#F5F5F5"/>
<path d="M347.226 84.157C343.686 82.092 340.216 81.797 337.573 83.3192C334.93 84.8414 333.467 87.9566 333.467 92.0984C333.49 94.0357 333.776 95.9609 334.316 97.8214L336.417 96.6414C336.04 95.164 335.842 93.6467 335.827 92.122C335.827 88.8652 336.865 86.4698 338.753 85.3842C339.528 84.9516 340.403 84.7318 341.29 84.747C342.964 84.8268 344.589 85.3347 346.01 86.222C352.288 89.8564 357.397 98.7064 357.397 105.952C357.401 106.468 357.373 106.984 357.315 107.497C357.286 108.525 357.014 109.531 356.522 110.433C356.03 111.336 355.331 112.109 354.483 112.689C353.401 113.274 352.153 113.473 350.943 113.256C350.704 114.019 350.604 114.818 350.648 115.616C351.089 115.686 351.534 115.721 351.981 115.722C353.281 115.738 354.56 115.404 355.686 114.754C356.74 114.094 357.633 113.207 358.3 112.157C358.968 111.108 359.393 109.923 359.545 108.689C359.704 107.793 359.783 106.885 359.781 105.975C359.793 97.9394 354.152 88.1572 347.226 84.157Z" fill="#F5F5F5"/>
<path d="M380.751 64.7937C377.211 62.7287 373.742 62.4337 371.099 63.9559C368.455 65.4781 366.98 68.5933 366.98 72.7351C367.004 74.6724 367.289 76.5976 367.83 78.4581L369.93 77.2781C369.553 75.8007 369.355 74.2834 369.34 72.7587C369.34 69.5019 370.379 67.1065 372.267 66.0209C373.041 65.5883 373.917 65.3685 374.804 65.3837C376.477 65.4635 378.103 65.9714 379.524 66.8587C385.801 70.4931 390.911 79.3431 390.911 86.5883C390.914 87.1048 390.887 87.621 390.828 88.1341C390.799 89.1616 390.528 90.1677 390.036 91.0701C389.543 91.9724 388.845 92.7455 387.996 93.3261C386.914 93.9104 385.666 94.1101 384.456 93.8925C384.218 94.6553 384.118 95.4545 384.161 96.2525C384.602 96.3226 385.048 96.3581 385.495 96.3587C386.794 96.3749 388.074 96.0406 389.2 95.3911C390.253 94.7304 391.146 93.8432 391.814 92.7941C392.481 91.7449 392.906 90.5601 393.058 89.3259C393.217 88.43 393.296 87.5218 393.294 86.6119C393.318 78.5643 387.678 68.7939 380.751 64.7937Z" fill="#F5F5F5"/>
<path d="M415.619 371.7L407.689 385.47C407.168 386.331 407.01 387.363 407.25 388.34C407.49 389.317 408.109 390.159 408.969 390.68C409.83 391.201 410.862 391.359 411.839 391.119C412.816 390.879 413.658 390.26 414.179 389.4L422.156 375.546C422.923 374.225 422.097 372.301 420.303 371.263C418.51 370.225 416.386 370.413 415.619 371.7Z" fill="#455A64"/>
<path d="M478.726 347.452L492.496 355.381C492.92 355.643 493.391 355.819 493.882 355.897C494.374 355.975 494.876 355.954 495.36 355.836C495.844 355.719 496.299 355.506 496.7 355.21C497.1 354.914 497.438 354.542 497.693 354.114C497.948 353.687 498.116 353.213 498.186 352.72C498.257 352.227 498.228 351.725 498.102 351.244C497.977 350.762 497.756 350.31 497.454 349.914C497.152 349.519 496.775 349.187 496.343 348.939L482.49 341.021C481.168 340.254 479.245 341.08 478.207 342.873C477.168 344.667 477.404 346.685 478.726 347.452Z" fill="#455A64"/>
<path d="M493.982 285.371H493.911L460.364 266.007H460.269C452.906 261.818 442.758 262.467 431.56 268.91C409.057 281.89 390.814 313.502 390.814 339.485C390.814 352.465 395.357 361.54 402.685 365.811H402.744L436.292 385.187H436.374C443.737 389.399 453.897 388.727 465.107 382.296C487.598 369.316 505.841 337.703 505.841 311.732C505.841 298.752 501.31 289.642 493.982 285.371Z" fill="#F30051"/>
<path opacity="0.1" d="M435.749 384.798L402.709 365.753H402.638C395.31 361.47 390.779 352.36 390.779 339.427C390.779 327.84 394.414 315.143 400.42 303.484L433.967 322.848C427.949 334.507 424.327 347.203 424.327 358.791C424.35 371.417 428.693 380.409 435.749 384.798Z" fill="black"/>
<path opacity="0.4" d="M493.915 351.849C509.826 324.29 509.827 294.502 493.917 285.317C478.007 276.131 452.211 291.026 436.3 318.584C420.389 346.143 420.388 375.931 436.298 385.116C452.208 394.302 478.004 379.408 493.915 351.849Z" fill="white"/>
<path d="M446.901 379.572C434.015 379.572 432.623 365.01 432.623 358.745C432.623 335.829 449.391 306.825 469.203 295.331C474.253 292.417 479.115 290.883 483.269 290.883C496.154 290.883 497.547 305.444 497.547 311.71C497.547 334.625 480.779 363.63 460.967 375.123C455.904 378.038 451.043 379.572 446.901 379.572Z" fill="#FAFAFA"/>
<path d="M456.07 361.777C456.007 361.788 455.943 361.788 455.881 361.777C455.734 361.723 455.613 361.614 455.545 361.473C455.476 361.332 455.466 361.17 455.515 361.022L464.542 335.239C464.594 335.09 464.702 334.968 464.844 334.899C464.985 334.831 465.149 334.821 465.297 334.873C465.446 334.924 465.568 335.033 465.637 335.175C465.705 335.316 465.715 335.479 465.663 335.628L456.66 361.375C456.62 361.499 456.541 361.605 456.434 361.678C456.327 361.751 456.199 361.785 456.07 361.777Z" fill="#F30051"/>
<path d="M478.631 343.012C478.391 343.017 478.153 342.968 477.934 342.871L463.338 336.558V310.079C463.338 309.609 463.524 309.159 463.856 308.827C464.188 308.495 464.638 308.309 465.108 308.309C465.577 308.309 466.028 308.495 466.359 308.827C466.691 309.159 466.878 309.609 466.878 310.079V334.233L479.339 339.626C479.708 339.79 480.01 340.077 480.194 340.437C480.378 340.797 480.433 341.209 480.351 341.605C480.268 342 480.052 342.356 479.739 342.612C479.426 342.868 479.035 343.01 478.631 343.012Z" fill="#37474F"/>
<path d="M465.107 329.693C467.75 328.159 469.898 329.398 469.898 332.455C469.8 334.11 469.315 335.719 468.483 337.153C467.651 338.588 466.495 339.807 465.107 340.715C462.452 342.249 460.305 341.01 460.305 337.942C460.406 336.287 460.893 334.68 461.727 333.248C462.561 331.815 463.719 330.598 465.107 329.693Z" fill="#F30051"/>
<path d="M426.121 310.695C420.339 320.689 409.448 325.221 401.259 320.489C396.455 317.711 392.951 313.139 391.518 307.778C390.085 302.418 390.841 296.707 393.618 291.903C396.396 287.099 400.968 283.596 406.329 282.163C411.689 280.73 417.4 281.485 422.204 284.263C430.369 289.101 431.88 300.688 426.121 310.695Z" fill="#455A64"/>
<path d="M401.257 320.486C409.446 325.206 420.338 320.687 426.12 310.692C427.412 308.451 428.37 306.035 428.964 303.518C428.633 303.954 419.004 316.226 407.039 312.769C394.862 309.229 392.572 299.871 393.623 291.895C392.246 294.273 391.352 296.899 390.99 299.624C390.629 302.348 390.808 305.117 391.517 307.772C392.226 310.427 393.451 312.916 395.122 315.098C396.793 317.279 398.878 319.11 401.257 320.486Z" fill="#37474F"/>
<path d="M397.895 289.867L391.688 286.327C391.265 286.065 390.794 285.89 390.302 285.812C389.811 285.734 389.308 285.754 388.825 285.872C388.341 285.99 387.886 286.203 387.485 286.499C387.084 286.795 386.747 287.167 386.492 287.594C386.236 288.022 386.069 288.496 385.998 288.989C385.928 289.481 385.957 289.983 386.082 290.465C386.208 290.947 386.428 291.399 386.73 291.794C387.032 292.19 387.41 292.522 387.842 292.77L394.119 296.405C395.453 297.172 397.376 296.346 398.414 294.552C399.453 292.758 399.217 290.634 397.895 289.867Z" fill="#F30051"/>
<path d="M490.479 259.93L494.019 253.735C494.281 253.312 494.456 252.841 494.534 252.349C494.612 251.857 494.592 251.355 494.474 250.871C494.356 250.388 494.143 249.932 493.847 249.532C493.552 249.131 493.179 248.794 492.752 248.538C492.324 248.283 491.85 248.116 491.358 248.045C490.865 247.975 490.363 248.004 489.881 248.129C489.399 248.255 488.947 248.475 488.552 248.777C488.156 249.079 487.824 249.457 487.576 249.888L483.942 256.166C483.175 257.488 483.942 259.411 485.794 260.449C487.647 261.488 489.7 261.264 490.479 259.93Z" fill="#F30051"/>
<path d="M460.494 262.491C461.869 260.109 463.7 258.02 465.883 256.346C468.065 254.671 470.556 253.442 473.213 252.73C475.87 252.018 478.642 251.836 481.369 252.195C484.097 252.553 486.727 253.446 489.109 254.821C491.492 256.197 493.58 258.028 495.255 260.21C496.93 262.392 498.158 264.883 498.871 267.54C499.583 270.197 499.765 272.969 499.406 275.696C499.047 278.424 498.154 281.054 496.779 283.436L460.494 262.491Z" fill="#455A64"/>
<path d="M492.178 257.051C493.358 259.517 496.567 269.96 492.178 272.556C487.788 275.152 467.516 266.538 467.516 266.538L496.78 283.436C499.217 279.193 500.091 274.231 499.25 269.411C498.41 264.591 495.907 260.218 492.178 257.051Z" fill="#37474F"/>
<path d="M359.747 316.843C338.861 288.77 331.994 285.643 328.064 284.688L334.956 303.568L349.281 321.94" fill="#FFA8A7"/>
<path d="M326.023 284.382C326.023 284.382 330.46 283.037 336.879 289.327C343.299 295.616 351.039 304.785 351.039 304.785C351.039 304.785 348.951 312.278 342.425 314.602L332.985 304.785L326.023 284.382Z" fill="#F30051"/>
<path opacity="0.1" d="M326.023 284.382C326.023 284.382 330.46 283.037 336.879 289.327C343.299 295.616 351.039 304.785 351.039 304.785C351.039 304.785 348.951 312.278 342.425 314.602L332.985 304.785L326.023 284.382Z" fill="black"/>
<path d="M330.09 268.848C336.534 267.327 340.525 260.87 339.004 254.426C337.483 247.982 331.026 243.991 324.582 245.512C318.138 247.033 314.147 253.49 315.668 259.934C317.189 266.378 323.646 270.369 330.09 268.848Z" fill="#263238"/>
<path d="M298.635 474.504H307.084V460.049H298.635V474.504Z" fill="#FFA8A7"/>
<path d="M326.176 464L334.613 464.295L335.038 448.99L326.589 448.695L326.176 464Z" fill="#FFA8A7"/>
<path d="M299.177 345.434V403.855C298.976 406.215 297.265 410.192 296.817 420.069C296.25 432.187 298.103 465.534 298.103 465.534C298.103 465.534 302.056 469.463 307.649 465.534C307.649 465.534 315.142 417.933 316.664 405.932C317.986 395.454 320.204 366.992 320.204 366.992L325.255 409.862C325.255 409.862 323.874 417.732 323.579 423.278C323.284 428.824 326.01 458.478 326.01 458.478C327.379 459.333 328.948 459.814 330.56 459.874C332.173 459.934 333.773 459.571 335.202 458.82C335.202 458.82 340.984 414.393 341.857 409.378C342.73 404.363 338.683 345.422 338.683 345.422L299.177 345.434Z" fill="#37474F"/>
<path d="M307.296 287.084C306.113 287.248 304.948 287.52 303.815 287.898C301.455 288.806 300.429 291.662 299.874 294.175C299.41 296.284 299.176 298.436 299.178 300.595V345.435C305.078 351.877 325.751 354.875 338.684 345.435C338.684 345.435 338.436 305.834 337.504 299.32C335.817 288.016 330.424 283.98 324.973 284.405L311.934 286.269L307.296 287.084Z" fill="#F30051"/>
<path d="M306.611 265.691C306.611 265.691 308.558 274.813 309.337 276.311C309.852 277.231 310.695 277.922 311.697 278.247L311.556 271.816L306.611 265.691Z" fill="#263238"/>
<path d="M309.055 252.603C308.375 252.526 307.686 252.603 307.04 252.83C306.394 253.057 305.808 253.427 305.326 253.913C303.733 255.553 304.63 260.675 306.612 265.713L310.282 266.126L309.055 252.603Z" fill="#263238"/>
<path d="M311.379 266.103C310.635 266.552 309.597 265.136 308.688 264.192C307.78 263.248 304.83 261.95 303.355 265.053C301.88 268.156 304.653 272.404 306.977 273.136C310.989 274.387 311.591 271.814 311.591 271.814L311.898 286.281C312.783 288.221 314.136 289.912 315.835 291.201C317.534 292.49 319.526 293.338 321.633 293.668C328.713 294.624 327.273 288.771 324.937 285.892V281.49C326.723 281.777 328.535 281.872 330.341 281.774C333.291 281.313 335.144 278.989 336.041 275.803C337.48 270.67 338.023 266.54 336.808 256.451C335.462 245.406 322.648 245.288 315.674 249.654C308.7 254.02 311.379 266.103 311.379 266.103Z" fill="#FFA8A7"/>
<path d="M311.379 267.342C311.002 267.342 309.597 264.982 308.689 264.191C307.426 263.011 309.055 252.603 309.055 252.603C308.717 251.705 308.648 250.727 308.858 249.79C309.067 248.853 309.546 247.998 310.235 247.329C311.957 245.417 314.86 245.217 319.804 244.438C322.4 244.025 326.342 243.258 328.938 242.821C332.029 242.243 334.59 241.641 336.773 243.529C337.634 244.269 338.243 245.258 338.516 246.36C338.788 247.462 338.711 248.621 338.295 249.677C338.07 250.161 337.771 250.606 337.41 250.999C336.785 251.695 336.678 252.639 335.793 252.922C335.793 252.922 333.917 254.621 329.221 255.188C324.896 255.511 320.55 255.428 316.241 254.94C314.872 254.751 314.506 255.188 313.775 258.787C313.149 261.961 312.618 267.318 311.379 267.342Z" fill="#263238"/>
<path d="M309.066 253.419L304.629 251.059C304.769 250.76 304.969 250.492 305.216 250.273C305.463 250.054 305.752 249.887 306.066 249.783C306.38 249.679 306.711 249.641 307.04 249.669C307.369 249.698 307.689 249.793 307.98 249.95C308.568 250.281 309.008 250.825 309.21 251.469C309.411 252.114 309.36 252.811 309.066 253.419Z" fill="#263238"/>
<path d="M324.925 281.488C324.925 281.488 318.352 280.167 316.051 278.94C314.697 278.238 313.587 277.144 312.865 275.801C313.216 277.143 313.829 278.403 314.671 279.506C316.358 281.654 324.925 283.247 324.925 283.247V281.488Z" fill="#F28F8F"/>
<path d="M323.769 265.666C323.76 265.925 323.675 266.176 323.524 266.387C323.373 266.598 323.164 266.76 322.922 266.853C322.679 266.945 322.415 266.965 322.162 266.909C321.909 266.852 321.678 266.723 321.498 266.536C321.318 266.35 321.196 266.114 321.149 265.859C321.102 265.604 321.131 265.341 321.232 265.102C321.333 264.864 321.502 264.66 321.719 264.517C321.935 264.374 322.188 264.297 322.448 264.297C322.625 264.298 322.8 264.335 322.963 264.405C323.125 264.475 323.273 264.577 323.396 264.704C323.519 264.831 323.615 264.982 323.679 265.147C323.743 265.312 323.774 265.489 323.769 265.666Z" fill="#263238"/>
<path d="M322.365 260.698L319.545 262.244C319.347 261.856 319.306 261.408 319.429 260.991C319.552 260.574 319.83 260.22 320.206 260.002C320.392 259.901 320.597 259.839 320.808 259.819C321.02 259.8 321.233 259.823 321.434 259.888C321.636 259.953 321.823 260.059 321.983 260.198C322.143 260.337 322.273 260.507 322.365 260.698Z" fill="#263238"/>
<path d="M324.335 273.57L327.344 274.75C327.279 274.952 327.174 275.139 327.035 275.299C326.896 275.459 326.726 275.59 326.535 275.682C326.345 275.775 326.137 275.828 325.925 275.838C325.713 275.848 325.502 275.815 325.303 275.742C325.095 275.664 324.905 275.547 324.744 275.395C324.583 275.244 324.453 275.061 324.363 274.859C324.273 274.657 324.224 274.439 324.219 274.218C324.214 273.996 324.254 273.776 324.335 273.57Z" fill="#F28F8F"/>
<path d="M335.522 261.796L332.949 259.814C333.07 259.639 333.225 259.491 333.405 259.378C333.585 259.265 333.786 259.191 333.996 259.158C334.206 259.126 334.421 259.138 334.626 259.191C334.832 259.245 335.024 259.341 335.191 259.472C335.535 259.742 335.761 260.135 335.822 260.568C335.884 261.001 335.776 261.441 335.522 261.796Z" fill="#263238"/>
<path d="M334.732 265.302C334.735 265.478 334.703 265.653 334.638 265.816C334.573 265.98 334.477 266.129 334.354 266.256C334.231 266.382 334.084 266.482 333.922 266.552C333.76 266.621 333.586 266.657 333.41 266.659C333.137 266.668 332.867 266.596 332.636 266.45C332.404 266.305 332.222 266.094 332.111 265.844C332.001 265.595 331.967 265.317 332.016 265.049C332.064 264.78 332.192 264.531 332.382 264.336C332.573 264.14 332.818 264.006 333.085 263.95C333.353 263.895 333.631 263.921 333.883 264.025C334.136 264.129 334.352 264.306 334.503 264.533C334.654 264.761 334.734 265.028 334.732 265.302Z" fill="#263238"/>
<path d="M327.592 262.836L328.028 270.766L332.17 269.361L327.592 262.836Z" fill="#F28F8F"/>
<path d="M307.072 470.336V469.156C307.886 469.498 309.762 476.673 313.113 479.776C315.78 482.207 319.414 485.004 320.335 487.718C321.255 490.432 315.273 492.095 312.783 491.647C309.892 491.14 304.877 489.098 303.626 487.21C302.375 485.322 301.773 482.49 300.747 481.157C299.72 479.823 297.372 478.23 296.817 476.626C296.65 475.129 296.815 473.614 297.301 472.189C297.691 470.702 298.115 469.062 298.623 469.203C298.623 469.38 298.623 470.124 298.623 470.124C299.83 471.062 301.318 471.565 302.847 471.552C304.086 471.528 307.083 471.28 307.072 470.336Z" fill="#263238"/>
<path d="M334.696 461.687C335.144 461.687 335.498 462.324 336.466 463.374C337.914 464.822 339.592 466.018 341.433 466.914C344.596 468.507 350.744 470.938 353.528 472.189C355.263 472.979 355.18 475.08 353.387 476.271C351.593 477.463 347.251 478.325 342.047 477.156C339.203 476.531 335.51 473.9 333.173 474.041C330.837 474.183 326.459 474.159 324.736 472.967C323.014 471.776 323.698 469.239 324.182 467.067C324.713 464.707 325.48 461.038 326.27 461.167V461.923C327.297 463.457 332.465 464.082 334.696 462.961V461.687Z" fill="#263238"/>
<path d="M320.205 366.98C324.585 365.628 328.614 363.327 332.005 360.242C332.005 360.242 329.739 364.49 322.99 368.443L323.131 391.465L320.205 366.98Z" fill="#263238"/>
<path d="M304.193 366.625C302.8 365.445 301.927 363.923 299.826 362.377C298.305 361.437 297.03 360.146 296.11 358.613C294.93 356.63 293.749 350.022 293.395 343.745C293.185 336.734 294.17 329.739 296.31 323.059C299.177 315.142 304.995 304.522 306.93 300.038C308.865 295.554 307.827 293.3 306.092 291.022C304.063 288.356 300.298 288.344 296.747 294.421C292.015 302.868 288.239 311.817 285.49 321.101C283.636 328.047 282.946 335.252 283.448 342.423C283.838 349.067 285.289 354.141 287.153 360.524C287.673 362.259 287.614 363.675 288.204 367.109C288.358 368.543 288.724 369.947 289.289 371.274C290.089 372.869 291.11 374.343 292.322 375.652C293.857 377.315 295.808 378.537 297.974 379.192C299.164 379.547 300.422 379.615 301.644 379.393C302.872 379.171 303.981 378.518 304.771 377.552C304.936 377.359 305.05 377.128 305.101 376.879C305.097 376.438 304.924 376.016 304.617 375.699C302.941 373.735 301.366 371.687 299.897 369.563C298.812 367.734 298.292 366.283 298.717 366.365C299.142 366.448 299.697 367.545 301.278 368.537C302.859 369.528 304.818 369.492 305.278 368.607C305.738 367.722 305.62 367.829 304.193 366.625Z" fill="#FFA8A7"/>
<path d="M304.77 287.625C301.395 287.826 298.327 288.581 294.952 295.271C291.578 301.962 286.279 314.494 286.279 314.494C287.558 316.782 289.432 318.683 291.702 319.993C293.973 321.304 296.555 321.977 299.177 321.939C299.177 321.939 306.941 305.726 308.204 301.455C309.466 297.183 310.339 290.28 304.77 287.625Z" fill="#F30051"/>
<path opacity="0.1" d="M304.77 287.625C301.395 287.826 298.327 288.581 294.952 295.271C291.578 301.962 286.279 314.494 286.279 314.494C287.558 316.782 289.432 318.683 291.702 319.993C293.973 321.304 296.555 321.977 299.177 321.939C299.177 321.939 306.941 305.726 308.204 301.455C309.466 297.183 310.339 290.28 304.77 287.625Z" fill="black"/>
<path d="M349.281 321.941C348.514 324.183 341.15 331.016 335.734 333.187C334.451 333.629 333.072 333.711 331.746 333.423C330.476 332.89 329.111 332.625 327.734 332.644C326.153 332.786 324.548 333.092 322.955 333.281C322.623 333.292 322.298 333.372 321.999 333.517C321.032 334.048 321.586 334.862 322.353 335.157C323.589 335.603 324.855 335.962 326.141 336.231V336.573C322.845 337.725 319.407 338.416 315.922 338.627C315.303 338.632 314.702 338.84 314.211 339.217C314.011 339.441 313.87 339.712 313.802 340.005C313.734 340.297 313.741 340.603 313.822 340.892C313.987 341.466 314.268 342 314.648 342.462C316.07 344.614 318.283 346.119 320.807 346.651C323.359 346.845 325.923 346.524 328.348 345.707C329.52 345.376 330.676 345.01 331.817 344.609C335.156 343.38 338.409 341.925 341.552 340.255C348.282 336.723 354.525 332.332 360.125 327.192C363.523 323.877 362.686 320.691 359.83 316.844" fill="#FFA8A7"/>
<path d="M334.943 333.399C334.943 333.399 336.123 332.963 337.469 335.122C338.814 337.282 339.663 341.223 337.976 342.002C338.557 342.035 339.137 341.917 339.658 341.658C340.18 341.399 340.625 341.01 340.95 340.527C341.296 338.988 341.201 337.383 340.675 335.897C340.148 334.41 339.213 333.103 337.976 332.125C336.84 332.149 335.756 332.605 334.943 333.399Z" fill="#37474F"/>
<path d="M341.186 334.19C341.439 334.617 341.559 335.11 341.53 335.605C341.502 336.1 341.327 336.576 341.028 336.972C340.729 337.368 340.319 337.665 339.85 337.827C339.381 337.989 338.874 338.008 338.395 337.882C337.915 337.755 337.484 337.489 337.156 337.116C336.828 336.744 336.618 336.283 336.553 335.791C336.488 335.299 336.571 334.799 336.79 334.354C337.01 333.909 337.358 333.54 337.788 333.293C338.358 332.963 339.035 332.871 339.672 333.039C340.309 333.208 340.854 333.621 341.186 334.19Z" fill="#F30051"/>
<path d="M340.607 334.52C340.791 334.835 340.877 335.198 340.854 335.562C340.831 335.926 340.7 336.275 340.479 336.565C340.257 336.855 339.954 337.072 339.609 337.19C339.263 337.307 338.891 337.319 338.539 337.224C338.186 337.13 337.87 336.932 337.63 336.657C337.39 336.383 337.237 336.043 337.191 335.681C337.144 335.319 337.207 334.951 337.369 334.625C337.532 334.298 337.788 334.028 338.105 333.847C338.314 333.727 338.544 333.649 338.782 333.617C339.021 333.586 339.263 333.602 339.496 333.664C339.728 333.727 339.946 333.834 340.137 333.981C340.327 334.128 340.487 334.311 340.607 334.52Z" fill="#FAFAFA"/>
</svg>
