<svg width="18" height="18" viewBox="0 0 18 18" fill="none" xmlns="http://www.w3.org/2000/svg">
<path d="M17.8598 8.99922C17.8598 11.9242 15.4973 14.3148 12.5441 14.3148C9.61914 14.3148 7.22852 11.9242 7.22852 8.99922C7.22852 6.07422 9.59102 3.68359 12.516 3.68359C15.4973 3.68359 17.8598 6.07422 17.8598 8.99922Z" fill="#FFB600"/>
<path d="M12.5441 3.68359C15.4691 3.68359 17.8598 6.07422 17.8598 8.99922C17.8598 11.9242 15.4973 14.3148 12.5441 14.3148C9.61914 14.3148 7.22852 11.9242 7.22852 8.99922" fill="#F7981D"/>
<path d="M12.543 3.68359C15.468 3.68359 17.8586 6.07422 17.8586 8.99922C17.8586 11.9242 15.4961 14.3148 12.543 14.3148" fill="#FF8500"/>
<path d="M5.4 3.68359C2.50313 3.71172 0.140625 6.07422 0.140625 8.99922C0.140625 11.9242 2.50312 14.3148 5.45625 14.3148C6.83437 14.3148 8.07187 13.7805 9.02812 12.9367C9.225 12.768 9.39375 12.5711 9.5625 12.3742H8.46562C8.325 12.2055 8.18437 12.0086 8.07188 11.8398H9.95625C10.0688 11.6711 10.1812 11.4742 10.2656 11.2773H7.7625C7.67812 11.1086 7.59375 10.9117 7.5375 10.7148H10.4625C10.6313 10.1805 10.7438 9.61797 10.7438 9.02734C10.7438 8.63359 10.6875 8.26797 10.6312 7.90234H7.36875C7.39688 7.70547 7.45312 7.53672 7.50938 7.33984H10.4344C10.3781 7.14297 10.2937 6.94609 10.2094 6.77734H7.73438C7.81875 6.58047 7.93125 6.41172 8.04375 6.21484H9.92812C9.81563 6.01797 9.675 5.82109 9.50625 5.65234H8.46562C8.63438 5.45547 8.80313 5.28672 9 5.11797C8.07188 4.24609 6.80625 3.73984 5.42812 3.73984C5.42812 3.68359 5.42813 3.68359 5.4 3.68359Z" fill="#FF5050"/>
<path d="M0.140625 8.99766C0.140625 11.9227 2.50312 14.3133 5.45625 14.3133C6.83437 14.3133 8.07187 13.7789 9.02812 12.9352C9.225 12.7664 9.39375 12.5695 9.5625 12.3727H8.46562C8.325 12.2039 8.18437 12.007 8.07188 11.8383H9.95625C10.0688 11.6695 10.1812 11.4727 10.2656 11.2758H7.7625C7.67812 11.107 7.59375 10.9102 7.5375 10.7133H10.4625C10.6313 10.1789 10.7438 9.61641 10.7438 9.02578C10.7438 8.63203 10.6875 8.26641 10.6312 7.90078H7.36875C7.39688 7.70391 7.45312 7.53516 7.50938 7.33828H10.4344C10.3781 7.14141 10.2937 6.94453 10.2094 6.77578H7.73438C7.81875 6.57891 7.93125 6.41016 8.04375 6.21328H9.92812C9.81563 6.01641 9.675 5.81953 9.50625 5.65078H8.46562C8.63438 5.45391 8.80313 5.28516 9 5.11641C8.07188 4.24453 6.80625 3.73828 5.42812 3.73828H5.4" fill="#E52836"/>
<path d="M5.45664 14.3133C6.83477 14.3133 8.07226 13.7789 9.02851 12.9352C9.22539 12.7664 9.39414 12.5695 9.56289 12.3727H8.46602C8.32539 12.2039 8.18477 12.007 8.07227 11.8383H9.95664C10.0691 11.6695 10.1816 11.4727 10.266 11.2758H7.76289C7.67852 11.107 7.59414 10.9102 7.53789 10.7133H10.4629C10.6316 10.1789 10.7441 9.61641 10.7441 9.02578C10.7441 8.63203 10.6879 8.26641 10.6316 7.90078H7.36914C7.39727 7.70391 7.45352 7.53516 7.50977 7.33828H10.4348C10.3785 7.14141 10.2941 6.94453 10.2098 6.77578H7.73477C7.81914 6.57891 7.93164 6.41016 8.04414 6.21328H9.92852C9.81602 6.01641 9.67539 5.81953 9.50664 5.65078H8.46602C8.63477 5.45391 8.80352 5.28516 9.00039 5.11641C8.07227 4.24453 6.80664 3.73828 5.42852 3.73828H5.40039" fill="#CB2026"/>
<path d="M7.33906 10.35L7.42344 9.87187C7.39531 9.87187 7.33906 9.9 7.28281 9.9C7.08594 9.9 7.05781 9.7875 7.08594 9.73125L7.25469 8.74688H7.56406L7.64844 8.2125H7.36719L7.42344 7.875H6.86094C6.86094 7.875 6.52344 9.73125 6.52344 9.95625C6.52344 10.2938 6.72031 10.4344 6.97344 10.4344C7.14219 10.4344 7.28281 10.3781 7.33906 10.35Z" fill="white"/>
<path d="M7.53711 9.44887C7.53711 10.2364 8.07148 10.4332 8.52148 10.4332C8.94336 10.4332 9.11211 10.3489 9.11211 10.3489L9.22461 9.8145C9.22461 9.8145 8.91523 9.95512 8.63398 9.95512C8.01523 9.95512 8.12773 9.50512 8.12773 9.50512H9.28086C9.28086 9.50512 9.36523 9.1395 9.36523 8.99887C9.36523 8.63325 9.16836 8.18325 8.54961 8.18325C7.95898 8.127 7.53711 8.74575 7.53711 9.44887ZM8.52148 8.63325C8.83086 8.63325 8.77461 8.99887 8.77461 9.027H8.15586C8.15586 8.99887 8.21211 8.63325 8.52148 8.63325Z" fill="white"/>
<path d="M12.0938 10.3492L12.2063 9.73047C12.2063 9.73047 11.925 9.87109 11.7281 9.87109C11.3344 9.87109 11.1656 9.56172 11.1656 9.22422C11.1656 8.54922 11.5031 8.18359 11.8969 8.18359C12.1781 8.18359 12.4031 8.35234 12.4031 8.35234L12.4875 7.76172C12.4875 7.76172 12.15 7.62109 11.8406 7.62109C11.1937 7.62109 10.5469 8.18359 10.5469 9.25234C10.5469 9.95547 10.8844 10.4336 11.5594 10.4336C11.7844 10.4336 12.0938 10.3492 12.0938 10.3492Z" fill="white"/>
<path d="M4.24648 8.12891C3.85273 8.12891 3.57148 8.24141 3.57148 8.24141L3.48711 8.71953C3.48711 8.71953 3.74023 8.60703 4.10586 8.60703C4.30273 8.60703 4.47148 8.63516 4.47148 8.80391C4.47148 8.91641 4.44336 8.94453 4.44336 8.94453C4.44336 8.94453 4.27461 8.94453 4.19023 8.94453C3.71211 8.94453 3.17773 9.14141 3.17773 9.78828C3.17773 10.2945 3.51523 10.407 3.71211 10.407C4.10586 10.407 4.27461 10.1539 4.30273 10.1539L4.27461 10.3789H4.78086L5.00586 8.83203C5.00586 8.15703 4.44336 8.12891 4.24648 8.12891ZM4.35898 9.39453C4.35898 9.47891 4.30273 9.92891 3.96523 9.92891C3.79648 9.92891 3.74023 9.78828 3.74023 9.70391C3.74023 9.56328 3.82461 9.36641 4.24648 9.36641C4.33086 9.39453 4.35898 9.39453 4.35898 9.39453Z" fill="white"/>
<path d="M5.54141 10.4039C5.68203 10.4039 6.38516 10.432 6.38516 9.67266C6.38516 8.96953 5.71016 9.11016 5.71016 8.82891C5.71016 8.68828 5.82266 8.63203 6.01953 8.63203C6.10391 8.63203 6.41328 8.66016 6.41328 8.66016L6.49766 8.15391C6.49766 8.15391 6.30078 8.09766 5.96328 8.09766C5.54141 8.09766 5.11953 8.26641 5.11953 8.82891C5.11953 9.47578 5.82266 9.41953 5.82266 9.67266C5.82266 9.84141 5.62578 9.86953 5.48516 9.86953C5.23203 9.86953 4.97891 9.78516 4.97891 9.78516L4.89453 10.2914C4.92266 10.3477 5.06328 10.4039 5.54141 10.4039Z" fill="white"/>
<path d="M16.7633 7.67578L16.6508 8.43516C16.6508 8.43516 16.4258 8.15391 16.1164 8.15391C15.6102 8.15391 15.1602 8.77266 15.1602 9.50391C15.1602 9.95391 15.3852 10.432 15.8633 10.432C16.2008 10.432 16.3977 10.207 16.3977 10.207L16.3695 10.4039H16.932L17.3539 7.70391L16.7633 7.67578ZM16.5102 9.16641C16.5102 9.47578 16.3695 9.86953 16.0602 9.86953C15.8633 9.86953 15.7508 9.70078 15.7508 9.41953C15.7508 8.96953 15.9477 8.68828 16.2008 8.68828C16.3977 8.68828 16.5102 8.82891 16.5102 9.16641Z" fill="white"/>
<path d="M1.18086 10.3758L1.51836 8.35078L1.57461 10.3758H1.96836L2.69961 8.35078L2.39023 10.3758H2.98086L3.43086 7.67578H2.50273L1.94023 9.33516L1.91211 7.67578H1.09648L0.646484 10.3758H1.18086Z" fill="white"/>
<path d="M9.9 10.3773C10.0688 9.44922 10.0969 8.68984 10.4906 8.83047C10.5469 8.46484 10.6313 8.32422 10.6875 8.18359C10.6875 8.18359 10.6594 8.18359 10.575 8.18359C10.3219 8.18359 10.125 8.52109 10.125 8.52109L10.1813 8.21172H9.64687L9.28125 10.4055H9.9V10.3773Z" fill="white"/>
<path d="M13.3871 8.12891C12.9934 8.12891 12.7121 8.24141 12.7121 8.24141L12.6277 8.71953C12.6277 8.71953 12.8809 8.60703 13.2465 8.60703C13.4434 8.60703 13.6121 8.63516 13.6121 8.80391C13.6121 8.91641 13.584 8.94453 13.584 8.94453C13.584 8.94453 13.4152 8.94453 13.3309 8.94453C12.8527 8.94453 12.3184 9.14141 12.3184 9.78828C12.3184 10.2945 12.6559 10.407 12.8527 10.407C13.2465 10.407 13.4152 10.1539 13.4434 10.1539L13.4152 10.3789H13.9215L14.1465 8.83203C14.1746 8.15703 13.584 8.12891 13.3871 8.12891ZM13.5277 9.39453C13.5277 9.47891 13.4715 9.92891 13.134 9.92891C12.9652 9.92891 12.909 9.78828 12.909 9.70391C12.909 9.56328 12.9934 9.36641 13.4152 9.36641C13.4996 9.39453 13.4996 9.39453 13.5277 9.39453Z" fill="white"/>
<path d="M14.6246 10.3773C14.7934 9.44922 14.8215 8.68984 15.2152 8.83047C15.2715 8.46484 15.3559 8.32422 15.4121 8.18359C15.4121 8.18359 15.384 8.18359 15.2996 8.18359C15.0465 8.18359 14.8496 8.52109 14.8496 8.52109L14.9059 8.21172H14.3715L14.0059 10.4055H14.6246V10.3773Z" fill="white"/>
<path d="M6.46875 9.95625C6.46875 10.2938 6.66563 10.4344 6.91875 10.4344C7.11563 10.4344 7.28438 10.3781 7.34063 10.35L7.425 9.87187C7.39687 9.87187 7.34062 9.9 7.28437 9.9C7.0875 9.9 7.05938 9.7875 7.0875 9.73125L7.25625 8.74688H7.56562L7.65 8.2125H7.36875L7.425 7.875" fill="#DCE5E5"/>
<path d="M7.81836 9.44887C7.81836 10.2364 8.07148 10.4332 8.52148 10.4332C8.94336 10.4332 9.11211 10.3489 9.11211 10.3489L9.22461 9.8145C9.22461 9.8145 8.91523 9.95512 8.63398 9.95512C8.01523 9.95512 8.12773 9.50512 8.12773 9.50512H9.28086C9.28086 9.50512 9.36523 9.1395 9.36523 8.99887C9.36523 8.63325 9.16836 8.18325 8.54961 8.18325C7.95898 8.127 7.81836 8.74575 7.81836 9.44887ZM8.52148 8.63325C8.83086 8.63325 8.88711 8.99887 8.88711 9.027H8.15586C8.15586 8.99887 8.21211 8.63325 8.52148 8.63325Z" fill="#DCE5E5"/>
<path d="M12.0938 10.3492L12.2063 9.73047C12.2063 9.73047 11.925 9.87109 11.7281 9.87109C11.3344 9.87109 11.1656 9.56172 11.1656 9.22422C11.1656 8.54922 11.5031 8.18359 11.8969 8.18359C12.1781 8.18359 12.4031 8.35234 12.4031 8.35234L12.4875 7.76172C12.4875 7.76172 12.15 7.62109 11.8406 7.62109C11.1937 7.62109 10.8281 8.18359 10.8281 9.25234C10.8281 9.95547 10.8844 10.4336 11.5594 10.4336C11.7844 10.4336 12.0938 10.3492 12.0938 10.3492Z" fill="#DCE5E5"/>
<path d="M3.48711 8.74609C3.48711 8.74609 3.74023 8.63359 4.10586 8.63359C4.30273 8.63359 4.47148 8.66172 4.47148 8.83047C4.47148 8.94297 4.44336 8.97109 4.44336 8.97109C4.44336 8.97109 4.27461 8.97109 4.19023 8.97109C3.71211 8.97109 3.17773 9.16797 3.17773 9.81484C3.17773 10.3211 3.51523 10.4336 3.71211 10.4336C4.10586 10.4336 4.27461 10.1805 4.30273 10.1805L4.27461 10.4055H4.78086L5.00586 8.85859C5.00586 8.21172 4.44336 8.18359 4.21836 8.18359M4.64023 9.39297C4.64023 9.47734 4.30273 9.92734 3.96523 9.92734C3.79648 9.92734 3.74023 9.78672 3.74023 9.70234C3.74023 9.56172 3.82461 9.36484 4.24648 9.36484C4.33086 9.39297 4.64023 9.39297 4.64023 9.39297Z" fill="#DCE5E5"/>
<path d="M4.92188 10.3477C4.92188 10.3477 5.09062 10.4039 5.56875 10.4039C5.70937 10.4039 6.4125 10.432 6.4125 9.67266C6.4125 8.96953 5.7375 9.11016 5.7375 8.82891C5.7375 8.68828 5.85 8.63203 6.04688 8.63203C6.13125 8.63203 6.44062 8.66016 6.44062 8.66016L6.525 8.15391C6.525 8.15391 6.32812 8.09766 5.99062 8.09766C5.56875 8.09766 5.42812 8.26641 5.42812 8.82891C5.42812 9.47578 5.85 9.41953 5.85 9.67266C5.85 9.84141 5.65313 9.86953 5.5125 9.86953" fill="#DCE5E5"/>
<path d="M16.6489 8.43828C16.6489 8.43828 16.4239 8.15703 16.1145 8.15703C15.6083 8.15703 15.4395 8.77578 15.4395 9.50703C15.4395 9.95703 15.3833 10.4352 15.8614 10.4352C16.1989 10.4352 16.3958 10.2102 16.3958 10.2102L16.3677 10.407H16.9302L17.352 7.70703M16.6208 9.16953C16.6208 9.47891 16.3677 9.87266 16.0583 9.87266C15.8614 9.87266 15.7489 9.70391 15.7489 9.42266C15.7489 8.97266 15.9458 8.69141 16.1989 8.69141C16.3958 8.69141 16.6208 8.83203 16.6208 9.16953Z" fill="#DCE5E5"/>
<path d="M1.18086 10.3758L1.51836 8.35078L1.57461 10.3758H1.96836L2.69961 8.35078L2.39023 10.3758H2.98086L3.43086 7.67578H2.72773L1.94023 9.33516L1.91211 7.67578H1.60273L0.646484 10.3758H1.18086Z" fill="#DCE5E5"/>
<path d="M9.30859 10.3773H9.89922C10.068 9.44922 10.0961 8.68984 10.4898 8.83047C10.5461 8.46484 10.6305 8.32422 10.6867 8.18359C10.6867 8.18359 10.6586 8.18359 10.5742 8.18359C10.3211 8.18359 10.1242 8.52109 10.1242 8.52109L10.1805 8.21172" fill="#DCE5E5"/>
<path d="M12.6277 8.74609C12.6277 8.74609 12.8809 8.63359 13.2465 8.63359C13.4434 8.63359 13.6121 8.66172 13.6121 8.83047C13.6121 8.94297 13.584 8.97109 13.584 8.97109C13.584 8.97109 13.4152 8.97109 13.3309 8.97109C12.8527 8.97109 12.3184 9.16797 12.3184 9.81484C12.3184 10.3211 12.6559 10.4336 12.8527 10.4336C13.2465 10.4336 13.4152 10.1805 13.4434 10.1805L13.4152 10.4055H13.9215L14.1465 8.85859C14.1465 8.21172 13.584 8.18359 13.359 8.18359M13.7809 9.39297C13.7809 9.47734 13.4434 9.92734 13.1059 9.92734C12.9371 9.92734 12.8809 9.78672 12.8809 9.70234C12.8809 9.56172 12.9652 9.36484 13.3871 9.36484C13.4996 9.39297 13.7809 9.39297 13.7809 9.39297Z" fill="#DCE5E5"/>
<path d="M14.0332 10.3773H14.6238C14.7926 9.44922 14.8207 8.68984 15.2145 8.83047C15.2707 8.46484 15.3551 8.32422 15.4113 8.18359C15.4113 8.18359 15.3832 8.18359 15.2988 8.18359C15.0457 8.18359 14.8488 8.52109 14.8488 8.52109L14.9051 8.21172" fill="#DCE5E5"/>
</svg>
