<svg width="24" height="24" viewBox="0 0 24 24" fill="none" xmlns="http://www.w3.org/2000/svg">
<path d="M23.9844 8.7663C23.9837 8.6427 23.9532 8.5211 23.8954 8.41184C23.8377 8.30257 23.7544 8.20887 23.6526 8.13871C23.5424 8.06431 23.416 8.01717 23.2839 8.00118C23.1519 7.9852 23.0179 8.00082 22.8931 8.04677L18.7878 9.59376V7.29925L18.9117 7.3832C19.1095 7.52206 19.3456 7.59609 19.5873 7.59506C19.843 7.59483 20.0919 7.51288 20.2977 7.36117C20.5035 7.20946 20.6555 6.99593 20.7314 6.75175C20.8073 6.50757 20.8031 6.24553 20.7195 6.00388C20.636 5.76222 20.4773 5.55361 20.2668 5.40848L12.6718 0.211862C12.4719 0.0740924 12.2349 0.000216533 11.9922 0C11.7495 0.000216533 11.5125 0.0740924 11.3126 0.211862L3.71758 5.40848C3.5868 5.49718 3.47483 5.61085 3.38812 5.74296C3.30141 5.87507 3.24166 6.02301 3.21231 6.17829C3.18297 6.33356 3.1846 6.49311 3.21712 6.64775C3.24963 6.8024 3.31239 6.94909 3.40179 7.0794C3.51314 7.23993 3.66203 7.37082 3.8355 7.46069C4.00897 7.55056 4.20178 7.59669 4.39714 7.59506C4.6381 7.59522 4.87351 7.52278 5.0727 7.3872L5.19662 7.29925V9.69769L1.09929 8.05476C0.978052 8.00572 0.846639 7.98717 0.716567 8.00073C0.586495 8.01429 0.461736 8.05956 0.353227 8.13255C0.244719 8.20555 0.155774 8.30405 0.0941901 8.41942C0.0326065 8.53479 0.00026469 8.6635 0 8.79428L0 19.5873C0 19.7993 0.0842307 20.0026 0.234162 20.1526C0.384094 20.3025 0.587445 20.3867 0.79948 20.3867H1.09929C1.31855 20.3854 1.53324 20.3239 1.72001 20.209C1.90677 20.0941 2.05847 19.9302 2.1586 19.7352L2.49438 19.0676L3.19792 19.3954C3.12544 19.5873 3.10064 19.794 3.12565 19.9976C3.15066 20.2012 3.22473 20.3957 3.34151 20.5644C3.45828 20.7331 3.61427 20.8709 3.79605 20.9659C3.97784 21.061 4.18 21.1106 4.38515 21.1103C4.54117 21.1093 4.69566 21.0794 4.84085 21.0223C4.94245 21.283 5.12051 21.5069 5.35165 21.6646C5.5828 21.8222 5.85622 21.9063 6.13601 21.9058C6.3027 21.9058 6.46779 21.8762 6.62369 21.8178C6.72079 22.089 6.89921 22.3235 7.13459 22.4895C7.36996 22.6555 7.65083 22.7448 7.93884 22.7452C8.08273 22.7444 8.22564 22.7215 8.36256 22.6773V22.6972C8.41696 22.8453 8.50004 22.9812 8.60705 23.0972C8.71406 23.2131 8.84289 23.3067 8.98616 23.3728C9.2406 23.4892 9.52773 23.5129 9.79783 23.4399C10.0679 23.3669 10.304 23.2018 10.4652 22.9731L11.4126 23.7366C11.5858 23.8674 11.7889 23.953 12.0035 23.9854C12.2182 24.0178 12.4375 23.9961 12.6416 23.9222C12.8457 23.8484 13.0282 23.7247 13.1724 23.5624C13.3165 23.4002 13.4179 23.2044 13.4672 22.993C13.6773 23.0542 13.9001 23.0567 14.1114 23.0004C14.3228 22.944 14.5148 22.8309 14.6665 22.6733C14.8669 22.4757 14.9914 22.2139 15.0182 21.9337C15.0754 21.9377 15.133 21.9377 15.1901 21.9337C15.5431 21.9345 15.8845 21.8081 16.1518 21.5775C16.419 21.347 16.5942 21.0278 16.6452 20.6786C16.8037 20.7321 16.9696 20.7604 17.1369 20.7625C17.3381 20.763 17.5374 20.7238 17.7234 20.647C17.9094 20.5703 18.0783 20.4575 18.2206 20.3153C18.3629 20.173 18.4756 20.004 18.5524 19.818C18.6291 19.632 18.6684 19.4327 18.6679 19.2315C18.6667 19.031 18.6259 18.8326 18.5479 18.6479L21.0903 17.5886L21.8338 18.9637C21.937 19.1523 22.0891 19.3098 22.274 19.4195C22.459 19.5292 22.6701 19.5871 22.8851 19.5873H23.1849C23.3922 19.5874 23.5914 19.507 23.7406 19.3631C23.8897 19.2191 23.9771 19.0229 23.9844 18.8158V8.7663ZM4.621 6.72762C4.53353 6.78752 4.42585 6.81021 4.32165 6.79072C4.21745 6.77123 4.12526 6.71115 4.06536 6.62369C4.03566 6.57959 4.01506 6.53 4.00476 6.47783C3.99447 6.42567 3.99468 6.37197 4.0054 6.31989C4.0252 6.21783 4.08399 6.12749 4.16929 6.06805L11.7643 0.871433C11.8304 0.823296 11.9104 0.798034 11.9922 0.79948C12.0737 0.799673 12.1532 0.824779 12.2201 0.871433L19.8151 6.06805C19.9014 6.1279 19.9608 6.21933 19.9802 6.32256C19.9996 6.42579 19.9777 6.53253 19.919 6.61969C19.8591 6.70715 19.767 6.76723 19.6628 6.78673C19.5585 6.80622 19.4509 6.78352 19.3634 6.72363L12.2201 1.8388C12.1531 1.79238 12.0736 1.76751 11.9922 1.76751C11.9108 1.76751 11.8313 1.79238 11.7643 1.8388L4.621 6.72762ZM11.9922 2.65028L17.9883 6.75561V9.9935C17.7894 10.1567 17.6541 10.3845 17.6059 10.6373C17.5577 10.89 17.5996 11.1516 17.7245 11.3766L18.1242 12.1201L17.0449 12.5199C16.8632 12.5905 16.6671 12.6157 16.4734 12.5934C16.2798 12.5711 16.0945 12.502 15.9336 12.3919L13.9909 10.9569V8.79428C13.9909 8.58225 13.9067 8.37889 13.7567 8.22896C13.6068 8.07903 13.4035 7.9948 13.1914 7.9948H10.793C10.5809 7.9948 10.3776 8.07903 10.2277 8.22896C10.0777 8.37889 9.9935 8.58225 9.9935 8.79428V11.4046C9.84236 11.6145 9.70867 11.8364 9.59376 12.0682C9.16174 12.1076 8.73299 12.1771 8.3106 12.276C8.07571 12.3344 7.83637 12.3732 7.59506 12.3919C7.06518 12.3287 6.5493 12.1788 6.06805 11.9482L6.25993 11.5485C6.38089 11.3131 6.42061 11.0444 6.37289 10.7841C6.32517 10.5238 6.19269 10.2866 5.9961 10.1094V6.75561L11.9922 2.65028ZM13.1914 10.4132C12.8138 10.2197 12.3901 10.1341 11.9669 10.1658C11.5437 10.1975 11.1375 10.3454 10.793 10.5931V8.79428H13.1914V10.4132ZM1.09929 19.5873H0.79948V8.79428L5.34852 10.6411C5.4009 10.6623 5.44818 10.6944 5.48725 10.7352C5.52631 10.7761 5.55628 10.8247 5.57517 10.878C5.59405 10.9312 5.60143 10.9879 5.59682 11.0442C5.5922 11.1005 5.5757 11.1552 5.54839 11.2047L1.44706 19.3754C1.41339 19.4386 1.36335 19.4917 1.30217 19.5289C1.24099 19.5662 1.17092 19.5864 1.09929 19.5873ZM4.17329 20.2548C4.06008 20.2026 3.97214 20.1077 3.9287 19.9909C3.88525 19.874 3.88983 19.7447 3.94144 19.6312L4.39714 18.6719C4.44935 18.5586 4.54425 18.4707 4.6611 18.4273C4.77795 18.3838 4.90725 18.3884 5.02074 18.44C5.13506 18.4904 5.2234 18.5859 5.26458 18.7038C5.31234 18.8204 5.31234 18.951 5.26458 19.0676L4.79688 20.027C4.77108 20.083 4.73444 20.1334 4.68907 20.1753C4.6437 20.2171 4.59049 20.2496 4.53253 20.2707C4.47456 20.2919 4.41297 20.3014 4.35132 20.2987C4.28966 20.296 4.22915 20.2811 4.17329 20.2548ZM6.32788 21.0543C6.25581 21.0849 6.17832 21.1006 6.10003 21.1006C6.02174 21.1006 5.94426 21.0849 5.87218 21.0543C5.80024 21.0223 5.73554 20.976 5.68195 20.9183C5.62837 20.8606 5.58701 20.7926 5.56038 20.7185C5.50061 20.5711 5.50061 20.4062 5.56038 20.2588L6.24794 18.7878C6.31417 18.6435 6.43493 18.5314 6.58372 18.476C6.73351 18.4233 6.89764 18.4291 7.04342 18.492C7.18813 18.5599 7.30005 18.6819 7.35522 18.8318C7.38589 18.9045 7.40169 18.9827 7.40169 19.0616C7.40169 19.1406 7.38589 19.2187 7.35522 19.2915L6.66766 20.7465C6.59978 20.8911 6.47772 21.0031 6.32788 21.0583V21.0543ZM7.687 21.8538C7.54264 21.786 7.43071 21.6642 7.37537 21.5146C7.32003 21.3651 7.32571 21.1997 7.39119 21.0543L7.89487 19.987C7.96216 19.8435 8.08254 19.7317 8.23065 19.6752C8.29743 19.6516 8.3677 19.6395 8.43851 19.6392C8.5257 19.6377 8.61201 19.6569 8.69035 19.6952C8.83545 19.7603 8.94778 19.8815 9.00215 20.031C9.05811 20.1805 9.05051 20.3468 8.98216 20.4907L8.51846 21.506L8.48648 21.574C8.45374 21.6462 8.40701 21.7112 8.34899 21.7652C8.29097 21.8192 8.22281 21.8612 8.14846 21.8887C8.07411 21.9162 7.99505 21.9287 7.91584 21.9254C7.83663 21.9222 7.75885 21.9033 7.687 21.8698V21.8538ZM9.32194 22.6053C9.22575 22.5611 9.15099 22.4806 9.11407 22.3814C9.09373 22.3327 9.08326 22.2804 9.08326 22.2275C9.08326 22.1747 9.09373 22.1224 9.11407 22.0736L9.23799 21.8058L9.60975 21.0063C9.64498 20.936 9.70019 20.8776 9.76845 20.8385C9.83671 20.7994 9.915 20.7813 9.9935 20.7865C10.0514 20.7862 10.1087 20.7984 10.1614 20.8225C10.2101 20.844 10.254 20.8751 10.2905 20.9139C10.327 20.9526 10.3554 20.9983 10.3741 21.0482C10.3927 21.0981 10.4011 21.1512 10.3989 21.2045C10.3967 21.2577 10.3839 21.3099 10.3613 21.3581L9.86159 22.4414C9.83894 22.4896 9.8069 22.5327 9.76735 22.5683C9.7278 22.604 9.68154 22.6313 9.63127 22.6488C9.58101 22.6663 9.52775 22.6736 9.47463 22.6703C9.42151 22.6669 9.3696 22.653 9.32194 22.6293V22.6053ZM17.6525 19.7312C17.5223 19.8626 17.3469 19.9395 17.162 19.9462C16.9771 19.9529 16.7965 19.8888 16.6572 19.7671L14.7144 18.0643L14.2547 17.6645C14.2144 17.6281 14.1667 17.6008 14.1148 17.5846C14.0949 17.5826 14.0748 17.5826 14.0549 17.5846C13.9739 17.5689 13.8902 17.5787 13.815 17.6125C13.7686 17.6374 13.7268 17.6698 13.6911 17.7085C13.6563 17.7459 13.6295 17.79 13.6123 17.8381C13.5951 17.8862 13.5879 17.9373 13.5912 17.9883C13.5895 18.0002 13.5895 18.0123 13.5912 18.0243C13.6043 18.1148 13.648 18.198 13.7151 18.2601L15.6218 19.931C15.7496 20.0536 15.824 20.2215 15.8288 20.3985C15.8336 20.5755 15.7685 20.7473 15.6476 20.8766C15.5267 21.006 15.3597 21.0824 15.1828 21.0895C15.0059 21.0966 14.8333 21.0337 14.7024 20.9144L14.6585 20.8704L13.0595 19.2715C12.9842 19.1962 12.8821 19.1539 12.7757 19.1539C12.6692 19.1539 12.5671 19.1962 12.4919 19.2715C12.4166 19.3467 12.3743 19.4488 12.3743 19.5553C12.3743 19.6617 12.4166 19.7638 12.4919 19.8391L14.0908 21.4381C14.1327 21.4793 14.1659 21.5285 14.1885 21.5827C14.2112 21.6369 14.2229 21.6951 14.2229 21.7539C14.2229 21.8126 14.2112 21.8708 14.1885 21.925C14.1659 21.9792 14.1327 22.0284 14.0908 22.0696C14.0048 22.1506 13.8912 22.1957 13.773 22.1957C13.6549 22.1957 13.5413 22.1506 13.4552 22.0696L13.1115 21.7219L12.6638 21.2742C12.6266 21.2367 12.5824 21.207 12.5337 21.1867C12.485 21.1664 12.4327 21.1559 12.3799 21.1559C12.3272 21.1559 12.2749 21.1664 12.2262 21.1867C12.1775 21.207 12.1333 21.2367 12.0961 21.2742C12.0587 21.3113 12.0289 21.3555 12.0086 21.4042C11.9883 21.453 11.9779 21.5052 11.9779 21.558C11.9779 21.6108 11.9883 21.663 12.0086 21.7117C12.0289 21.7604 12.0587 21.8046 12.0961 21.8418L12.5438 22.2895C12.6418 22.3834 12.6969 22.5134 12.6957 22.6493C12.6917 22.7403 12.6633 22.8286 12.6137 22.905C12.5641 22.9814 12.4949 23.0432 12.4134 23.084C12.3319 23.1247 12.241 23.143 12.1501 23.1368C12.0592 23.1307 11.9715 23.1004 11.8963 23.049L10.833 22.2255L11.0808 21.6819C11.1479 21.5384 11.186 21.3831 11.1927 21.2249C11.1995 21.0666 11.1749 20.9086 11.1202 20.76C11.0656 20.6113 10.9821 20.4749 10.8744 20.3587C10.7668 20.2425 10.6372 20.1488 10.4932 20.0829C10.2804 19.9868 10.0443 19.9548 9.81362 19.991C9.79977 19.9109 9.77973 19.8321 9.75366 19.7552C9.63979 19.4431 9.41799 19.182 9.12839 19.0193C8.83878 18.8565 8.50048 18.8027 8.17468 18.8677C8.14961 18.6586 8.07752 18.4579 7.96381 18.2806C7.8501 18.1033 7.69773 17.9541 7.51812 17.8441C7.3385 17.7341 7.13632 17.6662 6.92673 17.6455C6.71713 17.6248 6.50557 17.6518 6.3079 17.7245C6.11309 17.7984 5.93701 17.9144 5.79223 18.0643C5.6734 17.9128 5.51984 17.7921 5.34452 17.7125C5.03865 17.5711 4.68913 17.5569 4.37281 17.6731C4.05649 17.7893 3.79924 18.0263 3.65762 18.3321L3.50972 18.6599L2.85414 18.3481L5.70829 12.6638C6.30196 12.9474 6.94035 13.126 7.59506 13.1914C7.88785 13.1737 8.1783 13.1281 8.4625 13.0555C8.68635 13.0075 8.9262 12.9596 9.17803 12.9196L8.52246 14.3906C8.37547 14.7258 8.36323 15.1047 8.48829 15.4486C8.61335 15.7925 8.8661 16.075 9.19402 16.2374H9.234C9.51241 16.3692 9.82622 16.4066 10.1278 16.3438C10.4293 16.281 10.7022 16.1216 10.9049 15.8897L12.4839 14.1308L17.6205 18.6918C17.6955 18.7577 17.7561 18.8383 17.7986 18.9285C17.8411 19.0188 17.8646 19.1168 17.8676 19.2165C17.8706 19.3163 17.853 19.4156 17.816 19.5082C17.779 19.6009 17.7234 19.6849 17.6525 19.7552V19.7312ZM18.0523 17.9763L12.256 12.8916C12.1758 12.827 12.0738 12.7959 11.9711 12.8047C11.8685 12.8135 11.7732 12.8615 11.7052 12.9389C11.6371 13.0162 11.6016 13.1168 11.6059 13.2197C11.6102 13.3226 11.6541 13.4199 11.7284 13.4912L11.8723 13.6191L10.2973 15.374C10.206 15.4782 10.083 15.5496 9.94723 15.577C9.81143 15.6045 9.67038 15.5865 9.54579 15.5259H9.51781C9.38253 15.449 9.28038 15.3249 9.23096 15.1774C9.18153 15.0299 9.18831 14.8693 9.24998 14.7264L10.1774 12.6718C10.396 12.1865 10.7101 11.7501 11.1008 11.3886C11.3579 11.1502 11.69 11.0087 12.0401 10.9882C12.3901 10.9678 12.7364 11.0698 13.0195 11.2767L15.4539 13.0515C15.7208 13.243 16.0307 13.3658 16.3563 13.4091C16.6819 13.4523 17.0132 13.4146 17.3207 13.2994L18.52 12.8556L20.7065 16.897L18.0523 17.9763ZM22.8931 18.7758C22.8228 18.7776 22.7532 18.7608 22.6914 18.7271C22.6297 18.6934 22.5779 18.644 22.5413 18.5839L18.436 10.9889C18.4141 10.9495 18.401 10.906 18.3976 10.8611C18.3941 10.8163 18.4004 10.7712 18.416 10.729C18.4349 10.6809 18.464 10.6374 18.5013 10.6015C18.5385 10.5657 18.5831 10.5383 18.6319 10.5212L23.1849 8.7663V18.7878L22.8931 18.7758Z" fill="black"/>
</svg>
