<svg width="18" height="18" viewBox="0 0 18 18" fill="none" xmlns="http://www.w3.org/2000/svg">
<g clip-path="url(#clip0_308_10196)">
<path d="M6.90906 17.9786H2.1549C1.58847 17.9786 1.04524 17.7536 0.644708 17.3531C0.24418 16.9526 0.019165 16.4093 0.019165 15.8429L0.019165 2.13574C0.019165 1.5693 0.24418 1.02607 0.644708 0.625543C1.04524 0.225015 1.58847 0 2.1549 0L12.0434 0C12.6098 0 13.153 0.225015 13.5536 0.625543C13.9541 1.02607 14.1791 1.5693 14.1791 2.13574V7.50925C14.1854 7.57617 14.1777 7.64366 14.1564 7.70742C14.1351 7.77117 14.1008 7.82978 14.0555 7.87948C14.0103 7.92919 13.9552 7.9689 13.8937 7.99608C13.8322 8.02325 13.7658 8.03729 13.6986 8.03729C13.6314 8.03729 13.5649 8.02325 13.5034 7.99608C13.4419 7.9689 13.3868 7.92919 13.3416 7.87948C13.2964 7.82978 13.262 7.77117 13.2407 7.70742C13.2194 7.64366 13.2117 7.57617 13.218 7.50925V2.13574C13.218 1.98336 13.1879 1.83249 13.1295 1.69177C13.0711 1.55104 12.9854 1.42324 12.8775 1.3157C12.7695 1.20815 12.6414 1.12298 12.5005 1.06505C12.3595 1.00713 12.2086 0.977606 12.0562 0.978168H2.1549C2.00181 0.976473 1.84991 1.00516 1.70798 1.06258C1.56606 1.11999 1.43693 1.20499 1.32808 1.31265C1.21923 1.42031 1.13282 1.54849 1.07384 1.68977C1.01487 1.83106 0.984509 1.98264 0.984519 2.13574V15.8557C0.984509 16.0088 1.01487 16.1604 1.07384 16.3017C1.13282 16.443 1.21923 16.5711 1.32808 16.6788C1.43693 16.7865 1.56606 16.8715 1.70798 16.9289C1.84991 16.9863 2.00181 17.015 2.1549 17.0133H6.90906C7.03707 17.0133 7.15984 17.0641 7.25036 17.1547C7.34088 17.2452 7.39173 17.368 7.39173 17.496C7.39173 17.624 7.34088 17.7467 7.25036 17.8373C7.15984 17.9278 7.03707 17.9786 6.90906 17.9786Z" fill="#181A20"/>
<path d="M11.1464 5.15853H3.0306C2.96368 5.16485 2.89619 5.15712 2.83244 5.13584C2.76868 5.11456 2.71008 5.08021 2.66037 5.03497C2.61066 4.98973 2.57095 4.93461 2.54377 4.87314C2.5166 4.81167 2.50256 4.7452 2.50256 4.67799C2.50256 4.61078 2.5166 4.54431 2.54377 4.48284C2.57095 4.42137 2.61066 4.36625 2.66037 4.32101C2.71008 4.27577 2.76868 4.24142 2.83244 4.22014C2.89619 4.19886 2.96368 4.19113 3.0306 4.19745H11.1464C11.266 4.20874 11.3771 4.26425 11.458 4.35312C11.5389 4.44199 11.5837 4.55783 11.5837 4.67799C11.5837 4.79815 11.5389 4.91399 11.458 5.00286C11.3771 5.09173 11.266 5.14724 11.1464 5.15853Z" fill="#181A20"/>
<path d="M7.50704 8.91067H3.04335C2.91533 8.91067 2.79256 8.85981 2.70204 8.76929C2.61152 8.67877 2.56067 8.556 2.56067 8.42799C2.56067 8.29998 2.61152 8.1772 2.70204 8.08669C2.79256 7.99617 2.91533 7.94531 3.04335 7.94531H7.50704C7.63505 7.94531 7.75782 7.99617 7.84834 8.08669C7.93886 8.1772 7.98972 8.29998 7.98972 8.42799C7.98972 8.556 7.93886 8.67877 7.84834 8.76929C7.75782 8.85981 7.63505 8.91067 7.50704 8.91067Z" fill="#181A20"/>
<path d="M16.4046 13.0146C16.3339 13.0147 16.2639 13.0008 16.1987 12.9737C16.1334 12.9465 16.0742 12.9067 16.0244 12.8565L14.0809 10.9087C13.9806 10.8085 13.9243 10.6725 13.9243 10.5307C13.9243 10.3889 13.9806 10.2529 14.0809 10.1527C14.1812 10.0524 14.3171 9.99609 14.4589 9.99609C14.6007 9.99609 14.7367 10.0524 14.837 10.1527L16.7847 12.1005C16.8831 12.2017 16.9381 12.3373 16.9381 12.4785C16.9381 12.6197 16.8831 12.7553 16.7847 12.8565C16.735 12.9067 16.6758 12.9465 16.6105 12.9737C16.5452 13.0008 16.4753 13.0147 16.4046 13.0146Z" fill="#181A20"/>
<path d="M8.93799 17.9994L9.48047 14.7531L14.8924 9.34113C15.1391 9.09516 15.4732 8.95703 15.8215 8.95703C16.1698 8.95703 16.5039 9.09516 16.7505 9.34113L17.6048 10.1954C17.8508 10.4421 17.9889 10.7762 17.9889 11.1245C17.9889 11.4728 17.8508 11.8069 17.6048 12.0535L12.1843 17.4569L8.93799 17.9994ZM10.48 15.2486L10.2451 16.6753L11.6717 16.4361L16.8445 11.2676C16.8896 11.2213 16.9149 11.1592 16.9149 11.0946C16.9149 11.0299 16.8896 10.9679 16.8445 10.9216L15.9902 10.0673C15.9439 10.0221 15.8818 9.99688 15.8172 9.99688C15.7526 9.99688 15.6905 10.0221 15.6442 10.0673L10.48 15.2486Z" fill="#181A20"/>
</g>
<defs>
<clipPath id="clip0_308_10196">
<rect width="18" height="18" fill="white"/>
</clipPath>
</defs>
</svg>
