<svg width="23" height="21" viewBox="0 0 23 21" fill="none" xmlns="http://www.w3.org/2000/svg">
<path fill-rule="evenodd" clip-rule="evenodd" d="M15.919 0C16.2206 0 16.5098 0.119798 16.7231 0.333041C16.9363 0.546284 17.0561 0.835503 17.0561 1.13707V2.27415H21.6044C21.906 2.27415 22.1952 2.39395 22.4084 2.60719C22.6217 2.82043 22.7415 3.10965 22.7415 3.41122C22.7415 3.71279 22.6217 4.00201 22.4084 4.21525C22.1952 4.42849 21.906 4.54829 21.6044 4.54829H17.0561V5.68537C17.0561 5.98694 16.9363 6.27616 16.7231 6.4894C16.5098 6.70264 16.2206 6.82244 15.919 6.82244C15.6175 6.82244 15.3282 6.70264 15.115 6.4894C14.9018 6.27616 14.782 5.98694 14.782 5.68537V1.13707C14.782 0.835503 14.9018 0.546284 15.115 0.333041C15.3282 0.119798 15.6175 0 15.919 0ZM0 3.41122C0 3.10965 0.119798 2.82043 0.333041 2.60719C0.546284 2.39395 0.835503 2.27415 1.13707 2.27415H11.3707C11.6723 2.27415 11.9615 2.39395 12.1748 2.60719C12.388 2.82043 12.5078 3.10965 12.5078 3.41122C12.5078 3.71279 12.388 4.00201 12.1748 4.21525C11.9615 4.42849 11.6723 4.54829 11.3707 4.54829H1.13707C0.835503 4.54829 0.546284 4.42849 0.333041 4.21525C0.119798 4.00201 0 3.71279 0 3.41122ZM6.82244 6.82244C7.12401 6.82244 7.41323 6.94224 7.62647 7.15548C7.83972 7.36872 7.95951 7.65794 7.95951 7.95951V12.5078C7.95951 12.8094 7.83972 13.0986 7.62647 13.3118C7.41323 13.5251 7.12401 13.6449 6.82244 13.6449C6.52087 13.6449 6.23165 13.5251 6.01841 13.3118C5.80517 13.0986 5.68537 12.8094 5.68537 12.5078V11.3707H1.13707C0.835503 11.3707 0.546284 11.2509 0.333041 11.0377C0.119798 10.8244 0 10.5352 0 10.2337C0 9.93209 0.119798 9.64287 0.333041 9.42963C0.546284 9.21638 0.835503 9.09659 1.13707 9.09659H5.68537V7.95951C5.68537 7.65794 5.80517 7.36872 6.01841 7.15548C6.23165 6.94224 6.52087 6.82244 6.82244 6.82244ZM10.2337 10.2337C10.2337 9.93209 10.3535 9.64287 10.5667 9.42963C10.7799 9.21638 11.0692 9.09659 11.3707 9.09659H21.6044C21.906 9.09659 22.1952 9.21638 22.4084 9.42963C22.6217 9.64287 22.7415 9.93209 22.7415 10.2337C22.7415 10.5352 22.6217 10.8244 22.4084 11.0377C22.1952 11.2509 21.906 11.3707 21.6044 11.3707H11.3707C11.0692 11.3707 10.7799 11.2509 10.5667 11.0377C10.3535 10.8244 10.2337 10.5352 10.2337 10.2337ZM15.919 13.6449C16.2206 13.6449 16.5098 13.7647 16.7231 13.9779C16.9363 14.1912 17.0561 14.4804 17.0561 14.782V15.919H21.6044C21.906 15.919 22.1952 16.0388 22.4084 16.2521C22.6217 16.4653 22.7415 16.7545 22.7415 17.0561C22.7415 17.3577 22.6217 17.6469 22.4084 17.8601C22.1952 18.0734 21.906 18.1932 21.6044 18.1932H17.0561V19.3302C17.0561 19.6318 16.9363 19.921 16.7231 20.1343C16.5098 20.3475 16.2206 20.4673 15.919 20.4673C15.6175 20.4673 15.3282 20.3475 15.115 20.1343C14.9018 19.921 14.782 19.6318 14.782 19.3302V14.782C14.782 14.4804 14.9018 14.1912 15.115 13.9779C15.3282 13.7647 15.6175 13.6449 15.919 13.6449ZM0 17.0561C0 16.7545 0.119798 16.4653 0.333041 16.2521C0.546284 16.0388 0.835503 15.919 1.13707 15.919H11.3707C11.6723 15.919 11.9615 16.0388 12.1748 16.2521C12.388 16.4653 12.5078 16.7545 12.5078 17.0561C12.5078 17.3577 12.388 17.6469 12.1748 17.8601C11.9615 18.0734 11.6723 18.1932 11.3707 18.1932H1.13707C0.835503 18.1932 0.546284 18.0734 0.333041 17.8601C0.119798 17.6469 0 17.3577 0 17.0561Z" fill="#F30051"/>
</svg>
