<svg width="35" height="35" viewBox="0 0 35 35" fill="none" xmlns="http://www.w3.org/2000/svg">
<g clip-path="url(#clip0_2182_4515)">
<path d="M33.272 28.6666C33.2952 28.5155 33.3064 28.3702 33.3064 28.2258C33.3064 26.3578 31.7874 24.8387 29.9194 24.8387C29.4819 24.8387 29.0652 24.9244 28.6814 25.0763C28.2776 24.5327 27.7255 24.1319 27.0968 23.9101V17.648C27.9253 18.5913 29.1329 19.1935 30.4839 19.1935C32.9741 19.1935 35 17.1676 35 14.6774C35.0006 13.9485 34.8244 13.2303 34.4865 12.5844C34.1486 11.9385 33.659 11.3843 33.0598 10.9693C33.2227 10.53 33.3062 10.0653 33.3064 9.59677C33.3064 7.96991 32.2931 6.51896 30.8205 5.92742C30.9718 5.4723 31.0488 4.99575 31.0484 4.51613C31.0484 2.02591 29.0225 0 26.5323 0C24.042 0 22.0161 2.02591 22.0161 4.51613C22.0161 4.99985 22.093 5.47228 22.2441 5.92742C20.7714 6.51896 19.7581 7.96991 19.7581 9.59677C19.7583 10.0653 19.8418 10.53 20.0048 10.9693C19.4055 11.3843 18.9159 11.9385 18.578 12.5844C18.2401 13.2303 18.0639 13.9485 18.0645 14.6774C18.0645 17.1676 20.0904 19.1935 22.5806 19.1935C23.9316 19.1935 25.1392 18.5913 25.9677 17.648V23.7097C24.8569 23.7097 23.8723 24.2494 23.2545 25.0779C22.8618 24.9239 22.4428 24.8387 22.0161 24.8387C20.8651 24.8387 19.8113 25.436 19.1935 26.3719V23.7097H21.4516V20.3226H19.1935V18.9598L16.9355 16.7017L14.6774 18.9598V20.3226H13.5484V18.9598L11.2903 16.7017L10.1613 17.8307V12.9839H11.8548C14.0332 12.9839 15.8064 11.2107 15.8064 9.03226V8.46774H12.9839C11.8785 8.46774 10.8794 8.925 10.1613 9.65936V7.33871H11.8548C14.0332 7.33871 15.8064 5.56549 15.8064 3.3871V2.82258H12.9839C12.5859 2.82258 12.1958 2.88461 11.8181 3.00203L9.59677 0.225171L7.3754 3.00203C6.99774 2.88461 6.60766 2.82258 6.20968 2.82258H3.3871V3.3871C3.3871 5.56549 5.16031 7.33871 7.33871 7.33871H9.03226V12.4819C8.31419 11.7476 7.315 11.2903 6.20968 11.2903H3.3871V11.8548C3.3871 14.0332 5.16031 15.8065 7.33871 15.8065H9.03226V20.3226H7.90322V18.9598L5.64516 16.7017L3.3871 18.9598V20.3226H1.12903V23.7097H3.3871V27.0968H1.12903V30.4839H3.3871V33.871H2.25806V35H31.6129C33.481 35 35 33.481 35 31.6129C35 30.3708 34.3357 29.26 33.272 28.6666ZM22.5806 18.0645C20.7126 18.0645 19.1935 16.5455 19.1935 14.6774C19.1935 13.4255 19.881 12.2798 20.9877 11.6889L21.486 11.4228L21.2195 10.9245C20.999 10.5124 20.8871 10.0654 20.8871 9.59677C20.8871 8.27284 21.826 7.11241 23.1198 6.83678L23.8351 6.68436L23.5071 6.03136C23.267 5.55307 23.1452 5.04395 23.1452 4.51613C23.1452 2.64807 24.6642 1.12903 26.5323 1.12903C28.4003 1.12903 29.9194 2.64807 29.9194 4.51613C29.9194 5.04395 29.7975 5.55307 29.5574 6.03186L29.2294 6.68486L29.9447 6.83728C31.2386 7.11248 32.1774 8.27291 32.1774 9.59677C32.1774 10.0653 32.0655 10.5125 31.8451 10.9251L31.5785 11.4235L32.0768 11.6895C33.1835 12.2798 33.871 13.4253 33.871 14.6774C33.871 16.5455 32.3519 18.0645 30.4839 18.0645C29.0635 18.0645 27.8471 17.1855 27.3446 15.9437L29.9599 14.2003L31.9244 15.1827L32.4296 14.1727L29.878 12.8971L27.1001 14.7491C27.0995 14.7248 27.0968 14.7017 27.0968 14.6774V11.5619L27.7448 11.0431L28.9557 12.254L29.7539 11.4557L28.6324 10.3341L29.7077 9.47385L29.002 8.59208L27.0968 10.1156V7.64087L28.5392 6.67935L27.9129 5.74L27.0968 6.28405V4.77863L25.1521 3.48201L24.5258 4.42136L25.9677 5.38273V12.3736L24.1309 10.9041L23.0503 9.2834L22.111 9.90966L22.9831 11.2181L21.617 12.5842L22.4152 13.3824L23.7673 12.0304L25.9677 13.8177V14.6774C25.9677 16.5455 24.4487 18.0645 22.5806 18.0645ZM12.9839 9.59677H14.6203C14.358 10.8832 13.2182 11.8548 11.8548 11.8548H10.2184C10.4802 10.5684 11.6205 9.59677 12.9839 9.59677ZM14.6203 3.95161C14.3635 5.21211 13.2628 6.16395 11.9361 6.20227C12.2388 5.77168 12.4194 5.24986 12.4194 4.68478C12.4194 4.46476 12.3827 4.24784 12.329 4.03615C12.5431 3.98443 12.7614 3.95161 12.9839 3.95161H14.6203ZM8.23784 3.73195L9.59677 2.03289L10.9563 3.73251C11.1722 4.00295 11.29 4.33869 11.2903 4.68478C11.2903 5.52555 10.6062 6.20968 9.76542 6.20968H9.42812C8.58728 6.20968 7.90322 5.52555 7.90322 4.68478C7.90322 4.34 8.02177 4.00122 8.23784 3.73195ZM4.57329 3.95161H6.20968C6.4321 3.95161 6.65042 3.98443 6.86522 4.03629C6.81089 4.24798 6.77419 4.46483 6.77419 4.68478C6.77419 5.24986 6.95477 5.77168 7.25685 6.20227C5.93074 6.16395 4.83021 5.21211 4.57329 3.95161ZM7.33871 14.6774C5.9754 14.6774 4.83508 13.7057 4.57322 12.4194H6.20968C7.57298 12.4194 8.71331 13.391 8.97517 14.6774H7.33871ZM20.3226 21.4516V22.5806H19.1935V21.4516H20.3226ZM16.9355 18.2982L18.0645 19.4273V26.0185C17.8803 25.9876 17.6924 25.9677 17.5 25.9677C16.8886 25.9677 16.3095 26.1348 15.8064 26.4261V19.4273L16.9355 18.2982ZM14.6774 27.4976C14.5244 27.7285 14.4015 27.9791 14.3084 28.2473C14.0445 28.276 13.7907 28.3377 13.5484 28.424V23.7097H14.6774V27.4976ZM14.6774 21.4516V22.5806H13.5484V21.4516H14.6774ZM12.4194 19.4273V29.0952C11.7283 29.7156 11.2903 30.6126 11.2903 31.6129C11.2903 32.4812 11.6211 33.2709 12.1597 33.871H10.1613V19.4273L11.2903 18.2982L12.4194 19.4273ZM9.03226 27.0968H7.90322V23.7097H9.03226V27.0968ZM9.03226 28.2258V29.3548H7.90322V28.2258H9.03226ZM9.03226 30.4839V33.871H7.90322V30.4839H9.03226ZM9.03226 21.4516V22.5806H7.90322V21.4516H9.03226ZM2.25806 22.5806V21.4516H3.3871V22.5806H2.25806ZM2.25806 29.3548V28.2258H3.3871V29.3548H2.25806ZM4.51613 19.4273L5.64516 18.2982L6.77419 19.4273V33.871H4.51613V19.4273ZM31.6129 33.871H14.6774C13.4321 33.871 12.4194 32.8582 12.4194 31.6129C12.4194 30.3676 13.4321 29.3548 14.6774 29.3548C15.9227 29.3548 16.9355 30.3676 16.9355 31.6129H18.0645C18.0645 30.0282 16.9694 28.6977 15.4967 28.3302C15.8753 27.5929 16.6391 27.0968 17.5 27.0968C18.7453 27.0968 19.7581 28.1095 19.7581 29.3548H20.8871C20.8871 28.5007 20.5671 27.7222 20.0436 27.1254C20.4378 26.4218 21.1931 25.9677 22.0161 25.9677C22.2623 25.9677 22.5037 26.0124 22.7336 26.089C22.632 26.4153 22.5804 26.7551 22.5806 27.0968H23.7097C23.7097 25.8515 24.7224 24.8387 25.9677 24.8387C26.6536 24.8387 27.2848 25.1491 27.7081 25.6657C26.9895 26.2872 26.5323 27.2035 26.5323 28.2258H27.6613C27.6613 26.9805 28.674 25.9677 29.9194 25.9677C31.1647 25.9677 32.1774 26.9805 32.1774 28.2258C32.1774 28.4064 32.1468 28.6002 32.082 28.8339L31.9442 29.3272L32.4225 29.5117C33.3026 29.8515 33.871 30.6763 33.871 31.6129C33.871 32.8582 32.8582 33.871 31.6129 33.871ZM0 33.871H1.12903V35H0V33.871Z" fill="#F9B432"/>
<path d="M31.0491 20.3242H28.2266V20.8887C28.2266 22.445 29.4928 23.7113 31.0491 23.7113H33.8717V23.1468C33.8717 21.5905 32.6054 20.3242 31.0491 20.3242ZM31.0491 22.5823C30.3129 22.5823 29.6853 22.1103 29.4521 21.4533H31.0491C31.7854 21.4533 32.413 21.9252 32.6462 22.5823H31.0491Z" fill="#F9B432"/>
</g>
<defs>
<clipPath id="clip0_2182_4515">
<rect width="35" height="35" fill="white"/>
</clipPath>
</defs>
</svg>
