<svg width="719" height="594" viewBox="0 0 719 594" fill="none" xmlns="http://www.w3.org/2000/svg">
<g clip-path="url(#clip0_342_2673)">
<path opacity="0.1" d="M348.192 554.546C487.477 554.546 600.389 540.251 600.389 522.619C600.389 504.986 487.477 490.691 348.192 490.691C208.908 490.691 95.9961 504.986 95.9961 522.619C95.9961 540.251 208.908 554.546 348.192 554.546Z" fill="black"/>
<path d="M515.736 451.376C600.625 366.431 600.625 228.709 515.736 143.765C430.847 58.8207 293.215 58.8207 208.326 143.765C123.437 228.709 123.437 366.431 208.326 451.376C293.215 536.32 430.847 536.32 515.736 451.376Z" fill="#F30051"/>
<path d="M365.101 142.146C348.906 178.36 348.538 217.386 361.037 250.641C394.144 237.808 422.98 211.529 439.175 175.315C455.37 139.101 455.738 100.075 443.24 66.8203C410.131 79.6528 381.294 105.932 365.101 142.146Z" fill="#A3BF54"/>
<path d="M400.751 158.109C384.556 194.323 370.487 227.214 361.035 250.639C372.194 227.978 387.329 195.565 403.524 159.351C419.719 123.137 433.787 90.2457 443.239 66.8203C432.081 89.4816 416.946 121.895 400.751 158.109Z" fill="#819642"/>
<path d="M300.622 201.286C311.888 208.389 323.362 214.387 334.83 219.252L339.448 208.317L345.377 223.411C360.399 228.885 375.292 232.398 389.565 233.872C385.086 216.247 377.234 198.109 366.296 180.43L354.474 179.212L361.606 173.157C352.885 160.182 342.489 147.532 330.532 135.599L315.047 141.067L320.638 126.22C319.235 124.956 317.82 123.696 316.379 122.452C307.249 114.561 297.807 107.471 288.196 101.178L274.495 108.99L277.188 94.3657C266.052 87.8634 254.763 82.4305 243.52 78.0936L239.285 88.1197L234.005 74.679C220.938 70.3446 208.014 67.5056 195.564 66.2188C199.266 80.7867 205.275 95.7028 213.422 110.423L224.238 111.536L217.412 117.332C225.355 130.525 235.02 143.486 246.294 155.816L263.666 149.682L257.145 166.994C260.872 170.615 264.735 174.169 268.75 177.639C274.589 182.685 280.554 187.402 286.609 191.797L300.622 201.286Z" fill="#88A142"/>
<path d="M291.673 151.082C329.893 184.111 364.696 213.495 389.563 233.875C365.793 212.223 331.675 182.045 293.455 149.016C255.235 115.987 220.431 86.603 195.564 66.2227C219.335 87.8748 253.453 118.053 291.673 151.082Z" fill="#6E8235"/>
<path d="M470.014 247.011L541.651 99.4023" stroke="#88A142" stroke-width="3" stroke-miterlimit="10" stroke-linecap="round" stroke-linejoin="round"/>
<path d="M541.816 75.1164C536.955 85.1325 535.992 96.061 538.31 106.286C547.773 101.785 555.761 94.2714 560.622 84.2553C565.484 74.2392 566.446 63.3107 564.129 53.0859C554.664 57.5863 546.677 65.1003 541.816 75.1164Z" fill="#88A142"/>
<path d="M554.273 109.021C544.669 110.843 536.441 115.768 530.414 122.555C538.506 126.663 547.963 128.234 557.567 126.412C567.171 124.589 575.398 119.664 581.425 112.878C573.333 108.77 563.876 107.199 554.273 109.021Z" fill="#88A142"/>
<path d="M550.261 137.788C540.964 134.762 531.386 135.119 522.838 138.167C527.957 145.664 535.492 151.593 544.787 154.62C554.084 157.646 563.662 157.289 572.21 154.241C567.091 146.744 559.556 140.814 550.261 137.788Z" fill="#88A142"/>
<path d="M533.502 160.587C523.726 160.641 514.747 163.996 507.592 169.58C514.808 175.084 523.826 178.34 533.6 178.286C543.376 178.232 552.356 174.877 559.511 169.293C552.295 163.789 543.277 160.533 533.502 160.587Z" fill="#88A142"/>
<path d="M528.352 183.446C519.138 180.181 509.551 180.29 500.93 183.116C505.853 190.744 513.233 196.866 522.447 200.131C531.662 203.396 541.248 203.287 549.871 200.461C544.948 192.833 537.567 186.711 528.352 183.446Z" fill="#88A142"/>
<path d="M513.767 205.475C504.04 204.503 494.757 206.898 487.057 211.7C493.656 217.932 502.282 222.116 512.009 223.088C521.736 224.061 531.02 221.666 538.72 216.864C532.121 210.632 523.494 206.447 513.767 205.475Z" fill="#88A142"/>
<path d="M497.156 227.417C489.757 226.676 482.695 228.499 476.838 232.151C481.858 236.891 488.42 240.074 495.818 240.813C503.217 241.553 510.279 239.731 516.137 236.079C511.117 231.339 504.555 228.157 497.156 227.417Z" fill="#88A142"/>
<path d="M521.666 103.364C526.173 112.044 527.392 121.558 525.789 130.495C517.559 126.672 510.478 120.206 505.97 111.526C501.461 102.846 500.244 93.3311 501.846 84.3945C510.076 88.2188 517.159 94.6834 521.666 103.364Z" fill="#88A142"/>
<path d="M501.555 124.307C509.68 129.746 515.322 137.501 518.214 146.107C509.161 146.718 499.843 144.459 491.719 139.018C483.594 133.579 477.952 125.824 475.061 117.218C484.113 116.608 493.431 118.868 501.555 124.307Z" fill="#88A142"/>
<path d="M494.014 151.584C500.016 159.305 502.934 168.443 502.971 177.521C494.186 175.25 486.053 170.172 480.051 162.451C474.049 154.729 471.131 145.592 471.094 136.512C479.879 138.784 488.012 143.862 494.014 151.584Z" fill="#88A142"/>
<path d="M479.243 169.767C487.506 174.995 493.347 182.601 496.459 191.13C487.424 191.974 478.053 189.957 469.79 184.729C461.528 179.501 455.686 171.895 452.574 163.365C461.609 162.521 470.981 164.539 479.243 169.767Z" fill="#88A142"/>
<path d="M470.955 194.857C477.734 201.906 481.593 210.687 482.583 219.711C473.608 218.374 464.987 214.178 458.209 207.129C451.431 200.08 447.572 191.299 446.582 182.273C455.557 183.611 464.177 187.808 470.955 194.857Z" fill="#88A142"/>
<path d="M463.995 221.488C469.15 226.849 472.087 233.529 472.839 240.394C466.012 239.377 459.455 236.185 454.299 230.824C449.144 225.463 446.207 218.783 445.455 211.918C452.282 212.935 458.839 216.127 463.995 221.488Z" fill="#88A142"/>
<path d="M214.959 367.08L126.797 257.645" stroke="#88A142" stroke-width="2" stroke-miterlimit="10" stroke-linecap="round" stroke-linejoin="round"/>
<path d="M108.05 248.653C114.033 256.079 122.144 260.816 130.909 262.751C130.878 253.769 127.975 244.833 121.992 237.407C116.008 229.981 107.898 225.244 99.1328 223.309C99.163 232.289 102.067 241.226 108.05 248.653Z" fill="#88A142"/>
<path d="M138.853 251.37C136.758 259.483 137.57 267.66 140.624 274.812C146.759 270.037 151.429 263.278 153.523 255.164C155.618 247.052 154.807 238.875 151.753 231.723C145.617 236.498 140.948 243.258 138.853 251.37Z" fill="#88A142"/>
<path d="M159.666 264.984C153.929 271.088 150.709 278.647 149.949 286.387C157.624 285.154 164.967 281.476 170.704 275.372C176.441 269.268 179.661 261.709 180.421 253.969C172.746 255.202 165.403 258.88 159.666 264.984Z" fill="#88A142"/>
<path d="M171.204 286.298C167.677 293.898 166.998 302.087 168.71 309.673C175.607 306.087 181.419 300.283 184.946 292.684C188.473 285.084 189.152 276.894 187.44 269.309C180.544 272.894 174.731 278.698 171.204 286.298Z" fill="#88A142"/>
<path d="M187.029 298.639C181.137 304.592 177.722 312.066 176.764 319.783C184.467 318.749 191.902 315.262 197.795 309.309C203.688 303.355 207.101 295.882 208.061 288.164C200.358 289.198 192.922 292.686 187.029 298.639Z" fill="#88A142"/>
<path d="M198.762 317.989C194.458 325.178 192.923 333.25 193.831 340.975C201.066 338.132 207.455 332.971 211.759 325.782C216.063 318.594 217.597 310.522 216.69 302.797C209.455 305.64 203.066 310.801 198.762 317.989Z" fill="#88A142"/>
<path d="M209.691 338.88C206.417 344.348 205.25 350.488 205.941 356.363C211.444 354.201 216.305 350.275 219.579 344.808C222.853 339.34 224.02 333.199 223.329 327.324C217.826 329.486 212.965 333.412 209.691 338.88Z" fill="#88A142"/>
<path d="M122.57 274.587C130.937 274.26 138.751 276.789 145.087 281.294C139.122 286.281 131.53 289.411 123.162 289.738C114.795 290.065 106.981 287.536 100.645 283.031C106.61 278.044 114.202 274.914 122.57 274.587Z" fill="#88A142"/>
<path d="M131.446 297.828C138.624 293.513 146.689 291.968 154.411 292.867C151.579 300.11 146.428 306.51 139.249 310.825C132.071 315.139 124.005 316.685 116.285 315.785C119.117 308.543 124.268 302.142 131.446 297.828Z" fill="#88A142"/>
<path d="M149.817 313.635C157.988 311.798 166.129 312.872 173.175 316.157C168.209 322.14 161.306 326.593 153.137 328.429C144.967 330.265 136.825 329.192 129.779 325.906C134.745 319.923 141.646 315.471 149.817 313.635Z" fill="#88A142"/>
<path d="M158.511 331.727C165.576 327.228 173.598 325.476 181.34 326.176C178.695 333.491 173.711 340.021 166.647 344.52C159.583 349.019 151.56 350.771 143.818 350.071C146.462 342.758 151.445 336.226 158.511 331.727Z" fill="#88A142"/>
<path d="M174.913 347.31C182.845 344.627 191.055 344.839 198.406 347.366C194.094 353.838 187.698 358.991 179.764 361.674C171.831 364.357 163.622 364.145 156.271 361.618C160.583 355.145 166.979 349.993 174.913 347.31Z" fill="#88A142"/>
<path d="M192.998 362.43C199.032 360.389 205.277 360.552 210.868 362.473C207.589 367.396 202.722 371.315 196.689 373.356C190.654 375.397 184.41 375.235 178.818 373.314C182.098 368.39 186.963 364.471 192.998 362.43Z" fill="#88A142"/>
<path d="M156.067 242.263C187.076 282.772 223.775 312.596 257.505 327.642C251.772 291.136 232.552 247.914 201.542 207.406C170.532 166.898 133.833 137.073 100.104 122.027C105.835 158.533 125.057 201.755 156.067 242.263Z" fill="#A3BF54"/>
<path d="M177.953 225.486C208.963 265.994 237.25 302.267 257.506 327.641C238.299 301.464 210.666 264.689 179.656 224.182C148.647 183.674 120.36 147.401 100.104 122.027C119.31 148.204 146.944 184.979 177.953 225.486Z" fill="#819642"/>
<path d="M536.423 238.203C516.04 266.556 506.079 298.177 506.593 325.925C533.046 317.59 559.841 298.084 580.223 269.733C600.605 241.381 610.567 209.758 610.054 182.012C583.6 190.345 556.806 209.851 536.423 238.203Z" fill="#A3BF54"/>
<path d="M557.506 253.379C537.124 281.731 519.061 307.522 506.596 325.926C520.07 308.249 538.763 282.912 559.145 254.559C579.528 226.207 597.591 200.415 610.056 182.012C596.581 199.689 577.889 225.026 557.506 253.379Z" fill="#819642"/>
<path d="M431.178 122.332H171.689C166.096 122.332 161.561 126.87 161.561 132.468V333.35C161.561 338.948 166.096 343.487 171.689 343.487H431.176C436.77 343.487 441.307 338.949 441.307 333.35V132.468C441.307 126.87 436.771 122.332 431.178 122.332Z" fill="#EDEDED"/>
<path d="M441.308 162.197V132.469C441.308 126.871 436.773 122.332 431.179 122.332H171.691C166.096 122.332 161.561 126.87 161.561 132.469V162.197H441.308Z" fill="#E26573"/>
<g opacity="0.15">
<path d="M411.754 150.596C418.279 150.596 423.588 145.285 423.588 138.756V122.332H399.924V138.756C399.924 145.284 405.231 150.596 411.754 150.596Z" fill="black"/>
<path d="M379.973 150.596C386.498 150.596 391.806 145.285 391.806 138.756V122.332H368.143V138.756C368.141 145.284 373.45 150.596 379.973 150.596Z" fill="black"/>
<path d="M189.264 150.596C195.787 150.596 201.095 145.285 201.095 138.756V122.332H177.432V138.756C177.432 145.284 182.739 150.596 189.264 150.596Z" fill="black"/>
<path d="M348.19 150.596C354.714 150.596 360.022 145.285 360.022 138.756V122.332H336.359V138.756C336.358 145.284 341.666 150.596 348.19 150.596Z" fill="black"/>
<path d="M252.834 150.596C259.358 150.596 264.666 145.285 264.666 138.756V122.332H241.002V138.756C241.002 145.284 246.311 150.596 252.834 150.596Z" fill="black"/>
<path d="M221.051 150.596C227.575 150.596 232.883 145.285 232.883 138.756V122.332H209.219V138.756C209.219 145.284 214.526 150.596 221.051 150.596Z" fill="black"/>
<path d="M284.621 150.596C291.145 150.596 296.453 145.285 296.453 138.756V122.332H272.789V138.756C272.789 145.284 278.098 150.596 284.621 150.596Z" fill="black"/>
<path d="M316.404 150.596C322.929 150.596 328.236 145.285 328.236 138.756V122.332H304.572V138.756C304.572 145.284 309.88 150.596 316.404 150.596Z" fill="black"/>
</g>
<path d="M189.265 144.362C185.609 144.362 182.619 141.368 182.619 137.711V113.119C182.619 109.461 185.611 106.469 189.265 106.469C192.921 106.469 195.912 109.461 195.912 113.119V137.711C195.912 141.368 192.921 144.362 189.265 144.362Z" fill="#EDEDED"/>
<path d="M221.053 144.362C217.397 144.362 214.406 141.368 214.406 137.711V113.119C214.406 109.461 217.398 106.469 221.053 106.469C224.708 106.469 227.699 109.461 227.699 113.119V137.711C227.699 141.368 224.708 144.362 221.053 144.362Z" fill="#EDEDED"/>
<path d="M252.836 144.362C249.18 144.362 246.189 141.368 246.189 137.711V113.119C246.189 109.461 249.181 106.469 252.836 106.469C256.492 106.469 259.482 109.461 259.482 113.119V137.711C259.482 141.368 256.492 144.362 252.836 144.362Z" fill="#EDEDED"/>
<path d="M284.623 144.362C280.967 144.362 277.977 141.368 277.977 137.711V113.119C277.977 109.461 280.968 106.469 284.623 106.469C288.279 106.469 291.269 109.461 291.269 113.119V137.711C291.27 141.368 288.279 144.362 284.623 144.362Z" fill="#EDEDED"/>
<path d="M316.406 144.362C312.75 144.362 309.76 141.368 309.76 137.711V113.119C309.76 109.461 312.751 106.469 316.406 106.469C320.062 106.469 323.052 109.461 323.052 113.119V137.711C323.052 141.368 320.061 144.362 316.406 144.362Z" fill="#EDEDED"/>
<path d="M348.189 144.362C344.533 144.362 341.543 141.368 341.543 137.711V113.119C341.543 109.461 344.535 106.469 348.189 106.469C351.845 106.469 354.835 109.461 354.835 113.119V137.711C354.835 141.368 351.845 144.362 348.189 144.362Z" fill="#EDEDED"/>
<path d="M379.97 144.362C376.315 144.362 373.324 141.368 373.324 137.711V113.119C373.324 109.461 376.315 106.469 379.97 106.469C383.626 106.469 386.617 109.461 386.617 113.119V137.711C386.617 141.368 383.626 144.362 379.97 144.362Z" fill="#EDEDED"/>
<path d="M411.758 144.362C408.102 144.362 405.111 141.368 405.111 137.711V113.119C405.111 109.461 408.103 106.469 411.758 106.469C415.414 106.469 418.404 109.461 418.404 113.119V137.711C418.405 141.368 415.414 144.362 411.758 144.362Z" fill="#EDEDED"/>
<path d="M200.573 200.929H174.269C173.077 200.929 172.111 199.963 172.111 198.77V173.772C172.111 172.58 173.077 171.613 174.269 171.613H200.573C201.765 171.613 202.73 172.58 202.73 173.772V198.77C202.73 199.963 201.765 200.929 200.573 200.929Z" fill="#D9D9D9"/>
<path d="M238.579 200.929H212.275C211.083 200.929 210.117 199.963 210.117 198.77V173.772C210.117 172.58 211.083 171.613 212.275 171.613H238.579C239.77 171.613 240.736 172.58 240.736 173.772V198.77C240.736 199.963 239.77 200.929 238.579 200.929Z" fill="#D9D9D9"/>
<path d="M276.582 200.929H250.279C249.087 200.929 248.121 199.963 248.121 198.77V173.772C248.121 172.58 249.087 171.613 250.279 171.613H276.582C277.774 171.613 278.74 172.58 278.74 173.772V198.77C278.74 199.963 277.774 200.929 276.582 200.929Z" fill="#D9D9D9"/>
<path d="M314.588 200.929H288.285C287.093 200.929 286.127 199.963 286.127 198.77V173.772C286.127 172.58 287.093 171.613 288.285 171.613H314.588C315.78 171.613 316.746 172.58 316.746 173.772V198.77C316.746 199.963 315.779 200.929 314.588 200.929Z" fill="#D9D9D9"/>
<path d="M352.598 200.929H326.294C325.102 200.929 324.137 199.963 324.137 198.77V173.772C324.137 172.58 325.102 171.613 326.294 171.613H352.598C353.79 171.613 354.756 172.58 354.756 173.772V198.77C354.754 199.963 353.789 200.929 352.598 200.929Z" fill="#D9D9D9"/>
<path d="M390.604 200.929H364.3C363.108 200.929 362.143 199.963 362.143 198.77V173.772C362.143 172.58 363.108 171.613 364.3 171.613H390.604C391.796 171.613 392.762 172.58 392.762 173.772V198.77C392.76 199.963 391.795 200.929 390.604 200.929Z" fill="#D9D9D9"/>
<path d="M428.608 200.929H402.304C401.112 200.929 400.146 199.963 400.146 198.77V173.772C400.146 172.58 401.112 171.613 402.304 171.613H428.608C429.8 171.613 430.766 172.58 430.766 173.772V198.77C430.766 199.963 429.8 200.929 428.608 200.929Z" fill="#E26573"/>
<path d="M200.573 243.972H174.269C173.077 243.972 172.111 243.006 172.111 241.813V216.815C172.111 215.623 173.077 214.656 174.269 214.656H200.573C201.765 214.656 202.73 215.623 202.73 216.815V241.813C202.73 243.006 201.765 243.972 200.573 243.972Z" fill="#BFBFBF"/>
<path d="M238.579 243.972H212.275C211.083 243.972 210.117 243.006 210.117 241.813V216.815C210.117 215.623 211.083 214.656 212.275 214.656H238.579C239.77 214.656 240.736 215.623 240.736 216.815V241.813C240.736 243.006 239.77 243.972 238.579 243.972Z" fill="#BFBFBF"/>
<path d="M276.582 243.972H250.279C249.087 243.972 248.121 243.006 248.121 241.813V216.815C248.121 215.623 249.087 214.656 250.279 214.656H276.582C277.774 214.656 278.74 215.623 278.74 216.815V241.813C278.74 243.006 277.774 243.972 276.582 243.972Z" fill="#BFBFBF"/>
<path d="M314.588 243.972H288.285C287.093 243.972 286.127 243.006 286.127 241.813V216.815C286.127 215.623 287.093 214.656 288.285 214.656H314.588C315.78 214.656 316.746 215.623 316.746 216.815V241.813C316.746 243.006 315.779 243.972 314.588 243.972Z" fill="#BFBFBF"/>
<path d="M352.598 243.972H326.294C325.102 243.972 324.137 243.006 324.137 241.813V216.815C324.137 215.623 325.102 214.656 326.294 214.656H352.598C353.79 214.656 354.756 215.623 354.756 216.815V241.813C354.754 243.006 353.789 243.972 352.598 243.972Z" fill="#BFBFBF"/>
<path d="M390.604 243.972H364.3C363.108 243.972 362.143 243.006 362.143 241.813V216.815C362.143 215.623 363.108 214.656 364.3 214.656H390.604C391.796 214.656 392.762 215.623 392.762 216.815V241.813C392.76 243.006 391.795 243.972 390.604 243.972Z" fill="#BFBFBF"/>
<path d="M428.608 243.972H402.304C401.112 243.972 400.146 243.006 400.146 241.813V216.815C400.146 215.623 401.112 214.656 402.304 214.656H428.608C429.8 214.656 430.766 215.623 430.766 216.815V241.813C430.766 243.006 429.8 243.972 428.608 243.972Z" fill="#E26573"/>
<path d="M200.573 287.019H174.269C173.077 287.019 172.111 286.052 172.111 284.86V259.862C172.111 258.67 173.077 257.703 174.269 257.703H200.573C201.765 257.703 202.73 258.67 202.73 259.862V284.86C202.73 286.052 201.765 287.019 200.573 287.019Z" fill="#D9D9D9"/>
<path d="M238.579 287.019H212.275C211.083 287.019 210.117 286.052 210.117 284.86V259.862C210.117 258.67 211.083 257.703 212.275 257.703H238.579C239.77 257.703 240.736 258.67 240.736 259.862V284.86C240.736 286.052 239.77 287.019 238.579 287.019Z" fill="#D9D9D9"/>
<path d="M276.582 287.019H250.279C249.087 287.019 248.121 286.052 248.121 284.86V259.862C248.121 258.67 249.087 257.703 250.279 257.703H276.582C277.774 257.703 278.74 258.67 278.74 259.862V284.86C278.74 286.052 277.774 287.019 276.582 287.019Z" fill="#D9D9D9"/>
<path d="M314.588 287.019H288.285C287.093 287.019 286.127 286.052 286.127 284.86V259.862C286.127 258.67 287.093 257.703 288.285 257.703H314.588C315.78 257.703 316.746 258.67 316.746 259.862V284.86C316.746 286.052 315.779 287.019 314.588 287.019Z" fill="#D9D9D9"/>
<path d="M352.598 287.019H326.294C325.102 287.019 324.137 286.052 324.137 284.86V259.862C324.137 258.67 325.102 257.703 326.294 257.703H352.598C353.79 257.703 354.756 258.67 354.756 259.862V284.86C354.754 286.052 353.789 287.019 352.598 287.019Z" fill="#D9D9D9"/>
<path d="M390.604 287.019H364.3C363.108 287.019 362.143 286.052 362.143 284.86V259.862C362.143 258.67 363.108 257.703 364.3 257.703H390.604C391.796 257.703 392.762 258.67 392.762 259.862V284.86C392.76 286.052 391.795 287.019 390.604 287.019Z" fill="#D9D9D9"/>
<path d="M428.608 287.019H402.304C401.112 287.019 400.146 286.052 400.146 284.86V259.862C400.146 258.67 401.112 257.703 402.304 257.703H428.608C429.8 257.703 430.766 258.67 430.766 259.862V284.86C430.766 286.052 429.8 287.019 428.608 287.019Z" fill="#E26573"/>
<path d="M200.573 330.066H174.269C173.077 330.066 172.111 329.099 172.111 327.907V302.909C172.111 301.716 173.077 300.75 174.269 300.75H200.573C201.765 300.75 202.73 301.716 202.73 302.909V327.907C202.73 329.098 201.765 330.066 200.573 330.066Z" fill="#BFBFBF"/>
<path d="M238.579 330.066H212.275C211.083 330.066 210.117 329.099 210.117 327.907V302.909C210.117 301.716 211.083 300.75 212.275 300.75H238.579C239.77 300.75 240.736 301.716 240.736 302.909V327.907C240.736 329.098 239.77 330.066 238.579 330.066Z" fill="#BFBFBF"/>
<path d="M276.582 330.066H250.279C249.087 330.066 248.121 329.099 248.121 327.907V302.909C248.121 301.716 249.087 300.75 250.279 300.75H276.582C277.774 300.75 278.74 301.716 278.74 302.909V327.907C278.74 329.098 277.774 330.066 276.582 330.066Z" fill="#BFBFBF"/>
<path d="M314.588 330.066H288.285C287.093 330.066 286.127 329.099 286.127 327.907V302.909C286.127 301.716 287.093 300.75 288.285 300.75H314.588C315.78 300.75 316.746 301.716 316.746 302.909V327.907C316.746 329.098 315.779 330.066 314.588 330.066Z" fill="#BFBFBF"/>
<path d="M352.598 330.066H326.294C325.102 330.066 324.137 329.099 324.137 327.907V302.909C324.137 301.716 325.102 300.75 326.294 300.75H352.598C353.79 300.75 354.756 301.716 354.756 302.909V327.907C354.754 329.098 353.789 330.066 352.598 330.066Z" fill="#BFBFBF"/>
<path d="M390.604 330.066H364.3C363.108 330.066 362.143 329.099 362.143 327.907V302.909C362.143 301.716 363.108 300.75 364.3 300.75H390.604C391.796 300.75 392.762 301.716 392.762 302.909V327.907C392.76 329.098 391.795 330.066 390.604 330.066Z" fill="#BFBFBF"/>
<path d="M428.608 330.066H402.304C401.112 330.066 400.146 329.099 400.146 327.907V302.909C400.146 301.716 401.112 300.75 402.304 300.75H428.608C429.8 300.75 430.766 301.716 430.766 302.909V327.907C430.766 329.098 429.8 330.066 428.608 330.066Z" fill="#E26573"/>
<mask id="mask0_342_2673" style="mask-type:luminance" maskUnits="userSpaceOnUse" x="161" y="122" width="281" height="222">
<path d="M431.178 122.332H171.689C166.096 122.332 161.561 126.87 161.561 132.468V333.35C161.561 338.948 166.096 343.487 171.689 343.487H431.176C436.77 343.487 441.307 338.949 441.307 333.35V132.468C441.307 126.87 436.771 122.332 431.178 122.332Z" fill="white"/>
</mask>
<g mask="url(#mask0_342_2673)">
<path opacity="0.1" d="M499.628 171.977C429.487 171.977 372.627 228.875 372.627 299.061C372.627 302.635 372.781 306.171 373.071 309.671H180.789C171.509 309.671 163.916 317.269 163.916 326.555V509.945C163.916 519.23 171.509 526.829 180.789 526.829H461.297C470.577 526.829 478.171 519.23 478.171 509.945V424.331C485.147 425.519 492.313 426.146 499.628 426.146C569.769 426.146 626.629 369.248 626.629 299.061C626.63 228.875 569.769 171.977 499.628 171.977Z" fill="black"/>
</g>
<path d="M133.222 372.242H249.011C251.528 372.242 253.569 374.284 253.569 376.803V393.193C253.569 395.712 251.528 397.754 249.011 397.754H133.222C130.705 397.754 128.664 395.712 128.664 393.193V376.803C128.665 374.284 130.705 372.242 133.222 372.242Z" fill="#FFB81F"/>
<path opacity="0.05" d="M159.44 372.242H152.836V397.753H159.44V372.242Z" fill="black"/>
<path opacity="0.05" d="M141.939 372.242H135.336V397.753H141.939V372.242Z" fill="black"/>
<path opacity="0.05" d="M194.436 372.242H187.832V397.753H194.436V372.242Z" fill="black"/>
<path opacity="0.05" d="M176.94 372.242H170.336V397.753H176.94V372.242Z" fill="black"/>
<path opacity="0.05" d="M246.938 372.242H240.334V397.753H246.938V372.242Z" fill="black"/>
<path opacity="0.05" d="M211.938 372.242H205.334V397.753H211.938V372.242Z" fill="black"/>
<path opacity="0.05" d="M229.438 372.242H222.834V397.753H229.438V372.242Z" fill="black"/>
<path opacity="0.15" d="M131.987 372.434V390.348C131.987 391.59 132.993 392.595 134.233 392.595H253.569V393.192C253.569 395.711 251.528 397.753 249.011 397.753H133.222C130.705 397.753 128.664 395.711 128.664 393.192V376.802C128.665 374.715 130.074 372.974 131.987 372.434Z" fill="black"/>
<path d="M141.046 346.402H256.836C259.352 346.402 261.393 348.445 261.393 350.963V367.353C261.393 369.872 259.352 371.914 256.836 371.914H141.046C138.529 371.914 136.488 369.872 136.488 367.353V350.963C136.488 348.445 138.529 346.402 141.046 346.402Z" fill="#FFD747"/>
<path opacity="0.05" d="M167.264 346.402H160.66V371.913H167.264V346.402Z" fill="black"/>
<path opacity="0.05" d="M149.764 346.402H143.16V371.913H149.764V346.402Z" fill="black"/>
<path opacity="0.05" d="M202.26 346.402H195.656V371.913H202.26V346.402Z" fill="black"/>
<path opacity="0.05" d="M184.764 346.402H178.16V371.913H184.764V346.402Z" fill="black"/>
<path opacity="0.05" d="M254.762 346.402H248.158V371.913H254.762V346.402Z" fill="black"/>
<path opacity="0.05" d="M219.762 346.402H213.158V371.913H219.762V346.402Z" fill="black"/>
<path opacity="0.05" d="M237.262 346.402H230.658V371.913H237.262V346.402Z" fill="black"/>
<path opacity="0.15" d="M139.811 346.594V364.508C139.811 365.749 140.817 366.755 142.057 366.755H261.393V367.352C261.393 369.871 259.352 371.913 256.836 371.913H141.046C138.529 371.913 136.488 369.871 136.488 367.352V350.962C136.488 348.876 137.899 347.135 139.811 346.594Z" fill="black"/>
<path d="M507.303 153.836H491.965V195.401H507.303V153.836Z" fill="#8F8F8F"/>
<path d="M507.281 158.274H491.974C490.34 158.274 489.004 156.937 489.004 155.302V146.289C489.004 144.654 490.34 143.316 491.974 143.316H507.281C508.915 143.316 510.251 144.654 510.251 146.289V155.302C510.251 156.937 508.915 158.274 507.281 158.274Z" fill="#E26573"/>
<path d="M502.777 173.231H496.478C492.367 173.231 489.004 169.865 489.004 165.752C489.004 161.639 492.367 158.273 496.478 158.273H502.777C506.888 158.273 510.251 161.639 510.251 165.752C510.251 169.865 506.888 173.231 502.777 173.231Z" fill="#BFBFBF"/>
<path d="M512.241 167.281H487.021C484.998 167.281 483.344 165.624 483.344 163.601V156.004C483.344 153.979 484.999 152.324 487.021 152.324H512.241C514.264 152.324 515.918 153.981 515.918 156.004V163.601C515.918 165.624 514.263 167.281 512.241 167.281Z" fill="#D1D1D1"/>
<path d="M561.471 172.405L547.838 165.371L528.802 202.313L542.434 209.347L561.471 172.405Z" fill="#8F8F8F"/>
<path d="M559.439 176.329L545.833 169.31C544.382 168.561 543.806 166.759 544.555 165.306L548.682 157.295C549.43 155.843 551.231 155.267 552.683 156.016L566.288 163.035C567.74 163.784 568.315 165.586 567.567 167.039L563.439 175.049C562.691 176.501 560.891 177.078 559.439 176.329Z" fill="#BFBFBF"/>
<path d="M548.584 187.557L542.985 184.667C539.332 182.782 537.884 178.249 539.768 174.593C541.652 170.938 546.182 169.489 549.835 171.374L555.434 174.263C559.087 176.148 560.535 180.681 558.652 184.337C556.768 187.993 552.238 189.442 548.584 187.557Z" fill="#BFBFBF"/>
<path d="M559.714 186.606L537.299 175.041C535.501 174.114 534.788 171.883 535.715 170.084L539.194 163.331C540.121 161.533 542.35 160.819 544.148 161.746L566.564 173.311C568.362 174.238 569.074 176.469 568.148 178.269L564.669 185.021C563.742 186.819 561.513 187.533 559.714 186.606Z" fill="#D1D1D1"/>
<path d="M456.813 209.347L470.445 202.312L451.409 165.371L437.776 172.405L456.813 209.347Z" fill="#8F8F8F"/>
<path d="M439.823 176.329L453.428 169.31C454.88 168.561 455.455 166.759 454.707 165.306L450.579 157.295C449.83 155.843 448.029 155.267 446.577 156.016L432.972 163.035C431.52 163.784 430.945 165.586 431.694 167.039L435.82 175.049C436.572 176.501 438.371 177.078 439.823 176.329Z" fill="#BFBFBF"/>
<path d="M450.675 187.557L456.274 184.667C459.927 182.782 461.375 178.249 459.491 174.593C457.608 170.938 453.077 169.489 449.424 171.374L443.825 174.263C440.172 176.148 438.724 180.681 440.608 184.337C442.49 187.993 447.021 189.442 450.675 187.557Z" fill="#BFBFBF"/>
<path d="M439.543 186.606L461.958 175.041C463.757 174.114 464.469 171.883 463.542 170.084L460.063 163.331C459.136 161.533 456.907 160.819 455.109 161.746L432.693 173.311C430.896 174.238 430.183 176.469 431.109 178.269L434.588 185.021C435.516 186.819 437.746 187.533 439.543 186.606Z" fill="#D1D1D1"/>
<path d="M580.981 380.478C625.914 335.516 625.914 262.617 580.981 217.654C536.048 172.692 463.196 172.692 418.263 217.654C373.33 262.617 373.33 335.516 418.263 380.478C463.197 425.441 536.048 425.441 580.981 380.478Z" fill="#D4D4D4"/>
<path opacity="0.15" d="M575.004 374.495C616.635 332.837 616.635 265.296 575.004 223.638C533.373 181.979 465.876 181.979 424.245 223.638C382.614 265.296 382.614 332.837 424.245 374.495C465.876 416.153 533.373 416.153 575.004 374.495Z" fill="black"/>
<path d="M570.868 370.359C610.216 330.985 610.216 267.148 570.868 227.774C531.52 188.4 467.725 188.4 428.377 227.774C389.029 267.148 389.029 330.985 428.377 370.359C467.725 409.732 531.52 409.732 570.868 370.359Z" fill="white"/>
<path opacity="0.1" d="M499.629 198.242C443.982 198.242 398.871 243.383 398.871 299.066C398.871 354.749 443.982 399.889 499.629 399.889C555.276 399.889 600.387 354.749 600.387 299.066C600.387 243.383 555.277 198.242 499.629 198.242ZM499.629 392.144C448.256 392.144 406.61 350.471 406.61 299.064C406.61 247.658 448.256 205.985 499.629 205.985C551.002 205.985 592.648 247.658 592.648 299.064C592.648 350.471 551.002 392.144 499.629 392.144Z" fill="black"/>
<path opacity="0.1" d="M538.416 310.797L520.366 303.977L513.024 301.202C512.228 295.947 508.432 291.685 503.428 290.226V282.826V241.574C503.428 239.57 501.789 237.93 499.785 237.93H499.476C497.473 237.93 495.834 239.57 495.834 241.574V282.826V290.226C490.194 291.871 486.068 297.074 486.068 303.249C486.068 310.744 492.141 316.821 499.632 316.821C503.142 316.821 506.331 315.475 508.74 313.284L533.892 322.789C537.201 324.039 540.898 322.368 542.147 319.056C543.396 315.746 541.725 312.048 538.416 310.797Z" fill="black"/>
<path d="M499.783 300.487H499.474C497.471 300.487 495.832 298.847 495.832 296.843V237.391C495.832 235.386 497.471 233.746 499.474 233.746H499.783C501.786 233.746 503.425 235.386 503.425 237.391V296.843C503.425 298.847 501.786 300.487 499.783 300.487Z" fill="#B80C45"/>
<path opacity="0.15" d="M499.629 278.281C498.33 278.281 497.064 278.416 495.832 278.644V296.844C495.832 298.849 497.471 300.489 499.474 300.489H499.783C501.786 300.489 503.425 298.849 503.425 296.844V278.644C502.193 278.416 500.927 278.281 499.629 278.281Z" fill="black"/>
<path d="M498.85 298.513C500.1 295.202 503.796 293.532 507.105 294.782L538.419 306.614C541.728 307.865 543.398 311.563 542.149 314.875C540.899 318.186 537.203 319.858 533.894 318.606L502.58 306.774C499.271 305.523 497.601 301.826 498.85 298.513Z" fill="#B80C45"/>
<path opacity="0.15" d="M520.368 299.794L507.105 294.782C503.796 293.532 500.1 295.202 498.85 298.513C497.601 301.825 499.271 305.523 502.58 306.774L515.995 311.842C518.607 308.496 520.209 304.332 520.368 299.794Z" fill="black"/>
<path d="M499.628 312.637C507.119 312.637 513.192 306.561 513.192 299.065C513.192 291.569 507.119 285.492 499.628 285.492C492.137 285.492 486.064 291.569 486.064 299.065C486.064 306.561 492.137 312.637 499.628 312.637Z" fill="#F30051"/>
<path d="M499.629 225.202C502.246 225.202 504.368 223.079 504.368 220.46C504.368 217.842 502.246 215.719 499.629 215.719C497.012 215.719 494.891 217.842 494.891 220.46C494.891 223.079 497.012 225.202 499.629 225.202Z" fill="#F30051"/>
<path d="M504.368 377.667C504.368 380.286 502.246 382.409 499.629 382.409C497.012 382.409 494.891 380.286 494.891 377.667C494.891 375.048 497.012 372.926 499.629 372.926C502.246 372.926 504.368 375.048 504.368 377.667Z" fill="#F30051"/>
<path d="M578.184 303.807C580.801 303.807 582.922 301.685 582.922 299.066C582.922 296.447 580.801 294.324 578.184 294.324C575.567 294.324 573.445 296.447 573.445 299.066C573.445 301.685 575.567 303.807 578.184 303.807Z" fill="#F30051"/>
<path d="M421.076 303.807C418.459 303.807 416.338 301.685 416.338 299.066C416.338 296.447 418.459 294.324 421.076 294.324C423.694 294.324 425.815 296.447 425.815 299.066C425.815 301.684 423.694 303.807 421.076 303.807Z" fill="#F30051"/>
<path d="M544.602 234.439C543.238 236.674 540.322 237.379 538.089 236.016C535.855 234.651 535.15 231.733 536.513 229.498C537.877 227.263 540.793 226.558 543.026 227.921C545.259 229.286 545.965 232.204 544.602 234.439Z" fill="#F30051"/>
<path d="M462.752 368.63C461.388 370.866 458.472 371.571 456.239 370.207C454.006 368.843 453.3 365.924 454.663 363.69C456.025 361.455 458.943 360.749 461.176 362.112C463.41 363.476 464.115 366.394 462.752 368.63Z" fill="#F30051"/>
<path d="M564.214 344.059C561.98 342.694 561.275 339.776 562.638 337.541C564 335.307 566.918 334.6 569.151 335.964C571.384 337.328 572.09 340.247 570.727 342.481C569.364 344.716 566.447 345.423 564.214 344.059Z" fill="#F30051"/>
<path d="M430.112 262.156C427.878 260.792 427.173 257.874 428.536 255.639C429.9 253.403 432.815 252.698 435.049 254.062C437.283 255.425 437.989 258.344 436.625 260.579C435.261 262.815 432.345 263.521 430.112 262.156Z" fill="#F30051"/>
<path d="M454.664 234.439C456.027 236.674 458.942 237.379 461.177 236.016C463.411 234.651 464.116 231.733 462.753 229.498C461.389 227.263 458.473 226.558 456.24 227.921C454.005 229.286 453.3 232.204 454.664 234.439Z" fill="#F30051"/>
<path d="M536.513 368.63C537.877 370.866 540.792 371.571 543.026 370.207C545.261 368.842 545.965 365.924 544.603 363.69C543.24 361.455 540.322 360.749 538.089 362.112C535.855 363.476 535.149 366.394 536.513 368.63Z" fill="#F30051"/>
<path d="M435.049 344.059C437.283 342.694 437.989 339.776 436.625 337.541C435.261 335.307 432.345 334.6 430.112 335.964C427.879 337.328 427.173 340.247 428.536 342.481C429.898 344.716 432.815 345.423 435.049 344.059Z" fill="#F30051"/>
<path d="M569.151 262.156C571.385 260.792 572.09 257.874 570.727 255.639C569.363 253.403 566.448 252.698 564.214 254.062C561.98 255.425 561.275 258.344 562.638 260.579C564.002 262.815 566.917 263.521 569.151 262.156Z" fill="#F30051"/>
<path opacity="0.1" d="M465.717 312.742H385.383C391.478 364.263 431.565 405.357 482.583 412.94V329.619C482.583 320.337 474.993 312.742 465.717 312.742Z" fill="black"/>
<path d="M471.246 383.716C459.793 390.515 449.229 398.001 439.676 405.999L447.299 415.095L431.17 413.499C419.457 424.386 409.544 436.051 401.729 448.092C419.449 452.134 439.161 453.405 459.872 451.716L466.341 441.74L468.478 450.85C483.994 448.994 499.984 445.499 516.048 440.285L518.239 424L528.899 435.746C530.664 435.072 532.428 434.385 534.192 433.668C545.372 429.13 555.982 423.953 565.957 418.258L565.251 402.494L577.034 411.558C587.893 404.602 597.87 397.021 606.851 388.982L599.861 380.641L614.222 382.062C624.032 372.397 632.446 362.18 639.263 351.677C624.617 348.337 608.609 346.893 591.804 347.442L585.885 356.568L583.839 347.848C568.483 348.911 552.551 351.615 536.445 356.039L533.987 374.308L521.557 360.611C516.639 362.28 511.716 364.102 506.802 366.097C499.653 368.999 492.737 372.163 486.069 375.554L471.246 383.716Z" fill="#88A142"/>
<path d="M519.984 398.621C473.187 417.615 431.19 435.227 401.729 448.091C431.821 436.784 474.212 420.144 521.008 401.149C567.805 382.155 609.802 364.544 639.263 351.68C609.171 362.988 566.78 379.628 519.984 398.621Z" fill="#6E8235"/>
<path d="M176.484 450.066C185.174 454.061 194.04 457.111 202.916 459.232L206.66 449.474L211.085 460.923C222.724 462.959 234.289 463.404 245.396 462.271C242.136 448.501 236.254 434.863 227.959 422.111L218.758 423.051L224.397 416.897C217.769 407.651 209.831 398.947 200.666 391.091L188.522 398.137L193.076 384.999C191.999 384.188 190.912 383.385 189.806 382.598C182.792 377.604 175.524 373.32 168.115 369.721L157.331 378.402L159.623 365.923C151.027 362.402 142.296 359.785 133.589 358.063L130.157 367.011L126.218 356.817C116.087 355.397 106.049 355.184 96.3613 356.171C99.0553 367.552 103.545 378.841 109.703 389.616L118.12 388.755L112.722 394.647C118.74 404.2 126.106 413.278 134.733 421.573L148.356 413.67L143.045 428.991C145.902 431.358 148.867 433.649 151.952 435.845C156.436 439.038 161.026 441.941 165.689 444.563L176.484 450.066Z" fill="#88A142"/>
<path d="M170.168 410.216C199.53 431.119 226.276 449.584 245.395 462.271C227.148 448.356 200.947 429.126 171.585 408.223C142.223 387.32 115.477 368.855 96.3574 356.168C114.605 370.082 140.807 389.313 170.168 410.216Z" fill="#6E8235"/>
<path d="M493.57 424.11C444.181 436.811 402.391 458.932 375.354 484.106C411.169 493.114 458.441 492.329 507.829 479.627C557.218 466.925 599.008 444.804 626.045 419.631C590.229 410.624 542.958 411.408 493.57 424.11Z" fill="#A3BF54"/>
<path d="M500.432 450.83C451.043 463.532 406.614 475.384 375.354 484.107C406.943 476.664 451.577 465.61 500.966 452.908C550.354 440.207 594.783 428.355 626.044 419.633C594.454 427.075 549.82 438.128 500.432 450.83Z" fill="#819642"/>
<path d="M155.682 468.025C192.313 482.072 228.78 485.758 257.597 480.312C239.797 456.991 210.207 435.347 173.576 421.3C136.945 407.254 100.477 403.568 71.6602 409.013C89.4601 432.336 119.051 453.979 155.682 468.025Z" fill="#A3BF54"/>
<path d="M164.293 445.536C200.924 459.582 234.082 471.911 257.597 480.311C234.495 470.835 201.595 457.833 164.964 443.787C128.333 429.74 95.1758 417.412 71.6602 409.012C94.7626 418.489 127.662 431.49 164.293 445.536Z" fill="#819642"/>
<path d="M453.776 516.036H188.321C179.766 516.036 172.766 509.031 172.766 500.47V336.035C172.766 327.474 179.766 320.469 188.321 320.469H453.776C462.332 320.469 469.332 327.474 469.332 336.035V500.469C469.332 509.031 462.333 516.036 453.776 516.036Z" fill="#F30051"/>
<path d="M469.332 461.258H172.766V491.224H469.332V461.258Z" fill="#8493E3"/>
<g opacity="0.1">
<path d="M276.705 464.41H260.725L237.08 488.072H253.06L276.705 464.41Z" fill="white"/>
<path d="M181.921 464.41L172.766 473.573V488.072H174.256L197.901 464.41H181.921Z" fill="white"/>
<path d="M302.971 464.41H286.991L263.346 488.072H279.326L302.971 464.41Z" fill="white"/>
<path d="M250.436 464.41H234.456L210.811 488.072H226.789L250.436 464.41Z" fill="white"/>
<path d="M224.171 464.41H208.191L184.545 488.072H200.525L224.171 464.41Z" fill="white"/>
<path d="M329.236 464.41H313.256L289.611 488.072H305.591L329.236 464.41Z" fill="white"/>
<path d="M460.574 464.41H444.594L420.949 488.072H436.929L460.574 464.41Z" fill="white"/>
<path d="M434.309 464.41H418.329L394.684 488.072H410.664L434.309 464.41Z" fill="white"/>
<path d="M469.332 465.945L447.219 488.073H463.199L469.332 481.936V465.945Z" fill="white"/>
<path d="M381.778 464.41H365.797L342.152 488.072H358.131L381.778 464.41Z" fill="white"/>
<path d="M408.043 464.41H392.063L368.418 488.072H384.398L408.043 464.41Z" fill="white"/>
<path d="M355.508 464.41H339.529L315.883 488.072H331.863L355.508 464.41Z" fill="white"/>
</g>
<path d="M235.289 428.108H206.599C202.678 428.108 199.471 424.898 199.471 420.975V392.266C199.471 388.344 202.678 385.134 206.599 385.133H235.289C239.21 385.133 242.418 388.342 242.418 392.266V420.975C242.416 424.898 239.209 428.108 235.289 428.108Z" fill="#FFCE1F"/>
<path d="M234.876 423.867H207.01C205.194 423.867 203.707 422.38 203.707 420.562V392.676C203.707 390.859 205.193 389.371 207.01 389.371H234.876C236.692 389.371 238.179 390.858 238.179 392.676V420.562C238.179 422.38 236.692 423.867 234.876 423.867Z" stroke="#D99D1A" stroke-miterlimit="10"/>
<path d="M225.402 416.749H216.487C214.916 416.749 213.631 415.464 213.631 413.891V399.347C213.631 397.775 214.916 396.49 216.487 396.488H225.402C226.974 396.488 228.258 397.774 228.258 399.346V413.89C228.26 415.462 226.974 416.749 225.402 416.749Z" stroke="#D99D1A" stroke-miterlimit="10"/>
<path d="M228.262 406.621H238.183" stroke="#D99D1A" stroke-miterlimit="10"/>
<path d="M228.262 401.488H238.183" stroke="#D99D1A" stroke-miterlimit="10"/>
<path d="M228.262 411.754H238.183" stroke="#D99D1A" stroke-miterlimit="10"/>
<path d="M203.707 406.621H213.629" stroke="#D99D1A" stroke-miterlimit="10"/>
<path d="M203.707 401.49L213.629 401.488" stroke="#D99D1A" stroke-miterlimit="10"/>
<path d="M203.707 411.754H213.629" stroke="#D99D1A" stroke-miterlimit="10"/>
<path d="M256.115 406.62C256.115 409.242 254.74 411.54 252.675 412.844L255.051 416.668C258.392 414.568 260.619 410.86 260.619 406.621C260.619 402.367 258.376 398.646 255.015 396.551L252.639 400.375C254.723 401.673 256.115 403.982 256.115 406.62Z" fill="#8493E3"/>
<path d="M262.407 388.695L259.797 392.894C264.377 395.751 267.435 400.821 267.435 406.62C267.435 412.403 264.393 417.463 259.833 420.323L262.443 424.522C268.405 420.787 272.382 414.177 272.382 406.619C272.382 399.048 268.389 392.425 262.407 388.695Z" fill="#8493E3"/>
<path d="M284.177 406.62C284.177 395.718 278.442 386.159 269.83 380.789L267.148 385.103C274.322 389.577 279.1 397.539 279.1 406.62C279.1 415.686 274.339 423.636 267.184 428.114L269.865 432.428C278.458 427.053 284.177 417.507 284.177 406.62Z" fill="#8493E3"/>
<path d="M258.815 352.247H200.07C198.745 352.247 197.66 351.162 197.66 349.836V339.482C197.66 338.156 198.744 337.07 200.07 337.07H258.815C260.14 337.07 261.224 338.155 261.224 339.482V349.836C261.225 351.162 260.142 352.247 258.815 352.247Z" fill="#8D0633"/>
<path d="M310.938 352.247H277.686C276.558 352.247 275.635 351.323 275.635 350.194V339.123C275.635 337.994 276.558 337.07 277.686 337.07H310.938C312.066 337.07 312.989 337.994 312.989 339.123V350.194C312.991 351.323 312.067 352.247 310.938 352.247Z" fill="#B00840"/>
<path d="M390.257 352.247H331.512C330.187 352.247 329.102 351.162 329.102 349.836V339.482C329.102 338.156 330.185 337.07 331.512 337.07H390.257C391.582 337.07 392.667 338.155 392.667 339.482V349.836C392.666 351.162 391.582 352.247 390.257 352.247Z" fill="#8D0633"/>
<path d="M442.381 352.247H409.127C407.999 352.247 407.076 351.323 407.076 350.194V339.123C407.076 337.994 407.999 337.07 409.127 337.07H442.381C443.509 337.07 444.432 337.994 444.432 339.123V350.194C444.432 351.323 443.509 352.247 442.381 352.247Z" fill="#B00840"/>
<path opacity="0.15" d="M453.776 320.469H453.239C458.217 322.848 461.686 327.925 461.686 333.788V492.339C461.686 500.459 455.047 507.102 446.933 507.102H195.165C187.05 507.102 180.412 500.459 180.412 492.339V333.789C180.412 327.926 183.88 322.849 188.859 320.47H188.321C179.766 320.47 172.766 327.475 172.766 336.036V500.47C172.766 509.031 179.766 516.036 188.321 516.036H453.776C462.332 516.036 469.332 509.031 469.332 500.47V336.035C469.332 327.474 462.333 320.469 453.776 320.469Z" fill="black"/>
<path d="M129.345 502.082H245.135C247.652 502.082 249.692 504.124 249.692 506.643V523.033C249.692 525.551 247.652 527.594 245.135 527.594H129.345C126.829 527.594 124.789 525.553 124.789 523.033V506.643C124.788 504.124 126.829 502.082 129.345 502.082Z" fill="#FFD747"/>
<path opacity="0.05" d="M155.564 502.082H148.961V527.592H155.564V502.082Z" fill="black"/>
<path opacity="0.05" d="M138.064 502.082H131.461V527.592H138.064V502.082Z" fill="black"/>
<path opacity="0.05" d="M190.561 502.082H183.957V527.592H190.561V502.082Z" fill="black"/>
<path opacity="0.05" d="M173.065 502.082H166.461V527.592H173.065V502.082Z" fill="black"/>
<path opacity="0.05" d="M243.063 502.082H236.459V527.592H243.063V502.082Z" fill="black"/>
<path opacity="0.05" d="M208.063 502.082H201.459V527.592H208.063V502.082Z" fill="black"/>
<path opacity="0.05" d="M225.563 502.082H218.959V527.592H225.563V502.082Z" fill="black"/>
<path opacity="0.15" d="M128.112 502.273V520.188C128.112 521.43 129.118 522.435 130.358 522.435H249.693V523.032C249.693 525.551 247.652 527.591 245.136 527.591H129.347C126.83 527.591 124.789 525.549 124.789 523.032V506.642C124.789 504.556 126.199 502.815 128.112 502.273Z" fill="black"/>
<path d="M122.862 476.57H238.652C241.169 476.57 243.21 478.612 243.21 481.131V497.521C243.21 500.04 241.169 502.082 238.652 502.082H122.862C120.346 502.082 118.305 500.04 118.305 497.521V481.13C118.305 478.611 120.346 476.57 122.862 476.57Z" fill="#FFB81F"/>
<path opacity="0.05" d="M149.084 476.57H142.48V502.081H149.084V476.57Z" fill="black"/>
<path opacity="0.05" d="M131.584 476.57H124.98V502.081H131.584V476.57Z" fill="black"/>
<path opacity="0.05" d="M184.079 476.57H177.477V502.081H184.079V476.57Z" fill="black"/>
<path opacity="0.05" d="M166.583 476.57H159.98V502.081H166.583V476.57Z" fill="black"/>
<path opacity="0.05" d="M236.581 476.57H229.979V502.081H236.581V476.57Z" fill="black"/>
<path opacity="0.05" d="M201.581 476.57H194.979V502.081H201.581V476.57Z" fill="black"/>
<path opacity="0.05" d="M219.081 476.57H212.479V502.081H219.081V476.57Z" fill="black"/>
<path opacity="0.15" d="M121.628 476.762V494.676C121.628 495.918 122.634 496.923 123.873 496.923H243.208V497.52C243.208 500.039 241.168 502.081 238.651 502.081H122.862C120.346 502.081 118.305 500.039 118.305 497.52V481.131C118.305 479.044 119.715 477.303 121.628 476.762Z" fill="black"/>
<path d="M130.431 450.73H246.22C248.737 450.73 250.777 452.773 250.777 455.291V471.681C250.777 474.2 248.737 476.242 246.22 476.242H130.431C127.914 476.242 125.873 474.2 125.873 471.681V455.291C125.873 452.773 127.914 450.73 130.431 450.73Z" fill="#FFD747"/>
<path opacity="0.05" d="M156.648 450.73H150.045V476.241H156.648V450.73Z" fill="black"/>
<path opacity="0.05" d="M139.148 450.73H132.545V476.241H139.148V450.73Z" fill="black"/>
<path opacity="0.05" d="M191.645 450.73H185.041V476.241H191.645V450.73Z" fill="black"/>
<path opacity="0.05" d="M174.148 450.73H167.545V476.241H174.148V450.73Z" fill="black"/>
<path opacity="0.05" d="M244.147 450.73H237.543V476.241H244.147V450.73Z" fill="black"/>
<path opacity="0.05" d="M209.147 450.73H202.543V476.241H209.147V450.73Z" fill="black"/>
<path opacity="0.05" d="M226.647 450.73H220.043V476.241H226.647V450.73Z" fill="black"/>
<path opacity="0.15" d="M129.196 450.922V468.837C129.196 470.077 130.202 471.084 131.442 471.084H250.778V471.681C250.778 474.199 248.737 476.241 246.222 476.241H130.431C127.914 476.241 125.873 474.199 125.873 471.681V455.29C125.873 453.204 127.283 451.464 129.196 450.922Z" fill="black"/>
<path d="M557.16 502.082H441.37C438.853 502.082 436.812 504.124 436.812 506.643V523.033C436.812 525.551 438.853 527.594 441.37 527.594H557.16C559.677 527.594 561.718 525.553 561.718 523.033V506.643C561.718 504.124 559.677 502.082 557.16 502.082Z" fill="#FFB81F"/>
<path opacity="0.05" d="M537.547 502.082H530.943V527.592H537.547V502.082Z" fill="black"/>
<path opacity="0.05" d="M555.047 502.082H548.443V527.592H555.047V502.082Z" fill="black"/>
<path opacity="0.05" d="M502.545 502.082H495.941V527.592H502.545V502.082Z" fill="black"/>
<path opacity="0.05" d="M520.047 502.082H513.443V527.592H520.047V502.082Z" fill="black"/>
<path opacity="0.05" d="M450.049 502.082H443.445V527.592H450.049V502.082Z" fill="black"/>
<path opacity="0.05" d="M485.049 502.082H478.445V527.592H485.049V502.082Z" fill="black"/>
<path opacity="0.05" d="M467.549 502.082H460.945V527.592H467.549V502.082Z" fill="black"/>
<path opacity="0.15" d="M558.394 502.273V520.188C558.394 521.43 557.388 522.435 556.149 522.435H436.812V523.032C436.812 525.551 438.853 527.591 441.37 527.591H557.16C559.677 527.591 561.718 525.549 561.718 523.032V506.642C561.718 504.556 560.307 502.815 558.394 502.273Z" fill="black"/>
<path d="M547.166 476.574H431.376C428.859 476.574 426.818 478.616 426.818 481.135V497.525C426.818 500.044 428.859 502.086 431.376 502.086H547.166C549.683 502.086 551.723 500.044 551.723 497.525V481.134C551.722 478.615 549.683 476.574 547.166 476.574Z" fill="#FFD747"/>
<path opacity="0.05" d="M527.55 476.574H520.947V502.085H527.55V476.574Z" fill="black"/>
<path opacity="0.05" d="M545.05 476.574H538.447V502.085H545.05V476.574Z" fill="black"/>
<path opacity="0.05" d="M492.548 476.574H485.945V502.085H492.548V476.574Z" fill="black"/>
<path opacity="0.05" d="M510.05 476.574H503.447V502.085H510.05V476.574Z" fill="black"/>
<path opacity="0.05" d="M440.053 476.574H433.449V502.085H440.053V476.574Z" fill="black"/>
<path opacity="0.05" d="M475.052 476.574H468.449V502.085H475.052V476.574Z" fill="black"/>
<path opacity="0.05" d="M457.552 476.574H450.949V502.085H457.552V476.574Z" fill="black"/>
<path opacity="0.15" d="M548.4 476.766V494.68C548.4 495.922 547.394 496.927 546.155 496.927H426.818V497.524C426.818 500.043 428.859 502.085 431.376 502.085H547.166C549.683 502.085 551.723 500.043 551.723 497.524V481.135C551.723 479.048 550.313 477.307 548.4 476.766Z" fill="black"/>
<path d="M558.832 450.73H443.042C440.525 450.73 438.484 452.773 438.484 455.291V471.681C438.484 474.2 440.525 476.242 443.042 476.242H558.832C561.349 476.242 563.389 474.2 563.389 471.681V455.291C563.388 452.773 561.349 450.73 558.832 450.73Z" fill="#FFB81F"/>
<path opacity="0.05" d="M539.216 450.73H532.613V476.241H539.216V450.73Z" fill="black"/>
<path opacity="0.05" d="M556.717 450.73H550.113V476.241H556.717V450.73Z" fill="black"/>
<path opacity="0.05" d="M504.214 450.73H497.611V476.241H504.214V450.73Z" fill="black"/>
<path opacity="0.05" d="M521.716 450.73H515.113V476.241H521.716V450.73Z" fill="black"/>
<path opacity="0.05" d="M451.718 450.73H445.115V476.241H451.718V450.73Z" fill="black"/>
<path opacity="0.05" d="M486.718 450.73H480.115V476.241H486.718V450.73Z" fill="black"/>
<path opacity="0.05" d="M469.218 450.73H462.615V476.241H469.218V450.73Z" fill="black"/>
<path opacity="0.15" d="M560.065 450.922V468.837C560.065 470.077 559.059 471.084 557.82 471.084H438.484V471.681C438.484 474.199 440.525 476.241 443.042 476.241H558.832C561.349 476.241 563.389 474.199 563.389 471.681V455.29C563.387 453.204 561.978 451.464 560.065 450.922Z" fill="black"/>
<path d="M548.855 425.414H433.066C430.549 425.414 428.508 427.456 428.508 429.975V446.365C428.508 448.883 430.549 450.926 433.066 450.926H548.855C551.372 450.926 553.413 448.883 553.413 446.365V429.975C553.413 427.455 551.372 425.414 548.855 425.414Z" fill="#FFD747"/>
<path opacity="0.05" d="M529.246 425.414H522.643V450.924H529.246V425.414Z" fill="black"/>
<path opacity="0.05" d="M546.746 425.414H540.143V450.924H546.746V425.414Z" fill="black"/>
<path opacity="0.05" d="M494.244 425.414H487.641V450.924H494.244V425.414Z" fill="black"/>
<path opacity="0.05" d="M511.746 425.414H505.143V450.924H511.746V425.414Z" fill="black"/>
<path opacity="0.05" d="M441.748 425.414H435.145V450.924H441.748V425.414Z" fill="black"/>
<path opacity="0.05" d="M476.748 425.414H470.145V450.924H476.748V425.414Z" fill="black"/>
<path opacity="0.05" d="M459.248 425.414H452.645V450.924H459.248V425.414Z" fill="black"/>
<path opacity="0.15" d="M550.09 425.605V443.52C550.09 444.761 549.084 445.767 547.844 445.767H428.508V446.364C428.508 448.883 430.549 450.925 433.066 450.925H548.855C551.372 450.925 553.413 448.883 553.413 446.364V429.974C553.413 427.888 552.003 426.146 550.09 425.605Z" fill="black"/>
<path d="M560.437 400.094H444.648C442.131 400.094 440.09 402.136 440.09 404.654V421.045C440.09 423.563 442.131 425.605 444.648 425.605H560.437C562.954 425.605 564.995 423.563 564.995 421.045V404.654C564.995 402.135 562.954 400.094 560.437 400.094Z" fill="#FFB81F"/>
<path opacity="0.05" d="M540.828 400.094H534.225V425.604H540.828V400.094Z" fill="black"/>
<path opacity="0.05" d="M558.328 400.094H551.725V425.604H558.328V400.094Z" fill="black"/>
<path opacity="0.05" d="M505.826 400.094H499.223V425.604H505.826V400.094Z" fill="black"/>
<path opacity="0.05" d="M523.328 400.094H516.725V425.604H523.328V400.094Z" fill="black"/>
<path opacity="0.05" d="M453.33 400.094H446.727V425.604H453.33V400.094Z" fill="black"/>
<path opacity="0.05" d="M488.33 400.094H481.727V425.604H488.33V400.094Z" fill="black"/>
<path opacity="0.05" d="M470.83 400.094H464.227V425.604H470.83V400.094Z" fill="black"/>
<path opacity="0.15" d="M561.672 400.285V418.2C561.672 419.441 560.666 420.447 559.426 420.447H440.09V421.044C440.09 423.562 442.131 425.604 444.648 425.604H560.437C562.954 425.604 564.995 423.562 564.995 421.044V404.654C564.995 402.566 563.585 400.826 561.672 400.285Z" fill="black"/>
</g>
<defs>
<clipPath id="clip0_342_2673">
<rect width="719" height="599" fill="white"/>
</clipPath>
</defs>
</svg>
