<svg width="40" height="40" viewBox="0 0 40 40" fill="none" xmlns="http://www.w3.org/2000/svg">
<path d="M37.9796 16.4382L32.715 12.0013V5.70283C32.7152 5.54814 32.6849 5.39494 32.6259 5.25197C32.5668 5.109 32.4802 4.97907 32.3709 4.86962C32.2616 4.76017 32.1317 4.67334 31.9889 4.6141C31.846 4.55486 31.6928 4.52437 31.5381 4.52437H27.8073C27.6525 4.52417 27.4992 4.55451 27.3561 4.61366C27.2131 4.67281 27.0831 4.75961 26.9736 4.86908C26.8641 4.97855 26.7773 5.10854 26.7182 5.25161C26.659 5.39468 26.6287 5.54801 26.6289 5.70283V6.87052L21.0289 2.15052C20.7491 1.88699 20.3793 1.74023 19.995 1.74023C19.6107 1.74023 19.2409 1.88699 18.9612 2.15052L2.0258 16.4382C1.80173 16.6468 1.64565 16.918 1.57787 17.2166C1.5101 17.5151 1.53377 17.8272 1.6458 18.1121C1.75859 18.3952 1.95381 18.6379 2.20618 18.8088C2.45854 18.9797 2.75641 19.0709 3.06119 19.0705H5.51042V36.7351C5.51042 37.5705 6.19503 38.2567 7.03349 38.2567H32.972C33.3757 38.2559 33.7626 38.0951 34.048 37.8097C34.3335 37.5242 34.4942 37.1373 34.495 36.7336V19.0721H36.9443C37.2511 19.0725 37.5509 18.9796 37.8037 18.8056C38.0565 18.6317 38.2504 18.385 38.3596 18.0982C38.4706 17.8157 38.4937 17.5062 38.4259 17.2103C38.3581 16.9143 38.2026 16.6458 37.9796 16.4398V16.4382ZM21.152 32.7244C20.9984 32.9333 20.7979 33.1032 20.5666 33.2203C20.3353 33.3373 20.0797 33.3983 19.8204 33.3983C19.5612 33.3983 19.3055 33.3373 19.0742 33.2203C18.8429 33.1032 18.6424 32.9333 18.4889 32.7244C16.3889 29.8336 12.5243 24.1428 12.5243 21.2228C12.5275 19.2882 13.2984 17.434 14.6677 16.0673C16.037 14.7006 17.8927 13.9332 19.8273 13.9336C21.762 13.9332 23.6177 14.7006 24.987 16.0673C26.3562 17.434 27.1272 19.2882 27.1304 21.2228C27.1304 24.1428 23.2658 29.8336 21.152 32.7244Z" fill="#F30051"/>
<path d="M19.8263 23.3987C21.5069 23.3987 22.8694 22.0362 22.8694 20.3556C22.8694 18.6749 21.5069 17.3125 19.8263 17.3125C18.1456 17.3125 16.7832 18.6749 16.7832 20.3556C16.7832 22.0362 18.1456 23.3987 19.8263 23.3987Z" fill="#7D7D7D"/>
</svg>
