<svg width="32" height="31" viewBox="0 0 32 31" fill="none" xmlns="http://www.w3.org/2000/svg">
<path fill-rule="evenodd" clip-rule="evenodd" d="M2.11475 28.4167C2.11475 27.8817 2.54847 27.448 3.0835 27.448H28.9168C29.4519 27.448 29.8856 27.8817 29.8856 28.4167C29.8856 28.9518 29.4519 29.3855 28.9168 29.3855H3.0835C2.54847 29.3855 2.11475 28.9518 2.11475 28.4167Z" fill="#F30051"/>
<path fill-rule="evenodd" clip-rule="evenodd" d="M13.0186 4.34317C12.4799 3.98131 11.7701 3.98132 11.2314 4.34316L11.2291 4.3447L6.06533 7.7915C6.06491 7.79178 6.06449 7.79206 6.06407 7.79235C5.61543 8.09475 5.34385 8.59717 5.34375 9.13163C5.34375 9.13172 5.34375 9.13181 5.34375 9.13191L5.35603 27.4591L18.9185 27.4364L18.9062 9.13191C18.9062 8.58865 18.6407 8.09281 18.1914 7.79596L18.1876 7.79344L13.0209 4.3447L13.0186 4.34317ZM14.0976 2.73392C12.9061 1.93438 11.3438 1.9344 10.1523 2.73398C10.1519 2.73424 10.1515 2.7345 10.1511 2.73477L4.98677 6.18196L4.98386 6.18391C4.0125 6.83737 3.40625 7.93614 3.40625 9.13191L3.41918 28.4301C3.41935 28.6872 3.52172 28.9337 3.70372 29.1153C3.88573 29.2969 4.13246 29.3986 4.38955 29.3982L19.8895 29.3722C20.4242 29.3713 20.857 28.9375 20.8567 28.4028L20.8437 9.13191C20.8437 7.94513 20.2576 6.83992 19.2615 6.18077C19.2608 6.18033 19.2601 6.17988 19.2594 6.17944L14.0989 2.73476C14.0985 2.73448 14.098 2.7342 14.0976 2.73392Z" fill="#F30051"/>
<path opacity="0.4" fill-rule="evenodd" clip-rule="evenodd" d="M26.3081 22.2812C26.8431 22.2812 27.2769 22.715 27.2769 23.25V28.4296C27.2769 28.9646 26.8431 29.3983 26.3081 29.3983C25.7731 29.3983 25.3394 28.9646 25.3394 28.4296V23.25C25.3394 22.715 25.7731 22.2812 26.3081 22.2812Z" fill="#F30051"/>
<path fill-rule="evenodd" clip-rule="evenodd" d="M22.7812 18.0833C22.7812 16.1275 24.3775 14.5312 26.3333 14.5312C28.2892 14.5312 29.8854 16.1275 29.8854 18.0833V20.6667C29.8854 22.6225 28.2892 24.2188 26.3333 24.2188C24.3775 24.2188 22.7812 22.6225 22.7812 20.6667V18.0833ZM26.3333 16.4688C25.4475 16.4688 24.7188 17.1975 24.7188 18.0833V20.6667C24.7188 21.5525 25.4475 22.2812 26.3333 22.2812C27.2191 22.2812 27.9479 21.5525 27.9479 20.6667V18.0833C27.9479 17.1975 27.2191 16.4688 26.3333 16.4688Z" fill="#F30051"/>
<path fill-rule="evenodd" clip-rule="evenodd" d="M3.40625 18.0833C3.40625 17.5482 3.83997 17.1145 4.375 17.1145H19.875C20.41 17.1145 20.8438 17.5482 20.8438 18.0833C20.8438 18.6183 20.41 19.052 19.875 19.052H4.375C3.83997 19.052 3.40625 18.6183 3.40625 18.0833Z" fill="#F30051"/>
<path opacity="0.4" fill-rule="evenodd" clip-rule="evenodd" d="M12.125 22.6042C12.66 22.6042 13.0938 23.038 13.0938 23.573V28.4167C13.0938 28.9518 12.66 29.3855 12.125 29.3855C11.59 29.3855 11.1562 28.9518 11.1562 28.4167V23.573C11.1562 23.038 11.59 22.6042 12.125 22.6042Z" fill="#F30051"/>
<path opacity="0.4" fill-rule="evenodd" clip-rule="evenodd" d="M9.21875 11.625C9.21875 10.0199 10.5199 8.71875 12.125 8.71875C13.7301 8.71875 15.0312 10.0199 15.0312 11.625C15.0312 13.2301 13.7301 14.5312 12.125 14.5312C10.5199 14.5312 9.21875 13.2301 9.21875 11.625ZM12.125 10.6562C11.59 10.6562 11.1562 11.09 11.1562 11.625C11.1562 12.16 11.59 12.5938 12.125 12.5938C12.66 12.5938 13.0938 12.16 13.0938 11.625C13.0938 11.09 12.66 10.6562 12.125 10.6562Z" fill="#F30051"/>
</svg>
