<svg width="39" height="50" viewBox="0 0 39 50" fill="none" xmlns="http://www.w3.org/2000/svg">
<path d="M37.3407 18.5878C37.3407 13.9585 35.4759 9.51872 32.1566 6.24527C28.8373 2.97182 24.3353 1.13281 19.641 1.13281C14.9468 1.13281 10.4448 2.97182 7.12551 6.24527C3.80619 9.51872 1.94141 13.9585 1.94141 18.5878C1.94141 34.456 19.641 48.7374 19.641 48.7374C19.641 48.7374 37.3407 34.456 37.3407 18.5878Z" stroke="#F9B432" stroke-width="2.03113" stroke-linecap="round" stroke-linejoin="round"/>
<path d="M19.641 26.5205C24.0843 26.5205 27.6863 22.9683 27.6863 18.5864C27.6863 14.2046 24.0843 10.6523 19.641 10.6523C15.1977 10.6523 11.5957 14.2046 11.5957 18.5864C11.5957 22.9683 15.1977 26.5205 19.641 26.5205Z" stroke="#F9B432" stroke-width="2.03113" stroke-linecap="round" stroke-linejoin="round"/>
</svg>
