<svg width="254" height="254" viewBox="0 0 254 254" fill="none" xmlns="http://www.w3.org/2000/svg">
<path d="M126.518 246.914C192.621 246.914 246.208 215.975 246.208 177.81C246.208 139.646 192.621 108.707 126.518 108.707C60.4151 108.707 6.82812 139.646 6.82812 177.81C6.82812 215.975 60.4151 246.914 126.518 246.914Z" fill="#F0F0F0"/>
<path d="M195.256 201.787C187.407 197.256 187.407 189.91 195.256 185.379C203.104 180.848 215.83 180.848 223.678 185.379C231.527 189.91 231.527 197.256 223.678 201.787C215.83 206.319 203.104 206.319 195.256 201.787Z" fill="#E0E0E0"/>
<path d="M35.6211 202.416L14.976 190.499C13.8127 189.828 13.8127 188.736 14.976 188.065L135.062 118.734C135.715 118.403 136.436 118.23 137.168 118.23C137.899 118.23 138.621 118.403 139.273 118.734L159.924 130.651C161.087 131.322 161.087 132.414 159.924 133.085L39.8375 202.416C39.184 202.747 38.4618 202.919 37.7293 202.919C36.9969 202.919 36.2747 202.747 35.6211 202.416Z" fill="#E0E0E0"/>
<path d="M109.831 181.174L127.581 170.912C129.41 169.856 130.324 168.474 130.324 167.087C130.324 165.7 130.324 164.618 130.324 164.618L111.914 154.235C111.4 153.902 110.972 153.453 110.664 152.923C110.357 152.393 110.18 151.798 110.146 151.187V129.297L79.1582 147.209V169.089C79.1939 169.699 79.3724 170.293 79.6795 170.823C79.9865 171.352 80.4135 171.802 80.926 172.137L96.5928 181.159C100.24 183.287 106.174 183.287 109.831 181.174Z" fill="#F30051"/>
<g opacity="0.6">
<path d="M109.831 181.174L127.581 170.912C129.41 169.856 130.324 168.474 130.324 167.087C130.324 165.7 130.324 164.618 130.324 164.618L111.914 154.235C111.4 153.902 110.972 153.453 110.664 152.923C110.357 152.393 110.18 151.798 110.146 151.187V129.297L79.1582 147.209V169.089C79.1939 169.699 79.3724 170.293 79.6795 170.823C79.9865 171.352 80.4135 171.802 80.926 172.137L96.5928 181.159C100.24 183.287 106.174 183.287 109.831 181.174Z" fill="black"/>
</g>
<path opacity="0.3" d="M86.5887 172.965V175.424L80.9092 172.147C80.3968 171.813 79.9702 171.363 79.6639 170.834C79.3577 170.304 79.1804 169.71 79.1465 169.099V147.209L85.0494 143.801C85.1714 145.299 85.3034 146.849 85.4304 148.373L81.2801 150.76V167.855C81.313 168.466 81.4903 169.061 81.7976 169.591C82.1049 170.121 82.5334 170.57 83.0479 170.903L86.5887 172.965Z" fill="black"/>
<path d="M81.2812 167.859C81.3162 168.47 81.4944 169.064 81.8015 169.594C82.1086 170.123 82.536 170.573 83.0491 170.907L96.5721 178.7C100.23 180.808 106.163 180.813 109.826 178.7L127.606 168.438C131.268 166.325 131.268 162.901 127.606 160.788L114.073 152.995C113.561 152.66 113.135 152.21 112.828 151.681C112.522 151.151 112.345 150.558 112.31 149.947V132.848L81.3219 150.76L81.2812 167.859Z" fill="#F30051"/>
<path opacity="0.3" d="M81.2812 167.859C81.3162 168.47 81.4944 169.064 81.8015 169.594C82.1086 170.123 82.536 170.573 83.0491 170.907L96.5721 178.7C100.23 180.808 106.163 180.813 109.826 178.7L127.606 168.438C131.268 166.325 131.268 162.901 127.606 160.788L114.073 152.995C113.561 152.66 113.135 152.21 112.828 151.681C112.522 151.151 112.345 150.558 112.31 149.947V132.848L81.3219 150.76L81.2812 167.859Z" fill="black"/>
<path opacity="0.5" d="M117.653 155.083L114.052 153.005C113.54 152.67 113.113 152.22 112.807 151.691C112.501 151.162 112.324 150.568 112.289 149.957V132.848L81.3008 150.76V167.859C81.3357 168.47 81.5139 169.064 81.821 169.594C82.1281 170.123 82.5555 170.573 83.0686 170.907L86.6246 172.939L117.653 155.083Z" fill="black"/>
<path d="M130.328 164.625V167.094C130.328 168.481 129.409 169.857 127.585 170.919L109.805 181.176C107.859 182.214 105.686 182.754 103.48 182.745V180.287C105.686 180.295 107.859 179.756 109.805 178.717L127.585 168.45C129.409 167.399 130.328 166.012 130.328 164.625Z" fill="#F30051"/>
<path opacity="0.5" d="M130.328 164.625V167.094C130.328 168.481 129.409 169.857 127.585 170.919L109.805 181.176C107.859 182.214 105.686 182.754 103.48 182.745V180.287C105.686 180.295 107.859 179.756 109.805 178.717L127.585 168.45C129.409 167.399 130.328 166.012 130.328 164.625Z" fill="black"/>
<path d="M31.4968 189.11C32.1668 189.433 32.9033 189.595 33.6471 189.582C34.391 189.569 35.1213 189.381 35.7793 189.034L155.667 119.819C156.31 119.399 156.845 118.835 157.229 118.17C157.613 117.505 157.835 116.76 157.877 115.993V19.0059C157.854 18.2604 157.655 17.5308 157.297 16.8766C156.939 16.2225 156.431 15.6623 155.815 15.2416C155.146 14.9177 154.409 14.7563 153.666 14.7704C152.923 14.7845 152.194 14.9738 151.537 15.3229L31.6492 84.5583C31.0086 84.9802 30.4768 85.5476 30.0972 86.2141C29.7176 86.8807 29.5009 87.6275 29.4648 88.3937V185.366C29.4875 186.105 29.6831 186.829 30.036 187.479C30.3889 188.13 30.8892 188.688 31.4968 189.11Z" fill="#F30051"/>
<path d="M35.7938 189.03L155.682 119.815C156.325 119.396 156.861 118.832 157.245 118.167C157.629 117.502 157.851 116.756 157.892 115.989V19.007C157.892 17.5999 156.901 17.0258 155.682 17.7319L35.7938 86.9469C35.1507 87.3659 34.6154 87.9307 34.2314 88.5953C33.8475 89.2599 33.6257 90.0057 33.584 90.7722V187.754C33.584 189.162 34.5746 189.736 35.7938 189.03Z" fill="#F30051"/>
<path opacity="0.5" d="M35.7938 189.03L155.682 119.815C156.325 119.396 156.861 118.832 157.245 118.167C157.629 117.502 157.851 116.756 157.892 115.989V19.007C157.892 17.5999 156.901 17.0258 155.682 17.7319L35.7938 86.9469C35.1507 87.3659 34.6154 87.9307 34.2314 88.5953C33.8475 89.2599 33.6257 90.0057 33.584 90.7722V187.754C33.584 189.162 34.5746 189.736 35.7938 189.03Z" fill="black"/>
<path d="M35.4694 191.547C34.8407 191.822 34.16 191.957 33.4742 191.942C32.7884 191.928 32.1138 191.766 31.4968 191.466C30.8878 191.043 30.3867 190.483 30.0337 189.831C29.6808 189.179 29.4859 188.453 29.4648 187.712V178.883L33.605 181.281V190.11C33.5796 191.395 34.3975 191.979 35.4694 191.547Z" fill="#F30051"/>
<path opacity="0.5" d="M35.4694 191.547C34.8407 191.822 34.16 191.957 33.4742 191.942C32.7884 191.928 32.1138 191.766 31.4968 191.466C30.8878 191.043 30.3867 190.483 30.0337 189.831C29.6808 189.179 29.4859 188.453 29.4648 187.712V178.883L33.605 181.281V190.11C33.5796 191.395 34.3975 191.979 35.4694 191.547Z" fill="black"/>
<path d="M33.5801 181.282V190.111C33.5801 191.518 34.5961 192.087 35.7899 191.386L155.678 122.171C156.318 121.753 156.851 121.192 157.235 120.531C157.619 119.87 157.842 119.129 157.888 118.366V109.496L33.5801 181.282Z" fill="#F30051"/>
<path opacity="0.3" d="M33.584 181.261V190.111C33.584 191.518 34.6 192.087 35.7938 191.386L155.682 122.171C156.321 121.753 156.853 121.191 157.236 120.53C157.619 119.869 157.842 119.128 157.887 118.366V109.496L33.584 181.261Z" fill="black"/>
<path d="M37.7246 170.18V92.1461C37.7483 91.6864 37.8802 91.2388 38.1098 90.8397C38.3393 90.4407 38.6599 90.1016 39.0454 89.85L152.401 24.384C153.132 23.9624 153.726 24.3027 153.726 25.146V103.221C153.702 103.681 153.569 104.128 153.338 104.527C153.108 104.926 152.787 105.265 152.401 105.517L39.0505 170.967C38.319 171.389 37.7246 171.044 37.7246 170.18Z" fill="#F30051"/>
<path d="M37.7246 170.18V92.1461C37.7483 91.6864 37.8802 91.2388 38.1098 90.8397C38.3393 90.4407 38.6599 90.1016 39.0454 89.85L152.401 24.384C153.132 23.9624 153.726 24.3027 153.726 25.146V103.221C153.702 103.681 153.569 104.128 153.338 104.527C153.108 104.926 152.787 105.265 152.401 105.517L39.0505 170.967C38.319 171.389 37.7246 171.044 37.7246 170.18Z" fill="#263238"/>
<path d="M95.7328 148.201C95.1294 148.594 94.6272 149.123 94.267 149.746C93.9068 150.369 93.6989 151.069 93.6602 151.788C93.6602 153.109 94.5898 153.647 95.7328 152.987C96.3369 152.594 96.8395 152.063 97.1997 151.439C97.5599 150.815 97.7675 150.115 97.8054 149.395C97.8054 148.074 96.8758 147.541 95.7328 148.201Z" fill="#F30051"/>
<path opacity="0.7" d="M34.235 88.5884C33.8413 89.2502 33.6162 89.9985 33.5796 90.7677V181.283L29.4648 178.885V88.3953C29.4915 87.6236 29.7154 86.8716 30.1151 86.2109L34.235 88.5884Z" fill="black"/>
<path opacity="0.3" d="M157.866 18.6394C157.709 17.5015 156.789 17.1154 155.677 17.7301L35.7888 86.9451C35.1388 87.3517 34.6023 87.9162 34.2293 88.586L30.084 86.1933C30.4595 85.5237 30.9976 84.9594 31.6486 84.5525L151.537 15.3425C152.194 14.9934 152.924 14.804 153.668 14.7899C154.412 14.7758 155.149 14.9373 155.819 15.2612C156.382 15.645 156.856 16.1451 157.21 16.7279C157.563 17.3108 157.787 17.9626 157.866 18.6394Z" fill="black"/>
<path d="M164.333 30.5775C164.155 30.4881 163.955 30.4489 163.757 30.4641C163.558 30.4794 163.367 30.5484 163.205 30.6638L50.0834 96.0129C49.6371 96.3082 49.2665 96.7044 49.0017 97.1695C48.737 97.6346 48.5855 98.1556 48.5594 98.6901V176.246C48.5436 176.508 48.5956 176.77 48.7104 177.006C48.8252 177.241 48.9989 177.444 49.2147 177.593C49.4637 177.73 50.7946 178.502 51.1909 178.715C51.3311 178.787 51.4877 178.82 51.6448 178.811C51.8018 178.802 51.9537 178.751 52.0849 178.665L165.181 113.315C165.627 113.02 165.998 112.624 166.263 112.159C166.527 111.694 166.679 111.173 166.705 110.638V32.6806C166.728 32.4836 166.695 32.2842 166.611 32.1047C166.526 31.9252 166.394 31.7728 166.227 31.6646C165.973 31.4969 164.617 30.7451 164.333 30.5775Z" fill="#F30051"/>
<path d="M52.0592 97.1075L165.186 31.7838C166.039 31.2758 166.71 31.6923 166.71 32.6779V110.636C166.684 111.17 166.532 111.691 166.267 112.156C166.003 112.621 165.632 113.017 165.186 113.313L52.0592 178.662C51.2057 179.17 50.5352 178.352 50.5352 177.366V99.7847C50.562 99.2503 50.7138 98.7297 50.9785 98.2647C51.2432 97.7997 51.6134 97.4034 52.0592 97.1075Z" fill="#FAFAFA"/>
<path d="M165.877 32.0783C166.176 32.0783 166.222 32.4542 166.222 32.6778V110.635C166.195 111.083 166.063 111.518 165.838 111.906C165.614 112.294 165.301 112.624 164.927 112.871L51.8153 178.22C51.7394 178.269 51.6517 178.297 51.5613 178.301C51.2768 178.301 51.0533 177.864 51.0533 177.366V99.7845C51.0778 99.3371 51.2052 98.9013 51.4254 98.511C51.6457 98.1207 51.9529 97.7864 52.3233 97.5341L165.44 32.2206C165.571 32.1361 165.721 32.0871 165.877 32.0783ZM165.877 31.5703C165.632 31.5807 165.394 31.6542 165.186 31.7837L52.0592 97.1074C51.6134 97.4033 51.2432 97.7996 50.9785 98.2646C50.7138 98.7296 50.562 99.2502 50.5352 99.7845V177.366C50.5352 178.149 50.972 178.809 51.5512 178.809C51.7305 178.806 51.9058 178.755 52.0592 178.662L165.181 113.313C165.627 113.017 165.998 112.621 166.262 112.156C166.527 111.691 166.679 111.17 166.705 110.635V32.6778C166.705 31.9767 166.359 31.5703 165.851 31.5703H165.877Z" fill="#E0E0E0"/>
<path d="M49.1845 177.59C49.3521 177.677 50.5561 178.362 51.0844 178.667C50.8947 178.51 50.7444 178.31 50.6456 178.084C50.5468 177.859 50.5023 177.613 50.5154 177.367V104.85L48.5342 103.691V176.244C48.5178 176.505 48.5691 176.766 48.6829 177.002C48.7968 177.238 48.9696 177.441 49.1845 177.59Z" fill="#F0F0F0"/>
<path d="M166.73 32.665C166.73 31.6897 166.034 31.2934 165.206 31.7862L52.0592 97.1099C51.6134 97.4058 51.2432 97.8021 50.9785 98.2671C50.7138 98.7321 50.562 99.2527 50.5352 99.7871V104.867L166.73 37.745V32.665Z" fill="#F30051"/>
<g opacity="0.4">
<path d="M165.185 31.7856L52.0589 97.1042C51.6049 97.3905 51.2309 97.7873 50.9718 98.2574L49.0059 97.1144C49.2645 96.6608 49.6353 96.2812 50.0828 96.012L163.204 30.6629C163.366 30.5467 163.557 30.4767 163.755 30.4606C163.954 30.4445 164.153 30.4828 164.332 30.5715C164.606 30.7442 165.892 31.4706 166.222 31.6484C166.051 31.5851 165.867 31.5645 165.687 31.5884C165.506 31.6123 165.334 31.68 165.185 31.7856Z" fill="white"/>
</g>
<path opacity="0.15" d="M48.5352 103.697V98.6627C48.556 98.1141 48.7188 97.5802 49.0076 97.1133L50.9786 98.2512C50.694 98.7101 50.5346 99.2355 50.5164 99.7752V104.855L48.5352 103.697Z" fill="black"/>
<path d="M142.875 91.1444L75.1231 130.26C74.7936 130.474 74.5193 130.763 74.3224 131.103C74.1256 131.443 74.0117 131.824 73.9902 132.216V151.642C74.0117 152.034 74.1256 152.416 74.3224 152.756C74.5193 153.096 74.7936 153.384 75.1231 153.598L77.0992 154.736C77.4504 154.914 77.8385 155.006 78.232 155.006C78.6256 155.006 79.0137 154.914 79.3649 154.736L147.107 115.62C147.436 115.405 147.711 115.115 147.907 114.775C148.104 114.434 148.218 114.052 148.24 113.659V94.228C148.218 93.8358 148.104 93.4543 147.907 93.1144C147.71 92.7745 147.436 92.486 147.107 92.2722L145.125 91.1343C144.776 90.9595 144.39 90.8694 143.999 90.8711C143.608 90.8729 143.223 90.9665 142.875 91.1444Z" fill="#F30051"/>
<path opacity="0.5" d="M148.24 94.0555C148.159 93.4713 147.686 93.2579 147.118 93.5881L79.3655 132.704C79.0314 132.912 78.7567 133.202 78.568 133.547L74.3262 131.099C74.5163 130.759 74.7888 130.473 75.1187 130.266L142.876 91.1497C143.226 90.9717 143.613 90.8789 144.006 90.8789C144.399 90.8789 144.786 90.9717 145.136 91.1497L147.118 92.2876C147.42 92.4856 147.676 92.7456 147.87 93.0505C148.063 93.3553 148.189 93.6979 148.24 94.0555Z" fill="white"/>
<path d="M79.1718 154.831C78.8401 154.962 78.4845 155.022 78.1283 155.006C77.7721 154.99 77.4232 154.899 77.1043 154.74L75.1231 153.602C74.7942 153.388 74.5203 153.099 74.3235 152.759C74.1267 152.419 74.0125 152.038 73.9902 151.646V132.22C74.0055 131.824 74.1208 131.438 74.3255 131.098L78.5673 133.546C78.3612 133.882 78.2457 134.265 78.232 134.659V154.09C78.232 154.735 78.6384 155.035 79.1718 154.831Z" fill="#263238"/>
<path d="M79.3649 132.705L147.117 93.5887C147.742 93.228 148.25 93.5175 148.25 94.2389V113.67C148.228 114.063 148.114 114.445 147.918 114.786C147.721 115.126 147.446 115.416 147.117 115.631L79.375 154.747C78.7502 155.107 78.2422 154.813 78.2422 154.091V134.666C78.2626 134.274 78.3748 133.892 78.5698 133.551C78.7648 133.211 79.0372 132.921 79.3649 132.705Z" fill="#F30051"/>
<path d="M124.912 101.52L75.1284 130.267C74.7986 130.474 74.5261 130.761 74.3359 131.1L78.5777 133.549C78.7664 133.204 79.0412 132.913 79.3753 132.706L129.159 103.963L124.912 101.52Z" fill="#455A64"/>
<path d="M129.149 103.961L79.3653 132.704C79.0357 132.918 78.7614 133.208 78.5645 133.549C78.3677 133.889 78.2539 134.272 78.2324 134.664V154.085C78.2324 154.807 78.7404 155.101 79.3653 154.741L129.149 125.998V103.961Z" fill="#37474F"/>
<path d="M90.8464 130.337L116.536 115.509C117.598 114.894 118.461 115.331 118.461 116.484C118.414 117.132 118.214 117.759 117.879 118.315C117.543 118.871 117.082 119.341 116.531 119.685L90.8464 134.518C89.7847 135.133 88.916 134.696 88.916 133.543C88.9639 132.895 89.1636 132.267 89.4989 131.71C89.8343 131.153 90.2959 130.683 90.8464 130.337Z" fill="#F30051"/>
<path d="M96.1088 135.252C96.1136 135.246 96.1195 135.242 96.126 135.239C96.1326 135.236 96.1397 135.234 96.1469 135.234C96.1542 135.234 96.1613 135.236 96.1678 135.239C96.1744 135.242 96.1803 135.246 96.185 135.252C96.2078 135.286 96.2185 135.327 96.2155 135.368V138.259C96.2159 138.538 96.1921 138.817 96.1444 139.092C96.1024 139.343 96.0308 139.589 95.931 139.824C95.84 140.038 95.7204 140.24 95.5754 140.423C95.4325 140.593 95.2605 140.735 95.0674 140.845C94.9163 140.943 94.7399 140.996 94.5594 140.997C94.4905 140.992 94.4234 140.972 94.3622 140.94C94.3011 140.907 94.2472 140.863 94.2038 140.809C94.0924 140.66 94.0191 140.485 93.9905 140.301C93.9419 140.055 93.9197 139.805 93.9244 139.554V136.659C93.9243 136.608 93.9347 136.558 93.9549 136.511C93.9674 136.47 93.9944 136.433 94.0311 136.41L94.3512 136.222C94.3615 136.212 94.3751 136.207 94.3893 136.207C94.4034 136.207 94.417 136.212 94.4274 136.222C94.4508 136.256 94.4616 136.297 94.4578 136.339V139.194C94.454 139.351 94.4693 139.508 94.5036 139.661C94.5176 139.759 94.56 139.851 94.6255 139.925C94.6483 139.952 94.6772 139.974 94.7099 139.988C94.7425 140.002 94.778 140.008 94.8134 140.006C94.9004 140.001 94.9843 139.973 95.0573 139.925C95.1476 139.871 95.2298 139.804 95.3011 139.727C95.3804 139.636 95.4455 139.533 95.4942 139.422C95.5515 139.292 95.5941 139.156 95.6212 139.016C95.6508 138.848 95.6644 138.678 95.6618 138.508V135.648C95.6634 135.597 95.6755 135.547 95.6974 135.5C95.7098 135.459 95.7368 135.423 95.7736 135.399L96.1088 135.252Z" fill="#FAFAFA"/>
<path d="M98.1004 137.985C98.103 137.948 98.0942 137.91 98.075 137.878C98.0629 137.865 98.0479 137.855 98.0311 137.849C98.0143 137.842 97.9962 137.84 97.9785 137.843C97.9161 137.834 97.8529 137.834 97.7905 137.843L97.4959 137.899C97.4008 137.922 97.3014 137.922 97.2063 137.899C97.1317 137.875 97.0674 137.826 97.0234 137.761C96.9737 137.679 96.9409 137.587 96.9269 137.492C96.8774 137.22 96.8774 136.941 96.9269 136.669C96.965 136.513 97.0195 136.362 97.0895 136.217C97.1591 136.073 97.2442 135.936 97.3435 135.811C97.4396 135.691 97.5567 135.589 97.6889 135.511C97.7958 135.446 97.9153 135.404 98.0394 135.389C98.1295 135.38 98.2203 135.399 98.2985 135.445C98.373 135.49 98.4316 135.558 98.4662 135.638C98.5071 135.733 98.5295 135.834 98.5322 135.938C98.5375 135.989 98.5268 136.04 98.5017 136.085C98.4893 136.127 98.4622 136.163 98.4255 136.187L98.1207 136.364C98.1068 136.372 98.0911 136.377 98.075 136.377C98.0589 136.377 98.0432 136.372 98.0293 136.364L97.9632 136.314C97.937 136.293 97.9051 136.28 97.8718 136.278C97.8065 136.285 97.7438 136.308 97.6889 136.344C97.6092 136.392 97.5386 136.454 97.4806 136.527C97.4192 136.607 97.3869 136.705 97.3892 136.806C97.382 136.845 97.382 136.885 97.3892 136.923C97.3989 136.937 97.4117 136.949 97.4267 136.958C97.4416 136.967 97.4583 136.972 97.4756 136.974C97.5311 136.983 97.5877 136.983 97.6432 136.974L97.9277 136.923C98.1664 136.877 98.329 136.923 98.4357 137.055C98.5478 137.243 98.5992 137.462 98.583 137.68C98.5817 137.831 98.5612 137.981 98.522 138.127C98.4819 138.286 98.4239 138.439 98.3493 138.584C98.2747 138.735 98.1808 138.875 98.0699 139.001C97.9647 139.124 97.8393 139.229 97.6991 139.311C97.5874 139.382 97.4602 139.426 97.3282 139.438C97.2327 139.441 97.1386 139.414 97.059 139.362C96.9806 139.308 96.9203 139.232 96.8863 139.143C96.8452 139.047 96.8245 138.943 96.8253 138.838C96.8206 138.786 96.8312 138.733 96.8558 138.686C96.8683 138.644 96.8953 138.608 96.932 138.584L97.2368 138.407C97.2774 138.407 97.3079 138.381 97.3282 138.407L97.3943 138.478C97.4078 138.493 97.4242 138.505 97.4425 138.514C97.4608 138.523 97.4807 138.527 97.501 138.528C97.5725 138.529 97.6421 138.506 97.6991 138.462C97.7908 138.41 97.8732 138.343 97.9429 138.264C97.9775 138.222 98.0065 138.176 98.0293 138.127C98.0652 138.087 98.0897 138.038 98.1004 137.985Z" fill="#FAFAFA"/>
<path d="M99.1369 136.606C99.1359 136.342 99.158 136.079 99.2029 135.819C99.2453 135.574 99.3117 135.334 99.401 135.102C99.4757 134.895 99.5783 134.698 99.7058 134.518C99.8123 134.363 99.9509 134.233 100.112 134.137C100.23 134.058 100.374 134.027 100.514 134.051C100.638 134.079 100.746 134.154 100.818 134.259C100.914 134.397 100.981 134.552 101.016 134.716C101.065 134.93 101.089 135.148 101.088 135.366V135.681C101.089 135.734 101.077 135.787 101.052 135.834C101.04 135.876 101.013 135.912 100.976 135.935L99.655 136.703C99.6519 136.792 99.6639 136.881 99.6906 136.967C99.7103 137.024 99.7454 137.075 99.7922 137.114C99.8339 137.147 99.8864 137.163 99.9395 137.16C100.001 137.152 100.06 137.132 100.112 137.099C100.189 137.057 100.258 137.002 100.315 136.936C100.367 136.878 100.412 136.813 100.448 136.743C100.469 136.703 100.493 136.664 100.519 136.626C100.54 136.6 100.566 136.578 100.595 136.56L100.91 136.377C100.921 136.369 100.934 136.364 100.948 136.364C100.962 136.364 100.975 136.369 100.986 136.377C100.999 136.393 101.009 136.412 101.014 136.432C101.02 136.453 101.02 136.474 101.016 136.494C101.011 136.593 100.99 136.691 100.956 136.784C100.912 136.925 100.854 137.061 100.783 137.19C100.703 137.339 100.608 137.479 100.498 137.607C100.389 137.738 100.259 137.849 100.112 137.937C99.9922 138.016 99.8484 138.05 99.7058 138.033C99.5809 138.003 99.472 137.927 99.401 137.82C99.301 137.666 99.2336 137.493 99.2029 137.312C99.1567 137.08 99.1346 136.843 99.1369 136.606ZM100.112 134.985C100.034 135.028 99.9664 135.087 99.9141 135.158C99.8577 135.229 99.8116 135.308 99.777 135.392C99.7414 135.476 99.7125 135.562 99.6906 135.651C99.6727 135.731 99.6608 135.813 99.655 135.895L100.549 135.387C100.544 135.317 100.534 135.247 100.519 135.179C100.511 135.117 100.486 135.059 100.448 135.011C100.432 134.989 100.413 134.97 100.39 134.956C100.367 134.942 100.342 134.933 100.315 134.93C100.243 134.923 100.171 134.943 100.112 134.985Z" fill="#FAFAFA"/>
<path d="M102.682 133.57C102.529 133.658 102.407 133.793 102.337 133.956C102.258 134.17 102.222 134.398 102.23 134.627V136.46C102.231 136.513 102.221 136.565 102.2 136.613C102.187 136.655 102.16 136.691 102.124 136.714L101.824 136.887C101.819 136.893 101.813 136.897 101.807 136.9C101.8 136.903 101.793 136.904 101.786 136.904C101.779 136.904 101.772 136.903 101.765 136.9C101.758 136.897 101.753 136.893 101.748 136.887C101.725 136.853 101.714 136.812 101.717 136.77V133.484C101.718 133.431 101.728 133.38 101.748 133.331C101.762 133.29 101.789 133.255 101.824 133.23L102.124 133.057C102.134 133.047 102.148 133.042 102.162 133.042C102.176 133.042 102.19 133.047 102.2 133.057C102.223 133.089 102.234 133.129 102.23 133.169V133.331C102.291 133.195 102.366 133.065 102.454 132.945C102.534 132.834 102.638 132.742 102.759 132.676L102.942 132.569C102.951 132.56 102.964 132.555 102.977 132.555C102.99 132.555 103.003 132.56 103.013 132.569C103.037 132.603 103.05 132.644 103.048 132.686V133.148C103.047 133.201 103.035 133.253 103.013 133.301C103 133.341 102.975 133.376 102.942 133.402L102.682 133.57Z" fill="#FAFAFA"/>
<path d="M106.471 133.324C106.476 133.319 106.482 133.314 106.489 133.311C106.495 133.308 106.502 133.307 106.51 133.307C106.517 133.307 106.524 133.308 106.53 133.311C106.537 133.314 106.543 133.319 106.548 133.324C106.57 133.359 106.581 133.4 106.578 133.441V133.949C106.578 134.001 106.568 134.053 106.548 134.101C106.53 134.139 106.504 134.172 106.471 134.198L104.734 135.214C104.724 135.223 104.71 135.229 104.696 135.229C104.682 135.229 104.668 135.223 104.658 135.214C104.635 135.181 104.624 135.142 104.627 135.102V130.53C104.628 130.478 104.638 130.426 104.658 130.378C104.672 130.338 104.699 130.304 104.734 130.281L105.054 130.093C105.065 130.083 105.078 130.078 105.092 130.078C105.106 130.078 105.12 130.083 105.13 130.093C105.153 130.126 105.164 130.165 105.161 130.205V134.071L106.471 133.324Z" fill="#FAFAFA"/>
<path d="M108.031 129.565C108.145 129.486 108.283 129.449 108.422 129.459C108.541 129.468 108.652 129.523 108.732 129.611C108.827 129.72 108.896 129.848 108.935 129.987C108.989 130.167 109.02 130.353 109.027 130.541C109.027 130.581 109.027 130.637 109.027 130.703V131.094C109.027 131.155 109.027 131.211 109.027 131.257C109.016 131.478 108.986 131.697 108.935 131.912C108.888 132.122 108.82 132.326 108.732 132.522C108.651 132.704 108.547 132.875 108.422 133.03C108.315 133.17 108.182 133.289 108.031 133.38C107.913 133.457 107.775 133.494 107.635 133.487C107.517 133.477 107.408 133.422 107.33 133.335C107.232 133.23 107.163 133.102 107.127 132.964C107.072 132.784 107.042 132.598 107.035 132.41C107.035 132.369 107.035 132.319 107.035 132.253V131.861C107.035 131.795 107.035 131.74 107.035 131.699C107.041 131.476 107.07 131.255 107.122 131.039C107.171 130.827 107.241 130.622 107.33 130.424C107.411 130.243 107.513 130.072 107.635 129.916C107.742 129.774 107.877 129.655 108.031 129.565ZM108.508 130.876C108.508 130.764 108.489 130.652 108.452 130.546C108.434 130.481 108.394 130.424 108.341 130.383C108.297 130.354 108.245 130.342 108.193 130.348C108.135 130.359 108.08 130.381 108.031 130.414C107.971 130.446 107.916 130.487 107.868 130.536C107.81 130.596 107.76 130.665 107.721 130.739C107.67 130.831 107.632 130.93 107.609 131.033C107.576 131.163 107.555 131.296 107.548 131.43C107.548 131.47 107.548 131.516 107.548 131.572V131.933C107.548 131.988 107.548 132.034 107.548 132.065C107.553 132.177 107.573 132.288 107.609 132.395C107.628 132.46 107.667 132.517 107.721 132.557C107.742 132.572 107.766 132.583 107.791 132.588C107.817 132.593 107.843 132.593 107.868 132.588C107.926 132.578 107.981 132.557 108.031 132.527C108.09 132.493 108.144 132.452 108.193 132.405C108.25 132.343 108.3 132.275 108.341 132.202C108.39 132.108 108.427 132.01 108.452 131.907C108.486 131.778 108.504 131.645 108.508 131.511C108.511 131.464 108.511 131.416 108.508 131.369V131.013C108.511 130.967 108.511 130.922 108.508 130.876Z" fill="#FAFAFA"/>
<path d="M110.58 132.536C110.645 132.496 110.704 132.447 110.753 132.389C110.814 132.317 110.867 132.239 110.911 132.155C110.961 132.053 111 131.946 111.027 131.835C111.059 131.71 111.074 131.582 111.073 131.454V131.195C111.073 131.246 111.022 131.307 110.987 131.378C110.952 131.452 110.911 131.523 110.865 131.591C110.812 131.663 110.754 131.73 110.692 131.794C110.628 131.861 110.555 131.918 110.474 131.962C110.422 131.998 110.363 132.022 110.301 132.034C110.239 132.047 110.175 132.046 110.113 132.033C110 131.998 109.903 131.924 109.839 131.825C109.756 131.694 109.696 131.549 109.661 131.398C109.618 131.206 109.594 131.01 109.59 130.814C109.59 130.748 109.59 130.667 109.59 130.57C109.59 130.473 109.59 130.392 109.59 130.321C109.596 130.098 109.62 129.875 109.661 129.656C109.703 129.439 109.762 129.227 109.839 129.021C109.911 128.841 110.003 128.671 110.113 128.513C110.207 128.373 110.33 128.255 110.474 128.167C110.541 128.127 110.615 128.097 110.692 128.081C110.749 128.07 110.808 128.07 110.865 128.081C110.91 128.093 110.952 128.116 110.987 128.147C111.019 128.172 111.048 128.201 111.073 128.233V128.071C111.073 128.018 111.084 127.967 111.104 127.918C111.118 127.879 111.145 127.845 111.18 127.822L111.48 127.644C111.49 127.634 111.504 127.629 111.518 127.629C111.532 127.629 111.545 127.634 111.556 127.644C111.58 127.678 111.593 127.719 111.591 127.761V131.063C111.605 131.557 111.513 132.049 111.322 132.505C111.172 132.864 110.913 133.167 110.58 133.369C110.467 133.439 110.338 133.48 110.205 133.486C110.099 133.492 109.994 133.466 109.905 133.41C109.819 133.345 109.749 133.262 109.702 133.166C109.652 133.05 109.625 132.926 109.62 132.8C109.616 132.747 109.626 132.695 109.651 132.648C109.663 132.606 109.69 132.57 109.727 132.546L109.996 132.394C110.002 132.387 110.01 132.382 110.018 132.378C110.026 132.375 110.035 132.373 110.045 132.373C110.054 132.373 110.063 132.375 110.071 132.378C110.079 132.382 110.087 132.387 110.093 132.394C110.118 132.42 110.14 132.449 110.159 132.48C110.19 132.535 110.241 132.575 110.301 132.592C110.362 132.638 110.453 132.587 110.58 132.536ZM110.103 130.072C110.103 130.208 110.103 130.34 110.103 130.468C110.088 130.671 110.146 130.873 110.265 131.037C110.311 131.076 110.368 131.098 110.428 131.098C110.488 131.098 110.545 131.076 110.591 131.037C110.738 130.942 110.853 130.803 110.921 130.641C111.013 130.429 111.065 130.202 111.073 129.971C111.073 129.894 111.073 129.803 111.073 129.696C111.073 129.59 111.073 129.498 111.073 129.432C111.084 129.25 111.03 129.07 110.921 128.924C110.876 128.883 110.817 128.86 110.756 128.86C110.695 128.86 110.636 128.883 110.591 128.924C110.446 129.02 110.333 129.156 110.265 129.315C110.161 129.554 110.106 129.811 110.103 130.072Z" fill="#FAFAFA"/>
<path d="M112.775 125.564C112.785 125.555 112.798 125.551 112.811 125.551C112.824 125.551 112.836 125.555 112.846 125.564C112.873 125.596 112.886 125.638 112.882 125.68V126.234C112.882 126.287 112.87 126.339 112.846 126.387C112.832 126.425 112.807 126.458 112.775 126.483L112.435 126.681C112.43 126.687 112.424 126.691 112.418 126.694C112.411 126.697 112.404 126.698 112.397 126.698C112.389 126.698 112.382 126.697 112.376 126.694C112.369 126.691 112.363 126.687 112.359 126.681C112.345 126.666 112.335 126.648 112.329 126.629C112.323 126.61 112.321 126.589 112.323 126.569V126.016C112.323 125.963 112.335 125.911 112.359 125.863C112.373 125.824 112.4 125.79 112.435 125.767L112.775 125.564ZM112.862 130.334C112.862 130.384 112.851 130.435 112.831 130.481C112.815 130.521 112.789 130.556 112.755 130.583L112.45 130.755C112.446 130.761 112.44 130.765 112.434 130.768C112.428 130.771 112.421 130.772 112.414 130.772C112.408 130.772 112.401 130.771 112.395 130.768C112.389 130.765 112.383 130.761 112.379 130.755C112.352 130.722 112.34 130.681 112.343 130.638V127.352C112.343 127.299 112.355 127.247 112.379 127.199C112.393 127.16 112.418 127.125 112.45 127.098L112.755 126.925C112.765 126.915 112.779 126.91 112.793 126.91C112.807 126.91 112.821 126.915 112.831 126.925C112.854 126.958 112.865 126.997 112.862 127.037V130.334Z" fill="#FAFAFA"/>
<path d="M115.534 128.782C115.534 128.835 115.523 128.886 115.503 128.935C115.489 128.974 115.462 129.008 115.427 129.031L115.122 129.209C115.113 129.218 115.1 129.224 115.087 129.224C115.074 129.224 115.061 129.218 115.051 129.209C115.025 129.176 115.012 129.134 115.016 129.092V127.304C115.031 127.093 114.993 126.881 114.904 126.689C114.833 126.562 114.721 126.542 114.564 126.634C114.407 126.739 114.29 126.895 114.233 127.075C114.149 127.315 114.107 127.568 114.112 127.822V129.615C114.111 129.668 114.101 129.72 114.081 129.768C114.069 129.81 114.042 129.846 114.005 129.869L113.705 130.042C113.7 130.048 113.694 130.052 113.688 130.055C113.681 130.058 113.674 130.059 113.667 130.059C113.66 130.059 113.653 130.058 113.646 130.055C113.64 130.052 113.634 130.048 113.629 130.042C113.605 130.01 113.595 129.97 113.598 129.93V126.644C113.598 126.591 113.608 126.539 113.629 126.491C113.641 126.449 113.668 126.413 113.705 126.39L114.005 126.217C114.01 126.212 114.015 126.207 114.022 126.204C114.029 126.201 114.036 126.2 114.043 126.2C114.05 126.2 114.057 126.201 114.064 126.204C114.07 126.207 114.076 126.212 114.081 126.217C114.104 126.252 114.114 126.293 114.112 126.334V126.491C114.178 126.336 114.26 126.188 114.355 126.049C114.439 125.921 114.552 125.815 114.686 125.739C114.801 125.655 114.945 125.619 115.087 125.638C115.143 125.652 115.196 125.678 115.241 125.714C115.287 125.75 115.324 125.795 115.351 125.846C115.425 125.984 115.473 126.133 115.493 126.288C115.52 126.49 115.534 126.694 115.534 126.898V128.782Z" fill="#FAFAFA"/>
<path d="M141.157 113.995L136.225 116.84L136.992 109.921C136.397 109.606 136.021 108.839 136.021 107.736C136.021 105.77 137.22 103.49 138.694 102.656C140.167 101.823 141.361 102.707 141.361 104.688C141.33 105.854 140.997 106.992 140.395 107.99L141.157 113.995Z" fill="#455A64"/>
<path d="M141.162 113.997L136.819 111.492L136.225 116.847L141.162 113.997Z" fill="#37474F"/>
<path d="M138.684 102.64C137.61 103.365 136.809 104.429 136.408 105.662L140.386 107.958C140.988 106.96 141.321 105.822 141.351 104.656C141.361 102.69 140.167 101.791 138.684 102.64Z" fill="#37474F"/>
<path d="M114.706 79.603C113.015 78.6276 110.683 78.7648 108.102 80.2532C102.951 83.2301 98.7754 90.4589 98.7754 96.4076C98.7754 99.3946 99.832 101.488 101.529 102.453L104.816 104.363C106.502 105.338 108.834 105.196 111.42 103.708C116.571 100.736 120.746 93.5019 120.746 87.5532C120.746 84.5814 119.7 82.4732 118.013 81.5232" fill="#F30051"/>
<path d="M111.415 82.1675C106.264 85.1444 102.088 92.3784 102.088 98.322C102.088 104.266 106.264 106.684 111.415 103.707C116.566 100.73 120.747 93.501 120.742 87.5524C120.737 81.6037 116.561 79.1957 111.415 82.1675Z" fill="#F30051"/>
<path d="M116.561 95.3685V96.0492C115.327 98.2519 113.557 100.108 111.415 101.444C109.408 102.597 107.595 102.724 106.264 101.988V100.586C106.332 99.1269 106.748 97.7057 107.478 96.441C108.208 95.1763 109.231 94.1048 110.46 93.3162L111.816 92.5338C113.015 91.843 114.183 91.7515 115.098 92.2849C116.012 92.8183 116.561 93.941 116.561 95.3685Z" fill="#F30051"/>
<path opacity="0.4" d="M114.705 79.6053L118.007 81.5256C116.321 80.5451 113.989 80.6823 111.403 82.1707C108.03 84.1215 105.074 87.8959 103.438 91.9396L100.131 90.0244C101.772 85.9604 104.703 82.2063 108.096 80.2556C110.687 78.7722 113.019 78.63 114.705 79.6053Z" fill="white"/>
<path opacity="0.2" d="M104.699 104.289L101.535 102.455C99.8379 101.49 98.7812 99.4074 98.7812 96.4102L102.088 98.3304C102.109 101.226 103.084 103.288 104.699 104.289Z" fill="black"/>
<path opacity="0.1" d="M100.142 90.0234L103.449 91.9386C102.602 93.963 102.146 96.1299 102.108 98.3242L98.8008 96.4039C98.8415 94.2116 99.2966 92.0467 100.142 90.0234Z" fill="black"/>
<path d="M110.236 92.2118C109.921 92.2153 109.611 92.1346 109.337 91.9782C109.007 91.7583 108.743 91.4534 108.572 91.0957C108.401 90.7381 108.33 90.3409 108.367 89.9462C108.41 89.0206 108.674 88.1189 109.137 87.3163C109.6 86.5138 110.249 85.8339 111.029 85.3335C111.342 85.0835 111.723 84.9337 112.123 84.9039C112.523 84.8742 112.922 84.9657 113.269 85.1666C113.616 85.3674 113.894 85.6683 114.067 86.0298C114.24 86.3913 114.3 86.7967 114.239 87.1928C114.195 88.1182 113.931 89.0196 113.468 89.822C113.005 90.6244 112.356 91.3044 111.577 91.8054C111.174 92.0571 110.711 92.1974 110.236 92.2118Z" fill="white"/>
<path d="M115.098 92.2771C114.183 91.7437 113.015 91.8351 111.816 92.526L110.46 93.3083C109.23 94.0974 108.207 95.1697 107.477 96.4354C106.747 97.7011 106.331 99.1233 106.264 100.583V101.99C107.595 102.727 109.408 102.6 111.415 101.447C113.557 100.11 115.327 98.2543 116.561 96.0515V95.3708C116.561 93.9383 116.033 92.8156 115.098 92.2771Z" fill="white"/>
<path d="M219.531 180.161C219.531 180.161 220.207 174.227 223.158 169.62C226.11 165.012 230.164 162.142 233.948 161.842C237.733 161.543 240.791 165.027 236.742 167.43C232.694 169.833 225.5 172.261 222.188 181.202L219.531 180.161Z" fill="#F30051"/>
<path opacity="0.1" d="M219.531 180.161C219.531 180.161 220.207 174.227 223.158 169.62C226.11 165.012 230.164 162.142 233.948 161.842C237.733 161.543 240.791 165.027 236.742 167.43C232.694 169.833 225.5 172.261 222.188 181.202L219.531 180.161Z" fill="black"/>
<path d="M220.644 178.615H220.603C220.553 178.594 220.514 178.555 220.493 178.506C220.472 178.456 220.471 178.4 220.491 178.35C224.484 168.521 232.084 164.411 235.548 163.618C235.574 163.612 235.601 163.612 235.628 163.616C235.654 163.62 235.679 163.63 235.702 163.644C235.725 163.658 235.744 163.677 235.76 163.699C235.775 163.72 235.786 163.745 235.792 163.771C235.798 163.797 235.799 163.824 235.795 163.85C235.79 163.877 235.781 163.902 235.767 163.924C235.752 163.947 235.734 163.967 235.712 163.982C235.69 163.998 235.666 164.009 235.64 164.015C232.246 164.797 224.794 168.831 220.867 178.508C220.848 178.548 220.815 178.581 220.774 178.601C220.734 178.62 220.688 178.625 220.644 178.615Z" fill="white"/>
<path d="M240.852 178.733C240.511 179.505 239.668 179.912 238.886 180.227C238.103 180.542 237.25 180.882 236.823 181.613C235.97 183.087 237.372 185.169 236.457 186.597C236.242 186.884 235.971 187.125 235.66 187.305C235.349 187.485 235.005 187.6 234.649 187.643C234.065 187.75 233.47 187.75 232.881 187.801C232.599 187.797 232.317 187.775 232.038 187.735C231.217 187.552 230.359 187.643 229.594 187.994C228.421 188.654 228.07 190.133 227.349 191.276C226.908 191.949 226.327 192.518 225.646 192.946C224.965 193.374 224.199 193.65 223.402 193.755C222.894 193.821 221.878 193.917 221.37 193.617C221.33 193.598 221.292 193.574 221.258 193.546C221.182 193.465 221.09 193.358 221.05 193.302C221.047 193.291 221.047 193.279 221.05 193.267C220.841 192.5 221.182 191.707 221.197 190.915V190.773C221.161 189.853 221.136 188.939 221.116 188.024C221.072 186.331 221.055 184.638 221.065 182.944C221.065 181.847 220.943 180.648 221.41 179.617C221.918 178.479 223.199 178.454 223.681 177.341C223.874 176.894 223.976 176.422 224.164 175.97C224.454 175.312 224.919 174.747 225.509 174.336C226.098 173.925 226.789 173.683 227.506 173.638C229.737 173.526 231.733 175.329 233.963 175.162C234.537 175.116 235.101 174.938 235.67 174.837C237.473 174.496 239.561 175.009 240.577 176.538C240.8 176.853 240.942 177.218 240.99 177.601C241.038 177.984 240.99 178.373 240.852 178.733Z" fill="#F30051"/>
<path d="M220.826 189.747C220.778 189.733 220.737 189.701 220.712 189.657C220.688 189.613 220.681 189.562 220.694 189.513C223.772 177.962 235.934 176.305 238.794 176.499C238.819 176.5 238.844 176.506 238.866 176.517C238.889 176.528 238.909 176.544 238.926 176.562C238.942 176.581 238.955 176.604 238.963 176.627C238.971 176.651 238.974 176.677 238.972 176.702C238.966 176.751 238.942 176.797 238.905 176.829C238.867 176.861 238.818 176.877 238.768 176.874C235.979 176.676 224.072 178.307 221.059 189.615C221.045 189.663 221.013 189.704 220.969 189.728C220.926 189.753 220.874 189.76 220.826 189.747Z" fill="white"/>
<path d="M234.354 183.895C234.316 183.889 234.28 183.871 234.253 183.844C233.129 182.869 231.803 182.155 230.371 181.752C228.938 181.349 227.435 181.267 225.967 181.512C225.918 181.517 225.869 181.502 225.829 181.472C225.79 181.442 225.763 181.398 225.754 181.349C225.747 181.3 225.759 181.249 225.788 181.208C225.818 181.167 225.862 181.14 225.912 181.131C227.442 180.876 229.01 180.963 230.503 181.386C231.996 181.808 233.377 182.556 234.548 183.575C234.565 183.592 234.58 183.613 234.59 183.636C234.599 183.659 234.604 183.684 234.604 183.709C234.604 183.734 234.599 183.759 234.59 183.782C234.58 183.805 234.565 183.826 234.548 183.844C234.525 183.871 234.494 183.891 234.459 183.9C234.425 183.909 234.388 183.907 234.354 183.895Z" fill="white"/>
<path d="M191.577 40.6406L193.193 41.2603V37.7043C193.193 34.8798 195.443 34.2042 197.887 35.6164C200.335 37.0287 202.316 40.4577 202.316 43.2821V43.7901C202.657 43.6861 203.017 43.6604 203.369 43.7149C203.72 43.7695 204.055 43.9029 204.348 44.1051C205.276 44.7101 206.048 45.5255 206.602 46.485C207.155 47.4445 207.474 48.521 207.534 49.6271V49.8608L209.789 51.1612C210.399 51.5596 210.907 52.0959 211.272 52.7269C211.636 53.3579 211.847 54.0658 211.887 54.7934C211.887 56.1346 210.947 56.6781 209.789 56.0075L191.577 45.4869C190.967 45.0895 190.459 44.5532 190.095 43.922C189.731 43.2907 189.522 42.5823 189.484 41.8547C189.484 40.5186 190.414 39.9751 191.577 40.6406Z" fill="#E6E6E6"/>
<path d="M213.212 37.8254L216.143 39.517C216.127 39.389 216.119 39.26 216.118 39.131V38.2826C216.118 36.7586 217.175 36.1592 218.485 36.9161C219.048 37.2609 219.53 37.7236 219.897 38.2724C220.111 36.3725 221.604 35.6664 223.413 36.7078C224.446 37.3803 225.307 38.2867 225.925 39.3538C226.542 40.4208 226.9 41.6184 226.969 42.8495V44.1195C226.982 44.627 226.879 45.1307 226.669 45.5927L229.108 46.9948C229.488 47.2468 229.803 47.5845 230.029 47.9806C230.255 48.3767 230.385 48.8203 230.408 49.2757C230.408 50.1139 229.819 50.4543 229.092 50.0377L213.212 40.8937C212.828 40.6435 212.509 40.3059 212.28 39.9086C212.051 39.5113 211.92 39.0655 211.896 38.6077C211.896 37.7492 212.486 37.4088 213.212 37.8254Z" fill="#E6E6E6"/>
<path d="M201.866 114.924C199.732 118.531 197.68 121.665 196.237 123.169C193.499 124.439 187.068 126.4 184.553 126.725C184.111 126.781 183.664 126.677 183.293 126.43C182.303 125.78 181.535 125.674 180.494 125.313C179.676 125.033 179.331 124.642 179.178 124.805C179.021 124.989 178.942 125.228 178.958 125.47C178.974 125.712 179.084 125.938 179.265 126.1C179.655 126.471 180.089 126.795 180.555 127.065C179.44 127.342 178.276 127.363 177.151 127.126C174.972 126.552 173.946 127.599 175.419 129.966C175.927 130.809 178.02 132.166 182.226 131.8C183.727 131.719 185.221 131.549 186.702 131.292C190.735 130.428 195.221 129.595 197.979 128.752C199.006 128.349 199.924 127.712 200.662 126.893C205.3 121.604 206.839 117.835 208.871 114.411L208.698 108.823C205.406 108.711 203.649 111.907 201.866 114.924Z" fill="#FFA8A7"/>
<path d="M209.262 108.712C208.307 108.577 207.334 108.707 206.448 109.085C205.562 109.464 204.796 110.078 204.233 110.86C201.977 113.751 197.984 120.69 197.984 120.69C197.984 120.69 199.29 124.17 202.815 124.754L208.48 117.104C208.48 117.104 211.162 111.79 209.262 108.712Z" fill="#455A64"/>
<path d="M221.51 186.711H217.816V193.295H221.51V186.711Z" fill="#FFA8A7"/>
<path d="M208.708 186.36L205.02 186.492L204.832 179.523L208.708 179.391V186.36Z" fill="#FFA8A7"/>
<path d="M222.028 129.718C222.028 133.386 221.489 162.936 221.489 162.936C221.571 163.993 222.505 165.943 222.317 170.002C222.038 175.514 221.667 190.002 221.667 190.002C221.033 190.327 220.334 190.503 219.622 190.517C218.91 190.531 218.204 190.383 217.557 190.084C217.557 190.084 214.56 169.764 213.9 164.323C213.321 159.553 211.837 143.764 211.837 143.764L209.841 162.428C210.264 164.431 210.418 166.481 210.298 168.524C210.125 171.064 208.937 184.211 208.937 184.211C208.299 184.588 207.583 184.814 206.845 184.873C206.106 184.932 205.364 184.822 204.675 184.552C204.675 184.552 202.571 164.74 202.531 162.413C202.48 159.771 203.76 129.688 203.76 129.688L222.028 129.718Z" fill="#37474F"/>
<path d="M217.815 191.395V190.846C217.46 191.003 216.642 194.265 215.174 195.657C214.01 196.764 212.425 198.039 212.019 199.274C211.613 200.508 214.229 201.265 215.321 201.067C216.581 200.833 218.775 199.904 219.324 199.035C219.873 198.166 220.132 196.906 220.579 196.276C221.026 195.646 222.057 194.945 222.296 194.214C222.37 193.529 222.299 192.837 222.088 192.182C221.915 191.501 221.732 190.754 221.508 190.82V191.237C220.988 191.664 220.333 191.895 219.659 191.887C219.121 191.933 217.81 191.821 217.815 191.395Z" fill="#263238"/>
<path d="M204.978 185.302C204.785 185.302 204.627 185.591 204.206 186.069C203.579 186.728 202.846 187.278 202.037 187.694C200.655 188.416 197.973 189.523 196.748 190.097C195.986 190.453 196.022 191.408 196.809 191.952C197.597 192.495 199.492 192.886 201.767 192.358C203.007 192.068 204.622 190.875 205.649 190.941C206.675 191.007 208.58 190.986 209.337 190.433C210.094 189.879 209.789 188.731 209.575 187.74C209.342 186.653 209.067 184.961 208.707 185.038V185.419C208.265 186.12 205.974 186.404 204.998 185.891L204.978 185.302Z" fill="#263238"/>
<path d="M211.836 143.765C209.915 143.136 208.159 142.086 206.695 140.691C206.695 140.691 207.711 142.627 210.637 144.43L210.007 161.098L211.836 143.765Z" fill="#263238"/>
<path d="M219.965 109.252C219.965 109.252 223.013 109.953 222.794 115.46L222.159 124.223V137.38C219.447 140.458 207.427 140.235 203.287 137.136C203.287 137.136 203.754 121.566 204.034 115.571C204.232 111.314 205.212 109.17 209.398 108.703L214.544 108.927L219.965 109.252Z" fill="#F30051"/>
<path d="M216.084 97.8111C216.102 98.5483 215.973 99.2817 215.706 99.969C215.439 100.656 215.038 101.284 214.527 101.816C214.016 102.347 213.405 102.773 212.729 103.067C212.053 103.362 211.325 103.519 210.588 103.531C207.54 103.531 205.752 100.9 205.091 97.8111C203.872 92.1571 207.55 92.0859 210.588 92.0859C212.076 92.1166 213.491 92.7369 214.521 93.8105C215.552 94.8841 216.114 96.3231 216.084 97.8111Z" fill="#263238"/>
<path d="M218.887 100.121C218.887 100.121 218.044 104.246 217.703 104.927C217.489 105.336 217.125 105.648 216.688 105.795L216.748 102.895L218.887 100.121Z" fill="#263238"/>
<path d="M217.825 94.2114C217.825 94.2114 218.43 94.059 219.075 95.0648C219.624 95.9233 219.751 97.8537 218.887 100.145L217.297 100.338L217.825 94.2114Z" fill="#263238"/>
<path d="M218.41 95.0508L220.361 95.0863C220.374 94.9602 220.361 94.8328 220.323 94.7119C220.285 94.591 220.222 94.4794 220.138 94.384C220.055 94.2886 219.953 94.2114 219.838 94.1575C219.723 94.1035 219.599 94.0738 219.472 94.0703C219.205 94.0741 218.949 94.1764 218.753 94.3573C218.557 94.5383 218.435 94.7852 218.41 95.0508Z" fill="#263238"/>
<path d="M218.649 94.5902L220.092 93.2033C220.009 93.1053 219.906 93.0256 219.791 92.9692C219.675 92.9128 219.549 92.881 219.421 92.8758C219.292 92.8705 219.164 92.892 219.045 92.9387C218.925 92.9855 218.816 93.0566 218.725 93.1475C218.534 93.3345 218.42 93.5867 218.406 93.854C218.392 94.1212 218.479 94.384 218.649 94.5902Z" fill="#263238"/>
<path d="M216.821 100.313C217.141 100.511 217.593 99.8756 217.989 99.4438C218.386 99.012 219.615 98.6158 220.255 100.018C220.895 101.42 219.803 102.807 218.889 103.264C217.248 104.077 216.73 102.893 216.73 102.893L216.592 109.426C214.286 112.982 209.054 112.87 210.938 109.253V107.267C210.163 107.396 209.376 107.437 208.591 107.389C207.311 107.186 206.509 106.134 206.117 104.691C205.498 102.375 205.259 100.506 205.787 95.9488C206.366 90.9602 211.944 90.9044 214.931 92.9008C217.918 94.8972 216.821 100.313 216.821 100.313Z" fill="#FFA8A7"/>
<path d="M209.872 95.1732C211.202 95.0412 212.518 94.7668 213.854 94.6652C214.142 94.6303 214.434 94.6441 214.718 94.7059C215.734 94.9853 215.612 96.174 215.774 97.002C216.054 98.4346 216.282 100.858 216.821 100.868C216.984 100.868 217.593 99.8164 217.989 99.4404C218.207 99.1165 218.33 98.7383 218.345 98.3482C218.447 97.759 218.497 97.1544 218.543 96.555C218.584 96.047 218.635 95.539 218.635 95.031C218.658 94.4569 218.612 93.8821 218.497 93.319C218.37 92.84 218.126 92.4001 217.786 92.0389L217.685 91.9271C217.015 91.2271 216.202 90.6795 215.302 90.3218C214.007 89.8366 212.648 89.5406 211.269 89.443C209.891 89.3454 208.519 89.1759 207.159 88.935C207.081 88.9123 206.998 88.9123 206.92 88.935C206.865 88.9655 206.818 89.0095 206.785 89.0627C206.751 89.116 206.731 89.1769 206.727 89.2398C206.671 89.5555 206.706 89.8805 206.827 90.1772C206.949 90.4739 207.152 90.7301 207.413 90.9162C206.493 90.9873 205.437 90.5098 204.553 90.266C204.481 90.2356 204.404 90.22 204.327 90.22C204.249 90.22 204.172 90.2356 204.101 90.266C204.012 90.328 203.949 90.42 203.923 90.525C203.859 90.7637 203.85 91.014 203.897 91.2566C203.978 91.9918 204.252 92.6927 204.69 93.2886C205.375 94.18 206.342 94.8123 207.433 95.0818C208.236 95.2367 209.059 95.2675 209.872 95.1732Z" fill="#263238"/>
<path d="M210.943 107.267C210.943 107.267 213.798 106.668 214.794 106.114C215.387 105.789 215.869 105.294 216.176 104.691C216.026 105.296 215.758 105.866 215.388 106.368C214.662 107.343 210.943 108.054 210.943 108.054V107.267Z" fill="#F28F8F"/>
<path d="M211.629 99.5681C211.624 99.7249 211.68 99.8775 211.787 99.9927C211.894 100.108 212.041 100.176 212.198 100.183C212.323 100.193 212.447 100.165 212.556 100.104C212.664 100.042 212.752 99.9486 212.806 99.8363C212.861 99.7241 212.88 99.5979 212.862 99.4744C212.844 99.3508 212.789 99.2357 212.704 99.1441C212.619 99.0524 212.509 98.9886 212.387 98.9608C212.265 98.9331 212.138 98.9427 212.022 98.9886C211.905 99.0344 211.806 99.1142 211.736 99.2177C211.666 99.3211 211.629 99.4432 211.629 99.5681Z" fill="#263238"/>
<path d="M212.543 97.1027L213.767 97.8088C213.856 97.6347 213.877 97.4335 213.824 97.2452C213.771 97.0568 213.649 96.8953 213.483 96.7928C213.402 96.7473 213.312 96.7191 213.219 96.7101C213.127 96.7012 213.033 96.7116 212.945 96.7408C212.856 96.7699 212.775 96.8171 212.706 96.8795C212.637 96.9418 212.581 97.0178 212.543 97.1027Z" fill="#263238"/>
<path d="M211.196 103.688L209.891 104.195C209.917 104.285 209.961 104.368 210.021 104.44C210.081 104.512 210.155 104.57 210.238 104.612C210.321 104.654 210.412 104.678 210.506 104.684C210.599 104.689 210.692 104.675 210.78 104.643C210.957 104.566 211.099 104.425 211.177 104.247C211.254 104.07 211.261 103.87 211.196 103.688Z" fill="#F28F8F"/>
<path d="M206.377 97.6275L207.494 96.7334C207.444 96.6554 207.378 96.5888 207.301 96.5379C207.223 96.487 207.136 96.4531 207.044 96.4382C206.953 96.4234 206.859 96.4279 206.769 96.4517C206.68 96.4754 206.596 96.5178 206.524 96.5759C206.375 96.7026 206.277 96.8797 206.25 97.0736C206.223 97.2676 206.268 97.4647 206.377 97.6275Z" fill="#263238"/>
<path d="M206.868 99.401C206.877 99.5122 206.918 99.6183 206.986 99.7065C207.054 99.7947 207.147 99.8611 207.252 99.8977C207.357 99.9342 207.471 99.9392 207.579 99.9122C207.687 99.8851 207.785 99.8272 207.861 99.7454C207.937 99.6636 207.987 99.5615 208.006 99.4515C208.025 99.3416 208.011 99.2286 207.966 99.1263C207.922 99.0241 207.849 98.937 207.755 98.8757C207.662 98.8144 207.553 98.7816 207.442 98.7812C207.363 98.7839 207.286 98.802 207.215 98.8346C207.143 98.8673 207.079 98.9138 207.026 98.9714C206.972 99.029 206.931 99.0967 206.904 99.1704C206.877 99.2442 206.864 99.3225 206.868 99.401Z" fill="#263238"/>
<path d="M209.931 98.9219L209.865 102.534L207.812 102.066L209.931 98.9219Z" fill="#F28F8F"/>
<path d="M161.193 129.173L164.379 127.334L165.638 125.805L162.458 127.644L161.193 129.173Z" fill="#F30051"/>
<path opacity="0.4" d="M161.193 129.173L164.379 127.334L165.638 125.805L162.458 127.644L161.193 129.173Z" fill="black"/>
<path d="M169.855 134.171L173.041 132.333L175.697 129.98L172.517 131.814L169.855 134.171Z" fill="#F30051"/>
<path opacity="0.4" d="M169.855 134.171L173.041 132.333L175.697 129.98L172.517 131.814L169.855 134.171Z" fill="black"/>
<path d="M196.912 140.519C197.665 141.529 198.121 142.729 198.227 143.984C197.478 142.972 197.022 141.773 196.912 140.519ZM204.313 140.616C203.241 133.326 199.325 126.117 194.661 123.42C192.421 122.125 190.348 122.079 188.687 123.049L185.69 124.776L185.522 124.878C185.389 124.951 185.26 125.033 185.136 125.122C184.89 125.291 184.659 125.482 184.445 125.691L184.344 125.787C184.252 125.879 184.156 125.985 184.069 126.087C183.983 126.189 183.851 126.346 183.749 126.483C183.534 126.767 183.339 127.066 183.165 127.377C183.074 127.535 182.987 127.702 182.906 127.885L156.729 112.777L153.549 114.611V116.643L153.818 116.796L154.072 116.943V117.349L153.564 117.649V118.828L157.41 126.956L161.209 129.155L162.474 127.631L165.827 129.638L167.753 132.935L169.876 134.159L172.533 131.802L175.794 133.687L176.891 138.213L182.373 141.383C182.644 142.535 182.983 143.67 183.389 144.781C183.424 144.893 183.47 145.01 183.516 145.137C185.334 149.912 188.225 154.001 191.486 155.886C191.877 156.118 192.287 156.317 192.711 156.481C192.935 156.57 193.164 156.646 193.396 156.709C193.6 156.763 193.803 156.809 194.006 156.846C194.648 156.963 195.305 156.963 195.947 156.846L196.211 156.78C196.337 156.755 196.461 156.719 196.582 156.674L196.866 156.562C196.967 156.525 197.064 156.48 197.156 156.425C197.249 156.384 197.341 156.338 197.43 156.287L197.562 156.206C197.586 156.198 197.608 156.186 197.628 156.171C198.354 155.754 200.143 154.718 200.63 154.443C203.048 153.041 204.613 149.496 204.613 144.482C204.609 143.187 204.509 141.895 204.313 140.616Z" fill="#F30051"/>
<path d="M195.981 146.669C194.721 145.943 193.705 143.789 193.705 141.858C193.705 139.928 194.721 138.948 195.981 139.669C197.241 140.39 198.252 142.549 198.252 144.485C198.252 146.42 197.236 147.396 195.981 146.669ZM201.127 142.448C200.061 135.163 196.144 127.949 191.475 125.257C189.311 124.007 187.31 123.916 185.684 124.774L185.516 124.876C185.383 124.95 185.254 125.031 185.13 125.12C184.884 125.289 184.653 125.48 184.44 125.689L184.338 125.785C184.246 125.877 184.15 125.983 184.064 126.085C183.977 126.187 183.845 126.344 183.744 126.481C183.528 126.765 183.333 127.064 183.159 127.375C183.068 127.533 182.982 127.701 182.9 127.883C182.427 128.865 182.085 129.906 181.884 130.977L153.543 114.609V116.641L153.812 116.794L154.066 116.941V117.347L153.558 117.647V118.826L157.404 126.954L161.204 129.153L162.469 127.629L165.821 129.636L167.747 132.933L169.87 134.157L172.527 131.8L175.788 133.685L176.886 138.211L182.372 141.381C182.643 142.533 182.982 143.668 183.388 144.779C183.424 144.891 183.469 145.008 183.515 145.135C185.334 149.91 188.224 154 191.485 155.884C191.876 156.116 192.286 156.315 192.71 156.479C192.934 156.568 193.163 156.644 193.396 156.707C193.599 156.762 193.802 156.807 194.005 156.844C194.647 156.961 195.304 156.961 195.946 156.844L196.21 156.778C196.336 156.753 196.46 156.717 196.581 156.672L196.865 156.56C196.966 156.524 197.063 156.478 197.155 156.423C197.249 156.382 197.34 156.336 197.429 156.286L197.561 156.204C197.585 156.197 197.607 156.185 197.627 156.169C199.944 154.706 201.432 151.211 201.432 146.319C201.424 145.023 201.322 143.729 201.127 142.448Z" fill="#F30051"/>
<path opacity="0.4" d="M198.254 144.48C198.254 146.416 197.238 147.396 195.983 146.67C194.728 145.943 193.707 143.794 193.707 141.859C193.707 139.923 194.723 138.943 195.983 139.669C196.346 139.89 196.662 140.18 196.913 140.523C197.022 141.777 197.477 142.977 198.228 143.987C198.247 144.151 198.255 144.316 198.254 144.48Z" fill="black"/>
<path opacity="0.4" d="M204.603 144.474C204.603 149.488 203.039 153.034 200.621 154.436C200.113 154.71 198.345 155.746 197.618 156.163C199.935 154.7 201.423 151.205 201.423 146.313C201.418 145.019 201.32 143.727 201.129 142.447C200.062 135.162 196.145 127.949 191.477 125.256C189.313 124.007 187.311 123.915 185.686 124.774L188.683 123.046C190.344 122.076 192.417 122.122 194.657 123.417C199.325 126.115 203.242 133.323 204.309 140.613C204.502 141.891 204.601 143.181 204.603 144.474Z" fill="white"/>
<path d="M201.422 146.304C201.422 151.196 199.934 154.691 197.617 156.154C198.344 155.738 200.132 154.701 200.619 154.427C203.038 153.025 204.602 149.479 204.602 144.465C204.602 144.282 204.602 144.094 204.602 143.906L201.422 145.745C201.417 145.943 201.422 146.126 201.422 146.304Z" fill="#F30051"/>
<path opacity="0.1" d="M201.422 146.304C201.422 151.196 199.934 154.691 197.617 156.154C198.344 155.738 200.132 154.701 200.619 154.427C203.038 153.025 204.602 149.479 204.602 144.465C204.602 144.282 204.602 144.094 204.602 143.906L201.422 145.745C201.417 145.943 201.422 146.126 201.422 146.304Z" fill="black"/>
<path opacity="0.15" d="M182.007 133.055V134.086L153.549 117.657L154.072 117.352V116.926L182.007 133.055Z" fill="black"/>
<path opacity="0.15" d="M182.007 133.482V134.086L153.549 117.658L154.072 117.353V117.348L182.007 133.482Z" fill="black"/>
<path opacity="0.15" d="M194.382 154.432C193.304 154.404 192.252 154.09 191.334 153.523C186.696 150.845 182.922 142.88 182.922 135.768C182.922 131.618 184.177 128.519 186.366 127.254C187.89 126.37 189.694 126.482 191.588 127.574C196.221 130.251 199.996 138.242 199.996 145.354C199.996 149.499 198.741 152.603 196.552 153.863C195.891 154.24 195.143 154.436 194.382 154.432ZM188.566 127.178C187.889 127.174 187.223 127.349 186.635 127.686C184.639 128.839 183.445 131.861 183.445 135.763C183.445 142.712 187.103 150.495 191.604 153.076C193.326 154.092 194.956 154.183 196.313 153.401C198.309 152.248 199.503 149.23 199.503 145.329C199.503 138.374 195.845 130.597 191.35 128.011C190.509 127.5 189.549 127.219 188.566 127.198V127.178Z" fill="black"/>
<path opacity="0.4" d="M182.881 127.874C182.407 128.855 182.066 129.896 181.865 130.967L153.523 114.6L156.704 112.766L182.881 127.874Z" fill="white"/>
<path d="M219.716 129.462C221.199 126.653 222.896 120.344 223.739 117.159C224.938 112.637 222.998 109.793 220.793 109.676C219.416 109.889 214.88 126.384 214.88 126.384C214.372 126.785 207.478 130.285 205.263 131.164C204.867 131.314 204.43 131.314 204.034 131.164C202.972 130.778 202.246 130.849 201.205 130.748C200.387 130.666 199.975 130.377 199.868 130.549C199.772 130.764 199.759 131.007 199.834 131.23C199.908 131.453 200.064 131.64 200.27 131.753C200.718 132.015 201.196 132.223 201.692 132.373C200.802 132.643 199.874 132.768 198.944 132.744C196.81 132.698 196.043 133.623 197.699 135.792C198.715 137.143 200.397 137.57 204.151 136.275C205.228 135.899 206.691 135.172 208.057 134.68C210.872 133.664 211.613 133.542 213.757 132.815C216.881 131.759 219.056 130.712 219.716 129.462Z" fill="#FFA8A7"/>
<path d="M219.965 109.25C221.261 109.428 222.505 109.717 223.272 110.774C224.04 111.831 224.654 113.314 223.902 117.353C223.327 120.193 222.556 122.99 221.596 125.724C221.596 125.724 218.579 127.015 215.373 123.743L217.578 115.219C217.578 115.219 217.933 109.677 219.965 109.25Z" fill="#455A64"/>
</svg>
