<svg width="35" height="35" viewBox="0 0 35 35" fill="none" xmlns="http://www.w3.org/2000/svg">
<path d="M25.3501 12.0328C25.1368 12.0328 24.929 11.907 24.8415 11.6937L24.7102 11.3711C24.3329 10.4523 24.0595 9.78516 24.0595 9.29844C24.0595 8.00234 25.4923 7.65781 26.247 7.65781C28.1063 7.65781 28.7571 6.50938 28.954 6.01172C28.9704 5.9625 28.9813 5.90781 28.9813 5.84766C28.9813 5.73669 28.9416 5.62939 28.8694 5.54514C28.7972 5.46089 28.6972 5.40525 28.5876 5.38828C27.7563 5.26797 26.6134 4.96719 25.8587 4.2125C25.7821 4.13594 25.7329 4.0375 25.711 3.93359C25.6892 3.84062 25.1915 1.63672 22.4188 1.63672C19.411 1.63672 17.497 4.15234 17.497 5.46484C17.497 6.11562 17.5899 6.23594 17.5954 6.24141C17.6118 6.25234 17.6829 6.27969 17.7376 6.30156C17.9126 6.36719 18.1751 6.46563 18.4321 6.72266C18.6892 6.97969 18.8259 7.26953 18.9571 7.53203C19.2251 8.06797 19.329 8.19922 19.6845 8.19922C20.0837 8.19922 20.636 8.11172 20.997 7.68516C21.4235 7.18203 21.5438 6.25234 21.336 5.00547C21.2868 4.71016 21.4892 4.42578 21.7845 4.37656C22.0798 4.32188 22.3642 4.52969 22.4134 4.825C22.6813 6.42188 22.4845 7.61953 21.8337 8.39062C21.336 8.98125 20.5923 9.29297 19.6899 9.29297C18.6235 9.29297 18.2407 8.52734 17.9837 8.01875C17.8798 7.81094 17.7813 7.61406 17.661 7.49375C17.5735 7.40625 17.486 7.37344 17.3602 7.32422C16.7423 7.09453 16.4087 6.72813 16.4087 5.46484C16.4087 3.50703 18.8095 0.542969 22.4243 0.542969C25.2188 0.542969 26.4384 2.40781 26.7446 3.53438C27.1821 3.90625 27.8821 4.17422 28.7517 4.30547C29.1208 4.3616 29.4576 4.54793 29.7014 4.83076C29.9451 5.1136 30.0796 5.4743 30.0806 5.84766C30.0806 6.04453 30.0477 6.23047 29.9767 6.40547C29.7634 6.95781 28.8556 8.74609 26.2524 8.74609C26.2415 8.74609 25.1587 8.77891 25.1587 9.29297C25.1587 9.56641 25.4321 10.2391 25.7274 10.95L25.8587 11.2727C25.8926 11.3556 25.9055 11.4457 25.8961 11.5348C25.8868 11.624 25.8556 11.7095 25.8053 11.7836C25.7549 11.8578 25.687 11.9183 25.6076 11.9599C25.5282 12.0015 25.4397 12.0228 25.3501 12.0219V12.0328ZM6.02353 28.4391H6.01259C5.71181 28.4336 5.47119 28.182 5.47665 27.8812C5.52587 25.5187 5.80478 23.9766 7.21572 22.0953C7.90478 21.1766 8.65947 20.7062 9.57275 20.1922C9.69818 20.1303 9.84254 20.1189 9.97616 20.1602C10.1098 20.2015 10.2225 20.2924 10.2911 20.4143C10.3597 20.5362 10.3791 20.6797 10.3452 20.8153C10.3112 20.951 10.2266 21.0685 10.1087 21.1437C9.2829 21.6141 8.654 22.0023 8.09072 22.7516C6.84384 24.4141 6.61415 25.6828 6.5704 27.9031C6.56494 28.2039 6.31884 28.4391 6.02353 28.4391ZM14.7626 16.9547C14.6477 16.9547 14.5329 16.9164 14.4345 16.8453C14.1938 16.6648 14.1446 16.3203 14.3251 16.0797C16.097 13.7172 17.0431 11.5242 17.5243 10.1023C17.6227 9.81797 17.9345 9.66484 18.2188 9.75781C18.5032 9.85625 18.6563 10.168 18.5634 10.4523C18.0548 11.9508 17.0595 14.2586 15.2001 16.7359C15.0907 16.8781 14.9267 16.9547 14.7626 16.9547Z" fill="#F9B432"/>
<path d="M13.6701 33.906H10.3888C9.34974 33.906 6.23802 33.906 5.52161 30.942C1.48567 27.9396 1.10286 23.3459 2.80911 20.4967C4.01771 18.4842 6.30364 17.5435 7.89505 17.3467C8.49661 17.2701 9.28958 17.2646 9.68333 17.6584C9.74981 17.7242 9.79828 17.806 9.82411 17.896C9.84994 17.9859 9.85227 18.0809 9.83087 18.172C9.80947 18.2631 9.76506 18.3472 9.70189 18.4162C9.63871 18.4852 9.55889 18.5369 9.47005 18.5662C9.44271 18.5771 6.42943 19.6271 5.43958 22.5967C4.50442 25.3967 6.24349 26.299 6.25989 26.31C6.52786 26.4467 6.63724 26.7748 6.50599 27.0428C6.37474 27.3107 6.04114 27.4201 5.77318 27.2889C5.74583 27.2779 3.17552 25.9381 4.40599 22.2521C4.98021 20.5185 6.10677 19.3592 7.11849 18.6209C5.98099 18.96 4.58099 19.6873 3.75521 21.0654C2.27317 23.5318 2.67786 27.5678 6.33646 30.1818C6.4513 30.2639 6.52786 30.3842 6.55521 30.5209C6.86146 32.1068 8.04271 32.8123 10.3943 32.8123H13.6755C13.9763 32.8123 14.2224 33.0584 14.2224 33.3592C14.2224 33.66 13.9763 33.906 13.6755 33.906H13.6701ZM27.8888 33.906H24.6076C24.3068 33.906 24.0607 33.66 24.0607 33.3592C24.0607 32.6756 23.9568 31.992 23.749 31.3357C23.6615 31.0459 23.8201 30.7396 24.1099 30.6521C24.3997 30.5646 24.706 30.7232 24.7935 31.0131C24.974 31.6037 25.0888 32.2053 25.1326 32.8178H27.2161C27.0849 32.5389 26.806 32.2709 26.2427 32.2709C26.0458 32.2709 25.8654 32.167 25.7669 31.992C25.7286 31.9264 24.8755 30.3842 25.7341 28.2404C26.0732 27.3873 26.6255 26.8732 27.1068 26.4193C27.8177 25.7521 28.4302 25.1779 28.4302 23.5209C28.4302 20.7154 27.4677 19.485 27.4622 19.4685C27.3857 19.3701 27.3419 19.2443 27.3419 19.124C27.3419 18.6701 27.6701 18.1943 28.2716 18.1943H28.381C29.9232 18.2053 30.4482 18.0412 30.6068 17.9592C30.5576 17.7678 30.3661 17.5271 30.1857 17.292C29.874 16.8928 29.524 16.4334 29.524 15.8646C29.524 15.0935 29.524 14.7709 28.4302 14.7709C28.2115 14.7709 28.0091 14.6396 27.9271 14.4318C27.8396 14.2295 27.8888 13.9943 28.0474 13.8357C28.1404 13.7428 28.2443 13.4475 28.3208 13.1193C27.4185 13.1467 25.7615 13.36 25.0724 14.5029C24.6458 15.2139 24.6349 16.1709 24.624 17.1826C24.6076 18.5881 24.5911 20.1795 23.3005 21.2131C22.9396 21.5029 22.4146 21.7982 21.8076 22.1373C19.2536 23.5646 15.4036 25.7248 16.7161 31.0459C16.7872 31.3412 16.6122 31.6365 16.3169 31.7076C16.0216 31.7787 15.7263 31.6037 15.6552 31.3084C14.1404 25.1725 18.7779 22.5748 21.2716 21.1803C21.8349 20.8631 22.3216 20.5896 22.6115 20.36C23.4974 19.6545 23.5083 18.506 23.5247 17.1717C23.5357 16.056 23.5466 14.9076 24.1263 13.9396C25.4443 11.7467 28.8732 12.0256 29.0208 12.0365C29.1685 12.0475 29.3052 12.124 29.3982 12.2389C29.4911 12.3537 29.5349 12.5014 29.513 12.649C29.4857 12.8459 29.4146 13.3107 29.2669 13.7646C30.6122 14.0873 30.6122 15.2139 30.6122 15.8646C30.6122 16.0615 30.831 16.3459 31.0443 16.6248C31.356 17.024 31.706 17.4834 31.706 18.0521C31.706 18.2928 31.6076 18.517 31.4271 18.6975C31.0169 19.1076 30.1693 19.2881 28.6216 19.2881C28.9826 19.9662 29.513 21.3334 29.513 23.5209C29.513 25.7084 28.6271 26.485 27.8451 27.2178C27.3857 27.6498 26.9919 28.0162 26.7404 28.6451C26.2591 29.8482 26.456 30.7725 26.6036 31.199C27.9271 31.385 28.4193 32.5553 28.4193 33.3592C28.4193 33.66 28.1732 33.906 27.8724 33.906H27.8888Z" fill="#F9B432"/>
<path d="M23.5146 33.9062H16.9521C15.2568 33.9062 12.0302 30.6359 12.0302 28.4375C12.0302 27.1742 13.0365 25.6758 14.0099 24.232C14.617 23.3297 15.3115 22.307 15.3115 21.875C15.3115 20.7867 14.9451 20.2344 14.2177 20.2344C13.8787 20.2344 13.4357 20.4477 13.0474 20.6336C12.4513 20.918 11.456 21.3992 10.9912 20.4805C10.7506 19.9992 10.7779 19.4852 11.0623 19.0203C11.6693 18.0414 13.3099 17.5 14.2123 17.5C15.5029 17.5 18.0404 18.8234 18.0404 21.875C18.0404 23.0016 17.2037 24.1773 16.3177 25.4187C15.5521 26.4961 14.7592 27.6062 14.7592 28.4375C14.7592 29.6516 15.9787 30.0891 16.0279 30.1055C16.1657 30.1519 16.2794 30.2511 16.344 30.3814C16.4086 30.5116 16.4188 30.6622 16.3724 30.8C16.326 30.9378 16.2268 31.0515 16.0965 31.1161C15.9663 31.1807 15.8157 31.1909 15.6779 31.1445C15.5959 31.1172 13.6654 30.45 13.6654 28.4375C13.6654 27.2562 14.5623 25.9984 15.4318 24.7844C16.1756 23.7398 16.9467 22.657 16.9467 21.875C16.9467 19.5398 15.0162 18.5937 14.2123 18.5937C13.5068 18.5937 12.3201 19.0641 11.992 19.5945C11.9209 19.7094 11.9045 19.8078 11.9373 19.9172C12.0959 19.8789 12.3693 19.7422 12.5662 19.6492C13.0584 19.4086 13.6217 19.1406 14.2123 19.1406C15.5795 19.1406 16.3998 20.1633 16.3998 21.875C16.3998 22.6406 15.7435 23.6141 14.9123 24.8445C14.1138 26.0312 13.1185 27.5078 13.1185 28.4375C13.1185 30.1 15.9131 32.8125 16.9467 32.8125H22.7982C22.6506 32.5336 22.3771 32.2656 21.8685 32.2656C21.6279 32.2656 21.4201 32.1125 21.3435 31.8828C21.2724 31.6531 21.3599 31.407 21.5568 31.2703C21.6115 31.232 22.9623 30.2422 22.9623 27.8906C22.9623 27.5898 23.2084 27.3437 23.5092 27.3437C23.8099 27.3437 24.056 27.5898 24.056 27.8906C24.056 29.6023 23.449 30.7508 22.924 31.4234C23.7279 31.8609 24.0177 32.7742 24.056 33.3266C24.067 33.4797 24.0123 33.6273 23.9084 33.7367C23.8045 33.8461 23.6623 33.9117 23.5092 33.9117L23.5146 33.9062Z" fill="#F9B432"/>
</svg>
