<svg width="39" height="39" viewBox="0 0 39 39" fill="none" xmlns="http://www.w3.org/2000/svg">
<g clip-path="url(#clip0_2182_4532)">
<path fill-rule="evenodd" clip-rule="evenodd" d="M23.3579 29.0858C22.5757 29.0858 21.2002 26.656 17.3056 28.9855C17.1537 29.076 16.9626 29.0719 16.8159 28.9734C15.2705 27.938 12.473 27.398 11.4284 28.8699C11.2815 29.0771 10.9936 29.1247 10.7879 28.9759C9.74311 28.2218 7.47371 27.1576 6.36266 28.5328C6.32918 28.5738 6.289 28.6088 6.24384 28.6363C4.44632 29.7289 2.32683 28.1475 3.08939 27.512C3.28226 27.3507 3.57019 27.3763 3.73153 27.5685C3.81996 27.6713 4.596 28.5168 5.70682 27.8918C7.13048 26.2275 9.53082 27.0803 10.9698 27.996C12.4558 26.4729 15.3043 26.991 17.0789 28.0586C19.4112 26.7282 21.2642 26.7307 23.3469 28.0723C25.2267 26.7862 27.4575 26.7792 29.2982 28.0541C33.3788 25.8754 33.4832 27.9371 35.754 28.1386C36.9745 28.2469 37.2101 26.9917 37.8008 27.5072C38.4754 28.0954 36.8406 29.1521 35.6738 29.0488C32.9346 28.8066 33.4485 26.7945 29.4833 28.9933C29.3242 29.0815 29.1279 29.0664 28.9831 28.9556C27.3546 27.7019 25.3049 27.7159 23.6342 28.9914C23.5533 29.0547 23.4557 29.086 23.3579 29.086V29.0858ZM23.3579 32.8904C22.5775 32.8904 21.1925 30.4597 17.3056 32.7901C17.1537 32.881 16.9626 32.8767 16.8159 32.778C15.2696 31.7425 12.4727 31.2026 11.4284 32.6742C11.2819 32.8806 10.9947 32.9292 10.7883 32.7805C9.74357 32.0264 7.47394 30.9626 6.36312 32.3374C6.32976 32.3785 6.28956 32.4135 6.24429 32.4409C4.43741 33.5316 2.33003 31.9512 3.08985 31.3166C3.28272 31.155 3.56996 31.1808 3.73198 31.3728C3.81928 31.4743 4.59577 32.3221 5.70751 31.6966C7.13139 30.0323 9.5315 30.8854 10.9702 31.8004C12.4565 30.2766 15.3045 30.7949 17.0794 31.8632C19.4107 30.5328 21.2638 30.5351 23.3474 31.8769C25.2272 30.5901 27.4575 30.583 29.2982 31.8586C33.377 29.6806 33.4782 31.738 35.7542 31.9432C36.9752 32.0536 37.2099 30.7951 37.8011 31.3113C38.4752 31.9 36.8413 32.9569 35.674 32.8534C32.9371 32.6107 33.4437 30.5986 29.4835 32.7976C29.3245 32.886 29.1282 32.8712 28.9833 32.7599C27.3549 31.5067 25.3053 31.5202 23.6344 32.796C23.5551 32.8574 23.4577 32.8906 23.3574 32.8906L23.3579 32.8904ZM23.3579 36.695C22.5853 36.695 21.1916 34.2654 17.3056 36.5946C17.1537 36.6854 16.9626 36.681 16.8159 36.5825C15.2705 35.5471 12.473 35.0071 11.4284 36.479C11.2819 36.6856 10.9947 36.7343 10.7883 36.5855C9.74357 35.8305 7.47348 34.7676 6.36312 36.1424C6.32987 36.1836 6.28965 36.2186 6.24429 36.2459C4.43673 37.3373 2.33003 35.7555 3.08985 35.1216C3.28272 34.9603 3.56996 34.9854 3.73198 35.1778C3.81928 35.2797 4.59577 36.1273 5.70751 35.5016C7.13117 33.8378 9.53105 34.6904 10.9702 35.6054C12.4561 34.0816 15.305 34.6004 17.0794 35.668C19.4116 34.338 21.2647 34.3401 23.3474 35.6817C25.2265 34.3954 27.4579 34.3878 29.2982 35.6637C33.3781 33.485 33.4807 35.5444 35.7542 35.7482C36.975 35.8577 37.2097 34.6006 37.8011 35.1164C38.4752 35.7043 36.8417 36.7621 35.674 36.6584C32.9334 36.415 33.4485 34.4038 29.4835 36.6024C29.3245 36.6908 29.1282 36.6758 28.9833 36.5647C27.3549 35.3115 25.3053 35.3245 23.6344 36.6006C23.5551 36.662 23.4577 36.6954 23.3574 36.6954L23.3579 36.695ZM25.8074 23.34C25.6709 23.34 25.5363 23.2794 25.4459 23.1629L23.2749 20.367H8.28015C8.21543 20.3669 8.15145 20.3532 8.09244 20.3266C8.03344 20.3 7.98074 20.2612 7.93783 20.2127L3.45159 15.1422C3.19337 14.8506 3.39743 14.3881 3.78751 14.3824L6.47784 14.3438C6.62294 14.3456 6.75663 14.4068 6.84483 14.5195L9.33955 17.7189H22.1525C22.2935 17.7189 22.4267 17.7843 22.5135 17.8958L26.168 22.6028C26.4033 22.906 26.1762 23.34 25.8071 23.34H25.8074ZM8.48627 19.4529H22.5656L21.929 18.6328H9.11629C9.04677 18.6327 8.97818 18.6169 8.9157 18.5864C8.85323 18.5559 8.79851 18.5116 8.75569 18.4568L6.26349 15.2608L4.79573 15.2818L8.4865 19.4529H8.48627Z" fill="#F9B432"/>
<path fill-rule="evenodd" clip-rule="evenodd" d="M5.7075 23.3365C5.32039 23.3365 5.1049 22.8774 5.36175 22.5804L7.93028 19.608C8.32401 19.1526 9.01505 19.7509 8.622 20.2056L6.05347 23.1782C5.96298 23.283 5.8357 23.3365 5.7075 23.3365Z" fill="#F9B432"/>
<path fill-rule="evenodd" clip-rule="evenodd" d="M26.1445 23.3383H3.45623C2.85478 23.3383 2.85478 22.4242 3.45623 22.4242H26.1445C26.746 22.4242 26.7462 23.3383 26.1445 23.3383ZM0.841776 13.0518C0.409651 13.0518 0.371717 12.606 0.272312 12.2346C-1.07296 7.21299 2.74006 2.30469 7.88077 2.30469C11.4518 2.30469 14.5902 4.70868 15.5123 8.15128C15.6012 8.4824 15.8437 9.04867 15.3172 9.18966L0.841776 13.052V13.0518ZM7.881 3.21807C3.37054 3.21807 -0.0364135 7.49156 1.16535 12.0347L14.6396 8.42436C13.8277 5.35493 11.0553 3.21807 7.881 3.21807Z" fill="#F9B432"/>
<path fill-rule="evenodd" clip-rule="evenodd" d="M4.69567 12.0217C4.54645 12.0217 4.40042 11.9491 4.3129 11.8152C1.99894 8.28138 5.55603 2.81823 5.59214 2.76362C5.71942 2.57098 5.9701 2.50379 6.17737 2.6064C6.2361 2.63565 12.0448 5.65344 11.8114 9.80581C11.7776 10.4116 10.8654 10.3529 10.899 9.75462C11.0669 6.76357 7.34234 4.3349 6.13783 3.63084C5.44726 4.84289 3.43654 8.80879 5.07683 11.3145C5.27838 11.6221 5.04964 12.0215 4.69544 12.0215L4.69567 12.0217Z" fill="#F9B432"/>
<path fill-rule="evenodd" clip-rule="evenodd" d="M10.0326 18.6332C9.83083 18.6332 9.64596 18.4986 9.59135 18.2943L7.58086 10.791C7.42501 10.2099 8.30823 9.97291 8.46407 10.5545L10.4746 18.0578C10.5527 18.349 10.3324 18.6332 10.0326 18.6332ZM23.2825 9.91098C22.0727 9.91098 21.0889 8.92676 21.0889 7.71723C21.0889 6.50769 22.0731 5.5237 23.2825 5.5237C24.492 5.5237 25.4764 6.50792 25.4764 7.71723C25.4764 8.92699 24.4922 9.91098 23.2825 9.91098ZM23.2825 6.43776C21.5985 6.43776 21.599 8.99715 23.2825 8.99715C24.9666 8.99715 24.9666 6.43776 23.2825 6.43776ZM23.2825 5.30318C22.66 5.30318 22.8254 4.43207 22.8254 3.6622C22.8254 3.06052 23.7395 3.06052 23.7395 3.6622C23.7395 4.43299 23.9049 5.30318 23.2825 5.30318Z" fill="#F9B432"/>
<path fill-rule="evenodd" clip-rule="evenodd" d="M25.3083 6.14349C24.9054 6.14349 24.6959 5.6524 24.9854 5.36287C25.5302 4.81832 26.029 4.08547 26.4691 4.52559C26.9097 4.96617 26.1755 5.46388 25.6312 6.00935C25.5889 6.05193 25.5386 6.08571 25.4832 6.10874C25.4277 6.13176 25.3683 6.14357 25.3083 6.14349ZM27.3334 8.17363C26.5635 8.17363 25.6926 8.33907 25.6926 7.71659C25.6926 7.09412 26.564 7.25956 27.3334 7.25956C27.9349 7.25956 27.9351 8.17363 27.3334 8.17363ZM26.1453 11.0413C25.8286 11.0413 25.3451 10.4314 24.9845 10.0705C24.559 9.64459 25.2057 8.99857 25.6312 9.42407C26.1755 9.9684 26.9093 10.4677 26.4687 10.9078C26.4263 10.9503 26.3759 10.9839 26.3204 11.0069C26.265 11.0298 26.2056 11.0416 26.1456 11.0415L26.1453 11.0413ZM23.2777 12.2293C22.6552 12.2293 22.8207 11.358 22.8207 10.5881C22.8207 9.98668 23.7347 9.98668 23.7347 10.5881C23.7347 11.3589 23.9002 12.2293 23.2777 12.2293ZM20.4103 11.0413C20.0062 11.0413 19.7983 10.5497 20.0869 10.2611C20.6312 9.7168 21.1305 8.98326 21.5707 9.42384C22.0103 9.86396 21.2795 10.3626 20.7334 10.9076C20.6476 10.9932 20.5314 11.0413 20.4103 11.0413ZM20.4066 8.17363C19.6367 8.17363 18.7656 8.33907 18.7656 7.71659C18.7656 7.09412 19.6367 7.25956 20.4066 7.25956C21.0083 7.25956 21.0083 8.17363 20.4066 8.17363ZM21.2475 6.14349C20.9306 6.14349 20.4491 5.53403 20.0869 5.17229C19.661 4.74679 20.3081 4.10032 20.7334 4.52605C21.2784 5.07152 22.0112 5.56922 21.5707 6.00935C21.5283 6.05187 21.4779 6.0856 21.4225 6.10862C21.367 6.13164 21.3076 6.14349 21.2475 6.14349ZM37.5778 23.3391H26.1412C25.5395 23.3391 25.5398 22.4251 26.1412 22.4251H37.5778C38.1792 22.4251 38.1792 23.3391 37.5778 23.3391Z" fill="#F9B432"/>
<path fill-rule="evenodd" clip-rule="evenodd" d="M29.707 27.1281C29.4548 27.1281 29.25 26.9232 29.25 26.6711V16.6591C29.25 15.4768 30.2116 14.5156 31.3937 14.5156C33.3722 14.5156 34.1135 17.1161 33.0806 17.1161C32.8286 17.1161 32.6236 16.9114 32.6236 16.6591C32.6236 15.0403 30.1647 15.0405 30.1647 16.6591V26.6709C30.1641 26.9232 29.9591 27.1281 29.707 27.1281ZM35.1738 27.1281C34.9216 27.1281 34.7168 26.9232 34.7168 26.6711V16.6591C34.7168 15.4768 35.6784 14.5156 36.8605 14.5156C38.8388 14.5156 39.5803 17.1161 38.5472 17.1161C38.2951 17.1161 38.0902 16.9114 38.0902 16.6591C38.0902 15.0405 35.6313 15.0401 35.6313 16.6591V26.6709C35.6309 26.9232 35.4259 27.1281 35.1736 27.1281H35.1738Z" fill="#F9B432"/>
<path fill-rule="evenodd" clip-rule="evenodd" d="M35.1682 19.1484H29.7012C29.0995 19.1484 29.0997 18.2344 29.7012 18.2344H35.1682C35.7699 18.2344 35.7699 19.1484 35.1682 19.1484ZM35.1682 21.2423H29.7012C29.0995 21.2423 29.0997 20.3283 29.7012 20.3283H35.1682C35.7699 20.3283 35.7699 21.2423 35.1682 21.2423ZM35.1682 23.3365H29.7012C29.0995 23.3365 29.0997 22.4224 29.7012 22.4224H35.1682C35.7699 22.4224 35.7699 23.3365 35.1682 23.3365ZM35.1682 25.4297H29.7012C29.0995 25.4297 29.0997 24.5156 29.7012 24.5156H35.1682C35.7699 24.5156 35.7699 25.4297 35.1682 25.4297Z" fill="#F9B432"/>
</g>
<defs>
<clipPath id="clip0_2182_4532">
<rect width="39" height="39" fill="white"/>
</clipPath>
</defs>
</svg>
