<svg width="306" height="306" viewBox="0 0 306 306" fill="none" xmlns="http://www.w3.org/2000/svg">
<path d="M61.5666 113.159L64.137 114.138L61.9338 114.75C61.1994 114.934 60.5874 115.546 60.3426 116.28L59.547 118.728L58.5678 116.28C58.323 115.668 57.8334 115.179 57.2214 114.934L54.957 114.138L57.405 113.159C58.017 112.914 58.4454 112.425 58.6902 111.874L59.547 109.609L60.159 111.751C60.4038 112.302 60.8934 112.914 61.5666 113.159Z" fill="#E0E0E0"/>
<path d="M185.558 120.689L188.435 121.791L185.925 122.525C185.069 122.77 184.457 123.382 184.151 124.239L183.233 126.993L182.131 124.239C181.886 123.565 181.274 123.015 180.601 122.77L178.092 121.852L180.846 120.75C181.519 120.505 182.009 119.955 182.253 119.281L183.233 116.711L183.967 119.098C184.212 119.771 184.824 120.444 185.558 120.689Z" fill="#E0E0E0"/>
<path d="M175.338 56.2423L177.113 56.9155L175.583 57.3439C175.094 57.4663 174.665 57.8947 174.482 58.3843L173.931 60.0367L173.258 58.3231C173.074 57.8947 172.768 57.5887 172.34 57.4051L170.81 56.8543L172.462 56.1811C172.89 55.9975 173.196 55.6915 173.319 55.2631L173.931 53.6719L174.359 55.1407C174.543 55.6915 174.849 56.0587 175.338 56.2423Z" fill="#E0E0E0"/>
<path d="M68.4829 43.2696L70.2577 43.9428L68.7277 44.3712C68.2381 44.4936 67.8097 44.922 67.6261 45.4116L67.0753 47.064L66.4021 45.3504C66.2185 44.922 65.9125 44.616 65.4841 44.4324L63.9541 43.8816L65.6065 43.2084C66.0349 43.0248 66.3409 42.7188 66.4633 42.2904L67.0753 40.6992L67.5037 42.168C67.6873 42.7188 68.0545 43.086 68.4829 43.2696Z" fill="#E0E0E0"/>
<path d="M102.694 44.801L106.549 46.2698L103.183 47.249C102.082 47.555 101.164 48.4118 100.797 49.5134L99.5725 53.2466L98.1037 49.5134C97.7365 48.5954 97.0021 47.861 96.0229 47.4938L92.5957 46.2698L96.2677 44.7398C97.1857 44.3726 97.8589 43.6382 98.2261 42.7814L99.5725 39.293L100.552 42.5366C100.919 43.577 101.715 44.4338 102.694 44.801Z" fill="#E0E0E0"/>
<path d="M164.138 38.3738L166.708 39.353L164.505 39.965C163.771 40.1486 163.159 40.7606 162.914 41.495L162.118 43.943L161.139 41.495C160.894 40.883 160.405 40.3934 159.793 40.1486L157.528 39.353L159.976 38.3738C160.588 38.129 161.017 37.6394 161.262 37.0886L162.118 34.8242L162.73 36.9662C162.914 37.517 163.465 38.129 164.138 38.3738Z" fill="#E0E0E0"/>
<path d="M245.289 102.878L247.86 103.857L245.656 104.469C244.922 104.653 244.31 105.265 244.065 105.999L243.27 108.447L242.29 105.999C242.046 105.387 241.556 104.897 240.944 104.653L238.68 103.857L241.128 102.878C241.74 102.633 242.168 102.143 242.413 101.593L243.27 99.3281L243.882 101.47C244.065 102.082 244.616 102.633 245.289 102.878Z" fill="#E0E0E0"/>
<path d="M57.8949 127.97L58.8741 128.337L58.0173 128.582C57.7113 128.643 57.5277 128.888 57.4053 129.133L57.0993 130.051L56.7321 129.133C56.6097 128.888 56.4261 128.704 56.2425 128.643L55.3857 128.337L56.3037 127.909C56.5485 127.848 56.6709 127.664 56.7933 127.419L57.0993 126.562L57.3441 127.358C57.4053 127.664 57.5889 127.848 57.8949 127.97Z" fill="#E0E0E0"/>
<path d="M138.496 42.1081L139.475 42.4753L138.618 42.7201C138.312 42.7813 138.128 43.0261 138.006 43.2709L137.7 44.1889L137.333 43.2709C137.21 43.0261 137.027 42.8425 136.843 42.7813L135.986 42.4753L136.904 42.1081C137.149 42.0469 137.272 41.8633 137.394 41.6185L137.7 40.7617L137.945 41.5573C138.067 41.8021 138.251 41.9857 138.496 42.1081Z" fill="#E0E0E0"/>
<path d="M244.677 248.781L246.452 249.455L244.922 249.883C244.432 250.005 244.004 250.434 243.82 250.923L243.27 252.576L242.596 250.862C242.413 250.434 242.107 250.128 241.678 249.944L240.148 249.393L241.801 248.72C242.229 248.537 242.535 248.231 242.658 247.802L243.27 246.211L243.698 247.68C243.82 248.231 244.188 248.598 244.677 248.781Z" fill="#E0E0E0"/>
<path d="M235.437 264.569L238.007 265.548L235.804 266.16C235.07 266.344 234.458 266.956 234.213 267.69L233.417 270.138L232.438 267.69C232.193 267.078 231.704 266.589 231.092 266.344L228.827 265.548L231.275 264.569C231.887 264.324 232.316 263.835 232.56 263.284L233.417 261.02L234.029 263.162C234.274 263.712 234.764 264.263 235.437 264.569Z" fill="#E0E0E0"/>
<path d="M108.507 271.792L111.077 272.771L108.874 273.383C108.14 273.567 107.528 274.179 107.283 274.913L106.487 277.361L105.508 274.913C105.263 274.301 104.774 273.811 104.162 273.567L101.897 272.771L104.345 271.792C104.957 271.547 105.386 271.057 105.631 270.507L106.487 268.242L107.099 270.384C107.283 270.996 107.834 271.547 108.507 271.792Z" fill="#E0E0E0"/>
<path d="M215.975 258.815L216.954 259.182L216.097 259.427C215.791 259.488 215.608 259.733 215.485 259.978L215.179 260.896L214.812 259.978C214.69 259.733 214.506 259.55 214.323 259.488L213.466 259.182L214.384 258.815C214.629 258.754 214.751 258.57 214.873 258.326L215.179 257.469L215.424 258.264C215.547 258.509 215.73 258.693 215.975 258.815Z" fill="#E0E0E0"/>
<path d="M198.288 92.5339L199.267 92.9011L198.41 93.1459C198.104 93.2071 197.92 93.4519 197.798 93.6967L197.492 94.6147L197.125 93.6967C197.002 93.4519 196.819 93.2683 196.635 93.2071L195.778 92.9011L196.696 92.5339C196.941 92.4727 197.064 92.2891 197.186 92.0443L197.492 91.1875L197.737 91.9831C197.859 92.2279 198.043 92.4115 198.288 92.5339Z" fill="#E0E0E0"/>
<path d="M69.217 70.0144L71.8486 70.9936L69.523 71.6668C68.7274 71.9116 68.1154 72.4624 67.8706 73.258L67.0138 75.8284L65.9734 73.258C65.7286 72.646 65.1778 72.1564 64.5658 71.9116L62.2402 71.0548L64.7494 70.0144C65.3614 69.7696 65.851 69.28 66.0958 68.668L67.0138 66.2812L67.687 68.4844C67.993 69.2188 68.5438 69.7696 69.217 70.0144Z" fill="#E0E0E0"/>
<path d="M44.6147 121.24L46.0223 121.79L44.7983 122.158C44.3699 122.28 44.0639 122.586 43.9415 123.014L43.5131 124.361L42.9623 123.014C42.8399 122.647 42.5339 122.402 42.2279 122.28L41.0039 121.852L42.3503 121.301C42.6563 121.178 42.9011 120.934 43.0847 120.566L43.5743 119.281L43.9415 120.444C43.9415 120.811 44.2475 121.117 44.6147 121.24Z" fill="#E0E0E0"/>
<path d="M286.784 154.898C272.34 148.289 258.754 153.368 258.754 153.368C269.219 161.753 286.784 154.898 286.784 154.898Z" fill="#E0E0E0"/>
<path d="M243.882 144.434C241.74 153.92 246.636 161.937 246.636 161.937C250.369 154.715 243.882 144.434 243.882 144.434Z" fill="#E0E0E0"/>
<path d="M250.431 161.753C261.141 166.466 271.667 162.61 271.667 162.61C264.078 156.551 250.431 161.753 250.431 161.753Z" fill="#E0E0E0"/>
<path d="M267.26 144.86C267.138 144.676 260.712 150.245 253.001 157.283C245.29 164.321 239.108 170.135 239.292 170.258C239.414 170.441 245.84 164.872 253.552 157.834C261.263 150.857 267.444 145.043 267.26 144.86Z" fill="#E0E0E0"/>
<path d="M288.007 130.602C288.007 130.602 270.014 132.744 264.384 147.86C264.384 147.86 279.745 146.269 288.007 130.602Z" fill="#E0E0E0"/>
<path d="M262.549 126.746C262.549 126.746 249.391 139.17 253.858 154.714C253.858 154.714 265.241 144.249 262.549 126.746Z" fill="#E0E0E0"/>
<path d="M34.4559 176.195C31.4571 188.435 37.4547 198.289 37.4547 198.289C42.4731 188.803 34.4559 176.195 34.4559 176.195Z" fill="#E0E0E0"/>
<path d="M32.7422 211.201C40.4534 211.446 45.9614 206.428 45.9614 206.428C39.7802 204.592 32.7422 211.201 32.7422 211.201Z" fill="#E0E0E0"/>
<path d="M45.2269 203.489C47.3077 194.431 42.7177 186.781 42.7177 186.781C39.1681 193.636 45.2269 203.489 45.2269 203.489Z" fill="#E0E0E0"/>
<path d="M29.5597 192.905C29.4373 193.027 34.7617 197.189 41.3713 202.146C47.9809 207.103 53.4889 211.02 53.5501 210.897C53.6725 210.775 48.3481 206.613 41.7385 201.656C35.1289 196.638 29.6821 192.721 29.5597 192.905Z" fill="#E0E0E0"/>
<path d="M15.2998 178.828C15.2998 178.828 19.645 192.537 32.3134 194.679C32.3134 194.679 28.7638 182.929 15.2998 178.828Z" fill="#E0E0E0"/>
<path d="M16.1562 199.328C16.1562 199.328 27.8454 207.712 39.2898 201.898C39.2286 201.898 29.3755 194.554 16.1562 199.328Z" fill="#E0E0E0"/>
<path d="M277.174 280.664C277.174 280.725 221.544 280.848 153 280.848C84.3945 280.848 28.7637 280.786 28.7637 280.664C28.7637 280.542 84.3945 280.48 153 280.48C221.605 280.48 277.174 280.542 277.174 280.664Z" fill="#263238"/>
<path d="M247.492 122.215C226.439 123.194 213.587 137.576 213.587 137.576C231.029 141.003 247.492 122.215 247.492 122.215Z" fill="#455A64"/>
<path d="M190.576 136.047C193.881 148.532 204.53 155.019 204.53 155.019C204.53 144.248 190.576 136.047 190.576 136.047Z" fill="#455A64"/>
<path d="M208.937 152.446C224.42 151.467 234.518 140.451 234.518 140.451C221.789 138.003 208.937 152.446 208.937 152.446Z" fill="#455A64"/>
<path d="M218.422 122.337C218.177 122.215 214.016 132.68 209.242 145.654C204.407 158.629 200.735 169.277 201.041 169.339C201.286 169.461 205.448 158.996 210.221 146.021C214.995 133.047 218.667 122.398 218.422 122.337Z" fill="#455A64"/>
<path d="M234.089 92.7773C234.089 92.7773 214.199 106.241 216.831 127.539C216.831 127.6 233.967 116.278 234.089 92.7773Z" fill="#455A64"/>
<path d="M201.776 103.855C201.776 103.855 193.881 126.499 208.63 142.044C208.63 142.044 215.668 122.827 201.776 103.855Z" fill="#455A64"/>
<path d="M37.8213 175.951C52.9989 171.483 65.6673 178.46 65.6673 178.46C54.1005 185.253 37.8213 175.951 37.8213 175.951Z" fill="#455A64"/>
<path d="M81.5794 171.789C82.3138 181.459 76.3774 188.68 76.3774 188.68C73.7458 181.03 81.5794 171.789 81.5794 171.789Z" fill="#455A64"/>
<path d="M72.6443 187.945C61.3835 191.066 51.5303 185.742 51.5303 185.742C59.9147 180.846 72.6443 187.945 72.6443 187.945Z" fill="#455A64"/>
<path d="M58.4461 168.912C58.6297 168.789 64.1377 175.154 70.7473 183.233C77.3569 191.25 82.5589 197.859 82.4365 198.043C82.2529 198.165 76.7449 191.801 70.1353 183.722C63.5257 175.644 58.2625 169.034 58.4461 168.912Z" fill="#455A64"/>
<path d="M40.0859 151.836C40.0859 151.836 57.5279 156.487 60.8939 172.277C60.8939 172.216 45.9611 168.482 40.0859 151.836Z" fill="#455A64"/>
<path d="M65.7283 151.715C65.7283 151.715 76.9279 165.852 70.2571 180.54C70.2571 180.479 60.5263 168.545 65.7283 151.715Z" fill="#455A64"/>
<path d="M188.863 73.9899L191.556 66.0951C189.353 61.8723 188.251 56.9763 188.618 51.8355C189.659 37.0863 202.511 26.0091 217.199 27.1107C231.948 28.1511 243.025 41.0031 241.924 55.6911C240.883 70.4403 228.031 81.5175 213.343 80.4159C207.162 79.9875 201.654 77.4783 197.431 73.6839L188.863 73.9899Z" fill="white"/>
<path d="M188.863 73.9917C188.863 73.9917 189.046 73.9917 189.414 73.9917C189.781 73.9917 190.332 73.9917 191.066 73.9305C192.535 73.8693 194.677 73.8081 197.492 73.7469H197.614L197.553 73.6245L197.431 73.6857C200.001 76.0113 203.857 78.5817 209.059 79.8057C210.344 80.1117 211.752 80.3565 213.159 80.4789C214.567 80.5401 216.097 80.6013 217.627 80.4177C220.687 80.1729 223.93 79.3773 226.99 77.8473C230.05 76.3785 233.049 74.1753 235.497 71.3601C237.945 68.5449 239.965 65.1177 241.066 61.2621C242.229 57.4065 242.474 53.1837 241.74 49.0221C241.005 44.8605 239.292 40.7601 236.599 37.2717C236.232 36.8433 235.926 36.4149 235.558 35.9865C235.191 35.5581 234.824 35.1909 234.396 34.7625L233.845 34.1505L233.233 33.5997C232.804 33.2325 232.437 32.8653 232.009 32.5593C231.58 32.1921 231.152 31.9473 230.724 31.5801C230.295 31.2741 229.867 30.9069 229.377 30.6621C228.459 30.1113 227.541 29.5605 226.562 29.1321C222.706 27.3573 218.484 26.5617 214.506 26.6841C210.466 26.8065 206.611 27.8469 203.245 29.5605C199.879 31.2741 197.064 33.5997 194.799 36.2313C192.596 38.8629 191.005 41.8005 189.964 44.6769C189.414 46.1457 189.108 47.6145 188.802 49.0221C188.618 50.4297 188.434 51.8373 188.434 53.1837C188.373 58.5693 189.903 62.9145 191.494 65.9745V65.9133C190.638 68.4837 189.964 70.4421 189.536 71.7885C189.291 72.4617 189.169 72.9513 189.046 73.3185C188.924 73.8693 188.863 73.9917 188.863 73.9917C188.863 73.9917 188.924 73.8081 189.046 73.5021C189.169 73.1349 189.352 72.6453 189.597 71.9721C190.087 70.6257 190.76 68.6673 191.617 66.1581C190.087 63.1593 188.557 58.7529 188.679 53.4285C188.679 52.0821 188.924 50.7357 189.046 49.3281C189.352 47.9205 189.658 46.4517 190.209 45.0441C191.25 42.1677 192.78 39.2913 195.044 36.6597C197.247 34.0893 200.062 31.7637 203.428 30.1113C206.733 28.4589 210.589 27.4185 214.567 27.2961C218.545 27.1737 222.706 27.9693 226.501 29.7441C227.48 30.1113 228.398 30.7233 229.316 31.2129C229.806 31.4577 230.173 31.8249 230.662 32.1309C231.091 32.4369 231.519 32.7429 231.948 33.0489C232.376 33.4161 232.743 33.7833 233.172 34.0893L233.784 34.6401L234.334 35.2521C234.702 35.6193 235.069 36.0477 235.436 36.4149C235.803 36.8433 236.109 37.2717 236.476 37.7001C239.169 41.1273 240.883 45.1665 241.556 49.3281C242.29 53.4285 242.046 57.6513 240.883 61.4457C239.781 65.2401 237.823 68.6673 235.375 71.4213C232.927 74.2365 229.989 76.3785 226.99 77.8473C223.93 79.3161 220.748 80.1117 217.749 80.4177C216.219 80.6013 214.75 80.4789 213.343 80.4789C211.935 80.3565 210.528 80.1729 209.242 79.8669C204.04 78.6429 200.185 76.0725 197.676 73.8081L197.308 73.5021L197.553 73.9305L197.614 73.8081C194.86 73.9305 192.718 73.9917 191.25 74.0529C190.515 74.1141 189.964 74.1141 189.597 74.1141C189.046 73.9917 188.863 73.9917 188.863 73.9917Z" fill="#263238"/>
<path d="M228.826 50.4896C228.643 48.7148 227.847 47.0624 226.684 45.716C225.583 44.3696 224.053 43.3292 222.4 42.9008C220.625 42.4724 218.667 42.7784 217.076 43.8188C216.158 44.4308 215.423 45.2264 214.873 46.2056C214.383 45.3488 213.71 44.5532 212.914 44.0024C211.445 42.9008 209.487 42.4724 207.651 42.8396C205.937 43.1456 204.407 44.1248 203.245 45.41C202.021 46.6952 201.164 48.3476 200.919 50.0612C200.613 52.2644 200.98 54.7124 202.082 56.6096C203.245 58.6292 205.142 60.3428 207.161 61.5668C210.466 63.7088 214.873 66.3404 214.873 66.3404C214.873 66.3404 218.728 63.6476 222.094 61.6892C224.114 60.5264 226.133 58.9352 227.357 56.9768C228.52 55.1408 229.01 52.6928 228.826 50.4896Z" fill="#FF725E"/>
<path d="M182.927 143.697C182.927 143.697 195.718 143.207 202.021 159.425C208.325 175.643 214.628 209.487 214.628 209.487L254.102 185.252L266.954 200.246C266.954 200.246 208.325 244.31 202.756 246.758C197.186 249.206 190.883 243.392 188.251 239.965C185.62 236.537 182.927 143.697 182.927 143.697Z" fill="#AE7461"/>
<path d="M49.0825 224.664L81.2125 232.314C81.2125 232.314 88.2505 177.234 93.3301 168.605C100.062 157.221 110.527 154.59 110.527 154.59L119.463 182.436C119.463 182.436 109.548 259.119 103.734 263.465C97.9201 267.81 44.7373 242.534 44.7373 242.534L49.0825 224.664Z" fill="#AE7461"/>
<path d="M213.466 280.661C213.466 280.661 200.002 237.943 200.002 227.907C200.002 224.785 202.939 207.527 202.939 194.185C202.939 183.537 197.37 169.583 194.249 162.423C193.208 160.097 182.927 143.695 182.927 143.695L163.71 141.125L131.702 143.512L105.142 156.67L114.444 215.911L123.44 253.611L111.751 280.6H213.466V280.661Z" fill="#F30051"/>
<path d="M165.362 234.885C173.196 227.174 181.519 220.013 190.332 213.465L165.362 234.885Z" fill="#263238"/>
<path d="M82.1309 210.769L117.137 217.562C117.137 217.562 106.55 155.995 106.305 156.117C106.06 156.24 93.0245 160.952 89.4749 177.476C85.8641 194.184 82.1309 210.769 82.1309 210.769Z" fill="#FF725E"/>
<path d="M179.867 143.268C179.867 143.268 193.27 142.84 199.023 153.427C204.776 164.015 215.302 193.268 215.302 193.268L197.799 200.123L179.867 143.268Z" fill="#FF725E"/>
<path d="M193.025 169.461C193.025 169.461 193.148 169.522 193.27 169.706C193.454 169.889 193.699 170.134 193.943 170.379C194.249 170.685 194.555 171.052 194.984 171.481C195.351 171.909 195.841 172.399 196.269 173.011C196.514 173.317 196.697 173.623 196.942 173.929C197.187 174.235 197.371 174.602 197.615 174.969C198.105 175.703 198.533 176.499 199.023 177.356C199.941 179.069 200.798 181.028 201.532 183.17C202.205 185.312 202.634 187.393 202.94 189.351C203.062 190.33 203.185 191.248 203.185 192.105C203.185 192.533 203.246 192.962 203.246 193.329C203.246 193.757 203.246 194.125 203.246 194.492C203.246 195.226 203.185 195.899 203.123 196.45C203.062 197.062 203.001 197.552 202.94 197.919C202.879 198.286 202.817 198.592 202.817 198.837C202.756 199.021 202.756 199.143 202.756 199.143C202.756 199.143 202.756 199.021 202.756 198.837C202.756 198.592 202.817 198.286 202.817 197.919C202.879 197.491 202.94 197.001 202.94 196.45C202.94 195.899 203.001 195.226 203.001 194.492C203.001 194.125 203.001 193.757 203.001 193.329C203.001 192.901 202.94 192.533 202.94 192.105C202.879 191.248 202.756 190.33 202.695 189.351C202.389 187.454 201.961 185.373 201.287 183.231C200.614 181.089 199.696 179.192 198.839 177.478C198.35 176.621 197.921 175.826 197.432 175.091C197.187 174.724 197.003 174.357 196.759 174.051C196.514 173.745 196.33 173.439 196.085 173.133C195.657 172.521 195.229 172.031 194.861 171.603C194.494 171.113 194.188 170.746 193.882 170.44C193.637 170.134 193.454 169.951 193.27 169.706C193.087 169.583 193.025 169.522 193.025 169.461Z" fill="#263238"/>
<path d="M107.284 188.004C107.284 188.004 107.345 188.126 107.407 188.31C107.529 188.555 107.59 188.861 107.774 189.228C108.08 190.024 108.508 191.186 108.998 192.594C109.977 195.409 111.262 199.387 112.486 203.793C113.71 208.2 114.689 212.239 115.363 215.177C115.669 216.646 115.913 217.869 116.097 218.665C116.158 219.032 116.219 219.338 116.281 219.644C116.342 219.889 116.342 219.95 116.342 220.012C116.342 220.012 116.281 219.889 116.219 219.706C116.158 219.461 116.097 219.155 115.975 218.788C115.791 217.931 115.485 216.768 115.179 215.299C114.506 212.361 113.465 208.322 112.241 203.916C111.017 199.51 109.793 195.531 108.814 192.655C108.386 191.247 107.957 190.085 107.713 189.289C107.59 188.922 107.468 188.616 107.407 188.371C107.284 188.126 107.284 188.004 107.284 188.004Z" fill="#263238"/>
<path d="M123.501 106.975C117.871 96.6936 116.708 83.9028 120.258 72.7032L105.937 71.0508C96.0835 71.6628 87.5155 79.2516 83.5375 88.6152C79.5595 97.9176 79.6207 108.566 81.5179 118.542C82.2523 122.336 83.1091 126.498 81.0895 129.742C79.3759 132.434 76.0099 133.658 74.1127 136.229C71.2975 140.084 72.7663 146.082 76.5607 149.02C80.2939 151.896 85.4959 152.08 89.9635 150.611C94.4311 149.142 98.2867 146.266 102.02 143.389C103.672 146.082 107.344 147 110.221 145.837C113.097 144.674 115.178 141.859 116.035 138.799C116.953 135.739 116.83 132.496 116.402 129.313C121.849 130.966 128.214 126.376 128.642 120.562C129.009 115.604 125.827 111.259 123.501 106.975Z" fill="#263238"/>
<path d="M99.3886 95.9615C98.9602 92.9627 98.4706 89.8414 98.9602 86.8426C99.4498 83.8438 101.041 80.8451 103.734 79.3763C105.019 78.7031 106.61 78.397 107.834 79.1926C109.058 79.927 109.425 82.0079 108.201 82.8035L108.14 83.1706C107.467 87.3934 106.671 91.555 105.815 95.7166C105.57 96.757 105.386 97.8587 104.774 98.7155C104.162 99.6335 103.122 100.245 102.081 100.123C100.245 99.8783 99.6334 97.7363 99.3886 95.9615Z" fill="#455A64"/>
<path d="M107.283 74.7233C112.546 64.8089 122.522 56.9141 134.762 54.4661C141.555 53.0585 144.676 54.0989 149.817 54.5273C154.958 55.0169 159.915 56.8529 163.587 60.5249C167.932 64.8701 171.849 69.8885 173.563 75.8249C175.338 81.8837 176.439 88.0037 176.011 94.3073C175.46 102.202 171.666 107.465 168.912 113.096L159.67 118.298C150.98 120.134 142.228 121.97 133.354 121.48C124.48 120.99 115.423 117.869 109.609 111.198C101.408 101.957 101.53 85.6169 107.283 74.7233Z" fill="#263238"/>
<path d="M121.297 72.1531L140.881 60.0967L146.512 59.7907C158.874 57.6487 169.829 69.8275 171.665 79.8031C173.685 90.9415 175.765 104.589 175.459 113.096C174.786 130.232 160.955 134.087 160.955 134.087C160.955 134.087 161.567 136.719 162.607 142.227C160.282 151.346 146.083 153.671 132.313 146.083L131.763 145.471L116.769 78.7627C116.34 75.7639 118.299 72.8875 121.297 72.1531Z" fill="#AE7461"/>
<path d="M166.769 94.6135C166.953 95.7763 166.157 96.8167 164.933 97.0615C163.77 97.2451 162.669 96.5107 162.485 95.4091C162.302 94.2463 163.097 93.2059 164.321 92.9611C165.484 92.7163 166.586 93.4507 166.769 94.6135Z" fill="#263238"/>
<path d="M168.911 86.045C168.667 86.351 166.892 85.3718 164.566 85.6166C162.241 85.8614 160.711 87.269 160.405 87.0242C160.282 86.9018 160.466 86.351 161.139 85.739C161.812 85.127 162.975 84.4538 164.444 84.2702C165.913 84.0866 167.198 84.515 167.932 84.9434C168.728 85.433 169.034 85.9226 168.911 86.045Z" fill="#263238"/>
<path d="M157.284 106.67C157.284 106.547 158.691 106.119 160.956 105.568C161.568 105.446 162.057 105.262 162.118 104.834C162.18 104.405 161.874 103.793 161.506 103.12C160.772 101.774 160.038 100.305 159.242 98.836C156.06 92.716 153.673 87.6364 153.918 87.514C154.162 87.3916 156.978 92.2264 160.16 98.4076C160.956 99.9376 161.69 101.345 162.363 102.753C162.669 103.426 163.159 104.099 162.975 105.017C162.853 105.507 162.486 105.874 162.118 105.996C161.751 106.18 161.445 106.18 161.139 106.241C158.752 106.608 157.345 106.792 157.284 106.67Z" fill="#263238"/>
<path d="M160.955 134.086C160.955 134.086 149.756 136.167 137.699 130.781C137.699 130.781 145.104 141.736 161.751 138.125L160.955 134.086Z" fill="#6F4439"/>
<path d="M166.709 78.1506C166.403 78.7626 164.567 78.579 162.486 79.0074C160.405 79.3746 158.753 80.1702 158.263 79.7418C158.018 79.497 158.202 78.9462 158.814 78.273C159.426 77.5998 160.589 76.9266 162.058 76.6818C163.465 76.437 164.812 76.6206 165.607 76.9878C166.464 77.355 166.831 77.8446 166.709 78.1506Z" fill="#263238"/>
<path d="M141.371 98.2846C141.493 99.4474 142.595 100.243 143.758 100.121C144.921 99.9982 145.777 98.9578 145.655 97.8562C145.533 96.6934 144.431 95.8978 143.268 96.0202C142.105 96.1426 141.249 97.1218 141.371 98.2846Z" fill="#263238"/>
<path d="M137.638 90.634C137.944 90.8788 139.413 89.41 141.678 89.0428C144.003 88.6756 145.839 89.5936 146.084 89.2264C146.206 89.104 145.839 88.6144 145.044 88.186C144.248 87.7576 142.902 87.4516 141.494 87.6964C140.086 87.9412 138.924 88.6756 138.312 89.2876C137.638 89.9608 137.455 90.5116 137.638 90.634Z" fill="#263238"/>
<path d="M137.699 83.0465C138.25 83.4749 139.902 82.6793 142.044 82.3121C144.186 81.8837 146.084 82.0673 146.39 81.4553C146.512 81.1493 146.145 80.6597 145.288 80.2925C144.431 79.9253 143.085 79.7417 141.616 79.9865C140.147 80.2313 138.923 80.9657 138.311 81.5777C137.638 82.1897 137.454 82.8017 137.699 83.0465Z" fill="#263238"/>
<path d="M124.542 106.301C124.42 105.077 122.584 102.262 121.36 102.201C117.994 102.078 112.057 103.058 113.036 111.442C114.322 122.948 125.582 119.276 125.582 118.908C125.46 118.664 125.032 110.646 124.542 106.301Z" fill="#AE7461"/>
<path d="M121.849 115.117C121.787 115.056 121.665 115.301 121.359 115.484C121.053 115.668 120.502 115.851 119.89 115.668C118.605 115.362 117.381 113.526 117.075 111.506C116.953 110.466 117.014 109.425 117.32 108.569C117.565 107.712 118.054 107.039 118.666 106.855C119.278 106.671 119.707 106.977 119.89 107.283C120.074 107.589 120.013 107.834 120.074 107.834C120.135 107.834 120.319 107.589 120.135 107.161C120.074 106.916 119.89 106.671 119.584 106.488C119.278 106.304 118.85 106.243 118.421 106.304C117.565 106.488 116.83 107.345 116.524 108.324C116.157 109.303 116.035 110.405 116.218 111.629C116.524 113.954 117.993 115.974 119.707 116.28C120.563 116.402 121.175 116.096 121.481 115.79C121.849 115.423 121.91 115.117 121.849 115.117Z" fill="#6F4439"/>
<path d="M120.869 102.325L124.296 104.834C136.842 93.5119 154.774 57.8323 152.693 58.6279C152.693 58.6279 143.513 56.6083 134.578 59.7907C125.581 62.9731 108.813 70.6843 111.016 81.5779C113.158 92.4715 120.869 102.325 120.869 102.325Z" fill="#263238"/>
<path d="M150.185 110.403C149.879 110.281 149.512 110.158 149.144 110.219C148.838 110.281 148.594 110.525 148.349 110.831C147.37 112.055 147.247 113.891 148.043 115.238C148.838 116.584 150.491 117.38 152.021 117.135C153.551 116.89 155.264 115.727 155.815 112.79C154.102 112.117 151.96 111.137 150.185 110.403Z" fill="#6F4439"/>
<path d="M152.081 117.255C152.081 117.133 151.041 117.378 149.694 116.582C149.021 116.215 148.348 115.542 148.042 114.624C147.736 113.706 147.736 112.543 148.287 111.503C148.593 111.013 148.96 110.523 149.327 110.523C149.755 110.523 150.306 110.829 150.796 111.013C151.714 111.38 152.571 111.747 153.366 112.053C154.835 112.604 155.814 112.971 155.814 112.849C155.814 112.788 154.957 112.298 153.489 111.686C152.693 111.319 151.836 110.952 150.918 110.523C150.429 110.34 150 110.034 149.266 109.973C148.899 109.973 148.531 110.217 148.287 110.401C148.042 110.646 147.858 110.891 147.736 111.197C147.124 112.359 147.063 113.706 147.491 114.746C147.858 115.787 148.715 116.521 149.449 116.888C151.041 117.745 152.142 117.317 152.081 117.255Z" fill="#263238"/>
<g opacity="0.3">
<path d="M141.004 107.219C143.607 107.219 145.717 106.15 145.717 104.832C145.717 103.514 143.607 102.445 141.004 102.445C138.402 102.445 136.292 103.514 136.292 104.832C136.292 106.15 138.402 107.219 141.004 107.219Z" fill="#6F4439"/>
</g>
<g opacity="0.3">
<path d="M173.93 103.121C173.93 104.406 172.217 105.508 170.197 105.508C168.177 105.508 166.464 104.468 166.464 103.121C166.464 101.836 168.177 100.734 170.197 100.734C172.217 100.734 173.93 101.775 173.93 103.121Z" fill="#6F4439"/>
</g>
<path d="M113.709 114.686C113.709 114.686 113.526 114.625 113.22 114.442C113.036 114.319 112.853 114.258 112.669 114.136C112.547 114.075 112.424 114.013 112.302 113.952C112.179 113.891 112.057 113.768 111.935 113.646C110.833 112.912 109.364 111.565 107.957 109.668C106.488 107.771 105.203 105.139 104.285 102.14C103.856 100.61 103.489 99.0193 103.244 97.3057C103.061 95.5921 102.938 93.8173 102.999 91.9813C103.244 84.6373 105.264 78.2113 107.589 73.9885C108.752 71.9077 109.854 70.3165 110.711 69.2761C111.139 68.7253 111.506 68.3581 111.751 68.1133C111.996 67.8685 112.118 67.7461 112.118 67.7461C112.118 67.7461 111.996 67.9297 111.812 68.1745C111.629 68.4805 111.261 68.8477 110.833 69.3373C110.037 70.3777 108.936 71.9689 107.834 74.0497C105.57 78.2113 103.611 84.6373 103.367 91.9201C103.305 93.7561 103.367 95.4697 103.611 97.1833C103.795 98.8969 104.162 100.488 104.591 102.018C105.509 105.017 106.733 107.587 108.14 109.484C109.548 111.382 110.955 112.728 112.057 113.524C112.179 113.646 112.302 113.707 112.424 113.83C112.547 113.891 112.669 114.013 112.791 114.074C112.975 114.197 113.159 114.319 113.342 114.442C113.587 114.564 113.709 114.686 113.709 114.686Z" fill="#455A64"/>
<path d="M258.788 151.527L34.1123 192.547L49.1487 274.904L273.824 233.883L258.788 151.527Z" fill="#455A64"/>
<path d="M258.791 147.609L34.1152 188.629L49.1516 270.986L273.827 229.965L258.791 147.609Z" fill="white"/>
<path d="M258.754 147.613C258.876 148.409 264.445 178.642 273.87 229.927V230.05H273.748C218.362 240.209 138.129 254.836 49.0825 271.115H48.899V270.931C43.6358 242.228 38.5561 214.382 33.8438 188.556V188.434H33.9662C163.894 164.872 257.346 147.858 258.754 147.613C257.346 147.858 163.894 164.994 34.0886 188.801L34.211 188.617C38.9234 214.444 44.0029 242.228 49.2662 270.992L49.0825 270.87C138.19 254.591 218.362 239.903 273.809 229.805L273.748 229.927C264.384 178.642 258.937 148.409 258.754 147.613Z" fill="#263238"/>
<path d="M56.2432 209.303L74.6032 205.754L75.6436 211.139L69.4012 212.363L75.6436 244.799L69.7072 245.962L63.4648 213.526L57.2224 214.75L56.2432 209.303Z" fill="#263238"/>
<path d="M90.4536 241.983L84.5172 243.146L77.2344 205.324L83.1708 204.162L86.292 220.318L93.024 219.033L89.9028 202.815L95.9616 201.652L103.244 239.474L97.1856 240.637L94.0644 224.419L87.3324 225.704L90.4536 241.983Z" fill="#263238"/>
<path d="M126.868 234.947L120.871 236.109L118.545 229.439L111.262 230.846L111.568 237.884L106.121 238.925L104.897 199.879L113.588 198.227L126.868 234.947ZM110.956 225.583L116.709 224.481L110.161 205.877L110.956 225.583Z" fill="#263238"/>
<path d="M129.622 205.997L134.886 233.414L129.561 234.455L122.278 196.633L129.745 195.164L140.21 216.645L135.865 194.001L141.189 192.961L148.472 230.783L142.352 231.945L129.622 205.997Z" fill="#263238"/>
<path d="M157.59 213.401L156.427 217.195L158.692 228.823L152.755 229.986L145.473 192.164L151.409 191.001L154.591 207.464L159.181 189.471L165.118 188.309L160.099 206.791L172.401 226.191L166.281 227.354L157.59 213.401Z" fill="#263238"/>
<path d="M186.599 210.403L174.176 186.535L180.418 185.311L188.313 201.713L189.537 183.598L195.229 182.496L192.597 209.24L195.045 221.786L189.109 222.949L186.599 210.403Z" fill="#263238"/>
<path d="M198.044 191.37C196.881 185.311 199.39 181.211 205.266 180.109C211.08 179.008 214.935 181.823 216.159 187.882L219.954 207.588C221.116 213.647 218.607 217.747 212.732 218.849C206.918 219.95 203.062 217.135 201.838 211.076L198.044 191.37ZM207.836 210.281C208.387 212.974 209.733 213.769 211.63 213.402C213.528 213.035 214.507 211.75 214.017 209.057L210.1 188.616C209.55 185.923 208.203 185.128 206.306 185.495C204.409 185.862 203.43 187.147 203.919 189.84L207.836 210.281Z" fill="#263238"/>
<path d="M223.87 176.99L229.5 206.182C230.051 208.875 231.397 209.609 233.294 209.242C235.192 208.875 236.171 207.651 235.681 204.958L230.051 175.766L235.681 174.664L241.25 203.489C242.413 209.548 240.088 213.587 234.212 214.689C228.398 215.79 224.665 212.914 223.502 206.855L217.872 178.091L223.87 176.99Z" fill="#263238"/>
<path d="M246.146 203.243L242.719 189.718L239.659 173.928L245.596 172.766L248.656 188.555L250.553 202.386L246.146 203.243ZM251.716 204.896L252.817 210.648L247.064 211.75L245.963 205.997L251.716 204.896Z" fill="#263238"/>
<path d="M51.8974 224.603C51.8361 223.747 51.2241 222.951 50.4285 222.523C49.6329 222.094 48.7149 222.033 47.8581 222.094C48.8373 221.849 49.3881 220.564 49.0821 219.585C48.7761 218.606 47.7969 217.933 46.8177 217.688C45.8385 217.443 44.7369 217.565 43.7577 217.749C42.7173 217.933 40.8201 218.3 39.8409 218.361L33.4761 219.952C30.7221 221.421 32.6805 224.971 34.5165 225.154C33.7209 225.766 33.1701 225.827 32.8029 226.745C32.4357 227.663 32.4357 228.765 32.9865 229.622C33.5373 230.479 34.6389 230.907 35.5569 230.54C34.5777 231.703 34.4553 233.539 35.1897 234.824C35.6793 235.619 36.4749 236.17 37.3317 236.476C37.7601 236.599 38.2497 236.66 38.6781 236.599C38.8617 236.599 39.0453 236.599 39.1677 236.537C39.2289 236.476 39.2901 236.476 39.3513 236.415C39.5961 236.17 39.8409 235.864 40.0857 235.558C40.2081 235.436 40.2693 235.375 40.3917 235.313C40.8813 234.885 41.4933 234.579 42.0441 234.334C42.2889 234.212 42.6561 234.151 42.9009 234.028C43.0845 233.906 43.2069 233.722 43.3293 233.6C44.3085 232.804 45.5937 232.437 46.8177 232.131C48.1641 231.764 49.5105 231.274 50.4285 230.234C51.3465 229.193 51.4689 227.357 50.3673 226.562C51.2853 226.439 51.9585 225.521 51.8974 224.603Z" fill="#AE7461"/>
<path d="M39.0456 240.271C39.2904 241.067 39.7188 241.924 40.5144 242.291C41.4324 242.719 42.9012 242.352 43.8192 241.985C43.6356 240.822 43.5132 240.21 43.3908 238.986C43.3296 238.741 43.2072 238.558 43.3296 238.313C43.5132 237.701 44.7984 237.334 45.3492 236.966C46.2672 236.293 46.3284 234.763 45.594 233.845C44.8596 232.927 43.5744 232.621 42.4116 232.927C41.31 233.233 40.392 234.09 39.78 235.069C38.8008 236.599 38.556 238.558 39.0456 240.271Z" fill="#AE7461"/>
<path d="M35.1893 230.663C35.1281 230.479 38.4941 229.378 42.7169 228.215C46.9397 227.052 50.3669 226.318 50.4281 226.563C50.4893 226.746 47.1233 227.848 42.9005 229.011C38.7389 230.112 35.2505 230.847 35.1893 230.663Z" fill="#6F4439"/>
<path d="M34.2109 225.276C34.1497 225.092 37.0873 223.807 40.9429 222.889C44.7985 221.971 48.0421 221.787 48.0421 222.032C48.0421 222.277 44.9209 222.767 41.1265 223.685C37.3933 224.541 34.3333 225.459 34.2109 225.276Z" fill="#6F4439"/>
<path d="M39.0455 238.497C38.9843 238.558 38.6783 238.008 38.7395 237.151C38.8007 236.294 39.4127 235.131 40.4531 234.274C41.4935 233.479 42.4727 232.989 43.3907 232.744C44.3699 232.561 44.8595 233.112 44.7371 233.173C44.6759 233.234 44.2475 232.989 43.5743 233.295C42.9623 233.601 41.9219 234.213 41.0039 234.886C40.0859 235.621 39.5351 236.478 39.2903 237.212C39.1067 237.946 39.1679 238.436 39.0455 238.497Z" fill="#6F4439"/>
<path d="M254.286 186.416C253.98 185.559 254.224 184.641 254.775 183.968C255.326 183.295 256.122 182.866 256.978 182.56C255.938 182.744 254.959 181.765 254.898 180.785C254.775 179.745 255.387 178.766 256.183 178.154C256.978 177.542 258.019 177.236 259.059 176.991C260.1 176.746 261.936 176.379 262.915 176.012L269.402 174.91C272.523 175.155 272.095 179.194 270.504 180.112C271.483 180.357 271.972 180.173 272.707 180.847C273.38 181.52 273.808 182.56 273.686 183.539C273.502 184.519 272.646 185.375 271.666 185.437C273.013 186.11 273.87 187.701 273.686 189.231C273.564 190.149 273.074 191.006 272.401 191.557C272.034 191.863 271.666 192.107 271.238 192.23C271.054 192.291 270.932 192.352 270.748 192.352C270.687 192.352 270.565 192.352 270.504 192.291C270.136 192.169 269.83 191.924 269.524 191.801C269.402 191.74 269.28 191.74 269.096 191.679C268.484 191.495 267.811 191.434 267.199 191.495C266.893 191.495 266.587 191.557 266.281 191.557C266.097 191.557 265.914 191.434 265.73 191.373C264.506 191.006 263.16 191.251 261.936 191.373C260.589 191.557 259.12 191.679 257.835 191.067C256.611 190.455 255.754 188.864 256.428 187.64C255.51 187.823 254.592 187.211 254.286 186.416Z" fill="#AE7461"/>
<path d="M272.279 195.657C272.401 196.514 272.279 197.432 271.728 198.044C271.055 198.779 269.586 199.085 268.545 199.085C268.239 197.922 268.117 197.31 267.75 196.147C267.689 195.902 267.75 195.719 267.566 195.474C267.138 194.984 265.853 195.168 265.179 195.045C264.078 194.739 263.405 193.393 263.711 192.291C264.017 191.19 265.118 190.394 266.22 190.211C267.383 190.027 268.545 190.455 269.525 191.129C270.993 192.169 272.034 193.821 272.279 195.657Z" fill="#AE7461"/>
<path d="M271.972 185.315C271.911 185.07 268.423 185.437 264.139 186.049C259.855 186.661 256.366 187.335 256.366 187.579C256.427 187.824 259.916 187.457 264.2 186.845C268.545 186.172 271.972 185.499 271.972 185.315Z" fill="#6F4439"/>
<path d="M270.688 179.929C270.688 179.745 267.444 179.745 263.527 180.418C259.61 181.091 256.612 182.254 256.673 182.438C256.734 182.683 259.855 181.887 263.711 181.214C267.566 180.541 270.749 180.173 270.688 179.929Z" fill="#6F4439"/>
<path d="M271.544 194.005C271.667 194.005 271.728 193.393 271.238 192.658C270.81 191.863 269.769 191.067 268.484 190.761C267.199 190.455 266.097 190.394 265.179 190.516C264.2 190.7 264.017 191.434 264.139 191.434C264.261 191.495 264.506 191.067 265.241 191.067C265.975 191.067 267.138 191.251 268.239 191.495C269.402 191.801 270.259 192.413 270.749 192.964C271.299 193.515 271.422 194.005 271.544 194.005Z" fill="#6F4439"/>
</svg>
