<svg width="45" height="45" viewBox="0 0 45 45" fill="none" xmlns="http://www.w3.org/2000/svg">
<g clip-path="url(#clip0_19_666)">
<path d="M22.5001 33.75L18.7501 26.25L5.62507 19.6875C5.44556 19.6052 5.29343 19.4732 5.18678 19.307C5.08013 19.1408 5.02344 18.9475 5.02344 18.75C5.02344 18.5525 5.08013 18.3592 5.18678 18.193C5.29343 18.0268 5.44556 17.8948 5.62507 17.8125L39.3751 5.625L33.9357 20.6888" stroke="#F30051" stroke-width="2" stroke-linecap="round" stroke-linejoin="round"/>
<path d="M39.6019 37.7269C40.3887 36.9403 40.9246 35.938 41.1418 34.8468C41.359 33.7556 41.2477 32.6245 40.822 31.5966C40.3963 30.5686 39.6753 29.69 38.7503 29.0719C37.8252 28.4537 36.7376 28.1238 35.625 28.1238C34.5124 28.1238 33.4248 28.4537 32.4997 29.0719C31.5747 29.69 30.8537 30.5686 30.428 31.5966C30.0023 32.6245 29.891 33.7556 30.1082 34.8468C30.3254 35.938 30.8613 36.9403 31.6481 37.7269C32.4319 38.5125 33.7575 39.6862 35.625 41.25C37.5956 39.5812 38.9231 38.4075 39.6019 37.7269Z" stroke="#F30051" stroke-width="2" stroke-linecap="round" stroke-linejoin="round"/>
<path d="M35.625 33.75V33.7688" stroke="#F30051" stroke-width="2" stroke-linecap="round" stroke-linejoin="round"/>
</g>
<defs>
<clipPath id="clip0_19_666">
<rect width="45" height="45" fill="white"/>
</clipPath>
</defs>
</svg>
