<svg width="45" height="45" viewBox="0 0 45 45" fill="none" xmlns="http://www.w3.org/2000/svg">
<g clip-path="url(#clip0_19_680)">
<path d="M10.75 13.125C10.75 15.1141 11.5402 17.0218 12.9467 18.4283C14.3532 19.8348 16.2609 20.625 18.25 20.625C20.2391 20.625 22.1468 19.8348 23.5533 18.4283C24.9598 17.0218 25.75 15.1141 25.75 13.125C25.75 11.1359 24.9598 9.22822 23.5533 7.8217C22.1468 6.41518 20.2391 5.625 18.25 5.625C16.2609 5.625 14.3532 6.41518 12.9467 7.8217C11.5402 9.22822 10.75 11.1359 10.75 13.125Z" stroke="#F30051" stroke-width="2" stroke-linecap="round" stroke-linejoin="round"/>
<path d="M7 39.375V35.625C7 33.6359 7.79018 31.7282 9.1967 30.3217C10.6032 28.9152 12.5109 28.125 14.5 28.125H19.1875" stroke="#F30051" stroke-width="2" stroke-linecap="round" stroke-linejoin="round"/>
<path d="M35.3519 37.7269C36.1387 36.9403 36.6746 35.938 36.8918 34.8468C37.109 33.7556 36.9977 32.6245 36.572 31.5966C36.1463 30.5686 35.4253 29.69 34.5003 29.0719C33.5752 28.4537 32.4876 28.1238 31.375 28.1238C30.2624 28.1238 29.1748 28.4537 28.2497 29.0719C27.3247 29.69 26.6037 30.5686 26.178 31.5966C25.7523 32.6245 25.641 33.7556 25.8582 34.8468C26.0754 35.938 26.6113 36.9403 27.3981 37.7269C28.1819 38.5125 29.5075 39.6862 31.375 41.25C33.3456 39.5812 34.6731 38.4075 35.3519 37.7269Z" stroke="#F30051" stroke-width="2" stroke-linecap="round" stroke-linejoin="round"/>
<path d="M31.375 33.75V33.7688" stroke="#F30051" stroke-width="2" stroke-linecap="round" stroke-linejoin="round"/>
</g>
<defs>
<clipPath id="clip0_19_680">
<rect width="45" height="45" fill="white"/>
</clipPath>
</defs>
</svg>
