<svg width="45" height="45" viewBox="0 0 45 45" fill="none" xmlns="http://www.w3.org/2000/svg">
<g clip-path="url(#clip0_19_654)">
<path d="M5.625 39.3751L8.71875 32.2501C6.35187 28.8902 5.2925 24.782 5.73946 20.6965C6.18642 16.6111 8.10897 12.8291 11.1463 10.0604C14.1837 7.29179 18.127 5.72675 22.2363 5.65903C26.3456 5.59132 30.3384 7.02558 33.4653 9.69267C36.5923 12.3598 38.6384 16.0763 39.2197 20.1448C39.801 24.2134 38.8776 28.3542 36.6227 31.7903C34.3678 35.2263 30.9365 37.7214 26.9726 38.8072C23.0088 39.893 18.7849 39.4949 15.0937 37.6876L5.625 39.3751Z" stroke="#F30051" stroke-width="2" stroke-linecap="round" stroke-linejoin="round"/>
<path d="M16.875 18.75C16.875 18.9986 16.9738 19.2371 17.1496 19.4129C17.3254 19.5887 17.5639 19.6875 17.8125 19.6875C18.0611 19.6875 18.2996 19.5887 18.4754 19.4129C18.6512 19.2371 18.75 18.9986 18.75 18.75V16.875C18.75 16.6264 18.6512 16.3879 18.4754 16.2121C18.2996 16.0363 18.0611 15.9375 17.8125 15.9375C17.5639 15.9375 17.3254 16.0363 17.1496 16.2121C16.9738 16.3879 16.875 16.6264 16.875 16.875V18.75ZM16.875 18.75C16.875 21.2364 17.8627 23.621 19.6209 25.3791C21.379 27.1373 23.7636 28.125 26.25 28.125M26.25 28.125H28.125C28.3736 28.125 28.6121 28.0262 28.7879 27.8504C28.9637 27.6746 29.0625 27.4361 29.0625 27.1875C29.0625 26.9389 28.9637 26.7004 28.7879 26.5246C28.6121 26.3488 28.3736 26.25 28.125 26.25H26.25C26.0014 26.25 25.7629 26.3488 25.5871 26.5246C25.4113 26.7004 25.3125 26.9389 25.3125 27.1875C25.3125 27.4361 25.4113 27.6746 25.5871 27.8504C25.7629 28.0262 26.0014 28.125 26.25 28.125Z" stroke="#F30051" stroke-width="2" stroke-linecap="round" stroke-linejoin="round"/>
</g>
<defs>
<clipPath id="clip0_19_654">
<rect width="45" height="45" fill="white"/>
</clipPath>
</defs>
</svg>
