<svg width="28" height="28" viewBox="0 0 28 28" fill="none" xmlns="http://www.w3.org/2000/svg">
<path d="M22.6656 12.4169V6.75005C22.6656 5.50001 22.1322 5 20.8072 5H17.4404C16.1154 5 15.582 5.50001 15.582 6.75005V12.4169C15.582 13.6669 16.1154 14.1669 17.4404 14.1669H20.8072C22.1322 14.1669 22.6656 13.6669 22.6656 12.4169Z" stroke="#333333" stroke-width="1.5" stroke-linecap="round" stroke-linejoin="round"/>
<path d="M22.6656 19.9181V18.418C22.6656 17.168 22.1322 16.668 20.8072 16.668H17.4404C16.1154 16.668 15.582 17.168 15.582 18.418V19.9181C15.582 21.1681 16.1154 21.6681 17.4404 21.6681H20.8072C22.1322 21.6681 22.6656 21.1681 22.6656 19.9181Z" stroke="#333333" stroke-width="1.5" stroke-linecap="round" stroke-linejoin="round"/>
<path d="M13.0835 14.25V19.9169C13.0835 21.1669 12.5502 21.6669 11.2251 21.6669H7.85839C6.53335 21.6669 6 21.1669 6 19.9169V14.25C6 13 6.53335 12.5 7.85839 12.5H11.2251C12.5502 12.5 13.0835 13 13.0835 14.25Z" stroke="#333333" stroke-width="1.5" stroke-linecap="round" stroke-linejoin="round"/>
<path d="M13.0835 6.75005V8.25009C13.0835 9.50013 12.5502 10.0001 11.2251 10.0001H7.85839C6.53335 10.0001 6 9.50013 6 8.25009V6.75005C6 5.50001 6.53335 5 7.85839 5H11.2251C12.5502 5 13.0835 5.50001 13.0835 6.75005Z" stroke="#333333" stroke-width="1.5" stroke-linecap="round" stroke-linejoin="round"/>
</svg>
