<svg width="24" height="24" viewBox="0 0 24 24" fill="none" xmlns="http://www.w3.org/2000/svg">
<circle cx="12" cy="12" r="11.5" fill="white" stroke="#444444"/>
<path d="M11.468 6.66797H10.4013C7.73464 6.66797 6.66797 7.73464 6.66797 10.4013V13.6013C6.66797 16.268 7.73464 17.3346 10.4013 17.3346H13.6013C16.268 17.3346 17.3346 16.268 17.3346 13.6013V12.5346" stroke="#444444" stroke-width="1.5" stroke-linecap="round" stroke-linejoin="round"/>
<path d="M14.1546 7.21119L9.95194 11.4139C9.79194 11.5739 9.63194 11.8885 9.59994 12.1179L9.3706 13.7232C9.28527 14.3045 9.69594 14.7099 10.2773 14.6299L11.8826 14.4005C12.1066 14.3685 12.4213 14.2085 12.5866 14.0485L16.7893 9.84586C17.5146 9.12053 17.8559 8.27786 16.7893 7.21119C15.7226 6.14453 14.8799 6.48586 14.1546 7.21119Z" stroke="#444444" stroke-width="1.5" stroke-miterlimit="10" stroke-linecap="round" stroke-linejoin="round"/>
<path d="M13.5547 7.8125C13.912 9.08717 14.9094 10.0845 16.1894 10.4472" stroke="#444444" stroke-width="1.5" stroke-miterlimit="10" stroke-linecap="round" stroke-linejoin="round"/>
</svg>
