<svg width="35" height="35" viewBox="0 0 35 35" fill="none" xmlns="http://www.w3.org/2000/svg">
<path fill-rule="evenodd" clip-rule="evenodd" d="M34 9.86958H32.5149V4.47979H34V9.86958ZM25.9219 6.15257H26.8054C26.89 6.15215 26.9727 6.17754 27.0423 6.22532C27.1119 6.2731 27.1652 6.34097 27.1948 6.41979H28.4973V7.812H27.0042C25.2773 10.9545 23.4458 14.252 21.3914 17.0337C21.0234 17.5307 20.9832 17.4319 20.8381 17.969C20.5427 19.0886 20.5562 20.0185 20.5454 21.205C21.0288 22.5437 22.7261 26.5841 22.7261 27.3857V32.9973H20.1104V27.3857C20.1104 26.9261 18.4829 25.248 18.0586 24.3368C17.6128 24.3528 17.3792 24.3688 16.9334 24.3849C16.4768 25.3068 14.9004 26.9368 14.9004 27.3884V33H12.2793V27.3857C12.2793 26.5841 13.9685 22.5464 14.4573 21.2077C14.4304 19.9918 14.4573 19.0539 14.1887 18.001C14.0437 17.4319 14.0061 17.5708 13.614 17.0417C11.5596 14.26 9.73071 10.9652 8.00391 7.82269H6.32007V6.42781H7.72998C7.76012 6.34878 7.81385 6.28082 7.88393 6.23305C7.95402 6.18528 8.03712 6.16 8.12207 6.16059H9.00562C9.0902 6.16016 9.17287 6.18555 9.2425 6.23334C9.31213 6.28112 9.36536 6.34899 9.39502 6.42781H25.5298C25.5599 6.34878 25.6136 6.28082 25.6837 6.23305C25.7538 6.18528 25.8369 6.16 25.9219 6.16059V6.15257ZM19.4067 14.578H19.3181C18.1418 14.2439 16.9897 14.1745 15.8618 14.578H15.5933C13.7134 12.5792 11.9946 10.1662 10.0261 7.82002H24.9739C23.0054 10.1662 21.2974 12.5792 19.4067 14.578ZM17.5 8.44531C18.0249 8.44478 18.5381 8.59917 18.9748 8.88895C19.4115 9.17873 19.752 9.59087 19.9533 10.0732C20.1545 10.5556 20.2074 11.0865 20.1053 11.5988C20.0033 12.1112 19.7508 12.5818 19.3798 12.9513C19.0088 13.3208 18.5361 13.5725 18.0213 13.6746C17.5065 13.7767 16.9729 13.7246 16.4879 13.5248C16.0029 13.3251 15.5884 12.9867 15.2967 12.5525C15.005 12.1182 14.8494 11.6077 14.8494 11.0854C14.849 10.7388 14.9173 10.3956 15.0504 10.0753C15.1834 9.755 15.3786 9.46393 15.6248 9.21874C15.8709 8.97355 16.1633 8.77904 16.485 8.64633C16.8068 8.51361 17.1517 8.44531 17.5 8.44531ZM32.2249 12.2505H29.4346V2H32.2249V12.2505ZM5.53857 12.2505H2.74829V2H5.53857V12.2505ZM2.45825 9.86958H1V4.47979H2.45825V9.86958Z" fill="#333333"/>
</svg>
