<svg width="29" height="30" viewBox="0 0 29 30" fill="none" xmlns="http://www.w3.org/2000/svg">
<path d="M24.1555 20.5535H27.6602C27.8461 20.5535 28 20.7051 28 20.8922V26.1612C28 26.3465 27.8479 26.5 27.6602 26.5H24.1555C23.9696 26.5 23.8157 26.3484 23.8157 26.1612V20.8922C23.8157 20.7069 23.9696 20.5535 24.1555 20.5535ZM13.8721 5.06665C18.0039 2.21785 18.3136 7.85555 22.3703 4.33667V10.0811C18.5013 13.5513 17.666 7.94352 13.8721 10.7942V5.06665ZM12.8528 3.5C13.2883 3.5 13.6412 3.85189 13.6412 4.28613C13.6412 4.57438 13.4854 4.82707 13.2545 4.9637H13.2921V11.9285H14.8464C15.0322 11.9285 15.1862 12.0801 15.1862 12.2673V26.1631C15.1862 26.3484 15.0341 26.5019 14.8464 26.5019H11.3398C11.1539 26.5019 11 26.3503 11 26.1631V12.2673C11 12.0819 11.1521 11.9285 11.3398 11.9285H12.4154V4.9637H12.453C12.2202 4.82707 12.0644 4.57438 12.0644 4.28613C12.0644 3.85189 12.4173 3.5 12.8528 3.5ZM17.7467 15.9864H21.2514C21.4373 15.9864 21.5912 16.138 21.5912 16.3252V26.1631C21.5912 26.3484 21.4392 26.5019 21.2514 26.5019H17.7467C17.5608 26.5019 17.4069 26.3503 17.4069 26.1631V16.3252C17.4088 16.138 17.5608 15.9864 17.7467 15.9864Z" fill="#333333"/>
</svg>
