<svg width="145" height="101" viewBox="0 0 145 101" fill="none" xmlns="http://www.w3.org/2000/svg">
<path d="M56.4302 1.26121L55.4443 2.24707L89.034 35.8368L90.0199 34.8509L56.4302 1.26121Z" fill="url(#paint0_linear_266_11739)"/>
<path d="M89.0815 1.26121L90.0674 2.24707L56.4777 35.8368L55.4918 34.8509L89.0815 1.26121Z" fill="url(#paint1_linear_266_11739)"/>
<path d="M65.6952 2.34538C66.0128 2.02776 66.0128 1.51282 65.6952 1.1952C65.3776 0.877594 64.8626 0.877592 64.545 1.1952L55.3218 10.4184C55.0042 10.736 55.0042 11.251 55.3218 11.5686C55.6394 11.8862 56.1544 11.8862 56.472 11.5686L65.6952 2.34538Z" fill="url(#paint2_linear_266_11739)"/>
<path d="M63.372 2.34538C63.6896 2.02776 63.6896 1.51282 63.372 1.1952C63.0544 0.877594 62.5394 0.877592 62.2218 1.1952L55.3751 8.0419C55.0575 8.35951 55.0575 8.87447 55.3751 9.19208C55.6927 9.50969 56.2076 9.50969 56.5253 9.19207L63.372 2.34538Z" fill="url(#paint3_linear_266_11739)"/>
<path d="M79.4884 2.34538C79.1708 2.02776 79.1708 1.51281 79.4884 1.1952C79.806 0.877592 80.321 0.877592 80.6386 1.1952L89.8618 10.4184C90.1794 10.736 90.1794 11.251 89.8618 11.5686C89.5442 11.8862 89.0292 11.8862 88.7116 11.5686L79.4884 2.34538Z" fill="url(#paint4_linear_266_11739)"/>
<path d="M81.8126 2.34538C81.495 2.02776 81.495 1.51281 81.8126 1.1952C82.1302 0.877592 82.6452 0.877592 82.9628 1.1952L89.8095 8.04191C90.1271 8.35952 90.1271 8.87447 89.8095 9.19208C89.4919 9.50969 88.9769 9.50969 88.6593 9.19208L81.8126 2.34538Z" fill="url(#paint5_linear_266_11739)"/>
<path d="M65.6952 34.5853C66.0128 34.9029 66.0128 35.4179 65.6952 35.7355C65.3776 36.0531 64.8626 36.0531 64.545 35.7355L55.3218 26.5123C55.0042 26.1946 55.0042 25.6797 55.3218 25.3621C55.6394 25.0445 56.1544 25.0445 56.472 25.3621L65.6952 34.5853Z" fill="url(#paint6_linear_266_11739)"/>
<path d="M63.372 34.5853C63.6896 34.9029 63.6896 35.4179 63.372 35.7355C63.0543 36.0531 62.5394 36.0531 62.2218 35.7355L55.3751 28.8888C55.0575 28.5711 55.0575 28.0562 55.3751 27.7386C55.6927 27.421 56.2076 27.421 56.5253 27.7386L63.372 34.5853Z" fill="url(#paint7_linear_266_11739)"/>
<path d="M79.4884 34.5853C79.1708 34.9029 79.1708 35.4179 79.4884 35.7355C79.806 36.0531 80.321 36.0531 80.6386 35.7355L89.8618 26.5123C90.1794 26.1946 90.1794 25.6797 89.8618 25.3621C89.5442 25.0445 89.0292 25.0445 88.7116 25.3621L79.4884 34.5853Z" fill="url(#paint8_linear_266_11739)"/>
<path d="M81.8126 34.5853C81.495 34.9029 81.495 35.4179 81.8126 35.7355C82.1302 36.0531 82.6452 36.0531 82.9628 35.7355L89.8095 28.8888C90.1271 28.5711 90.1271 28.0562 89.8095 27.7386C89.4919 27.421 88.9769 27.421 88.6593 27.7386L81.8126 34.5853Z" fill="url(#paint9_linear_266_11739)"/>
<path d="M0.595703 62.8788V46.1029H11.5597V49.7322H4.85949V52.6254H10.4937V56.2547H4.85949V62.8788H0.595703ZM24.3468 51.0265V62.8788H20.7683L20.6668 61.0261C19.99 62.4981 18.6787 63.2341 16.733 63.2341C14.2119 63.2341 12.9514 61.7621 12.9514 58.818V51.0265H16.9106V57.8029C16.9106 59.1904 17.2913 59.884 18.0527 59.884C18.4757 59.884 18.8648 59.6639 19.2201 59.2241C19.5755 58.7843 19.8293 58.3612 19.9815 57.9551C20.1338 57.5491 20.2692 57.1347 20.3876 56.7115V51.0265H24.3468ZM26.9819 62.8788V51.0265H30.662V52.9046C30.7973 52.583 30.9834 52.2784 31.2203 51.9909C31.4572 51.7034 31.8717 51.4155 32.4639 51.128C33.073 50.8235 33.7836 50.6712 34.5958 50.6712C37.1168 50.6712 38.3772 52.1432 38.3772 55.0872V62.8788H34.4181V56.1024C34.4181 54.7149 34.0374 54.0213 33.2761 54.0213C32.8361 54.0213 32.4385 54.216 32.0832 54.605C31.7279 54.9774 31.4741 55.341 31.3218 55.6964C31.1696 56.0517 31.0427 56.407 30.9411 56.7623V62.8788H26.9819ZM49.2603 62.8788L49.108 61.5337C48.3125 62.6674 47.1538 63.2341 45.631 63.2341C44.6833 63.2341 43.8545 63.0481 43.1438 62.6757C42.4332 62.2867 41.8832 61.7791 41.4942 61.153C41.1047 60.5101 40.8172 59.8332 40.6312 59.1226C40.4619 58.412 40.3775 57.6676 40.3775 56.8892C40.3775 55.0111 40.868 53.5054 41.8495 52.3716C42.8305 51.2379 44.1844 50.6712 45.9102 50.6712C47.0606 50.6712 47.9318 50.9421 48.5243 51.4834V44.6562H52.4835V62.8788H49.2603ZM46.4432 60.2901C47.1538 60.2901 47.678 60.0109 48.0167 59.4525C48.355 58.8942 48.5243 58.0059 48.5243 56.7877C48.5243 55.7895 48.3803 55.0111 48.0928 54.4528C47.8049 53.8944 47.272 53.6152 46.4939 53.6152C45.8 53.6152 45.2924 53.8861 44.9712 54.4274C44.6495 54.952 44.4889 55.8149 44.4889 57.0161C44.4889 58.1498 44.6412 58.9786 44.9458 59.5033C45.2503 60.0279 45.7492 60.2901 46.4432 60.2901ZM65.9751 63.0057C64.7569 63.1917 63.8178 63.1242 63.158 62.8026C62.4981 62.4644 62.0667 62.0159 61.8636 61.4575C61.0344 62.642 59.9094 63.2341 58.4881 63.2341C57.3544 63.2341 56.3983 62.9295 55.6202 62.3204C54.8589 61.6943 54.4782 60.8401 54.4782 59.7571C54.4782 58.4203 55.0786 57.4222 56.2801 56.7623C57.4983 56.1024 59.1817 55.7642 61.3307 55.7471V55.3918C61.3307 54.7149 61.2291 54.2414 61.0261 53.9705C60.8397 53.6997 60.5098 53.5645 60.0363 53.5645C59.1056 53.5645 58.6995 54.0891 58.8181 55.138L54.8842 54.402C54.7486 53.319 55.1547 52.4307 56.1025 51.7371C57.0498 51.0265 58.454 50.6712 60.3155 50.6712C62.1087 50.6712 63.3864 51.0519 64.1478 51.8133C64.9092 52.5747 65.2899 53.7846 65.2899 55.4426V58.2343C65.2899 58.9786 65.366 59.4779 65.5183 59.7317C65.6705 59.9684 66.0596 60.0192 66.6857 59.884L65.9751 63.0057ZM61.3307 58.9196V57.9805C59.4185 58.0142 58.4628 58.5052 58.4628 59.4525C58.4628 60.0953 58.8264 60.417 59.5541 60.417C59.9939 60.417 60.3829 60.2984 60.7215 60.0616C61.0769 59.8078 61.2799 59.4272 61.3307 58.9196ZM83.1452 62.8788V56.1024C83.1452 54.7149 82.7645 54.0213 82.0031 54.0213C81.4106 54.0213 80.9201 54.3342 80.5311 54.9603C80.1417 55.5695 79.8625 56.2123 79.6935 56.8892V62.8788H75.7343V56.1024C75.7343 54.7149 75.3536 54.0213 74.5923 54.0213C74.2536 54.0213 73.9407 54.1312 73.6532 54.3512C73.3824 54.5713 73.1539 54.8588 72.968 55.2141C72.7816 55.5695 72.6293 55.8823 72.5111 56.1532C72.4096 56.424 72.3248 56.6945 72.2573 56.9653V62.8788H68.2981V51.0265H71.9782V52.9046C72.6717 51.4155 73.9661 50.6712 75.8612 50.6712C77.7223 50.6712 78.8814 51.4409 79.3382 52.9807C79.4397 52.7607 79.5666 52.5493 79.7189 52.3463C79.8712 52.1262 80.0909 51.8811 80.3788 51.6102C80.6833 51.3227 81.0894 51.0943 81.597 50.925C82.1046 50.7557 82.6796 50.6712 83.3228 50.6712C85.8437 50.6712 87.1044 52.1432 87.1044 55.0872V62.8788H83.1452ZM100.753 57.8536H93.2411C93.2918 58.7336 93.4778 59.3593 93.7994 59.7317C94.1206 60.1041 94.679 60.2901 95.4745 60.2901C96.5234 60.2901 97.1241 59.8923 97.2764 59.0972L100.753 59.7063C100.043 62.0583 98.2408 63.2341 95.3476 63.2341C93.3509 63.2341 91.8111 62.7182 90.7285 61.6859C89.6455 60.637 89.1042 59.1055 89.1042 57.0922C89.1042 56.2293 89.2057 55.4342 89.4088 54.7066C89.6284 53.9622 89.9584 53.2853 90.3986 52.6762C90.8554 52.05 91.4899 51.5595 92.302 51.2042C93.1142 50.8489 94.0699 50.6712 95.1699 50.6712C98.892 50.6712 100.753 52.6338 100.753 56.5593V57.8536ZM95.0176 53.4883C94.51 53.4883 94.1206 53.6323 93.8502 53.9198C93.5793 54.2073 93.3933 54.7149 93.2918 55.4426H96.5912V55.4172C96.5912 54.1312 96.0665 53.4883 95.0176 53.4883ZM102.823 62.8788V51.0265H106.503V52.9046C106.639 52.583 106.825 52.2784 107.061 51.9909C107.299 51.7034 107.713 51.4155 108.305 51.128C108.914 50.8235 109.625 50.6712 110.437 50.6712C112.958 50.6712 114.218 52.1432 114.218 55.0872V62.8788H110.259V56.1024C110.259 54.7149 109.879 54.0213 109.117 54.0213C108.677 54.0213 108.28 54.216 107.924 54.605C107.569 54.9774 107.315 55.341 107.163 55.6964C107.011 56.0517 106.884 56.407 106.782 56.7623V62.8788H102.823ZM115.965 53.9959V51.0265H117.462L117.691 47.7779H121.371V51.0265H124.619V53.9959H121.371V59.0211C121.371 59.6472 121.599 59.9601 122.056 59.9601C122.529 59.9601 122.8 59.4862 122.868 58.5389L125.761 59.554C125.626 60.1124 125.465 60.5863 125.279 60.9753C125.11 61.3643 124.873 61.7367 124.569 62.092C124.264 62.4303 123.858 62.6928 123.35 62.8788C122.859 63.0481 122.267 63.1326 121.574 63.1326C120.118 63.1326 119.061 62.7435 118.401 61.9651C117.741 61.1867 117.412 60.2056 117.412 59.0211V53.9959H115.965ZM137.925 63.0057C136.707 63.1917 135.768 63.1242 135.108 62.8026C134.448 62.4644 134.016 62.0159 133.813 61.4575C132.985 62.642 131.859 63.2341 130.438 63.2341C129.305 63.2341 128.349 62.9295 127.57 62.3204C126.809 61.6943 126.428 60.8401 126.428 59.7571C126.428 58.4203 127.029 57.4222 128.23 56.7623C129.448 56.1024 131.132 55.7642 133.28 55.7471V55.3918C133.28 54.7149 133.179 54.2414 132.976 53.9705C132.79 53.6997 132.46 53.5645 131.986 53.5645C131.056 53.5645 130.65 54.0891 130.768 55.138L126.834 54.402C126.699 53.319 127.105 52.4307 128.052 51.7371C129 51.0265 130.404 50.6712 132.265 50.6712C134.059 50.6712 135.336 51.0519 136.098 51.8133C136.859 52.5747 137.24 53.7846 137.24 55.4426V58.2343C137.24 58.9786 137.316 59.4779 137.468 59.7317C137.62 59.9684 138.01 60.0192 138.636 59.884L137.925 63.0057ZM133.28 58.9196V57.9805C131.369 58.0142 130.413 58.5052 130.413 59.4525C130.413 60.0953 130.777 60.417 131.504 60.417C131.944 60.417 132.333 60.2984 132.671 60.0616C133.027 59.8078 133.23 59.4272 133.28 58.9196ZM140.248 62.8788V44.6562H144.207V62.8788H140.248Z" fill="#323232"/>
<path d="M1.69141 100.156V69.7499H21.5636V76.3279H9.41949V81.572H19.6316V88.15H9.41949V100.156H1.69141ZM25.8596 74.0279C25.0623 73.2304 24.6636 72.2799 24.6636 71.1759C24.6636 70.0719 25.0623 69.1364 25.8596 68.3698C26.6569 67.5724 27.6076 67.1738 28.7116 67.1738C29.8463 67.1738 30.797 67.5724 31.5637 68.3698C32.361 69.1364 32.7597 70.0719 32.7597 71.1759C32.7597 72.2799 32.361 73.2304 31.5637 74.0279C30.797 74.8254 29.8463 75.2239 28.7116 75.2239C27.6076 75.2239 26.6569 74.8254 25.8596 74.0279ZM25.1236 100.156V78.6739H32.2997V100.156H25.1236ZM35.6009 84.056V78.6739H38.3148L38.7288 72.7859H45.3988V78.6739H51.2869V84.056H45.3988V93.1641C45.3988 94.2986 45.8129 94.8661 46.6409 94.8661C47.4998 94.8661 47.9903 94.0075 48.1129 92.2901L53.3569 94.1301C53.1119 95.1421 52.8204 96.0006 52.4829 96.7061C52.1764 97.4116 51.7469 98.0861 51.1949 98.7301C50.6429 99.3436 49.9069 99.8187 48.9869 100.156C48.0978 100.463 47.0243 100.616 45.7669 100.616C43.1298 100.616 41.2128 99.9107 40.0168 98.5001C38.8208 97.0896 38.2228 95.3106 38.2228 93.1641V84.056H35.6009ZM55.7156 100.156V78.6739H62.3857V82.078C62.6312 81.4954 62.9682 80.9434 63.3977 80.4219C63.8272 79.9005 64.5783 79.3794 65.6517 78.8579C66.7557 78.3059 68.0438 78.0299 69.5158 78.0299C74.0853 78.0299 76.3698 80.698 76.3698 86.034V100.156H69.1938V87.874C69.1938 85.3595 68.5038 84.102 67.1237 84.102C66.3263 84.102 65.6057 84.4545 64.9617 85.16C64.3177 85.8345 63.8577 86.494 63.5817 87.138C63.3057 87.782 63.0757 88.426 62.8917 89.07V100.156H55.7156ZM101.109 91.048H87.4928C87.5848 92.6426 87.9223 93.7775 88.5048 94.4521C89.0878 95.1266 90.0998 95.4641 91.5409 95.4641C93.4423 95.4641 94.5309 94.7436 94.8069 93.3021L101.109 94.4061C99.8209 98.6687 96.5549 100.8 91.3109 100.8C87.6923 100.8 84.9017 99.8647 82.9388 97.9941C80.9762 96.0926 79.9947 93.3175 79.9947 89.668C79.9947 88.104 80.1787 86.6625 80.5468 85.344C80.9457 83.9945 81.5437 82.768 82.3408 81.664C83.1688 80.5294 84.3188 79.6399 85.7908 78.9959C87.2628 78.3519 88.9958 78.0299 90.9888 78.0299C97.7358 78.0299 101.109 81.5874 101.109 88.702V91.048ZM90.7128 83.136C89.7928 83.136 89.0878 83.3965 88.5968 83.918C88.1063 84.4395 87.7688 85.3595 87.5848 86.678H93.5649V86.632C93.5649 84.3015 92.6143 83.136 90.7128 83.136ZM103.711 94.4061L110.473 93.3481C110.381 93.9615 110.565 94.4676 111.025 94.8661C111.515 95.2646 112.297 95.4641 113.371 95.4641C114.965 95.4641 115.763 95.0346 115.763 94.1761C115.763 93.6855 115.364 93.2866 114.567 92.9801C113.769 92.6426 112.803 92.3361 111.669 92.0601C110.534 91.7535 109.399 91.3855 108.265 90.9561C107.13 90.496 106.164 89.76 105.367 88.748C104.569 87.736 104.171 86.4785 104.171 84.976C104.171 82.8294 104.953 81.1425 106.517 79.9159C108.081 78.6585 110.35 78.0299 113.325 78.0299C116.207 78.0299 118.538 78.5974 120.317 79.7319C122.095 80.836 122.801 82.354 122.433 84.286L115.257 85.528C115.41 84.976 115.303 84.4855 114.935 84.056C114.597 83.596 114.03 83.366 113.233 83.366C112.037 83.366 111.439 83.7955 111.439 84.654C111.439 85.2365 111.837 85.712 112.635 86.08C113.432 86.4175 114.398 86.724 115.533 87C116.698 87.276 117.848 87.6286 118.983 88.058C120.148 88.4566 121.129 89.1466 121.927 90.128C122.724 91.0786 123.123 92.2901 123.123 93.7621C123.123 96.1236 122.187 97.8867 120.317 99.0521C118.477 100.218 116.069 100.8 113.095 100.8C110.243 100.8 107.912 100.264 106.103 99.1901C104.293 98.0861 103.496 96.4916 103.711 94.4061ZM125.588 94.4061L132.35 93.3481C132.258 93.9615 132.442 94.4676 132.902 94.8661C133.393 95.2646 134.175 95.4641 135.248 95.4641C136.843 95.4641 137.64 95.0346 137.64 94.1761C137.64 93.6855 137.241 93.2866 136.444 92.9801C135.647 92.6426 134.681 92.3361 133.546 92.0601C132.411 91.7535 131.277 91.3855 130.142 90.9561C129.007 90.496 128.041 89.76 127.244 88.748C126.446 87.736 126.048 86.4785 126.048 84.976C126.048 82.8294 126.83 81.1425 128.394 79.9159C129.958 78.6585 132.227 78.0299 135.202 78.0299C138.085 78.0299 140.415 78.5974 142.194 79.7319C143.973 80.836 144.678 82.354 144.31 84.286L137.134 85.528C137.287 84.976 137.18 84.4855 136.812 84.056C136.475 83.596 135.907 83.366 135.11 83.366C133.914 83.366 133.316 83.7955 133.316 84.654C133.316 85.2365 133.715 85.712 134.512 86.08C135.309 86.4175 136.275 86.724 137.41 87C138.575 87.276 139.725 87.6286 140.86 88.058C142.025 88.4566 143.007 89.1466 143.804 90.128C144.601 91.0786 145 92.2901 145 93.7621C145 96.1236 144.065 97.8867 142.194 99.0521C140.354 100.218 137.947 100.8 134.972 100.8C132.12 100.8 129.789 100.264 127.98 99.1901C126.17 98.0861 125.373 96.4916 125.588 94.4061Z" fill="#323232"/>
<defs>
<linearGradient id="paint0_linear_266_11739" x1="55.9091" y1="1.84206" x2="89.4867" y2="35.4196" gradientUnits="userSpaceOnUse">
<stop stop-color="#666666"/>
<stop offset="0.504808" stop-color="#E6E7E8"/>
<stop offset="1" stop-color="#666666"/>
</linearGradient>
<linearGradient id="paint1_linear_266_11739" x1="89.6026" y1="1.84212" x2="56.0252" y2="35.4196" gradientUnits="userSpaceOnUse">
<stop stop-color="#666666"/>
<stop offset="0.504808" stop-color="#E6E7E8"/>
<stop offset="1" stop-color="#666666"/>
</linearGradient>
<linearGradient id="paint2_linear_266_11739" x1="65.6952" y1="1.19523" x2="55.3219" y2="11.5686" gradientUnits="userSpaceOnUse">
<stop stop-color="#AEAFB0"/>
<stop offset="1" stop-color="#636363"/>
</linearGradient>
<linearGradient id="paint3_linear_266_11739" x1="63.372" y1="1.19523" x2="55.3751" y2="9.1921" gradientUnits="userSpaceOnUse">
<stop stop-color="#AEAFB0"/>
<stop offset="1" stop-color="#636363"/>
</linearGradient>
<linearGradient id="paint4_linear_266_11739" x1="79.4884" y1="1.1952" x2="89.8618" y2="11.5686" gradientUnits="userSpaceOnUse">
<stop stop-color="#AEAFB0"/>
<stop offset="1" stop-color="#636363"/>
</linearGradient>
<linearGradient id="paint5_linear_266_11739" x1="81.8126" y1="1.1952" x2="89.8095" y2="9.19208" gradientUnits="userSpaceOnUse">
<stop stop-color="#AEAFB0"/>
<stop offset="1" stop-color="#636363"/>
</linearGradient>
<linearGradient id="paint6_linear_266_11739" x1="65.6952" y1="35.7355" x2="55.3218" y2="25.3621" gradientUnits="userSpaceOnUse">
<stop stop-color="#AEAFB0"/>
<stop offset="1" stop-color="#636363"/>
</linearGradient>
<linearGradient id="paint7_linear_266_11739" x1="63.372" y1="35.7355" x2="55.3751" y2="27.7386" gradientUnits="userSpaceOnUse">
<stop stop-color="#AEAFB0"/>
<stop offset="1" stop-color="#636363"/>
</linearGradient>
<linearGradient id="paint8_linear_266_11739" x1="79.4884" y1="35.7354" x2="89.8617" y2="25.3621" gradientUnits="userSpaceOnUse">
<stop stop-color="#AEAFB0"/>
<stop offset="1" stop-color="#636363"/>
</linearGradient>
<linearGradient id="paint9_linear_266_11739" x1="81.8126" y1="35.7354" x2="89.8095" y2="27.7385" gradientUnits="userSpaceOnUse">
<stop stop-color="#AEAFB0"/>
<stop offset="1" stop-color="#636363"/>
</linearGradient>
</defs>
</svg>
