<svg width="450" height="384" viewBox="0 0 450 384" fill="none" xmlns="http://www.w3.org/2000/svg">
<path d="M180.429 171.281L277.021 141.01L148.469 295.542L365.207 81.0563L282.113 101.623L365.844 0L180.429 171.281Z" fill="#EC5D1F"/>
<path d="M133.867 143.102L192.752 127.819L110.969 216.735L247.479 94.4667L196.986 104.333L250.284 45.8334L133.867 143.102Z" fill="#9BDB2E"/>
<path d="M104.665 230.554C114.973 230.554 123.329 218.306 123.329 203.198C123.329 188.089 114.973 175.842 104.665 175.842C94.3564 175.842 86 188.089 86 203.198C86 218.306 94.3564 230.554 104.665 230.554Z" fill="white"/>
<path d="M110.348 230.921C118.771 230.921 125.6 219.482 125.6 205.371C125.6 191.26 118.771 179.821 110.348 179.821C101.924 179.821 95.0957 191.26 95.0957 205.371C95.0957 219.482 101.924 230.921 110.348 230.921Z" fill="black"/>
<path d="M129.41 248.725C146.564 248.725 160.471 228.342 160.471 203.198C160.471 178.054 146.564 157.671 129.41 157.671C112.256 157.671 98.3499 178.054 98.3499 203.198C98.3499 228.342 112.256 248.725 129.41 248.725Z" fill="white"/>
<path d="M167.546 248.725C187.23 248.725 203.187 228.342 203.187 203.198C203.187 178.054 187.23 157.671 167.546 157.671C147.861 157.671 131.904 178.054 131.904 203.198C131.904 228.342 147.861 248.725 167.546 248.725Z" fill="white"/>
<path d="M167.546 157.671H129.142V248.723H167.546V157.671Z" fill="white"/>
<path d="M167.546 241.567C184.137 241.567 197.587 224.387 197.587 203.196C197.587 182.004 184.137 164.825 167.546 164.825C150.954 164.825 137.504 182.004 137.504 203.196C137.504 224.387 150.954 241.567 167.546 241.567Z" fill="black"/>
<path d="M161.713 230.921C173.938 230.921 183.848 216.125 183.848 197.873C183.848 179.621 173.938 164.825 161.713 164.825C149.488 164.825 139.577 179.621 139.577 197.873C139.577 216.125 149.488 230.921 161.713 230.921Z" fill="white"/>
<path d="M232.889 196.754H172.487C170.148 196.754 168.252 198.65 168.252 200.99V204.31C168.252 206.65 170.148 208.546 172.487 208.546H232.889C235.229 208.546 237.125 206.65 237.125 204.31V200.99C237.125 198.65 235.229 196.754 232.889 196.754Z" fill="#4B4F50"/>
<path d="M232.183 193.579H171.781C169.442 193.579 167.546 195.475 167.546 197.815V201.135C167.546 203.475 169.442 205.371 171.781 205.371H232.183C234.522 205.371 236.419 203.475 236.419 201.135V197.815C236.419 195.475 234.522 193.579 232.183 193.579Z" fill="white"/>
<path d="M250.721 248.179C267.875 248.179 281.781 227.796 281.781 202.652C281.781 177.508 267.875 157.125 250.721 157.125C233.567 157.125 219.66 177.508 219.66 202.652C219.66 227.796 233.567 248.179 250.721 248.179Z" fill="white"/>
<path d="M288.854 248.179C308.538 248.179 324.496 227.796 324.496 202.652C324.496 177.508 308.538 157.125 288.854 157.125C269.17 157.125 253.212 177.508 253.212 202.652C253.212 227.796 269.17 248.179 288.854 248.179Z" fill="white"/>
<path d="M288.856 157.125H250.452V248.177H288.856V157.125Z" fill="white"/>
<path d="M295.558 241.025C308.447 241.025 318.896 223.845 318.896 202.652C318.896 181.459 308.447 164.279 295.558 164.279C282.669 164.279 272.221 181.459 272.221 202.652C272.221 223.845 282.669 241.025 295.558 241.025Z" fill="black"/>
<path d="M313.027 228.733C322.675 228.733 330.496 217.056 330.496 202.652C330.496 188.248 322.675 176.571 313.027 176.571C303.379 176.571 295.558 188.248 295.558 202.652C295.558 217.056 303.379 228.733 313.027 228.733Z" fill="white"/>
<path d="M324.286 202.544C324.286 212.019 321.44 219.7 317.927 219.7C314.415 219.7 311.571 212.019 311.571 202.544C311.571 193.069 314.417 185.387 317.927 185.387C321.438 185.387 324.286 193.069 324.286 202.544Z" fill="black"/>
<path d="M295.289 226.183L279.598 207.803C279.598 207.803 277.879 192.449 294.834 185.482C294.834 185.482 286.447 201.917 295.892 212.98L295.289 226.183Z" fill="white"/>
<path d="M5.05682 365V306.818H43.5795V316.96H17.358V330.824H41.0227V340.966H17.358V365H5.05682ZM51.6264 365V321.364H63.7287V365H51.6264ZM57.706 315.739C55.9067 315.739 54.3632 315.142 53.0753 313.949C51.8063 312.737 51.1719 311.288 51.1719 309.602C51.1719 307.936 51.8063 306.506 53.0753 305.312C54.3632 304.1 55.9067 303.494 57.706 303.494C59.5052 303.494 61.0393 304.1 62.3082 305.312C63.5961 306.506 64.2401 307.936 64.2401 309.602C64.2401 311.288 63.5961 312.737 62.3082 313.949C61.0393 315.142 59.5052 315.739 57.706 315.739ZM96.6335 321.364V330.455H70.3551V321.364H96.6335ZM76.321 310.909H88.4233V351.591C88.4233 352.708 88.5938 353.58 88.9347 354.205C89.2756 354.811 89.7491 355.237 90.3551 355.483C90.9801 355.729 91.6998 355.852 92.5142 355.852C93.0824 355.852 93.6506 355.805 94.2188 355.71C94.7869 355.597 95.2225 355.511 95.5256 355.455L97.429 364.46C96.8229 364.65 95.9706 364.867 94.8722 365.114C93.7737 365.379 92.4384 365.54 90.8665 365.597C87.9498 365.71 85.393 365.322 83.196 364.432C81.018 363.542 79.3229 362.159 78.1108 360.284C76.8987 358.409 76.3021 356.042 76.321 353.182V310.909ZM258.409 365.795C254.167 365.795 250.388 365.066 247.074 363.608C243.778 362.131 241.174 360.104 239.261 357.528C237.367 354.934 236.392 351.941 236.335 348.551H248.722C248.797 349.972 249.261 351.222 250.114 352.301C250.985 353.362 252.14 354.186 253.58 354.773C255.019 355.36 256.638 355.653 258.438 355.653C260.312 355.653 261.97 355.322 263.409 354.659C264.848 353.996 265.975 353.078 266.79 351.903C267.604 350.729 268.011 349.375 268.011 347.841C268.011 346.288 267.576 344.915 266.705 343.722C265.852 342.509 264.621 341.562 263.011 340.881C261.42 340.199 259.527 339.858 257.33 339.858H251.903V330.824H257.33C259.186 330.824 260.824 330.502 262.244 329.858C263.684 329.214 264.801 328.324 265.597 327.188C266.392 326.032 266.79 324.688 266.79 323.153C266.79 321.695 266.439 320.417 265.739 319.318C265.057 318.201 264.091 317.33 262.841 316.705C261.61 316.08 260.17 315.767 258.523 315.767C256.856 315.767 255.331 316.07 253.949 316.676C252.566 317.263 251.458 318.106 250.625 319.205C249.792 320.303 249.347 321.591 249.29 323.068H237.5C237.557 319.716 238.513 316.761 240.369 314.205C242.225 311.648 244.725 309.65 247.869 308.21C251.032 306.752 254.602 306.023 258.58 306.023C262.595 306.023 266.108 306.752 269.119 308.21C272.131 309.669 274.47 311.638 276.136 314.119C277.822 316.581 278.655 319.347 278.636 322.415C278.655 325.672 277.642 328.39 275.597 330.568C273.57 332.746 270.928 334.129 267.67 334.716V335.17C271.951 335.72 275.208 337.206 277.443 339.631C279.697 342.036 280.814 345.047 280.795 348.665C280.814 351.979 279.858 354.924 277.926 357.5C276.013 360.076 273.371 362.102 270 363.58C266.629 365.057 262.765 365.795 258.409 365.795ZM311.967 365.795C308.975 365.777 306.087 365.275 303.303 364.29C300.537 363.305 298.056 361.705 295.859 359.489C293.662 357.273 291.92 354.337 290.632 350.682C289.363 347.027 288.729 342.538 288.729 337.216C288.748 332.33 289.306 327.964 290.405 324.119C291.522 320.256 293.113 316.979 295.178 314.29C297.261 311.6 299.751 309.555 302.649 308.153C305.547 306.733 308.795 306.023 312.393 306.023C316.276 306.023 319.704 306.78 322.678 308.295C325.651 309.792 328.037 311.828 329.837 314.403C331.655 316.979 332.753 319.867 333.132 323.068H321.001C320.528 321.042 319.534 319.451 318.018 318.295C316.503 317.14 314.628 316.562 312.393 316.562C308.606 316.562 305.727 318.21 303.757 321.506C301.806 324.801 300.812 329.28 300.774 334.943H301.172C302.043 333.22 303.217 331.752 304.695 330.54C306.191 329.309 307.886 328.371 309.78 327.727C311.693 327.064 313.71 326.733 315.831 326.733C319.278 326.733 322.346 327.547 325.036 329.176C327.725 330.786 329.846 333.002 331.399 335.824C332.952 338.646 333.729 341.875 333.729 345.511C333.729 349.451 332.81 352.955 330.973 356.023C329.155 359.091 326.607 361.496 323.331 363.239C320.073 364.962 316.286 365.814 311.967 365.795ZM311.911 356.136C313.804 356.136 315.5 355.682 316.996 354.773C318.492 353.864 319.666 352.633 320.518 351.08C321.371 349.527 321.797 347.784 321.797 345.852C321.797 343.92 321.371 342.187 320.518 340.653C319.685 339.119 318.53 337.898 317.053 336.989C315.575 336.08 313.89 335.625 311.996 335.625C310.575 335.625 309.259 335.89 308.047 336.42C306.854 336.951 305.803 337.689 304.893 338.636C304.003 339.583 303.303 340.682 302.791 341.932C302.28 343.163 302.024 344.479 302.024 345.881C302.024 347.756 302.45 349.47 303.303 351.023C304.174 352.576 305.348 353.816 306.825 354.744C308.321 355.672 310.017 356.136 311.911 356.136ZM365.263 366.278C360.376 366.259 356.172 365.057 352.649 362.67C349.145 360.284 346.446 356.828 344.553 352.301C342.678 347.775 341.75 342.33 341.768 335.966C341.768 329.621 342.706 324.214 344.581 319.744C346.475 315.275 349.174 311.875 352.678 309.545C356.2 307.197 360.395 306.023 365.263 306.023C370.13 306.023 374.316 307.197 377.82 309.545C381.342 311.894 384.051 315.303 385.945 319.773C387.839 324.223 388.776 329.621 388.757 335.966C388.757 342.348 387.81 347.803 385.916 352.33C384.041 356.856 381.352 360.312 377.848 362.699C374.344 365.085 370.149 366.278 365.263 366.278ZM365.263 356.08C368.596 356.08 371.257 354.403 373.246 351.051C375.234 347.699 376.219 342.67 376.2 335.966C376.2 331.553 375.746 327.879 374.837 324.943C373.946 322.008 372.678 319.801 371.03 318.324C369.401 316.847 367.479 316.108 365.263 316.108C361.948 316.108 359.297 317.765 357.308 321.08C355.32 324.394 354.316 329.356 354.297 335.966C354.297 340.436 354.742 344.167 355.632 347.159C356.541 350.133 357.82 352.367 359.467 353.864C361.115 355.341 363.047 356.08 365.263 356.08Z" fill="white"/>
<path d="M105.682 365V306.818H128.636C133.049 306.818 136.809 307.661 139.915 309.347C143.021 311.013 145.388 313.333 147.017 316.307C148.665 319.261 149.489 322.67 149.489 326.534C149.489 330.398 148.655 333.807 146.989 336.761C145.322 339.716 142.907 342.017 139.744 343.665C136.6 345.312 132.794 346.136 128.324 346.136H113.693V336.278H126.335C128.703 336.278 130.653 335.871 132.188 335.057C133.741 334.223 134.896 333.078 135.653 331.619C136.43 330.142 136.818 328.447 136.818 326.534C136.818 324.602 136.43 322.917 135.653 321.477C134.896 320.019 133.741 318.892 132.188 318.097C130.634 317.282 128.665 316.875 126.278 316.875H117.983V365H105.682ZM157.251 365V321.364H168.984V328.977H169.439C170.234 326.269 171.57 324.223 173.445 322.841C175.32 321.439 177.479 320.739 179.922 320.739C180.528 320.739 181.181 320.777 181.882 320.852C182.583 320.928 183.198 321.032 183.729 321.165V331.903C183.161 331.733 182.375 331.581 181.371 331.449C180.367 331.316 179.448 331.25 178.615 331.25C176.835 331.25 175.244 331.638 173.842 332.415C172.46 333.172 171.361 334.233 170.547 335.597C169.751 336.96 169.354 338.532 169.354 340.312V365H157.251ZM207.67 365.852C203.258 365.852 199.441 364.915 196.222 363.04C193.021 361.146 190.549 358.513 188.807 355.142C187.064 351.752 186.193 347.822 186.193 343.352C186.193 338.845 187.064 334.905 188.807 331.534C190.549 328.144 193.021 325.511 196.222 323.636C199.441 321.742 203.258 320.795 207.67 320.795C212.083 320.795 215.89 321.742 219.091 323.636C222.311 325.511 224.792 328.144 226.534 331.534C228.277 334.905 229.148 338.845 229.148 343.352C229.148 347.822 228.277 351.752 226.534 355.142C224.792 358.513 222.311 361.146 219.091 363.04C215.89 364.915 212.083 365.852 207.67 365.852ZM207.727 356.477C209.735 356.477 211.411 355.909 212.756 354.773C214.1 353.617 215.114 352.045 215.795 350.057C216.496 348.068 216.847 345.805 216.847 343.267C216.847 340.729 216.496 338.466 215.795 336.477C215.114 334.489 214.1 332.917 212.756 331.761C211.411 330.606 209.735 330.028 207.727 330.028C205.701 330.028 203.996 330.606 202.614 331.761C201.25 332.917 200.218 334.489 199.517 336.477C198.835 338.466 198.494 340.729 198.494 343.267C198.494 345.805 198.835 348.068 199.517 350.057C200.218 352.045 201.25 353.617 202.614 354.773C203.996 355.909 205.701 356.477 207.727 356.477ZM409.403 306.818L421.136 326.648H421.591L433.381 306.818H447.273L429.517 335.909L447.67 365H433.523L421.591 345.142H421.136L409.205 365H395.114L413.324 335.909L395.455 306.818H409.403Z" fill="#EC5D1F"/>
</svg>
