<svg width="29" height="30" viewBox="0 0 29 30" fill="none" xmlns="http://www.w3.org/2000/svg">
<path d="M20.4517 10.0647C20.37 10.053 20.2884 10.053 20.2067 10.0647C18.3984 10.0063 16.9634 8.52467 16.9634 6.70467C16.9634 4.84967 18.4684 3.33301 20.335 3.33301C22.19 3.33301 23.7067 4.83801 23.7067 6.70467C23.695 8.52467 22.26 10.0063 20.4517 10.0647Z" fill="white"/>
<path d="M24.255 18.1495C22.9483 19.0245 21.1166 19.3512 19.425 19.1295C19.8683 18.1728 20.1016 17.1112 20.1133 15.9912C20.1133 14.8245 19.8566 13.7162 19.3666 12.7478C21.0933 12.5145 22.925 12.8412 24.2433 13.7162C26.0866 14.9295 26.0866 16.9245 24.255 18.1495Z" fill="white"/>
<path d="M7.51338 10.0647C7.59505 10.053 7.67672 10.053 7.75838 10.0647C9.56672 10.0063 11.0017 8.52467 11.0017 6.70467C11.0017 4.83801 9.49672 3.33301 7.63005 3.33301C5.77505 3.33301 4.27005 4.83801 4.27005 6.70467C4.27005 8.52467 5.70505 10.0063 7.51338 10.0647Z" fill="white"/>
<path d="M7.64165 15.9914C7.64165 17.123 7.88665 18.1964 8.32998 19.1647C6.68498 19.3397 4.96998 18.9897 3.70998 18.1614C1.86665 16.9364 1.86665 14.9414 3.70998 13.7164C4.95832 12.8764 6.71998 12.538 8.37665 12.7247C7.89832 13.7047 7.64165 14.813 7.64165 15.9914Z" fill="white"/>
<path d="M14.1401 19.515C14.0467 19.5033 13.9417 19.5033 13.8367 19.515C11.6901 19.445 9.97507 17.6833 9.97507 15.5133C9.98673 13.2967 11.7717 11.5 14.0001 11.5C16.2167 11.5 18.0134 13.2967 18.0134 15.5133C18.0017 17.6833 16.2984 19.445 14.1401 19.515Z" fill="white"/>
<path d="M10.3484 21.9301C8.58671 23.1084 8.58671 25.0451 10.3484 26.2117C12.355 27.5534 15.645 27.5534 17.6517 26.2117C19.4134 25.0334 19.4134 23.0967 17.6517 21.9301C15.6567 20.5884 12.3667 20.5884 10.3484 21.9301Z" fill="white"/>
</svg>
