<svg width="29" height="30" viewBox="0 0 29 30" fill="none" xmlns="http://www.w3.org/2000/svg">
<path fill-rule="evenodd" clip-rule="evenodd" d="M11.5084 9.1191C11.5084 8.65556 11.886 8.27978 12.3517 8.27978H24.1568C24.6225 8.27978 25 8.65556 25 9.1191C25 9.58265 24.6225 9.95843 24.1568 9.95843H12.3517C11.886 9.95843 11.5084 9.58265 11.5084 9.1191ZM11.5084 14.9944C11.5084 14.5309 11.886 14.1551 12.3517 14.1551H24.1568C24.6225 14.1551 25 14.5309 25 14.9944C25 15.458 24.6225 15.8337 24.1568 15.8337H12.3517C11.886 15.8337 11.5084 15.458 11.5084 14.9944ZM11.5084 20.8697C11.5084 20.4062 11.886 20.0304 12.3517 20.0304H24.1568C24.6225 20.0304 25 20.4062 25 20.8697C25 21.3333 24.6225 21.709 24.1568 21.709H12.3517C11.886 21.709 11.5084 21.3333 11.5084 20.8697Z" fill="#0F172A"/>
<path fill-rule="evenodd" clip-rule="evenodd" d="M7 9.1191C7 8.50104 7.50336 8 8.1243 8H8.13554C8.75647 8 9.25984 8.50104 9.25984 9.1191V9.1303C9.25984 9.74836 8.75647 10.2494 8.13554 10.2494H8.1243C7.50336 10.2494 7 9.74836 7 9.1303V9.1191Z" fill="#0F172A"/>
<path fill-rule="evenodd" clip-rule="evenodd" d="M7 20.8697C7 20.2516 7.50336 19.7506 8.1243 19.7506H8.13554C8.75647 19.7506 9.25984 20.2516 9.25984 20.8697V20.8809C9.25984 21.499 8.75647 22 8.13554 22H8.1243C7.50336 22 7 21.499 7 20.8809V20.8697Z" fill="#0F172A"/>
<path fill-rule="evenodd" clip-rule="evenodd" d="M7 14.9944C7 14.3763 7.50336 13.8753 8.1243 13.8753H8.13554C8.75647 13.8753 9.25984 14.3763 9.25984 14.9944V15.0056C9.25984 15.6237 8.75647 16.1247 8.13554 16.1247H8.1243C7.50336 16.1247 7 15.6237 7 15.0056V14.9944Z" fill="#0F172A"/>
</svg>
