<svg width="26" height="26" viewBox="0 0 26 26" fill="none" xmlns="http://www.w3.org/2000/svg">
<path d="M13.1747 11.7762C13.0664 11.7653 12.9364 11.7653 12.8172 11.7762C10.2389 11.6895 8.19141 9.57699 8.19141 6.97699C8.19141 4.32283 10.3364 2.16699 13.0014 2.16699C15.6556 2.16699 17.8114 4.32283 17.8114 6.97699C17.8006 9.57699 15.7531 11.6895 13.1747 11.7762Z" stroke="black" stroke-width="1.5" stroke-linecap="round" stroke-linejoin="round"/>
<path d="M7.75531 15.773C5.13365 17.528 5.13365 20.388 7.75531 22.1322C10.7345 24.1255 15.6203 24.1255 18.5995 22.1322C21.2211 20.3772 21.2211 17.5172 18.5995 15.773C15.6311 13.7905 10.7453 13.7905 7.75531 15.773Z" stroke="black" stroke-width="1.5" stroke-linecap="round" stroke-linejoin="round"/>
</svg>
