<svg width="41" height="37" viewBox="0 0 41 37" fill="none" xmlns="http://www.w3.org/2000/svg">
<path fill-rule="evenodd" clip-rule="evenodd" d="M41 9.39272H39.1549V2.95974H41V9.39272ZM30.9635 4.9563H32.0613C32.1664 4.95579 32.2691 4.98609 32.3556 5.04312C32.4421 5.10015 32.5082 5.18116 32.5451 5.27524H34.1633V6.9369H32.3082C30.1628 10.6876 27.8872 14.6233 25.3347 17.9435C24.8776 18.5367 24.8276 18.4187 24.6474 19.0597C24.2804 20.3961 24.297 21.506 24.2837 22.9221C24.8843 24.52 26.993 29.3423 26.993 30.2991V36.9968H23.7432V30.2991C23.7432 29.7505 21.7212 27.7476 21.194 26.66C20.6401 26.6792 20.3499 26.6983 19.796 26.7174C19.2288 27.8178 17.2702 29.7633 17.2702 30.3023V37H14.0137V30.2991C14.0137 29.3423 16.1124 24.5231 16.7196 22.9253C16.6863 21.4741 16.7196 20.3546 16.386 19.098C16.2058 18.4187 16.1591 18.5845 15.672 17.953C13.1195 14.6329 10.8472 10.7004 8.70182 6.94966H6.60978V5.2848H8.36149C8.39894 5.19048 8.46569 5.10936 8.55277 5.05235C8.63985 4.99534 8.74309 4.96516 8.84863 4.96586H9.94637C10.0515 4.96536 10.1542 4.99566 10.2407 5.05269C10.3272 5.10972 10.3933 5.19073 10.4302 5.2848H30.4764C30.5138 5.19048 30.5806 5.10936 30.6677 5.05235C30.7548 4.99534 30.858 4.96516 30.9635 4.96586V4.9563ZM22.869 15.0124H22.7589C21.2974 14.6137 19.866 14.5308 18.4647 15.0124H18.131C15.7954 12.6268 13.66 9.74675 11.2143 6.94647H29.7857C27.34 9.74675 25.2179 12.6268 22.869 15.0124ZM20.5 7.69279C21.1521 7.69215 21.7898 7.87643 22.3324 8.22229C22.8749 8.56816 23.298 9.06007 23.548 9.6358C23.798 10.2115 23.8638 10.8452 23.7369 11.4567C23.6101 12.0682 23.2964 12.6299 22.8355 13.0709C22.3746 13.5119 21.7872 13.8124 21.1477 13.9342C20.5081 14.0561 19.8451 13.9938 19.2426 13.7554C18.64 13.517 18.125 13.1132 17.7626 12.5949C17.4002 12.0766 17.2068 11.4673 17.2068 10.8439C17.2064 10.4302 17.2912 10.0205 17.4565 9.63826C17.6218 9.25597 17.8643 8.90857 18.1702 8.61592C18.476 8.32327 18.8392 8.09111 19.239 7.93271C19.6387 7.77431 20.0672 7.69278 20.5 7.69279ZM38.7945 12.2345H35.3278V0H38.7945V12.2345ZM5.63883 12.2345H2.17212V0H5.63883V12.2345ZM1.81177 9.39272H0V2.95974H1.81177V9.39272Z" fill="#333333"/>
</svg>
