<svg width="29" height="30" viewBox="0 0 29 30" fill="none" xmlns="http://www.w3.org/2000/svg">
<path fill-rule="evenodd" clip-rule="evenodd" d="M28 10.8233H27.0549V7.51987H28V10.8233ZM22.8594 8.54513H23.4216C23.4755 8.54486 23.5281 8.56043 23.5724 8.58971C23.6167 8.619 23.6506 8.6606 23.6694 8.7089H24.4983V9.56219H23.5481C22.4492 11.4882 21.2837 13.5093 19.9763 15.2142C19.7422 15.5188 19.7166 15.4582 19.6243 15.7874C19.4363 16.4737 19.4448 17.0436 19.438 17.7708C19.7456 18.5913 20.8257 21.0677 20.8257 21.559V24.9984H19.1611V21.559C19.1611 21.2773 18.1255 20.2488 17.8555 19.6903C17.5718 19.7001 17.4231 19.7099 17.1394 19.7198C16.8489 20.2848 15.8457 21.2839 15.8457 21.5606V25H14.1777V21.559C14.1777 21.0677 15.2527 18.593 15.5637 17.7724C15.5466 17.0272 15.5637 16.4524 15.3928 15.8071C15.3005 15.4582 15.2766 15.5434 15.0271 15.2191C13.7197 13.5142 12.5559 11.4948 11.457 9.56874H10.3855V8.71382H11.2827C11.3019 8.66538 11.3361 8.62373 11.3807 8.59445C11.4253 8.56517 11.4782 8.54968 11.5322 8.55004H12.0945C12.1483 8.54978 12.2009 8.56534 12.2452 8.59462C12.2895 8.62391 12.3234 8.66551 12.3423 8.71382H22.6099C22.629 8.66538 22.6632 8.62373 22.7078 8.59445C22.7524 8.56517 22.8053 8.54968 22.8594 8.55004V8.54513ZM18.7134 13.7091H18.657C17.9084 13.5044 17.1753 13.4618 16.4575 13.7091H16.2866C15.0903 12.484 13.9966 11.0051 12.7439 9.56711H22.2561C21.0034 11.0051 19.9165 12.484 18.7134 13.7091ZM17.5 9.95035C17.834 9.95003 18.1606 10.0447 18.4385 10.2223C18.7164 10.3999 18.9331 10.6525 19.0612 10.9481C19.1892 11.2438 19.2229 11.5692 19.1579 11.8832C19.093 12.1972 18.9323 12.4856 18.6962 12.7121C18.4602 12.9386 18.1593 13.0928 17.8317 13.1554C17.5042 13.218 17.1646 13.186 16.856 13.0636C16.5473 12.9412 16.2835 12.7338 16.0979 12.4676C15.9123 12.2015 15.8132 11.8886 15.8132 11.5685C15.813 11.3561 15.8565 11.1457 15.9411 10.9494C16.0258 10.7531 16.15 10.5747 16.3067 10.4244C16.4633 10.2741 16.6493 10.1549 16.8541 10.0736C17.0589 9.99222 17.2783 9.95035 17.5 9.95035ZM26.8704 12.2826H25.0947V6H26.8704V12.2826ZM9.88818 12.2826H8.11255V6H9.88818V12.2826ZM7.92798 10.8233H7V7.51987H7.92798V10.8233Z" fill="#333333"/>
</svg>
