<svg width="35" height="35" viewBox="0 0 35 35" fill="none" xmlns="http://www.w3.org/2000/svg">
<g clip-path="url(#clip0_2182_4490)">
<path d="M8.20312 18.0469C8.20312 18.6501 8.69367 19.1406 9.29688 19.1406V20.2344C9.29688 20.8376 9.78742 21.3281 10.3906 21.3281H12.5781C13.1813 21.3281 13.6719 20.8376 13.6719 20.2344V19.1406C14.2751 19.1406 14.7656 18.6501 14.7656 18.0469V16.9531H15.8594V15.8594H14.7656V14.7656C14.7656 14.1624 14.2751 13.6719 13.6719 13.6719H9.29688C8.69367 13.6719 8.20312 14.1624 8.20312 14.7656V15.8594H7.10938V16.9531H8.20312V18.0469ZM12.5781 20.2344H10.3906V19.1406H12.5781V20.2344ZM9.29688 14.7656H13.6719L13.673 18.0469H9.29688V14.7656Z" fill="#F9B432"/>
<path d="M31.5723 31.6865C31.4104 31.4195 31.1935 31.1901 30.9359 31.0137C30.6784 30.8373 30.3861 30.7178 30.0787 30.6633V22.1348C31.9873 21.4572 33.36 19.6383 33.36 17.5V15.8594C33.36 15.2562 32.8694 14.7656 32.2662 14.7656H24.61V13.6719H23.5162V14.7656H22.4225V10.3906C22.4225 9.78742 22.913 9.29688 23.5162 9.29688C24.1194 9.29688 24.61 9.78742 24.61 10.3906V11.4844H25.7037V10.3906C25.7037 9.18422 24.7226 8.20312 23.5162 8.20312C22.3098 8.20312 21.3287 9.18422 21.3287 10.3906V14.7656H19.1412C18.538 14.7656 18.0475 15.2562 18.0475 15.8594V17.5C18.0475 19.6383 19.4201 21.4572 21.3287 22.1348V30.6633C21.0214 30.7179 20.7292 30.8374 20.4716 31.0138C20.2141 31.1903 19.9971 31.4196 19.8352 31.6865L18.8317 33.3594H11.3767L10.6067 29.8949L12.6203 29.7691C15.0506 29.6171 16.9537 27.5909 16.9537 25.1562C16.9537 24.2517 16.2176 23.5156 15.3131 23.5156H6.47069L4.40077 12.3812C4.35284 12.1282 4.2178 11.8999 4.01909 11.7361C3.82039 11.5723 3.57057 11.4832 3.31303 11.4844H1.65327C1.49022 11.4841 1.3291 11.5197 1.18137 11.5887C1.03364 11.6577 0.902919 11.7584 0.798503 11.8836C0.696435 12.006 0.622593 12.1494 0.582232 12.3035C0.541871 12.4577 0.535983 12.6188 0.564988 12.7755L2.67264 24.1123V33.3594H0.547488V34.4531H33.9069V33.3594H32.5758L31.5723 31.6865ZM19.1412 17.5V15.8594H32.2662V17.5C32.2662 19.6104 30.5485 21.3281 28.4381 21.3281H22.9694C20.859 21.3281 19.1412 19.6104 19.1412 17.5ZM22.9694 22.4219H28.4381C28.623 22.4219 28.8051 22.4098 28.985 22.3896V30.625H22.4225V22.3896C22.6024 22.4098 22.7845 22.4219 22.9694 22.4219ZM20.7726 32.2498C20.8702 32.0882 21.0077 31.9545 21.172 31.8615C21.3363 31.7685 21.5217 31.7193 21.7105 31.7188H29.697C30.0787 31.7188 30.438 31.9222 30.6349 32.2498L31.3005 33.3594H20.107L20.7726 32.2498ZM15.86 25.1562C15.86 25.3422 15.8414 25.5243 15.8135 25.7031H3.76749V24.6094H15.3131C15.4582 24.6094 15.5973 24.667 15.6998 24.7696C15.8024 24.8721 15.86 25.0112 15.86 25.1562ZM1.65327 12.5781L3.32507 12.5803L5.35835 23.5156H3.66686L1.65327 12.5781ZM3.76749 26.7969H15.4526C15.1707 27.3326 14.7559 27.7868 14.248 28.1161C13.7401 28.4453 13.156 28.6385 12.5519 28.677L7.62241 28.9849L7.69077 30.0765L9.50147 29.9633L10.2562 33.3594H3.76749V26.7969Z" fill="#F9B432"/>
<path d="M33.3594 0.546875H18.0469C17.4437 0.546875 16.9531 1.03742 16.9531 1.64062V10.3906C16.9531 10.9938 17.4437 11.4844 18.0469 11.4844H20.2344V10.3906H18.0469V1.64062H33.3594V10.3906H26.7969V11.4844H33.3594C33.9626 11.4844 34.4531 10.9938 34.4531 10.3906V1.64062C34.4531 1.03742 33.9626 0.546875 33.3594 0.546875Z" fill="#F9B432"/>
<path d="M20.9375 5.85813L21.7108 5.08484L23.3514 6.72547L22.5781 7.49875L20.9375 5.85813ZM23.1255 3.67172L23.8988 2.89844L28.2727 7.27234L27.4995 8.04563L23.1255 3.67172ZM26.9531 3.67172L27.7264 2.89844L30.4608 5.63281L29.687 6.40555L26.9531 3.67172Z" fill="#F9B432"/>
</g>
<defs>
<clipPath id="clip0_2182_4490">
<rect width="35" height="35" fill="white"/>
</clipPath>
</defs>
</svg>
