<svg width="40" height="28" viewBox="0 0 40 28" fill="none" xmlns="http://www.w3.org/2000/svg">
<path d="M40.0046 22.348V10.1158C40.0046 9.99841 39.9582 9.8858 39.8756 9.80278C39.7931 9.71975 39.6812 9.67311 39.5644 9.67311H34.2345V6.17215H36.1496C36.2154 6.17213 36.2803 6.15727 36.3397 6.12868C36.399 6.10008 36.4512 6.05847 36.4924 6.00691C36.5336 5.95536 36.5629 5.89516 36.5779 5.83074C36.593 5.76633 36.5935 5.69935 36.5794 5.63471L35.5922 1.1054C35.5225 0.792819 35.3495 0.513257 35.1014 0.312453C34.8533 0.111649 34.5447 0.00149048 34.2263 0H31.5105C31.192 0.00152975 30.8835 0.111687 30.6354 0.312458C30.3873 0.51323 30.2143 0.792737 30.1446 1.10528L29.1573 5.63471C29.1433 5.69935 29.1438 5.76633 29.1588 5.83074C29.1739 5.89516 29.2031 5.95536 29.2443 6.00691C29.2856 6.05847 29.3377 6.10008 29.3971 6.12868C29.4564 6.15727 29.5213 6.17213 29.5871 6.17215H31.5024V9.67311H28.5651C28.4484 9.67311 28.3365 9.71975 28.2539 9.80278C28.1714 9.8858 28.125 9.99841 28.125 10.1158C28.125 10.2332 28.1714 10.3459 28.2539 10.4289C28.3365 10.5119 28.4484 10.5585 28.5651 10.5585H39.1243V14.3455H32.8686C32.7518 14.3455 32.6399 14.3921 32.5573 14.4751C32.4748 14.5581 32.4284 14.6708 32.4284 14.7882C32.4284 14.9056 32.4748 15.0182 32.5573 15.1012C32.6399 15.1842 32.7518 15.2309 32.8686 15.2309H39.1243V19.0178H33.6993C33.6409 19.0168 33.5828 19.0275 33.5286 19.0493C33.4743 19.0711 33.4249 19.1036 33.3832 19.1448C33.3416 19.186 33.3085 19.2351 33.2859 19.2893C33.2633 19.3435 33.2517 19.4017 33.2517 19.4605C33.2517 19.5192 33.2633 19.5774 33.2859 19.6316C33.3085 19.6858 33.3416 19.7349 33.3832 19.7761C33.4249 19.8174 33.4743 19.8498 33.5286 19.8716C33.5828 19.8934 33.6409 19.9041 33.6993 19.9031H35.8806C35.9166 19.925 35.9555 19.9415 35.9962 19.9521C37.8897 20.4181 37.7442 22.228 37.7374 22.3027C37.7311 22.3644 37.7377 22.4266 37.7568 22.4855C37.7759 22.5444 37.8071 22.5986 37.8484 22.6446C37.8896 22.6906 37.9401 22.7274 37.9963 22.7526C38.0526 22.7777 38.1135 22.7907 38.1751 22.7907H39.5642C39.622 22.7907 39.6793 22.7793 39.7327 22.7571C39.7861 22.7349 39.8347 22.7022 39.8756 22.6611C39.9165 22.62 39.9489 22.5712 39.971 22.5175C39.9932 22.4637 40.0046 22.4062 40.0046 22.348ZM31.0046 1.29498C31.0304 1.17924 31.0944 1.07571 31.1863 1.0013C31.2781 0.926898 31.3923 0.88601 31.5102 0.885315H34.2263C34.3442 0.88601 34.4584 0.926898 34.5502 1.0013C34.642 1.07571 34.7061 1.17924 34.7319 1.29498L35.6018 5.28671H30.1343L31.0046 1.29498ZM32.3824 6.17215H33.3541V9.67311H32.3824V6.17215ZM38.6173 21.9053C38.568 21.1507 38.249 20.4396 37.7192 19.9031H39.1243V21.9053H38.6173Z" fill="#F9B432"/>
<path d="M0.439633 27.9986H2.23457C2.34339 27.9984 2.44831 27.9578 2.52913 27.8845C2.60995 27.8112 2.66094 27.7104 2.6723 27.6015C2.68596 27.4712 3.03673 24.4028 5.6859 23.7934C5.70031 23.7901 5.7132 23.7841 5.72685 23.7795H26.3936C26.4063 23.7834 26.4173 23.7889 26.43 23.7922C29.0854 24.3982 29.4368 27.4714 29.4503 27.6011C29.4613 27.7102 29.5122 27.8113 29.5931 27.8849C29.674 27.9584 29.7792 27.9991 29.8882 27.9991H31.6831C31.7409 27.9991 31.7982 27.9877 31.8516 27.9654C31.905 27.9432 31.9535 27.9106 31.9943 27.8695C32.0352 27.8284 32.0676 27.7796 32.0898 27.7259C32.1119 27.6722 32.1233 27.6146 32.1233 27.5565V17.8464C32.1223 16.9543 31.7928 16.0943 31.1985 15.4321C29.7393 13.799 27.7382 12.4847 26.7146 11.8674C26.8768 11.7139 27.0062 11.5286 27.0946 11.3229C27.183 11.1173 27.2287 10.8956 27.2288 10.6716C27.2287 10.2671 27.1451 9.867 26.9833 9.49671C26.8214 9.12643 26.5849 8.794 26.2886 8.52051V6.0666C26.2879 5.40373 26.0257 4.76823 25.5598 4.29951C25.0938 3.8308 24.462 3.56715 23.803 3.56641H8.32003C7.66105 3.56718 7.02929 3.83084 6.56334 4.29956C6.09738 4.76827 5.83529 5.40375 5.83455 6.0666V8.52051C5.53828 8.794 5.30173 9.12643 5.1399 9.49671C4.97808 9.867 4.8945 10.2671 4.89448 10.6716C4.89457 10.8956 4.94023 11.1173 5.02866 11.3229C5.11709 11.5286 5.24642 11.7139 5.4087 11.8674C4.38482 12.4847 2.38398 13.799 0.924771 15.4321C0.330481 16.0943 0.00103749 16.9543 1.82296e-08 17.8464V27.5559C-3.35369e-05 27.6732 0.0462578 27.7857 0.128698 27.8688C0.211138 27.9518 0.322978 27.9985 0.439633 27.9986ZM31.2435 22.8941H0.879771V20.0291H31.2435V22.8941ZM1.86003 27.1133H0.879771V23.7795H3.72677C2.45097 24.8104 2.00426 26.3801 1.86003 27.1133ZM30.263 27.1133C30.1189 26.3801 29.6722 24.8104 28.3964 23.7795H31.2432V27.1133H30.263ZM25.5906 11.4346H16.5022V10.7979C16.4928 10.1881 16.7171 9.59802 17.1284 9.14992C17.5398 8.70181 18.1067 8.43002 18.7118 8.39082C18.7581 8.3884 18.805 8.38713 18.8528 8.38713H22.6897C22.7044 8.38637 24.1308 8.33271 25.2305 8.85846C25.5676 9.02431 25.8514 9.28243 26.0493 9.60318C26.2473 9.92393 26.3513 10.2943 26.3494 10.6718C26.3491 10.8741 26.269 11.068 26.1268 11.211C25.9845 11.354 25.7917 11.4344 25.5906 11.4346ZM8.32003 4.45236H23.8035C24.2291 4.45283 24.6372 4.6231 24.9381 4.92583C25.2391 5.22855 25.4084 5.63899 25.4088 6.06711V7.96997C24.1953 7.46253 22.8073 7.49686 22.6624 7.50182H18.8524C18.7895 7.50182 18.7278 7.50338 18.6673 7.50652C18.1325 7.53501 17.6135 7.69853 17.1581 7.98199C16.7027 8.26544 16.3256 8.6597 16.0616 9.12839C15.7977 8.65973 15.4207 8.26549 14.9654 7.98203C14.51 7.69858 13.9911 7.53504 13.4563 7.50652C13.3956 7.5033 13.3338 7.50173 13.2709 7.50182H9.46095C9.31634 7.49686 7.92805 7.4624 6.71445 7.96997V6.06711C6.71492 5.63895 6.88423 5.22847 7.18524 4.92574C7.48625 4.62301 7.89437 4.45276 8.32003 4.45236ZM6.89331 8.85821C7.80418 8.4226 8.94939 8.38522 9.31571 8.38522C9.38953 8.38522 9.43163 8.38675 9.43403 8.38688H13.2709C13.3187 8.38688 13.3657 8.38811 13.4121 8.39056C14.0171 8.42979 14.584 8.70161 14.9953 9.14971C15.4066 9.59782 15.6308 10.1879 15.6215 10.7977V11.4343H6.53306C6.33199 11.434 6.13924 11.3536 5.99707 11.2106C5.85489 11.0676 5.7749 10.8737 5.77463 10.6714C5.77276 10.294 5.87672 9.92363 6.07459 9.60291C6.27246 9.28218 6.55622 9.02408 6.89331 8.85821ZM1.57891 16.024C3.29522 14.1031 5.90445 12.5911 6.39983 12.3131C6.44382 12.3167 6.48831 12.3199 6.5328 12.3199H25.5906C25.6355 12.3199 25.6791 12.3167 25.7236 12.3131C26.2189 12.5912 28.8282 14.1031 30.5444 16.024C30.9933 16.5237 31.2424 17.1729 31.2435 17.8464V19.1433H0.879771V17.8464C0.880991 17.1729 1.13004 16.5237 1.57891 16.024Z" fill="#F9B432"/>
<path d="M33.9323 12.7878C34.1754 12.7878 34.3725 12.5896 34.3725 12.3451C34.3725 12.1006 34.1754 11.9023 33.9323 11.9023C33.6892 11.9023 33.4922 12.1006 33.4922 12.3451C33.4922 12.5896 33.6892 12.7878 33.9323 12.7878Z" fill="#F9B432"/>
<path d="M33.9323 17.6706C34.1754 17.6706 34.3725 17.4724 34.3725 17.2279C34.3725 16.9834 34.1754 16.7852 33.9323 16.7852C33.6892 16.7852 33.4922 16.9834 33.4922 17.2279C33.4922 17.4724 33.6892 17.6706 33.9323 17.6706Z" fill="#F9B432"/>
</svg>
