<svg width="28" height="28" viewBox="0 0 28 28" fill="none" xmlns="http://www.w3.org/2000/svg">
<g clip-path="url(#clip0_51_1933)">
<g clip-path="url(#clip1_51_1933)">
<g clip-path="url(#clip2_51_1933)">
<path d="M2.8 2.8H25.2V19.6H4.438L2.8 21.238V2.8ZM2.8 0C1.26 0 0.0140001 1.26 0.0140001 2.8L0 28L5.6 22.4H25.2C26.74 22.4 28 21.14 28 19.6V2.8C28 1.26 26.74 0 25.2 0H2.8ZM5.6 14H22.4V16.8H5.6V14ZM5.6 9.8H22.4V12.6H5.6V9.8ZM5.6 5.6H22.4V8.4H5.6V5.6Z" fill="#F30051"/>
</g>
</g>
</g>
<defs>
<clipPath id="clip0_51_1933">
<rect width="28" height="28" fill="white"/>
</clipPath>
<clipPath id="clip1_51_1933">
<rect width="28" height="28" fill="white"/>
</clipPath>
<clipPath id="clip2_51_1933">
<rect width="28" height="28" fill="white"/>
</clipPath>
</defs>
</svg>
