<svg width="24" height="24" viewBox="0 0 24 24" fill="none" xmlns="http://www.w3.org/2000/svg">
<rect width="24" height="24" rx="12" fill="#F30051"/>
<g clip-path="url(#clip0_2182_4574)">
<path d="M11.5639 18.5661C11.5244 18.5661 11.4852 18.558 11.449 18.5423C11.4128 18.5267 11.3802 18.5038 11.3534 18.4751L5.67772 12.4147C5.63989 12.3743 5.61481 12.3238 5.60555 12.2696C5.59629 12.2153 5.60325 12.1596 5.62559 12.1092C5.64792 12.0588 5.68466 12.0159 5.73131 11.9858C5.77796 11.9556 5.83249 11.9396 5.88823 11.9396H8.62018C8.6612 11.9396 8.70174 11.9483 8.73907 11.9651C8.77639 11.9819 8.80964 12.0064 8.83656 12.0369L10.7334 14.1911C10.9384 13.7585 11.3352 13.0383 12.0316 12.1606C13.0611 10.8632 14.976 8.95499 18.2522 7.23243C18.3155 7.19914 18.3891 7.1905 18.4586 7.20821C18.5281 7.22593 18.5883 7.26871 18.6273 7.32811C18.6664 7.3875 18.6815 7.4592 18.6696 7.52904C18.6577 7.59889 18.6198 7.66179 18.5632 7.70535C18.5507 7.71499 17.2875 8.69694 15.8338 10.4955C14.4958 12.1507 12.7173 14.8571 11.8421 18.3511C11.8267 18.4125 11.791 18.467 11.7405 18.506C11.6901 18.545 11.6279 18.5662 11.5638 18.5662L11.5639 18.5661Z" fill="white"/>
</g>
<defs>
<clipPath id="clip0_2182_4574">
<rect width="14.384" height="14.384" fill="white" transform="translate(4.64062 4.17578)"/>
</clipPath>
</defs>
</svg>
