<svg width="43" height="43" viewBox="0 0 43 43" fill="none" xmlns="http://www.w3.org/2000/svg">
<path d="M20.706 32.7992H22.1607C22.2747 32.7992 22.3841 32.7539 22.4647 32.6733C22.5454 32.5926 22.5907 32.4833 22.5907 32.3692C22.5907 32.2552 22.5454 32.1458 22.4647 32.0652C22.3841 31.9845 22.2747 31.9392 22.1607 31.9392H20.706C20.5919 31.9392 20.4826 31.9845 20.4019 32.0652C20.3213 32.1458 20.276 32.2552 20.276 32.3692C20.276 32.4833 20.3213 32.5926 20.4019 32.6733C20.4826 32.7539 20.5919 32.7992 20.706 32.7992ZM32.5933 31.9392H31.1386C31.0246 31.9392 30.9152 31.9845 30.8346 32.0652C30.7539 32.1458 30.7086 32.2552 30.7086 32.3692C30.7086 32.4833 30.7539 32.5926 30.8346 32.6733C30.9152 32.7539 31.0246 32.7992 31.1386 32.7992H32.5933C32.7074 32.7992 32.8167 32.7539 32.8974 32.6733C32.978 32.5926 33.0233 32.4833 33.0233 32.3692C33.0233 32.2552 32.978 32.1458 32.8974 32.0652C32.8167 31.9845 32.7074 31.9392 32.5933 31.9392ZM11.728 31.9392H10.2738C10.1597 31.9392 10.0503 31.9845 9.96969 32.0652C9.88905 32.1458 9.84375 32.2552 9.84375 32.3692C9.84375 32.4833 9.88905 32.5926 9.96969 32.6733C10.0503 32.7539 10.1597 32.7992 10.2738 32.7992H11.728C11.8421 32.7992 11.9514 32.7539 12.0321 32.6733C12.1127 32.5926 12.158 32.4833 12.158 32.3692C12.158 32.2552 12.1127 32.1458 12.0321 32.0652C11.9514 31.9845 11.8421 31.9392 11.728 31.9392ZM22.1607 26.0078H20.706C20.5919 26.0078 20.4826 26.0531 20.4019 26.1338C20.3213 26.2144 20.276 26.3238 20.276 26.4378C20.276 26.5519 20.3213 26.6612 20.4019 26.7419C20.4826 26.8225 20.5919 26.8678 20.706 26.8678H22.1607C22.2747 26.8678 22.3841 26.8225 22.4647 26.7419C22.5454 26.6612 22.5907 26.5519 22.5907 26.4378C22.5907 26.3238 22.5454 26.2144 22.4647 26.1338C22.3841 26.0531 22.2747 26.0078 22.1607 26.0078ZM31.1386 26.8678H32.5933C32.7074 26.8678 32.8167 26.8225 32.8974 26.7419C32.978 26.6612 33.0233 26.5519 33.0233 26.4378C33.0233 26.3238 32.978 26.2144 32.8974 26.1338C32.8167 26.0531 32.7074 26.0078 32.5933 26.0078H31.1386C31.0246 26.0078 30.9152 26.0531 30.8346 26.1338C30.7539 26.2144 30.7086 26.3238 30.7086 26.4378C30.7086 26.5519 30.7539 26.6612 30.8346 26.7419C30.9152 26.8225 31.0246 26.8678 31.1386 26.8678ZM10.2738 26.8678H11.728C11.8421 26.8678 11.9514 26.8225 12.0321 26.7419C12.1127 26.6612 12.158 26.5519 12.158 26.4378C12.158 26.3238 12.1127 26.2144 12.0321 26.1338C11.9514 26.0531 11.8421 26.0078 11.728 26.0078H10.2738C10.1597 26.0078 10.0503 26.0531 9.96969 26.1338C9.88905 26.2144 9.84375 26.3238 9.84375 26.4378C9.84375 26.5519 9.88905 26.6612 9.96969 26.7419C10.0503 26.8225 10.1597 26.8678 10.2738 26.8678Z" fill="#F9B432"/>
<path d="M4.72688 23.883H5.46604V35.1855C5.46604 35.2996 5.51135 35.4089 5.59199 35.4896C5.67263 35.5702 5.782 35.6155 5.89604 35.6155H7.01748L7.43029 38.3353C7.44571 38.4369 7.49704 38.5297 7.57498 38.5967C7.65292 38.6638 7.75231 38.7007 7.85512 38.7008H10.9709C11.0737 38.7007 11.1731 38.6638 11.251 38.5967C11.329 38.5297 11.3803 38.4369 11.3957 38.3353L11.8085 35.6155H31.1955L31.6083 38.3353C31.6238 38.437 31.6752 38.5298 31.7532 38.5969C31.8312 38.664 31.9307 38.7008 32.0336 38.7008H35.1494C35.2522 38.7007 35.3516 38.6638 35.4295 38.5967C35.5075 38.5297 35.5588 38.4369 35.5742 38.3353L35.987 35.6155H36.9833C37.0974 35.6155 37.2067 35.5702 37.2874 35.4896C37.368 35.4089 37.4133 35.2996 37.4133 35.1855V23.883H38.2669C38.3809 23.883 38.4903 23.8377 38.5709 23.757C38.6516 23.6764 38.6969 23.567 38.6969 23.453V20.4804C38.6969 20.3663 38.6516 20.257 38.5709 20.1763C38.4903 20.0957 38.3809 20.0504 38.2669 20.0504H36.4071C36.6541 19.746 36.8031 19.3739 36.8345 18.9831L37.2289 13.8261C37.2335 13.7671 37.2258 13.7077 37.2064 13.6517C37.1869 13.5957 37.1561 13.5444 37.1158 13.5009C37.0755 13.4575 37.0267 13.4228 36.9724 13.3992C36.918 13.3755 36.8594 13.3633 36.8001 13.3635H32.2705C32.2113 13.3635 32.1527 13.3757 32.0985 13.3994C32.0442 13.4231 31.9954 13.4578 31.9552 13.5012C31.9149 13.5446 31.8841 13.5959 31.8646 13.6518C31.8451 13.7078 31.8373 13.7671 31.8418 13.8261L32.2357 18.9831C32.2662 19.3873 32.4245 19.7528 32.6627 20.0504H30.477C30.6533 19.8014 30.7694 19.506 30.7939 19.1839L31.1323 14.7588C31.1368 14.6998 31.1291 14.6404 31.1096 14.5845C31.0901 14.5286 31.0592 14.4773 31.019 14.4339C30.9787 14.3904 30.9299 14.3558 30.8757 14.3321C30.8214 14.3084 30.7628 14.2961 30.7036 14.2961H26.8168C26.7576 14.2961 26.699 14.3084 26.6448 14.3321C26.5905 14.3558 26.5417 14.3904 26.5015 14.4339C26.4612 14.4773 26.4304 14.5286 26.4109 14.5845C26.3914 14.6404 26.3836 14.6998 26.3881 14.7588L26.7261 19.1839C26.7512 19.4962 26.8609 19.7958 27.0434 20.0504H13.8515V19.4299C13.8508 19.0649 13.7072 18.7147 13.4514 18.4543C13.1957 18.1939 12.8481 18.044 12.4832 18.0367L13.0723 14.4045C13.1067 13.9169 12.9476 13.4456 12.6359 13.1102C12.3723 12.8281 12.0274 12.6729 11.6632 12.6729H11.4284V11.861H16.0544C16.1139 11.8611 16.1728 11.8489 16.2273 11.825C16.2819 11.8011 16.3308 11.7661 16.3711 11.7223C16.4114 11.6784 16.4421 11.6267 16.4613 11.5703C16.4805 11.514 16.4878 11.4542 16.4826 11.3949L15.9103 4.6938C15.901 4.58643 15.8518 4.48646 15.7723 4.41367C15.6929 4.34089 15.5889 4.3006 15.4812 4.30078H6.51438C6.4067 4.30082 6.30294 4.34127 6.22364 4.41412C6.14434 4.48698 6.09526 4.58693 6.08611 4.69423L5.51421 11.3954C5.50901 11.4546 5.51622 11.5144 5.53537 11.5707C5.55452 11.6271 5.5852 11.6788 5.62545 11.7227C5.66569 11.7665 5.71463 11.8015 5.76914 11.8254C5.82365 11.8493 5.88254 11.8616 5.94206 11.8615H10.568V12.6733H10.3332C9.96901 12.6733 9.62371 12.8285 9.36055 13.1106C9.0488 13.446 8.88971 13.9173 8.9284 14.4436L9.51321 18.0371C9.14829 18.0444 8.80075 18.1943 8.54501 18.4547C8.28927 18.7152 8.14566 19.0653 8.14494 19.4303V20.0508H4.72688C4.61283 20.0508 4.50346 20.0961 4.42282 20.1768C4.34218 20.2574 4.29688 20.3668 4.29688 20.4808V23.4534C4.29688 23.5675 4.34218 23.6768 4.42282 23.7575C4.50346 23.8381 4.61283 23.883 4.72688 23.883ZM36.3362 14.2239L35.9771 18.9182C35.9548 19.1941 35.8298 19.4516 35.6268 19.6398C35.4237 19.8279 35.1574 19.933 34.8806 19.9343H34.1896C33.9128 19.933 33.6465 19.8279 33.4435 19.6398C33.2404 19.4516 33.1154 19.1941 33.0931 18.9182L32.7345 14.2239H36.3362ZM30.2396 15.1566L29.9365 19.119C29.9187 19.3404 29.8184 19.5471 29.6555 19.6981C29.4925 19.8491 29.2788 19.9334 29.0567 19.9343H28.4637C28.2415 19.9333 28.0278 19.8489 27.8648 19.6979C27.7018 19.5468 27.6014 19.3401 27.5835 19.1186L27.2808 15.1566H30.2396ZM6.90913 5.16078H15.0869L15.5857 11.0015H6.41033L6.90913 5.16078ZM15.7478 23.883V29.0043H6.32605V23.883H15.7478ZM16.6078 29.0043V23.883H26.3868V29.0043H16.6078ZM26.3868 29.8643V34.7555H16.6078V29.8643H26.3868ZM6.32605 29.8643H15.7473V34.7555H6.32648L6.32605 29.8643ZM10.6007 37.8408H8.2245L7.88651 35.6155H10.9387L10.6007 37.8408ZM34.7796 37.8408H32.4025L32.0646 35.6155H35.1176L34.7796 37.8408ZM27.2464 34.7555V29.8643H36.5529V34.7555H27.2464ZM36.5533 29.0043H27.2468V23.883H36.5533V29.0043ZM9.99008 13.6971C10.0597 13.6223 10.1758 13.5333 10.3332 13.5333H11.6628C11.8202 13.5333 11.9363 13.6223 12.0059 13.6967C12.1534 13.8558 12.2317 14.0975 12.2188 14.3056L11.612 18.0341H10.384L9.78152 14.3443C9.76432 14.0975 9.84215 13.8558 9.99008 13.6971ZM9.00538 19.4303C9.00538 19.1349 9.24574 18.8941 9.54115 18.8941H12.4548C12.7502 18.8941 12.991 19.1349 12.991 19.4303V20.0508H9.00494L9.00538 19.4303ZM5.15688 20.9108H37.8369V23.0234H5.15688V20.9108Z" fill="#F9B432"/>
</svg>
