<svg width="34" height="34" viewBox="0 0 34 34" fill="none" xmlns="http://www.w3.org/2000/svg">
<g clip-path="url(#clip0_2182_4475)">
<path d="M33.6181 5.69764L17.1847 0.0309735C17.065 -0.0103245 16.935 -0.0103245 16.8153 0.0309735L0.381933 5.69764C0.270469 5.73607 0.173769 5.80831 0.105307 5.9043C0.0368454 6.00028 3.30944e-05 6.11524 0 6.23314L0 33.4331C0 33.5834 0.0597022 33.7276 0.165973 33.8338C0.272243 33.9401 0.416377 33.9998 0.566667 33.9998H3.4C3.55029 33.9998 3.69442 33.9401 3.80069 33.8338C3.90696 33.7276 3.96667 33.5834 3.96667 33.4331V15.8665H30.0333V33.4331C30.0333 33.5834 30.093 33.7276 30.1993 33.8338C30.3056 33.9401 30.4497 33.9998 30.6 33.9998H33.4333C33.5836 33.9998 33.7278 33.9401 33.834 33.8338C33.9403 33.7276 34 33.5834 34 33.4331V6.23314C34 6.11524 33.9632 6.00028 33.8947 5.9043C33.8262 5.80831 33.7295 5.73607 33.6181 5.69764ZM2.83333 15.2998V32.8665H1.13333V11.3331H2.83333V15.2998ZM30.0333 14.7331H3.96667V13.5998H30.0333V14.7331ZM30.0333 12.4665H3.96667V11.3331H30.0333V12.4665ZM32.8667 32.8665H31.1667V11.3331H32.8667V32.8665ZM32.8667 10.1998H1.13333V6.63717L17 1.16601L32.8667 6.63717V10.1998Z" fill="#F9B432"/>
<path d="M28.0174 24.4226L25.9207 23.3742L24.0507 19.6342C23.9097 19.3521 23.6926 19.115 23.4239 18.9498C23.1553 18.7846 22.8457 18.6978 22.5303 18.6992H11.4645C11.1486 18.6982 10.8387 18.7857 10.57 18.9517C10.3013 19.1178 10.0845 19.3558 9.9441 19.6388L8.0741 23.3788L5.97743 24.4271C5.88349 24.474 5.80444 24.5462 5.74911 24.6354C5.69377 24.7247 5.66433 24.8276 5.66406 24.9326V32.8659C5.66406 33.4919 6.17144 33.9992 6.7974 33.9992H9.06406C9.69002 33.9992 10.1974 33.4919 10.1974 32.8659V31.1659H23.7974V32.8659C23.7974 33.4919 24.3048 33.9992 24.9307 33.9992H27.1974C27.8234 33.9992 28.3307 33.4919 28.3307 32.8659V24.9326C28.3313 24.8268 28.3023 24.7229 28.2469 24.6328C28.1915 24.5427 28.112 24.4699 28.0174 24.4226ZM10.9579 20.1459C11.0046 20.0516 11.0768 19.9722 11.1663 19.9168C11.2559 19.8614 11.3592 19.8322 11.4645 19.8326H22.5303C22.6356 19.8322 22.7389 19.8614 22.8285 19.9168C22.918 19.9722 22.9902 20.0516 23.0369 20.1459L24.5805 23.2326H9.41426L10.9579 20.1459ZM9.06406 32.8659H6.7974V31.1659H9.06406V32.8659ZM27.1974 32.8659H24.9307V31.1659H27.1974V32.8659ZM27.1974 30.0326H6.7974V25.2828L8.63113 24.3659H25.3637L27.1974 25.2828V30.0326Z" fill="#F9B432"/>
<path d="M10.7708 25.5H9.07083C8.44488 25.5 7.9375 26.0074 7.9375 26.6333V27.7667C7.9375 28.3926 8.44488 28.9 9.07083 28.9H10.7708C11.3968 28.9 11.9042 28.3926 11.9042 27.7667V26.6333C11.9042 26.0074 11.3968 25.5 10.7708 25.5ZM10.7708 27.7667H9.07083V26.6333H10.7708V27.7667ZM24.9375 25.5H23.2375C22.6115 25.5 22.1042 26.0074 22.1042 26.6333V27.7667C22.1042 28.3926 22.6115 28.9 23.2375 28.9H24.9375C25.5635 28.9 26.0708 28.3926 26.0708 27.7667V26.6333C26.0708 26.0074 25.5635 25.5 24.9375 25.5ZM24.9375 27.7667H23.2375V26.6333H24.9375V27.7667ZM19.8375 25.5H14.1708C13.5449 25.5 13.0375 26.0074 13.0375 26.6333V27.7667C13.0375 28.3926 13.5449 28.9 14.1708 28.9H19.8375C20.4635 28.9 20.9708 28.3926 20.9708 27.7667V26.6333C20.9708 26.0074 20.4635 25.5 19.8375 25.5ZM19.8375 27.7667H14.1708V26.6333H19.8375V27.7667Z" fill="#F9B432"/>
</g>
<defs>
<clipPath id="clip0_2182_4475">
<rect width="34" height="34" fill="white"/>
</clipPath>
</defs>
</svg>
