<svg width="24" height="24" viewBox="0 0 24 24" fill="none" xmlns="http://www.w3.org/2000/svg">
<path d="M12.2733 1.78125C14.5364 1.78125 17.6634 2.07891 18.6666 2.27953C18.6698 2.28 18.6731 2.28094 18.6764 2.28141C20.0437 2.54672 21.4463 3.88594 21.7448 5.20969C22.0645 6.75422 22.215 8.29359 22.2183 10.0538C22.215 11.8134 22.0645 13.3533 21.7448 14.8978C21.4463 16.2211 20.0437 17.5608 18.6764 17.8261C18.6731 17.8266 18.6698 17.8275 18.6666 17.828C18.0666 17.948 16.8056 18.0905 15.4533 18.1912C15.1769 18.2119 14.9092 18.2967 14.6713 18.4389C14.4334 18.5811 14.2321 18.7769 14.0831 19.0106C13.9214 19.2642 13.7489 19.5305 13.5698 19.8019C12.975 20.7028 12.4477 21.4519 12 22.0331C11.5523 21.4519 11.025 20.7028 10.4302 19.8019C10.2511 19.5305 10.0781 19.2642 9.91687 19.0106C9.76799 18.7769 9.56661 18.5811 9.32875 18.4388C9.09088 18.2966 8.82311 18.2118 8.54672 18.1912C7.19484 18.0905 5.93344 17.948 5.33344 17.828C5.33016 17.8275 5.32688 17.8266 5.32359 17.8261C3.95625 17.5608 2.55375 16.2216 2.25516 14.8978C1.93547 13.3533 1.785 11.8139 1.78172 10.0538C1.785 8.29359 1.93547 6.75422 2.25516 5.20969C2.55375 3.88641 3.95625 2.54719 5.32359 2.28188C5.32688 2.28141 5.33016 2.28047 5.33344 2.28C6.33703 2.07938 9.46359 1.78172 11.7267 1.78172C11.813 1.78172 11.8973 1.78172 11.9803 1.78313H12.0197C12.1027 1.78219 12.187 1.78172 12.2733 1.78172M11.7267 0C9.43547 0 6.18094 0.293437 4.98422 0.5325C2.94047 0.929062 0.964687 2.79609 0.513281 4.83422C0.256406 6.07172 0.00375 7.75547 0 10.0538C0.00375 12.352 0.256406 14.0353 0.513281 15.2728C0.964687 17.3109 2.94047 19.178 4.98422 19.5745C5.65641 19.7091 6.97875 19.8605 8.41406 19.9673C8.57672 20.2228 8.75297 20.4947 8.94375 20.783C9.70547 21.9366 10.2886 22.7405 10.7302 23.3006C11.0977 23.7666 11.5491 23.9995 12 23.9995C12.4509 23.9995 12.9023 23.7666 13.2698 23.3006C13.7114 22.7405 14.2941 21.9366 15.0563 20.783C15.247 20.4942 15.4228 20.2228 15.5859 19.9673C17.0217 19.8605 18.3436 19.7091 19.0163 19.5745C21.06 19.178 23.0358 17.3109 23.4872 15.2728C23.7441 14.0353 23.9967 12.352 24.0005 10.0538C23.9967 7.75547 23.7441 6.07219 23.4872 4.83469C23.0358 2.79656 21.06 0.929531 19.0163 0.532969C17.8191 0.293437 14.5645 0 12.2733 0C12.1805 0 12.0895 0.00046875 12 0.00140625C11.9109 0.00046875 11.8195 0 11.7267 0Z" fill="black"/>
<path d="M13.3255 17.0417C13.2749 17.3272 13.0162 17.5859 12.7307 17.6366C12.5577 17.6652 12.3219 17.6923 11.9999 17.6928C11.6783 17.6928 11.4426 17.6656 11.2691 17.6366C10.9837 17.5859 10.7249 17.3272 10.6743 17.0417C10.6457 16.8687 10.6185 16.633 10.618 16.3109C10.618 15.9894 10.6452 15.7536 10.6743 15.5802C10.7249 15.2947 10.9837 15.0359 11.2691 14.9853C11.4421 14.9567 11.6779 14.9295 11.9999 14.9291C12.3215 14.9291 12.5573 14.9563 12.7307 14.9853C13.0162 15.0359 13.2749 15.2947 13.3255 15.5802C13.3541 15.7531 13.3813 15.9889 13.3818 16.3109C13.3818 16.6325 13.3546 16.8683 13.3255 17.0417ZM11.9512 13.5153C11.503 13.5153 11.1173 13.1778 11.0671 12.7222C11.0605 12.6603 11.0057 12.1002 11.1777 11.4289C11.4229 10.4731 11.9994 9.74516 12.8451 9.32516C14.3929 8.55547 14.5129 7.68547 14.5129 7.43703C14.5129 7.25141 14.4398 6.84641 14.1665 6.50656C13.7999 6.05141 13.1652 5.82078 12.2798 5.82078C11.3943 5.82078 10.8069 6.12078 10.348 6.73813C10.0049 7.19938 9.89569 7.66344 9.89476 7.66766C9.79304 8.14906 9.32054 8.45656 8.83913 8.35437C8.35773 8.25266 8.05023 7.77969 8.15241 7.29875C8.17023 7.21391 8.3446 6.4475 8.91882 5.675C9.47382 4.92875 10.5074 4.03906 12.2802 4.03906C15.456 4.03906 16.2951 6.26141 16.2951 7.43609C16.2951 8.08625 16.0363 9.72734 13.6391 10.9189C12.7223 11.3745 12.8371 12.5145 12.8385 12.5258C12.8924 13.0147 12.5399 13.4548 12.051 13.5087C12.0177 13.5125 11.9849 13.5144 11.9521 13.5144L11.9512 13.5153Z" fill="black"/>
</svg>
