<svg width="207" height="264" viewBox="0 0 207 264" fill="none" xmlns="http://www.w3.org/2000/svg">
<g clip-path="url(#clip0_382_38461)">
<path d="M187.68 16.8008H75.5522C64.6562 16.8008 55.8242 25.6328 55.8242 36.5288V59.0408C55.8242 63.5528 59.4722 67.2008 63.9842 67.2008C68.4962 67.2008 72.1442 63.5528 72.1442 59.0408V36.5288C72.1442 34.6568 73.6322 33.1688 75.5042 33.1688H187.632C189.504 33.1688 190.992 34.6568 190.992 36.5288V227.473C190.992 229.345 189.504 230.833 187.632 230.833H75.5522C73.6802 230.833 72.1922 229.345 72.1922 227.473V204.961C72.1922 200.449 68.5442 196.801 64.0322 196.801C59.5202 196.801 55.8722 200.449 55.8722 204.961V227.473C55.8722 238.369 64.7042 247.201 75.6002 247.201H187.728C198.624 247.201 207.456 238.369 207.456 227.473V36.5288C207.456 25.6328 198.624 16.8008 187.68 16.8008Z" fill="#981340"/>
<path d="M0 132.001L58.992 166.033V140.161H143.52V123.841H58.992V97.9688L0 132.001Z" fill="#F30051"/>
</g>
<defs>
<clipPath id="clip0_382_38461">
<rect width="207" height="264" fill="white"/>
</clipPath>
</defs>
</svg>
