<svg width="25" height="25" viewBox="0 0 25 25" fill="none" xmlns="http://www.w3.org/2000/svg">
<g clip-path="url(#clip0_207_2813)">
<path d="M12.1094 3.51562H4.29688V6.64062H12.1094V3.51562ZM11.3281 5.85938H5.07812V4.29688H11.3281V5.85938Z" fill="#F30051"/>
<path d="M4.29688 8.20312H5.85938V8.98438H4.29688V8.20312Z" fill="#F30051"/>
<path d="M6.64062 8.20312H12.1094V8.98438H6.64062V8.20312Z" fill="#F30051"/>
<path d="M4.29688 9.76562H5.85938V10.5469H4.29688V9.76562Z" fill="#F30051"/>
<path d="M6.64062 9.76562H12.1094V10.5469H6.64062V9.76562Z" fill="#F30051"/>
<path d="M17.764 7.53915L17.7637 7.53946L16.2477 9.05548C16.1637 9.13944 16.1156 9.25579 16.1156 9.37422C16.1156 9.49436 16.1638 9.61067 16.2477 9.69452L17.7637 11.2105C17.7748 11.2216 17.7975 11.2287 17.8276 11.2162C17.8582 11.2035 17.8688 11.1822 17.8688 11.168V9.76562V9.66563H17.9688H24.6094H24.7094V9.76562V10.5469V10.6469H24.6094H18.85V11.168C18.85 11.7423 18.383 12.2094 17.8086 12.2094C17.5283 12.2094 17.2665 12.1009 17.0699 11.9043L15.554 10.3883L17.764 7.53915ZM17.764 7.53915C17.7726 7.53049 17.7954 7.52192 17.8275 7.5346C17.8585 7.54684 17.8688 7.56723 17.8688 7.58203V8.98438V9.08437M17.764 7.53915L17.8688 9.08437M17.8688 9.08437H17.9688M17.8688 9.08437H17.9688M17.9688 9.08437H22.2656H22.3656M17.9688 9.08437H22.3656M22.3656 9.08437V8.98438M22.3656 9.08437V8.98438M22.3656 8.98438V8.20312V8.10312M22.3656 8.98438V8.10312M22.3656 8.10312H22.2656M22.3656 8.10312H22.2656M22.2656 8.10312H18.85M22.2656 8.10312H18.85M18.85 8.10312V7.58203C18.85 7.0075 18.3828 6.54062 17.8062 6.54062C17.5281 6.54062 17.2664 6.64923 17.0699 6.8457L15.554 8.36166C15.5539 8.36167 15.5539 8.36168 15.5539 8.3617C15.5539 8.3617 15.5539 8.36171 15.5539 8.36171C15.2831 8.63212 15.1344 8.99196 15.1344 9.37578C15.1344 9.7581 15.2831 10.1179 15.5539 10.3883L18.85 8.10312Z" fill="#F30051" stroke="#F30051" stroke-width="0.2"/>
<mask id="path-7-outside-1_207_2813" maskUnits="userSpaceOnUse" x="-0.609375" y="-0.609375" width="26" height="26" fill="black">
<rect fill="white" x="-0.609375" y="-0.609375" width="26" height="26"/>
<path d="M18.75 12.8906C17.4617 12.8906 16.2434 13.3082 15.2344 14.0699V14.0625C15.2344 13.4164 14.7086 12.8906 14.0625 12.8906H13.6719V5.85938H15.2344V5.07812H13.6719V4.29688H21.875V2.89453C21.875 2.76445 22.0566 2.68711 22.1508 2.78125L23.6668 4.29727C23.7695 4.4 23.8281 4.5418 23.8281 4.68828C23.8281 4.8332 23.7695 4.975 23.6668 5.07773L22.1508 6.59375C22.0613 6.6832 21.8746 6.61367 21.875 6.48047V5.07812H16.0156V5.85938H21.0938V6.48047C21.0938 6.99961 21.516 7.42188 22.0375 7.42188C22.2891 7.42188 22.5254 7.32383 22.7031 7.14609L24.2191 5.63008C24.4711 5.37813 24.6094 5.04414 24.6094 4.68672C24.6094 4.33086 24.4711 3.99648 24.2191 3.74492L22.7031 2.22891C22.5254 2.05117 22.2891 1.95312 22.0352 1.95312C21.516 1.95312 21.0938 2.37539 21.0938 2.89453V3.51562H13.6719V1.26406C13.6719 0.782422 13.2801 0.390625 12.7984 0.390625C12.4656 0.390625 12.1668 0.575781 12.0172 0.873438L11.5441 1.81914C11.4617 1.98477 11.1945 1.98438 11.1125 1.81953L10.6809 0.955469C10.5059 0.607422 10.1551 0.390625 9.76562 0.390625C9.37617 0.390625 9.02539 0.607422 8.85078 0.955859L8.41914 1.81914C8.33672 1.98477 8.06953 1.98438 7.9875 1.81953L7.55586 0.955469C7.38086 0.607422 7.03008 0.390625 6.64062 0.390625C6.25117 0.390625 5.90039 0.607422 5.72578 0.955859L5.29414 1.81914C5.21172 1.98477 4.94453 1.98438 4.8625 1.81953L4.38906 0.873047C4.23984 0.575781 3.94062 0.390625 3.60781 0.390625C3.12617 0.390625 2.73438 0.782422 2.73438 1.26406V10.5469H1.95312C1.09141 10.5469 0.390625 11.2477 0.390625 12.1094V23.0469C0.390625 23.9086 1.09141 24.6094 1.95312 24.6094H14.0625C14.7086 24.6094 15.2344 24.0836 15.2344 23.4375V23.4301C16.2434 24.1918 17.4617 24.6094 18.75 24.6094C21.9809 24.6094 24.6094 21.9809 24.6094 18.75C24.6094 15.5191 21.9809 12.8906 18.75 12.8906ZM23.0223 16.0156H20.3516C20.1414 15.2207 19.8336 14.4527 19.443 13.725C20.9445 13.9313 22.2371 14.7934 23.0223 16.0156ZM19.9219 18.7125V18.7871C19.9219 19.432 19.8566 20.0738 19.7309 20.7027H17.7691C17.6434 20.0742 17.5781 19.4324 17.5781 18.7875V18.7129C17.5781 18.068 17.6434 17.4262 17.7691 16.7973H19.7309C19.8566 17.4258 19.9219 18.0676 19.9219 18.7125ZM18.75 23.4152C18.4188 22.8 18.1551 22.1527 17.9629 21.4844H19.5367C19.3449 22.1527 19.0812 22.8 18.75 23.4152ZM15.2344 17.5781L15.2352 19.9219H12.8906V17.5781H15.2344ZM16.0156 19.9219V17.5781C16.0156 17.1473 15.6652 16.7969 15.2344 16.7969H16.9762C16.8598 17.4273 16.7969 18.0684 16.7969 18.7125V18.7871C16.7969 19.4316 16.8598 20.0727 16.9762 20.7027H15.2344C15.6652 20.7031 16.0156 20.3527 16.0156 19.9219ZM17.9629 16.0156C18.1551 15.3473 18.4188 14.7 18.75 14.0848C19.0812 14.7 19.3449 15.3473 19.5371 16.0156H17.9629ZM18.0574 13.7242C17.6664 14.452 17.359 15.2203 17.1484 16.0156H15.2344V15.093C16.0168 14.3398 16.9961 13.868 18.0574 13.7242ZM3.69023 1.22305L4.16328 2.16953C4.33789 2.51758 4.68867 2.73438 5.07812 2.73438C5.46758 2.73438 5.81836 2.51758 5.99297 2.16914L6.42461 1.30586C6.50703 1.14023 6.77422 1.14062 6.85625 1.30547L7.28789 2.16953C7.46289 2.51758 7.81367 2.73438 8.20312 2.73438C8.59258 2.73438 8.94336 2.51758 9.11797 2.16914L9.54961 1.30586C9.63203 1.14023 9.89922 1.14062 9.98125 1.30547L10.4129 2.16953C10.5879 2.51758 10.9387 2.73438 11.3281 2.73438C11.7176 2.73438 12.0684 2.51758 12.243 2.16914L12.7156 1.22344C12.7547 1.14609 12.8906 1.17852 12.8906 1.26406V12.8906H3.51562V1.26406C3.51562 1.17852 3.65234 1.14648 3.69023 1.22305ZM1.95312 11.3281H2.73438V12.8906H1.95312C1.52227 12.8906 1.17188 12.5402 1.17188 12.1094C1.17188 11.6785 1.52227 11.3281 1.95312 11.3281ZM14.0625 23.8281H2.73438V17.1875H1.95312V23.8281C1.52227 23.8281 1.17188 23.4777 1.17188 23.0469V13.4547C1.40273 13.5891 1.66719 13.6719 1.95312 13.6719V15.625H2.73438V13.6719H14.0625C14.2781 13.6719 14.4531 13.8469 14.4531 14.0625V16.7969H12.8906C12.4598 16.7969 12.1094 17.1473 12.1094 17.5781V19.9219C12.1094 20.3527 12.4598 20.7031 12.8906 20.7031H14.4531V23.4375C14.4531 23.6531 14.2781 23.8281 14.0625 23.8281ZM15.2344 21.4844H17.1484C17.359 22.2797 17.6664 23.048 18.0574 23.7758C16.9961 23.632 16.0168 23.1602 15.2344 22.407V21.4844ZM19.443 23.775C19.8336 23.0473 20.141 22.2793 20.3516 21.4844H23.0223C22.2371 22.7066 20.9445 23.5687 19.443 23.775ZM23.4363 20.7031H20.5238C20.6402 20.0727 20.7031 19.4316 20.7031 18.7875V18.7129C20.7031 18.0684 20.6402 17.4273 20.5238 16.7973H23.4363C23.6879 17.3984 23.8281 18.0582 23.8281 18.75C23.8281 19.4418 23.6879 20.1016 23.4363 20.7031Z"/>
</mask>
<path d="M18.75 12.8906C17.4617 12.8906 16.2434 13.3082 15.2344 14.0699V14.0625C15.2344 13.4164 14.7086 12.8906 14.0625 12.8906H13.6719V5.85938H15.2344V5.07812H13.6719V4.29688H21.875V2.89453C21.875 2.76445 22.0566 2.68711 22.1508 2.78125L23.6668 4.29727C23.7695 4.4 23.8281 4.5418 23.8281 4.68828C23.8281 4.8332 23.7695 4.975 23.6668 5.07773L22.1508 6.59375C22.0613 6.6832 21.8746 6.61367 21.875 6.48047V5.07812H16.0156V5.85938H21.0938V6.48047C21.0938 6.99961 21.516 7.42188 22.0375 7.42188C22.2891 7.42188 22.5254 7.32383 22.7031 7.14609L24.2191 5.63008C24.4711 5.37813 24.6094 5.04414 24.6094 4.68672C24.6094 4.33086 24.4711 3.99648 24.2191 3.74492L22.7031 2.22891C22.5254 2.05117 22.2891 1.95312 22.0352 1.95312C21.516 1.95312 21.0938 2.37539 21.0938 2.89453V3.51562H13.6719V1.26406C13.6719 0.782422 13.2801 0.390625 12.7984 0.390625C12.4656 0.390625 12.1668 0.575781 12.0172 0.873438L11.5441 1.81914C11.4617 1.98477 11.1945 1.98438 11.1125 1.81953L10.6809 0.955469C10.5059 0.607422 10.1551 0.390625 9.76562 0.390625C9.37617 0.390625 9.02539 0.607422 8.85078 0.955859L8.41914 1.81914C8.33672 1.98477 8.06953 1.98438 7.9875 1.81953L7.55586 0.955469C7.38086 0.607422 7.03008 0.390625 6.64062 0.390625C6.25117 0.390625 5.90039 0.607422 5.72578 0.955859L5.29414 1.81914C5.21172 1.98477 4.94453 1.98438 4.8625 1.81953L4.38906 0.873047C4.23984 0.575781 3.94062 0.390625 3.60781 0.390625C3.12617 0.390625 2.73438 0.782422 2.73438 1.26406V10.5469H1.95312C1.09141 10.5469 0.390625 11.2477 0.390625 12.1094V23.0469C0.390625 23.9086 1.09141 24.6094 1.95312 24.6094H14.0625C14.7086 24.6094 15.2344 24.0836 15.2344 23.4375V23.4301C16.2434 24.1918 17.4617 24.6094 18.75 24.6094C21.9809 24.6094 24.6094 21.9809 24.6094 18.75C24.6094 15.5191 21.9809 12.8906 18.75 12.8906ZM23.0223 16.0156H20.3516C20.1414 15.2207 19.8336 14.4527 19.443 13.725C20.9445 13.9313 22.2371 14.7934 23.0223 16.0156ZM19.9219 18.7125V18.7871C19.9219 19.432 19.8566 20.0738 19.7309 20.7027H17.7691C17.6434 20.0742 17.5781 19.4324 17.5781 18.7875V18.7129C17.5781 18.068 17.6434 17.4262 17.7691 16.7973H19.7309C19.8566 17.4258 19.9219 18.0676 19.9219 18.7125ZM18.75 23.4152C18.4188 22.8 18.1551 22.1527 17.9629 21.4844H19.5367C19.3449 22.1527 19.0812 22.8 18.75 23.4152ZM15.2344 17.5781L15.2352 19.9219H12.8906V17.5781H15.2344ZM16.0156 19.9219V17.5781C16.0156 17.1473 15.6652 16.7969 15.2344 16.7969H16.9762C16.8598 17.4273 16.7969 18.0684 16.7969 18.7125V18.7871C16.7969 19.4316 16.8598 20.0727 16.9762 20.7027H15.2344C15.6652 20.7031 16.0156 20.3527 16.0156 19.9219ZM17.9629 16.0156C18.1551 15.3473 18.4188 14.7 18.75 14.0848C19.0812 14.7 19.3449 15.3473 19.5371 16.0156H17.9629ZM18.0574 13.7242C17.6664 14.452 17.359 15.2203 17.1484 16.0156H15.2344V15.093C16.0168 14.3398 16.9961 13.868 18.0574 13.7242ZM3.69023 1.22305L4.16328 2.16953C4.33789 2.51758 4.68867 2.73438 5.07812 2.73438C5.46758 2.73438 5.81836 2.51758 5.99297 2.16914L6.42461 1.30586C6.50703 1.14023 6.77422 1.14062 6.85625 1.30547L7.28789 2.16953C7.46289 2.51758 7.81367 2.73438 8.20312 2.73438C8.59258 2.73438 8.94336 2.51758 9.11797 2.16914L9.54961 1.30586C9.63203 1.14023 9.89922 1.14062 9.98125 1.30547L10.4129 2.16953C10.5879 2.51758 10.9387 2.73438 11.3281 2.73438C11.7176 2.73438 12.0684 2.51758 12.243 2.16914L12.7156 1.22344C12.7547 1.14609 12.8906 1.17852 12.8906 1.26406V12.8906H3.51562V1.26406C3.51562 1.17852 3.65234 1.14648 3.69023 1.22305ZM1.95312 11.3281H2.73438V12.8906H1.95312C1.52227 12.8906 1.17188 12.5402 1.17188 12.1094C1.17188 11.6785 1.52227 11.3281 1.95312 11.3281ZM14.0625 23.8281H2.73438V17.1875H1.95312V23.8281C1.52227 23.8281 1.17188 23.4777 1.17188 23.0469V13.4547C1.40273 13.5891 1.66719 13.6719 1.95312 13.6719V15.625H2.73438V13.6719H14.0625C14.2781 13.6719 14.4531 13.8469 14.4531 14.0625V16.7969H12.8906C12.4598 16.7969 12.1094 17.1473 12.1094 17.5781V19.9219C12.1094 20.3527 12.4598 20.7031 12.8906 20.7031H14.4531V23.4375C14.4531 23.6531 14.2781 23.8281 14.0625 23.8281ZM15.2344 21.4844H17.1484C17.359 22.2797 17.6664 23.048 18.0574 23.7758C16.9961 23.632 16.0168 23.1602 15.2344 22.407V21.4844ZM19.443 23.775C19.8336 23.0473 20.141 22.2793 20.3516 21.4844H23.0223C22.2371 22.7066 20.9445 23.5687 19.443 23.775ZM23.4363 20.7031H20.5238C20.6402 20.0727 20.7031 19.4316 20.7031 18.7875V18.7129C20.7031 18.0684 20.6402 17.4273 20.5238 16.7973H23.4363C23.6879 17.3984 23.8281 18.0582 23.8281 18.75C23.8281 19.4418 23.6879 20.1016 23.4363 20.7031Z" fill="#F30051"/>
<path d="M18.75 12.8906C17.4617 12.8906 16.2434 13.3082 15.2344 14.0699V14.0625C15.2344 13.4164 14.7086 12.8906 14.0625 12.8906H13.6719V5.85938H15.2344V5.07812H13.6719V4.29688H21.875V2.89453C21.875 2.76445 22.0566 2.68711 22.1508 2.78125L23.6668 4.29727C23.7695 4.4 23.8281 4.5418 23.8281 4.68828C23.8281 4.8332 23.7695 4.975 23.6668 5.07773L22.1508 6.59375C22.0613 6.6832 21.8746 6.61367 21.875 6.48047V5.07812H16.0156V5.85938H21.0938V6.48047C21.0938 6.99961 21.516 7.42188 22.0375 7.42188C22.2891 7.42188 22.5254 7.32383 22.7031 7.14609L24.2191 5.63008C24.4711 5.37813 24.6094 5.04414 24.6094 4.68672C24.6094 4.33086 24.4711 3.99648 24.2191 3.74492L22.7031 2.22891C22.5254 2.05117 22.2891 1.95312 22.0352 1.95312C21.516 1.95312 21.0938 2.37539 21.0938 2.89453V3.51562H13.6719V1.26406C13.6719 0.782422 13.2801 0.390625 12.7984 0.390625C12.4656 0.390625 12.1668 0.575781 12.0172 0.873438L11.5441 1.81914C11.4617 1.98477 11.1945 1.98438 11.1125 1.81953L10.6809 0.955469C10.5059 0.607422 10.1551 0.390625 9.76562 0.390625C9.37617 0.390625 9.02539 0.607422 8.85078 0.955859L8.41914 1.81914C8.33672 1.98477 8.06953 1.98438 7.9875 1.81953L7.55586 0.955469C7.38086 0.607422 7.03008 0.390625 6.64062 0.390625C6.25117 0.390625 5.90039 0.607422 5.72578 0.955859L5.29414 1.81914C5.21172 1.98477 4.94453 1.98438 4.8625 1.81953L4.38906 0.873047C4.23984 0.575781 3.94062 0.390625 3.60781 0.390625C3.12617 0.390625 2.73438 0.782422 2.73438 1.26406V10.5469H1.95312C1.09141 10.5469 0.390625 11.2477 0.390625 12.1094V23.0469C0.390625 23.9086 1.09141 24.6094 1.95312 24.6094H14.0625C14.7086 24.6094 15.2344 24.0836 15.2344 23.4375V23.4301C16.2434 24.1918 17.4617 24.6094 18.75 24.6094C21.9809 24.6094 24.6094 21.9809 24.6094 18.75C24.6094 15.5191 21.9809 12.8906 18.75 12.8906ZM23.0223 16.0156H20.3516C20.1414 15.2207 19.8336 14.4527 19.443 13.725C20.9445 13.9313 22.2371 14.7934 23.0223 16.0156ZM19.9219 18.7125V18.7871C19.9219 19.432 19.8566 20.0738 19.7309 20.7027H17.7691C17.6434 20.0742 17.5781 19.4324 17.5781 18.7875V18.7129C17.5781 18.068 17.6434 17.4262 17.7691 16.7973H19.7309C19.8566 17.4258 19.9219 18.0676 19.9219 18.7125ZM18.75 23.4152C18.4188 22.8 18.1551 22.1527 17.9629 21.4844H19.5367C19.3449 22.1527 19.0812 22.8 18.75 23.4152ZM15.2344 17.5781L15.2352 19.9219H12.8906V17.5781H15.2344ZM16.0156 19.9219V17.5781C16.0156 17.1473 15.6652 16.7969 15.2344 16.7969H16.9762C16.8598 17.4273 16.7969 18.0684 16.7969 18.7125V18.7871C16.7969 19.4316 16.8598 20.0727 16.9762 20.7027H15.2344C15.6652 20.7031 16.0156 20.3527 16.0156 19.9219ZM17.9629 16.0156C18.1551 15.3473 18.4188 14.7 18.75 14.0848C19.0812 14.7 19.3449 15.3473 19.5371 16.0156H17.9629ZM18.0574 13.7242C17.6664 14.452 17.359 15.2203 17.1484 16.0156H15.2344V15.093C16.0168 14.3398 16.9961 13.868 18.0574 13.7242ZM3.69023 1.22305L4.16328 2.16953C4.33789 2.51758 4.68867 2.73438 5.07812 2.73438C5.46758 2.73438 5.81836 2.51758 5.99297 2.16914L6.42461 1.30586C6.50703 1.14023 6.77422 1.14062 6.85625 1.30547L7.28789 2.16953C7.46289 2.51758 7.81367 2.73438 8.20312 2.73438C8.59258 2.73438 8.94336 2.51758 9.11797 2.16914L9.54961 1.30586C9.63203 1.14023 9.89922 1.14062 9.98125 1.30547L10.4129 2.16953C10.5879 2.51758 10.9387 2.73438 11.3281 2.73438C11.7176 2.73438 12.0684 2.51758 12.243 2.16914L12.7156 1.22344C12.7547 1.14609 12.8906 1.17852 12.8906 1.26406V12.8906H3.51562V1.26406C3.51562 1.17852 3.65234 1.14648 3.69023 1.22305ZM1.95312 11.3281H2.73438V12.8906H1.95312C1.52227 12.8906 1.17188 12.5402 1.17188 12.1094C1.17188 11.6785 1.52227 11.3281 1.95312 11.3281ZM14.0625 23.8281H2.73438V17.1875H1.95312V23.8281C1.52227 23.8281 1.17188 23.4777 1.17188 23.0469V13.4547C1.40273 13.5891 1.66719 13.6719 1.95312 13.6719V15.625H2.73438V13.6719H14.0625C14.2781 13.6719 14.4531 13.8469 14.4531 14.0625V16.7969H12.8906C12.4598 16.7969 12.1094 17.1473 12.1094 17.5781V19.9219C12.1094 20.3527 12.4598 20.7031 12.8906 20.7031H14.4531V23.4375C14.4531 23.6531 14.2781 23.8281 14.0625 23.8281ZM15.2344 21.4844H17.1484C17.359 22.2797 17.6664 23.048 18.0574 23.7758C16.9961 23.632 16.0168 23.1602 15.2344 22.407V21.4844ZM19.443 23.775C19.8336 23.0473 20.141 22.2793 20.3516 21.4844H23.0223C22.2371 22.7066 20.9445 23.5687 19.443 23.775ZM23.4363 20.7031H20.5238C20.6402 20.0727 20.7031 19.4316 20.7031 18.7875V18.7129C20.7031 18.0684 20.6402 17.4273 20.5238 16.7973H23.4363C23.6879 17.3984 23.8281 18.0582 23.8281 18.75C23.8281 19.4418 23.6879 20.1016 23.4363 20.7031Z" stroke="#F30051" stroke-width="0.4" mask="url(#path-7-outside-1_207_2813)"/>
<path d="M13.6719 18.3594H14.4531V19.1406H13.6719V18.3594Z" fill="#F30051"/>
<path d="M8.20312 15.2738V14.4531H7.42188V15.2344H5.85938V17.1875C5.85938 18.2645 6.73555 19.1406 7.8125 19.1406C8.45859 19.1406 8.98438 19.6664 8.98438 20.3125V21.4844H7.8125C7.16641 21.4844 6.64062 20.9586 6.64062 20.3125V19.1406H5.85938V20.3125C5.85938 21.2555 6.53164 22.0445 7.42188 22.2262V23.0469H8.20312V22.2656H9.76562V20.3125C9.76562 19.2355 8.88945 18.3594 7.8125 18.3594C7.16641 18.3594 6.64062 17.8336 6.64062 17.1875V16.0156H7.8125C8.45859 16.0156 8.98438 16.5414 8.98438 17.1875V18.3594H9.76562V17.1875C9.76562 16.2445 9.09336 15.4555 8.20312 15.2738Z" fill="#F30051"/>
<path d="M23.0469 8.20312H24.6094V8.98438H23.0469V8.20312Z" fill="#F30051"/>
</g>
<defs>
<clipPath id="clip0_207_2813">
<rect width="25" height="25" fill="white"/>
</clipPath>
</defs>
</svg>
