<svg width="26" height="27" viewBox="0 0 26 27" fill="none" xmlns="http://www.w3.org/2000/svg">
<g clip-path="url(#clip0_207_2799)">
<path d="M18.1489 1.81388L18.1489 1.81388C18.0399 1.70495 17.8922 1.64375 17.7381 1.64375H1.58504C0.600582 1.64375 -0.2 2.44433 -0.2 3.42879V19.1081C-0.2 20.0925 0.600582 20.8931 1.58504 20.8931H5.23118C5.38523 20.8931 5.53298 20.8319 5.64191 20.723C5.75084 20.614 5.81204 20.4663 5.81204 20.3122C5.81204 20.1582 5.75084 20.0104 5.64191 19.9015C5.53298 19.7926 5.38523 19.7314 5.23118 19.7314H1.58504C1.24151 19.7314 0.961719 19.4516 0.961719 19.1081V18.8618H25.0383V19.1081C25.0383 19.4516 24.7585 19.7314 24.415 19.7314H6.99177C6.83771 19.7314 6.68997 19.7926 6.58103 19.9015C6.4721 20.0104 6.41091 20.1582 6.41091 20.3122C6.41091 20.4663 6.4721 20.614 6.58103 20.723C6.68997 20.8319 6.83771 20.8931 6.99177 20.8931H9.15127L8.84444 22.6663H8.31782C7.57732 22.6663 6.97524 23.2684 6.97524 24.0089C6.97524 24.7494 7.57732 25.3514 8.31782 25.3514H17.6822C18.4227 25.3514 19.0248 24.7494 19.0248 24.0089C19.0248 23.2684 18.4227 22.6663 17.6822 22.6663H17.1556L16.8487 20.8931H24.4149C25.3994 20.8931 26.1999 20.0925 26.1999 19.1081V3.42879C26.2 2.44433 25.3994 1.64375 24.415 1.64375H19.5155C19.3615 1.64375 19.2137 1.70495 19.1048 1.81388C18.9959 1.92281 18.9347 2.07056 18.9347 2.22461C18.9347 2.37866 18.9959 2.52641 19.1048 2.63534C19.2137 2.74427 19.3615 2.80547 19.5155 2.80547H24.415C24.7585 2.80547 25.0383 3.08526 25.0383 3.42879V17.7001H0.961719V3.42879C0.961719 3.08526 1.24151 2.80547 1.58504 2.80547H17.7381C17.8922 2.80547 18.0399 2.74427 18.1489 2.63534C18.2578 2.52641 18.319 2.37866 18.319 2.22461C18.319 2.07056 18.2578 1.92281 18.1489 1.81388ZM15.6698 20.8931L15.9766 22.6663H15.1773C15.0232 22.6663 14.8755 22.7275 14.7666 22.8364C14.6576 22.9453 14.5964 23.0931 14.5964 23.2471C14.5964 23.4012 14.6576 23.5489 14.7666 23.6579C14.8755 23.7668 15.0232 23.828 15.1773 23.828H17.6822C17.7818 23.828 17.863 23.9093 17.863 24.0089C17.863 24.1084 17.7818 24.1897 17.6822 24.1897H8.31782C8.21824 24.1897 8.13696 24.1084 8.13696 24.0089C8.13696 23.9093 8.21824 23.828 8.31782 23.828H13.3993C13.5534 23.828 13.7011 23.7668 13.8101 23.6579C13.919 23.5489 13.9802 23.4012 13.9802 23.2471C13.9802 23.0931 13.919 22.9453 13.8101 22.8364C13.7011 22.7275 13.5534 22.6663 13.3993 22.6663H10.0234L10.3303 20.8931H15.6698Z" fill="#F30051" stroke="#F30051" stroke-width="0.4"/>
<mask id="path-2-outside-1_207_2799" maskUnits="userSpaceOnUse" x="1.25391" y="3.57812" width="23" height="14" fill="black">
<rect fill="white" x="1.25391" y="3.57812" width="23" height="14"/>
<path d="M20.6022 11.4827C20.532 11.4827 20.4631 11.5021 20.4031 11.5389C20.3432 11.5756 20.2946 11.6282 20.2628 11.6909L18.4654 15.2234L16.9487 12.2423C16.9168 12.1797 16.8682 12.1271 16.8083 12.0904C16.7484 12.0536 16.6795 12.0342 16.6092 12.0342C16.5389 12.0342 16.47 12.0536 16.4101 12.0904C16.3502 12.1271 16.3016 12.1797 16.2697 12.2423L15.4475 13.8583H14.1348C14.0338 13.8583 13.9369 13.8985 13.8655 13.9699C13.7941 14.0413 13.7539 14.1382 13.7539 14.2392C13.7539 14.3402 13.7941 14.4371 13.8655 14.5085C13.9369 14.5799 14.0338 14.6201 14.1348 14.6201H15.6811C15.7514 14.6201 15.8203 14.6006 15.8802 14.5639C15.9401 14.5271 15.9887 14.4745 16.0206 14.4119L16.6092 13.255L18.1259 16.2361C18.1578 16.2987 18.2064 16.3513 18.2663 16.388C18.3262 16.4248 18.3951 16.4442 18.4654 16.4442C18.5357 16.4442 18.6046 16.4248 18.6645 16.388C18.7244 16.3513 18.773 16.2987 18.8049 16.2361L20.6022 12.7035L21.4715 14.412C21.5033 14.4746 21.5519 14.5272 21.6118 14.5639C21.6717 14.6007 21.7407 14.6201 21.8109 14.6201H23.3572C23.4582 14.6201 23.5551 14.58 23.6265 14.5086C23.698 14.4371 23.7381 14.3403 23.7381 14.2393C23.7381 14.1382 23.698 14.0414 23.6265 13.97C23.5551 13.8985 23.4582 13.8584 23.3572 13.8584H22.0445L20.9417 11.6909C20.9098 11.6283 20.8613 11.5756 20.8014 11.5389C20.7414 11.5021 20.6725 11.4827 20.6022 11.4827ZM14.1349 10.3544H16.1113C16.2123 10.3544 16.3092 10.3143 16.3806 10.2429C16.452 10.1715 16.4922 10.0746 16.4922 9.97358V5.9642C16.4922 5.86319 16.452 5.76632 16.3806 5.69489C16.3092 5.62347 16.2123 5.58334 16.1113 5.58334H14.1349C14.0339 5.58334 13.9371 5.62347 13.8656 5.69489C13.7942 5.76632 13.7541 5.86319 13.7541 5.9642V9.97358C13.7541 10.0746 13.7942 10.1715 13.8656 10.2429C13.9371 10.3143 14.0339 10.3544 14.1349 10.3544ZM14.5158 6.34506H15.7304V9.59272H14.5158V6.34506ZM19.7477 6.67285H17.7713C17.6703 6.67285 17.5735 6.71298 17.502 6.7844C17.4306 6.85583 17.3905 6.9527 17.3905 7.05371V9.97358C17.3905 10.0746 17.4306 10.1715 17.502 10.2429C17.5735 10.3143 17.6703 10.3544 17.7713 10.3544H19.7477C19.8487 10.3544 19.9456 10.3143 20.017 10.2429C20.0884 10.1715 20.1286 10.0746 20.1286 9.97358V7.05371C20.1286 6.9527 20.0884 6.85583 20.017 6.7844C19.9456 6.71298 19.8487 6.67285 19.7477 6.67285ZM19.3668 9.59272H18.1522V7.43457H19.3668V9.59272ZM23.3572 10.3544C23.4582 10.3544 23.5551 10.3143 23.6265 10.2429C23.698 10.1715 23.7381 10.0746 23.7381 9.97358V4.95898C23.7381 4.85797 23.698 4.7611 23.6265 4.68968C23.5551 4.61825 23.4582 4.57812 23.3572 4.57812H21.3809C21.2799 4.57812 21.183 4.61825 21.1116 4.68968C21.0401 4.7611 21 4.85797 21 4.95898V9.97358C21 10.0746 21.0401 10.1715 21.1116 10.2429C21.183 10.3143 21.2799 10.3544 21.3809 10.3544H23.3572ZM21.7617 5.33984H22.9764V9.59272H21.7617V5.33984ZM11.2676 8.88651H2.63477C2.53376 8.88651 2.43688 8.92663 2.36546 8.99806C2.29403 9.06948 2.25391 9.16636 2.25391 9.26737C2.25391 9.36838 2.29403 9.46525 2.36546 9.53668C2.43688 9.6081 2.53376 9.64823 2.63477 9.64823H11.2676C11.3686 9.64823 11.4655 9.6081 11.5369 9.53668C11.6083 9.46525 11.6484 9.36838 11.6484 9.26737C11.6484 9.16636 11.6083 9.06948 11.5369 8.99806C11.4655 8.92663 11.3686 8.88651 11.2676 8.88651ZM2.63477 11.6714H4.17963C4.28064 11.6714 4.37752 11.6313 4.44894 11.5599C4.52037 11.4884 4.56049 11.3916 4.56049 11.2905C4.56049 11.1895 4.52037 11.0927 4.44894 11.0212C4.37752 10.9498 4.28064 10.9097 4.17963 10.9097H2.63477C2.53376 10.9097 2.43688 10.9498 2.36546 11.0212C2.29403 11.0927 2.25391 11.1895 2.25391 11.2905C2.25391 11.3916 2.29403 11.4884 2.36546 11.5599C2.43688 11.6313 2.53376 11.6714 2.63477 11.6714ZM11.2676 10.9097H5.92473C5.82372 10.9097 5.72685 10.9498 5.65542 11.0212C5.584 11.0927 5.54387 11.1895 5.54387 11.2905C5.54387 11.3916 5.584 11.4884 5.65542 11.5599C5.72685 11.6313 5.82372 11.6714 5.92473 11.6714H11.2676C11.3686 11.6714 11.4655 11.6313 11.5369 11.5599C11.6083 11.4884 11.6484 11.3916 11.6484 11.2905C11.6484 11.1895 11.6083 11.0927 11.5369 11.0212C11.4655 10.9498 11.3686 10.9097 11.2676 10.9097ZM11.2676 4.57812H2.63477C2.53376 4.57812 2.43688 4.61825 2.36546 4.68968C2.29403 4.7611 2.25391 4.85797 2.25391 4.95898C2.25391 5.05999 2.29403 5.15687 2.36546 5.22829C2.43688 5.29972 2.53376 5.33984 2.63477 5.33984H11.2676C11.3686 5.33984 11.4655 5.29972 11.5369 5.22829C11.6083 5.15687 11.6484 5.05999 11.6484 4.95898C11.6484 4.85797 11.6083 4.7611 11.5369 4.68968C11.4655 4.61825 11.3686 4.57812 11.2676 4.57812ZM2.63477 7.36307H7.98823C8.08924 7.36307 8.18611 7.32294 8.25754 7.25152C8.32896 7.18009 8.36909 7.08322 8.36909 6.98221C8.36909 6.8812 8.32896 6.78433 8.25754 6.7129C8.18611 6.64148 8.08924 6.60135 7.98823 6.60135H2.63477C2.53376 6.60135 2.43688 6.64148 2.36546 6.7129C2.29403 6.78433 2.25391 6.8812 2.25391 6.98221C2.25391 7.08322 2.29403 7.18009 2.36546 7.25152C2.43688 7.32294 2.53376 7.36307 2.63477 7.36307ZM11.2676 6.60135H9.73333C9.63231 6.60135 9.53544 6.64148 9.46402 6.7129C9.39259 6.78433 9.35247 6.8812 9.35247 6.98221C9.35247 7.08322 9.39259 7.18009 9.46402 7.25152C9.53544 7.32294 9.63231 7.36307 9.73333 7.36307H11.2676C11.3686 7.36307 11.4655 7.32294 11.5369 7.25152C11.6083 7.18009 11.6484 7.08322 11.6484 6.98221C11.6484 6.8812 11.6083 6.78433 11.5369 6.7129C11.4655 6.64148 11.3686 6.60135 11.2676 6.60135ZM11.6484 13.2892C11.6484 13.1882 11.6083 13.0913 11.5369 13.0199C11.4655 12.9485 11.3686 12.9083 11.2676 12.9083H2.63477C2.53376 12.9083 2.43688 12.9485 2.36546 13.0199C2.29403 13.0913 2.25391 13.1882 2.25391 13.2892C2.25391 13.3902 2.29403 13.4871 2.36546 13.5585C2.43688 13.6299 2.53376 13.6701 2.63477 13.6701H11.2676C11.3686 13.6701 11.4655 13.6299 11.5369 13.5585C11.6083 13.4871 11.6484 13.3902 11.6484 13.2892ZM2.63477 14.9208C2.53376 14.9208 2.43688 14.9609 2.36546 15.0323C2.29403 15.1038 2.25391 15.2006 2.25391 15.3017C2.25391 15.4027 2.29403 15.4995 2.36546 15.571C2.43688 15.6424 2.53376 15.6825 2.63477 15.6825H6.69727C6.79828 15.6825 6.89515 15.6424 6.96657 15.571C7.038 15.4995 7.07813 15.4027 7.07813 15.3017C7.07813 15.2006 7.038 15.1038 6.96657 15.0323C6.89515 14.9609 6.79828 14.9208 6.69727 14.9208H2.63477Z"/>
</mask>
<path d="M20.6022 11.4827C20.532 11.4827 20.4631 11.5021 20.4031 11.5389C20.3432 11.5756 20.2946 11.6282 20.2628 11.6909L18.4654 15.2234L16.9487 12.2423C16.9168 12.1797 16.8682 12.1271 16.8083 12.0904C16.7484 12.0536 16.6795 12.0342 16.6092 12.0342C16.5389 12.0342 16.47 12.0536 16.4101 12.0904C16.3502 12.1271 16.3016 12.1797 16.2697 12.2423L15.4475 13.8583H14.1348C14.0338 13.8583 13.9369 13.8985 13.8655 13.9699C13.7941 14.0413 13.7539 14.1382 13.7539 14.2392C13.7539 14.3402 13.7941 14.4371 13.8655 14.5085C13.9369 14.5799 14.0338 14.6201 14.1348 14.6201H15.6811C15.7514 14.6201 15.8203 14.6006 15.8802 14.5639C15.9401 14.5271 15.9887 14.4745 16.0206 14.4119L16.6092 13.255L18.1259 16.2361C18.1578 16.2987 18.2064 16.3513 18.2663 16.388C18.3262 16.4248 18.3951 16.4442 18.4654 16.4442C18.5357 16.4442 18.6046 16.4248 18.6645 16.388C18.7244 16.3513 18.773 16.2987 18.8049 16.2361L20.6022 12.7035L21.4715 14.412C21.5033 14.4746 21.5519 14.5272 21.6118 14.5639C21.6717 14.6007 21.7407 14.6201 21.8109 14.6201H23.3572C23.4582 14.6201 23.5551 14.58 23.6265 14.5086C23.698 14.4371 23.7381 14.3403 23.7381 14.2393C23.7381 14.1382 23.698 14.0414 23.6265 13.97C23.5551 13.8985 23.4582 13.8584 23.3572 13.8584H22.0445L20.9417 11.6909C20.9098 11.6283 20.8613 11.5756 20.8014 11.5389C20.7414 11.5021 20.6725 11.4827 20.6022 11.4827ZM14.1349 10.3544H16.1113C16.2123 10.3544 16.3092 10.3143 16.3806 10.2429C16.452 10.1715 16.4922 10.0746 16.4922 9.97358V5.9642C16.4922 5.86319 16.452 5.76632 16.3806 5.69489C16.3092 5.62347 16.2123 5.58334 16.1113 5.58334H14.1349C14.0339 5.58334 13.9371 5.62347 13.8656 5.69489C13.7942 5.76632 13.7541 5.86319 13.7541 5.9642V9.97358C13.7541 10.0746 13.7942 10.1715 13.8656 10.2429C13.9371 10.3143 14.0339 10.3544 14.1349 10.3544ZM14.5158 6.34506H15.7304V9.59272H14.5158V6.34506ZM19.7477 6.67285H17.7713C17.6703 6.67285 17.5735 6.71298 17.502 6.7844C17.4306 6.85583 17.3905 6.9527 17.3905 7.05371V9.97358C17.3905 10.0746 17.4306 10.1715 17.502 10.2429C17.5735 10.3143 17.6703 10.3544 17.7713 10.3544H19.7477C19.8487 10.3544 19.9456 10.3143 20.017 10.2429C20.0884 10.1715 20.1286 10.0746 20.1286 9.97358V7.05371C20.1286 6.9527 20.0884 6.85583 20.017 6.7844C19.9456 6.71298 19.8487 6.67285 19.7477 6.67285ZM19.3668 9.59272H18.1522V7.43457H19.3668V9.59272ZM23.3572 10.3544C23.4582 10.3544 23.5551 10.3143 23.6265 10.2429C23.698 10.1715 23.7381 10.0746 23.7381 9.97358V4.95898C23.7381 4.85797 23.698 4.7611 23.6265 4.68968C23.5551 4.61825 23.4582 4.57812 23.3572 4.57812H21.3809C21.2799 4.57812 21.183 4.61825 21.1116 4.68968C21.0401 4.7611 21 4.85797 21 4.95898V9.97358C21 10.0746 21.0401 10.1715 21.1116 10.2429C21.183 10.3143 21.2799 10.3544 21.3809 10.3544H23.3572ZM21.7617 5.33984H22.9764V9.59272H21.7617V5.33984ZM11.2676 8.88651H2.63477C2.53376 8.88651 2.43688 8.92663 2.36546 8.99806C2.29403 9.06948 2.25391 9.16636 2.25391 9.26737C2.25391 9.36838 2.29403 9.46525 2.36546 9.53668C2.43688 9.6081 2.53376 9.64823 2.63477 9.64823H11.2676C11.3686 9.64823 11.4655 9.6081 11.5369 9.53668C11.6083 9.46525 11.6484 9.36838 11.6484 9.26737C11.6484 9.16636 11.6083 9.06948 11.5369 8.99806C11.4655 8.92663 11.3686 8.88651 11.2676 8.88651ZM2.63477 11.6714H4.17963C4.28064 11.6714 4.37752 11.6313 4.44894 11.5599C4.52037 11.4884 4.56049 11.3916 4.56049 11.2905C4.56049 11.1895 4.52037 11.0927 4.44894 11.0212C4.37752 10.9498 4.28064 10.9097 4.17963 10.9097H2.63477C2.53376 10.9097 2.43688 10.9498 2.36546 11.0212C2.29403 11.0927 2.25391 11.1895 2.25391 11.2905C2.25391 11.3916 2.29403 11.4884 2.36546 11.5599C2.43688 11.6313 2.53376 11.6714 2.63477 11.6714ZM11.2676 10.9097H5.92473C5.82372 10.9097 5.72685 10.9498 5.65542 11.0212C5.584 11.0927 5.54387 11.1895 5.54387 11.2905C5.54387 11.3916 5.584 11.4884 5.65542 11.5599C5.72685 11.6313 5.82372 11.6714 5.92473 11.6714H11.2676C11.3686 11.6714 11.4655 11.6313 11.5369 11.5599C11.6083 11.4884 11.6484 11.3916 11.6484 11.2905C11.6484 11.1895 11.6083 11.0927 11.5369 11.0212C11.4655 10.9498 11.3686 10.9097 11.2676 10.9097ZM11.2676 4.57812H2.63477C2.53376 4.57812 2.43688 4.61825 2.36546 4.68968C2.29403 4.7611 2.25391 4.85797 2.25391 4.95898C2.25391 5.05999 2.29403 5.15687 2.36546 5.22829C2.43688 5.29972 2.53376 5.33984 2.63477 5.33984H11.2676C11.3686 5.33984 11.4655 5.29972 11.5369 5.22829C11.6083 5.15687 11.6484 5.05999 11.6484 4.95898C11.6484 4.85797 11.6083 4.7611 11.5369 4.68968C11.4655 4.61825 11.3686 4.57812 11.2676 4.57812ZM2.63477 7.36307H7.98823C8.08924 7.36307 8.18611 7.32294 8.25754 7.25152C8.32896 7.18009 8.36909 7.08322 8.36909 6.98221C8.36909 6.8812 8.32896 6.78433 8.25754 6.7129C8.18611 6.64148 8.08924 6.60135 7.98823 6.60135H2.63477C2.53376 6.60135 2.43688 6.64148 2.36546 6.7129C2.29403 6.78433 2.25391 6.8812 2.25391 6.98221C2.25391 7.08322 2.29403 7.18009 2.36546 7.25152C2.43688 7.32294 2.53376 7.36307 2.63477 7.36307ZM11.2676 6.60135H9.73333C9.63231 6.60135 9.53544 6.64148 9.46402 6.7129C9.39259 6.78433 9.35247 6.8812 9.35247 6.98221C9.35247 7.08322 9.39259 7.18009 9.46402 7.25152C9.53544 7.32294 9.63231 7.36307 9.73333 7.36307H11.2676C11.3686 7.36307 11.4655 7.32294 11.5369 7.25152C11.6083 7.18009 11.6484 7.08322 11.6484 6.98221C11.6484 6.8812 11.6083 6.78433 11.5369 6.7129C11.4655 6.64148 11.3686 6.60135 11.2676 6.60135ZM11.6484 13.2892C11.6484 13.1882 11.6083 13.0913 11.5369 13.0199C11.4655 12.9485 11.3686 12.9083 11.2676 12.9083H2.63477C2.53376 12.9083 2.43688 12.9485 2.36546 13.0199C2.29403 13.0913 2.25391 13.1882 2.25391 13.2892C2.25391 13.3902 2.29403 13.4871 2.36546 13.5585C2.43688 13.6299 2.53376 13.6701 2.63477 13.6701H11.2676C11.3686 13.6701 11.4655 13.6299 11.5369 13.5585C11.6083 13.4871 11.6484 13.3902 11.6484 13.2892ZM2.63477 14.9208C2.53376 14.9208 2.43688 14.9609 2.36546 15.0323C2.29403 15.1038 2.25391 15.2006 2.25391 15.3017C2.25391 15.4027 2.29403 15.4995 2.36546 15.571C2.43688 15.6424 2.53376 15.6825 2.63477 15.6825H6.69727C6.79828 15.6825 6.89515 15.6424 6.96657 15.571C7.038 15.4995 7.07813 15.4027 7.07813 15.3017C7.07813 15.2006 7.038 15.1038 6.96657 15.0323C6.89515 14.9609 6.79828 14.9208 6.69727 14.9208H2.63477Z" fill="#F30051"/>
<path d="M20.6022 11.4827C20.532 11.4827 20.4631 11.5021 20.4031 11.5389C20.3432 11.5756 20.2946 11.6282 20.2628 11.6909L18.4654 15.2234L16.9487 12.2423C16.9168 12.1797 16.8682 12.1271 16.8083 12.0904C16.7484 12.0536 16.6795 12.0342 16.6092 12.0342C16.5389 12.0342 16.47 12.0536 16.4101 12.0904C16.3502 12.1271 16.3016 12.1797 16.2697 12.2423L15.4475 13.8583H14.1348C14.0338 13.8583 13.9369 13.8985 13.8655 13.9699C13.7941 14.0413 13.7539 14.1382 13.7539 14.2392C13.7539 14.3402 13.7941 14.4371 13.8655 14.5085C13.9369 14.5799 14.0338 14.6201 14.1348 14.6201H15.6811C15.7514 14.6201 15.8203 14.6006 15.8802 14.5639C15.9401 14.5271 15.9887 14.4745 16.0206 14.4119L16.6092 13.255L18.1259 16.2361C18.1578 16.2987 18.2064 16.3513 18.2663 16.388C18.3262 16.4248 18.3951 16.4442 18.4654 16.4442C18.5357 16.4442 18.6046 16.4248 18.6645 16.388C18.7244 16.3513 18.773 16.2987 18.8049 16.2361L20.6022 12.7035L21.4715 14.412C21.5033 14.4746 21.5519 14.5272 21.6118 14.5639C21.6717 14.6007 21.7407 14.6201 21.8109 14.6201H23.3572C23.4582 14.6201 23.5551 14.58 23.6265 14.5086C23.698 14.4371 23.7381 14.3403 23.7381 14.2393C23.7381 14.1382 23.698 14.0414 23.6265 13.97C23.5551 13.8985 23.4582 13.8584 23.3572 13.8584H22.0445L20.9417 11.6909C20.9098 11.6283 20.8613 11.5756 20.8014 11.5389C20.7414 11.5021 20.6725 11.4827 20.6022 11.4827ZM14.1349 10.3544H16.1113C16.2123 10.3544 16.3092 10.3143 16.3806 10.2429C16.452 10.1715 16.4922 10.0746 16.4922 9.97358V5.9642C16.4922 5.86319 16.452 5.76632 16.3806 5.69489C16.3092 5.62347 16.2123 5.58334 16.1113 5.58334H14.1349C14.0339 5.58334 13.9371 5.62347 13.8656 5.69489C13.7942 5.76632 13.7541 5.86319 13.7541 5.9642V9.97358C13.7541 10.0746 13.7942 10.1715 13.8656 10.2429C13.9371 10.3143 14.0339 10.3544 14.1349 10.3544ZM14.5158 6.34506H15.7304V9.59272H14.5158V6.34506ZM19.7477 6.67285H17.7713C17.6703 6.67285 17.5735 6.71298 17.502 6.7844C17.4306 6.85583 17.3905 6.9527 17.3905 7.05371V9.97358C17.3905 10.0746 17.4306 10.1715 17.502 10.2429C17.5735 10.3143 17.6703 10.3544 17.7713 10.3544H19.7477C19.8487 10.3544 19.9456 10.3143 20.017 10.2429C20.0884 10.1715 20.1286 10.0746 20.1286 9.97358V7.05371C20.1286 6.9527 20.0884 6.85583 20.017 6.7844C19.9456 6.71298 19.8487 6.67285 19.7477 6.67285ZM19.3668 9.59272H18.1522V7.43457H19.3668V9.59272ZM23.3572 10.3544C23.4582 10.3544 23.5551 10.3143 23.6265 10.2429C23.698 10.1715 23.7381 10.0746 23.7381 9.97358V4.95898C23.7381 4.85797 23.698 4.7611 23.6265 4.68968C23.5551 4.61825 23.4582 4.57812 23.3572 4.57812H21.3809C21.2799 4.57812 21.183 4.61825 21.1116 4.68968C21.0401 4.7611 21 4.85797 21 4.95898V9.97358C21 10.0746 21.0401 10.1715 21.1116 10.2429C21.183 10.3143 21.2799 10.3544 21.3809 10.3544H23.3572ZM21.7617 5.33984H22.9764V9.59272H21.7617V5.33984ZM11.2676 8.88651H2.63477C2.53376 8.88651 2.43688 8.92663 2.36546 8.99806C2.29403 9.06948 2.25391 9.16636 2.25391 9.26737C2.25391 9.36838 2.29403 9.46525 2.36546 9.53668C2.43688 9.6081 2.53376 9.64823 2.63477 9.64823H11.2676C11.3686 9.64823 11.4655 9.6081 11.5369 9.53668C11.6083 9.46525 11.6484 9.36838 11.6484 9.26737C11.6484 9.16636 11.6083 9.06948 11.5369 8.99806C11.4655 8.92663 11.3686 8.88651 11.2676 8.88651ZM2.63477 11.6714H4.17963C4.28064 11.6714 4.37752 11.6313 4.44894 11.5599C4.52037 11.4884 4.56049 11.3916 4.56049 11.2905C4.56049 11.1895 4.52037 11.0927 4.44894 11.0212C4.37752 10.9498 4.28064 10.9097 4.17963 10.9097H2.63477C2.53376 10.9097 2.43688 10.9498 2.36546 11.0212C2.29403 11.0927 2.25391 11.1895 2.25391 11.2905C2.25391 11.3916 2.29403 11.4884 2.36546 11.5599C2.43688 11.6313 2.53376 11.6714 2.63477 11.6714ZM11.2676 10.9097H5.92473C5.82372 10.9097 5.72685 10.9498 5.65542 11.0212C5.584 11.0927 5.54387 11.1895 5.54387 11.2905C5.54387 11.3916 5.584 11.4884 5.65542 11.5599C5.72685 11.6313 5.82372 11.6714 5.92473 11.6714H11.2676C11.3686 11.6714 11.4655 11.6313 11.5369 11.5599C11.6083 11.4884 11.6484 11.3916 11.6484 11.2905C11.6484 11.1895 11.6083 11.0927 11.5369 11.0212C11.4655 10.9498 11.3686 10.9097 11.2676 10.9097ZM11.2676 4.57812H2.63477C2.53376 4.57812 2.43688 4.61825 2.36546 4.68968C2.29403 4.7611 2.25391 4.85797 2.25391 4.95898C2.25391 5.05999 2.29403 5.15687 2.36546 5.22829C2.43688 5.29972 2.53376 5.33984 2.63477 5.33984H11.2676C11.3686 5.33984 11.4655 5.29972 11.5369 5.22829C11.6083 5.15687 11.6484 5.05999 11.6484 4.95898C11.6484 4.85797 11.6083 4.7611 11.5369 4.68968C11.4655 4.61825 11.3686 4.57812 11.2676 4.57812ZM2.63477 7.36307H7.98823C8.08924 7.36307 8.18611 7.32294 8.25754 7.25152C8.32896 7.18009 8.36909 7.08322 8.36909 6.98221C8.36909 6.8812 8.32896 6.78433 8.25754 6.7129C8.18611 6.64148 8.08924 6.60135 7.98823 6.60135H2.63477C2.53376 6.60135 2.43688 6.64148 2.36546 6.7129C2.29403 6.78433 2.25391 6.8812 2.25391 6.98221C2.25391 7.08322 2.29403 7.18009 2.36546 7.25152C2.43688 7.32294 2.53376 7.36307 2.63477 7.36307ZM11.2676 6.60135H9.73333C9.63231 6.60135 9.53544 6.64148 9.46402 6.7129C9.39259 6.78433 9.35247 6.8812 9.35247 6.98221C9.35247 7.08322 9.39259 7.18009 9.46402 7.25152C9.53544 7.32294 9.63231 7.36307 9.73333 7.36307H11.2676C11.3686 7.36307 11.4655 7.32294 11.5369 7.25152C11.6083 7.18009 11.6484 7.08322 11.6484 6.98221C11.6484 6.8812 11.6083 6.78433 11.5369 6.7129C11.4655 6.64148 11.3686 6.60135 11.2676 6.60135ZM11.6484 13.2892C11.6484 13.1882 11.6083 13.0913 11.5369 13.0199C11.4655 12.9485 11.3686 12.9083 11.2676 12.9083H2.63477C2.53376 12.9083 2.43688 12.9485 2.36546 13.0199C2.29403 13.0913 2.25391 13.1882 2.25391 13.2892C2.25391 13.3902 2.29403 13.4871 2.36546 13.5585C2.43688 13.6299 2.53376 13.6701 2.63477 13.6701H11.2676C11.3686 13.6701 11.4655 13.6299 11.5369 13.5585C11.6083 13.4871 11.6484 13.3902 11.6484 13.2892ZM2.63477 14.9208C2.53376 14.9208 2.43688 14.9609 2.36546 15.0323C2.29403 15.1038 2.25391 15.2006 2.25391 15.3017C2.25391 15.4027 2.29403 15.4995 2.36546 15.571C2.43688 15.6424 2.53376 15.6825 2.63477 15.6825H6.69727C6.79828 15.6825 6.89515 15.6424 6.96657 15.571C7.038 15.4995 7.07813 15.4027 7.07813 15.3017C7.07813 15.2006 7.038 15.1038 6.96657 15.0323C6.89515 14.9609 6.79828 14.9208 6.69727 14.9208H2.63477Z" stroke="#F30051" stroke-width="0.4" mask="url(#path-2-outside-1_207_2799)"/>
</g>
<defs>
<clipPath id="clip0_207_2799">
<rect width="26" height="26" fill="white" transform="translate(0 0.5)"/>
</clipPath>
</defs>
</svg>
