<svg width="291" height="291" viewBox="0 0 291 291" fill="none" xmlns="http://www.w3.org/2000/svg">
<path d="M138.748 198.773H26.3701C25.4892 198.772 24.6448 198.421 24.0219 197.798C23.399 197.175 23.0484 196.331 23.0469 195.45V37.4777C23.0561 36.6019 23.4101 35.7649 24.0321 35.1483C24.6542 34.5317 25.4942 34.1851 26.3701 34.1836H138.748C139.629 34.1851 140.473 34.5359 141.095 35.159C141.717 35.7821 142.066 36.6264 142.066 37.5068V195.45C142.066 196.33 141.717 197.175 141.095 197.798C140.473 198.421 139.629 198.772 138.748 198.773ZM26.3701 34.3C25.5278 34.3015 24.7204 34.6368 24.1248 35.2324C23.5292 35.828 23.1939 36.6354 23.1924 37.4777V195.45C23.1939 196.292 23.5292 197.1 24.1248 197.695C24.7204 198.291 25.5278 198.626 26.3701 198.628H138.748C139.59 198.626 140.397 198.291 140.992 197.695C141.586 197.099 141.92 196.292 141.92 195.45V37.4777C141.92 36.6359 141.586 35.8286 140.992 35.2328C140.397 34.637 139.59 34.3015 138.748 34.3H26.3701Z" fill="#E6E6E6"/>
<path d="M264.635 198.773H152.251C151.371 198.772 150.527 198.421 149.905 197.798C149.283 197.175 148.934 196.33 148.934 195.45V37.4777C148.941 36.6024 149.294 35.7655 149.915 35.1487C150.536 34.5319 151.376 34.1851 152.251 34.1836H264.635C265.511 34.1851 266.35 34.5319 266.971 35.1487C267.592 35.7655 267.945 36.6024 267.953 37.4777V195.45C267.953 196.33 267.603 197.175 266.981 197.798C266.359 198.421 265.516 198.772 264.635 198.773ZM152.251 34.3C151.409 34.3015 150.602 34.637 150.008 35.2328C149.413 35.8286 149.079 36.6359 149.079 37.4777V195.45C149.079 196.292 149.413 197.099 150.008 197.695C150.602 198.291 151.409 198.626 152.251 198.628H264.635C265.478 198.626 266.286 198.291 266.883 197.696C267.479 197.1 267.816 196.293 267.819 195.45V37.4777C267.816 36.6349 267.479 35.8275 266.883 35.2321C266.286 34.6366 265.478 34.3015 264.635 34.3H152.251Z" fill="#E6E6E6"/>
<path d="M120.911 114.925L120.113 183.334C117.296 206.096 76.9464 224.167 76.9464 224.167C76.9464 224.167 36.5905 206.113 33.7562 183.334L32.9355 114.925L76.0618 100.73L120.911 114.925Z" fill="#F5F5F5"/>
<path d="M115.282 119.254L114.589 180.678C112.133 200.53 76.9395 216.291 76.9395 216.291C76.9395 216.291 41.746 200.53 39.2958 180.678L38.5566 119.254L76.1713 106.875L115.282 119.254Z" fill="#E0E0E0"/>
<path d="M112.814 123.129L112.162 179.519C109.834 198.143 76.864 212.902 76.864 212.902C76.864 212.902 43.8704 198.125 41.5715 179.519L40.8789 123.129L76.1423 111.523L112.814 123.129Z" stroke="white" stroke-width="3" stroke-linecap="round" stroke-linejoin="round"/>
<path d="M256.266 91.8359H178.639V228.047H256.266V91.8359Z" fill="#F5F5F5"/>
<path d="M250.638 97.1914H184.377V228.048H250.638V97.1914Z" fill="#E0E0E0"/>
<path d="M186.24 228.628C186.124 228.628 186.009 228.605 185.903 228.558C185.798 228.516 185.702 228.453 185.623 228.372C185.539 228.292 185.473 228.195 185.431 228.087C185.389 227.981 185.368 227.868 185.367 227.755C185.367 227.626 185.396 227.499 185.451 227.382C185.506 227.266 185.587 227.163 185.686 227.081C185.786 226.999 185.902 226.941 186.027 226.909C186.152 226.878 186.283 226.874 186.409 226.899L186.572 226.946L186.723 227.027C186.77 227.061 186.815 227.098 186.857 227.138C186.898 227.177 186.934 227.222 186.962 227.272C186.996 227.318 187.023 227.369 187.043 227.423C187.067 227.475 187.084 227.53 187.096 227.586C187.102 227.642 187.102 227.699 187.096 227.755C187.096 227.869 187.072 227.982 187.026 228.087C186.984 228.193 186.921 228.291 186.84 228.372C186.68 228.53 186.465 228.622 186.24 228.628Z" fill="white"/>
<path d="M185.355 206.316C185.356 206.201 185.38 206.087 185.425 205.981C185.47 205.875 185.535 205.779 185.617 205.699C185.7 205.618 185.797 205.554 185.904 205.512C186.011 205.469 186.125 205.448 186.24 205.449C186.472 205.449 186.694 205.541 186.857 205.705C187.021 205.869 187.113 206.091 187.113 206.322C187.113 206.554 187.021 206.776 186.857 206.939C186.694 207.103 186.472 207.195 186.24 207.195C186.124 207.197 186.009 207.175 185.901 207.131C185.793 207.088 185.696 207.023 185.613 206.942C185.531 206.86 185.466 206.762 185.421 206.655C185.377 206.548 185.355 206.432 185.355 206.316ZM185.355 184.881C185.355 184.65 185.447 184.428 185.611 184.264C185.775 184.1 185.997 184.008 186.228 184.008C186.46 184.008 186.682 184.1 186.846 184.264C187.009 184.428 187.101 184.65 187.101 184.881C187.101 185.113 187.009 185.335 186.846 185.499C186.682 185.662 186.46 185.754 186.228 185.754C185.997 185.754 185.775 185.662 185.611 185.499C185.447 185.335 185.355 185.113 185.355 184.881ZM185.355 163.44C185.355 163.209 185.447 162.987 185.611 162.823C185.775 162.659 185.997 162.567 186.228 162.567C186.46 162.567 186.682 162.659 186.846 162.823C187.009 162.987 187.101 163.209 187.101 163.44C187.101 163.672 187.009 163.894 186.846 164.058C186.682 164.221 186.46 164.313 186.228 164.313C186.114 164.313 186 164.291 185.894 164.247C185.788 164.203 185.692 164.139 185.611 164.058C185.53 163.977 185.466 163.88 185.422 163.774C185.378 163.669 185.355 163.555 185.355 163.44ZM185.355 141.999C185.355 141.768 185.447 141.546 185.611 141.382C185.775 141.218 185.997 141.126 186.228 141.126C186.46 141.126 186.682 141.218 186.846 141.382C187.009 141.546 187.101 141.768 187.101 141.999C187.101 142.231 187.009 142.453 186.846 142.617C186.682 142.78 186.46 142.872 186.228 142.872C185.999 142.872 185.779 142.782 185.615 142.621C185.452 142.46 185.359 142.241 185.355 142.011V141.999ZM185.355 120.564C185.355 120.333 185.447 120.111 185.611 119.947C185.775 119.783 185.997 119.691 186.228 119.691C186.46 119.691 186.682 119.783 186.846 119.947C187.009 120.111 187.101 120.333 187.101 120.564C187.101 120.796 187.009 121.018 186.846 121.182C186.682 121.345 186.46 121.437 186.228 121.437C186.114 121.437 186 121.415 185.894 121.371C185.788 121.327 185.692 121.263 185.611 121.182C185.53 121.101 185.466 121.004 185.422 120.898C185.378 120.793 185.355 120.679 185.355 120.564Z" fill="white"/>
<path d="M186.239 99.9959C186.124 99.9965 186.011 99.9741 185.905 99.9301C185.799 99.8862 185.703 99.8215 185.622 99.7399C185.579 99.7007 185.542 99.6556 185.511 99.606C185.481 99.5595 185.454 99.5109 185.43 99.4605C185.406 99.4069 185.39 99.35 185.383 99.2917C185.377 99.2356 185.377 99.179 185.383 99.1229C185.385 98.8917 185.477 98.6703 185.639 98.506C185.678 98.4647 185.721 98.4277 185.768 98.3954C185.815 98.3645 185.866 98.3391 185.919 98.3198C185.971 98.2971 186.026 98.2796 186.082 98.2674C186.195 98.2442 186.312 98.2442 186.425 98.2674C186.481 98.2796 186.536 98.2971 186.588 98.3198C186.641 98.3391 186.692 98.3645 186.739 98.3954C186.787 98.4291 186.831 98.4661 186.873 98.506C187.036 98.6703 187.128 98.8917 187.129 99.1229C187.135 99.179 187.135 99.2356 187.129 99.2917C187.117 99.3495 187.1 99.406 187.077 99.4605C187.056 99.512 187.028 99.5608 186.996 99.606C186.967 99.6555 186.932 99.7006 186.891 99.7399C186.805 99.8247 186.703 99.8911 186.591 99.9352C186.479 99.9792 186.359 99.9999 186.239 99.9959Z" fill="white"/>
<path d="M226.91 99.123C226.91 98.8915 227.002 98.6694 227.166 98.5057C227.33 98.342 227.552 98.25 227.783 98.25C228.015 98.25 228.237 98.342 228.401 98.5057C228.564 98.6694 228.656 98.8915 228.656 99.123C228.656 99.3545 228.564 99.5766 228.401 99.7403C228.237 99.904 228.015 99.996 227.783 99.996C227.552 99.996 227.33 99.904 227.166 99.7403C227.002 99.5766 226.91 99.3545 226.91 99.123ZM206.133 99.123C206.133 98.8915 206.225 98.6694 206.389 98.5057C206.552 98.342 206.774 98.25 207.006 98.25C207.237 98.25 207.459 98.342 207.623 98.5057C207.787 98.6694 207.879 98.8915 207.879 99.123C207.879 99.3545 207.787 99.5766 207.623 99.7403C207.459 99.904 207.237 99.996 207.006 99.996C206.774 99.996 206.552 99.904 206.389 99.7403C206.225 99.5766 206.133 99.3545 206.133 99.123Z" fill="white"/>
<path d="M248.561 99.9941C248.504 99.9998 248.448 99.9998 248.392 99.9941L248.229 99.9475L248.077 99.8661C248.03 99.8324 247.986 99.7955 247.944 99.7555C247.78 99.5919 247.688 99.37 247.688 99.1386C247.689 98.9074 247.781 98.6859 247.944 98.5217C247.984 98.4818 248.029 98.4467 248.077 98.4169C248.123 98.3819 248.174 98.3544 248.229 98.3354C248.281 98.3119 248.336 98.2943 248.392 98.283C248.505 98.2598 248.622 98.2598 248.735 98.283L248.898 98.3354C248.951 98.3545 249 98.3821 249.044 98.4169C249.093 98.4451 249.138 98.4804 249.177 98.5217C249.34 98.6859 249.432 98.9074 249.434 99.1386C249.433 99.37 249.341 99.5919 249.177 99.7555C249.137 99.7969 249.092 99.8339 249.044 99.8661C248.997 99.8967 248.948 99.9239 248.898 99.9475L248.735 99.9941C248.677 99.9998 248.619 99.9998 248.561 99.9941Z" fill="white"/>
<path d="M247.688 206.316C247.687 206.085 247.779 205.863 247.943 205.699C248.107 205.535 248.329 205.443 248.561 205.443C248.792 205.443 249.014 205.535 249.178 205.699C249.342 205.863 249.434 206.085 249.434 206.316C249.434 206.548 249.342 206.77 249.178 206.934C249.014 207.097 248.792 207.189 248.561 207.189C248.329 207.189 248.107 207.097 247.943 206.934C247.779 206.77 247.688 206.548 247.688 206.316ZM247.688 184.881C247.687 184.65 247.779 184.428 247.943 184.264C248.107 184.1 248.329 184.008 248.561 184.008C248.792 184.008 249.014 184.1 249.178 184.264C249.342 184.428 249.434 184.65 249.434 184.881C249.434 185.113 249.342 185.335 249.178 185.499C249.014 185.662 248.792 185.754 248.561 185.754C248.329 185.754 248.107 185.662 247.943 185.499C247.779 185.335 247.688 185.113 247.688 184.881ZM247.688 163.44C247.687 163.209 247.779 162.987 247.943 162.823C248.107 162.659 248.329 162.567 248.561 162.567C248.792 162.567 249.014 162.659 249.178 162.823C249.342 162.987 249.434 163.209 249.434 163.44C249.434 163.672 249.342 163.894 249.178 164.058C249.014 164.221 248.792 164.313 248.561 164.313C248.446 164.313 248.332 164.291 248.226 164.247C248.121 164.203 248.024 164.139 247.943 164.058C247.862 163.977 247.798 163.88 247.754 163.774C247.71 163.669 247.688 163.555 247.688 163.44ZM247.688 141.999C247.687 141.768 247.779 141.546 247.943 141.382C248.107 141.218 248.329 141.126 248.561 141.126C248.792 141.126 249.014 141.218 249.178 141.382C249.342 141.546 249.434 141.768 249.434 141.999C249.434 142.231 249.342 142.453 249.178 142.617C249.014 142.78 248.792 142.872 248.561 142.872C248.331 142.872 248.111 142.782 247.947 142.621C247.784 142.46 247.691 142.241 247.688 142.011V141.999ZM247.688 120.564C247.687 120.333 247.779 120.111 247.943 119.947C248.107 119.783 248.329 119.691 248.561 119.691C248.792 119.691 249.014 119.783 249.178 119.947C249.342 120.111 249.434 120.333 249.434 120.564C249.434 120.796 249.342 121.018 249.178 121.182C249.014 121.345 248.792 121.437 248.561 121.437C248.446 121.437 248.332 121.415 248.226 121.371C248.121 121.327 248.024 121.263 247.943 121.182C247.862 121.101 247.798 121.004 247.754 120.898C247.71 120.793 247.688 120.679 247.688 120.564Z" fill="white"/>
<path d="M248.56 228.629C248.387 228.629 248.219 228.577 248.075 228.481C247.932 228.385 247.82 228.249 247.754 228.09C247.688 227.93 247.671 227.755 247.704 227.586C247.738 227.416 247.821 227.261 247.943 227.139C247.985 227.099 248.029 227.062 248.077 227.028L248.228 226.947L248.391 226.9C248.504 226.877 248.621 226.877 248.734 226.9L248.897 226.947C248.948 226.97 248.996 226.998 249.043 227.028C249.091 227.06 249.136 227.097 249.177 227.139C249.34 227.302 249.433 227.524 249.433 227.756C249.434 227.871 249.412 227.984 249.368 228.09C249.324 228.196 249.259 228.292 249.177 228.373C249.013 228.536 248.791 228.629 248.56 228.629Z" fill="white"/>
<path d="M55.2889 228.27H31.3047V228.415H55.2889V228.27Z" fill="#E0E0E0"/>
<path d="M104.177 227.105H80.123V227.251H104.177V227.105Z" fill="#E0E0E0"/>
<path d="M135.478 227.105H129.658V227.251H135.478V227.105Z" fill="#E0E0E0"/>
<path d="M77.3062 232.074H50.3887V232.22H77.3062V232.074Z" fill="#E0E0E0"/>
<path d="M170.409 228.191H157.838V228.337H170.409V228.191Z" fill="#E0E0E0"/>
<path d="M191.845 228.191H175.59V228.337H191.845V228.191Z" fill="#E0E0E0"/>
<path d="M270.24 230.656H233.9V230.802H270.24V230.656Z" fill="#E0E0E0"/>
<path d="M135.844 51.0139H109.031L110.498 34.3047H137.305L135.844 51.0139Z" fill="#EBEBEB"/>
<path d="M136.386 32.0352L135.653 40.7593L134.919 51.247H109.137L110.603 32.0352H136.386Z" fill="#FAFAFA"/>
<path d="M133.924 34.304L135.385 51.0132H108.578L107.111 34.304H109.393L110.184 33.0469H117.407L118.443 34.304H133.924Z" fill="#E0E0E0"/>
<path d="M177.399 54.7461H148.869V83.2757H177.399V54.7461Z" fill="#EBEBEB"/>
<path d="M178.126 54.7461H177.398V83.2757H178.126V54.7461Z" fill="#E0E0E0"/>
<path d="M174.757 57.3867H151.5V80.6434H174.757V57.3867Z" fill="#F5F5F5"/>
<path d="M151.721 57.3867H151.506V80.6434H151.721V57.3867Z" fill="#E0E0E0"/>
<path d="M163.35 72.375C165.854 72.375 167.884 69.7901 167.884 66.6016C167.884 63.413 165.854 60.8281 163.35 60.8281C160.846 60.8281 158.816 63.413 158.816 66.6016C158.816 69.7901 160.846 72.375 163.35 72.375Z" fill="#E0E0E0"/>
<path d="M160.982 75.2969H165.76V70.5187H160.982V75.2969Z" fill="#E0E0E0"/>
<path d="M171.963 80.6445H154.456V79.0149C154.456 77.5269 155.048 76.0999 156.1 75.0477C157.152 73.9956 158.579 73.4045 160.067 73.4045H166.376C167.864 73.4045 169.291 73.9956 170.343 75.0477C171.395 76.0999 171.986 77.5269 171.986 79.0149V80.6445H171.963Z" fill="#E0E0E0"/>
<path d="M154.02 70.9347C154.02 71.8834 155.766 72.6807 155.766 72.6807C155.766 72.6807 157.512 71.9067 157.512 70.9347C157.512 70.4808 156.883 70.2247 156.47 70.3527C156.312 70.4079 156.166 70.494 156.041 70.6058C155.916 70.7177 155.815 70.8532 155.742 71.0046C155.52 70.7044 155.226 70.4644 154.887 70.3062C154.788 70.2714 154.681 70.2612 154.577 70.2764C154.473 70.2916 154.374 70.3318 154.289 70.3936C154.204 70.4554 154.135 70.5368 154.088 70.6311C154.041 70.7253 154.018 70.8295 154.02 70.9347Z" fill="#E0E0E0"/>
<path d="M169.512 66.6938C169.512 67.9451 171.776 68.9578 171.776 68.9578C171.776 68.9578 174.04 67.9451 174.04 66.6938C174.04 66.1118 173.202 65.7684 172.672 65.9198C172.273 66.0793 171.951 66.3883 171.776 66.7811C171.481 66.389 171.096 66.0736 170.653 65.8616C170.522 65.8151 170.381 65.8014 170.244 65.8215C170.106 65.8416 169.975 65.8949 169.863 65.9769C169.751 66.0589 169.66 66.167 169.599 66.2919C169.538 66.4169 169.508 66.5548 169.512 66.6938Z" fill="#E0E0E0"/>
<path d="M119.722 209.126C119.99 210.808 121.206 212.257 121.299 213.957C121.375 215.29 120.752 216.541 120.444 217.839C120.135 219.137 120.287 220.749 121.422 221.436C121.835 221.645 122.296 221.741 122.758 221.714C123.221 221.686 123.667 221.536 124.052 221.278C124.812 220.752 125.44 220.057 125.886 219.247C127.671 216.362 128.646 213.048 128.708 209.656C128.708 208.23 128.563 206.717 127.725 205.582C125.129 201.956 119.059 204.936 119.722 209.126Z" fill="#F5F5F5"/>
<path d="M117.564 204.676C117.814 204.949 118.141 205.142 118.501 205.229C118.719 205.299 118.951 205.314 119.177 205.27C119.402 205.226 119.612 205.126 119.787 204.978C119.921 204.806 120.016 204.608 120.066 204.396C120.117 204.184 120.121 203.964 120.078 203.75C120.043 203.214 119.859 202.699 119.549 202.26C119.393 202.044 119.185 201.87 118.946 201.753C118.706 201.637 118.441 201.581 118.175 201.591C117.909 201.613 117.659 201.725 117.466 201.91C117.273 202.094 117.15 202.339 117.116 202.604C117.051 203.324 117.207 204.047 117.564 204.676Z" fill="#F5F5F5"/>
<path d="M122.4 201.175C122.281 200.991 122.111 200.846 121.91 200.758C121.709 200.67 121.487 200.643 121.271 200.68C121.057 200.728 120.863 200.839 120.713 200.999C120.564 201.159 120.466 201.36 120.433 201.577C120.423 201.718 120.423 201.86 120.433 202.002C120.435 202.231 120.46 202.459 120.508 202.682C120.557 202.898 120.659 203.098 120.805 203.264C121.005 203.459 121.258 203.588 121.533 203.637C121.702 203.678 121.879 203.677 122.049 203.634C122.218 203.591 122.374 203.509 122.505 203.393C122.621 203.252 122.707 203.089 122.759 202.914C122.811 202.739 122.827 202.555 122.807 202.374C122.794 201.943 122.652 201.525 122.4 201.175Z" fill="#F5F5F5"/>
<path d="M125.096 201.029C125 200.853 124.845 200.718 124.658 200.647C124.471 200.577 124.265 200.576 124.077 200.645C123.894 200.721 123.733 200.841 123.607 200.994C123.481 201.147 123.395 201.329 123.356 201.524C123.356 201.652 123.321 201.78 123.315 201.908C123.311 202.119 123.335 202.331 123.385 202.536C123.426 202.739 123.533 202.923 123.687 203.06C123.852 203.198 124.055 203.283 124.269 203.305C124.409 203.322 124.55 203.308 124.684 203.265C124.818 203.222 124.94 203.15 125.043 203.054C125.27 202.797 125.394 202.466 125.393 202.123C125.418 201.736 125.314 201.35 125.096 201.029Z" fill="#F5F5F5"/>
<path d="M127.497 201.589C127.212 201.164 126.915 201.135 126.59 201.316C126.3 201.528 126.094 201.835 126.008 202.183C125.975 202.295 125.951 202.41 125.938 202.526C125.906 202.719 125.906 202.916 125.938 203.108C125.976 203.295 126.084 203.459 126.24 203.568C126.385 203.658 126.554 203.699 126.723 203.684C126.944 203.665 127.15 203.568 127.305 203.411C127.519 203.181 127.656 202.89 127.695 202.579C127.754 202.236 127.684 201.883 127.497 201.589Z" fill="#F5F5F5"/>
<path d="M127.969 203.947C127.937 204.085 127.937 204.228 127.969 204.366C127.981 204.436 128.01 204.503 128.054 204.56C128.097 204.617 128.154 204.662 128.219 204.692C128.338 204.719 128.463 204.71 128.577 204.666C128.691 204.623 128.789 204.547 128.86 204.447C129.032 204.271 129.158 204.055 129.226 203.819C129.26 203.7 129.27 203.577 129.255 203.455C129.24 203.333 129.201 203.215 129.139 203.109C128.621 202.265 128.039 203.528 127.969 203.947Z" fill="#F5F5F5"/>
<path d="M128.442 247.999C128.832 246.625 129.059 245.118 128.541 243.785C126.941 239.636 120.329 240.957 119.893 245.182L128.442 247.999Z" fill="#F5F5F5"/>
<path d="M118.972 240.327C119.145 240.656 119.413 240.926 119.741 241.101C119.933 241.225 120.153 241.298 120.381 241.314C120.609 241.329 120.837 241.286 121.044 241.188C121.214 241.055 121.354 240.886 121.454 240.695C121.555 240.503 121.613 240.293 121.626 240.077C121.729 239.551 121.685 239.007 121.498 238.505C121.402 238.255 121.245 238.032 121.042 237.856C120.839 237.681 120.596 237.558 120.334 237.498C120.072 237.452 119.803 237.496 119.57 237.625C119.337 237.753 119.155 237.957 119.054 238.203C118.813 238.886 118.784 239.627 118.972 240.327Z" fill="#F5F5F5"/>
<path d="M124.548 238.179C124.479 237.971 124.351 237.788 124.179 237.651C124.008 237.515 123.8 237.431 123.582 237.411C123.363 237.403 123.147 237.462 122.962 237.578C122.776 237.694 122.629 237.863 122.54 238.063C122.489 238.196 122.446 238.332 122.412 238.47C122.353 238.691 122.318 238.917 122.307 239.145C122.293 239.372 122.339 239.599 122.441 239.803C122.579 240.035 122.781 240.223 123.023 240.344C123.176 240.426 123.347 240.468 123.521 240.468C123.694 240.468 123.865 240.426 124.018 240.344C124.171 240.24 124.301 240.107 124.401 239.952C124.501 239.797 124.569 239.624 124.6 239.442C124.705 239.025 124.687 238.586 124.548 238.179Z" fill="#F5F5F5"/>
<path d="M127.167 238.734C127.12 238.543 127.006 238.374 126.847 238.258C126.687 238.142 126.491 238.086 126.294 238.1C126.097 238.128 125.91 238.204 125.749 238.32C125.588 238.437 125.457 238.591 125.369 238.769C125.316 238.885 125.27 239.003 125.229 239.124C125.164 239.322 125.125 239.527 125.113 239.735C125.101 239.94 125.154 240.144 125.264 240.317C125.393 240.499 125.577 240.636 125.788 240.707C125.919 240.76 126.06 240.783 126.201 240.775C126.342 240.767 126.479 240.728 126.603 240.661C126.889 240.473 127.096 240.187 127.185 239.857C127.303 239.491 127.297 239.096 127.167 238.734Z" fill="#F5F5F5"/>
<path d="M129.344 239.89C129.181 239.401 128.873 239.308 128.541 239.389C128.202 239.516 127.918 239.757 127.738 240.07C127.679 240.172 127.627 240.277 127.581 240.385C127.509 240.559 127.466 240.744 127.452 240.932C127.441 241.12 127.502 241.305 127.621 241.45C127.737 241.575 127.89 241.659 128.058 241.688C128.276 241.731 128.501 241.691 128.692 241.578C128.955 241.409 129.158 241.163 129.274 240.874C129.416 240.565 129.441 240.215 129.344 239.89Z" fill="#F5F5F5"/>
<path d="M129.204 242.29C129.133 242.413 129.091 242.55 129.082 242.692C129.076 242.763 129.087 242.834 129.114 242.9C129.142 242.966 129.184 243.024 129.239 243.07C129.346 243.127 129.469 243.151 129.59 243.138C129.711 243.126 129.826 243.078 129.92 243C130.13 242.873 130.308 242.697 130.438 242.488C130.5 242.382 130.542 242.265 130.559 242.143C130.576 242.021 130.568 241.897 130.537 241.778C130.234 240.829 129.39 241.912 129.204 242.29Z" fill="#F5F5F5"/>
<path d="M105.499 223.292C105.714 224.986 104.917 226.715 105.324 228.373C105.621 229.671 106.57 230.701 107.222 231.865C107.874 233.029 108.182 234.612 107.274 235.59C106.937 235.907 106.521 236.128 106.07 236.23C105.619 236.333 105.148 236.313 104.707 236.172C103.832 235.872 103.036 235.376 102.379 234.723C99.8658 232.445 98.0122 229.532 97.0134 226.29C96.5944 224.922 96.3383 223.426 96.8272 222.082C98.3578 217.897 104.981 219.085 105.499 223.292Z" fill="#F5F5F5"/>
<path d="M106.319 218.428C106.156 218.759 105.896 219.033 105.574 219.214C105.385 219.344 105.166 219.423 104.938 219.443C104.709 219.463 104.479 219.425 104.27 219.33C104.093 219.203 103.946 219.039 103.838 218.849C103.731 218.659 103.666 218.448 103.648 218.23C103.535 217.706 103.568 217.161 103.741 216.653C103.835 216.399 103.991 216.173 104.194 215.994C104.397 215.815 104.641 215.69 104.905 215.629C105.166 215.576 105.437 215.614 105.673 215.737C105.909 215.86 106.096 216.06 106.203 216.304C106.366 216.845 106.569 217.898 106.319 218.428Z" fill="#F5F5F5"/>
<path d="M100.726 216.395C100.79 216.185 100.914 215.998 101.082 215.857C101.251 215.717 101.456 215.628 101.674 215.603C101.893 215.592 102.11 215.646 102.298 215.759C102.486 215.872 102.635 216.039 102.728 216.237C102.784 216.368 102.831 216.502 102.867 216.639C102.93 216.857 102.969 217.082 102.984 217.308C103.005 217.536 102.963 217.766 102.862 217.972C102.732 218.221 102.529 218.424 102.28 218.554C102.13 218.642 101.961 218.691 101.787 218.698C101.614 218.705 101.441 218.67 101.284 218.594C101.132 218.492 101.003 218.359 100.903 218.205C100.803 218.051 100.735 217.879 100.702 217.698C100.576 217.272 100.584 216.816 100.726 216.395Z" fill="#F5F5F5"/>
<path d="M98.0958 217.002C98.1386 216.806 98.2504 216.633 98.4108 216.513C98.5711 216.393 98.7692 216.335 98.9688 216.35C99.1655 216.374 99.3535 216.445 99.5166 216.558C99.6798 216.67 99.8133 216.821 99.9058 216.996C99.9617 217.111 100.01 217.23 100.051 217.351C100.123 217.548 100.168 217.753 100.185 217.962C100.197 218.166 100.146 218.369 100.04 218.544C99.9156 218.729 99.7363 218.869 99.5275 218.946C99.398 219.002 99.2577 219.028 99.1168 219.023C98.9758 219.018 98.8378 218.982 98.7127 218.916C98.4281 218.733 98.221 218.451 98.1307 218.125C97.9956 217.765 97.9833 217.37 98.0958 217.002Z" fill="#F5F5F5"/>
<path d="M95.9423 218.204C96.0995 217.715 96.4021 217.622 96.7397 217.686C97.0812 217.807 97.3696 218.044 97.5545 218.355C97.6154 218.454 97.6699 218.557 97.7174 218.664C97.7957 218.834 97.843 219.018 97.8571 219.205C97.8755 219.393 97.819 219.581 97.7 219.729C97.5873 219.855 97.4359 219.941 97.2693 219.973C97.0517 220.021 96.824 219.988 96.6291 219.88C96.3589 219.718 96.1455 219.476 96.018 219.187C95.8745 218.88 95.8476 218.53 95.9423 218.204Z" fill="#F5F5F5"/>
<path d="M96.1393 220.578C96.2114 220.701 96.257 220.838 96.2732 220.98C96.2796 221.051 96.2693 221.123 96.243 221.19C96.2168 221.256 96.1753 221.316 96.1218 221.364C96.0139 221.421 95.8917 221.446 95.7699 221.436C95.648 221.426 95.5318 221.38 95.4351 221.306C95.2219 221.184 95.042 221.012 94.9113 220.805C94.8452 220.701 94.8013 220.584 94.7822 220.461C94.7632 220.339 94.7695 220.215 94.8007 220.095C95.0742 219.158 95.9414 220.223 96.1393 220.578Z" fill="#F5F5F5"/>
<path d="M91.2163 83.5713C89.8769 83.7596 88.5118 83.5465 87.2935 82.9589C86.0752 82.3714 85.0586 81.4357 84.3721 80.2703C83.6856 79.1049 83.3601 77.7621 83.4368 76.4117C83.5135 75.0613 83.9889 73.764 84.8029 72.6838C85.6169 71.6036 86.7329 70.7891 88.0099 70.3432C89.2868 69.8973 90.6673 69.8401 91.9768 70.1788C93.2863 70.5176 94.4659 71.237 95.3665 72.2461C96.2671 73.2553 96.8482 74.5088 97.0363 75.8482C97.2854 77.6436 96.8127 79.4645 95.7218 80.9121C94.631 82.3597 93.0108 83.316 91.2163 83.5713ZM89.8311 73.6191C89.2027 73.7058 88.6141 73.9769 88.1397 74.3981C87.6653 74.8194 87.3266 75.3718 87.1663 75.9857C87.006 76.5995 87.0314 77.247 87.2392 77.8464C87.447 78.4458 87.8279 78.9701 88.3338 79.353C88.8396 79.7358 89.4477 79.96 90.081 79.9972C90.7143 80.0344 91.3444 79.883 91.8916 79.562C92.4388 79.241 92.8785 78.7649 93.1551 78.194C93.4317 77.623 93.5327 76.9829 93.4454 76.3545C93.3269 75.5134 92.8802 74.7534 92.2029 74.2408C91.5256 73.7282 90.6728 73.5047 89.8311 73.6191Z" fill="#E0E0E0"/>
<path d="M88.6528 56.3988L86.082 56.7578L88.3915 73.2949L90.9622 72.9359L88.6528 56.3988Z" fill="#E0E0E0"/>
<path d="M90.8285 54.0993L86.0059 54.7812L86.3693 57.351L91.1919 56.669L90.8285 54.0993Z" fill="#E0E0E0"/>
<path d="M91.2239 57.5939L86.6875 58.2266L87.0461 60.7974L91.5825 60.1647L91.2239 57.5939Z" fill="#E0E0E0"/>
<path d="M91.8858 62.2563L87.9258 62.8086L88.2843 65.3794L92.2443 64.8271L91.8858 62.2563Z" fill="#E0E0E0"/>
<path d="M145.5 257.587C207.822 257.587 258.344 254.637 258.344 250.998C258.344 247.36 207.822 244.41 145.5 244.41C83.1782 244.41 32.6562 247.36 32.6562 250.998C32.6562 254.637 83.1782 257.587 145.5 257.587Z" fill="#F5F5F5"/>
<path d="M85.8277 141.584C91.1934 135.979 90.5853 126.689 84.4694 120.834C78.3535 114.98 69.0459 114.777 63.6802 120.382C58.3146 125.987 58.9227 135.277 65.0386 141.132C71.1545 146.987 80.4621 147.189 85.8277 141.584Z" fill="#F30051"/>
<g opacity="0.8">
<path d="M85.8277 141.584C91.1934 135.979 90.5853 126.689 84.4694 120.834C78.3535 114.98 69.0459 114.777 63.6802 120.382C58.3146 125.987 58.9227 135.277 65.0386 141.132C71.1545 146.987 80.4621 147.189 85.8277 141.584Z" fill="white"/>
</g>
<path d="M67.914 121.778C67.7919 121.778 67.6728 121.739 67.5737 121.668C67.4746 121.596 67.4005 121.496 67.3619 121.38C67.3233 121.264 67.3221 121.139 67.3585 121.022C67.3949 120.906 67.4671 120.803 67.5648 120.73C69.5246 119.324 71.8867 118.589 74.2986 118.635C74.4529 118.635 74.601 118.696 74.7101 118.805C74.8193 118.914 74.8806 119.063 74.8806 119.217C74.8806 119.371 74.8193 119.519 74.7101 119.628C74.601 119.738 74.4529 119.799 74.2986 119.799C72.1384 119.751 70.0209 120.405 68.2632 121.661C68.1625 121.737 68.04 121.778 67.914 121.778Z" fill="#F30051"/>
<path d="M70.6658 141.798C70.5702 141.797 70.4763 141.773 70.3922 141.728C68.6086 140.774 67.0609 139.434 65.8626 137.804C64.6642 136.175 63.8455 134.298 63.4664 132.311C63.0966 130.593 63.1137 128.813 63.5163 127.102C63.919 125.391 64.6971 123.791 65.7944 122.417C65.8932 122.298 66.0352 122.224 66.1891 122.209C66.343 122.195 66.4962 122.243 66.615 122.342C66.7339 122.44 66.8086 122.582 66.8228 122.736C66.837 122.89 66.7895 123.043 66.6907 123.162C65.6994 124.405 64.9976 125.854 64.6362 127.402C64.2748 128.95 64.2629 130.56 64.6013 132.113C64.95 133.93 65.6993 135.645 66.7947 137.135C67.8901 138.625 69.304 139.852 70.9335 140.727C71.0473 140.788 71.1374 140.886 71.1896 141.004C71.2417 141.123 71.253 141.255 71.2217 141.38C71.1903 141.506 71.1181 141.617 71.0164 141.697C70.9146 141.777 70.7892 141.821 70.6599 141.821L70.6658 141.798Z" fill="#F30051"/>
<path d="M76.4932 143.314C75.1905 143.309 73.8966 143.101 72.6578 142.697C72.5849 142.674 72.5172 142.636 72.4589 142.586C72.4005 142.536 72.3525 142.475 72.3177 142.407C72.2828 142.339 72.2618 142.264 72.2557 142.188C72.2497 142.111 72.2588 142.034 72.2825 141.961C72.3061 141.888 72.344 141.821 72.3938 141.762C72.4436 141.704 72.5045 141.656 72.5728 141.621C72.6412 141.586 72.7158 141.565 72.7923 141.559C72.8688 141.553 72.9457 141.562 73.0187 141.586C76.598 142.75 80.1715 142.098 82.8196 139.84C84.163 138.654 85.1783 137.142 85.7675 135.45C86.3567 133.758 86.5 131.942 86.1835 130.179C86.1588 130.024 86.1965 129.866 86.2881 129.74C86.3798 129.613 86.518 129.528 86.6724 129.503C86.8268 129.479 86.9846 129.516 87.1112 129.608C87.2378 129.7 87.3228 129.838 87.3475 129.992C87.7004 131.952 87.5401 133.97 86.8823 135.85C86.2245 137.729 85.0916 139.407 83.5936 140.719C81.62 142.416 79.0965 143.339 76.4932 143.314Z" fill="#F30051"/>
<path d="M86.2822 128.689C86.1587 128.688 86.0386 128.649 85.9392 128.575C85.8399 128.502 85.7663 128.399 85.7293 128.281C85.194 126.629 84.3174 125.107 83.1564 123.815C81.9954 122.522 80.5759 121.488 78.9897 120.779C78.8477 120.718 78.7361 120.602 78.6793 120.458C78.6225 120.314 78.6253 120.153 78.6871 120.011C78.7488 119.869 78.8645 119.758 79.0085 119.701C79.1526 119.644 79.3133 119.647 79.4553 119.709C81.1924 120.485 82.7469 121.618 84.0182 123.034C85.2894 124.449 86.2491 126.116 86.8351 127.926C86.8828 128.073 86.8704 128.233 86.8006 128.37C86.7307 128.508 86.6092 128.612 86.4626 128.66C86.404 128.677 86.3434 128.687 86.2822 128.689Z" fill="#F30051"/>
<path d="M77.1099 120.125C77.0655 120.131 77.0204 120.131 76.976 120.125C76.1002 119.921 75.2039 119.817 74.3047 119.816C74.1503 119.816 74.0023 119.755 73.8931 119.646C73.784 119.537 73.7227 119.389 73.7227 119.234C73.7227 119.08 73.784 118.932 73.8931 118.823C74.0023 118.714 74.1503 118.652 74.3047 118.652C75.2846 118.655 76.2609 118.771 77.2147 118.996C77.369 119.013 77.51 119.092 77.6066 119.214C77.7032 119.335 77.7475 119.49 77.7297 119.645C77.712 119.799 77.6336 119.94 77.5119 120.037C77.3902 120.133 77.2352 120.177 77.0808 120.16L77.1099 120.125Z" fill="#F30051"/>
<path d="M66.8426 134.026C66.7237 134.026 66.6075 133.99 66.5097 133.923C66.4119 133.855 66.3371 133.759 66.2955 133.648C65.75 132.239 65.5581 130.719 65.7367 129.219C65.9153 127.719 66.4588 126.286 67.3198 125.046C68.1337 123.87 69.2238 122.913 70.4943 122.257C71.7648 121.601 73.1769 121.268 74.6065 121.286C74.7608 121.286 74.9089 121.347 75.018 121.456C75.1272 121.565 75.1885 121.713 75.1885 121.868C75.1885 122.022 75.1272 122.17 75.018 122.279C74.9089 122.389 74.7608 122.45 74.6065 122.45C73.3644 122.435 72.1376 122.725 71.0329 123.293C69.9282 123.861 68.9792 124.69 68.2685 125.709C67.5135 126.802 67.0385 128.063 66.8852 129.382C66.732 130.702 66.9052 132.038 67.3897 133.275C67.4424 133.419 67.4359 133.579 67.3715 133.718C67.3072 133.858 67.1903 133.966 67.0463 134.02C66.9792 134.033 66.9104 134.035 66.8426 134.026Z" fill="#F30051"/>
<path d="M76.0734 140.675C74.3289 140.616 72.6243 140.138 71.1044 139.279C69.5845 138.421 68.2943 137.209 67.3434 135.745C67.2728 135.616 67.2533 135.466 67.2889 135.324C67.3245 135.181 67.4125 135.058 67.5354 134.977C67.6582 134.897 67.8069 134.866 67.9515 134.891C68.0961 134.916 68.2261 134.994 68.3153 135.111C69.1605 136.413 70.3067 137.492 71.657 138.258C73.0073 139.024 74.5221 139.454 76.0734 139.511C76.2278 139.511 76.3758 139.572 76.4849 139.681C76.5941 139.79 76.6554 139.938 76.6554 140.093C76.6554 140.247 76.5941 140.395 76.4849 140.504C76.3758 140.613 76.2278 140.675 76.0734 140.675Z" fill="#F30051"/>
<path d="M78.2506 140.421C78.1176 140.425 77.9874 140.383 77.8815 140.303C77.7756 140.222 77.7005 140.108 77.6686 139.979C77.6317 139.829 77.6557 139.671 77.7353 139.539C77.815 139.407 77.9438 139.312 78.0934 139.275C82.8135 138.111 84.0357 133.973 83.6457 130.795C83.1394 126.651 79.8686 122.455 74.5898 122.449C74.4355 122.449 74.2874 122.388 74.1783 122.279C74.0691 122.17 74.0078 122.022 74.0078 121.867C74.0078 121.713 74.0691 121.565 74.1783 121.456C74.2874 121.346 74.4355 121.285 74.5898 121.285C80.5437 121.285 84.2336 125.999 84.8039 130.655C85.3859 135.457 82.8659 139.286 78.3728 140.404C78.3328 140.414 78.2918 140.42 78.2506 140.421Z" fill="#F30051"/>
<path d="M72.2254 125.663C72.1151 125.662 72.0073 125.63 71.9146 125.57C71.8218 125.51 71.748 125.425 71.7016 125.325C71.6361 125.186 71.6287 125.026 71.681 124.88C71.7334 124.735 71.8413 124.617 71.981 124.551C72.8732 124.157 73.8398 123.958 74.8153 123.969C74.9697 123.969 75.1177 124.031 75.2269 124.14C75.336 124.249 75.3973 124.397 75.3973 124.551C75.3973 124.706 75.336 124.854 75.2269 124.963C75.1177 125.072 74.9697 125.133 74.8153 125.133C74.0121 125.134 73.2183 125.306 72.4873 125.64C72.403 125.667 72.3134 125.675 72.2254 125.663Z" fill="#F30051"/>
<path d="M75.9684 137.962C74.4944 137.938 73.058 137.493 71.8295 136.678C70.601 135.863 69.6318 134.713 69.0368 133.364C67.832 130.739 68.1871 127.998 69.9854 126.019C70.0898 125.906 70.2347 125.839 70.3885 125.833C70.5423 125.826 70.6925 125.881 70.8061 125.985C70.9192 126.089 70.9864 126.234 70.993 126.388C70.9995 126.541 70.9449 126.692 70.841 126.805C70.1178 127.623 69.6595 128.641 69.5265 129.725C69.3935 130.808 69.5921 131.907 70.096 132.875C70.6104 134.051 71.4589 135.05 72.536 135.747C73.6132 136.444 74.8715 136.81 76.1546 136.798C77.1253 136.791 78.0733 136.503 78.884 135.969C79.6947 135.435 80.3335 134.678 80.7233 133.789C81.1617 132.74 81.2938 131.589 81.1042 130.468C80.9147 129.347 80.4113 128.303 79.6525 127.457C79.6028 127.399 79.565 127.332 79.5414 127.259C79.5177 127.186 79.5086 127.11 79.5145 127.033C79.5205 126.957 79.5414 126.883 79.576 126.815C79.6107 126.747 79.6584 126.686 79.7165 126.636C79.7746 126.587 79.8419 126.549 79.9145 126.525C79.9872 126.502 80.0638 126.493 80.14 126.498C80.2163 126.504 80.2905 126.525 80.3587 126.56C80.4268 126.595 80.4874 126.642 80.5371 126.7C81.4405 127.714 82.0377 128.963 82.2592 130.302C82.4807 131.641 82.3175 133.016 81.7884 134.266C81.3108 135.357 80.5284 136.287 79.5352 136.943C78.5419 137.6 77.3802 137.956 76.1896 137.968L75.9684 137.962Z" fill="#F30051"/>
<path d="M78.419 126.176C78.3091 126.177 78.2016 126.144 78.1105 126.083C77.1278 125.451 75.985 125.111 74.8164 125.105C74.662 125.105 74.514 125.044 74.4048 124.935C74.2957 124.826 74.2344 124.678 74.2344 124.523C74.2344 124.369 74.2957 124.221 74.4048 124.112C74.514 124.003 74.662 123.941 74.8164 123.941C76.2065 123.947 77.5659 124.351 78.7332 125.105C78.8387 125.174 78.9192 125.274 78.963 125.391C79.0067 125.509 79.0112 125.638 78.9759 125.758C78.9406 125.879 78.8672 125.984 78.7669 126.06C78.6665 126.135 78.5445 126.176 78.419 126.176Z" fill="#F30051"/>
<path d="M75.6595 135.338C74.9795 135.333 74.3088 135.18 73.6944 134.888C73.0801 134.596 72.537 134.174 72.1035 133.65C71.5442 133.01 71.1809 132.222 71.057 131.381C70.9332 130.54 71.054 129.681 71.4051 128.907C71.7185 128.204 72.2314 127.609 72.8802 127.195C73.5289 126.781 74.2849 126.567 75.0543 126.579C75.2086 126.579 75.3567 126.64 75.4658 126.749C75.575 126.858 75.6363 127.006 75.6363 127.161C75.6363 127.315 75.575 127.463 75.4658 127.572C75.3567 127.681 75.2086 127.743 75.0543 127.743C74.5101 127.733 73.9748 127.882 73.5146 128.173C73.0544 128.463 72.6893 128.882 72.4644 129.378C72.2085 129.95 72.1223 130.583 72.2162 131.202C72.3101 131.821 72.5801 132.4 72.994 132.87C73.406 133.375 73.953 133.752 74.5712 133.958C75.1894 134.165 75.8534 134.191 76.486 134.034C77.0006 133.918 77.4711 133.657 77.8416 133.281C78.212 132.906 78.4667 132.432 78.5754 131.916C78.6088 131.765 78.7004 131.634 78.8303 131.551C78.9601 131.468 79.1175 131.44 79.2679 131.473C79.3429 131.489 79.414 131.52 79.4772 131.563C79.5403 131.607 79.5943 131.662 79.6359 131.726C79.6776 131.791 79.7061 131.863 79.7198 131.938C79.7336 132.014 79.7323 132.091 79.7161 132.166C79.562 132.894 79.2029 133.563 78.6811 134.094C78.1594 134.625 77.4967 134.996 76.7712 135.163C76.4089 135.265 76.0357 135.324 75.6595 135.338Z" fill="#F30051"/>
<path d="M79.0471 130.726C78.9188 130.732 78.792 130.695 78.6868 130.621C78.5815 130.548 78.5036 130.441 78.4651 130.319C78.2329 129.589 77.7789 128.951 77.1665 128.492C76.5542 128.033 75.8139 127.776 75.0488 127.758C74.8944 127.758 74.7464 127.696 74.6373 127.587C74.5281 127.478 74.4668 127.33 74.4668 127.176C74.4668 127.021 74.5281 126.873 74.6373 126.764C74.7464 126.655 74.8944 126.594 75.0488 126.594C76.0607 126.616 77.0404 126.953 77.8519 127.558C78.6634 128.163 79.2662 129.006 79.5768 129.969C79.6003 130.042 79.6091 130.119 79.6028 130.196C79.5965 130.272 79.5752 130.346 79.54 130.415C79.5049 130.483 79.4566 130.543 79.398 130.593C79.3394 130.642 79.2716 130.68 79.1985 130.703C79.1493 130.717 79.0984 130.725 79.0471 130.726Z" fill="#F30051"/>
<path d="M75.8168 132.914C75.6625 132.914 75.5144 132.852 75.4053 132.743C75.2961 132.634 75.2348 132.486 75.2348 132.332C75.2348 132.177 75.2961 132.029 75.4053 131.92C75.5144 131.811 75.6625 131.75 75.8168 131.75C75.8963 131.75 75.9749 131.734 76.0479 131.702C76.1209 131.671 76.1867 131.625 76.2412 131.567C76.2957 131.509 76.3379 131.441 76.365 131.366C76.3921 131.291 76.4036 131.212 76.3988 131.133C76.4019 131.019 76.3825 130.907 76.3416 130.801C76.3007 130.695 76.2392 130.599 76.1607 130.517C76.0822 130.435 75.9882 130.37 75.8842 130.324C75.7802 130.279 75.6683 130.255 75.5549 130.254C75.4696 130.256 75.3855 130.275 75.3076 130.31C75.2296 130.345 75.1594 130.395 75.101 130.458C75.0413 130.528 74.9962 130.609 74.9682 130.697C74.9403 130.785 74.93 130.878 74.938 130.97C74.9426 131.046 74.9321 131.123 74.9071 131.195C74.8821 131.267 74.843 131.334 74.7922 131.391C74.7414 131.449 74.6798 131.495 74.611 131.529C74.5421 131.562 74.4674 131.582 74.3909 131.587C74.3145 131.591 74.2379 131.581 74.1655 131.556C74.0932 131.531 74.0264 131.492 73.9692 131.441C73.9119 131.39 73.8652 131.328 73.8317 131.26C73.7982 131.191 73.7786 131.116 73.774 131.04C73.7533 130.795 73.7827 130.549 73.8605 130.317C73.9383 130.085 74.0627 129.87 74.2263 129.688C74.3898 129.505 74.5889 129.358 74.8114 129.255C75.0338 129.152 75.275 129.096 75.52 129.09C75.7864 129.091 76.0501 129.144 76.2956 129.248C76.5412 129.351 76.7638 129.502 76.9505 129.692C77.1373 129.882 77.2845 130.107 77.3836 130.354C77.4827 130.602 77.5318 130.866 77.5279 131.133C77.5326 131.365 77.4908 131.596 77.4052 131.812C77.3195 132.027 77.1916 132.224 77.029 132.39C76.8664 132.556 76.6724 132.688 76.4582 132.777C76.2441 132.867 76.0142 132.914 75.7819 132.914H75.8168Z" fill="#F30051"/>
<path d="M90.7922 130.977C91.5022 139.085 85.5018 145.655 77.4062 145.655H76.7776C84.4949 145.26 90.0996 138.846 89.4128 130.995C89.0162 127.152 87.2733 123.573 84.4924 120.891C81.7114 118.209 78.0717 116.597 74.2168 116.34C74.4205 116.34 74.63 116.34 74.8395 116.34C82.9584 116.305 90.1054 122.876 90.7922 130.977Z" fill="#F30051"/>
<g opacity="0.4">
<path d="M90.7922 130.977C91.5022 139.085 85.5018 145.655 77.4062 145.655H76.7776C84.4949 145.26 90.0996 138.846 89.4128 130.995C89.0162 127.152 87.2733 123.573 84.4924 120.891C81.7114 118.209 78.0717 116.597 74.2168 116.34C74.4205 116.34 74.63 116.34 74.8395 116.34C82.9584 116.305 90.1054 122.876 90.7922 130.977Z" fill="white"/>
</g>
<path d="M102.676 59.443C102.691 59.6168 102.714 59.7897 102.746 59.961C102.966 61.0824 103.541 62.1029 104.387 62.871C105.346 63.7686 106.607 64.2734 107.92 64.2853H157.093C157.667 64.2968 158.238 64.1942 158.772 63.9832C159.306 63.7722 159.792 63.4572 160.203 63.0564C160.614 62.6557 160.942 62.1772 161.166 61.6487C161.391 61.1203 161.508 60.5525 161.511 59.9785C161.519 59.8059 161.519 59.633 161.511 59.4605C161.373 58.1574 160.766 56.949 159.802 56.0619C158.837 55.1747 157.583 54.6697 156.273 54.6415H107.088C106.471 54.629 105.859 54.7479 105.292 54.9902C104.725 55.2325 104.216 55.5926 103.798 56.0467C103.381 56.5009 103.065 57.0386 102.872 57.6241C102.678 58.2097 102.612 58.8297 102.676 59.443Z" fill="#F30051"/>
<path opacity="0.8" d="M102.676 59.443C102.691 59.6168 102.714 59.7897 102.746 59.961C102.966 61.0824 103.541 62.1029 104.387 62.871C105.346 63.7686 106.607 64.2734 107.92 64.2853H157.093C157.667 64.2968 158.238 64.1942 158.772 63.9832C159.306 63.7722 159.792 63.4572 160.203 63.0564C160.614 62.6557 160.942 62.1772 161.166 61.6487C161.391 61.1203 161.508 60.5525 161.511 59.9785C161.519 59.8059 161.519 59.633 161.511 59.4605C161.373 58.1574 160.766 56.949 159.802 56.0619C158.837 55.1747 157.583 54.6697 156.273 54.6415H107.088C106.471 54.629 105.859 54.7479 105.292 54.9902C104.725 55.2325 104.216 55.5926 103.798 56.0467C103.381 56.5009 103.065 57.0386 102.872 57.6241C102.678 58.2097 102.612 58.8297 102.676 59.443Z" fill="white"/>
<path d="M161.511 59.9449C161.511 60.1008 161.5 60.2564 161.476 60.4105C161.303 59.1369 160.679 57.9674 159.718 57.1135C158.758 56.2596 157.523 55.7775 156.238 55.7545L103.957 55.8709C104.372 55.4678 104.861 55.1503 105.399 54.9366C105.936 54.7229 106.51 54.6171 107.088 54.6255H156.261C157.571 54.6537 158.826 55.1587 159.79 56.0458C160.755 56.933 161.362 58.1413 161.499 59.4444C161.511 59.611 161.515 59.778 161.511 59.9449Z" fill="#F30051"/>
<path opacity="0.5" d="M161.511 59.9449C161.511 60.1008 161.5 60.2564 161.476 60.4105C161.303 59.1369 160.679 57.9674 159.718 57.1135C158.758 56.2596 157.523 55.7775 156.238 55.7545L103.957 55.8709C104.372 55.4678 104.861 55.1503 105.399 54.9366C105.936 54.7229 106.51 54.6171 107.088 54.6255H156.261C157.571 54.6537 158.826 55.1587 159.79 56.0458C160.755 56.933 161.362 58.1413 161.499 59.4444C161.511 59.611 161.515 59.778 161.511 59.9449Z" fill="white"/>
<path d="M153.065 56.9549L153.275 59.2829L155.463 58.4681L155.981 59.6321L153.746 60.377L155.352 62.35L154.346 63.0892L152.78 61.0405L151.616 63.0892L150.516 62.35L151.756 60.377L149.428 59.6321L149.742 58.4681L152.099 59.2538L151.89 56.9258L153.065 56.9549Z" fill="#F30051"/>
<path d="M139.593 56.953L139.802 59.281L141.99 58.4662L142.514 59.6302L140.262 60.3927L141.868 62.3657L140.867 63.1048L139.302 61.0562L138.138 63.1048L137.032 62.3657L138.277 60.3927L135.949 59.6477L136.264 58.4837L138.621 59.2694L138.417 56.9414L139.593 56.953Z" fill="#F30051"/>
<path d="M126.147 56.953L126.351 59.281L128.539 58.4662L129.063 59.6302L126.823 60.3752L128.429 62.3482L127.457 63.1048L125.891 61.0562L124.727 63.1048L123.627 62.3657L124.867 60.3927L122.539 59.6477L122.859 58.4837L125.187 59.2694L124.983 56.9414L126.147 56.953Z" fill="#F30051"/>
<path d="M112.698 56.9549L112.902 59.2829L115.096 58.4681L115.614 59.6321L113.373 60.377L114.985 62.35L113.978 63.0892L112.413 61.0405L111.249 63.0892L110.149 62.35L111.389 60.377L109.061 59.6321L109.375 58.4681L111.703 59.2538L111.499 56.9258L112.698 56.9549Z" fill="#F30051"/>
<path d="M145.297 52.3438H143.004V52.9257H145.297V52.3438Z" fill="#F30051"/>
<path d="M155.149 52.3438H147.67V52.9257H155.149V52.3438Z" fill="#F30051"/>
<path opacity="0.8" d="M231.514 74.0544L229.134 101.269C229.042 102.137 228.637 102.943 227.994 103.534C227.351 104.125 226.515 104.462 225.642 104.481H206.744C206.335 104.484 205.93 104.4 205.556 104.235C205.182 104.07 204.846 103.828 204.572 103.525C204.297 103.222 204.089 102.864 203.962 102.476C203.835 102.087 203.792 101.676 203.834 101.269L206.215 74.0486C206.303 73.1786 206.707 72.3711 207.35 71.7791C207.994 71.187 208.832 70.8515 209.707 70.836H228.604C229.014 70.8337 229.419 70.9178 229.794 71.083C230.169 71.2481 230.504 71.4905 230.779 71.7943C231.054 72.0981 231.261 72.4564 231.388 72.8459C231.514 73.2354 231.557 73.6472 231.514 74.0544Z" fill="#F30051"/>
<path opacity="0.8" d="M231.514 74.0544L229.134 101.269C229.042 102.137 228.637 102.943 227.994 103.534C227.351 104.125 226.515 104.462 225.642 104.481H206.744C206.335 104.484 205.93 104.4 205.556 104.235C205.182 104.07 204.846 103.828 204.572 103.525C204.297 103.222 204.089 102.864 203.962 102.476C203.835 102.087 203.792 101.676 203.834 101.269L206.215 74.0486C206.303 73.1786 206.707 72.3711 207.35 71.7791C207.994 71.187 208.832 70.8515 209.707 70.836H228.604C229.014 70.8337 229.419 70.9178 229.794 71.083C230.169 71.2481 230.504 71.4905 230.779 71.7943C231.054 72.0981 231.261 72.4564 231.388 72.8459C231.514 73.2354 231.557 73.6472 231.514 74.0544Z" fill="white"/>
<path d="M207.938 78.4421H207.885C207.732 78.4288 207.59 78.3551 207.49 78.2373C207.391 78.1195 207.343 77.9671 207.356 77.8136L207.577 75.3226C207.59 75.1775 207.657 75.0426 207.765 74.9445C207.872 74.8465 208.013 74.7924 208.159 74.793H210.789C210.944 74.793 211.092 74.8543 211.201 74.9634C211.31 75.0726 211.371 75.2206 211.371 75.375C211.371 75.5293 211.31 75.6774 211.201 75.7865C211.092 75.8957 210.944 75.957 210.789 75.957H208.694L208.52 77.9125C208.506 78.0576 208.439 78.1925 208.332 78.2906C208.224 78.3886 208.083 78.4427 207.938 78.4421Z" fill="#F30051"/>
<path d="M229.099 78.4421H229.047C228.893 78.4288 228.751 78.3551 228.652 78.2373C228.553 78.1195 228.504 77.9671 228.517 77.8136L228.68 75.957H226.689C226.535 75.957 226.387 75.8957 226.278 75.7865C226.169 75.6774 226.107 75.5293 226.107 75.375C226.107 75.2206 226.169 75.0726 226.278 74.9634C226.387 74.8543 226.535 74.793 226.689 74.793H229.308C229.389 74.7926 229.47 74.8093 229.544 74.8417C229.618 74.8742 229.685 74.9218 229.74 74.9815C229.794 75.0412 229.836 75.1117 229.862 75.1885C229.888 75.2653 229.898 75.3466 229.89 75.4274L229.669 77.9125C229.656 78.0556 229.591 78.1889 229.486 78.2867C229.38 78.3845 229.243 78.4398 229.099 78.4421Z" fill="#F30051"/>
<path d="M208.937 97.2245H206.307C206.227 97.2242 206.148 97.2075 206.075 97.1755C206.002 97.1435 205.936 97.0967 205.882 97.0382C205.827 96.979 205.786 96.9091 205.76 96.8329C205.734 96.7568 205.724 96.6761 205.731 96.5959L205.946 94.1049C205.959 93.9506 206.033 93.8078 206.151 93.7079C206.27 93.608 206.423 93.5593 206.577 93.5724C206.732 93.5855 206.875 93.6594 206.974 93.7779C207.074 93.8963 207.123 94.0495 207.11 94.2039L206.947 96.0605H208.937C209.092 96.0605 209.24 96.1218 209.349 96.2309C209.458 96.3401 209.519 96.4881 209.519 96.6425C209.519 96.7968 209.458 96.9449 209.349 97.054C209.24 97.1632 209.092 97.2245 208.937 97.2245Z" fill="#F30051"/>
<path d="M227.451 97.2254H224.826C224.672 97.2254 224.524 97.1641 224.415 97.0549C224.305 96.9458 224.244 96.7978 224.244 96.6434C224.244 96.4891 224.305 96.341 224.415 96.2319C224.524 96.1227 224.672 96.0614 224.826 96.0614H226.921L227.09 94.1059C227.103 93.9524 227.177 93.8104 227.295 93.7112C227.413 93.6119 227.565 93.5634 227.719 93.5763C227.872 93.5896 228.014 93.6632 228.113 93.7811C228.213 93.8989 228.261 94.0513 228.248 94.2048L228.033 96.6958C228.02 96.8409 227.953 96.9758 227.845 97.0739C227.737 97.1719 227.597 97.226 227.451 97.2254Z" fill="#F30051"/>
<path d="M225.448 87.8417C226.762 82.7466 224.507 77.7599 220.411 76.7036C216.315 75.6474 211.929 78.9215 210.615 84.0167C209.301 89.1118 211.557 94.0984 215.653 95.1547C219.749 96.211 224.134 92.9368 225.448 87.8417Z" fill="white"/>
<path d="M220.316 100.412H212.779L213.437 92.875H220.974L220.316 100.412Z" fill="white"/>
<path d="M229.134 101.27C229.042 102.139 228.637 102.944 227.994 103.536C227.351 104.127 226.515 104.464 225.642 104.483H206.744C206.335 104.485 205.93 104.401 205.556 104.237C205.182 104.072 204.846 103.83 204.572 103.527C204.297 103.224 204.089 102.866 203.962 102.477C203.835 102.088 203.792 101.677 203.834 101.27C203.834 101.27 212.518 98.5234 213.588 98.5234H220.299L229.134 101.27Z" fill="white"/>
<path d="M232.611 82.0092L231.73 92.6992L232.311 92.747L233.191 82.057L232.611 82.0092Z" fill="#F30051"/>
<path d="M233.224 77.1151L233.051 79.2148L233.631 79.2626L233.804 77.1629L233.224 77.1151Z" fill="#F30051"/>
<path d="M212.943 142.051H210.65V142.633H212.943V142.051Z" fill="#F30051"/>
<path d="M222.795 142.051H215.316V142.633H222.795V142.051Z" fill="#F30051"/>
<path d="M236.484 132.114L235.034 148.701C234.959 149.434 234.618 150.115 234.075 150.613C233.533 151.112 232.826 151.394 232.09 151.408C231.743 151.414 231.399 151.346 231.08 151.209C230.762 151.072 230.476 150.869 230.242 150.613C230.008 150.357 229.831 150.054 229.723 149.724C229.615 149.395 229.579 149.046 229.616 148.701L231.054 132.114C231.187 130.877 231.057 129.626 230.67 128.443C230.283 127.26 229.65 126.173 228.811 125.254C227.972 124.335 226.947 123.605 225.805 123.112C224.662 122.619 223.428 122.375 222.184 122.395H216.271C213.626 122.445 211.091 123.461 209.144 125.252C207.197 127.042 205.973 129.483 205.702 132.114L205.12 138.889H199.707L200.289 132.114C201.017 123.768 208.402 116.982 216.742 116.982H222.679C224.615 116.95 226.537 117.331 228.316 118.098C230.094 118.866 231.689 120.003 232.995 121.434C234.301 122.865 235.287 124.557 235.888 126.399C236.49 128.24 236.693 130.188 236.484 132.114Z" fill="#F30051"/>
<g opacity="0.5">
<path d="M236.484 132.114L235.034 148.701C234.959 149.434 234.618 150.115 234.075 150.613C233.533 151.112 232.826 151.394 232.09 151.408C231.743 151.414 231.399 151.346 231.08 151.209C230.762 151.072 230.476 150.869 230.242 150.613C230.008 150.357 229.831 150.054 229.723 149.724C229.615 149.395 229.579 149.046 229.616 148.701L231.054 132.114C231.187 130.877 231.057 129.626 230.67 128.443C230.283 127.26 229.65 126.173 228.811 125.254C227.972 124.335 226.947 123.605 225.805 123.112C224.662 122.619 223.428 122.375 222.184 122.395H216.271C213.626 122.445 211.091 123.461 209.144 125.252C207.197 127.042 205.973 129.483 205.702 132.114L205.12 138.889H199.707L200.289 132.114C201.017 123.768 208.402 116.982 216.742 116.982H222.679C224.615 116.95 226.537 117.331 228.316 118.098C230.094 118.866 231.689 120.003 232.995 121.434C234.301 122.865 235.287 124.557 235.888 126.399C236.49 128.24 236.693 130.188 236.484 132.114Z" fill="white"/>
</g>
<path d="M236.874 148.098L234.052 180.422C233.949 181.424 233.483 182.354 232.74 183.035C231.998 183.717 231.032 184.102 230.024 184.118H197.7C197.226 184.126 196.757 184.034 196.322 183.847C195.887 183.66 195.497 183.382 195.177 183.033C194.858 182.683 194.617 182.269 194.47 181.819C194.323 181.369 194.273 180.893 194.324 180.422L197.153 148.098C197.218 147.453 197.434 146.833 197.784 146.288C198.134 145.743 198.608 145.288 199.167 144.961C199.773 144.589 200.469 144.388 201.18 144.379H233.499C234.159 144.375 234.807 144.559 235.367 144.909C235.89 145.248 236.308 145.726 236.574 146.289C236.84 146.852 236.944 147.479 236.874 148.098Z" fill="#F30051"/>
<path d="M203.264 162.214L211.662 175.14L239.359 147.443C239.402 147.391 239.425 147.326 239.424 147.259C239.423 147.193 239.398 147.128 239.354 147.078C239.309 147.028 239.248 146.996 239.182 146.987C239.116 146.978 239.049 146.993 238.993 147.029L212.599 167.72L207.611 159.682L203.264 162.214Z" fill="white"/>
<path d="M71.0046 99.7043H49.9478C48.9735 99.6866 48.0394 99.3127 47.322 98.6532C46.6046 97.9938 46.1536 97.0944 46.0542 96.125L44.2326 75.0799C44.182 74.6242 44.2292 74.1629 44.371 73.7269C44.5129 73.2909 44.7461 72.8901 45.0551 72.5514C45.3641 72.2126 45.7418 71.9437 46.163 71.7625C46.5842 71.5813 47.0391 71.492 47.4976 71.5006H68.5311C69.5017 71.5226 70.4308 71.8986 71.1436 72.5578C71.8564 73.217 72.3037 74.1139 72.4014 75.0799L74.2405 96.1133C74.2925 96.5675 74.2473 97.0275 74.108 97.4629C73.9687 97.8983 73.7384 98.299 73.4324 98.6386C73.1264 98.9782 72.7516 99.2488 72.3331 99.4326C71.9145 99.6163 71.4617 99.7089 71.0046 99.7043Z" fill="#F30051"/>
<path opacity="0.8" d="M71.0046 99.7043H49.9478C48.9735 99.6866 48.0394 99.3127 47.322 98.6532C46.6046 97.9938 46.1536 97.0944 46.0542 96.125L44.2326 75.0799C44.182 74.6242 44.2292 74.1629 44.371 73.7269C44.5129 73.2909 44.7461 72.8901 45.0551 72.5514C45.3641 72.2126 45.7418 71.9437 46.163 71.7625C46.5842 71.5813 47.0391 71.492 47.4976 71.5006H68.5311C69.5017 71.5226 70.4308 71.8986 71.1436 72.5578C71.8564 73.217 72.3037 74.1139 72.4014 75.0799L74.2405 96.1133C74.2925 96.5675 74.2473 97.0275 74.108 97.4629C73.9687 97.8983 73.7384 98.299 73.4324 98.6386C73.1264 98.9782 72.7516 99.2488 72.3331 99.4326C71.9145 99.6163 71.4617 99.7089 71.0046 99.7043Z" fill="white"/>
<path d="M46.0664 87.7275C46.0664 87.7275 53.5451 77.3155 59.0508 77.5832C64.5565 77.8509 73.7056 87.4772 73.7056 87.4772C73.7056 87.4772 60.2206 94.5601 46.0664 87.7275Z" fill="white"/>
<path d="M46.3054 87.8833L45.834 87.5457C46.1366 87.1209 53.2661 77.2734 58.8417 77.2734H59.0687C64.6326 77.5412 73.5372 86.8648 73.9155 87.2606L73.4964 87.6621C73.4033 87.569 64.3707 78.1115 59.0396 77.8554H58.8417C53.5455 77.8671 46.3752 87.796 46.3054 87.8833Z" fill="#263238"/>
<path d="M45.2921 88.0916C44.163 88.0916 42.6963 87.6725 42.1784 86.0779C42.1545 86.0045 42.1607 85.9247 42.1956 85.856C42.2305 85.7872 42.2913 85.7352 42.3646 85.7112C42.4009 85.6986 42.4393 85.6934 42.4776 85.696C42.5159 85.6985 42.5533 85.7088 42.5876 85.7262C42.6218 85.7436 42.6522 85.7678 42.6769 85.7972C42.7016 85.8266 42.7201 85.8607 42.7313 85.8974C43.4006 87.9577 45.9032 87.463 46.0079 87.4397C46.0834 87.4258 46.1613 87.4417 46.2253 87.484C46.2894 87.5264 46.3345 87.5918 46.3513 87.6667C46.3589 87.7042 46.3591 87.7428 46.3519 87.7803C46.3446 87.8178 46.33 87.8535 46.3089 87.8854C46.2879 87.9173 46.2607 87.9447 46.229 87.9661C46.1974 87.9875 46.1618 88.0025 46.1243 88.0101C45.8502 88.0643 45.5715 88.0916 45.2921 88.0916Z" fill="#263238"/>
<path d="M49.7332 83.6244C49.6683 83.6257 49.6048 83.6052 49.5528 83.5662C49.4655 83.4964 47.3994 81.9017 46.8756 80.2779C46.8518 80.2046 46.858 80.1248 46.8929 80.0561C46.9278 79.9873 46.9886 79.9353 47.0619 79.9113C47.1352 79.889 47.2143 79.8959 47.2827 79.9306C47.351 79.9653 47.4033 80.0251 47.4285 80.0975C47.8999 81.5467 49.8846 83.089 49.9078 83.1006C49.9687 83.1478 50.0084 83.2172 50.0182 83.2935C50.028 83.3699 50.0072 83.447 49.9602 83.508C49.9337 83.5434 49.8995 83.5723 49.8602 83.5924C49.8208 83.6126 49.7774 83.6236 49.7332 83.6244Z" fill="#263238"/>
<path d="M54.0048 79.6606C53.9286 79.6562 53.8569 79.6232 53.804 79.5681C53.7511 79.5131 53.721 79.4401 53.7197 79.3638C53.3798 78.0961 52.9579 76.8519 52.4567 75.639C52.3112 75.2548 52.2065 74.9755 52.1832 74.9056C52.1716 74.8686 52.1675 74.8296 52.1713 74.7909C52.175 74.7523 52.1864 74.7148 52.2048 74.6806C52.2233 74.6464 52.2484 74.6163 52.2786 74.592C52.3089 74.5677 52.3437 74.5496 52.3811 74.539C52.4177 74.5283 52.4562 74.5249 52.4942 74.5291C52.5322 74.5332 52.569 74.5448 52.6025 74.5632C52.636 74.5816 52.6655 74.6064 52.6895 74.6362C52.7134 74.666 52.7312 74.7002 52.7419 74.7369C52.7419 74.8067 52.8641 75.0628 52.998 75.4294C53.8128 77.5654 54.3133 78.968 54.3017 79.3754C54.3017 79.4139 54.294 79.4519 54.2789 79.4873C54.2638 79.5227 54.2418 79.5546 54.2141 79.5813C54.1863 79.6079 54.1535 79.6287 54.1176 79.6423C54.0816 79.6559 54.0433 79.6621 54.0048 79.6606Z" fill="#263238"/>
<path d="M59.0511 77.871C58.9786 77.8687 58.9093 77.8404 58.8559 77.7912C58.8025 77.7421 58.7685 77.6754 58.7601 77.6033L58.3527 72.9473C58.3458 72.8701 58.3698 72.7933 58.4195 72.7338C58.4691 72.6744 58.5404 72.637 58.6175 72.6301C58.6947 72.6231 58.7715 72.6471 58.831 72.6968C58.8905 72.7465 58.9278 72.8177 58.9347 72.8949L59.3421 77.5858C59.3471 77.6618 59.3227 77.7368 59.274 77.7953C59.2252 77.8538 59.1559 77.8913 59.0802 77.9001L59.0511 77.871Z" fill="#263238"/>
<path d="M74.5787 87.7732C74.294 87.7746 74.0096 87.7512 73.729 87.7033C73.6915 87.6957 73.6559 87.6808 73.6242 87.6594C73.5926 87.638 73.5654 87.6106 73.5443 87.5787C73.5233 87.5468 73.5087 87.5111 73.5014 87.4735C73.4941 87.436 73.4943 87.3974 73.502 87.36C73.5082 87.3224 73.522 87.2864 73.5426 87.2544C73.5632 87.2223 73.5901 87.1948 73.6217 87.1736C73.6534 87.1523 73.689 87.1377 73.7264 87.1308C73.7639 87.1238 73.8024 87.1245 73.8395 87.133C73.8395 87.133 75.2654 87.4065 76.1384 86.7896C76.3252 86.6537 76.481 86.4796 76.5953 86.2789C76.7097 86.0783 76.7801 85.8556 76.8019 85.6256C76.8077 85.5874 76.8209 85.5507 76.8408 85.5176C76.8607 85.4845 76.8869 85.4556 76.918 85.4326C76.9491 85.4096 76.9844 85.393 77.0219 85.3837C77.0594 85.3744 77.0984 85.3725 77.1366 85.3783C77.1748 85.384 77.2115 85.3972 77.2446 85.4171C77.2777 85.437 77.3066 85.4633 77.3296 85.4944C77.3525 85.5254 77.3691 85.5607 77.3785 85.5982C77.3878 85.6357 77.3897 85.6747 77.3839 85.7129C77.3488 86.0192 77.2498 86.3146 77.0934 86.5803C76.937 86.8459 76.7267 87.0758 76.476 87.2552C75.9105 87.6157 75.2489 87.7963 74.5787 87.7732Z" fill="#263238"/>
<path d="M69.3522 83.3133C69.3113 83.3136 69.2707 83.3049 69.2335 83.2878C69.1963 83.2707 69.1633 83.2457 69.1369 83.2144C69.1096 83.1873 69.0879 83.1552 69.0732 83.1197C69.0584 83.0842 69.0508 83.0462 69.0508 83.0078C69.0508 82.9694 69.0584 82.9313 69.0732 82.8959C69.0879 82.8604 69.1096 82.8282 69.1369 82.8012C69.1369 82.8012 70.8829 81.2647 71.0691 79.833C71.082 79.7572 71.1238 79.6894 71.1856 79.6438C71.2475 79.5982 71.3247 79.5784 71.4008 79.5885C71.4387 79.5942 71.4751 79.6073 71.5078 79.6271C71.5406 79.6468 71.5692 79.6729 71.5919 79.7037C71.6146 79.7345 71.631 79.7695 71.6402 79.8067C71.6493 79.8438 71.6511 79.8824 71.6453 79.9203C71.4008 81.5615 69.5966 83.1678 69.521 83.2377C69.4755 83.2821 69.4157 83.309 69.3522 83.3133Z" fill="#263238"/>
<path d="M64.4332 79.9344H64.3809C64.305 79.9202 64.2377 79.877 64.1931 79.814C64.1486 79.7509 64.1303 79.6731 64.1422 79.5968C64.1422 79.5619 64.7824 75.8196 64.8988 75.0514C64.9046 75.0132 64.9178 74.9765 64.9377 74.9434C64.9576 74.9102 64.9839 74.8814 65.0149 74.8584C65.046 74.8354 65.0813 74.8188 65.1188 74.8095C65.1563 74.8002 65.1953 74.7983 65.2335 74.804C65.2717 74.8098 65.3084 74.823 65.3415 74.8429C65.3746 74.8628 65.4035 74.8891 65.4265 74.9201C65.4494 74.9512 65.4661 74.9865 65.4754 75.024C65.4847 75.0615 65.4866 75.1005 65.4808 75.1387C65.3644 75.9128 64.73 79.6608 64.7242 79.6957C64.7118 79.7635 64.6758 79.8247 64.6225 79.8684C64.5692 79.9121 64.5021 79.9355 64.4332 79.9344Z" fill="#263238"/>
<path d="M64.6052 88.9456C67.0147 86.4287 66.7393 82.2549 63.9902 79.6232C61.2411 76.9915 57.0592 76.8984 54.6498 79.4154C52.2403 81.9323 52.5157 86.1061 55.2648 88.7378C58.014 91.3695 62.1958 91.4626 64.6052 88.9456Z" fill="#F30051"/>
<path opacity="0.3" d="M62.3557 84.177C62.3644 84.0297 62.3644 83.882 62.3557 83.7347C62.2776 82.9759 61.9241 82.2721 61.3622 81.7562C60.8002 81.2404 60.0687 80.9484 59.3061 80.9353C58.9476 80.929 58.5919 80.9992 58.2626 81.141C57.9334 81.2829 57.6381 81.4932 57.3964 81.758C57.1547 82.0228 56.9722 82.3361 56.8609 82.6769C56.7496 83.0177 56.7122 83.3783 56.7511 83.7347C56.7607 83.8848 56.7881 84.0333 56.8326 84.177H53.0379C52.9452 83.3378 53.0323 82.4884 53.2936 81.6856C53.5548 80.8827 53.9842 80.1446 54.5531 79.5207C55.1219 78.8968 55.8172 78.4012 56.5927 78.0671C57.3681 77.733 58.2058 77.5679 59.05 77.583C60.845 77.6161 62.5659 78.3051 63.8879 79.5198C65.2099 80.7346 66.0416 82.3912 66.226 84.177H62.3557Z" fill="black"/>
<path opacity="0.7" d="M62.35 83.7334C62.3587 83.8807 62.3587 84.0284 62.35 84.1757C62.3081 84.8236 62.0179 85.4303 61.5397 85.8694C61.0616 86.3085 60.4324 86.5462 59.7834 86.5328C59.0992 86.52 58.4383 86.2822 57.9028 85.8562C57.3673 85.4301 56.9871 84.8395 56.821 84.1757C56.7765 84.032 56.7491 83.8835 56.7395 83.7334C56.7006 83.377 56.7381 83.0164 56.8493 82.6756C56.9606 82.3348 57.1431 82.0215 57.3848 81.7567C57.6265 81.4919 57.9218 81.2816 58.2511 81.1397C58.5803 80.9979 58.936 80.9277 59.2945 80.934C60.0582 80.9456 60.7911 81.2371 61.3542 81.753C61.9174 82.269 62.2717 82.9736 62.35 83.7334Z" fill="black"/>
<path opacity="0.7" d="M63.8704 80.985C63.9018 81.2755 63.8711 81.5694 63.7802 81.8471C63.6894 82.1248 63.5405 82.38 63.3434 82.5958C63.1463 82.8116 62.9056 82.983 62.6373 83.0986C62.3689 83.2142 62.079 83.2714 61.7869 83.2664C61.1664 83.2541 60.5719 83.0153 60.1152 82.5951C59.6586 82.1749 59.3713 81.6023 59.3075 80.985C59.2752 80.6943 59.3052 80.4 59.3957 80.1219C59.4863 79.8437 59.6351 79.5881 59.8324 79.3721C60.0296 79.1562 60.2707 78.9848 60.5395 78.8695C60.8083 78.7542 61.0987 78.6976 61.3911 78.7035C62.0119 78.7146 62.6071 78.953 63.0641 79.3734C63.521 79.7939 63.8079 80.3672 63.8704 80.985Z" fill="white"/>
<path d="M54.8595 68.8984H52.5664V69.4804H54.8595V68.8984Z" fill="#F30051"/>
<path d="M64.7131 68.8984H57.2344V69.4804H64.7131V68.8984Z" fill="#F30051"/>
<path d="M160.632 111.538L160.83 111.776L161.098 112.085C161.29 112.289 161.476 112.504 161.68 112.702C162.082 113.121 162.518 113.528 162.96 113.941C163.844 114.757 164.771 115.524 165.737 116.24C166.72 116.974 167.756 117.643 168.792 118.306C169.374 118.621 169.851 118.952 170.398 119.255L171.661 119.953C171.845 120.034 172.051 120.047 172.243 119.988C172.651 119.866 174.99 117.55 175.735 116.688C177.388 114.797 179.891 112.306 181.241 110.188L182.748 112.265C181.796 114.861 180.531 117.331 178.983 119.622C178.15 120.86 177.152 121.978 176.015 122.945C175.332 123.52 174.562 123.982 173.733 124.313C172.683 124.732 171.529 124.819 170.428 124.563C170.143 124.493 169.864 124.4 169.595 124.284L169.071 124.057L168.129 123.626C167.494 123.347 166.883 123.009 166.266 122.7C165.033 122.042 163.836 121.318 162.681 120.53C161.517 119.729 160.4 118.862 159.335 117.934C158.782 117.451 158.287 116.962 157.781 116.432C157.53 116.17 157.274 115.897 157.03 115.612L156.669 115.169C156.535 115.006 156.436 114.884 156.256 114.634L160.632 111.538Z" fill="#FFB573"/>
<path d="M181.002 110.508L183.702 104.734L186.281 109.355C186.281 109.355 184.587 112.265 182.748 112.265L181.002 110.508Z" fill="#FFB573"/>
<path d="M186.763 102.336L189.486 105.84L186.303 109.349L183.725 104.734L186.763 102.336Z" fill="#FFB573"/>
<path d="M185.815 110.943H190.104C190.225 110.943 190.341 110.897 190.431 110.815C190.52 110.733 190.576 110.621 190.587 110.501L191.478 100.217C191.484 100.15 191.477 100.082 191.455 100.018C191.434 99.9539 191.399 99.8949 191.354 99.845C191.308 99.7951 191.253 99.7553 191.191 99.7282C191.129 99.7011 191.062 99.6872 190.995 99.6875H186.711C186.589 99.6885 186.472 99.7351 186.383 99.818C186.293 99.9009 186.238 100.014 186.228 100.136L185.326 110.414C185.32 110.481 185.329 110.549 185.351 110.613C185.373 110.677 185.408 110.736 185.454 110.786C185.5 110.836 185.556 110.876 185.618 110.903C185.68 110.93 185.747 110.944 185.815 110.943Z" fill="#F30051"/>
<path opacity="0.3" d="M185.861 109.916H190.156L190.96 100.727H186.664L185.861 109.916Z" fill="white"/>
<path d="M185.581 108.613L186.344 108.223C186.732 108.026 187.09 107.775 187.409 107.478L187.548 106.972C187.467 106.837 187.345 106.732 187.199 106.672C187.053 106.612 186.892 106.601 186.74 106.64L186.105 106.815L182.957 107.053L182.881 108.38L183.8 109.8H184.115C184.461 109.812 184.801 109.699 185.07 109.481C185.34 109.263 185.521 108.954 185.581 108.613Z" fill="#FFB573"/>
<path d="M155.137 105.923C157.319 105.527 172.713 118.872 172.713 118.872L168.15 125.565C168.15 125.565 151.319 113.844 151.854 111.015C152.372 108.041 151.959 106.505 155.137 105.923Z" fill="#263238"/>
<path opacity="0.2" d="M157.081 110.188L156.912 117.171C158.658 118.528 164.967 123.364 164.967 123.364L157.081 110.188Z" fill="black"/>
<path d="M144.877 244.62L150.039 245.127L151.681 233.155L146.512 232.648L144.877 244.62Z" fill="#FFB573"/>
<path d="M94.0516 174.371L92.7305 179.4L103.899 184.213L106.215 179.109L94.0516 174.371Z" fill="#FFB573"/>
<path d="M153.735 246.186C154.179 246.24 154.629 246.142 155.01 245.907C155.092 245.835 155.156 245.745 155.196 245.644C155.237 245.542 155.252 245.433 155.242 245.325C155.242 245.257 155.224 245.19 155.189 245.131C155.154 245.073 155.104 245.025 155.044 244.993C154.422 244.62 152.315 245.621 152.076 245.732C152.053 245.743 152.034 245.76 152.022 245.782C152.009 245.804 152.004 245.829 152.006 245.854C152.01 245.88 152.021 245.904 152.039 245.923C152.057 245.941 152.08 245.954 152.105 245.959C152.641 246.084 153.186 246.16 153.735 246.186ZM154.672 245.144C154.753 245.138 154.834 245.156 154.905 245.196C154.929 245.209 154.95 245.228 154.964 245.252C154.979 245.276 154.986 245.303 154.986 245.33C154.992 245.403 154.981 245.476 154.954 245.544C154.927 245.612 154.884 245.672 154.829 245.72C154.509 245.994 153.665 246.017 152.501 245.796C153.188 245.453 153.928 245.231 154.689 245.138L154.672 245.144Z" fill="#F30051"/>
<path d="M152.128 245.934H152.175C152.804 245.672 154.067 244.59 153.985 243.996C153.962 243.893 153.905 243.801 153.822 243.735C153.739 243.67 153.637 243.634 153.531 243.635C153.41 243.613 153.285 243.617 153.166 243.647C153.046 243.677 152.935 243.733 152.838 243.81C152.169 244.328 152.012 245.731 152 245.783C151.995 245.804 151.995 245.826 152 245.848C152.005 245.869 152.015 245.889 152.03 245.905C152.043 245.917 152.059 245.925 152.076 245.93C152.093 245.935 152.111 245.937 152.128 245.934ZM153.415 243.857H153.485C153.711 243.892 153.723 243.979 153.723 244.008C153.776 244.363 152.914 245.224 152.268 245.568C152.33 244.978 152.579 244.423 152.978 243.985C153.108 243.891 153.268 243.852 153.426 243.874L153.415 243.857Z" fill="#F30051"/>
<path d="M149.784 243.043L145.128 243.241C145.027 243.242 144.931 243.28 144.857 243.348C144.783 243.415 144.736 243.508 144.726 243.608L143.609 250.109C143.602 250.219 143.618 250.33 143.655 250.435C143.692 250.539 143.749 250.635 143.823 250.717C143.897 250.8 143.987 250.866 144.087 250.914C144.187 250.961 144.295 250.988 144.406 250.993H144.499C146.53 250.889 147.508 250.737 150.081 250.65C151.658 250.598 156.483 251.168 158.636 250.679C160.789 250.19 160.382 248.054 159.457 248.072C156.465 248.13 153.014 246.18 151.309 243.899C151.012 243.707 150.11 243.026 149.784 243.043Z" fill="#263238"/>
<path d="M95.1044 180.058L97.4789 176.025C97.5327 175.94 97.5524 175.837 97.5341 175.738C97.5157 175.639 97.4607 175.55 97.38 175.489L92.5378 171.025C92.3578 170.898 92.1353 170.847 91.9178 170.882C91.7004 170.916 91.5051 171.035 91.3738 171.212L91.3214 171.293C90.3087 173.039 89.9071 173.959 88.586 176.165C87.7712 177.521 84.6633 181.286 83.93 183.341C83.1967 185.395 85.1871 186.251 85.676 185.447C87.2532 182.898 90.7627 181.059 93.6145 180.838C93.888 180.733 94.9414 180.343 95.1044 180.058Z" fill="#263238"/>
<path opacity="0.2" d="M151.68 233.153L150.836 239.328L145.668 238.822L146.506 232.652L151.68 233.153Z" fill="black"/>
<path opacity="0.2" d="M109.648 180.355L107.262 185.739L100.068 182.561L101.902 177.434L109.648 180.355Z" fill="black"/>
<path d="M158.438 112.063C161.389 117.08 157.78 121.311 154.766 136.303L135.315 136.356C135.629 128.277 135.594 121.747 132.149 105.853C132.06 105.461 132.06 105.055 132.15 104.663C132.239 104.271 132.417 103.905 132.668 103.592C132.919 103.278 133.238 103.026 133.601 102.853C133.963 102.68 134.36 102.592 134.762 102.594C136.368 102.594 138.388 102.646 140.442 102.856C143.683 103.121 146.901 103.609 150.075 104.317C151.796 104.732 153.487 105.26 155.138 105.9C156.139 106.237 157.344 108.961 158.438 112.063Z" fill="#263238"/>
<path d="M155.486 137.317C155.486 137.317 166.41 168.902 166.148 184.092C165.997 192.793 165.339 209.007 162.714 220.409C160.573 229.721 151.843 235.657 151.843 235.657L144.859 235.244C144.859 235.244 141.076 221.043 141.733 215.392C143.043 204.142 146.925 195.691 146.453 185.361C145.708 168.448 140.703 137.055 140.703 137.055L155.486 137.317Z" fill="#BC0743"/>
<path d="M143.457 237.063L153.322 237.645L154.218 234.683L143.195 233.664L143.457 237.063Z" fill="#263238"/>
<path opacity="0.2" d="M144.703 201.125C144.703 201.125 144.703 201.066 144.761 201.072C150.96 201.654 155.237 192.732 154.219 180.516L150.931 149.379L144.703 201.125Z" fill="black"/>
<path d="M150.586 137.053C150.586 137.053 159.27 192.593 141.216 198.843C131.689 202.452 123.675 198.541 114.182 194.339C108.694 191.912 101.838 185.341 101.838 185.341L104.474 178.165C109.216 176.883 114.178 176.633 119.024 177.432C128.278 178.863 128.668 181.506 131.956 179.509C138.871 162.422 126.974 148.914 135.058 137.023L150.586 137.053Z" fill="#BC0743"/>
<path d="M104.992 176.805L101.465 186.111L104.061 188.095L108.251 177.02L104.992 176.805Z" fill="#263238"/>
<path d="M103.538 126.62C102.659 127.918 98.2006 127.039 98.2006 127.039L97.252 121.516L102.729 123.71L103.538 126.62Z" fill="#FFB573"/>
<path d="M98.358 121.23L99.2077 126.969L95.9194 127.458C95.7412 127.474 95.5633 127.424 95.4203 127.316C95.2772 127.208 95.1792 127.052 95.1453 126.876L93.8824 122.802C93.8609 122.707 93.8767 122.608 93.9266 122.524C93.9764 122.441 94.0565 122.38 94.1501 122.354L98.358 121.23Z" fill="#FFB573"/>
<path d="M96.8847 123.83L98.7588 124.161L100.534 122.829L99.8471 122.34C99.3817 122.008 99.0545 121.517 98.9276 120.96C98.7956 120.377 98.7157 119.783 98.689 119.185V118.987C98.6666 118.812 98.5873 118.649 98.4633 118.523C98.3392 118.396 98.1773 118.314 98.0022 118.289L97.5366 118.632C97.2456 119.267 97.4551 120.006 97.4202 120.501L97.3445 121.461L96.5938 121.787L96.8847 123.83Z" fill="#FFB573"/>
<path d="M133.086 104.758L122.074 119.89L101.85 123.882V127.2C101.85 127.2 120.858 128.608 125.13 126.123C129.401 123.638 136.566 108.564 136.566 108.564L133.086 104.758Z" fill="#FFB573"/>
<path d="M132.958 75.6584C128.337 74.1103 122.976 76.9795 120.864 81.3678C118.751 85.7561 119.49 91.1396 121.871 95.3882C122.586 96.6744 123.442 97.885 124.03 99.2294C124.683 100.562 124.826 102.088 124.431 103.519C123.954 104.91 123.465 105.8 121.743 105.579C121.743 105.579 121.743 104.625 122.4 104.741C122.4 104.741 121.003 105.515 120.456 105.009C121.091 105.986 122.784 105.631 123.326 104.595C124.135 103.053 122.645 100.964 120.899 100.981C119.153 100.999 117.733 102.768 117.791 104.508C117.864 105.379 118.173 106.212 118.686 106.919C119.199 107.626 119.896 108.179 120.701 108.518C120.229 108.596 119.745 108.515 119.324 108.289C118.903 108.063 118.568 107.703 118.373 107.267C119.164 109.339 121.748 110.252 123.931 109.845C126.113 109.438 127.958 108.041 129.669 106.627C131.997 104.718 134.378 102.302 134.325 99.3167C134.273 97.0876 132.841 95.1729 131.637 93.293C130.432 91.4132 129.378 89.1201 130.147 87.0307C130.793 85.2556 132.55 84.1847 134.098 83.1022C135.216 82.3281 137.486 80.5996 137.218 78.9642C136.944 77.4044 134.267 76.0949 132.958 75.6584Z" fill="#263238"/>
<path d="M122.546 127.455L119.496 119.383L120.194 119.441C120.76 119.488 121.326 119.372 121.827 119.106C122.327 118.839 122.741 118.435 123.017 117.94C125.345 113.796 131.357 103.279 133.051 102.755C135.466 102.039 137.951 103.972 138.871 106.829C139.563 108.93 132.469 117.94 129.198 123.061C126.294 127.595 122.546 127.455 122.546 127.455Z" fill="#263238"/>
<path d="M92.8001 182.711V182.775C92.843 182.887 92.9135 182.986 93.0051 183.063C93.0967 183.141 93.2064 183.194 93.3239 183.217C93.3945 183.239 93.4696 183.243 93.5419 183.228C93.6143 183.212 93.6815 183.179 93.7371 183.13C94.226 182.682 93.9117 180.802 93.8826 180.616C93.8794 180.591 93.8687 180.569 93.852 180.551C93.8353 180.533 93.8134 180.521 93.7895 180.517C93.7669 180.514 93.7439 180.517 93.7226 180.525C93.7013 180.533 93.6823 180.546 93.6673 180.563C93.2715 181.122 92.643 182.117 92.8001 182.711ZM93.6964 180.965C93.8011 181.71 93.8477 182.711 93.5742 182.955C93.5457 182.971 93.5136 182.979 93.481 182.979C93.4485 182.979 93.4164 182.971 93.3879 182.955C93.3097 182.941 93.2365 182.906 93.1754 182.855C93.1143 182.804 93.0672 182.739 93.0387 182.664C92.934 182.35 93.1551 181.71 93.6964 180.953V180.965Z" fill="#F30051"/>
<path d="M93.7019 180.859C93.8532 181.488 94.4468 182.559 94.9706 182.687C95.0661 182.706 95.1653 182.692 95.2519 182.648C95.3386 182.603 95.4077 182.531 95.4479 182.442C95.4935 182.359 95.5202 182.267 95.5262 182.173C95.5323 182.078 95.5174 181.983 95.4828 181.895C95.2442 181.173 93.8707 180.58 93.8125 180.551C93.7937 180.54 93.7727 180.535 93.7514 180.535C93.73 180.535 93.709 180.54 93.6902 180.551C93.6731 180.564 93.6599 180.582 93.6517 180.603C93.6436 180.623 93.6408 180.645 93.6437 180.667C93.658 180.733 93.6775 180.797 93.7019 180.859ZM95.2849 182.023C95.2968 182.075 95.2983 182.128 95.2893 182.18C95.2803 182.232 95.261 182.281 95.2325 182.326C95.1569 182.465 95.0812 182.465 95.023 182.454C94.668 182.384 94.1267 181.505 93.9521 180.894C94.4003 181.121 95.1161 181.546 95.2675 181.988C95.2635 182 95.2635 182.012 95.2675 182.023H95.2849Z" fill="#F30051"/>
<path d="M135.245 135.371L134.703 137.263C134.634 137.408 134.802 137.559 135.047 137.554H155.126C155.318 137.554 155.475 137.455 155.487 137.338L155.673 135.447C155.673 135.319 155.522 135.202 155.312 135.208H135.582C135.517 135.203 135.451 135.215 135.391 135.244C135.332 135.273 135.281 135.317 135.245 135.371Z" fill="#F30051"/>
<path opacity="0.5" d="M135.245 135.371L134.703 137.263C134.634 137.408 134.802 137.559 135.047 137.554H155.126C155.318 137.554 155.475 137.455 155.487 137.338L155.673 135.447C155.673 135.319 155.522 135.202 155.312 135.208H135.582C135.517 135.203 135.451 135.215 135.391 135.244C135.332 135.273 135.281 135.317 135.245 135.371Z" fill="white"/>
<path d="M139.097 137.73H138.515C138.405 137.73 138.312 137.671 138.323 137.602L138.585 135.14C138.585 135.07 138.696 135.012 138.812 135.012H139.394C139.505 135.012 139.592 135.07 139.586 135.146L139.324 137.602C139.289 137.671 139.185 137.735 139.097 137.73Z" fill="#F30051"/>
<path d="M153.572 137.73H152.99C152.885 137.73 152.792 137.671 152.804 137.602L153.066 135.146C153.066 135.07 153.17 135.012 153.281 135.012H153.863C153.974 135.012 154.067 135.07 154.055 135.14L153.793 137.596C153.781 137.671 153.688 137.73 153.572 137.73Z" fill="#F30051"/>
<path d="M146.931 137.718H146.349C146.239 137.718 146.146 137.66 146.157 137.59L146.419 135.134C146.419 135.058 146.53 135 146.64 135H147.222C147.333 135 147.42 135.058 147.414 135.128L147.147 137.584C147.147 137.66 147.048 137.718 146.931 137.718Z" fill="#F30051"/>
<path d="M141.349 92.2617C141.966 95.4336 142.571 101.16 140.418 102.883C140.418 102.883 141.279 106.137 147.035 107.004C153.391 107.958 150.056 104.338 150.056 104.338C146.593 102.971 146.68 100.468 147.274 98.1632L141.349 92.2617Z" fill="#FFB573"/>
<path d="M140.442 102.854C143.513 103.049 146.565 103.473 149.573 104.123L153.927 105.42C154.701 106.98 153.432 110.187 149.789 110.798C149.789 110.798 140.611 112.061 137.904 102.609L140.442 102.854Z" fill="#FFB573"/>
<path opacity="0.2" d="M143.753 94.6797L147.245 98.1717C147.098 98.7124 147.003 99.2658 146.96 99.8246C145.633 99.4346 143.503 97.9738 143.357 96.577C143.359 95.9242 143.494 95.2787 143.753 94.6797Z" fill="black"/>
<path d="M137.463 88.2598C139.022 93.1836 139.569 95.302 142.765 97.2401C147.525 100.15 153.241 97.1703 153.182 91.8857C153.136 87.1249 150.604 79.8732 145.197 79.0817C144.009 78.9036 142.795 79.0325 141.67 79.4564C140.545 79.8802 139.548 80.5847 138.773 81.5029C137.998 82.4211 137.47 83.5225 137.241 84.7022C137.011 85.8818 137.088 87.1006 137.463 88.2424V88.2598Z" fill="#FFB573"/>
<path d="M149.213 87.4922C149.763 88.3564 150.431 89.1399 151.198 89.8202C151.018 90.0142 150.799 90.1668 150.555 90.2673C150.31 90.3679 150.047 90.4139 149.783 90.4022L149.213 87.4922Z" fill="#ED893E"/>
<path d="M148.66 93.0329C148.857 93.0112 149.052 92.9722 149.242 92.9165C149.257 92.913 149.271 92.9067 149.283 92.8978C149.296 92.8889 149.306 92.8777 149.315 92.8647C149.323 92.8518 149.328 92.8373 149.331 92.8222C149.333 92.8071 149.333 92.7917 149.329 92.7768C149.321 92.7462 149.301 92.7201 149.274 92.7038C149.247 92.6875 149.215 92.6824 149.184 92.6895C148.687 92.8264 148.165 92.8451 147.66 92.7441C147.154 92.643 146.68 92.425 146.274 92.1075C146.25 92.0837 146.217 92.0703 146.184 92.0703C146.15 92.0703 146.117 92.0837 146.093 92.1075C146.082 92.1189 146.072 92.1325 146.066 92.1474C146.06 92.1624 146.057 92.1785 146.057 92.1948C146.057 92.2111 146.06 92.2271 146.066 92.2421C146.072 92.2571 146.082 92.2707 146.093 92.2821C146.451 92.5697 146.862 92.7841 147.302 92.9129C147.742 93.0417 148.204 93.0825 148.66 93.0329Z" fill="#263238"/>
<path d="M135.768 78.4268C135.127 78.8417 134.594 79.4044 134.215 80.0678C133.837 80.7311 133.623 81.4757 133.591 82.2389C133.565 82.5308 133.611 82.8246 133.725 83.0945C133.782 83.228 133.874 83.344 133.99 83.4309C134.107 83.5177 134.244 83.5723 134.389 83.5892C134.831 83.5892 135.157 83.1934 135.401 82.8209L136.53 81.0749C136.995 80.5077 137.386 79.8839 137.694 79.2183C138.073 78.0718 136.461 77.9845 135.768 78.4268Z" fill="#F30051"/>
<path d="M136.321 79.5866C133.23 83.1601 131.845 93.0482 140.901 95.8069C142.414 94.608 139.97 92.4255 138.934 89.6668C138.253 87.8626 141.704 84.4929 143.049 83.1077C144.393 81.7225 145.633 79.7263 147.53 80.0464C148.012 80.2074 148.53 80.2216 149.02 80.0871C150.527 79.4062 149.794 78.5041 149.02 77.8755C147.833 76.9969 146.419 76.4759 144.946 76.3739C143.357 76.1867 141.745 76.3804 140.246 76.939C138.746 77.4977 137.4 78.4052 136.321 79.5866Z" fill="#263238"/>
<path d="M146.373 78.3895C150.01 81.4217 145.209 81.4973 142.665 83.4179C140.227 85.2629 141.938 88.2835 137.811 89.6861C134.442 90.6697 133.662 90.076 132.73 89.4242C133.884 89.2245 134.94 88.6487 135.733 87.7865C136.525 86.9244 137.011 85.8243 137.113 84.6576C137.398 82.446 142.217 74.8742 146.373 78.3895Z" fill="#263238"/>
<path d="M136.916 92.3977C137.486 93.2186 138.356 93.7829 139.337 93.9692C140.641 94.1961 141.142 93.003 140.693 91.839C140.269 90.7914 139.087 89.4121 137.824 89.7089C137.39 89.8212 137.018 90.1013 136.79 90.4875C136.562 90.8738 136.496 91.3347 136.608 91.7692C136.667 91.9974 136.772 92.2112 136.916 92.3977Z" fill="#FFB573"/>
<path d="M145.75 78.6982C146.454 80.4908 148.485 80.2522 149.987 82.1262C150.912 83.2902 152.728 79.6993 150.255 78.285C147.781 76.8707 144.644 75.893 145.75 78.6982Z" fill="#263238"/>
<path d="M143.607 86.2606C143.659 86.2661 143.711 86.255 143.756 86.2289C143.801 86.2027 143.837 86.1628 143.858 86.1151C144.335 85.0558 145.767 84.7881 145.778 84.7881C145.842 84.7741 145.898 84.7361 145.935 84.682C145.972 84.6279 145.986 84.5617 145.976 84.4971C145.963 84.434 145.926 84.3784 145.873 84.3425C145.82 84.3065 145.754 84.2931 145.691 84.3051C145.615 84.3051 143.986 84.6484 143.404 85.9288C143.378 85.9884 143.376 86.0557 143.399 86.1165C143.422 86.1773 143.467 86.2269 143.526 86.2548H143.607V86.2606Z" fill="#263238"/>
<path d="M151.175 84.1215C151.217 84.1246 151.26 84.1159 151.298 84.0964C151.336 84.0769 151.368 84.0473 151.39 84.0109C151.409 83.9848 151.422 83.9551 151.429 83.9238C151.435 83.8924 151.436 83.86 151.43 83.8285C151.424 83.797 151.412 83.7671 151.394 83.7404C151.376 83.7137 151.353 83.6909 151.326 83.6734C151.004 83.4501 150.632 83.3076 150.243 83.2579C149.854 83.2083 149.459 83.253 149.091 83.3882C149.061 83.4002 149.033 83.4183 149.009 83.4416C148.986 83.4648 148.968 83.4926 148.956 83.5232C148.944 83.5538 148.938 83.5865 148.94 83.6194C148.941 83.6522 148.949 83.6845 148.963 83.7141C148.989 83.7734 149.037 83.8202 149.097 83.8442C149.157 83.8682 149.224 83.8674 149.283 83.8421C149.573 83.741 149.882 83.7104 150.186 83.7529C150.49 83.7954 150.779 83.9098 151.029 84.0866C151.075 84.1086 151.124 84.1205 151.175 84.1215Z" fill="#263238"/>
<path d="M175.099 115.98L171.689 117.919L168.145 125.543C168.145 125.543 171.567 127.719 174.267 125.956C176.968 124.192 175.099 115.98 175.099 115.98Z" fill="#F30051"/>
<path opacity="0.5" d="M175.099 115.98L171.689 117.919L168.145 125.543C168.145 125.543 171.567 127.719 174.267 125.956C176.968 124.192 175.099 115.98 175.099 115.98Z" fill="white"/>
<path d="M115.464 118.336L119.497 119.5L123.321 127.409C123.321 127.409 120.248 130.255 116.919 127.537C114.428 125.477 115.464 118.336 115.464 118.336Z" fill="#F30051"/>
<g opacity="0.5">
<path d="M115.464 118.336L119.497 119.5L123.321 127.409C123.321 127.409 120.248 130.255 116.919 127.537C114.428 125.477 115.464 118.336 115.464 118.336Z" fill="white"/>
</g>
<path d="M150.941 86.0956C151.221 86.0432 151.523 86.3575 151.587 86.7881C151.651 87.2188 151.494 87.6146 151.215 87.6611C150.936 87.7077 150.633 87.3992 150.569 86.9686C150.505 86.5379 150.662 86.1363 150.941 86.0956Z" fill="#263238"/>
<path d="M151.802 85.668L150.818 86.151C151.412 86.5701 151.802 85.668 151.802 85.668Z" fill="#263238"/>
<path d="M146.083 87.0956C146.362 87.0432 146.665 87.3575 146.729 87.7881C146.793 88.2188 146.636 88.6146 146.356 88.6611C146.077 88.7077 145.774 88.3992 145.71 87.9686C145.646 87.5379 145.792 87.1479 146.083 87.0956Z" fill="#263238"/>
<path d="M146.931 86.668L145.947 87.151C146.541 87.5701 146.931 86.668 146.931 86.668Z" fill="#263238"/>
<path d="M121.441 109.361C120.893 109.364 120.349 109.262 119.84 109.059C118.036 108.319 117.198 106.445 117.512 103.908C117.522 103.832 117.562 103.762 117.623 103.715C117.684 103.669 117.762 103.648 117.838 103.658C117.876 103.662 117.913 103.674 117.946 103.693C117.98 103.712 118.009 103.737 118.032 103.767C118.056 103.798 118.073 103.833 118.082 103.87C118.092 103.907 118.094 103.946 118.088 103.984C117.786 106.236 118.496 107.889 120.038 108.517C120.933 108.824 121.902 108.839 122.806 108.561C123.711 108.283 124.504 107.726 125.072 106.969C126.533 105.025 126.056 102.267 123.78 99.4033C117.82 91.9246 118.216 87.9495 119.06 84.8067C120.282 80.2438 123.862 75.0175 133.988 76.0243C134.066 76.032 134.137 76.0701 134.186 76.1301C134.235 76.1902 134.258 76.2672 134.25 76.3444C134.243 76.4216 134.205 76.4925 134.145 76.5417C134.085 76.5908 134.007 76.614 133.93 76.6063C124.217 75.6402 120.783 80.6221 119.619 84.9638C118.781 88.1066 118.455 91.7791 124.234 99.0482C127.726 103.431 126.312 106.3 125.538 107.324C125.053 107.952 124.433 108.461 123.723 108.814C123.014 109.167 122.233 109.354 121.441 109.361Z" fill="#263238"/>
</svg>
