<svg width="24" height="24" viewBox="0 0 24 24" fill="none" xmlns="http://www.w3.org/2000/svg">
<path d="M21.8037 11.8751L18.2227 9.78906V15.5861H22.0002V12.2171C22.0002 12.0766 21.9252 11.9461 21.8037 11.8751Z" fill="#1A237E"/>
<path d="M16.9588 4.42H21.4818V3.866C21.4818 3.3875 21.0943 3 20.6163 3H8.8328C8.3548 3 7.9668 3.3875 7.9668 3.866V4.42H12.4693H16.9588Z" fill="#0C4999"/>
<path d="M16.959 16.7639H20.616C21.094 16.7639 21.482 16.3764 21.482 15.8979V12.4844H16.959V16.7639Z" fill="#0F73D9"/>
<path d="M7.96875 12.4844V15.8979C7.96875 16.3759 8.35625 16.7639 8.83475 16.7639H12.4712V12.4849L7.96875 12.4844Z" fill="#0F439D"/>
<path d="M16.959 4.42188H21.482V8.43538H16.959V4.42188Z" fill="#2ECDFD"/>
<path d="M7.96875 4.42188H12.4712V8.43538H7.96875V4.42188Z" fill="#1C5FB0"/>
<path d="M12.4707 12.4844H16.9602V16.7634H12.4707V12.4844Z" fill="#1467C7"/>
<path d="M12.4707 4.42188H16.9602V8.43538H12.4707V4.42188Z" fill="#1690D5"/>
<path d="M16.959 8.43359H21.482V12.4816H16.959V8.43359Z" fill="#1BB4FF"/>
<path d="M7.96875 8.43359H12.4712V12.4816H7.96875V8.43359Z" fill="#074DAF"/>
<path d="M12.4707 8.43359H16.9602V12.4816H12.4707V8.43359Z" fill="#2076D4"/>
<path d="M7.71959 20.9998C7.95109 20.9998 21.1546 20.9998 21.1546 20.9998C21.6211 20.9998 21.9991 20.6218 21.9991 20.1553V12.2188C21.9991 12.2188 21.9841 12.5478 21.1236 13.0273C20.4736 13.3893 7.37109 20.7828 7.37109 20.7828C7.37109 20.7828 7.48809 20.9998 7.71959 20.9998Z" fill="#2ED0FF"/>
<path d="M21.1395 20.9963C21.059 20.9963 7.8445 20.9978 7.8445 20.9978C7.378 20.9978 7 20.6198 7 20.1533V12.5312L21.6815 20.8123C21.559 20.9103 21.4035 20.9963 21.1395 20.9963Z" fill="#139FE2"/>
<path d="M11.1595 17H2.8405C2.3765 17 2 16.6235 2 16.1595V7.8405C2 7.3765 2.3765 7 2.8405 7H11.1595C11.6235 7 12 7.3765 12 7.8405V16.1595C12 16.6235 11.6235 17 11.1595 17Z" fill="#00488D"/>
<path d="M6.95772 9.36719C5.39222 9.36719 4.44922 10.5632 4.44922 12.0387C4.44922 13.5142 5.38872 14.7097 6.95772 14.7097C8.52722 14.7097 9.46622 13.5137 9.46622 12.0387C9.46622 10.5632 8.52322 9.36719 6.95772 9.36719ZM6.95772 13.8082C6.06972 13.8082 5.53872 13.0162 5.53872 12.0387C5.53872 11.0612 6.07222 10.2692 6.95772 10.2692C7.84322 10.2692 8.37722 11.0617 8.37722 12.0387C8.37722 13.0157 7.84522 13.8082 6.95772 13.8082Z" fill="white"/>
</svg>
