<svg width="40" height="34" viewBox="0 0 40 34" fill="none" xmlns="http://www.w3.org/2000/svg">
<path d="M33.4353 3.37172H31.4828C31.1914 3.37172 31.0068 3.55633 31.0068 3.76031H31.0067V10.0743C31.0067 10.3365 31.3176 10.4725 31.6381 10.4725C31.949 10.4725 32.2696 10.3366 32.2696 10.0743V7.82068H33.3576C34.6398 7.82068 35.6403 7.20865 35.6403 5.61561V5.55741C35.6403 3.96429 34.6689 3.37172 33.4353 3.37172ZM34.3774 5.7128C34.3774 6.47045 33.9889 6.82991 33.3575 6.82991H32.2696V4.47913H33.3575C33.9889 4.47913 34.3774 4.83859 34.3774 5.59624V5.7128ZM22.8961 5.84007C21.052 3.99601 18.6003 2.98047 15.9924 2.98047C13.3845 2.98047 10.9328 3.99601 9.08878 5.84007C9.03587 5.89297 8.9939 5.95579 8.96526 6.02492C8.93662 6.09405 8.92188 6.16814 8.92188 6.24297C8.92187 6.31779 8.93661 6.39189 8.96524 6.46102C8.99387 6.53015 9.03584 6.59297 9.08875 6.64588C9.14165 6.6988 9.20447 6.74077 9.2736 6.76941C9.34273 6.79805 9.41682 6.81279 9.49165 6.81279C9.56647 6.8128 9.64057 6.79806 9.7097 6.76943C9.77883 6.7408 9.84165 6.69883 9.89456 6.64592C11.5234 5.01718 13.6889 4.12015 15.9924 4.12015C18.2958 4.12015 20.4614 5.01718 22.0901 6.64592C22.143 6.6989 22.2058 6.74092 22.275 6.76955C22.3441 6.79819 22.4183 6.81289 22.4931 6.8128C22.6058 6.81276 22.7159 6.77931 22.8096 6.7167C22.9033 6.65408 22.9763 6.5651 23.0194 6.461C23.0625 6.3569 23.0738 6.24235 23.0519 6.13183C23.0299 6.02131 22.9757 5.91978 22.8961 5.84007Z" fill="#F9B432"/>
<path d="M20.5461 8.19144C18.0357 5.68098 13.9509 5.68098 11.4405 8.19144C11.3368 8.29895 11.2795 8.44287 11.2808 8.59223C11.2822 8.74159 11.3421 8.88445 11.4477 8.99007C11.5534 9.09569 11.6962 9.15562 11.8456 9.15697C11.9949 9.15832 12.1389 9.10098 12.2464 8.99729C14.3125 6.93129 17.6742 6.93129 19.7403 8.99729C19.7931 9.05028 19.8559 9.0923 19.925 9.12094C19.9942 9.14958 20.0683 9.16427 20.1431 9.16417C20.2558 9.16413 20.366 9.13069 20.4596 9.06807C20.5533 9.00545 20.6263 8.91647 20.6695 8.81237C20.7126 8.70827 20.7239 8.59372 20.7019 8.4832C20.68 8.37268 20.6258 8.27115 20.5461 8.19144ZM18.2324 10.505C16.9978 9.27034 14.9888 9.27034 13.7541 10.505C13.7012 10.5579 13.6592 10.6207 13.6306 10.6899C13.6019 10.759 13.5872 10.8331 13.5872 10.908C13.5872 10.9828 13.6019 11.0569 13.6306 11.126C13.6592 11.1952 13.7012 11.258 13.7541 11.3109C13.861 11.4177 14.0059 11.4778 14.157 11.4778C14.3082 11.4778 14.4531 11.4177 14.56 11.3109C15.3504 10.5206 16.6363 10.5206 17.4267 11.3109C17.4795 11.3639 17.5423 11.4059 17.6115 11.4345C17.6806 11.4632 17.7547 11.4779 17.8296 11.4778C17.9423 11.4778 18.0524 11.4444 18.1462 11.3818C18.2399 11.3191 18.3129 11.2301 18.356 11.126C18.3992 11.0219 18.4105 10.9073 18.3885 10.7968C18.3665 10.6862 18.3122 10.5847 18.2324 10.505ZM28.0417 21.6032C27.7942 21.4669 27.5529 21.3195 27.3187 21.1614L23.5496 18.6151C22.4057 17.8423 21.0713 17.4339 19.6909 17.4339H12.7729C10.9365 17.4339 9.20873 18.1477 7.90765 19.4438C7.24161 20.1081 6.47799 20.6668 5.6432 21.1005C5.40194 21.225 5.19968 21.4137 5.05865 21.6458C4.91762 21.8778 4.84326 22.1442 4.84375 22.4158C4.84375 23.2334 5.50891 23.8986 6.32656 23.8986H8.68514C8.83627 23.8986 8.98122 23.8385 9.08808 23.7317C9.19495 23.6248 9.25498 23.4799 9.25498 23.3287C9.25498 23.1776 9.19495 23.0326 9.08808 22.9258C8.98122 22.8189 8.83627 22.7589 8.68514 22.7589H6.32656C6.23557 22.7588 6.14833 22.7226 6.08399 22.6582C6.01965 22.5939 5.98346 22.5067 5.98336 22.4157C5.98336 22.2875 6.05422 22.1711 6.16836 22.1119C7.10604 21.6248 7.9638 20.9973 8.71194 20.2512C9.79787 19.1693 11.2401 18.5735 12.7728 18.5735H14.3216V22.7589H12.4285C12.2774 22.7589 12.1324 22.8189 12.0255 22.9258C11.9187 23.0326 11.8586 23.1776 11.8586 23.3287C11.8586 23.4799 11.9187 23.6248 12.0255 23.7317C12.1324 23.8385 12.2774 23.8986 12.4285 23.8986H28.0533C28.5217 23.8986 28.9028 23.5175 28.9028 23.049C28.9028 22.4492 28.5728 21.8951 28.0417 21.6032ZM15.4614 22.759V18.5736H19.691C20.8391 18.5723 21.9611 18.9158 22.9117 19.5595L26.6809 22.1058C26.9438 22.2833 27.2147 22.4488 27.4926 22.6018C27.5627 22.6402 27.6232 22.6939 27.6696 22.759H15.4614ZM16.8733 24.7648H15.1132C14.962 24.7648 14.8171 24.8248 14.7102 24.9317C14.6034 25.0386 14.5433 25.1835 14.5433 25.3347C14.5433 25.4858 14.6034 25.6307 14.7102 25.7376C14.8171 25.8445 14.962 25.9045 15.1132 25.9045H16.8733C17.0244 25.9045 17.1694 25.8445 17.2763 25.7376C17.3831 25.6307 17.4432 25.4858 17.4432 25.3347C17.4432 25.1835 17.3831 25.0386 17.2763 24.9317C17.1694 24.8248 17.0244 24.7648 16.8733 24.7648Z" fill="#F9B432"/>
<path d="M39.5084 24.2847L39.3284 23.986C38.65 22.8603 37.5216 22.0676 36.2327 21.8112L34.7615 21.5187V14.0619H38.5687C39.3526 14.0619 39.9902 13.4242 39.9902 12.6403V1.54265C39.9902 0.758747 39.3525 0.121094 38.5687 0.121094H27.471C26.6871 0.121094 26.0494 0.758826 26.0494 1.54265V5.7524C26.0494 5.90353 26.1095 6.04847 26.2163 6.15534C26.3232 6.2622 26.4681 6.32224 26.6193 6.32224C26.7704 6.32224 26.9153 6.2622 27.0222 6.15534C27.1291 6.04847 27.1891 5.90353 27.1891 5.7524V1.54265C27.1892 1.4679 27.2189 1.39623 27.2718 1.34337C27.3246 1.29051 27.3963 1.26078 27.4711 1.2607H38.5688C38.6436 1.26078 38.7153 1.29051 38.7681 1.34337C38.821 1.39623 38.8507 1.4679 38.8508 1.54265V12.6404C38.8507 12.7152 38.821 12.7868 38.7681 12.8397C38.7153 12.8926 38.6436 12.9223 38.5688 12.9224H27.471C27.3962 12.9223 27.3246 12.8926 27.2717 12.8397C27.2188 12.7868 27.1891 12.7152 27.189 12.6404V9.45692C27.189 9.30578 27.129 9.16084 27.0221 9.05398C26.9153 8.94711 26.7703 8.88708 26.6192 8.88708C26.4681 8.88708 26.3231 8.94711 26.2163 9.05398C26.1094 9.16084 26.0494 9.30578 26.0494 9.45692V12.6404C26.0494 13.4243 26.6871 14.062 27.4709 14.062H31.7882V20.9275L31.0319 20.7771C29.9882 20.5695 28.9706 19.9396 28.2959 19.4838L24.5269 16.9376C23.0929 15.9689 21.4203 15.4569 19.6898 15.4569H12.7719C10.47 15.4569 8.30411 16.3517 6.67341 17.9763C5.64474 19.0026 4.33953 19.7072 2.9171 20.0041L2.09898 20.1754C0.882731 20.4301 0 21.5169 0 22.7596V28.2783C0.00017159 28.6009 0.0937959 28.9164 0.269547 29.1869C0.445299 29.4573 0.695647 29.671 0.990309 29.8022L3.25999 30.8109C3.40129 31.5529 3.76286 32.2351 4.29756 32.7685C5.03451 33.5055 6.00255 33.874 6.97068 33.874C7.9388 33.874 8.90676 33.5055 9.64379 32.7685C10.1015 32.3116 10.4335 31.7441 10.6075 31.1211H29.5322C29.7062 31.7441 30.0382 32.3116 30.496 32.7685C31.21 33.4825 32.1592 33.8758 33.1691 33.8758C34.1789 33.8758 35.1282 33.4826 35.8423 32.7685C36.3 32.3116 36.632 31.7441 36.806 31.1211H37.887C39.0521 31.1211 40 30.1732 40 29.0082V26.0526C39.9998 25.4296 39.8299 24.8184 39.5084 24.2847ZM32.9278 14.0619H33.6219V21.292L32.9278 21.154V14.0619ZM8.83786 31.9628C8.33911 32.4615 7.67599 32.7362 6.9706 32.7362C6.26521 32.7362 5.60209 32.4615 5.10334 31.9628C4.30326 31.1627 4.1253 29.9729 4.56858 28.999L4.5792 28.9755C4.59272 28.9466 4.60701 28.918 4.62162 28.8896C4.65021 28.8339 4.68077 28.7794 4.71326 28.7259C4.72631 28.7044 4.73951 28.683 4.75326 28.6618C4.76568 28.6427 4.7785 28.6238 4.79147 28.605C4.80428 28.5863 4.81701 28.5675 4.83029 28.5492C4.84553 28.5282 4.86139 28.5075 4.87732 28.4869C4.88975 28.4708 4.90186 28.4546 4.91467 28.4387C4.93342 28.4155 4.95303 28.3929 4.97256 28.3702C4.98373 28.3573 4.99443 28.3441 5.00584 28.3314C5.0349 28.2991 5.06482 28.2675 5.0956 28.2365C5.09826 28.2338 5.10068 28.231 5.10334 28.2283C5.1092 28.2225 5.11537 28.217 5.12131 28.2112C5.1474 28.1856 5.17365 28.1603 5.20045 28.136C5.2074 28.1297 5.21475 28.1238 5.22178 28.1175C5.24849 28.0939 5.27537 28.0704 5.30287 28.0479L5.31076 28.0418C6.27662 27.2601 7.66966 27.2611 8.63434 28.0449L8.63778 28.0475C8.66723 28.0715 8.69606 28.0967 8.72473 28.1222C8.72989 28.1267 8.7352 28.131 8.74028 28.1356C8.7734 28.1655 8.8059 28.1964 8.83778 28.2283C8.87215 28.2626 8.90528 28.298 8.93746 28.3339C8.95161 28.3497 8.96496 28.3658 8.97864 28.3818C8.99536 28.4014 9.01215 28.421 9.02825 28.4409C9.04629 28.4633 9.06371 28.4861 9.0809 28.509C9.11194 28.55 9.14177 28.5919 9.17035 28.6347L9.18028 28.6497C9.85059 29.6736 9.73652 31.064 8.83786 31.9628ZM35.0363 31.9628C34.5374 32.4615 33.8743 32.7362 33.1689 32.7362C32.4635 32.7362 31.8005 32.4615 31.3018 31.9628C30.4029 31.064 30.2889 29.6733 30.9593 28.6496L30.9689 28.6349C30.9886 28.6054 31.0089 28.5762 31.0299 28.5473C31.0392 28.5345 31.0487 28.5218 31.0583 28.5093C31.0756 28.4863 31.0931 28.4634 31.1113 28.4408C31.1273 28.4211 31.1439 28.4017 31.1605 28.3823C31.1743 28.3661 31.1878 28.3497 31.2021 28.3339C31.2343 28.298 31.2675 28.2627 31.3018 28.2283C31.8006 27.7296 32.4636 27.4549 33.169 27.4549C33.8744 27.4549 34.5375 27.7296 35.0363 28.2283C35.0706 28.2627 35.1038 28.2981 35.136 28.334C35.1502 28.3497 35.1635 28.366 35.1773 28.3821C35.194 28.4015 35.2107 28.4211 35.2267 28.4409C35.2449 28.4634 35.2623 28.4862 35.2795 28.5091C35.3142 28.5549 35.3473 28.6018 35.3788 28.6497C36.049 29.6735 35.9349 31.0641 35.0363 31.9628ZM38.8604 29.0082H38.8602C38.8602 29.5449 38.4236 29.9815 37.8869 29.9815H36.9488C36.9264 29.155 36.6347 28.3665 36.1097 27.72C36.1062 27.7157 36.1028 27.7111 36.0992 27.7068C36.0665 27.6671 36.0331 27.6281 35.9988 27.5897C35.9901 27.5799 35.9818 27.5697 35.973 27.5599C35.9365 27.5199 35.8992 27.4807 35.8611 27.4422C35.8546 27.4357 35.8487 27.4288 35.8421 27.4223C35.3512 26.9315 34.7491 26.5922 34.0926 26.4281C33.7905 26.3528 33.4803 26.3149 33.1689 26.3151C32.9165 26.3151 32.6678 26.3397 32.4257 26.3877C31.6992 26.5318 31.0314 26.8868 30.4958 27.4223C30.4894 27.4287 30.4836 27.4354 30.4772 27.4419C30.4389 27.4808 30.4013 27.52 30.365 27.56C30.3564 27.5695 30.3484 27.5793 30.34 27.5889C30.3054 27.6278 30.2714 27.667 30.2386 27.707C30.2353 27.711 30.2323 27.7151 30.229 27.7192C29.7036 28.3657 29.4116 29.1547 29.3892 29.9816H10.7503C10.7279 29.1537 10.4353 28.3638 9.90856 27.7167L9.90137 27.7075C9.86677 27.6655 9.8313 27.6241 9.79496 27.5836C9.78824 27.5761 9.78199 27.5683 9.7752 27.5608C9.56107 27.3238 9.31781 27.1147 9.05122 26.9387C8.42262 26.5242 7.69661 26.3169 6.9706 26.3169C6.00255 26.3169 5.03443 26.6854 4.29748 27.4224C4.2556 27.4645 4.2147 27.5075 4.17483 27.5515C4.16303 27.5644 4.1517 27.5776 4.14006 27.5907C4.09954 27.6365 4.06008 27.6832 4.0217 27.7308C3.99381 27.7655 3.96662 27.8007 3.94006 27.8362C3.93178 27.8473 3.92327 27.8582 3.91522 27.8693C3.84412 27.9667 3.77774 28.0675 3.71631 28.1712L3.71124 28.18C3.68135 28.2308 3.65267 28.2823 3.62522 28.3345L3.6228 28.339C3.42366 28.7174 3.29058 29.127 3.22928 29.5501L1.45328 28.7607C1.36 28.7192 1.28075 28.6516 1.22511 28.5659C1.16947 28.4803 1.13983 28.3804 1.13976 28.2783V22.7596C1.13976 22.0533 1.64156 21.4355 2.33288 21.2907L3.151 21.1194C4.78953 20.7774 6.29304 19.9657 7.47802 18.7835C8.89364 17.3731 10.7738 16.5964 12.7721 16.5964H19.6901C21.1923 16.5964 22.6443 17.041 23.8891 17.8818L27.6582 20.428C28.4145 20.939 29.5641 21.6469 30.8098 21.8948L36.0106 22.929C36.4938 23.0256 36.9515 23.2217 37.3547 23.505C37.7579 23.7882 38.0977 24.1523 38.3524 24.5741L38.5324 24.8729C38.747 25.2289 38.8604 25.6368 38.8604 26.0526V29.0082Z" fill="#F9B432"/>
<path d="M8.19554 28.8739C7.86867 28.5471 7.43429 28.3672 6.97219 28.3672C6.74491 28.3666 6.51977 28.4111 6.3098 28.498C6.09982 28.585 5.90918 28.7128 5.74891 28.8739C5.58776 29.0342 5.46001 29.2248 5.37303 29.4348C5.28605 29.6448 5.24158 29.8699 5.24219 30.0972C5.24158 30.3245 5.28605 30.5496 5.37303 30.7596C5.46001 30.9696 5.58776 31.1602 5.74891 31.3205C5.90919 31.4816 6.09984 31.6094 6.30983 31.6964C6.51982 31.7833 6.74498 31.8278 6.97226 31.8272C7.19954 31.8278 7.42469 31.7833 7.63467 31.6964C7.84464 31.6094 8.03528 31.4816 8.19554 31.3205C8.87007 30.6459 8.87007 29.5484 8.19554 28.8739ZM7.38961 30.5146C7.33492 30.5696 7.26986 30.6132 7.19821 30.6429C7.12656 30.6725 7.04974 30.6877 6.97219 30.6875C6.89463 30.6877 6.81779 30.6725 6.74614 30.6428C6.67449 30.6132 6.60944 30.5695 6.55477 30.5145C6.49977 30.4598 6.45616 30.3948 6.42647 30.3231C6.39678 30.2515 6.3816 30.1747 6.3818 30.0971C6.3818 29.9394 6.4432 29.7912 6.55477 29.6797C6.60945 29.6247 6.6745 29.5811 6.74615 29.5514C6.8178 29.5217 6.89463 29.5065 6.97219 29.5067C7.12984 29.5067 7.27812 29.5681 7.38961 29.6797C7.61976 29.9099 7.61976 30.2845 7.38961 30.5146ZM34.3939 28.874C34.2336 28.7128 34.043 28.585 33.833 28.498C33.623 28.411 33.3978 28.3666 33.1705 28.3672C32.9432 28.3666 32.7181 28.411 32.5081 28.498C32.2981 28.585 32.1074 28.7128 31.9472 28.8739C31.2727 29.5484 31.2727 30.6459 31.9472 31.3205C32.1074 31.4816 32.2981 31.6094 32.5081 31.6964C32.7181 31.7833 32.9432 31.8278 33.1705 31.8272C33.3978 31.8278 33.6229 31.7834 33.8329 31.6964C34.0429 31.6094 34.2335 31.4817 34.3938 31.3205C34.7206 30.9938 34.9005 30.5594 34.9005 30.0973C34.9005 29.6352 34.7206 29.2007 34.3939 28.874ZM33.5879 30.5147C33.5333 30.5697 33.4682 30.6133 33.3966 30.6429C33.3249 30.6726 33.2481 30.6878 33.1705 30.6876C33.093 30.6878 33.0161 30.6726 32.9445 30.6429C32.8728 30.6133 32.8078 30.5697 32.7531 30.5147C32.5229 30.2845 32.5229 29.91 32.7531 29.6798C32.8078 29.6248 32.8728 29.5812 32.9445 29.5516C33.0161 29.5219 33.093 29.5067 33.1705 29.5069C33.3283 29.5069 33.4765 29.5683 33.588 29.6798C33.643 29.7345 33.6866 29.7996 33.7163 29.8712C33.746 29.9429 33.7611 30.0197 33.7609 30.0973C33.7611 30.1748 33.7459 30.2517 33.7163 30.3233C33.6866 30.395 33.643 30.46 33.5879 30.5147Z" fill="#F9B432"/>
</svg>
