<svg width="20" height="21" viewBox="0 0 20 21" fill="none" xmlns="http://www.w3.org/2000/svg">
<rect x="0.5" y="0.882812" width="19" height="19" rx="9.5" stroke="#F30051"/>
<path d="M9.10525 9.0056H6.51754C6.20702 9.0056 6 8.79859 6 8.48806V5.90035C6 5.58983 6.20702 5.38281 6.51754 5.38281C6.82807 5.38281 7.03508 5.58983 7.03508 5.90035V7.97052H9.10525C9.41578 7.97052 9.62279 8.17754 9.62279 8.48806C9.62279 8.79859 9.41578 9.0056 9.10525 9.0056Z" fill="#F30051"/>
<path d="M10.1447 15.2127C9.57538 15.2127 9.00608 15.1092 8.48854 14.9022C7.55697 14.5399 6.78065 13.9189 6.21136 13.0908C6.0561 12.832 6.10785 12.5215 6.36662 12.3662C6.62539 12.211 6.93592 12.2627 7.09118 12.5215C7.50521 13.1426 8.12626 13.6601 8.85082 13.9189C9.57538 14.1776 10.3517 14.2294 11.128 14.0224C11.8526 13.8154 12.5254 13.3496 12.9912 12.7285C13.4569 12.1075 13.7157 11.3829 13.7675 10.6066C13.7675 9.83029 13.5605 9.05398 13.0947 8.43292C12.6289 7.81187 12.0078 7.34609 11.2833 7.08732C10.5587 6.82855 9.7824 6.82855 9.00608 7.08732C8.28153 7.34609 7.66048 7.81187 7.19469 8.43292C7.03943 8.6917 6.7289 8.74345 6.47013 8.58819C6.21136 8.43292 6.1596 8.07065 6.36662 7.86363C6.93592 7.03556 7.76398 6.41451 8.69556 6.10399C9.62713 5.79346 10.6622 5.79346 11.5938 6.10399C12.5254 6.41451 13.3534 7.03556 13.9227 7.86363C14.492 8.6917 14.8026 9.62327 14.7508 10.6584C14.7508 11.6417 14.3885 12.625 13.7675 13.4013C13.1464 14.1776 12.3184 14.7469 11.335 15.0575C11.0245 15.161 10.5587 15.2127 10.1447 15.2127Z" fill="#F30051"/>
</svg>
