<svg width="64" height="64" viewBox="0 0 64 64" fill="none" xmlns="http://www.w3.org/2000/svg">
<path d="M32.0021 48.7366C41.2556 48.7366 48.7571 41.2351 48.7571 31.9816C48.7571 22.728 41.2556 15.2266 32.0021 15.2266C22.7485 15.2266 15.2471 22.728 15.2471 31.9816C15.2471 41.2351 22.7485 48.7366 32.0021 48.7366Z" fill="#FFBC45"/>
<path d="M39.4848 17C40.6148 19.255 41.2498 21.795 41.2498 24.485C41.2498 33.735 33.7498 41.24 24.4948 41.24C21.8048 41.24 19.2598 40.6 17.0098 39.475C19.7648 44.965 25.4398 48.74 31.9998 48.74C41.2498 48.74 48.7548 41.24 48.7548 31.985C48.7548 25.425 44.9798 19.75 39.4848 17Z" fill="#F9AE35"/>
<path d="M32.0016 1C31.4516 1 31.0016 1.45 31.0016 2V7.61C31.0016 8.16 31.4516 8.61 32.0016 8.61C32.5516 8.61 33.0016 8.16 33.0016 7.61V2C33.0016 1.45 32.5516 1 32.0016 1ZM32.0016 55.365C31.4516 55.365 31.0016 55.815 31.0016 56.365V61.975C31.0016 62.525 31.4516 62.975 32.0016 62.975C32.5516 62.975 33.0016 62.525 33.0016 61.975V56.365C33.0016 56.0998 32.8962 55.8454 32.7087 55.6579C32.5212 55.4704 32.2668 55.365 32.0016 55.365ZM52.4966 10.075L48.5316 14.04C48.3919 14.1799 48.2966 14.3581 48.258 14.5521C48.2193 14.746 48.2389 14.9471 48.3143 15.1299C48.3897 15.3128 48.5175 15.4692 48.6816 15.5796C48.8457 15.6899 49.0388 15.7492 49.2366 15.75C49.4916 15.75 49.7466 15.65 49.9416 15.455L53.9066 11.49C54.2966 11.1 54.2966 10.465 53.9066 10.075C53.5166 9.685 52.8866 9.685 52.4966 10.075ZM14.0566 48.515L10.0916 52.48C9.95186 52.6199 9.85665 52.7981 9.81798 52.9921C9.77931 53.186 9.79889 53.3871 9.87427 53.5699C9.94966 53.7528 10.0775 53.9092 10.2416 54.0196C10.4057 54.1299 10.5988 54.1892 10.7966 54.19C11.0516 54.19 11.3066 54.09 11.5016 53.895L15.4666 49.93C15.8566 49.54 15.8566 48.905 15.4666 48.515C15.0766 48.125 14.4466 48.125 14.0566 48.515ZM61.9866 30.985H56.3766C55.8266 30.985 55.3766 31.435 55.3766 31.985C55.3766 32.535 55.8266 32.985 56.3766 32.985H61.9866C62.2518 32.985 62.5062 32.8796 62.6937 32.6921C62.8812 32.5046 62.9866 32.2502 62.9866 31.985C62.9866 31.7198 62.8812 31.4654 62.6937 31.2779C62.5062 31.0904 62.2518 30.985 61.9866 30.985ZM7.6266 30.985H2.0166C1.4666 30.985 1.0166 31.435 1.0166 31.985C1.0166 32.535 1.4666 32.985 2.0166 32.985H7.6266C8.1766 32.985 8.6266 32.535 8.6266 31.985C8.6266 31.435 8.1766 30.985 7.6266 30.985ZM49.9466 48.515C49.5566 48.125 48.9216 48.125 48.5316 48.515C48.1416 48.905 48.1416 49.54 48.5316 49.93L52.4966 53.895C52.6916 54.09 52.9466 54.19 53.2016 54.19C53.4566 54.19 53.7116 54.09 53.9066 53.895C54.2966 53.505 54.2966 52.87 53.9066 52.48L49.9466 48.515ZM11.5066 10.075C11.1166 9.685 10.4816 9.685 10.0916 10.075C9.7016 10.465 9.7016 11.1 10.0916 11.49L14.0566 15.455C14.2516 15.65 14.5066 15.75 14.7616 15.75C15.0166 15.75 15.2716 15.65 15.4666 15.455C15.8566 15.065 15.8566 14.43 15.4666 14.04L11.5066 10.075Z" fill="#FFBC45"/>
</svg>
