<svg width="14" height="14" viewBox="0 0 14 14" fill="none" xmlns="http://www.w3.org/2000/svg">
<path d="M9.91634 3.5C9.91634 5.11083 8.6105 6.41667 6.99967 6.41667C5.38884 6.41667 4.08301 5.11083 4.08301 3.5C4.08301 1.88917 5.38884 0.583332 6.99967 0.583332C8.6105 0.583332 9.91634 1.88917 9.91634 3.5Z" fill="#ADB2CA"/>
<path opacity="0.25" fill-rule="evenodd" clip-rule="evenodd" d="M10.9772 8.23944C10.6176 7.82254 9.99998 7.84402 9.51705 8.10836C8.76973 8.5174 7.91202 8.74996 7 8.74996C6.08798 8.74996 5.23027 8.5174 4.48295 8.10836C4.00001 7.84402 3.38241 7.82254 3.02284 8.23944C2.22963 9.15911 1.75 10.3569 1.75 11.6666V12.25C1.75 12.8943 2.27233 13.4166 2.91667 13.4166H11.0833C11.7277 13.4166 12.25 12.8943 12.25 12.25V11.6666C12.25 10.3569 11.7704 9.15911 10.9772 8.23944Z" fill="#ADB2CA"/>
</svg>
