<svg width="278" height="278" viewBox="0 0 278 278" fill="none" xmlns="http://www.w3.org/2000/svg">
<path d="M138.999 256.582C177.943 256.582 209.514 249.283 209.514 240.279C209.514 231.275 177.943 223.977 138.999 223.977C100.055 223.977 68.4844 231.275 68.4844 240.279C68.4844 249.283 100.055 256.582 138.999 256.582Z" fill="#841338"/>
<path d="M49.0391 101.209C49.0391 101.209 64.1283 81.7639 125.674 75.2031L130.993 93.0118C130.993 93.0118 88.2326 93.014 68.5213 113.334L49.0391 101.209Z" fill="white"/>
<path d="M229.662 112.364C229.662 112.364 213.869 85.5301 152.324 78.9688L147.004 96.7774C147.004 96.7774 191.082 104.676 210.793 124.996L229.662 112.364Z" fill="white"/>
<path d="M56.2232 127.344C56.2232 127.344 43.8227 129.847 46.1657 108.778C47.8326 93.7901 64.0734 94.1571 82.9546 93.0117L71.665 109.752L56.2232 127.344Z" fill="white"/>
<path d="M57.4302 103.172C52.8154 103.172 49.0391 106.948 49.0391 111.563V122.714C49.0391 123.583 49.1736 124.423 49.4221 125.213C52.4184 128.11 56.2231 127.344 56.2231 127.344L65.8208 116.409V111.564C65.8214 106.948 62.045 103.172 57.4302 103.172Z" fill="#B3B3B3"/>
<path d="M59.3807 106.419L54.9655 111.84C54.1037 112.898 52.533 113.059 51.4749 112.197L50.9779 111.792C49.9198 110.93 49.7591 109.359 50.6209 108.301L55.0361 102.88C55.8979 101.822 57.4686 101.661 58.5267 102.523L59.0238 102.929C60.0813 103.79 60.2419 105.361 59.3807 106.419Z" fill="#FFCD97"/>
<path d="M221.774 137.504C221.774 137.504 234.175 140.007 231.832 118.938C230.165 103.95 213.924 104.318 195.043 103.172L206.333 119.912L221.774 137.504Z" fill="white"/>
<path d="M220.566 113.332C225.182 113.332 228.958 117.108 228.958 121.723V132.874C228.958 133.743 228.823 134.583 228.574 135.374C225.578 138.27 221.773 137.504 221.773 137.504L212.176 126.569V121.724C212.175 117.108 215.952 113.332 220.566 113.332Z" fill="#B3B3B3"/>
<path d="M217.707 115.985L222.122 121.406C222.984 122.464 224.554 122.625 225.612 121.763L226.109 121.358C227.168 120.496 227.328 118.925 226.466 117.868L222.051 112.447C221.189 111.389 219.619 111.228 218.561 112.09L218.064 112.495C217.006 113.356 216.845 114.927 217.707 115.985Z" fill="#FFCD97"/>
<path d="M113.814 75.1136C110.272 75.1136 107.375 72.2157 107.375 68.6746V63.9625C107.375 60.4208 110.273 57.5234 113.814 57.5234C117.356 57.5234 120.253 60.4213 120.253 63.9625V68.6746C120.253 72.2157 117.355 75.1136 113.814 75.1136Z" fill="#DEB385"/>
<path d="M114.065 70.877H113.565C111.334 70.877 109.508 69.0511 109.508 66.8198V64.4946C109.508 62.2634 111.333 60.4375 113.565 60.4375H114.065C116.297 60.4375 118.122 62.2634 118.122 64.4946V66.8198C118.122 69.0511 116.297 70.877 114.065 70.877Z" fill="#B88F63"/>
<path d="M115.1 67.7413H112.527C111.745 67.7413 111.105 67.1019 111.105 66.3196C111.105 65.5378 111.745 64.8984 112.527 64.8984H115.1C115.882 64.8984 116.522 65.5378 116.522 66.3196C116.521 67.1013 115.882 67.7413 115.1 67.7413Z" fill="#DEB385"/>
<path d="M164.404 75.1136C167.946 75.1136 170.843 72.2157 170.843 68.6746V63.9625C170.843 60.4208 167.945 57.5234 164.404 57.5234C160.862 57.5234 157.965 60.4213 157.965 63.9625V68.6746C157.965 72.2157 160.863 75.1136 164.404 75.1136Z" fill="#DEB385"/>
<path d="M164.155 70.877H164.655C166.886 70.877 168.712 69.0511 168.712 66.8198V64.4946C168.712 62.2634 166.886 60.4375 164.655 60.4375H164.155C161.924 60.4375 160.098 62.2634 160.098 64.4946V66.8198C160.098 69.0511 161.924 70.877 164.155 70.877Z" fill="#B88F63"/>
<path d="M163.117 67.7413H165.69C166.472 67.7413 167.111 67.1019 167.111 66.3196C167.111 65.5378 166.472 64.8984 165.69 64.8984H163.117C162.335 64.8984 161.695 65.5378 161.695 66.3196C161.695 67.1013 162.335 67.7413 163.117 67.7413Z" fill="#DEB385"/>
<path d="M139.108 93.6446C125.195 93.6446 113.812 82.2616 113.812 68.3488V53.7905C113.812 41.7692 123.648 31.9336 135.669 31.9336H142.547C154.568 31.9336 164.404 41.7692 164.404 53.7905V68.3488C164.403 82.2616 153.021 93.6446 139.108 93.6446Z" fill="#FFCD97"/>
<path d="M139.109 70.1595C136.486 70.1595 134.34 68.0133 134.34 65.3901V58.1287C134.34 55.5055 136.486 53.3594 139.109 53.3594C141.732 53.3594 143.879 55.5055 143.879 58.1287V65.3907C143.878 68.0133 141.732 70.1595 139.109 70.1595Z" fill="#DEB385"/>
<path d="M129.759 56.0312C129.759 58.2881 127.929 60.1178 125.673 60.1178C123.416 60.1178 121.586 58.2881 121.586 56.0312" stroke="#9E7F5D" stroke-width="2" stroke-miterlimit="10" stroke-linecap="round" stroke-linejoin="round"/>
<path d="M156.767 56.0312C156.767 58.2881 154.937 60.1178 152.68 60.1178C150.424 60.1178 148.594 58.2881 148.594 56.0312" stroke="#9E7F5D" stroke-width="2" stroke-miterlimit="10" stroke-linecap="round" stroke-linejoin="round"/>
<path d="M129.458 50.5207L122.769 52.3289C121.873 52.5713 120.941 52.0358 120.699 51.1396C120.457 50.2433 120.992 49.312 121.888 49.0696L128.577 47.2615C129.474 47.0191 130.405 47.5545 130.647 48.4508C130.889 49.347 130.354 50.2783 129.458 50.5207Z" fill="#634A2E"/>
<path d="M148.896 50.5207L155.585 52.3289C156.481 52.5713 157.413 52.0358 157.655 51.1396C157.897 50.2433 157.362 49.312 156.466 49.0696L149.777 47.2615C148.88 47.0191 147.949 47.5545 147.707 48.4508C147.465 49.347 148 50.2783 148.896 50.5207Z" fill="#634A2E"/>
<path d="M113.796 60.4391C113.796 60.4391 108.637 41.068 116.407 36.535C124.177 32.0013 120.42 43.0807 120.42 43.0807C120.42 43.0807 117.853 55.3111 113.796 60.4391Z" fill="#634A2E"/>
<path d="M164.341 60.439C164.341 60.439 166.779 42.999 161.103 35.4452C155.699 28.2533 157.716 43.0807 157.716 43.0807C157.716 43.0807 160.283 55.311 164.341 60.439Z" fill="#634A2E"/>
<path d="M170.321 21.1289C170.321 21.1289 172.732 40.0329 154.115 43.7398C133.793 47.7858 113.814 46.9573 114.638 38.1464C115.261 31.4794 122.533 27.0025 139.104 27.2449C164.405 27.6152 170.321 21.1289 170.321 21.1289Z" fill="#87653F"/>
<path d="M112.709 142.765H169.083C169.285 141.357 169.396 139.921 169.396 138.459V105.572C169.396 88.9077 155.762 75.2734 139.098 75.2734C122.434 75.2734 108.801 88.9077 108.801 105.572V138.459C108.801 140.013 108.92 141.539 109.148 143.031C110.295 142.841 111.483 142.765 112.709 142.765Z" fill="white"/>
<path d="M139.099 139.144C130.84 139.144 114.587 136.12 108.53 131.078C106.802 155.219 104.441 191.734 103.793 219.085H117.119C117.119 219.085 121.555 151.394 139.1 151.394C156.644 151.394 161.08 219.085 161.08 219.085H174.406C173.757 191.734 171.396 155.219 169.668 131.078C163.612 136.12 147.358 139.144 139.099 139.144Z" fill="#3B445A"/>
<path d="M106.532 196.735C107.188 196.704 107.848 196.688 108.512 196.688C108.949 196.688 109.384 196.697 109.818 196.71C109.947 196.714 110.076 196.721 110.205 196.726C110.517 196.738 110.828 196.754 111.138 196.773C111.274 196.781 111.409 196.791 111.545 196.801C111.862 196.824 112.178 196.851 112.492 196.881C112.605 196.891 112.718 196.902 112.831 196.914C113.222 196.954 113.611 197 113.999 197.051C114.029 197.055 114.06 197.058 114.09 197.062C114.988 197.183 115.874 197.333 116.75 197.51C116.763 197.513 116.776 197.516 116.788 197.518C117.208 197.604 117.626 197.696 118.041 197.794C118.069 197.8 118.098 197.807 118.126 197.814C118.548 197.915 118.967 198.022 119.384 198.135H119.384C122.201 178.254 128.05 151.393 139.102 151.393C150.155 151.393 156.004 178.256 158.82 198.138C159.236 198.024 159.656 197.918 160.078 197.817C160.108 197.81 160.137 197.803 160.166 197.796C160.578 197.699 160.993 197.607 161.41 197.522C161.426 197.519 161.443 197.515 161.46 197.512C162.335 197.334 163.222 197.184 164.119 197.064C164.148 197.06 164.177 197.056 164.207 197.053C164.596 197.001 164.986 196.955 165.378 196.915C165.491 196.903 165.605 196.892 165.719 196.882C166.033 196.852 166.348 196.825 166.664 196.802C166.801 196.792 166.937 196.783 167.075 196.774C167.384 196.755 167.695 196.74 168.006 196.727C168.136 196.722 168.265 196.716 168.394 196.711C168.828 196.698 169.264 196.689 169.701 196.689C170.363 196.689 171.022 196.705 171.676 196.736C172.316 196.766 172.951 196.811 173.582 196.87C173.596 196.871 173.61 196.871 173.624 196.872C172.604 174.019 170.962 149.1 169.672 131.078C163.615 136.12 147.362 139.144 139.103 139.144C130.844 139.144 114.591 136.12 108.534 131.078C107.244 149.101 105.602 174.019 104.582 196.873C105.226 196.811 105.878 196.765 106.532 196.735Z" fill="#282E3D"/>
<path d="M221.975 73.1953H56.2227V193.733H221.975V73.1953Z" fill="#3C455B"/>
<path d="M219.443 75.0586H58.7578V191.87H219.443V75.0586Z" fill="#F30051"/>
<path d="M210.032 81.0391H68.168V191.869H210.032V81.0391Z" fill="white"/>
<path d="M210.032 81.0391H68.168V95.0352H210.032V81.0391Z" fill="white"/>
<path d="M210.032 95.0352H68.168V117.679H210.032V95.0352Z" fill="#D8E3E3"/>
<path d="M183.785 167.484H94.4102V191.87H183.785V167.484Z" fill="#D8E3E3"/>
<path d="M183.785 167.484H94.4102V177.438H183.785V167.484Z" fill="#B3BDBD"/>
<path d="M221.975 73.1953H56.2227V81.0399H221.975V73.1953Z" fill="#3C455B"/>
<path d="M216.477 79.7536H213.983C213.219 79.7536 212.594 79.1286 212.594 78.3641V75.8699C212.594 75.106 213.219 74.4805 213.983 74.4805H216.477C217.241 74.4805 217.867 75.1054 217.867 75.8699V78.3641C217.866 79.1281 217.241 79.7536 216.477 79.7536Z" fill="#161C2B"/>
<path d="M208.852 79.7536H206.358C205.594 79.7536 204.969 79.1286 204.969 78.3641V75.8699C204.969 75.106 205.594 74.4805 206.358 74.4805H208.852C209.616 74.4805 210.242 75.1054 210.242 75.8699V78.3641C210.242 79.1281 209.616 79.7536 208.852 79.7536Z" fill="#161C2B"/>
<path d="M201.231 79.7536H198.737C197.973 79.7536 197.348 79.1286 197.348 78.3641V75.8699C197.348 75.106 197.973 74.4805 198.737 74.4805H201.231C201.995 74.4805 202.621 75.1054 202.621 75.8699V78.3641C202.62 79.1281 201.995 79.7536 201.231 79.7536Z" fill="#161C2B"/>
<path d="M200.904 79.0566H199.067C198.503 79.0566 198.043 78.5963 198.043 78.033V76.1955C198.043 75.6322 198.503 75.1719 199.067 75.1719H200.904C201.467 75.1719 201.928 75.6328 201.928 76.1955V78.033C201.928 78.5963 201.467 79.0566 200.904 79.0566Z" fill="#B5D649"/>
<path d="M208.525 79.0566H206.688C206.124 79.0566 205.664 78.5963 205.664 78.033V76.1955C205.664 75.6322 206.124 75.1719 206.688 75.1719H208.525C209.088 75.1719 209.549 75.6328 209.549 76.1955V78.033C209.549 78.5963 209.088 79.0566 208.525 79.0566Z" fill="#EDD328"/>
<path d="M216.146 79.0566H214.309C213.746 79.0566 213.285 78.5963 213.285 78.033V76.1955C213.285 75.6322 213.746 75.1719 214.309 75.1719H216.146C216.71 75.1719 217.17 75.6328 217.17 76.1955V78.033C217.17 78.5963 216.71 79.0566 216.146 79.0566Z" fill="#ED565B"/>
<path d="M214.159 78.1903C214.082 78.1136 214.082 77.9874 214.159 77.9107L216.02 76.0497C216.097 75.973 216.223 75.973 216.3 76.0497C216.376 76.1265 216.376 76.2527 216.3 76.3294L214.439 78.1903C214.361 78.2671 214.236 78.2671 214.159 78.1903Z" fill="white"/>
<path d="M214.16 76.0497C214.236 75.973 214.362 75.973 214.439 76.0497L216.3 77.9107C216.377 77.9874 216.377 78.1136 216.3 78.1903C216.223 78.2671 216.097 78.2671 216.02 78.1903L214.16 76.3294C214.082 76.2521 214.082 76.1265 214.16 76.0497Z" fill="white"/>
<path d="M206.324 78.1471V78.1154C206.324 78.0153 206.406 77.9336 206.506 77.9336H208.706C208.806 77.9336 208.888 78.0153 208.888 78.1154V78.1471C208.888 78.2472 208.806 78.3289 208.706 78.3289H206.506C206.406 78.3289 206.324 78.2472 206.324 78.1471Z" fill="white"/>
<path d="M210.032 87.1875H68.168V95.0321H210.032V87.1875Z" fill="#C3CDCD"/>
<path d="M210.032 94.2969H68.168V95.0302H210.032V94.2969Z" fill="#949C9C"/>
<path d="M210.032 87.1875H180.523V95.0321H210.032V87.1875Z" fill="#3DBBE3"/>
<path d="M210.032 94.2969H180.523V95.0302H210.032V94.2969Z" fill="#F30051"/>
<path d="M186.05 91.4207C185.952 91.5186 185.844 91.6009 185.73 91.6698L185.968 91.9072C186.124 92.0634 186.38 92.0634 186.536 91.9072C186.692 91.751 186.692 91.4952 186.536 91.339L186.299 91.1016C186.229 91.215 186.147 91.3223 186.05 91.4207Z" fill="white"/>
<path d="M186.69 92.0616C186.62 92.1316 186.53 92.1689 186.438 92.1756L187.751 93.4888C187.852 93.5895 188.017 93.5895 188.118 93.4888C188.218 93.3876 188.218 93.2225 188.118 93.1219L186.804 91.8086C186.797 91.9009 186.761 91.991 186.69 92.0616Z" fill="white"/>
<path d="M183.443 88.8137C182.774 89.482 182.774 90.5657 183.443 91.234C184.111 91.9023 185.195 91.9023 185.863 91.234C186.531 90.5657 186.531 89.482 185.863 88.8137C185.195 88.1454 184.111 88.1454 183.443 88.8137ZM185.548 90.9193C185.053 91.4141 184.252 91.4141 183.757 90.9193C183.263 90.4245 183.263 89.6227 183.757 89.1284C184.252 88.6336 185.054 88.6336 185.548 89.1284C186.043 89.6233 186.043 90.425 185.548 90.9193Z" fill="white"/>
<path d="M191.836 89.9343C191.82 89.7983 191.755 89.6927 191.64 89.6175C191.526 89.5423 191.385 89.5047 191.219 89.5047C191.097 89.5047 190.991 89.5244 190.899 89.5638C190.809 89.6032 190.738 89.6573 190.687 89.7262C190.637 89.7951 190.612 89.8734 190.612 89.9611C190.612 90.0345 190.63 90.0976 190.664 90.1504C190.7 90.2023 190.746 90.2457 190.801 90.2806C190.857 90.3146 190.915 90.3428 190.976 90.3652C191.037 90.3866 191.093 90.4041 191.144 90.4175L191.423 90.4927C191.494 90.5115 191.574 90.5374 191.662 90.5705C191.75 90.6037 191.835 90.6488 191.916 90.7061C191.997 90.7625 192.064 90.835 192.117 90.9236C192.17 91.0122 192.196 91.1209 192.196 91.2498C192.196 91.3983 192.157 91.5325 192.079 91.6525C192.002 91.7724 191.89 91.8677 191.741 91.9384C191.593 92.0091 191.414 92.0444 191.203 92.0444C191.006 92.0444 190.835 92.0126 190.691 91.9491C190.548 91.8856 190.435 91.797 190.353 91.6833C190.272 91.5697 190.226 91.4377 190.215 91.2873H190.558C190.567 91.3912 190.602 91.4771 190.663 91.5451C190.725 91.6122 190.803 91.6623 190.897 91.6954C190.992 91.7276 191.094 91.7437 191.203 91.7437C191.33 91.7437 191.444 91.7232 191.545 91.682C191.646 91.6399 191.726 91.5818 191.785 91.5075C191.844 91.4323 191.874 91.3446 191.874 91.2444C191.874 91.1531 191.848 91.0788 191.797 91.0216C191.746 90.9643 191.679 90.9178 191.596 90.882C191.513 90.8462 191.423 90.8148 191.326 90.788L190.988 90.6913C190.773 90.6296 190.603 90.5415 190.478 90.4269C190.353 90.3124 190.29 90.1625 190.29 89.9772C190.29 89.8233 190.332 89.6891 190.415 89.5745C190.499 89.4591 190.612 89.3696 190.753 89.3061C190.895 89.2416 191.054 89.2094 191.23 89.2094C191.407 89.2094 191.564 89.2412 191.702 89.3047C191.84 89.3674 191.949 89.4533 192.03 89.5625C192.111 89.6716 192.154 89.7956 192.158 89.9343H191.836ZM192.743 91.9961V89.247H194.403V89.5423H193.076V90.4712H194.317V90.7665H193.076V91.7008H194.424V91.9961H192.743ZM195.115 91.9961H194.766L195.776 89.247H196.119L197.129 91.9961H196.78L195.958 89.6819H195.937L195.115 91.9961ZM195.244 90.9222H196.651V91.2175H195.244V90.9222ZM197.557 91.9961V89.247H198.486C198.701 89.247 198.877 89.2837 199.015 89.3571C199.153 89.4296 199.255 89.5293 199.321 89.6564C199.387 89.7835 199.42 89.928 199.42 90.09C199.42 90.252 199.387 90.3956 199.321 90.5209C199.255 90.6462 199.153 90.7446 199.016 90.8162C198.879 90.8869 198.704 90.9222 198.491 90.9222H197.74V90.6215H198.481C198.627 90.6215 198.745 90.6001 198.835 90.5571C198.925 90.5142 198.991 90.4533 199.031 90.3746C199.072 90.2949 199.093 90.2001 199.093 90.09C199.093 89.9799 199.072 89.8837 199.031 89.8014C198.99 89.7191 198.924 89.6555 198.834 89.6108C198.743 89.5651 198.624 89.5423 198.475 89.5423H197.89V91.9961H197.557ZM198.851 90.7612L199.528 91.9961H199.141L198.475 90.7612H198.851ZM202.187 90.1061H201.854C201.834 90.0103 201.8 89.9262 201.751 89.8537C201.702 89.7813 201.643 89.7204 201.574 89.6712C201.505 89.6211 201.428 89.5835 201.344 89.5584C201.26 89.5334 201.172 89.5208 201.081 89.5208C200.914 89.5208 200.764 89.5629 200.629 89.647C200.494 89.7311 200.387 89.8551 200.308 90.0188C200.229 90.1826 200.19 90.3835 200.19 90.6215C200.19 90.8596 200.229 91.0605 200.308 91.2243C200.387 91.388 200.494 91.512 200.629 91.5961C200.764 91.6802 200.914 91.7223 201.081 91.7223C201.172 91.7223 201.26 91.7097 201.344 91.6847C201.428 91.6596 201.505 91.6225 201.574 91.5733C201.643 91.5231 201.702 91.4618 201.751 91.3894C201.8 91.316 201.834 91.2319 201.854 91.137H202.187C202.162 91.2775 202.116 91.4032 202.05 91.5142C201.984 91.6252 201.902 91.7196 201.803 91.7974C201.705 91.8744 201.594 91.933 201.472 91.9733C201.35 92.0135 201.22 92.0337 201.081 92.0337C200.846 92.0337 200.638 91.9764 200.455 91.8619C200.273 91.7473 200.129 91.5844 200.025 91.3733C199.92 91.1621 199.867 90.9115 199.867 90.6215C199.867 90.3316 199.92 90.081 200.025 89.8698C200.129 89.6587 200.273 89.4958 200.455 89.3812C200.638 89.2667 200.846 89.2094 201.081 89.2094C201.22 89.2094 201.35 89.2296 201.472 89.2698C201.594 89.3101 201.705 89.3692 201.803 89.447C201.902 89.524 201.984 89.6179 202.05 89.7289C202.116 89.839 202.162 89.9647 202.187 90.1061ZM202.725 91.9961V89.247H203.058V90.4712H204.524V89.247H204.857V91.9961H204.524V90.7665H203.058V91.9961H202.725Z" fill="white"/>
<path d="M118.735 110C118.593 110 118.477 109.954 118.385 109.863C118.294 109.771 118.248 109.655 118.248 109.513V100.74C118.248 100.598 118.294 100.482 118.385 100.39C118.477 100.299 118.593 100.253 118.735 100.253H124.588C124.721 100.253 124.833 100.299 124.925 100.39C125.025 100.474 125.075 100.586 125.075 100.727C125.075 100.852 125.025 100.96 124.925 101.052C124.833 101.143 124.721 101.189 124.588 101.189H119.221V104.634H123.128C123.269 104.634 123.386 104.679 123.477 104.771C123.569 104.862 123.614 104.975 123.614 105.108C123.614 105.241 123.569 105.353 123.477 105.445C123.386 105.536 123.269 105.582 123.128 105.582H119.221V109.064H124.588C124.721 109.064 124.833 109.11 124.925 109.201C125.025 109.293 125.075 109.401 125.075 109.526C125.075 109.667 125.025 109.784 124.925 109.875C124.833 109.958 124.721 110 124.588 110H118.735ZM127.376 110C127.234 110 127.118 109.954 127.026 109.863C126.935 109.771 126.889 109.655 126.889 109.513V100.74C126.889 100.598 126.935 100.482 127.026 100.39C127.118 100.299 127.234 100.253 127.376 100.253H129.709C130.317 100.253 130.858 100.382 131.332 100.64C131.806 100.89 132.176 101.243 132.443 101.701C132.717 102.15 132.854 102.67 132.854 103.261C132.854 103.827 132.717 104.33 132.443 104.771C132.176 105.212 131.806 105.557 131.332 105.807C130.858 106.056 130.317 106.181 129.709 106.181H127.862V109.513C127.862 109.655 127.817 109.771 127.725 109.863C127.634 109.954 127.517 110 127.376 110ZM132.592 110C132.484 110 132.397 109.979 132.33 109.938C132.272 109.896 132.218 109.834 132.168 109.75L129.772 105.932L130.745 105.682L132.979 109.251C133.104 109.451 133.125 109.626 133.042 109.775C132.967 109.925 132.817 110 132.592 110ZM127.862 105.245H129.709C130.134 105.245 130.508 105.162 130.833 104.996C131.165 104.821 131.427 104.584 131.619 104.284C131.81 103.985 131.906 103.644 131.906 103.261C131.906 102.853 131.81 102.495 131.619 102.188C131.427 101.871 131.165 101.626 130.833 101.451C130.508 101.276 130.134 101.189 129.709 101.189H127.862V105.245ZM135.09 110C134.949 110 134.832 109.954 134.741 109.863C134.649 109.771 134.604 109.655 134.604 109.513V100.74C134.604 100.598 134.649 100.482 134.741 100.39C134.832 100.299 134.949 100.253 135.09 100.253H137.424C138.031 100.253 138.572 100.382 139.047 100.64C139.521 100.89 139.891 101.243 140.157 101.701C140.432 102.15 140.569 102.67 140.569 103.261C140.569 103.827 140.432 104.33 140.157 104.771C139.891 105.212 139.521 105.557 139.047 105.807C138.572 106.056 138.031 106.181 137.424 106.181H135.577V109.513C135.577 109.655 135.531 109.771 135.44 109.863C135.348 109.954 135.232 110 135.09 110ZM140.307 110C140.199 110 140.111 109.979 140.045 109.938C139.987 109.896 139.933 109.834 139.883 109.75L137.487 105.932L138.46 105.682L140.694 109.251C140.819 109.451 140.839 109.626 140.756 109.775C140.681 109.925 140.532 110 140.307 110ZM135.577 105.245H137.424C137.848 105.245 138.223 105.162 138.547 104.996C138.88 104.821 139.142 104.584 139.334 104.284C139.525 103.985 139.621 103.644 139.621 103.261C139.621 102.853 139.525 102.495 139.334 102.188C139.142 101.871 138.88 101.626 138.547 101.451C138.223 101.276 137.848 101.189 137.424 101.189H135.577V105.245ZM146.824 110.125C146.1 110.125 145.434 110 144.827 109.75C144.219 109.501 143.691 109.151 143.242 108.702C142.801 108.253 142.456 107.724 142.206 107.117C141.965 106.51 141.844 105.844 141.844 105.12C141.844 104.405 141.965 103.743 142.206 103.136C142.456 102.529 142.801 102 143.242 101.551C143.691 101.102 144.219 100.752 144.827 100.503C145.434 100.253 146.1 100.128 146.824 100.128C147.539 100.128 148.201 100.253 148.808 100.503C149.415 100.752 149.944 101.102 150.393 101.551C150.842 102 151.187 102.529 151.429 103.136C151.678 103.743 151.803 104.405 151.803 105.12C151.803 105.844 151.678 106.51 151.429 107.117C151.187 107.724 150.842 108.253 150.393 108.702C149.944 109.151 149.415 109.501 148.808 109.75C148.201 110 147.539 110.125 146.824 110.125ZM146.824 109.201C147.398 109.201 147.93 109.101 148.421 108.902C148.912 108.694 149.336 108.407 149.694 108.041C150.06 107.666 150.343 107.234 150.543 106.743C150.742 106.244 150.842 105.703 150.842 105.12C150.842 104.546 150.742 104.014 150.543 103.523C150.343 103.024 150.06 102.591 149.694 102.225C149.336 101.851 148.912 101.564 148.421 101.364C147.93 101.156 147.398 101.052 146.824 101.052C146.241 101.052 145.705 101.156 145.214 101.364C144.723 101.564 144.294 101.851 143.928 102.225C143.57 102.591 143.292 103.024 143.092 103.523C142.892 104.014 142.793 104.546 142.793 105.12C142.793 105.703 142.892 106.244 143.092 106.743C143.292 107.234 143.57 107.666 143.928 108.041C144.294 108.407 144.723 108.694 145.214 108.902C145.705 109.101 146.241 109.201 146.824 109.201ZM154.298 110C154.156 110 154.04 109.954 153.948 109.863C153.857 109.771 153.811 109.655 153.811 109.513V100.74C153.811 100.598 153.857 100.482 153.948 100.39C154.04 100.299 154.156 100.253 154.298 100.253H156.632C157.239 100.253 157.78 100.382 158.254 100.64C158.728 100.89 159.098 101.243 159.365 101.701C159.639 102.15 159.777 102.67 159.777 103.261C159.777 103.827 159.639 104.33 159.365 104.771C159.098 105.212 158.728 105.557 158.254 105.807C157.78 106.056 157.239 106.181 156.632 106.181H154.785V109.513C154.785 109.655 154.739 109.771 154.647 109.863C154.556 109.954 154.439 110 154.298 110ZM159.514 110C159.406 110 159.319 109.979 159.252 109.938C159.194 109.896 159.14 109.834 159.09 109.75L156.694 105.932L157.667 105.682L159.901 109.251C160.026 109.451 160.047 109.626 159.964 109.775C159.889 109.925 159.739 110 159.514 110ZM154.785 105.245H156.632C157.056 105.245 157.43 105.162 157.755 104.996C158.088 104.821 158.35 104.584 158.541 104.284C158.732 103.985 158.828 103.644 158.828 103.261C158.828 102.853 158.732 102.495 158.541 102.188C158.35 101.871 158.088 101.626 157.755 101.451C157.43 101.276 157.056 101.189 156.632 101.189H154.785V105.245ZM161.734 107.614C161.59 107.614 161.464 107.565 161.356 107.466C161.257 107.358 161.208 107.232 161.208 107.088V99.9978C161.208 99.8451 161.257 99.7193 161.356 99.6204C161.464 99.5126 161.59 99.4586 161.734 99.4586C161.886 99.4586 162.012 99.5126 162.111 99.6204C162.21 99.7193 162.259 99.8451 162.259 99.9978V107.088C162.259 107.232 162.205 107.358 162.098 107.466C161.99 107.565 161.868 107.614 161.734 107.614ZM161.734 110C161.518 110 161.334 109.924 161.181 109.771C161.028 109.618 160.952 109.434 160.952 109.218C160.952 108.993 161.028 108.805 161.181 108.652C161.334 108.499 161.518 108.423 161.734 108.423C161.949 108.423 162.134 108.504 162.286 108.665C162.439 108.818 162.515 109.002 162.515 109.218C162.515 109.434 162.439 109.618 162.286 109.771C162.134 109.924 161.949 110 161.734 110Z" fill="white"/>
<path d="M98.6403 171.078C98.6146 170.861 98.5104 170.693 98.3276 170.573C98.1449 170.453 97.9208 170.393 97.6553 170.393C97.4611 170.393 97.2912 170.424 97.1456 170.487C97.0014 170.55 96.8887 170.636 96.8073 170.746C96.7274 170.856 96.6874 170.981 96.6874 171.121C96.6874 171.238 96.7152 171.339 96.7709 171.423C96.828 171.506 96.9008 171.575 96.9893 171.631C97.0778 171.685 97.1706 171.73 97.2677 171.765C97.3648 171.8 97.454 171.828 97.5354 171.849L97.9808 171.969C98.095 171.999 98.222 172.04 98.3619 172.093C98.5032 172.146 98.6381 172.218 98.7666 172.309C98.8965 172.399 99.0036 172.515 99.0878 172.656C99.172 172.798 99.2142 172.971 99.2142 173.177C99.2142 173.414 99.1521 173.628 99.0279 173.819C98.9051 174.01 98.7252 174.162 98.4882 174.275C98.2527 174.388 97.9665 174.444 97.6296 174.444C97.3155 174.444 97.0436 174.394 96.8137 174.292C96.5853 174.191 96.4054 174.05 96.2741 173.868C96.1442 173.687 96.0707 173.476 96.0536 173.237H96.6017C96.616 173.402 96.6717 173.539 96.7688 173.648C96.8673 173.755 96.9915 173.835 97.1413 173.888C97.2927 173.939 97.4554 173.965 97.6296 173.965C97.8323 173.965 98.0143 173.932 98.1756 173.866C98.3369 173.799 98.4647 173.706 98.5589 173.588C98.6531 173.468 98.7002 173.328 98.7002 173.168C98.7002 173.022 98.6596 172.904 98.5782 172.813C98.4968 172.721 98.3897 172.647 98.257 172.59C98.1242 172.533 97.9808 172.483 97.8266 172.44L97.287 172.286C96.9443 172.187 96.6731 172.047 96.4733 171.864C96.2734 171.681 96.1735 171.442 96.1735 171.147C96.1735 170.901 96.2398 170.687 96.3726 170.504C96.5068 170.32 96.6867 170.177 96.9122 170.076C97.1392 169.973 97.3926 169.922 97.6724 169.922C97.9551 169.922 98.2063 169.972 98.4262 170.074C98.646 170.174 98.8202 170.311 98.9486 170.485C99.0785 170.659 99.1471 170.857 99.1542 171.078H98.6403ZM103.788 172.174C103.788 172.637 103.704 173.037 103.537 173.374C103.37 173.711 103.141 173.97 102.85 174.153C102.558 174.336 102.226 174.427 101.852 174.427C101.478 174.427 101.145 174.336 100.854 174.153C100.563 173.97 100.334 173.711 100.167 173.374C99.9995 173.037 99.916 172.637 99.916 172.174C99.916 171.712 99.9995 171.312 100.167 170.975C100.334 170.638 100.563 170.379 100.854 170.196C101.145 170.013 101.478 169.922 101.852 169.922C102.226 169.922 102.558 170.013 102.85 170.196C103.141 170.379 103.37 170.638 103.537 170.975C103.704 171.312 103.788 171.712 103.788 172.174ZM103.274 172.174C103.274 171.795 103.21 171.474 103.083 171.213C102.957 170.952 102.787 170.754 102.571 170.62C102.357 170.486 102.117 170.419 101.852 170.419C101.586 170.419 101.346 170.486 101.13 170.62C100.916 170.754 100.745 170.952 100.618 171.213C100.493 171.474 100.43 171.795 100.43 172.174C100.43 172.554 100.493 172.875 100.618 173.136C100.745 173.397 100.916 173.595 101.13 173.729C101.346 173.863 101.586 173.93 101.852 173.93C102.117 173.93 102.357 173.863 102.571 173.729C102.787 173.595 102.957 173.397 103.083 173.136C103.21 172.875 103.274 172.554 103.274 172.174ZM104.68 174.367V169.982H106.162C106.505 169.982 106.786 170.04 107.006 170.157C107.226 170.273 107.389 170.432 107.494 170.635C107.6 170.838 107.653 171.068 107.653 171.326C107.653 171.585 107.6 171.814 107.494 172.014C107.389 172.214 107.227 172.371 107.008 172.485C106.79 172.598 106.511 172.654 106.171 172.654H104.972V172.174H106.154C106.388 172.174 106.576 172.14 106.719 172.072C106.863 172.003 106.967 171.906 107.032 171.78C107.097 171.653 107.13 171.502 107.13 171.326C107.13 171.151 107.097 170.997 107.032 170.866C106.966 170.735 106.861 170.633 106.717 170.562C106.573 170.489 106.382 170.453 106.145 170.453H105.212V174.367H104.68ZM106.745 172.397L107.824 174.367H107.207L106.145 172.397H106.745ZM108.538 174.367V169.982H110.019C110.362 169.982 110.643 170.04 110.863 170.157C111.083 170.273 111.246 170.432 111.351 170.635C111.457 170.838 111.51 171.068 111.51 171.326C111.51 171.585 111.457 171.814 111.351 172.014C111.246 172.214 111.084 172.371 110.865 172.485C110.647 172.598 110.368 172.654 110.028 172.654H108.829V172.174H110.011C110.245 172.174 110.433 172.14 110.576 172.072C110.72 172.003 110.824 171.906 110.889 171.78C110.954 171.653 110.987 171.502 110.987 171.326C110.987 171.151 110.954 170.997 110.889 170.866C110.823 170.735 110.718 170.633 110.574 170.562C110.43 170.489 110.239 170.453 110.002 170.453H109.069V174.367H108.538ZM110.602 172.397L111.681 174.367H111.064L110.002 172.397H110.602ZM111.871 169.982H112.479L113.695 172.029H113.746L114.963 169.982H115.571L113.986 172.56V174.367H113.455V172.56L111.871 169.982ZM116.737 173.768L116.702 173.999C116.678 174.162 116.641 174.336 116.591 174.521C116.543 174.707 116.492 174.882 116.439 175.046C116.386 175.21 116.343 175.341 116.308 175.438H115.923C115.942 175.346 115.966 175.226 115.996 175.076C116.026 174.926 116.056 174.758 116.086 174.573C116.117 174.389 116.143 174.2 116.163 174.007L116.189 173.768H116.737ZM119.617 169.982L120.919 173.673H120.971L122.273 169.982H122.829L121.219 174.367H120.671L119.061 169.982H119.617ZM123.512 174.367V169.982H126.159V170.453H124.043V171.935H126.022V172.406H124.043V173.896H126.193V174.367H123.512ZM127.116 174.367V169.982H128.598C128.941 169.982 129.222 170.04 129.442 170.157C129.662 170.273 129.824 170.432 129.93 170.635C130.036 170.838 130.088 171.068 130.088 171.326C130.088 171.585 130.036 171.814 129.93 172.014C129.824 172.214 129.662 172.371 129.444 172.485C129.226 172.598 128.946 172.654 128.607 172.654H127.408V172.174H128.59C128.824 172.174 129.012 172.14 129.155 172.072C129.299 172.003 129.403 171.906 129.467 171.78C129.533 171.653 129.566 171.502 129.566 171.326C129.566 171.151 129.533 170.997 129.467 170.866C129.402 170.735 129.297 170.633 129.153 170.562C129.009 170.489 128.818 170.453 128.581 170.453H127.647V174.367H127.116ZM129.181 172.397L130.26 174.367H129.643L128.581 172.397H129.181ZM131.504 169.982V174.367H130.973V169.982H131.504ZM132.569 174.367V169.982H135.199V170.453H133.1V171.935H135.002V172.406H133.1V174.367H132.569ZM136.639 169.982V174.367H136.108V169.982H136.639ZM141.233 171.352H140.702C140.671 171.199 140.616 171.065 140.537 170.95C140.46 170.834 140.366 170.737 140.254 170.658C140.145 170.578 140.022 170.518 139.888 170.479C139.754 170.439 139.614 170.419 139.469 170.419C139.203 170.419 138.963 170.486 138.747 170.62C138.533 170.754 138.362 170.952 138.235 171.213C138.11 171.474 138.047 171.795 138.047 172.174C138.047 172.554 138.11 172.875 138.235 173.136C138.362 173.397 138.533 173.595 138.747 173.729C138.963 173.863 139.203 173.93 139.469 173.93C139.614 173.93 139.754 173.91 139.888 173.87C140.022 173.83 140.145 173.771 140.254 173.693C140.366 173.613 140.46 173.515 140.537 173.399C140.616 173.282 140.671 173.148 140.702 172.997H141.233C141.193 173.221 141.12 173.421 141.015 173.598C140.909 173.775 140.778 173.926 140.621 174.05C140.464 174.173 140.287 174.267 140.092 174.331C139.898 174.395 139.69 174.427 139.469 174.427C139.095 174.427 138.762 174.336 138.471 174.153C138.18 173.97 137.95 173.711 137.783 173.374C137.616 173.037 137.533 172.637 137.533 172.174C137.533 171.712 137.616 171.312 137.783 170.975C137.95 170.638 138.18 170.379 138.471 170.196C138.762 170.013 139.095 169.922 139.469 169.922C139.69 169.922 139.898 169.954 140.092 170.018C140.287 170.082 140.464 170.177 140.621 170.301C140.778 170.424 140.909 170.573 141.015 170.75C141.12 170.926 141.193 171.127 141.233 171.352ZM142.271 174.367H141.714L143.325 169.982H143.873L145.483 174.367H144.926L143.616 170.676H143.582L142.271 174.367ZM142.477 172.654H144.721V173.125H142.477V172.654ZM145.414 170.453V169.982H148.703V170.453H147.324V174.367H146.793V170.453H145.414ZM150.054 169.982V174.367H149.523V169.982H150.054ZM154.819 172.174C154.819 172.637 154.735 173.037 154.568 173.374C154.401 173.711 154.172 173.97 153.881 174.153C153.59 174.336 153.257 174.427 152.883 174.427C152.509 174.427 152.176 174.336 151.885 174.153C151.594 173.97 151.365 173.711 151.198 173.374C151.031 173.037 150.947 172.637 150.947 172.174C150.947 171.712 151.031 171.312 151.198 170.975C151.365 170.638 151.594 170.379 151.885 170.196C152.176 170.013 152.509 169.922 152.883 169.922C153.257 169.922 153.59 170.013 153.881 170.196C154.172 170.379 154.401 170.638 154.568 170.975C154.735 171.312 154.819 171.712 154.819 172.174ZM154.305 172.174C154.305 171.795 154.241 171.474 154.114 171.213C153.989 170.952 153.818 170.754 153.602 170.62C153.388 170.486 153.149 170.419 152.883 170.419C152.617 170.419 152.377 170.486 152.161 170.62C151.947 170.754 151.777 170.952 151.65 171.213C151.524 171.474 151.461 171.795 151.461 172.174C151.461 172.554 151.524 172.875 151.65 173.136C151.777 173.397 151.947 173.595 152.161 173.729C152.377 173.863 152.617 173.93 152.883 173.93C153.149 173.93 153.388 173.863 153.602 173.729C153.818 173.595 153.989 173.397 154.114 173.136C154.241 172.875 154.305 172.554 154.305 172.174ZM159.189 169.982V174.367H158.675L156.286 170.924H156.243V174.367H155.712V169.982H156.226L158.624 173.434H158.667V169.982H159.189ZM161.948 174.367V169.982H164.577V170.453H162.479V171.935H164.38V172.406H162.479V174.367H161.948ZM165.119 174.367H164.562L166.173 169.982H166.721L168.331 174.367H167.774L166.464 170.676H166.43L165.119 174.367ZM165.325 172.654H167.569V173.125H165.325V172.654ZM169.545 169.982V174.367H169.014V169.982H169.545ZM170.61 174.367V169.982H171.141V173.896H173.18V174.367H170.61ZM174.002 174.367V169.982H176.649V170.453H174.533V171.935H176.512V172.406H174.533V173.896H176.683V174.367H174.002ZM178.959 174.367H177.606V169.982H179.019C179.444 169.982 179.808 170.07 180.111 170.245C180.414 170.419 180.646 170.67 180.807 170.997C180.968 171.322 181.049 171.712 181.049 172.166C181.049 172.623 180.968 173.016 180.805 173.346C180.642 173.674 180.405 173.927 180.094 174.104C179.783 174.279 179.404 174.367 178.959 174.367ZM178.137 173.896H178.925C179.287 173.896 179.588 173.826 179.826 173.686C180.065 173.546 180.242 173.347 180.36 173.089C180.477 172.83 180.535 172.523 180.535 172.166C180.535 171.812 180.477 171.507 180.362 171.252C180.246 170.995 180.073 170.798 179.843 170.661C179.614 170.522 179.327 170.453 178.985 170.453H178.137V173.896Z" fill="white"/>
<path d="M106.751 123.246L97.7535 144.85H101.417V137.577H112.785V144.85H117.095V153.739H112.785V161.066H101.417V153.739H85.3086V145.658L95.0063 123.246H106.751Z" fill="#B3BDBD"/>
<path d="M182.544 123.246L173.547 144.85H177.21V137.577H188.577V144.85H192.888V153.739H188.577V161.066H177.21V153.739H161.102V145.658L170.799 123.246H182.544Z" fill="#B3BDBD"/>
<path d="M139.098 123.246C128.654 123.246 120.188 131.712 120.188 142.156C120.188 152.6 128.654 161.066 139.098 161.066C149.542 161.066 158.008 152.6 158.008 142.156C158.008 131.712 149.542 123.246 139.098 123.246Z" fill="#C3CDCD"/>
<path d="M145.088 143.028L146.053 142.062L148.192 139.924C149.859 138.256 149.859 135.527 148.192 133.86C146.524 132.193 143.796 132.193 142.128 133.86L139.99 135.998L139.024 136.964L135.92 133.86C134.252 132.193 131.523 132.193 129.856 133.86C128.189 135.527 128.189 138.256 129.856 139.924L132.96 143.028L131.994 143.994L129.856 146.132C128.189 147.799 128.189 150.528 129.856 152.196C131.523 153.863 134.252 153.863 135.92 152.196L138.058 150.057L139.024 149.092L142.128 152.196C143.796 153.863 146.524 153.863 148.192 152.196C149.859 150.528 149.859 147.799 148.192 146.132L145.088 143.028Z" fill="#9DA6A6"/>
<path d="M130.255 150.924C128.66 149.329 128.66 146.719 130.255 145.124L141.992 133.387C143.586 131.793 146.196 131.793 147.791 133.387C149.386 134.982 149.386 137.592 147.791 139.187L136.054 150.924C134.46 152.519 131.85 152.519 130.255 150.924Z" fill="#F1535C"/>
<path d="M139.944 135.431L132.297 143.078L138.096 148.877L145.743 141.231L139.944 135.431Z" fill="#B53037"/>
<path d="M130.255 133.387C131.849 131.793 134.459 131.793 136.054 133.387L147.791 145.124C149.386 146.719 149.386 149.328 147.791 150.924C146.197 152.518 143.587 152.518 141.992 150.924L130.255 139.187C128.66 137.592 128.66 134.982 130.255 133.387Z" fill="#F1535C"/>
<path d="M109.646 104.586C108.668 104.586 107.875 105.379 107.875 106.357C107.875 107.336 108.668 108.129 109.646 108.129C110.625 108.129 111.418 107.336 111.418 106.357C111.418 105.379 110.625 104.586 109.646 104.586Z" fill="white"/>
<path d="M168.549 104.586C167.57 104.586 166.777 105.379 166.777 106.357C166.777 107.336 167.571 108.129 168.549 108.129C169.527 108.129 170.32 107.336 170.32 106.357C170.32 105.379 169.527 104.586 168.549 104.586Z" fill="white"/>
<path d="M104.336 218.246C104.336 218.246 101.726 228.21 85.9347 231.769C83.8258 232.244 81.906 233.405 80.6766 235.184C79.5947 236.749 78.7635 238.915 79.2611 241.651C79.7003 244.066 82.1484 245.567 84.5331 244.984C91.3974 243.304 106.814 239.787 118.903 238.912C118.903 238.912 120.344 225.218 117.119 219.085L104.336 218.246Z" fill="#161C2B"/>
<path d="M174.029 218.246C174.029 218.246 176.639 228.21 192.43 231.769C194.539 232.244 196.459 233.405 197.688 235.184C198.77 236.749 199.601 238.915 199.104 241.651C198.665 244.066 196.216 245.567 193.832 244.984C186.967 243.304 171.551 239.787 159.462 238.912C159.462 238.912 158.02 225.218 161.246 219.085L174.029 218.246Z" fill="#161C2B"/>
<path d="M116.444 221.991H104.007C101.948 221.991 100.262 220.306 100.262 218.246C100.262 216.186 101.948 214.5 104.007 214.5H116.444C118.504 214.5 120.19 216.185 120.19 218.246C120.19 220.305 118.505 221.991 116.444 221.991Z" fill="#5D657A"/>
<path d="M174.284 221.991H161.847C159.787 221.991 158.102 220.306 158.102 218.246C158.102 216.186 159.787 214.5 161.847 214.5H174.284C176.344 214.5 178.03 216.185 178.03 218.246C178.03 220.305 176.344 221.991 174.284 221.991Z" fill="#5D657A"/>
<path d="M116.444 218.248H104.007C102.629 218.248 101.421 217.491 100.771 216.375C100.449 216.927 100.262 217.566 100.262 218.248C100.262 220.308 101.947 221.993 104.007 221.993H116.444C118.504 221.993 120.189 220.308 120.189 218.248C120.189 217.566 120.002 216.927 119.68 216.375C119.03 217.491 117.822 218.248 116.444 218.248Z" fill="#495066"/>
<path d="M174.283 218.248H161.847C160.468 218.248 159.261 217.491 158.611 216.375C158.289 216.927 158.102 217.566 158.102 218.248C158.102 220.308 159.787 221.993 161.847 221.993H174.284C176.344 221.993 178.03 220.308 178.03 218.248C178.03 217.566 177.842 216.927 177.52 216.375C176.869 217.491 175.662 218.248 174.283 218.248Z" fill="#495066"/>
<path d="M221.977 140.035C217.362 140.035 213.586 136.26 213.586 131.644V123.782C213.586 119.166 217.362 115.391 221.977 115.391C226.592 115.391 230.368 119.166 230.368 123.782V131.644C230.368 136.26 226.592 140.035 221.977 140.035Z" fill="#FFCD97"/>
<path d="M201.907 121.642H219.749C221.289 121.642 222.55 120.381 222.55 118.841C222.55 117.3 221.29 116.039 219.749 116.039H201.907C200.366 116.039 199.105 117.3 199.105 118.841C199.105 120.381 200.366 121.642 201.907 121.642Z" fill="#FFCD97"/>
<path d="M200.689 127.736H218.219C219.674 127.736 220.865 126.546 220.865 125.09V124.779C220.865 123.324 219.674 122.133 218.219 122.133H200.689C199.234 122.133 198.043 123.324 198.043 124.779V125.09C198.043 126.545 199.234 127.736 200.689 127.736Z" fill="#FFCD97"/>
<path d="M202.786 133.693H218.062C219.602 133.693 220.863 132.432 220.863 130.892C220.863 129.351 219.603 128.09 218.062 128.09H202.786C201.245 128.09 199.984 129.351 199.984 130.892C199.984 132.432 201.245 133.693 202.786 133.693Z" fill="#FFCD97"/>
<path d="M206.599 139.564H220.43C221.97 139.564 223.231 138.304 223.231 136.763C223.231 135.222 221.971 133.961 220.43 133.961H206.599C205.058 133.961 203.797 135.221 203.797 136.763C203.797 138.304 205.058 139.564 206.599 139.564Z" fill="#FFCD97"/>
<path d="M56.2232 129.95C51.6084 129.95 47.832 126.175 47.832 121.559V114.251C47.832 109.635 51.6078 105.859 56.2232 105.859C60.838 105.859 64.6143 109.635 64.6143 114.251V121.559C64.6143 126.175 60.8385 129.95 56.2232 129.95Z" fill="#FFCD97"/>
<path d="M75.565 111.986H57.7236C56.1829 111.986 54.9219 110.725 54.9219 109.184C54.9219 107.644 56.1829 106.383 57.7236 106.383H75.565C77.1057 106.383 78.3667 107.644 78.3667 109.184C78.3662 110.726 77.1057 111.986 75.565 111.986Z" fill="#FFCD97"/>
<path d="M76.781 118.076H59.2515C57.7964 118.076 56.6055 116.885 56.6055 115.43V115.119C56.6055 113.664 57.7959 112.473 59.2515 112.473H76.781C78.2361 112.473 79.427 113.664 79.427 115.119V115.43C79.427 116.885 78.2367 118.076 76.781 118.076Z" fill="#FFCD97"/>
<path d="M74.6827 124.033H59.4071C57.8665 124.033 56.6055 122.772 56.6055 121.231C56.6055 119.691 57.8665 118.43 59.4071 118.43H74.6827C76.2234 118.43 77.4844 119.691 77.4844 121.231C77.4844 122.772 76.2234 124.033 74.6827 124.033Z" fill="#FFCD97"/>
<path d="M70.871 129.908H57.04C55.4993 129.908 54.2383 128.648 54.2383 127.106C54.2383 125.566 55.4987 124.305 57.04 124.305H70.871C72.4117 124.305 73.6727 125.565 73.6727 127.106C73.6727 128.648 72.4123 129.908 70.871 129.908Z" fill="#FFCD97"/>
<path d="M100.685 265.844C100.548 265.844 100.443 265.891 100.369 265.986C100.295 266.08 100.259 266.22 100.259 266.404V267.735C100.09 267.55 99.9156 267.413 99.7376 267.324C99.5592 267.235 99.3401 267.19 99.0804 267.19C98.6318 267.19 98.2698 267.348 97.9946 267.662C97.7199 267.977 97.582 268.416 97.582 268.98C97.582 269.246 97.6171 269.493 97.6866 269.722C97.7555 269.951 97.8573 270.15 97.9918 270.319C98.1258 270.489 98.2843 270.619 98.4683 270.71C98.6518 270.801 98.8514 270.847 99.0677 270.847C99.2306 270.847 99.3807 270.824 99.5175 270.779C99.6548 270.734 99.7827 270.668 99.9006 270.581C100.018 270.495 100.137 270.382 100.259 270.243V270.332C100.259 270.497 100.299 270.624 100.379 270.713C100.46 270.802 100.562 270.847 100.685 270.847C100.81 270.847 100.912 270.804 100.991 270.718C101.071 270.633 101.11 270.504 101.11 270.332V266.359C101.11 266.189 101.073 266.062 100.999 265.975C100.925 265.887 100.821 265.844 100.685 265.844ZM100.092 269.647C100.013 269.817 99.9089 269.944 99.7788 270.027C99.6476 270.109 99.503 270.151 99.3446 270.151C99.1889 270.151 99.0449 270.107 98.9125 270.019C98.7808 269.934 98.6768 269.804 98.6006 269.633C98.525 269.461 98.4866 269.253 98.4866 269.009C98.4866 268.778 98.5217 268.575 98.5939 268.4C98.6651 268.225 98.7663 268.091 98.8959 267.997C99.0254 267.904 99.1733 267.857 99.3379 267.857C99.4963 267.857 99.642 267.903 99.7754 267.993C99.9083 268.085 100.014 268.217 100.092 268.39C100.17 268.563 100.209 268.769 100.209 269.008C100.209 269.263 100.171 269.476 100.092 269.647Z" fill="#F30051"/>
<path d="M104.778 269.137C104.907 269.07 104.972 268.923 104.972 268.696C104.972 268.453 104.91 268.213 104.784 267.977C104.659 267.742 104.471 267.549 104.218 267.402C103.966 267.253 103.664 267.18 103.313 267.18C103.042 267.18 102.796 267.223 102.573 267.309C102.351 267.396 102.163 267.521 102.012 267.684C101.86 267.847 101.745 268.041 101.665 268.27C101.586 268.497 101.547 268.744 101.547 269.011C101.547 269.576 101.708 270.024 102.029 270.353C102.35 270.683 102.8 270.849 103.378 270.849C103.632 270.849 103.855 270.815 104.049 270.75C104.245 270.683 104.406 270.601 104.535 270.501C104.664 270.4 104.76 270.296 104.824 270.187C104.888 270.078 104.92 269.983 104.92 269.901C104.92 269.808 104.891 269.737 104.833 269.686C104.776 269.636 104.702 269.61 104.609 269.61C104.524 269.61 104.458 269.63 104.411 269.669C104.299 269.775 104.208 269.859 104.138 269.92C104.068 269.982 103.99 270.04 103.907 270.094C103.824 270.149 103.738 270.187 103.648 270.213C103.559 270.238 103.461 270.25 103.353 270.25C103.192 270.25 103.045 270.212 102.912 270.132C102.78 270.053 102.672 269.935 102.592 269.778C102.512 269.622 102.47 269.442 102.469 269.237H104.23C104.465 269.238 104.648 269.204 104.778 269.137ZM102.468 268.727C102.498 268.423 102.585 268.193 102.73 268.039C102.874 267.883 103.058 267.806 103.283 267.806C103.518 267.806 103.707 267.882 103.852 268.035C103.996 268.188 104.079 268.418 104.101 268.727H102.468Z" fill="#F30051"/>
<path d="M107.798 268.893C107.62 268.798 107.392 268.717 107.113 268.648C106.877 268.59 106.693 268.542 106.559 268.503C106.424 268.464 106.318 268.413 106.239 268.353C106.159 268.293 106.12 268.216 106.12 268.12C106.12 268.016 106.174 267.93 106.282 267.862C106.39 267.792 106.525 267.757 106.688 267.757C106.847 267.757 106.972 267.784 107.064 267.836C107.157 267.89 107.237 267.96 107.305 268.048C107.389 268.154 107.463 268.232 107.528 268.285C107.592 268.338 107.671 268.365 107.764 268.365C107.892 268.365 107.99 268.331 108.059 268.266C108.128 268.2 108.163 268.115 108.163 268.012C108.163 267.917 108.131 267.82 108.066 267.721C108.002 267.622 107.907 267.532 107.783 267.452C107.659 267.37 107.503 267.304 107.317 267.256C107.132 267.207 106.922 267.184 106.689 267.184C106.391 267.184 106.138 267.231 105.929 267.328C105.719 267.423 105.559 267.551 105.451 267.711C105.343 267.872 105.289 268.043 105.289 268.223C105.289 268.425 105.348 268.596 105.465 268.735C105.581 268.873 105.736 268.985 105.931 269.07C106.126 269.154 106.378 269.235 106.688 269.312C106.963 269.379 107.16 269.448 107.281 269.52C107.401 269.593 107.461 269.708 107.461 269.866C107.461 269.97 107.403 270.062 107.288 270.143C107.172 270.223 107.024 270.263 106.844 270.263C106.622 270.263 106.447 270.224 106.318 270.144C106.189 270.064 106.078 269.946 105.986 269.784C105.94 269.701 105.892 269.636 105.84 269.589C105.79 269.543 105.718 269.52 105.624 269.52C105.516 269.52 105.426 269.555 105.356 269.626C105.285 269.696 105.25 269.78 105.25 269.879C105.25 270.029 105.305 270.178 105.415 270.327C105.525 270.475 105.695 270.599 105.926 270.698C106.157 270.797 106.434 270.847 106.757 270.847C107.096 270.847 107.384 270.801 107.62 270.71C107.857 270.619 108.036 270.485 108.156 270.307C108.277 270.13 108.337 269.917 108.337 269.668C108.337 269.503 108.292 269.356 108.201 269.227C108.109 269.099 107.974 268.987 107.798 268.893Z" fill="#F30051"/>
<path d="M109.246 267.184C109.114 267.184 109.007 267.229 108.924 267.319C108.841 267.409 108.801 267.543 108.801 267.721V270.299C108.801 270.475 108.841 270.61 108.924 270.705C109.007 270.799 109.114 270.847 109.246 270.847C109.378 270.847 109.487 270.8 109.573 270.708C109.659 270.616 109.702 270.479 109.702 270.299V267.695C109.702 267.535 109.659 267.409 109.573 267.319C109.487 267.229 109.378 267.184 109.246 267.184Z" fill="#F30051"/>
<path d="M109.256 265.883C109.135 265.883 109.029 265.923 108.938 266.007C108.846 266.09 108.801 266.194 108.801 266.322C108.801 266.463 108.845 266.572 108.934 266.649C109.023 266.726 109.13 266.765 109.256 266.765C109.377 266.765 109.481 266.725 109.569 266.647C109.657 266.569 109.701 266.46 109.701 266.322C109.701 266.179 109.656 266.07 109.566 265.995C109.476 265.921 109.373 265.883 109.256 265.883Z" fill="#F30051"/>
<path d="M113.215 267.184C113.095 267.184 112.995 267.226 112.918 267.312C112.841 267.398 112.802 267.519 112.802 267.675V267.797C112.641 267.588 112.467 267.435 112.281 267.336C112.093 267.239 111.873 267.19 111.617 267.19C111.404 267.19 111.208 267.228 111.03 267.303C110.852 267.38 110.694 267.492 110.558 267.642C110.422 267.791 110.317 267.975 110.243 268.193C110.17 268.411 110.133 268.655 110.133 268.925C110.133 269.288 110.193 269.608 110.315 269.886C110.435 270.163 110.609 270.378 110.834 270.532C111.06 270.686 111.323 270.763 111.625 270.763C111.875 270.763 112.091 270.713 112.273 270.612C112.455 270.511 112.614 270.363 112.753 270.169C112.749 270.464 112.742 270.678 112.733 270.811C112.724 270.944 112.694 271.069 112.642 271.186C112.59 271.302 112.5 271.393 112.372 271.458C112.243 271.523 112.062 271.555 111.829 271.555C111.715 271.555 111.613 271.544 111.526 271.524C111.437 271.503 111.362 271.471 111.3 271.429C111.238 271.385 111.18 271.334 111.128 271.273C111.076 271.213 111.026 271.152 110.978 271.093C110.879 270.977 110.763 270.918 110.631 270.918C110.526 270.918 110.435 270.953 110.361 271.023C110.286 271.091 110.248 271.181 110.248 271.291C110.248 271.436 110.315 271.578 110.446 271.716C110.579 271.853 110.767 271.965 111.01 272.052C111.254 272.138 111.532 272.181 111.842 272.181C112.181 272.181 112.464 272.148 112.692 272.079C112.919 272.011 113.104 271.906 113.244 271.766C113.385 271.624 113.488 271.446 113.551 271.231C113.614 271.015 113.647 270.758 113.647 270.458V267.842C113.647 267.628 113.618 267.465 113.561 267.352C113.504 267.241 113.389 267.184 113.215 267.184ZM112.645 269.611C112.561 269.773 112.452 269.894 112.319 269.974C112.186 270.054 112.045 270.095 111.895 270.095C111.642 270.095 111.436 270.001 111.277 269.814C111.117 269.627 111.037 269.35 111.037 268.986C111.037 268.625 111.114 268.347 111.27 268.151C111.425 267.955 111.631 267.857 111.889 267.857C112.153 267.857 112.366 267.96 112.527 268.165C112.689 268.369 112.77 268.655 112.77 269.022C112.77 269.253 112.728 269.449 112.645 269.611Z" fill="#F30051"/>
<path d="M117.303 267.777C117.212 267.588 117.071 267.442 116.885 267.339C116.697 267.235 116.486 267.184 116.248 267.184C116.004 267.184 115.787 267.233 115.599 267.33C115.411 267.429 115.238 267.582 115.079 267.791V267.682C115.079 267.575 115.061 267.483 115.022 267.408C114.983 267.334 114.932 267.278 114.868 267.24C114.805 267.202 114.733 267.184 114.653 267.184C114.523 267.184 114.422 267.226 114.346 267.311C114.272 267.395 114.234 267.524 114.234 267.695V270.299C114.234 270.475 114.277 270.61 114.36 270.705C114.443 270.799 114.55 270.847 114.68 270.847C114.814 270.847 114.924 270.801 115.008 270.71C115.093 270.619 115.135 270.481 115.135 270.299V269.17C115.135 268.803 115.157 268.553 115.201 268.418C115.262 268.251 115.359 268.119 115.491 268.023C115.623 267.928 115.769 267.88 115.93 267.88C116.176 267.88 116.341 267.959 116.423 268.116C116.506 268.273 116.547 268.5 116.547 268.798V270.299C116.547 270.475 116.588 270.61 116.673 270.705C116.756 270.799 116.865 270.847 116.999 270.847C117.132 270.847 117.239 270.8 117.321 270.708C117.404 270.616 117.445 270.479 117.445 270.299V268.622C117.445 268.423 117.436 268.262 117.419 268.134C117.402 268.006 117.363 267.887 117.303 267.777Z" fill="#F30051"/>
<path d="M121.11 269.137C121.239 269.07 121.304 268.923 121.304 268.696C121.304 268.453 121.242 268.213 121.116 267.977C120.991 267.742 120.802 267.549 120.55 267.402C120.298 267.253 119.996 267.18 119.645 267.18C119.374 267.18 119.128 267.223 118.905 267.309C118.683 267.396 118.496 267.521 118.344 267.684C118.192 267.847 118.077 268.041 117.997 268.27C117.918 268.497 117.879 268.744 117.879 269.011C117.879 269.576 118.04 270.024 118.36 270.353C118.682 270.683 119.132 270.849 119.71 270.849C119.963 270.849 120.187 270.815 120.382 270.75C120.577 270.683 120.738 270.601 120.867 270.501C120.996 270.4 121.092 270.296 121.156 270.187C121.219 270.078 121.252 269.983 121.252 269.901C121.252 269.808 121.223 269.737 121.166 269.686C121.109 269.636 121.034 269.61 120.941 269.61C120.856 269.61 120.79 269.63 120.743 269.669C120.632 269.775 120.54 269.859 120.47 269.92C120.399 269.982 120.322 270.04 120.239 270.094C120.155 270.149 120.068 270.187 119.98 270.213C119.891 270.238 119.792 270.25 119.684 270.25C119.524 270.25 119.377 270.212 119.244 270.132C119.111 270.053 119.004 269.935 118.924 269.778C118.844 269.622 118.802 269.442 118.8 269.237H120.562C120.798 269.238 120.98 269.204 121.11 269.137ZM118.8 268.727C118.831 268.423 118.918 268.193 119.062 268.039C119.206 267.883 119.39 267.806 119.615 267.806C119.85 267.806 120.04 267.882 120.184 268.035C120.328 268.188 120.411 268.418 120.433 268.727H118.8Z" fill="#F30051"/>
<path d="M124.661 265.844C124.524 265.844 124.419 265.891 124.345 265.986C124.272 266.08 124.235 266.22 124.235 266.404V267.735C124.066 267.55 123.892 267.413 123.713 267.324C123.535 267.235 123.316 267.19 123.056 267.19C122.607 267.19 122.246 267.348 121.971 267.662C121.695 267.977 121.559 268.416 121.559 268.98C121.559 269.246 121.593 269.493 121.663 269.722C121.732 269.951 121.834 270.15 121.968 270.319C122.102 270.489 122.261 270.619 122.444 270.71C122.628 270.801 122.827 270.847 123.043 270.847C123.206 270.847 123.356 270.824 123.493 270.779C123.631 270.734 123.758 270.668 123.877 270.581C123.994 270.495 124.113 270.382 124.234 270.243V270.332C124.234 270.497 124.274 270.624 124.355 270.713C124.435 270.802 124.537 270.847 124.66 270.847C124.786 270.847 124.888 270.804 124.967 270.718C125.046 270.633 125.085 270.504 125.085 270.332V266.359C125.085 266.189 125.049 266.062 124.975 265.975C124.902 265.887 124.797 265.844 124.661 265.844ZM124.068 269.647C123.991 269.817 123.886 269.944 123.755 270.027C123.624 270.109 123.48 270.151 123.321 270.151C123.164 270.151 123.02 270.107 122.889 270.019C122.757 269.934 122.653 269.804 122.577 269.633C122.5 269.461 122.463 269.253 122.463 269.009C122.463 268.778 122.498 268.575 122.57 268.4C122.642 268.225 122.742 268.091 122.872 267.997C123.001 267.904 123.149 267.857 123.314 267.857C123.472 267.857 123.618 267.903 123.751 267.993C123.884 268.085 123.991 268.217 124.068 268.39C124.146 268.563 124.185 268.769 124.185 269.008C124.186 269.263 124.146 269.476 124.068 269.647Z" fill="#F30051"/>
<path d="M129.876 267.403C129.65 267.261 129.388 267.19 129.089 267.19C128.829 267.19 128.612 267.237 128.436 267.33C128.26 267.423 128.087 267.558 127.918 267.735V266.358C127.918 266.193 127.88 266.067 127.805 265.977C127.73 265.888 127.624 265.844 127.485 265.844C127.353 265.844 127.25 265.89 127.176 265.984C127.103 266.077 127.066 266.215 127.066 266.398V270.331C127.066 270.501 127.104 270.629 127.18 270.716C127.256 270.803 127.358 270.846 127.486 270.846C127.611 270.846 127.715 270.803 127.796 270.716C127.877 270.629 127.918 270.5 127.918 270.331V270.242C128.017 270.356 128.097 270.442 128.157 270.5C128.218 270.557 128.291 270.613 128.377 270.667C128.463 270.721 128.566 270.764 128.689 270.797C128.811 270.83 128.941 270.846 129.08 270.846C129.307 270.846 129.514 270.8 129.702 270.709C129.89 270.618 130.05 270.489 130.183 270.321C130.315 270.154 130.415 269.957 130.485 269.73C130.554 269.502 130.589 269.252 130.589 268.979C130.589 268.609 130.526 268.289 130.402 268.02C130.276 267.751 130.101 267.545 129.876 267.403ZM129.437 269.855C129.273 270.052 129.077 270.15 128.851 270.15C128.585 270.15 128.37 270.053 128.206 269.86C128.042 269.668 127.96 269.393 127.96 269.034C127.96 268.79 127.998 268.579 128.075 268.402C128.152 268.225 128.257 268.089 128.392 267.997C128.525 267.903 128.679 267.856 128.851 267.856C129.017 267.856 129.164 267.903 129.289 267.997C129.414 268.09 129.511 268.222 129.579 268.395C129.647 268.566 129.681 268.771 129.681 269.008C129.682 269.376 129.6 269.658 129.437 269.855Z" fill="#F30051"/>
<path d="M133.736 267.238C133.674 267.202 133.608 267.184 133.54 267.184C133.445 267.184 133.372 267.2 133.32 267.234C133.268 267.266 133.219 267.33 133.173 267.425C133.127 267.519 133.075 267.651 133.018 267.817L132.295 269.88L131.533 267.662C131.483 267.508 131.425 267.39 131.359 267.308C131.292 267.225 131.195 267.184 131.064 267.184C130.989 267.184 130.918 267.203 130.848 267.243C130.779 267.282 130.725 267.335 130.685 267.402C130.645 267.467 130.625 267.538 130.625 267.616C130.625 267.688 130.66 267.805 130.727 267.965L131.837 270.758L131.754 270.959C131.693 271.106 131.639 271.218 131.591 271.293C131.544 271.37 131.49 271.423 131.431 271.454C131.371 271.485 131.29 271.5 131.186 271.5C131.144 271.5 131.096 271.493 131.038 271.48C130.992 271.467 130.945 271.46 130.896 271.46C130.773 271.46 130.68 271.489 130.617 271.544C130.555 271.6 130.523 271.681 130.523 271.784C130.523 271.935 130.59 272.04 130.721 272.098C130.853 272.155 131.051 272.183 131.315 272.183C131.586 272.183 131.801 272.142 131.961 272.059C132.12 271.977 132.248 271.858 132.345 271.704C132.442 271.55 132.541 271.337 132.642 271.067L133.817 267.991C133.846 267.912 133.87 267.834 133.889 267.757C133.91 267.68 133.923 267.621 133.933 267.579C133.933 267.511 133.915 267.446 133.881 267.384C133.847 267.323 133.799 267.275 133.736 267.238Z" fill="#F30051"/>
<path d="M146.19 265.84C145.894 265.84 145.66 265.878 145.49 265.953C145.318 266.029 145.197 266.15 145.126 266.316C145.054 266.483 145.02 266.706 145.02 266.989V267.26H144.805C144.503 267.26 144.352 267.366 144.352 267.583C144.352 267.68 144.388 267.759 144.461 267.819C144.534 267.88 144.636 267.91 144.771 267.91H145.019V270.297C145.019 270.474 145.06 270.61 145.146 270.703C145.232 270.797 145.337 270.844 145.465 270.844C145.6 270.844 145.708 270.797 145.792 270.703C145.878 270.61 145.92 270.474 145.92 270.297V267.91H146.14C146.302 267.91 146.428 267.89 146.519 267.85C146.611 267.811 146.655 267.717 146.655 267.571C146.655 267.363 146.484 267.26 146.14 267.26H145.92V267.045C145.92 266.866 145.944 266.729 145.988 266.634C146.036 266.538 146.14 266.489 146.302 266.489C146.362 266.489 146.436 266.497 146.519 266.508C146.605 266.523 146.668 266.529 146.702 266.529C146.777 266.529 146.842 266.499 146.896 266.44C146.953 266.381 146.979 266.31 146.979 266.226C146.98 265.968 146.718 265.84 146.19 265.84Z" fill="#F30051"/>
<path d="M149.059 267.321C148.881 267.226 148.699 267.18 148.508 267.18C148.318 267.18 148.169 267.226 148.054 267.321C147.941 267.417 147.831 267.556 147.724 267.741C147.716 267.556 147.68 267.417 147.614 267.321C147.548 267.226 147.44 267.18 147.29 267.18C146.998 267.18 146.852 267.382 146.852 267.787V270.297C146.852 270.477 146.895 270.613 146.977 270.704C147.06 270.798 147.166 270.844 147.299 270.844C147.43 270.844 147.539 270.799 147.625 270.706C147.708 270.616 147.755 270.478 147.755 270.297V269.544C147.755 269.274 147.762 269.044 147.78 268.855C147.798 268.668 147.83 268.505 147.874 268.367C147.921 268.232 147.986 268.131 148.07 268.059C148.153 267.991 148.262 267.956 148.394 267.956C148.49 267.956 148.602 267.976 148.729 268.015C148.855 268.056 148.935 268.078 148.97 268.078C149.057 268.078 149.139 268.042 149.215 267.97C149.29 267.9 149.328 267.807 149.328 267.698C149.327 267.543 149.238 267.417 149.059 267.321Z" fill="#F30051"/>
<path d="M152.444 269.131C152.573 269.063 152.639 268.917 152.639 268.691C152.639 268.446 152.576 268.207 152.45 267.97C152.327 267.735 152.136 267.542 151.884 267.396C151.632 267.246 151.33 267.172 150.978 267.172C150.707 267.172 150.461 267.215 150.24 267.301C150.016 267.388 149.831 267.513 149.679 267.676C149.526 267.84 149.41 268.034 149.332 268.263C149.252 268.491 149.211 268.738 149.211 269.004C149.211 269.569 149.374 270.017 149.695 270.348C150.015 270.678 150.465 270.843 151.045 270.843C151.297 270.843 151.522 270.809 151.716 270.743C151.91 270.678 152.072 270.594 152.202 270.495C152.331 270.394 152.427 270.29 152.492 270.18C152.554 270.073 152.585 269.977 152.585 269.896C152.585 269.803 152.559 269.732 152.501 269.681C152.443 269.629 152.369 269.604 152.276 269.604C152.191 269.604 152.125 269.625 152.078 269.664C151.966 269.769 151.874 269.853 151.804 269.914C151.733 269.976 151.657 270.035 151.573 270.088C151.49 270.141 151.403 270.182 151.314 270.206C151.225 270.233 151.127 270.244 151.019 270.244C150.858 270.244 150.712 270.205 150.579 270.126C150.445 270.046 150.339 269.928 150.257 269.773C150.177 269.617 150.137 269.436 150.134 269.231H151.897C152.132 269.232 152.313 269.198 152.444 269.131ZM150.133 268.72C150.163 268.416 150.251 268.188 150.395 268.033C150.54 267.877 150.724 267.8 150.948 267.8C151.185 267.8 151.373 267.876 151.518 268.029C151.663 268.181 151.744 268.412 151.766 268.72H150.133Z" fill="#F30051"/>
<path d="M156.19 269.131C156.319 269.063 156.386 268.917 156.386 268.691C156.386 268.446 156.321 268.207 156.196 267.97C156.073 267.735 155.883 267.542 155.633 267.396C155.377 267.246 155.075 267.172 154.725 267.172C154.454 267.172 154.206 267.215 153.985 267.301C153.763 267.388 153.576 267.513 153.424 267.676C153.272 267.84 153.157 268.034 153.078 268.263C152.998 268.491 152.957 268.738 152.957 269.004C152.957 269.569 153.119 270.017 153.44 270.348C153.762 270.678 154.211 270.843 154.791 270.843C155.043 270.843 155.268 270.809 155.462 270.743C155.656 270.678 155.819 270.594 155.947 270.495C156.077 270.394 156.174 270.29 156.235 270.18C156.3 270.073 156.33 269.977 156.33 269.896C156.33 269.803 156.304 269.732 156.247 269.681C156.189 269.629 156.115 269.604 156.021 269.604C155.937 269.604 155.871 269.625 155.824 269.664C155.711 269.769 155.62 269.853 155.55 269.914C155.48 269.976 155.403 270.035 155.319 270.088C155.235 270.141 155.149 270.182 155.059 270.206C154.971 270.233 154.872 270.244 154.766 270.244C154.604 270.244 154.457 270.205 154.324 270.126C154.191 270.046 154.084 269.928 154.004 269.773C153.924 269.617 153.883 269.436 153.881 269.231H155.643C155.878 269.232 156.06 269.198 156.19 269.131ZM153.881 268.72C153.91 268.416 153.998 268.188 154.142 268.033C154.287 267.877 154.471 267.8 154.695 267.8C154.931 267.8 155.12 267.876 155.266 268.029C155.408 268.181 155.492 268.412 155.514 268.72H153.881Z" fill="#F30051"/>
<path d="M159.532 267.4C159.299 267.258 159.041 267.185 158.766 267.185C158.535 267.185 158.326 267.235 158.146 267.334C157.962 267.432 157.786 267.586 157.617 267.794V267.686C157.617 267.521 157.577 267.397 157.496 267.309C157.416 267.223 157.313 267.18 157.184 267.18C157.055 267.18 156.951 267.223 156.876 267.306C156.802 267.392 156.766 267.519 156.766 267.691V271.58C156.766 271.777 156.794 271.925 156.846 272.029C156.903 272.13 157.014 272.181 157.184 272.181C157.471 272.181 157.616 271.982 157.616 271.588V270.234C157.775 270.433 157.942 270.587 158.116 270.689C158.291 270.792 158.508 270.844 158.764 270.844C158.979 270.844 159.176 270.801 159.364 270.717C159.55 270.632 159.71 270.51 159.847 270.354C159.983 270.197 160.092 270.003 160.169 269.77C160.247 269.538 160.286 269.282 160.286 269.005C160.286 268.629 160.218 268.304 160.083 268.028C159.949 267.753 159.765 267.544 159.532 267.4ZM159.267 269.626C159.191 269.8 159.089 269.93 158.96 270.018C158.833 270.103 158.693 270.147 158.544 270.147C158.292 270.147 158.084 270.048 157.914 269.849C157.744 269.65 157.659 269.37 157.659 269.013C157.659 268.631 157.745 268.343 157.915 268.147C158.086 267.952 158.296 267.854 158.544 267.854C158.701 267.854 158.845 267.9 158.972 267.991C159.1 268.082 159.201 268.212 159.274 268.383C159.346 268.553 159.383 268.758 159.383 268.995C159.383 269.241 159.344 269.452 159.267 269.626Z" fill="#F30051"/>
<path d="M161.184 267.18C161.052 267.18 160.946 267.224 160.862 267.315C160.781 267.406 160.738 267.539 160.738 267.717V270.298C160.738 270.472 160.781 270.606 160.862 270.703C160.946 270.798 161.052 270.844 161.184 270.844C161.317 270.844 161.424 270.799 161.511 270.705C161.597 270.614 161.64 270.477 161.64 270.298V267.692C161.64 267.533 161.597 267.407 161.511 267.316C161.424 267.224 161.317 267.18 161.184 267.18Z" fill="#F30051"/>
<path d="M161.193 265.879C161.072 265.879 160.967 265.921 160.876 266.003C160.783 266.086 160.738 266.191 160.738 266.319C160.738 266.459 160.783 266.567 160.873 266.645C160.961 266.721 161.067 266.761 161.193 266.761C161.315 266.761 161.42 266.721 161.508 266.644C161.595 266.566 161.639 266.458 161.639 266.319C161.639 266.176 161.593 266.066 161.503 265.99C161.414 265.916 161.312 265.879 161.193 265.879Z" fill="#F30051"/>
<path d="M165.277 269.976L164.353 268.523L164.831 268.085C165.075 267.865 165.197 267.688 165.197 267.556C165.197 267.449 165.159 267.359 165.086 267.288C165.009 267.217 164.916 267.181 164.803 267.181C164.709 267.181 164.629 267.205 164.563 267.253C164.496 267.301 164.402 267.393 164.275 267.523L163.262 268.587V266.4C163.262 266.217 163.221 266.077 163.139 265.983C163.058 265.888 162.948 265.84 162.81 265.84C162.667 265.84 162.556 265.892 162.478 265.997C162.403 266.102 162.363 266.254 162.363 266.453V270.297C162.363 270.477 162.404 270.613 162.483 270.704C162.561 270.798 162.671 270.844 162.81 270.844C162.928 270.844 163.035 270.797 163.124 270.703C163.216 270.61 163.262 270.477 163.262 270.303V269.586L163.751 269.124L164.545 270.432C164.646 270.587 164.728 270.695 164.787 270.755C164.846 270.815 164.932 270.844 165.042 270.844C165.168 270.844 165.271 270.803 165.35 270.72C165.429 270.637 165.469 270.525 165.469 270.382C165.469 270.332 165.452 270.277 165.423 270.222C165.395 270.166 165.344 270.085 165.277 269.976Z" fill="#F30051"/>
<path d="M166.497 269.852C166.358 269.852 166.242 269.9 166.147 269.997C166.052 270.093 166.004 270.209 166.004 270.343C166.004 270.503 166.055 270.627 166.153 270.713C166.253 270.801 166.37 270.845 166.505 270.845C166.637 270.845 166.752 270.801 166.852 270.711C166.95 270.624 166.999 270.5 166.999 270.343C166.999 270.208 166.95 270.091 166.852 269.995C166.752 269.9 166.635 269.852 166.497 269.852Z" fill="#F30051"/>
<path d="M170.601 269.332C170.509 269.332 170.43 269.363 170.366 269.419C170.304 269.477 170.245 269.555 170.19 269.657C170.091 269.829 169.978 269.956 169.847 270.04C169.719 270.123 169.564 270.165 169.383 270.165C169.25 270.165 169.126 270.14 169.013 270.087C168.901 270.035 168.806 269.96 168.726 269.86C168.646 269.76 168.586 269.638 168.546 269.497C168.504 269.355 168.482 269.198 168.482 269.029C168.482 268.67 168.564 268.383 168.727 268.177C168.89 267.968 169.106 267.865 169.371 267.865C169.556 267.865 169.708 267.906 169.827 267.991C169.948 268.073 170.063 268.2 170.173 268.366C170.233 268.453 170.289 268.516 170.339 268.554C170.389 268.592 170.451 268.612 170.527 268.612C170.639 268.612 170.737 268.574 170.818 268.499C170.898 268.424 170.937 268.332 170.937 268.226C170.937 268.119 170.903 268.005 170.831 267.883C170.76 267.762 170.656 267.647 170.522 267.538C170.385 267.432 170.221 267.343 170.026 267.275C169.83 267.206 169.617 267.172 169.383 267.172C169.009 267.172 168.683 267.249 168.412 267.405C168.142 267.559 167.935 267.779 167.793 268.063C167.649 268.347 167.578 268.673 167.578 269.044C167.578 269.59 167.734 270.025 168.046 270.351C168.359 270.674 168.794 270.838 169.352 270.838C169.613 270.838 169.849 270.801 170.057 270.731C170.267 270.661 170.44 270.567 170.577 270.452C170.715 270.337 170.818 270.215 170.885 270.088C170.952 269.96 170.986 269.84 170.986 269.728C170.986 269.634 170.95 269.544 170.876 269.46C170.803 269.376 170.711 269.332 170.601 269.332Z" fill="#F30051"/>
<path d="M174.388 267.687C174.228 267.526 174.039 267.399 173.818 267.312C173.595 267.223 173.347 267.18 173.075 267.18C172.807 267.18 172.561 267.223 172.338 267.309C172.116 267.397 171.928 267.521 171.771 267.681C171.614 267.841 171.494 268.035 171.41 268.262C171.329 268.489 171.285 268.739 171.285 269.012C171.285 269.282 171.327 269.529 171.407 269.753C171.491 269.976 171.613 270.17 171.773 270.336C171.931 270.498 172.121 270.625 172.338 270.711C172.556 270.8 172.802 270.844 173.075 270.844C173.348 270.844 173.596 270.8 173.818 270.714C174.037 270.627 174.226 270.502 174.385 270.339C174.544 270.177 174.664 269.982 174.75 269.755C174.83 269.528 174.873 269.28 174.873 269.012C174.873 268.741 174.831 268.494 174.75 268.268C174.667 268.045 174.548 267.852 174.388 267.687ZM173.726 269.865C173.565 270.072 173.347 270.175 173.075 270.175C172.895 270.175 172.739 270.127 172.605 270.034C172.471 269.941 172.369 269.807 172.297 269.629C172.225 269.453 172.189 269.248 172.189 269.013C172.189 268.775 172.226 268.566 172.299 268.388C172.371 268.209 172.473 268.074 172.608 267.983C172.742 267.892 172.898 267.847 173.075 267.847C173.347 267.847 173.565 267.948 173.726 268.155C173.887 268.36 173.968 268.645 173.968 269.013C173.968 269.374 173.887 269.659 173.726 269.865Z" fill="#F30051"/>
<path d="M179.904 267.332C179.726 267.236 179.512 267.186 179.267 267.186C179.056 267.186 178.863 267.231 178.69 267.32C178.515 267.409 178.353 267.547 178.2 267.73C178.093 267.549 177.96 267.412 177.797 267.321C177.634 267.231 177.44 267.186 177.214 267.186C176.994 267.186 176.798 267.23 176.619 267.32C176.442 267.407 176.274 267.544 176.117 267.73V267.645C176.117 267.5 176.076 267.386 175.994 267.303C175.911 267.222 175.808 267.18 175.684 267.18C175.558 267.18 175.455 267.223 175.375 267.312C175.297 267.399 175.258 267.528 175.258 267.698V270.275C175.258 270.463 175.301 270.605 175.388 270.701C175.475 270.796 175.588 270.844 175.724 270.844C175.862 270.844 175.973 270.796 176.06 270.701C176.142 270.605 176.186 270.463 176.186 270.275V269.058C176.186 268.679 176.234 268.388 176.326 268.188C176.42 267.983 176.614 267.882 176.909 267.882C177.056 267.882 177.164 267.921 177.233 268.004C177.3 268.083 177.342 268.188 177.358 268.311C177.373 268.437 177.381 268.614 177.381 268.84V270.275C177.381 270.466 177.424 270.606 177.51 270.703C177.592 270.797 177.704 270.844 177.84 270.844C177.982 270.844 178.093 270.797 178.18 270.703C178.266 270.606 178.307 270.466 178.307 270.275V269.078C178.307 268.693 178.342 268.423 178.406 268.271C178.467 268.155 178.55 268.058 178.657 267.989C178.763 267.919 178.877 267.882 178.995 267.882C179.142 267.882 179.253 267.922 179.327 268.002C179.398 268.081 179.443 268.179 179.459 268.296C179.475 268.412 179.483 268.566 179.483 268.761V270.276C179.483 270.463 179.527 270.605 179.614 270.701C179.701 270.796 179.811 270.845 179.949 270.845C180.089 270.845 180.204 270.798 180.289 270.703C180.375 270.606 180.416 270.466 180.416 270.276V268.517C180.416 268.168 180.379 267.911 180.302 267.747C180.215 267.568 180.082 267.429 179.904 267.332Z" fill="#F30051"/>
<path d="M136.419 269.079H136.419C136.403 268.998 136.389 268.916 136.379 268.836C136.389 268.917 136.403 268.999 136.419 269.079Z" fill="#F30051"/>
<path d="M136.717 269.918C136.715 269.914 136.713 269.91 136.711 269.906C136.713 269.911 136.715 269.914 136.717 269.918Z" fill="#F30051"/>
<path d="M136.686 269.863C136.679 269.848 136.671 269.831 136.664 269.816C136.671 269.833 136.679 269.847 136.686 269.863Z" fill="#F30051"/>
<path d="M136.5 269.406C136.544 269.545 136.597 269.68 136.659 269.809C136.596 269.678 136.544 269.542 136.501 269.406H136.5Z" fill="#F30051"/>
<path d="M139.41 265.035L139.368 264.89C139.534 264.855 139.659 264.707 139.659 264.53C139.659 264.329 139.494 264.164 139.292 264.164C139.089 264.164 138.925 264.329 138.925 264.53C138.925 264.707 139.05 264.855 139.215 264.89L139.262 265.051C138.694 265.129 138.242 265.351 138.242 265.351L138.322 265.595C138.665 265.481 138.963 265.411 139.234 265.382C139.499 265.354 139.697 265.342 139.86 265.342C140.034 265.342 140.163 265.356 140.311 265.38L140.352 265.115C140.352 265.115 139.945 264.991 139.41 265.035Z" fill="#F30051"/>
<path d="M136.472 266.43C136.462 266.442 136.195 266.688 135.985 267.141C135.976 267.127 135.965 267.112 135.953 267.1C135.89 267.031 135.802 266.995 135.69 266.997C135.688 266.997 135.687 266.997 135.684 266.997C135.615 266.997 135.568 266.974 135.536 266.946C135.568 266.907 135.586 266.857 135.586 266.802C135.586 266.674 135.481 266.569 135.353 266.569C135.225 266.569 135.121 266.674 135.121 266.802C135.121 266.931 135.226 267.034 135.353 267.034C135.374 267.034 135.392 267.031 135.411 267.027C135.468 267.09 135.559 267.146 135.692 267.144C135.76 267.142 135.811 267.16 135.843 267.198C135.882 267.239 135.895 267.3 135.899 267.346C135.898 267.347 135.898 267.348 135.898 267.348C135.747 267.761 135.79 268.276 135.79 268.276L136.157 268.29C136.165 268.103 136.191 267.775 136.286 267.515C136.469 267.011 136.698 266.697 136.707 266.683L136.71 266.68C136.723 266.663 136.736 266.647 136.749 266.631L136.64 266.552L136.472 266.43Z" fill="#F30051"/>
<path d="M143.056 265.648C142.928 265.648 142.823 265.752 142.823 265.88C142.823 265.901 142.826 265.92 142.832 265.938C142.768 265.996 142.712 266.087 142.714 266.219C142.716 266.288 142.698 266.338 142.66 266.371C142.631 266.397 142.594 266.411 142.558 266.42C142.284 266.037 141.947 265.803 141.947 265.803L141.684 266.086C141.883 266.267 142.087 266.494 142.284 266.778C142.421 266.973 142.562 267.226 142.679 267.477L143.035 267.308C143.035 267.308 142.872 266.907 142.644 266.547C142.683 266.533 142.723 266.512 142.758 266.48C142.828 266.417 142.863 266.329 142.861 266.217C142.86 266.144 142.883 266.095 142.912 266.064C142.952 266.094 143.001 266.113 143.056 266.113C143.185 266.113 143.288 266.009 143.288 265.88C143.288 265.752 143.184 265.648 143.056 265.648Z" fill="#F30051"/>
<path d="M142.13 268.844C141.641 269.083 140.835 269.398 139.775 269.546C139.358 269.604 138.955 269.625 138.583 269.625C138.1 269.625 137.673 269.59 137.345 269.547C136.971 269.501 136.679 269.443 136.5 269.402C136.543 269.539 136.595 269.673 136.658 269.805C136.659 269.808 136.661 269.812 136.662 269.815C136.67 269.83 136.677 269.846 136.685 269.861C136.692 269.876 136.7 269.892 136.707 269.905C136.71 269.909 136.711 269.913 136.713 269.917C136.819 270.115 136.945 270.297 137.089 270.455C137.589 271.002 138.099 271.088 138.104 271.089L138.112 271.09L138.119 271.093C138.124 271.095 138.576 271.24 139.263 271.24C139.938 271.24 140.602 271.105 141.234 270.836C141.702 270.596 142.145 270.232 142.364 269.908C142.534 269.657 142.657 269.389 142.729 269.111C142.767 268.963 142.798 268.726 142.78 268.477C142.643 268.568 142.425 268.701 142.13 268.844Z" fill="#F30051"/>
<path d="M140.291 265.577C140.144 265.552 140.026 265.539 139.859 265.539C139.704 265.539 139.511 265.551 139.254 265.578C138.995 265.605 138.708 265.673 138.374 265.785C137.906 265.942 137.482 266.188 137.148 266.497L137.137 266.508C137.088 266.553 136.984 266.649 136.866 266.8C136.852 266.82 136.639 267.121 136.472 267.582C136.346 267.928 136.352 268.431 136.352 268.437V268.437C136.352 268.555 136.359 268.673 136.372 268.789C136.372 268.792 136.372 268.793 136.372 268.795C136.374 268.81 136.376 268.824 136.378 268.839C136.388 268.92 136.402 269.001 136.419 269.083C136.662 269.145 138.114 269.484 139.737 269.258C140.753 269.116 141.526 268.816 141.994 268.588C142.384 268.399 142.634 268.228 142.731 268.158C142.635 267.801 142.369 267.241 142.126 266.892C141.428 265.895 140.677 265.64 140.291 265.577ZM138.265 268.5C137.725 268.5 137.287 268.063 137.287 267.522C137.287 266.981 137.725 266.543 138.265 266.543C138.806 266.543 139.244 266.981 139.244 267.522C139.244 268.063 138.806 268.5 138.265 268.5ZM141.128 267.78C140.794 267.78 140.523 267.508 140.523 267.174C140.523 266.838 140.794 266.568 141.128 266.568C141.462 266.568 141.734 266.838 141.734 267.174C141.734 267.507 141.462 267.78 141.128 267.78Z" fill="#F30051"/>
</svg>
